G04 #@! TF.FileFunction,Copper,L1,Top,Signal*
%FSLAX46Y46*%
G04 Gerber Fmt 4.6, Leading zero omitted, Abs format (unit mm)*
G04 Created by KiCad (PCBNEW 4.0.1-stable) date Wednesday, March 23, 2016 'PMt' 11:14:25 PM*
%MOMM*%
G01*
G04 APERTURE LIST*
%ADD10C,0.100000*%
%ADD11C,0.010000*%
%ADD12C,1.000000*%
%ADD13O,2.032000X1.727200*%
%ADD14R,2.032000X1.727200*%
%ADD15R,1.501140X0.398780*%
%ADD16R,1.600000X2.000000*%
%ADD17R,0.797560X0.797560*%
%ADD18R,0.900000X1.200000*%
%ADD19R,1.727200X2.032000*%
%ADD20O,1.727200X2.032000*%
%ADD21R,2.032000X2.032000*%
%ADD22O,2.032000X2.032000*%
%ADD23R,0.700000X0.200000*%
%ADD24R,0.800100X0.800100*%
%ADD25R,1.200000X0.900000*%
%ADD26R,0.600000X0.700000*%
%ADD27C,0.685800*%
%ADD28C,0.685801*%
%ADD29C,0.152400*%
%ADD30C,0.254000*%
G04 APERTURE END LIST*
D10*
D11*
G36*
X150878409Y-95444760D02*
X150850389Y-95444751D01*
X150825716Y-95444732D01*
X150804171Y-95444698D01*
X150785531Y-95444645D01*
X150769575Y-95444570D01*
X150756082Y-95444469D01*
X150744830Y-95444337D01*
X150735598Y-95444171D01*
X150728164Y-95443968D01*
X150722308Y-95443722D01*
X150717807Y-95443431D01*
X150714441Y-95443090D01*
X150711988Y-95442695D01*
X150710226Y-95442243D01*
X150708934Y-95441730D01*
X150707975Y-95441203D01*
X150703313Y-95437192D01*
X150700072Y-95432392D01*
X150699997Y-95432206D01*
X150699356Y-95429607D01*
X150698079Y-95423540D01*
X150696216Y-95414266D01*
X150693817Y-95402046D01*
X150690932Y-95387139D01*
X150687610Y-95369806D01*
X150683901Y-95350309D01*
X150679856Y-95328907D01*
X150675523Y-95305862D01*
X150670954Y-95281434D01*
X150666197Y-95255883D01*
X150663613Y-95241956D01*
X150658765Y-95215796D01*
X150654081Y-95190537D01*
X150649611Y-95166448D01*
X150645405Y-95143797D01*
X150641513Y-95122855D01*
X150637986Y-95103890D01*
X150634874Y-95087171D01*
X150632226Y-95072969D01*
X150630092Y-95061552D01*
X150628524Y-95053190D01*
X150627570Y-95048152D01*
X150627340Y-95046965D01*
X150626683Y-95043577D01*
X150626004Y-95040576D01*
X150625077Y-95037843D01*
X150623672Y-95035256D01*
X150621563Y-95032696D01*
X150618520Y-95030044D01*
X150614317Y-95027178D01*
X150608724Y-95023978D01*
X150601514Y-95020325D01*
X150592460Y-95016099D01*
X150581332Y-95011180D01*
X150567903Y-95005447D01*
X150551945Y-94998780D01*
X150533230Y-94991059D01*
X150511530Y-94982165D01*
X150486616Y-94971977D01*
X150479146Y-94968922D01*
X150453181Y-94958293D01*
X150430485Y-94949007D01*
X150410807Y-94940994D01*
X150393899Y-94934183D01*
X150379511Y-94928507D01*
X150367393Y-94923895D01*
X150357294Y-94920277D01*
X150348966Y-94917585D01*
X150342159Y-94915750D01*
X150336623Y-94914700D01*
X150332108Y-94914368D01*
X150328365Y-94914683D01*
X150325144Y-94915577D01*
X150322195Y-94916979D01*
X150319268Y-94918820D01*
X150316114Y-94921032D01*
X150313504Y-94922854D01*
X150310108Y-94925178D01*
X150303823Y-94929486D01*
X150294884Y-94935615D01*
X150283527Y-94943403D01*
X150269989Y-94952688D01*
X150254505Y-94963309D01*
X150237311Y-94975104D01*
X150218644Y-94987910D01*
X150198740Y-95001566D01*
X150177834Y-95015909D01*
X150156162Y-95030779D01*
X150147700Y-95036585D01*
X150122375Y-95053958D01*
X150099981Y-95069305D01*
X150080325Y-95082752D01*
X150063217Y-95094425D01*
X150048463Y-95104446D01*
X150035873Y-95112943D01*
X150025255Y-95120039D01*
X150016416Y-95125859D01*
X150009165Y-95130529D01*
X150003310Y-95134173D01*
X149998660Y-95136917D01*
X149995022Y-95138884D01*
X149992204Y-95140200D01*
X149990016Y-95140990D01*
X149988264Y-95141379D01*
X149986757Y-95141492D01*
X149986595Y-95141493D01*
X149978379Y-95141493D01*
X149837622Y-95000736D01*
X149815143Y-94978255D01*
X149795194Y-94958295D01*
X149777625Y-94940696D01*
X149762284Y-94925300D01*
X149749020Y-94911947D01*
X149737681Y-94900478D01*
X149728118Y-94890734D01*
X149720179Y-94882556D01*
X149713713Y-94875784D01*
X149708569Y-94870260D01*
X149704595Y-94865823D01*
X149701641Y-94862316D01*
X149699556Y-94859578D01*
X149698189Y-94857451D01*
X149697388Y-94855775D01*
X149697002Y-94854392D01*
X149696881Y-94853141D01*
X149696872Y-94852411D01*
X149697812Y-94845775D01*
X149700099Y-94839598D01*
X149700432Y-94839019D01*
X149702005Y-94836631D01*
X149705568Y-94831348D01*
X149710965Y-94823398D01*
X149718038Y-94813010D01*
X149726632Y-94800414D01*
X149736590Y-94785838D01*
X149747755Y-94769511D01*
X149759971Y-94751662D01*
X149773082Y-94732521D01*
X149786931Y-94712316D01*
X149801361Y-94691277D01*
X149803387Y-94688325D01*
X149818024Y-94666991D01*
X149832203Y-94646325D01*
X149845756Y-94626569D01*
X149858516Y-94607967D01*
X149870315Y-94590764D01*
X149880986Y-94575204D01*
X149890362Y-94561531D01*
X149898274Y-94549990D01*
X149904556Y-94540823D01*
X149909041Y-94534276D01*
X149911560Y-94530593D01*
X149911664Y-94530440D01*
X149914116Y-94526941D01*
X149916253Y-94523862D01*
X149918001Y-94520959D01*
X149919287Y-94517982D01*
X149920040Y-94514684D01*
X149920185Y-94510819D01*
X149919651Y-94506139D01*
X149918364Y-94500396D01*
X149916252Y-94493343D01*
X149913242Y-94484733D01*
X149909260Y-94474319D01*
X149904235Y-94461852D01*
X149898093Y-94447086D01*
X149890762Y-94429773D01*
X149882168Y-94409666D01*
X149872240Y-94386518D01*
X149862890Y-94364717D01*
X149853676Y-94343232D01*
X149844840Y-94322659D01*
X149836505Y-94303279D01*
X149828791Y-94285374D01*
X149821820Y-94269223D01*
X149815713Y-94255108D01*
X149810592Y-94243311D01*
X149806578Y-94234111D01*
X149803793Y-94227791D01*
X149802358Y-94224630D01*
X149802262Y-94224438D01*
X149798522Y-94219209D01*
X149793692Y-94214693D01*
X149793660Y-94214670D01*
X149792776Y-94214029D01*
X149791901Y-94213439D01*
X149790833Y-94212862D01*
X149789371Y-94212256D01*
X149787313Y-94211583D01*
X149784457Y-94210800D01*
X149780601Y-94209869D01*
X149775544Y-94208749D01*
X149769083Y-94207400D01*
X149761018Y-94205782D01*
X149751145Y-94203855D01*
X149739264Y-94201578D01*
X149725173Y-94198911D01*
X149708669Y-94195815D01*
X149689551Y-94192249D01*
X149667618Y-94188173D01*
X149642667Y-94183547D01*
X149614496Y-94178330D01*
X149582905Y-94172483D01*
X149565126Y-94169192D01*
X149542051Y-94164916D01*
X149519892Y-94160800D01*
X149498957Y-94156902D01*
X149479553Y-94153279D01*
X149461988Y-94149989D01*
X149446569Y-94147090D01*
X149433604Y-94144640D01*
X149423400Y-94142696D01*
X149416265Y-94141316D01*
X149412506Y-94140558D01*
X149412260Y-94140503D01*
X149405656Y-94138153D01*
X149400125Y-94134777D01*
X149398992Y-94133729D01*
X149394529Y-94128979D01*
X149394048Y-93930576D01*
X149393972Y-93898818D01*
X149393912Y-93870630D01*
X149393869Y-93845793D01*
X149393848Y-93824086D01*
X149393851Y-93805288D01*
X149393883Y-93789179D01*
X149393947Y-93775539D01*
X149394046Y-93764148D01*
X149394183Y-93754784D01*
X149394363Y-93747228D01*
X149394587Y-93741259D01*
X149394861Y-93736657D01*
X149395187Y-93733201D01*
X149395569Y-93730671D01*
X149396009Y-93728847D01*
X149396512Y-93727508D01*
X149397081Y-93726434D01*
X149397218Y-93726207D01*
X149401953Y-93721087D01*
X149407178Y-93718195D01*
X149410095Y-93717503D01*
X149416413Y-93716188D01*
X149425803Y-93714314D01*
X149437936Y-93711944D01*
X149452484Y-93709140D01*
X149469120Y-93705966D01*
X149487514Y-93702485D01*
X149507338Y-93698761D01*
X149528264Y-93694855D01*
X149536694Y-93693289D01*
X149571314Y-93686865D01*
X149602401Y-93681094D01*
X149630151Y-93675939D01*
X149654758Y-93671363D01*
X149676416Y-93667330D01*
X149695321Y-93663801D01*
X149711668Y-93660741D01*
X149725652Y-93658113D01*
X149737467Y-93655879D01*
X149747308Y-93654003D01*
X149755371Y-93652448D01*
X149761850Y-93651176D01*
X149766941Y-93650151D01*
X149770837Y-93649337D01*
X149773734Y-93648695D01*
X149775827Y-93648190D01*
X149777311Y-93647784D01*
X149777837Y-93647622D01*
X149783326Y-93644761D01*
X149788290Y-93640492D01*
X149788502Y-93640245D01*
X149789913Y-93637656D01*
X149792611Y-93631797D01*
X149796490Y-93622926D01*
X149801443Y-93611297D01*
X149807365Y-93597168D01*
X149814148Y-93580794D01*
X149821687Y-93562432D01*
X149829875Y-93542338D01*
X149838605Y-93520768D01*
X149847771Y-93497979D01*
X149852369Y-93486494D01*
X149862871Y-93460221D01*
X149872051Y-93437232D01*
X149879993Y-93417295D01*
X149886784Y-93400173D01*
X149892510Y-93385634D01*
X149897257Y-93373441D01*
X149901110Y-93363362D01*
X149904154Y-93355161D01*
X149906477Y-93348604D01*
X149908164Y-93343456D01*
X149909300Y-93339484D01*
X149909971Y-93336452D01*
X149910264Y-93334126D01*
X149910264Y-93332272D01*
X149910056Y-93330655D01*
X149909827Y-93329507D01*
X149909109Y-93327430D01*
X149907555Y-93324255D01*
X149905054Y-93319815D01*
X149901495Y-93313942D01*
X149896768Y-93306470D01*
X149890761Y-93297231D01*
X149883364Y-93286058D01*
X149874467Y-93272783D01*
X149863958Y-93257240D01*
X149851727Y-93239261D01*
X149837662Y-93218679D01*
X149821654Y-93195326D01*
X149803592Y-93169036D01*
X149803054Y-93168254D01*
X149788191Y-93146601D01*
X149773939Y-93125759D01*
X149760445Y-93105951D01*
X149747858Y-93087395D01*
X149736325Y-93070313D01*
X149725995Y-93054926D01*
X149717015Y-93041454D01*
X149709533Y-93030117D01*
X149703697Y-93021137D01*
X149699655Y-93014734D01*
X149697555Y-93011128D01*
X149697282Y-93010476D01*
X149697103Y-93004492D01*
X149697713Y-93000051D01*
X149699171Y-92997852D01*
X149703067Y-92993290D01*
X149709428Y-92986335D01*
X149718285Y-92976956D01*
X149729667Y-92965124D01*
X149743604Y-92950808D01*
X149760125Y-92933977D01*
X149779260Y-92914602D01*
X149801037Y-92892652D01*
X149825487Y-92868096D01*
X149835824Y-92857735D01*
X149854829Y-92838720D01*
X149873151Y-92820434D01*
X149890602Y-92803061D01*
X149906998Y-92786783D01*
X149922153Y-92771784D01*
X149935881Y-92758245D01*
X149947996Y-92746351D01*
X149958312Y-92736284D01*
X149966645Y-92728226D01*
X149972807Y-92722362D01*
X149976613Y-92718874D01*
X149977782Y-92717940D01*
X149985297Y-92715481D01*
X149993001Y-92716265D01*
X150001535Y-92720383D01*
X150003253Y-92721515D01*
X150006173Y-92723513D01*
X150011977Y-92727490D01*
X150020424Y-92733280D01*
X150031272Y-92740717D01*
X150044280Y-92749636D01*
X150059206Y-92759871D01*
X150075808Y-92771257D01*
X150093845Y-92783627D01*
X150113076Y-92796816D01*
X150133257Y-92810658D01*
X150151791Y-92823371D01*
X150172536Y-92837588D01*
X150192494Y-92851243D01*
X150211429Y-92864176D01*
X150229106Y-92876226D01*
X150245290Y-92887234D01*
X150259743Y-92897039D01*
X150272232Y-92905483D01*
X150282519Y-92912404D01*
X150290370Y-92917644D01*
X150295549Y-92921041D01*
X150297746Y-92922401D01*
X150306650Y-92925062D01*
X150311456Y-92924984D01*
X150315002Y-92923839D01*
X150321610Y-92920968D01*
X150331032Y-92916494D01*
X150343019Y-92910539D01*
X150357324Y-92903226D01*
X150373698Y-92894678D01*
X150386489Y-92887901D01*
X150404371Y-92878402D01*
X150419243Y-92870589D01*
X150431424Y-92864337D01*
X150441233Y-92859519D01*
X150448990Y-92856009D01*
X150455014Y-92853683D01*
X150459625Y-92852413D01*
X150463142Y-92852073D01*
X150465883Y-92852539D01*
X150468170Y-92853684D01*
X150469904Y-92855019D01*
X150471094Y-92857166D01*
X150473676Y-92862716D01*
X150477603Y-92871562D01*
X150482832Y-92883598D01*
X150489317Y-92898718D01*
X150497015Y-92916816D01*
X150505880Y-92937786D01*
X150515867Y-92961520D01*
X150526933Y-92987914D01*
X150539032Y-93016861D01*
X150552119Y-93048255D01*
X150566150Y-93081989D01*
X150581080Y-93117957D01*
X150596865Y-93156054D01*
X150609571Y-93186768D01*
X150626063Y-93226660D01*
X150641164Y-93263201D01*
X150654934Y-93296539D01*
X150667433Y-93326824D01*
X150678721Y-93354208D01*
X150688857Y-93378839D01*
X150697903Y-93400869D01*
X150705917Y-93420446D01*
X150712959Y-93437722D01*
X150719091Y-93452846D01*
X150724370Y-93465968D01*
X150728859Y-93477238D01*
X150732615Y-93486807D01*
X150735700Y-93494824D01*
X150738173Y-93501439D01*
X150740094Y-93506804D01*
X150741524Y-93511066D01*
X150742521Y-93514378D01*
X150743147Y-93516888D01*
X150743460Y-93518748D01*
X150743522Y-93520106D01*
X150743391Y-93521113D01*
X150743275Y-93521523D01*
X150741466Y-93525783D01*
X150738720Y-93529593D01*
X150734446Y-93533481D01*
X150728052Y-93537973D01*
X150718947Y-93543597D01*
X150717604Y-93544397D01*
X150708651Y-93549962D01*
X150698915Y-93556398D01*
X150690294Y-93562446D01*
X150689171Y-93563273D01*
X150681883Y-93568693D01*
X150672897Y-93575372D01*
X150663557Y-93582312D01*
X150657895Y-93586518D01*
X150626803Y-93611942D01*
X150598320Y-93640049D01*
X150572631Y-93670633D01*
X150549924Y-93703486D01*
X150545552Y-93710654D01*
X150528385Y-93742845D01*
X150513817Y-93777273D01*
X150502100Y-93813199D01*
X150493482Y-93849886D01*
X150489242Y-93877130D01*
X150488038Y-93891095D01*
X150487386Y-93907697D01*
X150487269Y-93925825D01*
X150487668Y-93944367D01*
X150488566Y-93962214D01*
X150489945Y-93978253D01*
X150490990Y-93986504D01*
X150498653Y-94025929D01*
X150509771Y-94064010D01*
X150524210Y-94100560D01*
X150541835Y-94135393D01*
X150562511Y-94168324D01*
X150586103Y-94199168D01*
X150612477Y-94227737D01*
X150641498Y-94253848D01*
X150673031Y-94277314D01*
X150706942Y-94297949D01*
X150723091Y-94306336D01*
X150758766Y-94321981D01*
X150795084Y-94334020D01*
X150832332Y-94342519D01*
X150870798Y-94347545D01*
X150910000Y-94349165D01*
X150944036Y-94348053D01*
X150975970Y-94344614D01*
X151006807Y-94338690D01*
X151037554Y-94330124D01*
X151042686Y-94328447D01*
X151079811Y-94314132D01*
X151115126Y-94296626D01*
X151148448Y-94276110D01*
X151179595Y-94252764D01*
X151208385Y-94226770D01*
X151234636Y-94198308D01*
X151258165Y-94167560D01*
X151278790Y-94134704D01*
X151296328Y-94099924D01*
X151310599Y-94063398D01*
X151310928Y-94062416D01*
X151319346Y-94034738D01*
X151325557Y-94008301D01*
X151329751Y-93981917D01*
X151332115Y-93954401D01*
X151332840Y-93924668D01*
X151332097Y-93896222D01*
X151329785Y-93870031D01*
X151325700Y-93844813D01*
X151319636Y-93819284D01*
X151311922Y-93793776D01*
X151297643Y-93756339D01*
X151280086Y-93720745D01*
X151259361Y-93687151D01*
X151235583Y-93655712D01*
X151208862Y-93626582D01*
X151179310Y-93599917D01*
X151162104Y-93586515D01*
X151153695Y-93580283D01*
X151145192Y-93573949D01*
X151137749Y-93568376D01*
X151133671Y-93565300D01*
X151127473Y-93560858D01*
X151119287Y-93555342D01*
X151110391Y-93549605D01*
X151105238Y-93546405D01*
X151095290Y-93540219D01*
X151088116Y-93535397D01*
X151083176Y-93531468D01*
X151079928Y-93527960D01*
X151077830Y-93524399D01*
X151076721Y-93521513D01*
X151076517Y-93520623D01*
X151076475Y-93519458D01*
X151076655Y-93517868D01*
X151077117Y-93515703D01*
X151077920Y-93512812D01*
X151079125Y-93509046D01*
X151080792Y-93504255D01*
X151082980Y-93498288D01*
X151085750Y-93490996D01*
X151089161Y-93482228D01*
X151093274Y-93471834D01*
X151098148Y-93459664D01*
X151103843Y-93445568D01*
X151110420Y-93429396D01*
X151117938Y-93410998D01*
X151126457Y-93390224D01*
X151136037Y-93366924D01*
X151146738Y-93340947D01*
X151158621Y-93312144D01*
X151171744Y-93280364D01*
X151186168Y-93245458D01*
X151201954Y-93207275D01*
X151210437Y-93186758D01*
X151226687Y-93147493D01*
X151242149Y-93110194D01*
X151256777Y-93074975D01*
X151270524Y-93041945D01*
X151283342Y-93011216D01*
X151295186Y-92982901D01*
X151306007Y-92957109D01*
X151315760Y-92933952D01*
X151324397Y-92913542D01*
X151331872Y-92895991D01*
X151338137Y-92881408D01*
X151343145Y-92869906D01*
X151346851Y-92861597D01*
X151349206Y-92856590D01*
X151350107Y-92855019D01*
X151354885Y-92852549D01*
X151359657Y-92851702D01*
X151363092Y-92852646D01*
X151369765Y-92855465D01*
X151379632Y-92860136D01*
X151392647Y-92866637D01*
X151408767Y-92874946D01*
X151427947Y-92885042D01*
X151432898Y-92887674D01*
X151447836Y-92895579D01*
X151461929Y-92902943D01*
X151474783Y-92909567D01*
X151486002Y-92915251D01*
X151495194Y-92919797D01*
X151501964Y-92923006D01*
X151505917Y-92924677D01*
X151506521Y-92924855D01*
X151512874Y-92925084D01*
X151518427Y-92924028D01*
X151520835Y-92922670D01*
X151526129Y-92919318D01*
X151534075Y-92914130D01*
X151544437Y-92907266D01*
X151556980Y-92898882D01*
X151571469Y-92889136D01*
X151587669Y-92878188D01*
X151605345Y-92866194D01*
X151624261Y-92853313D01*
X151644184Y-92839703D01*
X151662107Y-92827423D01*
X151682924Y-92813142D01*
X151703080Y-92799315D01*
X151722322Y-92786116D01*
X151740399Y-92773717D01*
X151757060Y-92762290D01*
X151772053Y-92752008D01*
X151785127Y-92743044D01*
X151796030Y-92735569D01*
X151804510Y-92729757D01*
X151810317Y-92725780D01*
X151812862Y-92724039D01*
X151821954Y-92718499D01*
X151829338Y-92715715D01*
X151835765Y-92715558D01*
X151841989Y-92717902D01*
X151843544Y-92718828D01*
X151845654Y-92720649D01*
X151850250Y-92724973D01*
X151857143Y-92731616D01*
X151866147Y-92740391D01*
X151877074Y-92751114D01*
X151889736Y-92763600D01*
X151903947Y-92777664D01*
X151919518Y-92793121D01*
X151936263Y-92809784D01*
X151953993Y-92827471D01*
X151972521Y-92845994D01*
X151985123Y-92858615D01*
X152010550Y-92884135D01*
X152033293Y-92907037D01*
X152053380Y-92927351D01*
X152070841Y-92945105D01*
X152085704Y-92960330D01*
X152097997Y-92973056D01*
X152107750Y-92983311D01*
X152114992Y-92991126D01*
X152119750Y-92996531D01*
X152122055Y-92999554D01*
X152122286Y-93000051D01*
X152122964Y-93006055D01*
X152122727Y-93010476D01*
X152121553Y-93012746D01*
X152118371Y-93017913D01*
X152113328Y-93025756D01*
X152106572Y-93036056D01*
X152098251Y-93048590D01*
X152088513Y-93063140D01*
X152077505Y-93079483D01*
X152065376Y-93097400D01*
X152052274Y-93116670D01*
X152038346Y-93137072D01*
X152023740Y-93158386D01*
X152016960Y-93168254D01*
X151998831Y-93194638D01*
X151982761Y-93218079D01*
X151968638Y-93238744D01*
X151956351Y-93256801D01*
X151945791Y-93272417D01*
X151936847Y-93285758D01*
X151929407Y-93296991D01*
X151923362Y-93306284D01*
X151918601Y-93313803D01*
X151915013Y-93319716D01*
X151912487Y-93324189D01*
X151910914Y-93327390D01*
X151910182Y-93329485D01*
X151910177Y-93329507D01*
X151909872Y-93331099D01*
X151909713Y-93332758D01*
X151909784Y-93334719D01*
X151910173Y-93337216D01*
X151910964Y-93340485D01*
X151912244Y-93344760D01*
X151914098Y-93350274D01*
X151916613Y-93357264D01*
X151919874Y-93365964D01*
X151923967Y-93376608D01*
X151928978Y-93389431D01*
X151934993Y-93404667D01*
X151942098Y-93422552D01*
X151950377Y-93443319D01*
X151959919Y-93467204D01*
X151967556Y-93486310D01*
X151976635Y-93508960D01*
X151985381Y-93530672D01*
X151993685Y-93551177D01*
X152001435Y-93570208D01*
X152008520Y-93587493D01*
X152014830Y-93602765D01*
X152020254Y-93615754D01*
X152024680Y-93626192D01*
X152027997Y-93633809D01*
X152030095Y-93638336D01*
X152030732Y-93639469D01*
X152035443Y-93643882D01*
X152040523Y-93646915D01*
X152043190Y-93647601D01*
X152049321Y-93648922D01*
X152058650Y-93650828D01*
X152070912Y-93653266D01*
X152085843Y-93656185D01*
X152103176Y-93659536D01*
X152122648Y-93663265D01*
X152143993Y-93667323D01*
X152166947Y-93671658D01*
X152191243Y-93676219D01*
X152216617Y-93680955D01*
X152226440Y-93682781D01*
X152252163Y-93687566D01*
X152276918Y-93692188D01*
X152300437Y-93696596D01*
X152322455Y-93700738D01*
X152342706Y-93704566D01*
X152360924Y-93708027D01*
X152376844Y-93711072D01*
X152390199Y-93713650D01*
X152400723Y-93715710D01*
X152408152Y-93717201D01*
X152412218Y-93718074D01*
X152412822Y-93718232D01*
X152418785Y-93721681D01*
X152422781Y-93726207D01*
X152423365Y-93727252D01*
X152423883Y-93728512D01*
X152424337Y-93730208D01*
X152424732Y-93732561D01*
X152425070Y-93735790D01*
X152425355Y-93740116D01*
X152425590Y-93745759D01*
X152425779Y-93752940D01*
X152425926Y-93761879D01*
X152426033Y-93772797D01*
X152426104Y-93785913D01*
X152426143Y-93801449D01*
X152426153Y-93819625D01*
X152426137Y-93840660D01*
X152426099Y-93864776D01*
X152426042Y-93892193D01*
X152425969Y-93923131D01*
X152425951Y-93930576D01*
X152425470Y-94128979D01*
X152420951Y-94133789D01*
X152420290Y-94134602D01*
X152419826Y-94135302D01*
X152419352Y-94135932D01*
X152418659Y-94136535D01*
X152417537Y-94137156D01*
X152415777Y-94137836D01*
X152413171Y-94138620D01*
X152409510Y-94139550D01*
X152404584Y-94140670D01*
X152398185Y-94142023D01*
X152390104Y-94143653D01*
X152380131Y-94145602D01*
X152368058Y-94147914D01*
X152353676Y-94150632D01*
X152336776Y-94153800D01*
X152317149Y-94157460D01*
X152294585Y-94161657D01*
X152268877Y-94166433D01*
X152239814Y-94171831D01*
X152214684Y-94176501D01*
X152183885Y-94182227D01*
X152156593Y-94187307D01*
X152132588Y-94191795D01*
X152111651Y-94195745D01*
X152093562Y-94199209D01*
X152078102Y-94202243D01*
X152065051Y-94204898D01*
X152054191Y-94207229D01*
X152045300Y-94209288D01*
X152038161Y-94211129D01*
X152032553Y-94212806D01*
X152028257Y-94214372D01*
X152025053Y-94215880D01*
X152022723Y-94217384D01*
X152021046Y-94218938D01*
X152019803Y-94220594D01*
X152018775Y-94222406D01*
X152017743Y-94224427D01*
X152017737Y-94224438D01*
X152016528Y-94227070D01*
X152013949Y-94232907D01*
X152010122Y-94241668D01*
X152005169Y-94253071D01*
X151999211Y-94266836D01*
X151992369Y-94282682D01*
X151984765Y-94300327D01*
X151976520Y-94319492D01*
X151967756Y-94339894D01*
X151958594Y-94361253D01*
X151957109Y-94364717D01*
X151946012Y-94390590D01*
X151936311Y-94413214D01*
X151927933Y-94432838D01*
X151920805Y-94449710D01*
X151914854Y-94464076D01*
X151910008Y-94476183D01*
X151906193Y-94486280D01*
X151903337Y-94494614D01*
X151901366Y-94501432D01*
X151900209Y-94506981D01*
X151899792Y-94511509D01*
X151900043Y-94515263D01*
X151900888Y-94518491D01*
X151902255Y-94521440D01*
X151904070Y-94524357D01*
X151906262Y-94527490D01*
X151908321Y-94530440D01*
X151910677Y-94533889D01*
X151915011Y-94540221D01*
X151921158Y-94549194D01*
X151928952Y-94560568D01*
X151938227Y-94574099D01*
X151948818Y-94589546D01*
X151960557Y-94606666D01*
X151973279Y-94625218D01*
X151986819Y-94644959D01*
X152001009Y-94665647D01*
X152015685Y-94687040D01*
X152017962Y-94690359D01*
X152032526Y-94711598D01*
X152046505Y-94732003D01*
X152059747Y-94751350D01*
X152072098Y-94769416D01*
X152083407Y-94785976D01*
X152093519Y-94800806D01*
X152102284Y-94813683D01*
X152109548Y-94824382D01*
X152115158Y-94832681D01*
X152118962Y-94838354D01*
X152120807Y-94841178D01*
X152120939Y-94841402D01*
X152122419Y-94846096D01*
X152123124Y-94852070D01*
X152123134Y-94852761D01*
X152123072Y-94853976D01*
X152122787Y-94855285D01*
X152122126Y-94856847D01*
X152120940Y-94858820D01*
X152119077Y-94861364D01*
X152116386Y-94864637D01*
X152112715Y-94868798D01*
X152107915Y-94874006D01*
X152101834Y-94880419D01*
X152094320Y-94888196D01*
X152085224Y-94897496D01*
X152074393Y-94908478D01*
X152061678Y-94921300D01*
X152046926Y-94936122D01*
X152029987Y-94953101D01*
X152010710Y-94972398D01*
X151988943Y-94994170D01*
X151841620Y-95141493D01*
X151833341Y-95141493D01*
X151832289Y-95141560D01*
X151831443Y-95141693D01*
X151830650Y-95141792D01*
X151829757Y-95141755D01*
X151828612Y-95141480D01*
X151827061Y-95140866D01*
X151824950Y-95139813D01*
X151822127Y-95138218D01*
X151818438Y-95135980D01*
X151813731Y-95132998D01*
X151807853Y-95129171D01*
X151800649Y-95124398D01*
X151791968Y-95118576D01*
X151781655Y-95111605D01*
X151769558Y-95103384D01*
X151755524Y-95093811D01*
X151739399Y-95082784D01*
X151721031Y-95070203D01*
X151700266Y-95055966D01*
X151676951Y-95039973D01*
X151650933Y-95022120D01*
X151622059Y-95002308D01*
X151597378Y-94985375D01*
X151576802Y-94971264D01*
X151559110Y-94959148D01*
X151544059Y-94948875D01*
X151531409Y-94940292D01*
X151520917Y-94933249D01*
X151512343Y-94927592D01*
X151505445Y-94923170D01*
X151499981Y-94919831D01*
X151495710Y-94917423D01*
X151492390Y-94915794D01*
X151489780Y-94914793D01*
X151487639Y-94914266D01*
X151485725Y-94914063D01*
X151484002Y-94914030D01*
X151481775Y-94914208D01*
X151478767Y-94914802D01*
X151474739Y-94915904D01*
X151469453Y-94917604D01*
X151462670Y-94919994D01*
X151454153Y-94923164D01*
X151443662Y-94927206D01*
X151430960Y-94932210D01*
X151415808Y-94938268D01*
X151397968Y-94945471D01*
X151377201Y-94953910D01*
X151353269Y-94963675D01*
X151342535Y-94968064D01*
X151321201Y-94976811D01*
X151300813Y-94985208D01*
X151281656Y-94993137D01*
X151264013Y-95000478D01*
X151248168Y-95007112D01*
X151234405Y-95012919D01*
X151223008Y-95017781D01*
X151214260Y-95021577D01*
X151208446Y-95024190D01*
X151205850Y-95025498D01*
X151205818Y-95025521D01*
X151204117Y-95026790D01*
X151202575Y-95028077D01*
X151201144Y-95029599D01*
X151199774Y-95031573D01*
X151198414Y-95034214D01*
X151197015Y-95037738D01*
X151195527Y-95042362D01*
X151193901Y-95048302D01*
X151192086Y-95055775D01*
X151190033Y-95064997D01*
X151187691Y-95076183D01*
X151185012Y-95089551D01*
X151181946Y-95105316D01*
X151178442Y-95123695D01*
X151174450Y-95144904D01*
X151169922Y-95169159D01*
X151164807Y-95196677D01*
X151159055Y-95227674D01*
X151158150Y-95232554D01*
X151153186Y-95259252D01*
X151148384Y-95284969D01*
X151143792Y-95309449D01*
X151139460Y-95332439D01*
X151135435Y-95353686D01*
X151131767Y-95372935D01*
X151128503Y-95389934D01*
X151125692Y-95404428D01*
X151123382Y-95416163D01*
X151121622Y-95424886D01*
X151120461Y-95430344D01*
X151119989Y-95432206D01*
X151116861Y-95436989D01*
X151112225Y-95441078D01*
X151112024Y-95441203D01*
X151110969Y-95441776D01*
X151109646Y-95442284D01*
X151107834Y-95442731D01*
X151105312Y-95443121D01*
X151101859Y-95443458D01*
X151097252Y-95443745D01*
X151091271Y-95443987D01*
X151083694Y-95444187D01*
X151074300Y-95444349D01*
X151062868Y-95444478D01*
X151049175Y-95444577D01*
X151033001Y-95444650D01*
X151014124Y-95444701D01*
X150992323Y-95444734D01*
X150967376Y-95444752D01*
X150939063Y-95444761D01*
X150910000Y-95444762D01*
X150878409Y-95444760D01*
X150878409Y-95444760D01*
G37*
X150878409Y-95444760D02*
X150850389Y-95444751D01*
X150825716Y-95444732D01*
X150804171Y-95444698D01*
X150785531Y-95444645D01*
X150769575Y-95444570D01*
X150756082Y-95444469D01*
X150744830Y-95444337D01*
X150735598Y-95444171D01*
X150728164Y-95443968D01*
X150722308Y-95443722D01*
X150717807Y-95443431D01*
X150714441Y-95443090D01*
X150711988Y-95442695D01*
X150710226Y-95442243D01*
X150708934Y-95441730D01*
X150707975Y-95441203D01*
X150703313Y-95437192D01*
X150700072Y-95432392D01*
X150699997Y-95432206D01*
X150699356Y-95429607D01*
X150698079Y-95423540D01*
X150696216Y-95414266D01*
X150693817Y-95402046D01*
X150690932Y-95387139D01*
X150687610Y-95369806D01*
X150683901Y-95350309D01*
X150679856Y-95328907D01*
X150675523Y-95305862D01*
X150670954Y-95281434D01*
X150666197Y-95255883D01*
X150663613Y-95241956D01*
X150658765Y-95215796D01*
X150654081Y-95190537D01*
X150649611Y-95166448D01*
X150645405Y-95143797D01*
X150641513Y-95122855D01*
X150637986Y-95103890D01*
X150634874Y-95087171D01*
X150632226Y-95072969D01*
X150630092Y-95061552D01*
X150628524Y-95053190D01*
X150627570Y-95048152D01*
X150627340Y-95046965D01*
X150626683Y-95043577D01*
X150626004Y-95040576D01*
X150625077Y-95037843D01*
X150623672Y-95035256D01*
X150621563Y-95032696D01*
X150618520Y-95030044D01*
X150614317Y-95027178D01*
X150608724Y-95023978D01*
X150601514Y-95020325D01*
X150592460Y-95016099D01*
X150581332Y-95011180D01*
X150567903Y-95005447D01*
X150551945Y-94998780D01*
X150533230Y-94991059D01*
X150511530Y-94982165D01*
X150486616Y-94971977D01*
X150479146Y-94968922D01*
X150453181Y-94958293D01*
X150430485Y-94949007D01*
X150410807Y-94940994D01*
X150393899Y-94934183D01*
X150379511Y-94928507D01*
X150367393Y-94923895D01*
X150357294Y-94920277D01*
X150348966Y-94917585D01*
X150342159Y-94915750D01*
X150336623Y-94914700D01*
X150332108Y-94914368D01*
X150328365Y-94914683D01*
X150325144Y-94915577D01*
X150322195Y-94916979D01*
X150319268Y-94918820D01*
X150316114Y-94921032D01*
X150313504Y-94922854D01*
X150310108Y-94925178D01*
X150303823Y-94929486D01*
X150294884Y-94935615D01*
X150283527Y-94943403D01*
X150269989Y-94952688D01*
X150254505Y-94963309D01*
X150237311Y-94975104D01*
X150218644Y-94987910D01*
X150198740Y-95001566D01*
X150177834Y-95015909D01*
X150156162Y-95030779D01*
X150147700Y-95036585D01*
X150122375Y-95053958D01*
X150099981Y-95069305D01*
X150080325Y-95082752D01*
X150063217Y-95094425D01*
X150048463Y-95104446D01*
X150035873Y-95112943D01*
X150025255Y-95120039D01*
X150016416Y-95125859D01*
X150009165Y-95130529D01*
X150003310Y-95134173D01*
X149998660Y-95136917D01*
X149995022Y-95138884D01*
X149992204Y-95140200D01*
X149990016Y-95140990D01*
X149988264Y-95141379D01*
X149986757Y-95141492D01*
X149986595Y-95141493D01*
X149978379Y-95141493D01*
X149837622Y-95000736D01*
X149815143Y-94978255D01*
X149795194Y-94958295D01*
X149777625Y-94940696D01*
X149762284Y-94925300D01*
X149749020Y-94911947D01*
X149737681Y-94900478D01*
X149728118Y-94890734D01*
X149720179Y-94882556D01*
X149713713Y-94875784D01*
X149708569Y-94870260D01*
X149704595Y-94865823D01*
X149701641Y-94862316D01*
X149699556Y-94859578D01*
X149698189Y-94857451D01*
X149697388Y-94855775D01*
X149697002Y-94854392D01*
X149696881Y-94853141D01*
X149696872Y-94852411D01*
X149697812Y-94845775D01*
X149700099Y-94839598D01*
X149700432Y-94839019D01*
X149702005Y-94836631D01*
X149705568Y-94831348D01*
X149710965Y-94823398D01*
X149718038Y-94813010D01*
X149726632Y-94800414D01*
X149736590Y-94785838D01*
X149747755Y-94769511D01*
X149759971Y-94751662D01*
X149773082Y-94732521D01*
X149786931Y-94712316D01*
X149801361Y-94691277D01*
X149803387Y-94688325D01*
X149818024Y-94666991D01*
X149832203Y-94646325D01*
X149845756Y-94626569D01*
X149858516Y-94607967D01*
X149870315Y-94590764D01*
X149880986Y-94575204D01*
X149890362Y-94561531D01*
X149898274Y-94549990D01*
X149904556Y-94540823D01*
X149909041Y-94534276D01*
X149911560Y-94530593D01*
X149911664Y-94530440D01*
X149914116Y-94526941D01*
X149916253Y-94523862D01*
X149918001Y-94520959D01*
X149919287Y-94517982D01*
X149920040Y-94514684D01*
X149920185Y-94510819D01*
X149919651Y-94506139D01*
X149918364Y-94500396D01*
X149916252Y-94493343D01*
X149913242Y-94484733D01*
X149909260Y-94474319D01*
X149904235Y-94461852D01*
X149898093Y-94447086D01*
X149890762Y-94429773D01*
X149882168Y-94409666D01*
X149872240Y-94386518D01*
X149862890Y-94364717D01*
X149853676Y-94343232D01*
X149844840Y-94322659D01*
X149836505Y-94303279D01*
X149828791Y-94285374D01*
X149821820Y-94269223D01*
X149815713Y-94255108D01*
X149810592Y-94243311D01*
X149806578Y-94234111D01*
X149803793Y-94227791D01*
X149802358Y-94224630D01*
X149802262Y-94224438D01*
X149798522Y-94219209D01*
X149793692Y-94214693D01*
X149793660Y-94214670D01*
X149792776Y-94214029D01*
X149791901Y-94213439D01*
X149790833Y-94212862D01*
X149789371Y-94212256D01*
X149787313Y-94211583D01*
X149784457Y-94210800D01*
X149780601Y-94209869D01*
X149775544Y-94208749D01*
X149769083Y-94207400D01*
X149761018Y-94205782D01*
X149751145Y-94203855D01*
X149739264Y-94201578D01*
X149725173Y-94198911D01*
X149708669Y-94195815D01*
X149689551Y-94192249D01*
X149667618Y-94188173D01*
X149642667Y-94183547D01*
X149614496Y-94178330D01*
X149582905Y-94172483D01*
X149565126Y-94169192D01*
X149542051Y-94164916D01*
X149519892Y-94160800D01*
X149498957Y-94156902D01*
X149479553Y-94153279D01*
X149461988Y-94149989D01*
X149446569Y-94147090D01*
X149433604Y-94144640D01*
X149423400Y-94142696D01*
X149416265Y-94141316D01*
X149412506Y-94140558D01*
X149412260Y-94140503D01*
X149405656Y-94138153D01*
X149400125Y-94134777D01*
X149398992Y-94133729D01*
X149394529Y-94128979D01*
X149394048Y-93930576D01*
X149393972Y-93898818D01*
X149393912Y-93870630D01*
X149393869Y-93845793D01*
X149393848Y-93824086D01*
X149393851Y-93805288D01*
X149393883Y-93789179D01*
X149393947Y-93775539D01*
X149394046Y-93764148D01*
X149394183Y-93754784D01*
X149394363Y-93747228D01*
X149394587Y-93741259D01*
X149394861Y-93736657D01*
X149395187Y-93733201D01*
X149395569Y-93730671D01*
X149396009Y-93728847D01*
X149396512Y-93727508D01*
X149397081Y-93726434D01*
X149397218Y-93726207D01*
X149401953Y-93721087D01*
X149407178Y-93718195D01*
X149410095Y-93717503D01*
X149416413Y-93716188D01*
X149425803Y-93714314D01*
X149437936Y-93711944D01*
X149452484Y-93709140D01*
X149469120Y-93705966D01*
X149487514Y-93702485D01*
X149507338Y-93698761D01*
X149528264Y-93694855D01*
X149536694Y-93693289D01*
X149571314Y-93686865D01*
X149602401Y-93681094D01*
X149630151Y-93675939D01*
X149654758Y-93671363D01*
X149676416Y-93667330D01*
X149695321Y-93663801D01*
X149711668Y-93660741D01*
X149725652Y-93658113D01*
X149737467Y-93655879D01*
X149747308Y-93654003D01*
X149755371Y-93652448D01*
X149761850Y-93651176D01*
X149766941Y-93650151D01*
X149770837Y-93649337D01*
X149773734Y-93648695D01*
X149775827Y-93648190D01*
X149777311Y-93647784D01*
X149777837Y-93647622D01*
X149783326Y-93644761D01*
X149788290Y-93640492D01*
X149788502Y-93640245D01*
X149789913Y-93637656D01*
X149792611Y-93631797D01*
X149796490Y-93622926D01*
X149801443Y-93611297D01*
X149807365Y-93597168D01*
X149814148Y-93580794D01*
X149821687Y-93562432D01*
X149829875Y-93542338D01*
X149838605Y-93520768D01*
X149847771Y-93497979D01*
X149852369Y-93486494D01*
X149862871Y-93460221D01*
X149872051Y-93437232D01*
X149879993Y-93417295D01*
X149886784Y-93400173D01*
X149892510Y-93385634D01*
X149897257Y-93373441D01*
X149901110Y-93363362D01*
X149904154Y-93355161D01*
X149906477Y-93348604D01*
X149908164Y-93343456D01*
X149909300Y-93339484D01*
X149909971Y-93336452D01*
X149910264Y-93334126D01*
X149910264Y-93332272D01*
X149910056Y-93330655D01*
X149909827Y-93329507D01*
X149909109Y-93327430D01*
X149907555Y-93324255D01*
X149905054Y-93319815D01*
X149901495Y-93313942D01*
X149896768Y-93306470D01*
X149890761Y-93297231D01*
X149883364Y-93286058D01*
X149874467Y-93272783D01*
X149863958Y-93257240D01*
X149851727Y-93239261D01*
X149837662Y-93218679D01*
X149821654Y-93195326D01*
X149803592Y-93169036D01*
X149803054Y-93168254D01*
X149788191Y-93146601D01*
X149773939Y-93125759D01*
X149760445Y-93105951D01*
X149747858Y-93087395D01*
X149736325Y-93070313D01*
X149725995Y-93054926D01*
X149717015Y-93041454D01*
X149709533Y-93030117D01*
X149703697Y-93021137D01*
X149699655Y-93014734D01*
X149697555Y-93011128D01*
X149697282Y-93010476D01*
X149697103Y-93004492D01*
X149697713Y-93000051D01*
X149699171Y-92997852D01*
X149703067Y-92993290D01*
X149709428Y-92986335D01*
X149718285Y-92976956D01*
X149729667Y-92965124D01*
X149743604Y-92950808D01*
X149760125Y-92933977D01*
X149779260Y-92914602D01*
X149801037Y-92892652D01*
X149825487Y-92868096D01*
X149835824Y-92857735D01*
X149854829Y-92838720D01*
X149873151Y-92820434D01*
X149890602Y-92803061D01*
X149906998Y-92786783D01*
X149922153Y-92771784D01*
X149935881Y-92758245D01*
X149947996Y-92746351D01*
X149958312Y-92736284D01*
X149966645Y-92728226D01*
X149972807Y-92722362D01*
X149976613Y-92718874D01*
X149977782Y-92717940D01*
X149985297Y-92715481D01*
X149993001Y-92716265D01*
X150001535Y-92720383D01*
X150003253Y-92721515D01*
X150006173Y-92723513D01*
X150011977Y-92727490D01*
X150020424Y-92733280D01*
X150031272Y-92740717D01*
X150044280Y-92749636D01*
X150059206Y-92759871D01*
X150075808Y-92771257D01*
X150093845Y-92783627D01*
X150113076Y-92796816D01*
X150133257Y-92810658D01*
X150151791Y-92823371D01*
X150172536Y-92837588D01*
X150192494Y-92851243D01*
X150211429Y-92864176D01*
X150229106Y-92876226D01*
X150245290Y-92887234D01*
X150259743Y-92897039D01*
X150272232Y-92905483D01*
X150282519Y-92912404D01*
X150290370Y-92917644D01*
X150295549Y-92921041D01*
X150297746Y-92922401D01*
X150306650Y-92925062D01*
X150311456Y-92924984D01*
X150315002Y-92923839D01*
X150321610Y-92920968D01*
X150331032Y-92916494D01*
X150343019Y-92910539D01*
X150357324Y-92903226D01*
X150373698Y-92894678D01*
X150386489Y-92887901D01*
X150404371Y-92878402D01*
X150419243Y-92870589D01*
X150431424Y-92864337D01*
X150441233Y-92859519D01*
X150448990Y-92856009D01*
X150455014Y-92853683D01*
X150459625Y-92852413D01*
X150463142Y-92852073D01*
X150465883Y-92852539D01*
X150468170Y-92853684D01*
X150469904Y-92855019D01*
X150471094Y-92857166D01*
X150473676Y-92862716D01*
X150477603Y-92871562D01*
X150482832Y-92883598D01*
X150489317Y-92898718D01*
X150497015Y-92916816D01*
X150505880Y-92937786D01*
X150515867Y-92961520D01*
X150526933Y-92987914D01*
X150539032Y-93016861D01*
X150552119Y-93048255D01*
X150566150Y-93081989D01*
X150581080Y-93117957D01*
X150596865Y-93156054D01*
X150609571Y-93186768D01*
X150626063Y-93226660D01*
X150641164Y-93263201D01*
X150654934Y-93296539D01*
X150667433Y-93326824D01*
X150678721Y-93354208D01*
X150688857Y-93378839D01*
X150697903Y-93400869D01*
X150705917Y-93420446D01*
X150712959Y-93437722D01*
X150719091Y-93452846D01*
X150724370Y-93465968D01*
X150728859Y-93477238D01*
X150732615Y-93486807D01*
X150735700Y-93494824D01*
X150738173Y-93501439D01*
X150740094Y-93506804D01*
X150741524Y-93511066D01*
X150742521Y-93514378D01*
X150743147Y-93516888D01*
X150743460Y-93518748D01*
X150743522Y-93520106D01*
X150743391Y-93521113D01*
X150743275Y-93521523D01*
X150741466Y-93525783D01*
X150738720Y-93529593D01*
X150734446Y-93533481D01*
X150728052Y-93537973D01*
X150718947Y-93543597D01*
X150717604Y-93544397D01*
X150708651Y-93549962D01*
X150698915Y-93556398D01*
X150690294Y-93562446D01*
X150689171Y-93563273D01*
X150681883Y-93568693D01*
X150672897Y-93575372D01*
X150663557Y-93582312D01*
X150657895Y-93586518D01*
X150626803Y-93611942D01*
X150598320Y-93640049D01*
X150572631Y-93670633D01*
X150549924Y-93703486D01*
X150545552Y-93710654D01*
X150528385Y-93742845D01*
X150513817Y-93777273D01*
X150502100Y-93813199D01*
X150493482Y-93849886D01*
X150489242Y-93877130D01*
X150488038Y-93891095D01*
X150487386Y-93907697D01*
X150487269Y-93925825D01*
X150487668Y-93944367D01*
X150488566Y-93962214D01*
X150489945Y-93978253D01*
X150490990Y-93986504D01*
X150498653Y-94025929D01*
X150509771Y-94064010D01*
X150524210Y-94100560D01*
X150541835Y-94135393D01*
X150562511Y-94168324D01*
X150586103Y-94199168D01*
X150612477Y-94227737D01*
X150641498Y-94253848D01*
X150673031Y-94277314D01*
X150706942Y-94297949D01*
X150723091Y-94306336D01*
X150758766Y-94321981D01*
X150795084Y-94334020D01*
X150832332Y-94342519D01*
X150870798Y-94347545D01*
X150910000Y-94349165D01*
X150944036Y-94348053D01*
X150975970Y-94344614D01*
X151006807Y-94338690D01*
X151037554Y-94330124D01*
X151042686Y-94328447D01*
X151079811Y-94314132D01*
X151115126Y-94296626D01*
X151148448Y-94276110D01*
X151179595Y-94252764D01*
X151208385Y-94226770D01*
X151234636Y-94198308D01*
X151258165Y-94167560D01*
X151278790Y-94134704D01*
X151296328Y-94099924D01*
X151310599Y-94063398D01*
X151310928Y-94062416D01*
X151319346Y-94034738D01*
X151325557Y-94008301D01*
X151329751Y-93981917D01*
X151332115Y-93954401D01*
X151332840Y-93924668D01*
X151332097Y-93896222D01*
X151329785Y-93870031D01*
X151325700Y-93844813D01*
X151319636Y-93819284D01*
X151311922Y-93793776D01*
X151297643Y-93756339D01*
X151280086Y-93720745D01*
X151259361Y-93687151D01*
X151235583Y-93655712D01*
X151208862Y-93626582D01*
X151179310Y-93599917D01*
X151162104Y-93586515D01*
X151153695Y-93580283D01*
X151145192Y-93573949D01*
X151137749Y-93568376D01*
X151133671Y-93565300D01*
X151127473Y-93560858D01*
X151119287Y-93555342D01*
X151110391Y-93549605D01*
X151105238Y-93546405D01*
X151095290Y-93540219D01*
X151088116Y-93535397D01*
X151083176Y-93531468D01*
X151079928Y-93527960D01*
X151077830Y-93524399D01*
X151076721Y-93521513D01*
X151076517Y-93520623D01*
X151076475Y-93519458D01*
X151076655Y-93517868D01*
X151077117Y-93515703D01*
X151077920Y-93512812D01*
X151079125Y-93509046D01*
X151080792Y-93504255D01*
X151082980Y-93498288D01*
X151085750Y-93490996D01*
X151089161Y-93482228D01*
X151093274Y-93471834D01*
X151098148Y-93459664D01*
X151103843Y-93445568D01*
X151110420Y-93429396D01*
X151117938Y-93410998D01*
X151126457Y-93390224D01*
X151136037Y-93366924D01*
X151146738Y-93340947D01*
X151158621Y-93312144D01*
X151171744Y-93280364D01*
X151186168Y-93245458D01*
X151201954Y-93207275D01*
X151210437Y-93186758D01*
X151226687Y-93147493D01*
X151242149Y-93110194D01*
X151256777Y-93074975D01*
X151270524Y-93041945D01*
X151283342Y-93011216D01*
X151295186Y-92982901D01*
X151306007Y-92957109D01*
X151315760Y-92933952D01*
X151324397Y-92913542D01*
X151331872Y-92895991D01*
X151338137Y-92881408D01*
X151343145Y-92869906D01*
X151346851Y-92861597D01*
X151349206Y-92856590D01*
X151350107Y-92855019D01*
X151354885Y-92852549D01*
X151359657Y-92851702D01*
X151363092Y-92852646D01*
X151369765Y-92855465D01*
X151379632Y-92860136D01*
X151392647Y-92866637D01*
X151408767Y-92874946D01*
X151427947Y-92885042D01*
X151432898Y-92887674D01*
X151447836Y-92895579D01*
X151461929Y-92902943D01*
X151474783Y-92909567D01*
X151486002Y-92915251D01*
X151495194Y-92919797D01*
X151501964Y-92923006D01*
X151505917Y-92924677D01*
X151506521Y-92924855D01*
X151512874Y-92925084D01*
X151518427Y-92924028D01*
X151520835Y-92922670D01*
X151526129Y-92919318D01*
X151534075Y-92914130D01*
X151544437Y-92907266D01*
X151556980Y-92898882D01*
X151571469Y-92889136D01*
X151587669Y-92878188D01*
X151605345Y-92866194D01*
X151624261Y-92853313D01*
X151644184Y-92839703D01*
X151662107Y-92827423D01*
X151682924Y-92813142D01*
X151703080Y-92799315D01*
X151722322Y-92786116D01*
X151740399Y-92773717D01*
X151757060Y-92762290D01*
X151772053Y-92752008D01*
X151785127Y-92743044D01*
X151796030Y-92735569D01*
X151804510Y-92729757D01*
X151810317Y-92725780D01*
X151812862Y-92724039D01*
X151821954Y-92718499D01*
X151829338Y-92715715D01*
X151835765Y-92715558D01*
X151841989Y-92717902D01*
X151843544Y-92718828D01*
X151845654Y-92720649D01*
X151850250Y-92724973D01*
X151857143Y-92731616D01*
X151866147Y-92740391D01*
X151877074Y-92751114D01*
X151889736Y-92763600D01*
X151903947Y-92777664D01*
X151919518Y-92793121D01*
X151936263Y-92809784D01*
X151953993Y-92827471D01*
X151972521Y-92845994D01*
X151985123Y-92858615D01*
X152010550Y-92884135D01*
X152033293Y-92907037D01*
X152053380Y-92927351D01*
X152070841Y-92945105D01*
X152085704Y-92960330D01*
X152097997Y-92973056D01*
X152107750Y-92983311D01*
X152114992Y-92991126D01*
X152119750Y-92996531D01*
X152122055Y-92999554D01*
X152122286Y-93000051D01*
X152122964Y-93006055D01*
X152122727Y-93010476D01*
X152121553Y-93012746D01*
X152118371Y-93017913D01*
X152113328Y-93025756D01*
X152106572Y-93036056D01*
X152098251Y-93048590D01*
X152088513Y-93063140D01*
X152077505Y-93079483D01*
X152065376Y-93097400D01*
X152052274Y-93116670D01*
X152038346Y-93137072D01*
X152023740Y-93158386D01*
X152016960Y-93168254D01*
X151998831Y-93194638D01*
X151982761Y-93218079D01*
X151968638Y-93238744D01*
X151956351Y-93256801D01*
X151945791Y-93272417D01*
X151936847Y-93285758D01*
X151929407Y-93296991D01*
X151923362Y-93306284D01*
X151918601Y-93313803D01*
X151915013Y-93319716D01*
X151912487Y-93324189D01*
X151910914Y-93327390D01*
X151910182Y-93329485D01*
X151910177Y-93329507D01*
X151909872Y-93331099D01*
X151909713Y-93332758D01*
X151909784Y-93334719D01*
X151910173Y-93337216D01*
X151910964Y-93340485D01*
X151912244Y-93344760D01*
X151914098Y-93350274D01*
X151916613Y-93357264D01*
X151919874Y-93365964D01*
X151923967Y-93376608D01*
X151928978Y-93389431D01*
X151934993Y-93404667D01*
X151942098Y-93422552D01*
X151950377Y-93443319D01*
X151959919Y-93467204D01*
X151967556Y-93486310D01*
X151976635Y-93508960D01*
X151985381Y-93530672D01*
X151993685Y-93551177D01*
X152001435Y-93570208D01*
X152008520Y-93587493D01*
X152014830Y-93602765D01*
X152020254Y-93615754D01*
X152024680Y-93626192D01*
X152027997Y-93633809D01*
X152030095Y-93638336D01*
X152030732Y-93639469D01*
X152035443Y-93643882D01*
X152040523Y-93646915D01*
X152043190Y-93647601D01*
X152049321Y-93648922D01*
X152058650Y-93650828D01*
X152070912Y-93653266D01*
X152085843Y-93656185D01*
X152103176Y-93659536D01*
X152122648Y-93663265D01*
X152143993Y-93667323D01*
X152166947Y-93671658D01*
X152191243Y-93676219D01*
X152216617Y-93680955D01*
X152226440Y-93682781D01*
X152252163Y-93687566D01*
X152276918Y-93692188D01*
X152300437Y-93696596D01*
X152322455Y-93700738D01*
X152342706Y-93704566D01*
X152360924Y-93708027D01*
X152376844Y-93711072D01*
X152390199Y-93713650D01*
X152400723Y-93715710D01*
X152408152Y-93717201D01*
X152412218Y-93718074D01*
X152412822Y-93718232D01*
X152418785Y-93721681D01*
X152422781Y-93726207D01*
X152423365Y-93727252D01*
X152423883Y-93728512D01*
X152424337Y-93730208D01*
X152424732Y-93732561D01*
X152425070Y-93735790D01*
X152425355Y-93740116D01*
X152425590Y-93745759D01*
X152425779Y-93752940D01*
X152425926Y-93761879D01*
X152426033Y-93772797D01*
X152426104Y-93785913D01*
X152426143Y-93801449D01*
X152426153Y-93819625D01*
X152426137Y-93840660D01*
X152426099Y-93864776D01*
X152426042Y-93892193D01*
X152425969Y-93923131D01*
X152425951Y-93930576D01*
X152425470Y-94128979D01*
X152420951Y-94133789D01*
X152420290Y-94134602D01*
X152419826Y-94135302D01*
X152419352Y-94135932D01*
X152418659Y-94136535D01*
X152417537Y-94137156D01*
X152415777Y-94137836D01*
X152413171Y-94138620D01*
X152409510Y-94139550D01*
X152404584Y-94140670D01*
X152398185Y-94142023D01*
X152390104Y-94143653D01*
X152380131Y-94145602D01*
X152368058Y-94147914D01*
X152353676Y-94150632D01*
X152336776Y-94153800D01*
X152317149Y-94157460D01*
X152294585Y-94161657D01*
X152268877Y-94166433D01*
X152239814Y-94171831D01*
X152214684Y-94176501D01*
X152183885Y-94182227D01*
X152156593Y-94187307D01*
X152132588Y-94191795D01*
X152111651Y-94195745D01*
X152093562Y-94199209D01*
X152078102Y-94202243D01*
X152065051Y-94204898D01*
X152054191Y-94207229D01*
X152045300Y-94209288D01*
X152038161Y-94211129D01*
X152032553Y-94212806D01*
X152028257Y-94214372D01*
X152025053Y-94215880D01*
X152022723Y-94217384D01*
X152021046Y-94218938D01*
X152019803Y-94220594D01*
X152018775Y-94222406D01*
X152017743Y-94224427D01*
X152017737Y-94224438D01*
X152016528Y-94227070D01*
X152013949Y-94232907D01*
X152010122Y-94241668D01*
X152005169Y-94253071D01*
X151999211Y-94266836D01*
X151992369Y-94282682D01*
X151984765Y-94300327D01*
X151976520Y-94319492D01*
X151967756Y-94339894D01*
X151958594Y-94361253D01*
X151957109Y-94364717D01*
X151946012Y-94390590D01*
X151936311Y-94413214D01*
X151927933Y-94432838D01*
X151920805Y-94449710D01*
X151914854Y-94464076D01*
X151910008Y-94476183D01*
X151906193Y-94486280D01*
X151903337Y-94494614D01*
X151901366Y-94501432D01*
X151900209Y-94506981D01*
X151899792Y-94511509D01*
X151900043Y-94515263D01*
X151900888Y-94518491D01*
X151902255Y-94521440D01*
X151904070Y-94524357D01*
X151906262Y-94527490D01*
X151908321Y-94530440D01*
X151910677Y-94533889D01*
X151915011Y-94540221D01*
X151921158Y-94549194D01*
X151928952Y-94560568D01*
X151938227Y-94574099D01*
X151948818Y-94589546D01*
X151960557Y-94606666D01*
X151973279Y-94625218D01*
X151986819Y-94644959D01*
X152001009Y-94665647D01*
X152015685Y-94687040D01*
X152017962Y-94690359D01*
X152032526Y-94711598D01*
X152046505Y-94732003D01*
X152059747Y-94751350D01*
X152072098Y-94769416D01*
X152083407Y-94785976D01*
X152093519Y-94800806D01*
X152102284Y-94813683D01*
X152109548Y-94824382D01*
X152115158Y-94832681D01*
X152118962Y-94838354D01*
X152120807Y-94841178D01*
X152120939Y-94841402D01*
X152122419Y-94846096D01*
X152123124Y-94852070D01*
X152123134Y-94852761D01*
X152123072Y-94853976D01*
X152122787Y-94855285D01*
X152122126Y-94856847D01*
X152120940Y-94858820D01*
X152119077Y-94861364D01*
X152116386Y-94864637D01*
X152112715Y-94868798D01*
X152107915Y-94874006D01*
X152101834Y-94880419D01*
X152094320Y-94888196D01*
X152085224Y-94897496D01*
X152074393Y-94908478D01*
X152061678Y-94921300D01*
X152046926Y-94936122D01*
X152029987Y-94953101D01*
X152010710Y-94972398D01*
X151988943Y-94994170D01*
X151841620Y-95141493D01*
X151833341Y-95141493D01*
X151832289Y-95141560D01*
X151831443Y-95141693D01*
X151830650Y-95141792D01*
X151829757Y-95141755D01*
X151828612Y-95141480D01*
X151827061Y-95140866D01*
X151824950Y-95139813D01*
X151822127Y-95138218D01*
X151818438Y-95135980D01*
X151813731Y-95132998D01*
X151807853Y-95129171D01*
X151800649Y-95124398D01*
X151791968Y-95118576D01*
X151781655Y-95111605D01*
X151769558Y-95103384D01*
X151755524Y-95093811D01*
X151739399Y-95082784D01*
X151721031Y-95070203D01*
X151700266Y-95055966D01*
X151676951Y-95039973D01*
X151650933Y-95022120D01*
X151622059Y-95002308D01*
X151597378Y-94985375D01*
X151576802Y-94971264D01*
X151559110Y-94959148D01*
X151544059Y-94948875D01*
X151531409Y-94940292D01*
X151520917Y-94933249D01*
X151512343Y-94927592D01*
X151505445Y-94923170D01*
X151499981Y-94919831D01*
X151495710Y-94917423D01*
X151492390Y-94915794D01*
X151489780Y-94914793D01*
X151487639Y-94914266D01*
X151485725Y-94914063D01*
X151484002Y-94914030D01*
X151481775Y-94914208D01*
X151478767Y-94914802D01*
X151474739Y-94915904D01*
X151469453Y-94917604D01*
X151462670Y-94919994D01*
X151454153Y-94923164D01*
X151443662Y-94927206D01*
X151430960Y-94932210D01*
X151415808Y-94938268D01*
X151397968Y-94945471D01*
X151377201Y-94953910D01*
X151353269Y-94963675D01*
X151342535Y-94968064D01*
X151321201Y-94976811D01*
X151300813Y-94985208D01*
X151281656Y-94993137D01*
X151264013Y-95000478D01*
X151248168Y-95007112D01*
X151234405Y-95012919D01*
X151223008Y-95017781D01*
X151214260Y-95021577D01*
X151208446Y-95024190D01*
X151205850Y-95025498D01*
X151205818Y-95025521D01*
X151204117Y-95026790D01*
X151202575Y-95028077D01*
X151201144Y-95029599D01*
X151199774Y-95031573D01*
X151198414Y-95034214D01*
X151197015Y-95037738D01*
X151195527Y-95042362D01*
X151193901Y-95048302D01*
X151192086Y-95055775D01*
X151190033Y-95064997D01*
X151187691Y-95076183D01*
X151185012Y-95089551D01*
X151181946Y-95105316D01*
X151178442Y-95123695D01*
X151174450Y-95144904D01*
X151169922Y-95169159D01*
X151164807Y-95196677D01*
X151159055Y-95227674D01*
X151158150Y-95232554D01*
X151153186Y-95259252D01*
X151148384Y-95284969D01*
X151143792Y-95309449D01*
X151139460Y-95332439D01*
X151135435Y-95353686D01*
X151131767Y-95372935D01*
X151128503Y-95389934D01*
X151125692Y-95404428D01*
X151123382Y-95416163D01*
X151121622Y-95424886D01*
X151120461Y-95430344D01*
X151119989Y-95432206D01*
X151116861Y-95436989D01*
X151112225Y-95441078D01*
X151112024Y-95441203D01*
X151110969Y-95441776D01*
X151109646Y-95442284D01*
X151107834Y-95442731D01*
X151105312Y-95443121D01*
X151101859Y-95443458D01*
X151097252Y-95443745D01*
X151091271Y-95443987D01*
X151083694Y-95444187D01*
X151074300Y-95444349D01*
X151062868Y-95444478D01*
X151049175Y-95444577D01*
X151033001Y-95444650D01*
X151014124Y-95444701D01*
X150992323Y-95444734D01*
X150967376Y-95444752D01*
X150939063Y-95444761D01*
X150910000Y-95444762D01*
X150878409Y-95444760D01*
G36*
X147100577Y-95374931D02*
X147068906Y-95374428D01*
X147041275Y-95373379D01*
X147016176Y-95371660D01*
X146992107Y-95369149D01*
X146967561Y-95365724D01*
X146941033Y-95361260D01*
X146919069Y-95357185D01*
X146860214Y-95344422D01*
X146799117Y-95328355D01*
X146738664Y-95309818D01*
X146681740Y-95289646D01*
X146670361Y-95285223D01*
X146627183Y-95268030D01*
X146584808Y-95250892D01*
X146542850Y-95233630D01*
X146500920Y-95216063D01*
X146458631Y-95198011D01*
X146415596Y-95179293D01*
X146371427Y-95159729D01*
X146325735Y-95139138D01*
X146278134Y-95117341D01*
X146228236Y-95094156D01*
X146175653Y-95069403D01*
X146119997Y-95042901D01*
X146060882Y-95014472D01*
X145997918Y-94983933D01*
X145930720Y-94951104D01*
X145858898Y-94915806D01*
X145782065Y-94877857D01*
X145699834Y-94837077D01*
X145611817Y-94793286D01*
X145589097Y-94781963D01*
X145510817Y-94743019D01*
X145438298Y-94707120D01*
X145371051Y-94674039D01*
X145308585Y-94643552D01*
X145250411Y-94615433D01*
X145196038Y-94589455D01*
X145144976Y-94565394D01*
X145096735Y-94543022D01*
X145050825Y-94522115D01*
X145006756Y-94502447D01*
X144964038Y-94483792D01*
X144922181Y-94465924D01*
X144880694Y-94448618D01*
X144839088Y-94431647D01*
X144796872Y-94414787D01*
X144763597Y-94401719D01*
X144740074Y-94392482D01*
X144718681Y-94383963D01*
X144700312Y-94376527D01*
X144685857Y-94370540D01*
X144676209Y-94366365D01*
X144672268Y-94364376D01*
X144672801Y-94360281D01*
X144678013Y-94352263D01*
X144687261Y-94341032D01*
X144699900Y-94327296D01*
X144715288Y-94311764D01*
X144732781Y-94295145D01*
X144745822Y-94283343D01*
X144813801Y-94227242D01*
X144888236Y-94173747D01*
X144969006Y-94122914D01*
X145055989Y-94074800D01*
X145149062Y-94029462D01*
X145248103Y-93986957D01*
X145352991Y-93947342D01*
X145463602Y-93910673D01*
X145579815Y-93877008D01*
X145666708Y-93854704D01*
X145767303Y-93831462D01*
X145862291Y-93812133D01*
X145951919Y-93796697D01*
X146036439Y-93785132D01*
X146116099Y-93777420D01*
X146191149Y-93773538D01*
X146261837Y-93773465D01*
X146328413Y-93777182D01*
X146391126Y-93784668D01*
X146428918Y-93791340D01*
X146489550Y-93806252D01*
X146544906Y-93825633D01*
X146594914Y-93849410D01*
X146639501Y-93877509D01*
X146678596Y-93909858D01*
X146712127Y-93946383D01*
X146740021Y-93987012D01*
X146762205Y-94031671D01*
X146778608Y-94080287D01*
X146789158Y-94132786D01*
X146792097Y-94159060D01*
X146792915Y-94170167D01*
X146793851Y-94178302D01*
X146795889Y-94184006D01*
X146800009Y-94187822D01*
X146807194Y-94190290D01*
X146818425Y-94191954D01*
X146834685Y-94193354D01*
X146856955Y-94195033D01*
X146857333Y-94195063D01*
X146884885Y-94197290D01*
X146906056Y-94199184D01*
X146921509Y-94200834D01*
X146931906Y-94202327D01*
X146937910Y-94203751D01*
X146940183Y-94205193D01*
X146940082Y-94206026D01*
X146942027Y-94207335D01*
X146948861Y-94207560D01*
X146958532Y-94206886D01*
X146968990Y-94205503D01*
X146978183Y-94203597D01*
X146982569Y-94202141D01*
X146988077Y-94200624D01*
X146999384Y-94198164D01*
X147015331Y-94194992D01*
X147034759Y-94191335D01*
X147056511Y-94187422D01*
X147061944Y-94186471D01*
X147143430Y-94172964D01*
X147220846Y-94161591D01*
X147296734Y-94152013D01*
X147373633Y-94143891D01*
X147397083Y-94141706D01*
X147419513Y-94140112D01*
X147446719Y-94138879D01*
X147477348Y-94138007D01*
X147510049Y-94137496D01*
X147543471Y-94137348D01*
X147576262Y-94137562D01*
X147607070Y-94138139D01*
X147634545Y-94139080D01*
X147657334Y-94140385D01*
X147670486Y-94141598D01*
X147743314Y-94151253D01*
X147814171Y-94163140D01*
X147884932Y-94177651D01*
X147957473Y-94195178D01*
X148033669Y-94216110D01*
X148049143Y-94220632D01*
X148071757Y-94227425D01*
X148088423Y-94232778D01*
X148100018Y-94237041D01*
X148107422Y-94240562D01*
X148111510Y-94243691D01*
X148112943Y-94246032D01*
X148113909Y-94251145D01*
X148115491Y-94262439D01*
X148117590Y-94279075D01*
X148120105Y-94300217D01*
X148122937Y-94325025D01*
X148125987Y-94352662D01*
X148129082Y-94381608D01*
X148132679Y-94415601D01*
X148135565Y-94443243D01*
X148137688Y-94465209D01*
X148138999Y-94482170D01*
X148139447Y-94494802D01*
X148138982Y-94503777D01*
X148137553Y-94509770D01*
X148135110Y-94513453D01*
X148131603Y-94515501D01*
X148126982Y-94516587D01*
X148121195Y-94517385D01*
X148118909Y-94517717D01*
X148107663Y-94519746D01*
X148090611Y-94523203D01*
X148068807Y-94527849D01*
X148043300Y-94533445D01*
X148015142Y-94539751D01*
X147985385Y-94546529D01*
X147955079Y-94553539D01*
X147925275Y-94560543D01*
X147897025Y-94567300D01*
X147871380Y-94573573D01*
X147852167Y-94578407D01*
X147749538Y-94605766D01*
X147653547Y-94633603D01*
X147563787Y-94662055D01*
X147479847Y-94691258D01*
X147401320Y-94721350D01*
X147327797Y-94752466D01*
X147315944Y-94757787D01*
X147245270Y-94792240D01*
X147173300Y-94831978D01*
X147101754Y-94875908D01*
X147032352Y-94922934D01*
X146966810Y-94971963D01*
X146922597Y-95008214D01*
X146904935Y-95023577D01*
X146886602Y-95039988D01*
X146868316Y-95056756D01*
X146850794Y-95073190D01*
X146834751Y-95088599D01*
X146820905Y-95102291D01*
X146809973Y-95113576D01*
X146802671Y-95121762D01*
X146799717Y-95126159D01*
X146799781Y-95126632D01*
X146805886Y-95129881D01*
X146817863Y-95134203D01*
X146834653Y-95139337D01*
X146855199Y-95145020D01*
X146878444Y-95150989D01*
X146903330Y-95156981D01*
X146928801Y-95162735D01*
X146953799Y-95167987D01*
X146977268Y-95172474D01*
X146998148Y-95175935D01*
X146998444Y-95175979D01*
X147053487Y-95182523D01*
X147107821Y-95185577D01*
X147162961Y-95185107D01*
X147220419Y-95181077D01*
X147281711Y-95173452D01*
X147311539Y-95168739D01*
X147404796Y-95150150D01*
X147494229Y-95126293D01*
X147579623Y-95097275D01*
X147660766Y-95063203D01*
X147737443Y-95024182D01*
X147809442Y-94980319D01*
X147876549Y-94931720D01*
X147938551Y-94878491D01*
X147982051Y-94835085D01*
X148024426Y-94786444D01*
X148062464Y-94735667D01*
X148095507Y-94683770D01*
X148122895Y-94631770D01*
X148140344Y-94590645D01*
X148145320Y-94578231D01*
X148149944Y-94568063D01*
X148153211Y-94562348D01*
X148156468Y-94559042D01*
X148164369Y-94551330D01*
X148176439Y-94539666D01*
X148192207Y-94524504D01*
X148211199Y-94506296D01*
X148232943Y-94485496D01*
X148256966Y-94462558D01*
X148282795Y-94437935D01*
X148301958Y-94419691D01*
X148328659Y-94394263D01*
X148353792Y-94370288D01*
X148376896Y-94348206D01*
X148397514Y-94328460D01*
X148415187Y-94311487D01*
X148429455Y-94297730D01*
X148439861Y-94287629D01*
X148445945Y-94281624D01*
X148447393Y-94280078D01*
X148444428Y-94278301D01*
X148435616Y-94273948D01*
X148421564Y-94267299D01*
X148402877Y-94258632D01*
X148380164Y-94248227D01*
X148354028Y-94236363D01*
X148325077Y-94223317D01*
X148293917Y-94209370D01*
X148286532Y-94206077D01*
X148124874Y-94134058D01*
X148108019Y-94073786D01*
X148099906Y-94045801D01*
X148090059Y-94013466D01*
X148079084Y-93978653D01*
X148067589Y-93943238D01*
X148056183Y-93909093D01*
X148045473Y-93878093D01*
X148036489Y-93853243D01*
X148031041Y-93839557D01*
X148026521Y-93831083D01*
X148021864Y-93826267D01*
X148016170Y-93823608D01*
X148008868Y-93822442D01*
X147995547Y-93821504D01*
X147977240Y-93820791D01*
X147954980Y-93820303D01*
X147929799Y-93820035D01*
X147902731Y-93819987D01*
X147874808Y-93820155D01*
X147847063Y-93820539D01*
X147820528Y-93821134D01*
X147796237Y-93821940D01*
X147775223Y-93822954D01*
X147758681Y-93824159D01*
X147595739Y-93841788D01*
X147495861Y-93855162D01*
X147453141Y-93861600D01*
X147416322Y-93867900D01*
X147384266Y-93874376D01*
X147355833Y-93881339D01*
X147329884Y-93889101D01*
X147305279Y-93897975D01*
X147280878Y-93908273D01*
X147255543Y-93920306D01*
X147252444Y-93921853D01*
X147196885Y-93953187D01*
X147142336Y-93990789D01*
X147089767Y-94033872D01*
X147040148Y-94081647D01*
X146999686Y-94126958D01*
X146981653Y-94148681D01*
X146979252Y-94123431D01*
X146972225Y-94076009D01*
X146960319Y-94026832D01*
X146944198Y-93977776D01*
X146924523Y-93930718D01*
X146901958Y-93887537D01*
X146888281Y-93865711D01*
X146850660Y-93815994D01*
X146807859Y-93770997D01*
X146759963Y-93730749D01*
X146707063Y-93695277D01*
X146649243Y-93664611D01*
X146586594Y-93638777D01*
X146519201Y-93617803D01*
X146447152Y-93601718D01*
X146370535Y-93590549D01*
X146289438Y-93584324D01*
X146203947Y-93583071D01*
X146114152Y-93586818D01*
X146035361Y-93593861D01*
X145962218Y-93603178D01*
X145884125Y-93615491D01*
X145802379Y-93630519D01*
X145718276Y-93647976D01*
X145633113Y-93667582D01*
X145548187Y-93689051D01*
X145464795Y-93712101D01*
X145388014Y-93735255D01*
X145290540Y-93767888D01*
X145196214Y-93803330D01*
X145105387Y-93841371D01*
X145018408Y-93881797D01*
X144935628Y-93924400D01*
X144857396Y-93968966D01*
X144784063Y-94015286D01*
X144715979Y-94063147D01*
X144653494Y-94112339D01*
X144596959Y-94162650D01*
X144546722Y-94213869D01*
X144503135Y-94265785D01*
X144498484Y-94271897D01*
X144488868Y-94284324D01*
X144482108Y-94291896D01*
X144477071Y-94295578D01*
X144472623Y-94296336D01*
X144470274Y-94295921D01*
X144450837Y-94291612D01*
X144425760Y-94286930D01*
X144396432Y-94282078D01*
X144364243Y-94277263D01*
X144330585Y-94272687D01*
X144296848Y-94268557D01*
X144264422Y-94265077D01*
X144253833Y-94264068D01*
X144222095Y-94261538D01*
X144190112Y-94259816D01*
X144157209Y-94258933D01*
X144122710Y-94258920D01*
X144085940Y-94259806D01*
X144046225Y-94261623D01*
X144002887Y-94264401D01*
X143955254Y-94268171D01*
X143902648Y-94272963D01*
X143844395Y-94278808D01*
X143782875Y-94285400D01*
X143693835Y-94295763D01*
X143598361Y-94307982D01*
X143496807Y-94321993D01*
X143389531Y-94337731D01*
X143276885Y-94355132D01*
X143159226Y-94374133D01*
X143036909Y-94394668D01*
X142910288Y-94416674D01*
X142779720Y-94440086D01*
X142645559Y-94464840D01*
X142508160Y-94490872D01*
X142367879Y-94518118D01*
X142225070Y-94546514D01*
X142080089Y-94575994D01*
X141933291Y-94606495D01*
X141785031Y-94637954D01*
X141635665Y-94670304D01*
X141548028Y-94689592D01*
X141503534Y-94699446D01*
X141465316Y-94707733D01*
X141432742Y-94714320D01*
X141405177Y-94719072D01*
X141381989Y-94721854D01*
X141362545Y-94722532D01*
X141346212Y-94720972D01*
X141332358Y-94717038D01*
X141320348Y-94710596D01*
X141309551Y-94701512D01*
X141299333Y-94689652D01*
X141289062Y-94674880D01*
X141278104Y-94657062D01*
X141265826Y-94636064D01*
X141261547Y-94628705D01*
X141224278Y-94562928D01*
X141189346Y-94497678D01*
X141157145Y-94433786D01*
X141128071Y-94372085D01*
X141102519Y-94313406D01*
X141080883Y-94258581D01*
X141067018Y-94219141D01*
X141051558Y-94166728D01*
X141040842Y-94117816D01*
X141034842Y-94072633D01*
X141033531Y-94031406D01*
X141036881Y-93994365D01*
X141044866Y-93961738D01*
X141057457Y-93933753D01*
X141074628Y-93910638D01*
X141096351Y-93892622D01*
X141106876Y-93886605D01*
X141117009Y-93881846D01*
X141128059Y-93877476D01*
X141140385Y-93873467D01*
X141154343Y-93869791D01*
X141170291Y-93866419D01*
X141188587Y-93863323D01*
X141209586Y-93860476D01*
X141233648Y-93857848D01*
X141261128Y-93855413D01*
X141292385Y-93853141D01*
X141327775Y-93851005D01*
X141367657Y-93848977D01*
X141412387Y-93847027D01*
X141462323Y-93845129D01*
X141517822Y-93843254D01*
X141579241Y-93841374D01*
X141646938Y-93839460D01*
X141721269Y-93837485D01*
X141735000Y-93837131D01*
X141857077Y-93833793D01*
X141972656Y-93830214D01*
X142082293Y-93826361D01*
X142186544Y-93822206D01*
X142285963Y-93817716D01*
X142381105Y-93812862D01*
X142472526Y-93807612D01*
X142560781Y-93801936D01*
X142646426Y-93795804D01*
X142730015Y-93789184D01*
X142812103Y-93782046D01*
X142893246Y-93774360D01*
X142920333Y-93771655D01*
X143049033Y-93757823D01*
X143173498Y-93742727D01*
X143294477Y-93726195D01*
X143412719Y-93708059D01*
X143528972Y-93688149D01*
X143643984Y-93666295D01*
X143758504Y-93642329D01*
X143873279Y-93616080D01*
X143989059Y-93587380D01*
X144106592Y-93556058D01*
X144226627Y-93521946D01*
X144349910Y-93484873D01*
X144477192Y-93444671D01*
X144609220Y-93401170D01*
X144714208Y-93365449D01*
X144764068Y-93347941D01*
X144811600Y-93330515D01*
X144857473Y-93312850D01*
X144902357Y-93294626D01*
X144946920Y-93275524D01*
X144991833Y-93255221D01*
X145037765Y-93233399D01*
X145085385Y-93209737D01*
X145135363Y-93183915D01*
X145188367Y-93155612D01*
X145245068Y-93124508D01*
X145306135Y-93090283D01*
X145372237Y-93052616D01*
X145393306Y-93040507D01*
X145451927Y-93006777D01*
X145504898Y-92976349D01*
X145552666Y-92948975D01*
X145595679Y-92924409D01*
X145634384Y-92902404D01*
X145669229Y-92882713D01*
X145700662Y-92865090D01*
X145729130Y-92849286D01*
X145755081Y-92835056D01*
X145778963Y-92822152D01*
X145801223Y-92810328D01*
X145822308Y-92799336D01*
X145842668Y-92788930D01*
X145862748Y-92778862D01*
X145882997Y-92768887D01*
X145903862Y-92758756D01*
X145905694Y-92757872D01*
X145973133Y-92726435D01*
X146036750Y-92699181D01*
X146097918Y-92675718D01*
X146158008Y-92655655D01*
X146218391Y-92638598D01*
X146280440Y-92624156D01*
X146345526Y-92611936D01*
X146415022Y-92601546D01*
X146479861Y-92593721D01*
X146520848Y-92589961D01*
X146566794Y-92587001D01*
X146615642Y-92584895D01*
X146665337Y-92583699D01*
X146713821Y-92583468D01*
X146759038Y-92584256D01*
X146788542Y-92585492D01*
X146868088Y-92592135D01*
X146948544Y-92603257D01*
X147028722Y-92618557D01*
X147107433Y-92637737D01*
X147183489Y-92660499D01*
X147255702Y-92686544D01*
X147322884Y-92715573D01*
X147340992Y-92724375D01*
X147421972Y-92768628D01*
X147501194Y-92819592D01*
X147578518Y-92877107D01*
X147653805Y-92941017D01*
X147726914Y-93011164D01*
X147797705Y-93087390D01*
X147866040Y-93169537D01*
X147931777Y-93257448D01*
X147994778Y-93350964D01*
X148054903Y-93449930D01*
X148112011Y-93554186D01*
X148157103Y-93644799D01*
X148175441Y-93684713D01*
X148193063Y-93726078D01*
X148210474Y-93770186D01*
X148228181Y-93818328D01*
X148246690Y-93871796D01*
X148251035Y-93884750D01*
X148258704Y-93908196D01*
X148266807Y-93933786D01*
X148274992Y-93960327D01*
X148282907Y-93986627D01*
X148290199Y-94011492D01*
X148296515Y-94033731D01*
X148301504Y-94052152D01*
X148304813Y-94065560D01*
X148305622Y-94069442D01*
X148307791Y-94081004D01*
X148512405Y-94163572D01*
X148548385Y-94178117D01*
X148582393Y-94191915D01*
X148613868Y-94204734D01*
X148642252Y-94216346D01*
X148666986Y-94226520D01*
X148687510Y-94235026D01*
X148703266Y-94241633D01*
X148713693Y-94246111D01*
X148718232Y-94248231D01*
X148718381Y-94248344D01*
X148716040Y-94250994D01*
X148708838Y-94257950D01*
X148697188Y-94268837D01*
X148681505Y-94283276D01*
X148662203Y-94300892D01*
X148639696Y-94321306D01*
X148614399Y-94344141D01*
X148586726Y-94369021D01*
X148557091Y-94395568D01*
X148531714Y-94418231D01*
X148495698Y-94450360D01*
X148464584Y-94478154D01*
X148438002Y-94501967D01*
X148415585Y-94522152D01*
X148396962Y-94539065D01*
X148381765Y-94553058D01*
X148369624Y-94564487D01*
X148360170Y-94573706D01*
X148353035Y-94581069D01*
X148347848Y-94586929D01*
X148344241Y-94591642D01*
X148341844Y-94595561D01*
X148340288Y-94599041D01*
X148339205Y-94602435D01*
X148339021Y-94603103D01*
X148332612Y-94623652D01*
X148323510Y-94648602D01*
X148312440Y-94676184D01*
X148300126Y-94704625D01*
X148287295Y-94732157D01*
X148280700Y-94745446D01*
X148248251Y-94803655D01*
X148211023Y-94859780D01*
X148168334Y-94914751D01*
X148119501Y-94969498D01*
X148106358Y-94983151D01*
X148050849Y-95036690D01*
X147993569Y-95085173D01*
X147933315Y-95129469D01*
X147868883Y-95170443D01*
X147799069Y-95208963D01*
X147778083Y-95219580D01*
X147710029Y-95251452D01*
X147642015Y-95279287D01*
X147572813Y-95303459D01*
X147501193Y-95324341D01*
X147425928Y-95342308D01*
X147345788Y-95357732D01*
X147299320Y-95365248D01*
X147279484Y-95368168D01*
X147262156Y-95370434D01*
X147245939Y-95372130D01*
X147229438Y-95373341D01*
X147211258Y-95374152D01*
X147190002Y-95374645D01*
X147164276Y-95374906D01*
X147137792Y-95375009D01*
X147100577Y-95374931D01*
X147100577Y-95374931D01*
G37*
X147100577Y-95374931D02*
X147068906Y-95374428D01*
X147041275Y-95373379D01*
X147016176Y-95371660D01*
X146992107Y-95369149D01*
X146967561Y-95365724D01*
X146941033Y-95361260D01*
X146919069Y-95357185D01*
X146860214Y-95344422D01*
X146799117Y-95328355D01*
X146738664Y-95309818D01*
X146681740Y-95289646D01*
X146670361Y-95285223D01*
X146627183Y-95268030D01*
X146584808Y-95250892D01*
X146542850Y-95233630D01*
X146500920Y-95216063D01*
X146458631Y-95198011D01*
X146415596Y-95179293D01*
X146371427Y-95159729D01*
X146325735Y-95139138D01*
X146278134Y-95117341D01*
X146228236Y-95094156D01*
X146175653Y-95069403D01*
X146119997Y-95042901D01*
X146060882Y-95014472D01*
X145997918Y-94983933D01*
X145930720Y-94951104D01*
X145858898Y-94915806D01*
X145782065Y-94877857D01*
X145699834Y-94837077D01*
X145611817Y-94793286D01*
X145589097Y-94781963D01*
X145510817Y-94743019D01*
X145438298Y-94707120D01*
X145371051Y-94674039D01*
X145308585Y-94643552D01*
X145250411Y-94615433D01*
X145196038Y-94589455D01*
X145144976Y-94565394D01*
X145096735Y-94543022D01*
X145050825Y-94522115D01*
X145006756Y-94502447D01*
X144964038Y-94483792D01*
X144922181Y-94465924D01*
X144880694Y-94448618D01*
X144839088Y-94431647D01*
X144796872Y-94414787D01*
X144763597Y-94401719D01*
X144740074Y-94392482D01*
X144718681Y-94383963D01*
X144700312Y-94376527D01*
X144685857Y-94370540D01*
X144676209Y-94366365D01*
X144672268Y-94364376D01*
X144672801Y-94360281D01*
X144678013Y-94352263D01*
X144687261Y-94341032D01*
X144699900Y-94327296D01*
X144715288Y-94311764D01*
X144732781Y-94295145D01*
X144745822Y-94283343D01*
X144813801Y-94227242D01*
X144888236Y-94173747D01*
X144969006Y-94122914D01*
X145055989Y-94074800D01*
X145149062Y-94029462D01*
X145248103Y-93986957D01*
X145352991Y-93947342D01*
X145463602Y-93910673D01*
X145579815Y-93877008D01*
X145666708Y-93854704D01*
X145767303Y-93831462D01*
X145862291Y-93812133D01*
X145951919Y-93796697D01*
X146036439Y-93785132D01*
X146116099Y-93777420D01*
X146191149Y-93773538D01*
X146261837Y-93773465D01*
X146328413Y-93777182D01*
X146391126Y-93784668D01*
X146428918Y-93791340D01*
X146489550Y-93806252D01*
X146544906Y-93825633D01*
X146594914Y-93849410D01*
X146639501Y-93877509D01*
X146678596Y-93909858D01*
X146712127Y-93946383D01*
X146740021Y-93987012D01*
X146762205Y-94031671D01*
X146778608Y-94080287D01*
X146789158Y-94132786D01*
X146792097Y-94159060D01*
X146792915Y-94170167D01*
X146793851Y-94178302D01*
X146795889Y-94184006D01*
X146800009Y-94187822D01*
X146807194Y-94190290D01*
X146818425Y-94191954D01*
X146834685Y-94193354D01*
X146856955Y-94195033D01*
X146857333Y-94195063D01*
X146884885Y-94197290D01*
X146906056Y-94199184D01*
X146921509Y-94200834D01*
X146931906Y-94202327D01*
X146937910Y-94203751D01*
X146940183Y-94205193D01*
X146940082Y-94206026D01*
X146942027Y-94207335D01*
X146948861Y-94207560D01*
X146958532Y-94206886D01*
X146968990Y-94205503D01*
X146978183Y-94203597D01*
X146982569Y-94202141D01*
X146988077Y-94200624D01*
X146999384Y-94198164D01*
X147015331Y-94194992D01*
X147034759Y-94191335D01*
X147056511Y-94187422D01*
X147061944Y-94186471D01*
X147143430Y-94172964D01*
X147220846Y-94161591D01*
X147296734Y-94152013D01*
X147373633Y-94143891D01*
X147397083Y-94141706D01*
X147419513Y-94140112D01*
X147446719Y-94138879D01*
X147477348Y-94138007D01*
X147510049Y-94137496D01*
X147543471Y-94137348D01*
X147576262Y-94137562D01*
X147607070Y-94138139D01*
X147634545Y-94139080D01*
X147657334Y-94140385D01*
X147670486Y-94141598D01*
X147743314Y-94151253D01*
X147814171Y-94163140D01*
X147884932Y-94177651D01*
X147957473Y-94195178D01*
X148033669Y-94216110D01*
X148049143Y-94220632D01*
X148071757Y-94227425D01*
X148088423Y-94232778D01*
X148100018Y-94237041D01*
X148107422Y-94240562D01*
X148111510Y-94243691D01*
X148112943Y-94246032D01*
X148113909Y-94251145D01*
X148115491Y-94262439D01*
X148117590Y-94279075D01*
X148120105Y-94300217D01*
X148122937Y-94325025D01*
X148125987Y-94352662D01*
X148129082Y-94381608D01*
X148132679Y-94415601D01*
X148135565Y-94443243D01*
X148137688Y-94465209D01*
X148138999Y-94482170D01*
X148139447Y-94494802D01*
X148138982Y-94503777D01*
X148137553Y-94509770D01*
X148135110Y-94513453D01*
X148131603Y-94515501D01*
X148126982Y-94516587D01*
X148121195Y-94517385D01*
X148118909Y-94517717D01*
X148107663Y-94519746D01*
X148090611Y-94523203D01*
X148068807Y-94527849D01*
X148043300Y-94533445D01*
X148015142Y-94539751D01*
X147985385Y-94546529D01*
X147955079Y-94553539D01*
X147925275Y-94560543D01*
X147897025Y-94567300D01*
X147871380Y-94573573D01*
X147852167Y-94578407D01*
X147749538Y-94605766D01*
X147653547Y-94633603D01*
X147563787Y-94662055D01*
X147479847Y-94691258D01*
X147401320Y-94721350D01*
X147327797Y-94752466D01*
X147315944Y-94757787D01*
X147245270Y-94792240D01*
X147173300Y-94831978D01*
X147101754Y-94875908D01*
X147032352Y-94922934D01*
X146966810Y-94971963D01*
X146922597Y-95008214D01*
X146904935Y-95023577D01*
X146886602Y-95039988D01*
X146868316Y-95056756D01*
X146850794Y-95073190D01*
X146834751Y-95088599D01*
X146820905Y-95102291D01*
X146809973Y-95113576D01*
X146802671Y-95121762D01*
X146799717Y-95126159D01*
X146799781Y-95126632D01*
X146805886Y-95129881D01*
X146817863Y-95134203D01*
X146834653Y-95139337D01*
X146855199Y-95145020D01*
X146878444Y-95150989D01*
X146903330Y-95156981D01*
X146928801Y-95162735D01*
X146953799Y-95167987D01*
X146977268Y-95172474D01*
X146998148Y-95175935D01*
X146998444Y-95175979D01*
X147053487Y-95182523D01*
X147107821Y-95185577D01*
X147162961Y-95185107D01*
X147220419Y-95181077D01*
X147281711Y-95173452D01*
X147311539Y-95168739D01*
X147404796Y-95150150D01*
X147494229Y-95126293D01*
X147579623Y-95097275D01*
X147660766Y-95063203D01*
X147737443Y-95024182D01*
X147809442Y-94980319D01*
X147876549Y-94931720D01*
X147938551Y-94878491D01*
X147982051Y-94835085D01*
X148024426Y-94786444D01*
X148062464Y-94735667D01*
X148095507Y-94683770D01*
X148122895Y-94631770D01*
X148140344Y-94590645D01*
X148145320Y-94578231D01*
X148149944Y-94568063D01*
X148153211Y-94562348D01*
X148156468Y-94559042D01*
X148164369Y-94551330D01*
X148176439Y-94539666D01*
X148192207Y-94524504D01*
X148211199Y-94506296D01*
X148232943Y-94485496D01*
X148256966Y-94462558D01*
X148282795Y-94437935D01*
X148301958Y-94419691D01*
X148328659Y-94394263D01*
X148353792Y-94370288D01*
X148376896Y-94348206D01*
X148397514Y-94328460D01*
X148415187Y-94311487D01*
X148429455Y-94297730D01*
X148439861Y-94287629D01*
X148445945Y-94281624D01*
X148447393Y-94280078D01*
X148444428Y-94278301D01*
X148435616Y-94273948D01*
X148421564Y-94267299D01*
X148402877Y-94258632D01*
X148380164Y-94248227D01*
X148354028Y-94236363D01*
X148325077Y-94223317D01*
X148293917Y-94209370D01*
X148286532Y-94206077D01*
X148124874Y-94134058D01*
X148108019Y-94073786D01*
X148099906Y-94045801D01*
X148090059Y-94013466D01*
X148079084Y-93978653D01*
X148067589Y-93943238D01*
X148056183Y-93909093D01*
X148045473Y-93878093D01*
X148036489Y-93853243D01*
X148031041Y-93839557D01*
X148026521Y-93831083D01*
X148021864Y-93826267D01*
X148016170Y-93823608D01*
X148008868Y-93822442D01*
X147995547Y-93821504D01*
X147977240Y-93820791D01*
X147954980Y-93820303D01*
X147929799Y-93820035D01*
X147902731Y-93819987D01*
X147874808Y-93820155D01*
X147847063Y-93820539D01*
X147820528Y-93821134D01*
X147796237Y-93821940D01*
X147775223Y-93822954D01*
X147758681Y-93824159D01*
X147595739Y-93841788D01*
X147495861Y-93855162D01*
X147453141Y-93861600D01*
X147416322Y-93867900D01*
X147384266Y-93874376D01*
X147355833Y-93881339D01*
X147329884Y-93889101D01*
X147305279Y-93897975D01*
X147280878Y-93908273D01*
X147255543Y-93920306D01*
X147252444Y-93921853D01*
X147196885Y-93953187D01*
X147142336Y-93990789D01*
X147089767Y-94033872D01*
X147040148Y-94081647D01*
X146999686Y-94126958D01*
X146981653Y-94148681D01*
X146979252Y-94123431D01*
X146972225Y-94076009D01*
X146960319Y-94026832D01*
X146944198Y-93977776D01*
X146924523Y-93930718D01*
X146901958Y-93887537D01*
X146888281Y-93865711D01*
X146850660Y-93815994D01*
X146807859Y-93770997D01*
X146759963Y-93730749D01*
X146707063Y-93695277D01*
X146649243Y-93664611D01*
X146586594Y-93638777D01*
X146519201Y-93617803D01*
X146447152Y-93601718D01*
X146370535Y-93590549D01*
X146289438Y-93584324D01*
X146203947Y-93583071D01*
X146114152Y-93586818D01*
X146035361Y-93593861D01*
X145962218Y-93603178D01*
X145884125Y-93615491D01*
X145802379Y-93630519D01*
X145718276Y-93647976D01*
X145633113Y-93667582D01*
X145548187Y-93689051D01*
X145464795Y-93712101D01*
X145388014Y-93735255D01*
X145290540Y-93767888D01*
X145196214Y-93803330D01*
X145105387Y-93841371D01*
X145018408Y-93881797D01*
X144935628Y-93924400D01*
X144857396Y-93968966D01*
X144784063Y-94015286D01*
X144715979Y-94063147D01*
X144653494Y-94112339D01*
X144596959Y-94162650D01*
X144546722Y-94213869D01*
X144503135Y-94265785D01*
X144498484Y-94271897D01*
X144488868Y-94284324D01*
X144482108Y-94291896D01*
X144477071Y-94295578D01*
X144472623Y-94296336D01*
X144470274Y-94295921D01*
X144450837Y-94291612D01*
X144425760Y-94286930D01*
X144396432Y-94282078D01*
X144364243Y-94277263D01*
X144330585Y-94272687D01*
X144296848Y-94268557D01*
X144264422Y-94265077D01*
X144253833Y-94264068D01*
X144222095Y-94261538D01*
X144190112Y-94259816D01*
X144157209Y-94258933D01*
X144122710Y-94258920D01*
X144085940Y-94259806D01*
X144046225Y-94261623D01*
X144002887Y-94264401D01*
X143955254Y-94268171D01*
X143902648Y-94272963D01*
X143844395Y-94278808D01*
X143782875Y-94285400D01*
X143693835Y-94295763D01*
X143598361Y-94307982D01*
X143496807Y-94321993D01*
X143389531Y-94337731D01*
X143276885Y-94355132D01*
X143159226Y-94374133D01*
X143036909Y-94394668D01*
X142910288Y-94416674D01*
X142779720Y-94440086D01*
X142645559Y-94464840D01*
X142508160Y-94490872D01*
X142367879Y-94518118D01*
X142225070Y-94546514D01*
X142080089Y-94575994D01*
X141933291Y-94606495D01*
X141785031Y-94637954D01*
X141635665Y-94670304D01*
X141548028Y-94689592D01*
X141503534Y-94699446D01*
X141465316Y-94707733D01*
X141432742Y-94714320D01*
X141405177Y-94719072D01*
X141381989Y-94721854D01*
X141362545Y-94722532D01*
X141346212Y-94720972D01*
X141332358Y-94717038D01*
X141320348Y-94710596D01*
X141309551Y-94701512D01*
X141299333Y-94689652D01*
X141289062Y-94674880D01*
X141278104Y-94657062D01*
X141265826Y-94636064D01*
X141261547Y-94628705D01*
X141224278Y-94562928D01*
X141189346Y-94497678D01*
X141157145Y-94433786D01*
X141128071Y-94372085D01*
X141102519Y-94313406D01*
X141080883Y-94258581D01*
X141067018Y-94219141D01*
X141051558Y-94166728D01*
X141040842Y-94117816D01*
X141034842Y-94072633D01*
X141033531Y-94031406D01*
X141036881Y-93994365D01*
X141044866Y-93961738D01*
X141057457Y-93933753D01*
X141074628Y-93910638D01*
X141096351Y-93892622D01*
X141106876Y-93886605D01*
X141117009Y-93881846D01*
X141128059Y-93877476D01*
X141140385Y-93873467D01*
X141154343Y-93869791D01*
X141170291Y-93866419D01*
X141188587Y-93863323D01*
X141209586Y-93860476D01*
X141233648Y-93857848D01*
X141261128Y-93855413D01*
X141292385Y-93853141D01*
X141327775Y-93851005D01*
X141367657Y-93848977D01*
X141412387Y-93847027D01*
X141462323Y-93845129D01*
X141517822Y-93843254D01*
X141579241Y-93841374D01*
X141646938Y-93839460D01*
X141721269Y-93837485D01*
X141735000Y-93837131D01*
X141857077Y-93833793D01*
X141972656Y-93830214D01*
X142082293Y-93826361D01*
X142186544Y-93822206D01*
X142285963Y-93817716D01*
X142381105Y-93812862D01*
X142472526Y-93807612D01*
X142560781Y-93801936D01*
X142646426Y-93795804D01*
X142730015Y-93789184D01*
X142812103Y-93782046D01*
X142893246Y-93774360D01*
X142920333Y-93771655D01*
X143049033Y-93757823D01*
X143173498Y-93742727D01*
X143294477Y-93726195D01*
X143412719Y-93708059D01*
X143528972Y-93688149D01*
X143643984Y-93666295D01*
X143758504Y-93642329D01*
X143873279Y-93616080D01*
X143989059Y-93587380D01*
X144106592Y-93556058D01*
X144226627Y-93521946D01*
X144349910Y-93484873D01*
X144477192Y-93444671D01*
X144609220Y-93401170D01*
X144714208Y-93365449D01*
X144764068Y-93347941D01*
X144811600Y-93330515D01*
X144857473Y-93312850D01*
X144902357Y-93294626D01*
X144946920Y-93275524D01*
X144991833Y-93255221D01*
X145037765Y-93233399D01*
X145085385Y-93209737D01*
X145135363Y-93183915D01*
X145188367Y-93155612D01*
X145245068Y-93124508D01*
X145306135Y-93090283D01*
X145372237Y-93052616D01*
X145393306Y-93040507D01*
X145451927Y-93006777D01*
X145504898Y-92976349D01*
X145552666Y-92948975D01*
X145595679Y-92924409D01*
X145634384Y-92902404D01*
X145669229Y-92882713D01*
X145700662Y-92865090D01*
X145729130Y-92849286D01*
X145755081Y-92835056D01*
X145778963Y-92822152D01*
X145801223Y-92810328D01*
X145822308Y-92799336D01*
X145842668Y-92788930D01*
X145862748Y-92778862D01*
X145882997Y-92768887D01*
X145903862Y-92758756D01*
X145905694Y-92757872D01*
X145973133Y-92726435D01*
X146036750Y-92699181D01*
X146097918Y-92675718D01*
X146158008Y-92655655D01*
X146218391Y-92638598D01*
X146280440Y-92624156D01*
X146345526Y-92611936D01*
X146415022Y-92601546D01*
X146479861Y-92593721D01*
X146520848Y-92589961D01*
X146566794Y-92587001D01*
X146615642Y-92584895D01*
X146665337Y-92583699D01*
X146713821Y-92583468D01*
X146759038Y-92584256D01*
X146788542Y-92585492D01*
X146868088Y-92592135D01*
X146948544Y-92603257D01*
X147028722Y-92618557D01*
X147107433Y-92637737D01*
X147183489Y-92660499D01*
X147255702Y-92686544D01*
X147322884Y-92715573D01*
X147340992Y-92724375D01*
X147421972Y-92768628D01*
X147501194Y-92819592D01*
X147578518Y-92877107D01*
X147653805Y-92941017D01*
X147726914Y-93011164D01*
X147797705Y-93087390D01*
X147866040Y-93169537D01*
X147931777Y-93257448D01*
X147994778Y-93350964D01*
X148054903Y-93449930D01*
X148112011Y-93554186D01*
X148157103Y-93644799D01*
X148175441Y-93684713D01*
X148193063Y-93726078D01*
X148210474Y-93770186D01*
X148228181Y-93818328D01*
X148246690Y-93871796D01*
X148251035Y-93884750D01*
X148258704Y-93908196D01*
X148266807Y-93933786D01*
X148274992Y-93960327D01*
X148282907Y-93986627D01*
X148290199Y-94011492D01*
X148296515Y-94033731D01*
X148301504Y-94052152D01*
X148304813Y-94065560D01*
X148305622Y-94069442D01*
X148307791Y-94081004D01*
X148512405Y-94163572D01*
X148548385Y-94178117D01*
X148582393Y-94191915D01*
X148613868Y-94204734D01*
X148642252Y-94216346D01*
X148666986Y-94226520D01*
X148687510Y-94235026D01*
X148703266Y-94241633D01*
X148713693Y-94246111D01*
X148718232Y-94248231D01*
X148718381Y-94248344D01*
X148716040Y-94250994D01*
X148708838Y-94257950D01*
X148697188Y-94268837D01*
X148681505Y-94283276D01*
X148662203Y-94300892D01*
X148639696Y-94321306D01*
X148614399Y-94344141D01*
X148586726Y-94369021D01*
X148557091Y-94395568D01*
X148531714Y-94418231D01*
X148495698Y-94450360D01*
X148464584Y-94478154D01*
X148438002Y-94501967D01*
X148415585Y-94522152D01*
X148396962Y-94539065D01*
X148381765Y-94553058D01*
X148369624Y-94564487D01*
X148360170Y-94573706D01*
X148353035Y-94581069D01*
X148347848Y-94586929D01*
X148344241Y-94591642D01*
X148341844Y-94595561D01*
X148340288Y-94599041D01*
X148339205Y-94602435D01*
X148339021Y-94603103D01*
X148332612Y-94623652D01*
X148323510Y-94648602D01*
X148312440Y-94676184D01*
X148300126Y-94704625D01*
X148287295Y-94732157D01*
X148280700Y-94745446D01*
X148248251Y-94803655D01*
X148211023Y-94859780D01*
X148168334Y-94914751D01*
X148119501Y-94969498D01*
X148106358Y-94983151D01*
X148050849Y-95036690D01*
X147993569Y-95085173D01*
X147933315Y-95129469D01*
X147868883Y-95170443D01*
X147799069Y-95208963D01*
X147778083Y-95219580D01*
X147710029Y-95251452D01*
X147642015Y-95279287D01*
X147572813Y-95303459D01*
X147501193Y-95324341D01*
X147425928Y-95342308D01*
X147345788Y-95357732D01*
X147299320Y-95365248D01*
X147279484Y-95368168D01*
X147262156Y-95370434D01*
X147245939Y-95372130D01*
X147229438Y-95373341D01*
X147211258Y-95374152D01*
X147190002Y-95374645D01*
X147164276Y-95374906D01*
X147137792Y-95375009D01*
X147100577Y-95374931D01*
G36*
X134093421Y-115752759D02*
X134125092Y-115753262D01*
X134152723Y-115754311D01*
X134177822Y-115756030D01*
X134201891Y-115758541D01*
X134226437Y-115761966D01*
X134252965Y-115766430D01*
X134274929Y-115770505D01*
X134333784Y-115783268D01*
X134394881Y-115799335D01*
X134455334Y-115817872D01*
X134512258Y-115838044D01*
X134523637Y-115842467D01*
X134566815Y-115859660D01*
X134609190Y-115876798D01*
X134651148Y-115894060D01*
X134693078Y-115911627D01*
X134735367Y-115929679D01*
X134778402Y-115948397D01*
X134822571Y-115967961D01*
X134868263Y-115988552D01*
X134915864Y-116010349D01*
X134965762Y-116033534D01*
X135018345Y-116058287D01*
X135074001Y-116084789D01*
X135133116Y-116113218D01*
X135196080Y-116143757D01*
X135263278Y-116176586D01*
X135335100Y-116211884D01*
X135411933Y-116249833D01*
X135494164Y-116290613D01*
X135582181Y-116334404D01*
X135604901Y-116345727D01*
X135683181Y-116384671D01*
X135755700Y-116420570D01*
X135822947Y-116453651D01*
X135885413Y-116484138D01*
X135943587Y-116512257D01*
X135997960Y-116538235D01*
X136049022Y-116562296D01*
X136097263Y-116584668D01*
X136143173Y-116605575D01*
X136187242Y-116625243D01*
X136229960Y-116643898D01*
X136271817Y-116661766D01*
X136313304Y-116679072D01*
X136354910Y-116696043D01*
X136397126Y-116712903D01*
X136430401Y-116725971D01*
X136453924Y-116735208D01*
X136475317Y-116743727D01*
X136493686Y-116751163D01*
X136508141Y-116757150D01*
X136517789Y-116761325D01*
X136521730Y-116763314D01*
X136521197Y-116767409D01*
X136515985Y-116775427D01*
X136506737Y-116786658D01*
X136494098Y-116800394D01*
X136478710Y-116815926D01*
X136461217Y-116832545D01*
X136448176Y-116844347D01*
X136380197Y-116900448D01*
X136305762Y-116953943D01*
X136224992Y-117004776D01*
X136138009Y-117052890D01*
X136044936Y-117098228D01*
X135945895Y-117140733D01*
X135841007Y-117180348D01*
X135730396Y-117217017D01*
X135614183Y-117250682D01*
X135527290Y-117272986D01*
X135426695Y-117296228D01*
X135331707Y-117315557D01*
X135242079Y-117330993D01*
X135157559Y-117342558D01*
X135077899Y-117350270D01*
X135002849Y-117354152D01*
X134932161Y-117354225D01*
X134865585Y-117350508D01*
X134802872Y-117343022D01*
X134765080Y-117336350D01*
X134704448Y-117321438D01*
X134649092Y-117302057D01*
X134599084Y-117278280D01*
X134554497Y-117250181D01*
X134515402Y-117217832D01*
X134481871Y-117181307D01*
X134453977Y-117140678D01*
X134431793Y-117096019D01*
X134415390Y-117047403D01*
X134404840Y-116994904D01*
X134401901Y-116968630D01*
X134401083Y-116957523D01*
X134400147Y-116949388D01*
X134398109Y-116943684D01*
X134393989Y-116939868D01*
X134386804Y-116937400D01*
X134375573Y-116935736D01*
X134359313Y-116934336D01*
X134337043Y-116932657D01*
X134336665Y-116932627D01*
X134309113Y-116930400D01*
X134287942Y-116928506D01*
X134272489Y-116926856D01*
X134262092Y-116925363D01*
X134256088Y-116923939D01*
X134253815Y-116922497D01*
X134253916Y-116921664D01*
X134251971Y-116920355D01*
X134245137Y-116920130D01*
X134235466Y-116920804D01*
X134225008Y-116922187D01*
X134215815Y-116924093D01*
X134211429Y-116925549D01*
X134205921Y-116927066D01*
X134194614Y-116929526D01*
X134178667Y-116932698D01*
X134159239Y-116936355D01*
X134137487Y-116940268D01*
X134132054Y-116941219D01*
X134050568Y-116954726D01*
X133973152Y-116966099D01*
X133897264Y-116975677D01*
X133820365Y-116983799D01*
X133796915Y-116985984D01*
X133774485Y-116987578D01*
X133747279Y-116988811D01*
X133716650Y-116989683D01*
X133683949Y-116990194D01*
X133650527Y-116990342D01*
X133617736Y-116990128D01*
X133586928Y-116989551D01*
X133559453Y-116988610D01*
X133536664Y-116987305D01*
X133523512Y-116986092D01*
X133450684Y-116976437D01*
X133379827Y-116964550D01*
X133309066Y-116950039D01*
X133236525Y-116932512D01*
X133160329Y-116911580D01*
X133144855Y-116907058D01*
X133122241Y-116900265D01*
X133105575Y-116894912D01*
X133093980Y-116890649D01*
X133086576Y-116887128D01*
X133082488Y-116883999D01*
X133081055Y-116881658D01*
X133080089Y-116876545D01*
X133078507Y-116865251D01*
X133076408Y-116848615D01*
X133073893Y-116827473D01*
X133071061Y-116802665D01*
X133068011Y-116775028D01*
X133064916Y-116746082D01*
X133061319Y-116712089D01*
X133058433Y-116684447D01*
X133056310Y-116662481D01*
X133054999Y-116645520D01*
X133054551Y-116632888D01*
X133055016Y-116623913D01*
X133056445Y-116617920D01*
X133058888Y-116614237D01*
X133062395Y-116612189D01*
X133067016Y-116611103D01*
X133072803Y-116610305D01*
X133075089Y-116609973D01*
X133086335Y-116607944D01*
X133103387Y-116604487D01*
X133125191Y-116599841D01*
X133150698Y-116594245D01*
X133178856Y-116587939D01*
X133208613Y-116581161D01*
X133238919Y-116574151D01*
X133268723Y-116567147D01*
X133296973Y-116560390D01*
X133322618Y-116554117D01*
X133341831Y-116549283D01*
X133444460Y-116521924D01*
X133540451Y-116494087D01*
X133630211Y-116465635D01*
X133714151Y-116436432D01*
X133792678Y-116406340D01*
X133866201Y-116375224D01*
X133878054Y-116369903D01*
X133948728Y-116335450D01*
X134020698Y-116295712D01*
X134092244Y-116251782D01*
X134161646Y-116204756D01*
X134227188Y-116155727D01*
X134271401Y-116119476D01*
X134289063Y-116104113D01*
X134307396Y-116087702D01*
X134325682Y-116070934D01*
X134343204Y-116054500D01*
X134359247Y-116039091D01*
X134373093Y-116025399D01*
X134384025Y-116014114D01*
X134391327Y-116005928D01*
X134394281Y-116001531D01*
X134394217Y-116001058D01*
X134388112Y-115997809D01*
X134376135Y-115993487D01*
X134359345Y-115988353D01*
X134338799Y-115982670D01*
X134315554Y-115976701D01*
X134290668Y-115970709D01*
X134265197Y-115964955D01*
X134240199Y-115959703D01*
X134216730Y-115955216D01*
X134195850Y-115951755D01*
X134195554Y-115951711D01*
X134140511Y-115945167D01*
X134086177Y-115942113D01*
X134031037Y-115942583D01*
X133973579Y-115946613D01*
X133912287Y-115954238D01*
X133882459Y-115958951D01*
X133789202Y-115977540D01*
X133699769Y-116001397D01*
X133614375Y-116030415D01*
X133533232Y-116064487D01*
X133456555Y-116103508D01*
X133384556Y-116147371D01*
X133317449Y-116195970D01*
X133255447Y-116249199D01*
X133211947Y-116292605D01*
X133169572Y-116341246D01*
X133131534Y-116392023D01*
X133098491Y-116443920D01*
X133071103Y-116495920D01*
X133053654Y-116537045D01*
X133048678Y-116549459D01*
X133044054Y-116559627D01*
X133040787Y-116565342D01*
X133037530Y-116568648D01*
X133029629Y-116576360D01*
X133017559Y-116588024D01*
X133001791Y-116603186D01*
X132982799Y-116621394D01*
X132961055Y-116642194D01*
X132937032Y-116665132D01*
X132911203Y-116689755D01*
X132892040Y-116707999D01*
X132865339Y-116733427D01*
X132840206Y-116757402D01*
X132817102Y-116779484D01*
X132796484Y-116799230D01*
X132778811Y-116816203D01*
X132764543Y-116829960D01*
X132754137Y-116840061D01*
X132748053Y-116846066D01*
X132746605Y-116847612D01*
X132749570Y-116849389D01*
X132758382Y-116853742D01*
X132772434Y-116860391D01*
X132791121Y-116869058D01*
X132813834Y-116879463D01*
X132839970Y-116891327D01*
X132868921Y-116904373D01*
X132900081Y-116918320D01*
X132907466Y-116921613D01*
X133069124Y-116993632D01*
X133085979Y-117053904D01*
X133094092Y-117081889D01*
X133103939Y-117114224D01*
X133114914Y-117149037D01*
X133126409Y-117184452D01*
X133137815Y-117218597D01*
X133148525Y-117249597D01*
X133157509Y-117274447D01*
X133162957Y-117288133D01*
X133167477Y-117296607D01*
X133172134Y-117301423D01*
X133177828Y-117304082D01*
X133185130Y-117305248D01*
X133198451Y-117306186D01*
X133216758Y-117306899D01*
X133239018Y-117307387D01*
X133264199Y-117307655D01*
X133291267Y-117307703D01*
X133319190Y-117307535D01*
X133346935Y-117307151D01*
X133373470Y-117306556D01*
X133397761Y-117305750D01*
X133418775Y-117304736D01*
X133435317Y-117303531D01*
X133598259Y-117285902D01*
X133698137Y-117272528D01*
X133740857Y-117266090D01*
X133777676Y-117259790D01*
X133809732Y-117253314D01*
X133838165Y-117246351D01*
X133864114Y-117238589D01*
X133888719Y-117229715D01*
X133913120Y-117219417D01*
X133938455Y-117207384D01*
X133941554Y-117205837D01*
X133997113Y-117174503D01*
X134051662Y-117136901D01*
X134104231Y-117093818D01*
X134153850Y-117046043D01*
X134194312Y-117000732D01*
X134212345Y-116979009D01*
X134214746Y-117004259D01*
X134221773Y-117051681D01*
X134233679Y-117100858D01*
X134249800Y-117149914D01*
X134269475Y-117196972D01*
X134292040Y-117240153D01*
X134305717Y-117261979D01*
X134343338Y-117311696D01*
X134386139Y-117356693D01*
X134434035Y-117396941D01*
X134486935Y-117432413D01*
X134544755Y-117463079D01*
X134607404Y-117488913D01*
X134674797Y-117509887D01*
X134746846Y-117525972D01*
X134823463Y-117537141D01*
X134904560Y-117543366D01*
X134990051Y-117544619D01*
X135079846Y-117540872D01*
X135158637Y-117533829D01*
X135231780Y-117524512D01*
X135309873Y-117512199D01*
X135391619Y-117497171D01*
X135475722Y-117479714D01*
X135560885Y-117460108D01*
X135645811Y-117438639D01*
X135729203Y-117415589D01*
X135805984Y-117392435D01*
X135903458Y-117359802D01*
X135997784Y-117324360D01*
X136088611Y-117286319D01*
X136175590Y-117245893D01*
X136258370Y-117203290D01*
X136336602Y-117158724D01*
X136409935Y-117112404D01*
X136478019Y-117064543D01*
X136540504Y-117015351D01*
X136597039Y-116965040D01*
X136647276Y-116913821D01*
X136690863Y-116861905D01*
X136695514Y-116855793D01*
X136705130Y-116843366D01*
X136711890Y-116835794D01*
X136716927Y-116832112D01*
X136721375Y-116831354D01*
X136723724Y-116831769D01*
X136743161Y-116836078D01*
X136768238Y-116840760D01*
X136797566Y-116845612D01*
X136829755Y-116850427D01*
X136863413Y-116855003D01*
X136897150Y-116859133D01*
X136929576Y-116862613D01*
X136940165Y-116863622D01*
X136971903Y-116866152D01*
X137003886Y-116867874D01*
X137036789Y-116868757D01*
X137071288Y-116868770D01*
X137108058Y-116867884D01*
X137147773Y-116866067D01*
X137191111Y-116863289D01*
X137238744Y-116859519D01*
X137291350Y-116854727D01*
X137349603Y-116848882D01*
X137411123Y-116842290D01*
X137500163Y-116831927D01*
X137595637Y-116819708D01*
X137697191Y-116805697D01*
X137804467Y-116789959D01*
X137917113Y-116772558D01*
X138034772Y-116753557D01*
X138157089Y-116733022D01*
X138283710Y-116711016D01*
X138414278Y-116687604D01*
X138548439Y-116662850D01*
X138685838Y-116636818D01*
X138826119Y-116609572D01*
X138968928Y-116581176D01*
X139113909Y-116551696D01*
X139260707Y-116521195D01*
X139408967Y-116489736D01*
X139558333Y-116457386D01*
X139645970Y-116438098D01*
X139690464Y-116428244D01*
X139728682Y-116419957D01*
X139761256Y-116413370D01*
X139788821Y-116408618D01*
X139812009Y-116405836D01*
X139831453Y-116405158D01*
X139847786Y-116406718D01*
X139861640Y-116410652D01*
X139873650Y-116417094D01*
X139884447Y-116426178D01*
X139894665Y-116438038D01*
X139904936Y-116452810D01*
X139915894Y-116470628D01*
X139928172Y-116491626D01*
X139932451Y-116498985D01*
X139969720Y-116564762D01*
X140004652Y-116630012D01*
X140036853Y-116693904D01*
X140065927Y-116755605D01*
X140091479Y-116814284D01*
X140113115Y-116869109D01*
X140126980Y-116908549D01*
X140142440Y-116960962D01*
X140153156Y-117009874D01*
X140159156Y-117055057D01*
X140160467Y-117096284D01*
X140157117Y-117133325D01*
X140149132Y-117165952D01*
X140136541Y-117193937D01*
X140119370Y-117217052D01*
X140097647Y-117235068D01*
X140087122Y-117241085D01*
X140076989Y-117245844D01*
X140065939Y-117250214D01*
X140053613Y-117254223D01*
X140039655Y-117257899D01*
X140023707Y-117261271D01*
X140005411Y-117264367D01*
X139984412Y-117267214D01*
X139960350Y-117269842D01*
X139932870Y-117272277D01*
X139901613Y-117274549D01*
X139866223Y-117276685D01*
X139826341Y-117278713D01*
X139781611Y-117280663D01*
X139731675Y-117282561D01*
X139676176Y-117284436D01*
X139614757Y-117286316D01*
X139547060Y-117288230D01*
X139472729Y-117290205D01*
X139458998Y-117290559D01*
X139336921Y-117293897D01*
X139221342Y-117297476D01*
X139111705Y-117301329D01*
X139007454Y-117305484D01*
X138908035Y-117309974D01*
X138812893Y-117314828D01*
X138721472Y-117320078D01*
X138633217Y-117325754D01*
X138547572Y-117331886D01*
X138463983Y-117338506D01*
X138381895Y-117345644D01*
X138300752Y-117353330D01*
X138273665Y-117356035D01*
X138144965Y-117369867D01*
X138020500Y-117384963D01*
X137899521Y-117401495D01*
X137781279Y-117419631D01*
X137665026Y-117439541D01*
X137550014Y-117461395D01*
X137435494Y-117485361D01*
X137320719Y-117511610D01*
X137204939Y-117540310D01*
X137087406Y-117571632D01*
X136967371Y-117605744D01*
X136844088Y-117642817D01*
X136716806Y-117683019D01*
X136584778Y-117726520D01*
X136479790Y-117762241D01*
X136429930Y-117779749D01*
X136382398Y-117797175D01*
X136336525Y-117814840D01*
X136291641Y-117833064D01*
X136247078Y-117852166D01*
X136202165Y-117872469D01*
X136156233Y-117894291D01*
X136108613Y-117917953D01*
X136058635Y-117943775D01*
X136005631Y-117972078D01*
X135948930Y-118003182D01*
X135887863Y-118037407D01*
X135821761Y-118075074D01*
X135800692Y-118087183D01*
X135742071Y-118120913D01*
X135689100Y-118151341D01*
X135641332Y-118178715D01*
X135598319Y-118203281D01*
X135559614Y-118225286D01*
X135524769Y-118244977D01*
X135493336Y-118262600D01*
X135464868Y-118278404D01*
X135438917Y-118292634D01*
X135415035Y-118305538D01*
X135392775Y-118317362D01*
X135371690Y-118328354D01*
X135351330Y-118338760D01*
X135331250Y-118348828D01*
X135311001Y-118358803D01*
X135290136Y-118368934D01*
X135288304Y-118369818D01*
X135220865Y-118401255D01*
X135157248Y-118428509D01*
X135096080Y-118451972D01*
X135035990Y-118472035D01*
X134975607Y-118489092D01*
X134913558Y-118503534D01*
X134848472Y-118515754D01*
X134778976Y-118526144D01*
X134714137Y-118533969D01*
X134673150Y-118537729D01*
X134627204Y-118540689D01*
X134578356Y-118542795D01*
X134528661Y-118543991D01*
X134480177Y-118544222D01*
X134434960Y-118543434D01*
X134405456Y-118542198D01*
X134325910Y-118535555D01*
X134245454Y-118524433D01*
X134165276Y-118509133D01*
X134086565Y-118489953D01*
X134010509Y-118467191D01*
X133938296Y-118441146D01*
X133871114Y-118412117D01*
X133853006Y-118403315D01*
X133772026Y-118359062D01*
X133692804Y-118308098D01*
X133615480Y-118250583D01*
X133540193Y-118186673D01*
X133467084Y-118116526D01*
X133396293Y-118040300D01*
X133327958Y-117958153D01*
X133262221Y-117870242D01*
X133199220Y-117776726D01*
X133139095Y-117677760D01*
X133081987Y-117573504D01*
X133036895Y-117482891D01*
X133018557Y-117442977D01*
X133000935Y-117401612D01*
X132983524Y-117357504D01*
X132965817Y-117309362D01*
X132947308Y-117255894D01*
X132942963Y-117242940D01*
X132935294Y-117219494D01*
X132927191Y-117193904D01*
X132919006Y-117167363D01*
X132911091Y-117141063D01*
X132903799Y-117116198D01*
X132897483Y-117093959D01*
X132892494Y-117075538D01*
X132889185Y-117062130D01*
X132888376Y-117058248D01*
X132886207Y-117046686D01*
X132681593Y-116964118D01*
X132645613Y-116949573D01*
X132611605Y-116935775D01*
X132580130Y-116922956D01*
X132551746Y-116911344D01*
X132527012Y-116901170D01*
X132506488Y-116892664D01*
X132490732Y-116886057D01*
X132480305Y-116881579D01*
X132475766Y-116879459D01*
X132475617Y-116879346D01*
X132477958Y-116876696D01*
X132485160Y-116869740D01*
X132496810Y-116858853D01*
X132512493Y-116844414D01*
X132531795Y-116826798D01*
X132554302Y-116806384D01*
X132579599Y-116783549D01*
X132607272Y-116758669D01*
X132636907Y-116732122D01*
X132662284Y-116709459D01*
X132698300Y-116677330D01*
X132729414Y-116649536D01*
X132755996Y-116625723D01*
X132778413Y-116605538D01*
X132797036Y-116588625D01*
X132812233Y-116574632D01*
X132824374Y-116563203D01*
X132833828Y-116553984D01*
X132840963Y-116546621D01*
X132846150Y-116540761D01*
X132849757Y-116536048D01*
X132852154Y-116532129D01*
X132853710Y-116528649D01*
X132854793Y-116525255D01*
X132854977Y-116524587D01*
X132861386Y-116504038D01*
X132870488Y-116479088D01*
X132881558Y-116451506D01*
X132893872Y-116423065D01*
X132906703Y-116395533D01*
X132913298Y-116382244D01*
X132945747Y-116324035D01*
X132982975Y-116267910D01*
X133025664Y-116212939D01*
X133074497Y-116158192D01*
X133087640Y-116144539D01*
X133143149Y-116091000D01*
X133200429Y-116042517D01*
X133260683Y-115998221D01*
X133325115Y-115957247D01*
X133394929Y-115918727D01*
X133415915Y-115908110D01*
X133483969Y-115876238D01*
X133551983Y-115848403D01*
X133621185Y-115824231D01*
X133692805Y-115803349D01*
X133768070Y-115785382D01*
X133848210Y-115769958D01*
X133894678Y-115762442D01*
X133914514Y-115759522D01*
X133931842Y-115757256D01*
X133948059Y-115755560D01*
X133964560Y-115754349D01*
X133982740Y-115753538D01*
X134003996Y-115753045D01*
X134029722Y-115752784D01*
X134056206Y-115752681D01*
X134093421Y-115752759D01*
X134093421Y-115752759D01*
G37*
X134093421Y-115752759D02*
X134125092Y-115753262D01*
X134152723Y-115754311D01*
X134177822Y-115756030D01*
X134201891Y-115758541D01*
X134226437Y-115761966D01*
X134252965Y-115766430D01*
X134274929Y-115770505D01*
X134333784Y-115783268D01*
X134394881Y-115799335D01*
X134455334Y-115817872D01*
X134512258Y-115838044D01*
X134523637Y-115842467D01*
X134566815Y-115859660D01*
X134609190Y-115876798D01*
X134651148Y-115894060D01*
X134693078Y-115911627D01*
X134735367Y-115929679D01*
X134778402Y-115948397D01*
X134822571Y-115967961D01*
X134868263Y-115988552D01*
X134915864Y-116010349D01*
X134965762Y-116033534D01*
X135018345Y-116058287D01*
X135074001Y-116084789D01*
X135133116Y-116113218D01*
X135196080Y-116143757D01*
X135263278Y-116176586D01*
X135335100Y-116211884D01*
X135411933Y-116249833D01*
X135494164Y-116290613D01*
X135582181Y-116334404D01*
X135604901Y-116345727D01*
X135683181Y-116384671D01*
X135755700Y-116420570D01*
X135822947Y-116453651D01*
X135885413Y-116484138D01*
X135943587Y-116512257D01*
X135997960Y-116538235D01*
X136049022Y-116562296D01*
X136097263Y-116584668D01*
X136143173Y-116605575D01*
X136187242Y-116625243D01*
X136229960Y-116643898D01*
X136271817Y-116661766D01*
X136313304Y-116679072D01*
X136354910Y-116696043D01*
X136397126Y-116712903D01*
X136430401Y-116725971D01*
X136453924Y-116735208D01*
X136475317Y-116743727D01*
X136493686Y-116751163D01*
X136508141Y-116757150D01*
X136517789Y-116761325D01*
X136521730Y-116763314D01*
X136521197Y-116767409D01*
X136515985Y-116775427D01*
X136506737Y-116786658D01*
X136494098Y-116800394D01*
X136478710Y-116815926D01*
X136461217Y-116832545D01*
X136448176Y-116844347D01*
X136380197Y-116900448D01*
X136305762Y-116953943D01*
X136224992Y-117004776D01*
X136138009Y-117052890D01*
X136044936Y-117098228D01*
X135945895Y-117140733D01*
X135841007Y-117180348D01*
X135730396Y-117217017D01*
X135614183Y-117250682D01*
X135527290Y-117272986D01*
X135426695Y-117296228D01*
X135331707Y-117315557D01*
X135242079Y-117330993D01*
X135157559Y-117342558D01*
X135077899Y-117350270D01*
X135002849Y-117354152D01*
X134932161Y-117354225D01*
X134865585Y-117350508D01*
X134802872Y-117343022D01*
X134765080Y-117336350D01*
X134704448Y-117321438D01*
X134649092Y-117302057D01*
X134599084Y-117278280D01*
X134554497Y-117250181D01*
X134515402Y-117217832D01*
X134481871Y-117181307D01*
X134453977Y-117140678D01*
X134431793Y-117096019D01*
X134415390Y-117047403D01*
X134404840Y-116994904D01*
X134401901Y-116968630D01*
X134401083Y-116957523D01*
X134400147Y-116949388D01*
X134398109Y-116943684D01*
X134393989Y-116939868D01*
X134386804Y-116937400D01*
X134375573Y-116935736D01*
X134359313Y-116934336D01*
X134337043Y-116932657D01*
X134336665Y-116932627D01*
X134309113Y-116930400D01*
X134287942Y-116928506D01*
X134272489Y-116926856D01*
X134262092Y-116925363D01*
X134256088Y-116923939D01*
X134253815Y-116922497D01*
X134253916Y-116921664D01*
X134251971Y-116920355D01*
X134245137Y-116920130D01*
X134235466Y-116920804D01*
X134225008Y-116922187D01*
X134215815Y-116924093D01*
X134211429Y-116925549D01*
X134205921Y-116927066D01*
X134194614Y-116929526D01*
X134178667Y-116932698D01*
X134159239Y-116936355D01*
X134137487Y-116940268D01*
X134132054Y-116941219D01*
X134050568Y-116954726D01*
X133973152Y-116966099D01*
X133897264Y-116975677D01*
X133820365Y-116983799D01*
X133796915Y-116985984D01*
X133774485Y-116987578D01*
X133747279Y-116988811D01*
X133716650Y-116989683D01*
X133683949Y-116990194D01*
X133650527Y-116990342D01*
X133617736Y-116990128D01*
X133586928Y-116989551D01*
X133559453Y-116988610D01*
X133536664Y-116987305D01*
X133523512Y-116986092D01*
X133450684Y-116976437D01*
X133379827Y-116964550D01*
X133309066Y-116950039D01*
X133236525Y-116932512D01*
X133160329Y-116911580D01*
X133144855Y-116907058D01*
X133122241Y-116900265D01*
X133105575Y-116894912D01*
X133093980Y-116890649D01*
X133086576Y-116887128D01*
X133082488Y-116883999D01*
X133081055Y-116881658D01*
X133080089Y-116876545D01*
X133078507Y-116865251D01*
X133076408Y-116848615D01*
X133073893Y-116827473D01*
X133071061Y-116802665D01*
X133068011Y-116775028D01*
X133064916Y-116746082D01*
X133061319Y-116712089D01*
X133058433Y-116684447D01*
X133056310Y-116662481D01*
X133054999Y-116645520D01*
X133054551Y-116632888D01*
X133055016Y-116623913D01*
X133056445Y-116617920D01*
X133058888Y-116614237D01*
X133062395Y-116612189D01*
X133067016Y-116611103D01*
X133072803Y-116610305D01*
X133075089Y-116609973D01*
X133086335Y-116607944D01*
X133103387Y-116604487D01*
X133125191Y-116599841D01*
X133150698Y-116594245D01*
X133178856Y-116587939D01*
X133208613Y-116581161D01*
X133238919Y-116574151D01*
X133268723Y-116567147D01*
X133296973Y-116560390D01*
X133322618Y-116554117D01*
X133341831Y-116549283D01*
X133444460Y-116521924D01*
X133540451Y-116494087D01*
X133630211Y-116465635D01*
X133714151Y-116436432D01*
X133792678Y-116406340D01*
X133866201Y-116375224D01*
X133878054Y-116369903D01*
X133948728Y-116335450D01*
X134020698Y-116295712D01*
X134092244Y-116251782D01*
X134161646Y-116204756D01*
X134227188Y-116155727D01*
X134271401Y-116119476D01*
X134289063Y-116104113D01*
X134307396Y-116087702D01*
X134325682Y-116070934D01*
X134343204Y-116054500D01*
X134359247Y-116039091D01*
X134373093Y-116025399D01*
X134384025Y-116014114D01*
X134391327Y-116005928D01*
X134394281Y-116001531D01*
X134394217Y-116001058D01*
X134388112Y-115997809D01*
X134376135Y-115993487D01*
X134359345Y-115988353D01*
X134338799Y-115982670D01*
X134315554Y-115976701D01*
X134290668Y-115970709D01*
X134265197Y-115964955D01*
X134240199Y-115959703D01*
X134216730Y-115955216D01*
X134195850Y-115951755D01*
X134195554Y-115951711D01*
X134140511Y-115945167D01*
X134086177Y-115942113D01*
X134031037Y-115942583D01*
X133973579Y-115946613D01*
X133912287Y-115954238D01*
X133882459Y-115958951D01*
X133789202Y-115977540D01*
X133699769Y-116001397D01*
X133614375Y-116030415D01*
X133533232Y-116064487D01*
X133456555Y-116103508D01*
X133384556Y-116147371D01*
X133317449Y-116195970D01*
X133255447Y-116249199D01*
X133211947Y-116292605D01*
X133169572Y-116341246D01*
X133131534Y-116392023D01*
X133098491Y-116443920D01*
X133071103Y-116495920D01*
X133053654Y-116537045D01*
X133048678Y-116549459D01*
X133044054Y-116559627D01*
X133040787Y-116565342D01*
X133037530Y-116568648D01*
X133029629Y-116576360D01*
X133017559Y-116588024D01*
X133001791Y-116603186D01*
X132982799Y-116621394D01*
X132961055Y-116642194D01*
X132937032Y-116665132D01*
X132911203Y-116689755D01*
X132892040Y-116707999D01*
X132865339Y-116733427D01*
X132840206Y-116757402D01*
X132817102Y-116779484D01*
X132796484Y-116799230D01*
X132778811Y-116816203D01*
X132764543Y-116829960D01*
X132754137Y-116840061D01*
X132748053Y-116846066D01*
X132746605Y-116847612D01*
X132749570Y-116849389D01*
X132758382Y-116853742D01*
X132772434Y-116860391D01*
X132791121Y-116869058D01*
X132813834Y-116879463D01*
X132839970Y-116891327D01*
X132868921Y-116904373D01*
X132900081Y-116918320D01*
X132907466Y-116921613D01*
X133069124Y-116993632D01*
X133085979Y-117053904D01*
X133094092Y-117081889D01*
X133103939Y-117114224D01*
X133114914Y-117149037D01*
X133126409Y-117184452D01*
X133137815Y-117218597D01*
X133148525Y-117249597D01*
X133157509Y-117274447D01*
X133162957Y-117288133D01*
X133167477Y-117296607D01*
X133172134Y-117301423D01*
X133177828Y-117304082D01*
X133185130Y-117305248D01*
X133198451Y-117306186D01*
X133216758Y-117306899D01*
X133239018Y-117307387D01*
X133264199Y-117307655D01*
X133291267Y-117307703D01*
X133319190Y-117307535D01*
X133346935Y-117307151D01*
X133373470Y-117306556D01*
X133397761Y-117305750D01*
X133418775Y-117304736D01*
X133435317Y-117303531D01*
X133598259Y-117285902D01*
X133698137Y-117272528D01*
X133740857Y-117266090D01*
X133777676Y-117259790D01*
X133809732Y-117253314D01*
X133838165Y-117246351D01*
X133864114Y-117238589D01*
X133888719Y-117229715D01*
X133913120Y-117219417D01*
X133938455Y-117207384D01*
X133941554Y-117205837D01*
X133997113Y-117174503D01*
X134051662Y-117136901D01*
X134104231Y-117093818D01*
X134153850Y-117046043D01*
X134194312Y-117000732D01*
X134212345Y-116979009D01*
X134214746Y-117004259D01*
X134221773Y-117051681D01*
X134233679Y-117100858D01*
X134249800Y-117149914D01*
X134269475Y-117196972D01*
X134292040Y-117240153D01*
X134305717Y-117261979D01*
X134343338Y-117311696D01*
X134386139Y-117356693D01*
X134434035Y-117396941D01*
X134486935Y-117432413D01*
X134544755Y-117463079D01*
X134607404Y-117488913D01*
X134674797Y-117509887D01*
X134746846Y-117525972D01*
X134823463Y-117537141D01*
X134904560Y-117543366D01*
X134990051Y-117544619D01*
X135079846Y-117540872D01*
X135158637Y-117533829D01*
X135231780Y-117524512D01*
X135309873Y-117512199D01*
X135391619Y-117497171D01*
X135475722Y-117479714D01*
X135560885Y-117460108D01*
X135645811Y-117438639D01*
X135729203Y-117415589D01*
X135805984Y-117392435D01*
X135903458Y-117359802D01*
X135997784Y-117324360D01*
X136088611Y-117286319D01*
X136175590Y-117245893D01*
X136258370Y-117203290D01*
X136336602Y-117158724D01*
X136409935Y-117112404D01*
X136478019Y-117064543D01*
X136540504Y-117015351D01*
X136597039Y-116965040D01*
X136647276Y-116913821D01*
X136690863Y-116861905D01*
X136695514Y-116855793D01*
X136705130Y-116843366D01*
X136711890Y-116835794D01*
X136716927Y-116832112D01*
X136721375Y-116831354D01*
X136723724Y-116831769D01*
X136743161Y-116836078D01*
X136768238Y-116840760D01*
X136797566Y-116845612D01*
X136829755Y-116850427D01*
X136863413Y-116855003D01*
X136897150Y-116859133D01*
X136929576Y-116862613D01*
X136940165Y-116863622D01*
X136971903Y-116866152D01*
X137003886Y-116867874D01*
X137036789Y-116868757D01*
X137071288Y-116868770D01*
X137108058Y-116867884D01*
X137147773Y-116866067D01*
X137191111Y-116863289D01*
X137238744Y-116859519D01*
X137291350Y-116854727D01*
X137349603Y-116848882D01*
X137411123Y-116842290D01*
X137500163Y-116831927D01*
X137595637Y-116819708D01*
X137697191Y-116805697D01*
X137804467Y-116789959D01*
X137917113Y-116772558D01*
X138034772Y-116753557D01*
X138157089Y-116733022D01*
X138283710Y-116711016D01*
X138414278Y-116687604D01*
X138548439Y-116662850D01*
X138685838Y-116636818D01*
X138826119Y-116609572D01*
X138968928Y-116581176D01*
X139113909Y-116551696D01*
X139260707Y-116521195D01*
X139408967Y-116489736D01*
X139558333Y-116457386D01*
X139645970Y-116438098D01*
X139690464Y-116428244D01*
X139728682Y-116419957D01*
X139761256Y-116413370D01*
X139788821Y-116408618D01*
X139812009Y-116405836D01*
X139831453Y-116405158D01*
X139847786Y-116406718D01*
X139861640Y-116410652D01*
X139873650Y-116417094D01*
X139884447Y-116426178D01*
X139894665Y-116438038D01*
X139904936Y-116452810D01*
X139915894Y-116470628D01*
X139928172Y-116491626D01*
X139932451Y-116498985D01*
X139969720Y-116564762D01*
X140004652Y-116630012D01*
X140036853Y-116693904D01*
X140065927Y-116755605D01*
X140091479Y-116814284D01*
X140113115Y-116869109D01*
X140126980Y-116908549D01*
X140142440Y-116960962D01*
X140153156Y-117009874D01*
X140159156Y-117055057D01*
X140160467Y-117096284D01*
X140157117Y-117133325D01*
X140149132Y-117165952D01*
X140136541Y-117193937D01*
X140119370Y-117217052D01*
X140097647Y-117235068D01*
X140087122Y-117241085D01*
X140076989Y-117245844D01*
X140065939Y-117250214D01*
X140053613Y-117254223D01*
X140039655Y-117257899D01*
X140023707Y-117261271D01*
X140005411Y-117264367D01*
X139984412Y-117267214D01*
X139960350Y-117269842D01*
X139932870Y-117272277D01*
X139901613Y-117274549D01*
X139866223Y-117276685D01*
X139826341Y-117278713D01*
X139781611Y-117280663D01*
X139731675Y-117282561D01*
X139676176Y-117284436D01*
X139614757Y-117286316D01*
X139547060Y-117288230D01*
X139472729Y-117290205D01*
X139458998Y-117290559D01*
X139336921Y-117293897D01*
X139221342Y-117297476D01*
X139111705Y-117301329D01*
X139007454Y-117305484D01*
X138908035Y-117309974D01*
X138812893Y-117314828D01*
X138721472Y-117320078D01*
X138633217Y-117325754D01*
X138547572Y-117331886D01*
X138463983Y-117338506D01*
X138381895Y-117345644D01*
X138300752Y-117353330D01*
X138273665Y-117356035D01*
X138144965Y-117369867D01*
X138020500Y-117384963D01*
X137899521Y-117401495D01*
X137781279Y-117419631D01*
X137665026Y-117439541D01*
X137550014Y-117461395D01*
X137435494Y-117485361D01*
X137320719Y-117511610D01*
X137204939Y-117540310D01*
X137087406Y-117571632D01*
X136967371Y-117605744D01*
X136844088Y-117642817D01*
X136716806Y-117683019D01*
X136584778Y-117726520D01*
X136479790Y-117762241D01*
X136429930Y-117779749D01*
X136382398Y-117797175D01*
X136336525Y-117814840D01*
X136291641Y-117833064D01*
X136247078Y-117852166D01*
X136202165Y-117872469D01*
X136156233Y-117894291D01*
X136108613Y-117917953D01*
X136058635Y-117943775D01*
X136005631Y-117972078D01*
X135948930Y-118003182D01*
X135887863Y-118037407D01*
X135821761Y-118075074D01*
X135800692Y-118087183D01*
X135742071Y-118120913D01*
X135689100Y-118151341D01*
X135641332Y-118178715D01*
X135598319Y-118203281D01*
X135559614Y-118225286D01*
X135524769Y-118244977D01*
X135493336Y-118262600D01*
X135464868Y-118278404D01*
X135438917Y-118292634D01*
X135415035Y-118305538D01*
X135392775Y-118317362D01*
X135371690Y-118328354D01*
X135351330Y-118338760D01*
X135331250Y-118348828D01*
X135311001Y-118358803D01*
X135290136Y-118368934D01*
X135288304Y-118369818D01*
X135220865Y-118401255D01*
X135157248Y-118428509D01*
X135096080Y-118451972D01*
X135035990Y-118472035D01*
X134975607Y-118489092D01*
X134913558Y-118503534D01*
X134848472Y-118515754D01*
X134778976Y-118526144D01*
X134714137Y-118533969D01*
X134673150Y-118537729D01*
X134627204Y-118540689D01*
X134578356Y-118542795D01*
X134528661Y-118543991D01*
X134480177Y-118544222D01*
X134434960Y-118543434D01*
X134405456Y-118542198D01*
X134325910Y-118535555D01*
X134245454Y-118524433D01*
X134165276Y-118509133D01*
X134086565Y-118489953D01*
X134010509Y-118467191D01*
X133938296Y-118441146D01*
X133871114Y-118412117D01*
X133853006Y-118403315D01*
X133772026Y-118359062D01*
X133692804Y-118308098D01*
X133615480Y-118250583D01*
X133540193Y-118186673D01*
X133467084Y-118116526D01*
X133396293Y-118040300D01*
X133327958Y-117958153D01*
X133262221Y-117870242D01*
X133199220Y-117776726D01*
X133139095Y-117677760D01*
X133081987Y-117573504D01*
X133036895Y-117482891D01*
X133018557Y-117442977D01*
X133000935Y-117401612D01*
X132983524Y-117357504D01*
X132965817Y-117309362D01*
X132947308Y-117255894D01*
X132942963Y-117242940D01*
X132935294Y-117219494D01*
X132927191Y-117193904D01*
X132919006Y-117167363D01*
X132911091Y-117141063D01*
X132903799Y-117116198D01*
X132897483Y-117093959D01*
X132892494Y-117075538D01*
X132889185Y-117062130D01*
X132888376Y-117058248D01*
X132886207Y-117046686D01*
X132681593Y-116964118D01*
X132645613Y-116949573D01*
X132611605Y-116935775D01*
X132580130Y-116922956D01*
X132551746Y-116911344D01*
X132527012Y-116901170D01*
X132506488Y-116892664D01*
X132490732Y-116886057D01*
X132480305Y-116881579D01*
X132475766Y-116879459D01*
X132475617Y-116879346D01*
X132477958Y-116876696D01*
X132485160Y-116869740D01*
X132496810Y-116858853D01*
X132512493Y-116844414D01*
X132531795Y-116826798D01*
X132554302Y-116806384D01*
X132579599Y-116783549D01*
X132607272Y-116758669D01*
X132636907Y-116732122D01*
X132662284Y-116709459D01*
X132698300Y-116677330D01*
X132729414Y-116649536D01*
X132755996Y-116625723D01*
X132778413Y-116605538D01*
X132797036Y-116588625D01*
X132812233Y-116574632D01*
X132824374Y-116563203D01*
X132833828Y-116553984D01*
X132840963Y-116546621D01*
X132846150Y-116540761D01*
X132849757Y-116536048D01*
X132852154Y-116532129D01*
X132853710Y-116528649D01*
X132854793Y-116525255D01*
X132854977Y-116524587D01*
X132861386Y-116504038D01*
X132870488Y-116479088D01*
X132881558Y-116451506D01*
X132893872Y-116423065D01*
X132906703Y-116395533D01*
X132913298Y-116382244D01*
X132945747Y-116324035D01*
X132982975Y-116267910D01*
X133025664Y-116212939D01*
X133074497Y-116158192D01*
X133087640Y-116144539D01*
X133143149Y-116091000D01*
X133200429Y-116042517D01*
X133260683Y-115998221D01*
X133325115Y-115957247D01*
X133394929Y-115918727D01*
X133415915Y-115908110D01*
X133483969Y-115876238D01*
X133551983Y-115848403D01*
X133621185Y-115824231D01*
X133692805Y-115803349D01*
X133768070Y-115785382D01*
X133848210Y-115769958D01*
X133894678Y-115762442D01*
X133914514Y-115759522D01*
X133931842Y-115757256D01*
X133948059Y-115755560D01*
X133964560Y-115754349D01*
X133982740Y-115753538D01*
X134003996Y-115753045D01*
X134029722Y-115752784D01*
X134056206Y-115752681D01*
X134093421Y-115752759D01*
D12*
X135010000Y-94490000D03*
X160940000Y-121520000D03*
D13*
X131570000Y-112820000D03*
D14*
X131570000Y-110280000D03*
D13*
X131570000Y-107740000D03*
D14*
X131570000Y-105200000D03*
D13*
X131570000Y-102660000D03*
X134550000Y-103700000D03*
D14*
X134550000Y-106240000D03*
D13*
X134550000Y-108780000D03*
D14*
X134550000Y-111320000D03*
D15*
X158461920Y-94250000D03*
X158461920Y-93599760D03*
X158461920Y-92949520D03*
X155800000Y-92949520D03*
X155800000Y-93599760D03*
X155800000Y-94250000D03*
X164300000Y-98250000D03*
X164300000Y-97599760D03*
X164300000Y-96949520D03*
X161638080Y-96949520D03*
X161638080Y-97599760D03*
X161638080Y-98250000D03*
X158611920Y-96700000D03*
X158611920Y-96049760D03*
X158611920Y-95399520D03*
X155950000Y-95399520D03*
X155950000Y-96049760D03*
X155950000Y-96700000D03*
D16*
X152250000Y-105850000D03*
X152250000Y-109850000D03*
D17*
X157800000Y-123500700D03*
X157800000Y-124999300D03*
D18*
X156050000Y-124750000D03*
X156050000Y-122550000D03*
D19*
X147350000Y-113890000D03*
D20*
X144810000Y-113890000D03*
X142270000Y-113890000D03*
X139730000Y-113890000D03*
X137190000Y-113890000D03*
X134650000Y-113890000D03*
D19*
X147400000Y-101200000D03*
D20*
X144860000Y-101200000D03*
X142320000Y-101200000D03*
X139780000Y-101200000D03*
X137240000Y-101200000D03*
D19*
X134700000Y-101200000D03*
D21*
X147400000Y-109140000D03*
D22*
X147400000Y-106600000D03*
D23*
X161190000Y-100200000D03*
X161190000Y-100600000D03*
X161190000Y-101000000D03*
X161190000Y-101400000D03*
X161190000Y-101800000D03*
X161190000Y-102200000D03*
X161190000Y-102600000D03*
X161190000Y-103000000D03*
X161190000Y-103400000D03*
X161190000Y-103800000D03*
X161190000Y-107800000D03*
X161190000Y-107400000D03*
X161190000Y-107000000D03*
X161190000Y-106600000D03*
X161190000Y-106200000D03*
X161190000Y-105800000D03*
X161190000Y-105400000D03*
X161190000Y-105000000D03*
X161190000Y-104600000D03*
X161190000Y-104200000D03*
X161190000Y-108200000D03*
X161190000Y-108600000D03*
X161190000Y-109000000D03*
X161190000Y-109400000D03*
X161190000Y-109800000D03*
X161190000Y-110200000D03*
X161190000Y-110600000D03*
X161190000Y-111000000D03*
X161190000Y-111400000D03*
X161190000Y-111800000D03*
X161190000Y-115800000D03*
X161190000Y-115400000D03*
X161190000Y-115000000D03*
X161190000Y-114600000D03*
X161190000Y-114200000D03*
X161190000Y-113800000D03*
X161190000Y-113400000D03*
X161190000Y-113000000D03*
X161190000Y-112600000D03*
X161190000Y-112200000D03*
X158110000Y-112200000D03*
X158110000Y-112600000D03*
X158110000Y-113000000D03*
X158110000Y-113400000D03*
X158110000Y-113800000D03*
X158110000Y-114200000D03*
X158110000Y-114600000D03*
X158110000Y-115000000D03*
X158110000Y-115400000D03*
X158110000Y-115800000D03*
X158110000Y-111800000D03*
X158110000Y-111400000D03*
X158110000Y-111000000D03*
X158110000Y-110600000D03*
X158110000Y-110200000D03*
X158110000Y-109800000D03*
X158110000Y-109400000D03*
X158110000Y-109000000D03*
X158110000Y-108600000D03*
X158110000Y-108200000D03*
X158110000Y-104200000D03*
X158110000Y-104600000D03*
X158110000Y-105000000D03*
X158110000Y-105400000D03*
X158110000Y-105800000D03*
X158110000Y-106200000D03*
X158110000Y-106600000D03*
X158110000Y-107000000D03*
X158110000Y-107400000D03*
X158110000Y-107800000D03*
X158110000Y-103800000D03*
X158110000Y-103400000D03*
X158110000Y-103000000D03*
X158110000Y-102600000D03*
X158110000Y-102200000D03*
X158110000Y-101800000D03*
X158110000Y-101400000D03*
X158110000Y-101000000D03*
X158110000Y-100600000D03*
X158110000Y-100200000D03*
D19*
X150745000Y-124450000D03*
D20*
X148205000Y-124450000D03*
X145665000Y-124450000D03*
X143125000Y-124450000D03*
X140585000Y-124450000D03*
X138045000Y-124450000D03*
D24*
X151960760Y-118940000D03*
X151960760Y-117040000D03*
X149961780Y-117990000D03*
D25*
X145660000Y-117140000D03*
X147860000Y-117140000D03*
D18*
X153470000Y-118810000D03*
X153470000Y-121010000D03*
D25*
X152510000Y-103600000D03*
X150310000Y-103600000D03*
D26*
X148790000Y-120190000D03*
X147390000Y-120190000D03*
D12*
X135450000Y-122570000D03*
D27*
X162950000Y-97849974D03*
X162500000Y-95300000D03*
X150310000Y-102440000D03*
X130810000Y-117740000D03*
X133000000Y-104600000D03*
X150050000Y-110150000D03*
X150050000Y-109150000D03*
X154600000Y-121350000D03*
D28*
X163335170Y-106128721D03*
X162579214Y-106491109D03*
X162993938Y-107218712D03*
X162237982Y-107581100D03*
X162237982Y-108419301D03*
X162993938Y-108781689D03*
X162579214Y-109509292D03*
X163335170Y-109871680D03*
D27*
X164264956Y-95352566D03*
X160500000Y-95450000D03*
X157300000Y-95000000D03*
X159100000Y-98150000D03*
X159950000Y-93400000D03*
X154500000Y-92950000D03*
X153600000Y-93750000D03*
X160729126Y-94320874D03*
X150990000Y-116340000D03*
X152901020Y-117484935D03*
X155400000Y-119180000D03*
X161000000Y-117010000D03*
D28*
X161045015Y-99054899D03*
X158255617Y-99054899D03*
X158255617Y-99054899D03*
X162035617Y-116147324D03*
X162511810Y-116834445D03*
X163166374Y-116308281D03*
X163642567Y-116995401D03*
X164626605Y-116049236D03*
X165041329Y-115321633D03*
X164285373Y-114959245D03*
X164700097Y-114231642D03*
X163944142Y-113869254D03*
X164358866Y-113141651D03*
X163602910Y-112779264D03*
X164017634Y-112051661D03*
X163261678Y-111689273D03*
X163676402Y-110961670D03*
X162920446Y-110599282D03*
X162920446Y-105401118D03*
X163676402Y-105038731D03*
X163261678Y-104311128D03*
X164017634Y-103948740D03*
X163602910Y-103221137D03*
X164358866Y-102858749D03*
X163944142Y-102131146D03*
X164700097Y-101768759D03*
X164285373Y-101041156D03*
X165041329Y-100678768D03*
X164626605Y-99951165D03*
X163642567Y-99005000D03*
X163166374Y-99692120D03*
X162511810Y-99165956D03*
X162035617Y-99853076D03*
X157265015Y-99853076D03*
X156788823Y-99165956D03*
X156134258Y-99692120D03*
X155658066Y-99005000D03*
X154674027Y-99951165D03*
X154259303Y-100678768D03*
X155015259Y-101041156D03*
X154600535Y-101768759D03*
X155356491Y-102131146D03*
X154941767Y-102858749D03*
X155697723Y-103221137D03*
X155965462Y-106128721D03*
X156721418Y-106491109D03*
X156380187Y-110599282D03*
X155624231Y-110961670D03*
X156038955Y-111689273D03*
X155282999Y-112051661D03*
X155697723Y-112779264D03*
X154941767Y-113141651D03*
X155356491Y-113869254D03*
X154600535Y-114231642D03*
X155015259Y-114959245D03*
X154259303Y-115321633D03*
X154674027Y-116049236D03*
X156200000Y-117750000D03*
X156563479Y-116981984D03*
D27*
X157186858Y-118048495D03*
X144460000Y-120750000D03*
X145350000Y-118375000D03*
X154960000Y-109130000D03*
X152940000Y-116650000D03*
X153420000Y-115350000D03*
X154325068Y-92130246D03*
X160303087Y-96914049D03*
X157300000Y-97100000D03*
X156750000Y-92200000D03*
X154650000Y-94900000D03*
D28*
X156380187Y-105401118D03*
D27*
X150640000Y-119100000D03*
X153080000Y-114180000D03*
D28*
X156306694Y-107218712D03*
X157062650Y-107581100D03*
X157062650Y-108419301D03*
X156306694Y-108781689D03*
X156721418Y-109509292D03*
X155965462Y-109871680D03*
D29*
X162950000Y-97849974D02*
X162950000Y-96450000D01*
X162950000Y-96450000D02*
X162850000Y-96350000D01*
X162950000Y-97849974D02*
X163350266Y-98250240D01*
X163350266Y-98250240D02*
X163350506Y-98250000D01*
X163350506Y-98250000D02*
X164300000Y-98250000D01*
X162850000Y-96350000D02*
X162550000Y-96050000D01*
X158461920Y-94250000D02*
X158461920Y-95249520D01*
X158461920Y-95249520D02*
X158611920Y-95399520D01*
X159353696Y-95399520D02*
X159975678Y-96021502D01*
X158611920Y-95399520D02*
X159353696Y-95399520D01*
X160771502Y-96021502D02*
X160528498Y-96021502D01*
X162550000Y-96050000D02*
X160800000Y-96050000D01*
X160800000Y-96050000D02*
X160771502Y-96021502D01*
X160528498Y-96021502D02*
X159914476Y-96021502D01*
X159235978Y-96700000D02*
X158611920Y-96700000D01*
X159975678Y-96021502D02*
X160528498Y-96021502D01*
X159914476Y-96021502D02*
X159235978Y-96700000D01*
X162500000Y-96000000D02*
X162500000Y-95784933D01*
X162550000Y-96050000D02*
X162500000Y-96000000D01*
X162500000Y-95784933D02*
X162500000Y-95300000D01*
X158611920Y-94261920D02*
X158600000Y-94250000D01*
X150310000Y-103600000D02*
X150310000Y-102440000D01*
D30*
X133280000Y-113470000D02*
X130810000Y-115940000D01*
X130810000Y-115940000D02*
X130810000Y-117740000D01*
X134550000Y-111320000D02*
X134397600Y-111320000D01*
X134397600Y-111320000D02*
X133280000Y-112437600D01*
X133280000Y-112437600D02*
X133280000Y-113470000D01*
X134530000Y-106220000D02*
X134550000Y-106240000D01*
X133000000Y-104600000D02*
X133000000Y-104690000D01*
X133000000Y-104690000D02*
X134550000Y-106240000D01*
X133000000Y-104600000D02*
X133000000Y-104720000D01*
X134530000Y-111300000D02*
X134550000Y-111320000D01*
X150050000Y-110150000D02*
X151950000Y-110150000D01*
X151950000Y-110150000D02*
X152250000Y-109850000D01*
X150050000Y-109150000D02*
X151550000Y-109150000D01*
X151550000Y-109150000D02*
X152250000Y-109850000D01*
X147400000Y-109140000D02*
X149040000Y-109140000D01*
X149040000Y-109140000D02*
X150050000Y-110150000D01*
X147400000Y-109140000D02*
X150040000Y-109140000D01*
X150040000Y-109140000D02*
X150050000Y-109150000D01*
X156050000Y-122550000D02*
X155800000Y-122550000D01*
X155800000Y-122550000D02*
X154600000Y-121350000D01*
D29*
X161190316Y-106624000D02*
X161540316Y-106624000D01*
X161540316Y-106624000D02*
X162460992Y-105841578D01*
X162460992Y-105841578D02*
X162749830Y-105946114D01*
X162749830Y-105946114D02*
X163335170Y-106128721D01*
X161190316Y-107024000D02*
X161540316Y-107024000D01*
X161540316Y-107024000D02*
X162406505Y-106287883D01*
X162406505Y-106287883D02*
X162579214Y-106491109D01*
X161190316Y-107424000D02*
X161540316Y-107424000D01*
X161540316Y-107424000D02*
X162119760Y-106931569D01*
X162119760Y-106931569D02*
X162408598Y-107036104D01*
X162408598Y-107036104D02*
X162993938Y-107218712D01*
X161190316Y-107824000D02*
X161540316Y-107824000D01*
X161540316Y-107824000D02*
X162065274Y-107377873D01*
X162065274Y-107377873D02*
X162237982Y-107581100D01*
X161190316Y-108176401D02*
X161540316Y-108176401D01*
X161540316Y-108176401D02*
X162065274Y-108622527D01*
X162065274Y-108622527D02*
X162237982Y-108419301D01*
X161190316Y-108576401D02*
X161540316Y-108576401D01*
X161540316Y-108576401D02*
X162119760Y-109068832D01*
X162119760Y-109068832D02*
X162408598Y-108964297D01*
X162408598Y-108964297D02*
X162993938Y-108781689D01*
X161190316Y-108976401D02*
X161540316Y-108976401D01*
X161540316Y-108976401D02*
X162406505Y-109712518D01*
X162406505Y-109712518D02*
X162579214Y-109509292D01*
X161190316Y-109376401D02*
X161540316Y-109376401D01*
X161540316Y-109376401D02*
X162460992Y-110158823D01*
X162460992Y-110158823D02*
X162749830Y-110054287D01*
X162749830Y-110054287D02*
X163335170Y-109871680D01*
X165202970Y-96290580D02*
X164607855Y-95695465D01*
X163412390Y-94500000D02*
X163922057Y-95009667D01*
X164851180Y-96949520D02*
X165202970Y-96597730D01*
X164300000Y-96949520D02*
X164851180Y-96949520D01*
X160500000Y-95450000D02*
X161450000Y-94500000D01*
X163922057Y-95009667D02*
X164264956Y-95352566D01*
X165202970Y-96597730D02*
X165202970Y-96290580D01*
X161450000Y-94500000D02*
X163412390Y-94500000D01*
X164607855Y-95695465D02*
X164264956Y-95352566D01*
X164300000Y-97599760D02*
X164300000Y-96949520D01*
X160500000Y-95450000D02*
X160500000Y-94965067D01*
X160500000Y-94965067D02*
X159134693Y-93599760D01*
X159134693Y-93599760D02*
X158461920Y-93599760D01*
X157300000Y-93996790D02*
X157300000Y-94515067D01*
X157300000Y-94515067D02*
X157300000Y-95000000D01*
X158611920Y-96049760D02*
X157708950Y-96049760D01*
X157708950Y-96049760D02*
X157300000Y-95640810D01*
X157300000Y-95640810D02*
X157300000Y-95000000D01*
X159502970Y-92949520D02*
X158461920Y-92949520D01*
X158265067Y-97800000D02*
X156698210Y-97800000D01*
X155950000Y-97051790D02*
X155950000Y-96700000D01*
X156698210Y-97800000D02*
X155950000Y-97051790D01*
X159100000Y-98150000D02*
X158615067Y-98150000D01*
X158615067Y-98150000D02*
X158265067Y-97800000D01*
X159950000Y-93396550D02*
X159950000Y-93400000D01*
X159502970Y-92949520D02*
X159950000Y-93396550D01*
X156470220Y-96800240D02*
X155919040Y-96800240D01*
X155800000Y-92949520D02*
X154500480Y-92949520D01*
X154500480Y-92949520D02*
X154500000Y-92950000D01*
X155938080Y-92949520D02*
X155937600Y-92950000D01*
X153600000Y-102950000D02*
X154598740Y-103948740D01*
X154598740Y-103948740D02*
X156495045Y-103948740D01*
X156903232Y-104295632D02*
X156495045Y-103948740D01*
X157607600Y-105000000D02*
X156903232Y-104295632D01*
X158110000Y-105000000D02*
X157607600Y-105000000D01*
X153600000Y-93750000D02*
X153600000Y-102950000D01*
X160729126Y-94320874D02*
X160729126Y-92679126D01*
X160729126Y-92679126D02*
X160500000Y-92450000D01*
X156917251Y-93032749D02*
X156917251Y-94173799D01*
X156917251Y-94173799D02*
X156841050Y-94250000D01*
X156841050Y-94250000D02*
X155800000Y-94250000D01*
X160500000Y-92450000D02*
X157500000Y-92450000D01*
X157500000Y-92450000D02*
X156917251Y-93032749D01*
X159450000Y-105800000D02*
X158110000Y-105800000D01*
X159750000Y-105500000D02*
X159450000Y-105800000D01*
X159700000Y-96671314D02*
X159700000Y-99250000D01*
X159750000Y-99300000D02*
X159750000Y-105500000D01*
X159700000Y-99250000D02*
X159750000Y-99300000D01*
X159885657Y-96485657D02*
X159700000Y-96671314D01*
X161638080Y-96949520D02*
X160874588Y-96949520D01*
X160874588Y-96949520D02*
X160874588Y-96639728D01*
X160874588Y-96639728D02*
X160577408Y-96342548D01*
X160577408Y-96342548D02*
X160028766Y-96342548D01*
X160028766Y-96342548D02*
X159885657Y-96485657D01*
X158110000Y-105400000D02*
X159350000Y-105400000D01*
X155146302Y-95399520D02*
X155950000Y-95399520D01*
X159445190Y-99426256D02*
X158452433Y-98433499D01*
X159350000Y-105400000D02*
X159445190Y-105304810D01*
X159445190Y-105304810D02*
X159445190Y-99426256D01*
X158452433Y-98433499D02*
X154733499Y-98433499D01*
X154733499Y-98433499D02*
X154733499Y-95812323D01*
X154733499Y-95812323D02*
X155146302Y-95399520D01*
D30*
X150647101Y-115997101D02*
X150990000Y-116340000D01*
X150080000Y-115430000D02*
X150647101Y-115997101D01*
X149940000Y-115430000D02*
X150080000Y-115430000D01*
X152250000Y-105850000D02*
X152250000Y-107110000D01*
X152250000Y-107110000D02*
X153586129Y-108446129D01*
X153586129Y-108446129D02*
X153586129Y-111023871D01*
X153586129Y-111023871D02*
X148510000Y-116100000D01*
X148510000Y-116100000D02*
X148302922Y-116100000D01*
X148972922Y-115430000D02*
X149940000Y-115430000D01*
X149940000Y-115430000D02*
X152608993Y-115430000D01*
X148302922Y-116100000D02*
X145660000Y-116100000D01*
X145660000Y-116100000D02*
X144327600Y-116100000D01*
D29*
X145660000Y-117140000D02*
X145660000Y-116537600D01*
X145660000Y-116537600D02*
X145660000Y-116100000D01*
D30*
X148302922Y-116100000D02*
X148972922Y-115430000D01*
X152608993Y-115430000D02*
X157800000Y-120621007D01*
X157800000Y-120621007D02*
X157800000Y-122847920D01*
X157800000Y-122847920D02*
X157800000Y-123500700D01*
X152250000Y-105850000D02*
X148150000Y-105850000D01*
X148150000Y-105850000D02*
X147400000Y-106600000D01*
X152250000Y-106050000D02*
X152250000Y-105850000D01*
X144327600Y-116100000D02*
X142270000Y-114042400D01*
X142270000Y-114042400D02*
X142270000Y-113890000D01*
X157800000Y-124999300D02*
X156299300Y-124999300D01*
X156299300Y-124999300D02*
X156050000Y-124750000D01*
D29*
X133091600Y-108490000D02*
X133091600Y-108093200D01*
X133091600Y-108093200D02*
X132738400Y-107740000D01*
X132738400Y-107740000D02*
X131570000Y-107740000D01*
X134550000Y-108780000D02*
X133381600Y-108780000D01*
X133381600Y-108780000D02*
X133091600Y-108490000D01*
D30*
X134530000Y-108760000D02*
X134550000Y-108780000D01*
D29*
X134550000Y-103700000D02*
X132762400Y-103700000D01*
X132762400Y-103700000D02*
X131722400Y-102660000D01*
X131722400Y-102660000D02*
X131570000Y-102660000D01*
X152901020Y-117427810D02*
X152901020Y-117484935D01*
X151960760Y-117040000D02*
X152513210Y-117040000D01*
X152513210Y-117040000D02*
X152901020Y-117427810D01*
X155400000Y-119180000D02*
X153570000Y-121010000D01*
X153570000Y-121010000D02*
X153470000Y-121010000D01*
X153470000Y-121010000D02*
X149560000Y-121010000D01*
X149560000Y-121010000D02*
X148790000Y-120240000D01*
X148790000Y-120240000D02*
X148790000Y-120190000D01*
X161190000Y-115800000D02*
X161190000Y-116820000D01*
X161190000Y-116820000D02*
X161000000Y-117010000D01*
X161045015Y-100200200D02*
X161045015Y-99054899D01*
X158255617Y-100200200D02*
X158255617Y-99054899D01*
X158255617Y-100200200D02*
X158255617Y-99054899D01*
X161190316Y-115376401D02*
X161540316Y-115376401D01*
X161540316Y-115376401D02*
X162208326Y-115944098D01*
X162208326Y-115944098D02*
X162035617Y-116147324D01*
X161190316Y-114976401D02*
X161540316Y-114976401D01*
X161540316Y-114976401D02*
X162657575Y-115925886D01*
X162657575Y-115925886D02*
X162600996Y-116227803D01*
X162600996Y-116227803D02*
X162511810Y-116834445D01*
X161190316Y-114576401D02*
X161540316Y-114576401D01*
X161540316Y-114576401D02*
X163339083Y-116105055D01*
X163339083Y-116105055D02*
X163166374Y-116308281D01*
X161190316Y-114176401D02*
X161540316Y-114176401D01*
X161540316Y-114176401D02*
X163788332Y-116086842D01*
X163788332Y-116086842D02*
X163731753Y-116388759D01*
X163731753Y-116388759D02*
X163642567Y-116995401D01*
X161190316Y-113776401D02*
X161540316Y-113776401D01*
X161540316Y-113776401D02*
X164453897Y-116252462D01*
X164453897Y-116252462D02*
X164626605Y-116049236D01*
X161190316Y-113376401D02*
X161540316Y-113376401D01*
X161540316Y-113376401D02*
X164167151Y-115608776D01*
X164167151Y-115608776D02*
X164455989Y-115504240D01*
X164455989Y-115504240D02*
X165041329Y-115321633D01*
X161190316Y-112976401D02*
X161540316Y-112976401D01*
X161540316Y-112976401D02*
X164112665Y-115162471D01*
X164112665Y-115162471D02*
X164285373Y-114959245D01*
X161190316Y-112576401D02*
X161540316Y-112576401D01*
X161540316Y-112576401D02*
X163825920Y-114518785D01*
X163825920Y-114518785D02*
X164114757Y-114414250D01*
X164114757Y-114414250D02*
X164700097Y-114231642D01*
X161190316Y-112176401D02*
X161540316Y-112176401D01*
X161540316Y-112176401D02*
X163771433Y-114072481D01*
X163771433Y-114072481D02*
X163944142Y-113869254D01*
X161190316Y-111776401D02*
X161540316Y-111776401D01*
X161540316Y-111776401D02*
X163484688Y-113428795D01*
X163484688Y-113428795D02*
X163773526Y-113324259D01*
X163773526Y-113324259D02*
X164358866Y-113141651D01*
X161190316Y-111376401D02*
X161540316Y-111376401D01*
X161540316Y-111376401D02*
X163430201Y-112982490D01*
X163430201Y-112982490D02*
X163602910Y-112779264D01*
X161190316Y-110976401D02*
X161540316Y-110976401D01*
X161540316Y-110976401D02*
X163143456Y-112338804D01*
X163143456Y-112338804D02*
X163432294Y-112234268D01*
X163432294Y-112234268D02*
X164017634Y-112051661D01*
X161190316Y-110576401D02*
X161540316Y-110576401D01*
X161540316Y-110576401D02*
X163088969Y-111892499D01*
X163088969Y-111892499D02*
X163261678Y-111689273D01*
X161190316Y-110176401D02*
X161540316Y-110176401D01*
X161540316Y-110176401D02*
X162802224Y-111248813D01*
X162802224Y-111248813D02*
X163091062Y-111144278D01*
X163091062Y-111144278D02*
X163676402Y-110961670D01*
X161190316Y-109776401D02*
X161540316Y-109776401D01*
X161540316Y-109776401D02*
X162747737Y-110802509D01*
X162747737Y-110802509D02*
X162920446Y-110599282D01*
X161190316Y-106224000D02*
X161540316Y-106224000D01*
X161540316Y-106224000D02*
X162747737Y-105197892D01*
X162747737Y-105197892D02*
X162920446Y-105401118D01*
X161190316Y-105824000D02*
X161540316Y-105824000D01*
X161540316Y-105824000D02*
X162802224Y-104751587D01*
X162802224Y-104751587D02*
X163091062Y-104856123D01*
X163091062Y-104856123D02*
X163676402Y-105038731D01*
X161190316Y-105424000D02*
X161540316Y-105424000D01*
X161540316Y-105424000D02*
X163088969Y-104107901D01*
X163088969Y-104107901D02*
X163261678Y-104311128D01*
X161190316Y-105024000D02*
X161540316Y-105024000D01*
X161540316Y-105024000D02*
X163143456Y-103661597D01*
X163143456Y-103661597D02*
X163432294Y-103766132D01*
X163432294Y-103766132D02*
X164017634Y-103948740D01*
X161190316Y-104624000D02*
X161540316Y-104624000D01*
X161540316Y-104624000D02*
X163430201Y-103017911D01*
X163430201Y-103017911D02*
X163602910Y-103221137D01*
X161190316Y-104224000D02*
X161540316Y-104224000D01*
X161540316Y-104224000D02*
X163484688Y-102571606D01*
X163484688Y-102571606D02*
X163773526Y-102676142D01*
X163773526Y-102676142D02*
X164358866Y-102858749D01*
X161190316Y-103824000D02*
X161540316Y-103824000D01*
X161540316Y-103824000D02*
X163771433Y-101927920D01*
X163771433Y-101927920D02*
X163944142Y-102131146D01*
X161190316Y-103424000D02*
X161540316Y-103424000D01*
X161540316Y-103424000D02*
X163825920Y-101481616D01*
X163825920Y-101481616D02*
X164114757Y-101586151D01*
X164114757Y-101586151D02*
X164700097Y-101768759D01*
X161190316Y-103024000D02*
X161540316Y-103024000D01*
X161540316Y-103024000D02*
X164112665Y-100837930D01*
X164112665Y-100837930D02*
X164285373Y-101041156D01*
X161190316Y-102624000D02*
X161540316Y-102624000D01*
X161540316Y-102624000D02*
X164167151Y-100391625D01*
X164167151Y-100391625D02*
X164455989Y-100496161D01*
X164455989Y-100496161D02*
X165041329Y-100678768D01*
X161190316Y-102224000D02*
X161540316Y-102224000D01*
X161540316Y-102224000D02*
X164453897Y-99747939D01*
X164453897Y-99747939D02*
X164626605Y-99951165D01*
X161190316Y-101824000D02*
X161540316Y-101824000D01*
X161540316Y-101824000D02*
X163788332Y-99913558D01*
X163788332Y-99913558D02*
X163731753Y-99611642D01*
X163731753Y-99611642D02*
X163642567Y-99005000D01*
X161190316Y-101424000D02*
X161540316Y-101424000D01*
X161540316Y-101424000D02*
X163339083Y-99895346D01*
X163339083Y-99895346D02*
X163166374Y-99692120D01*
X161190316Y-101024000D02*
X161540316Y-101024000D01*
X161540316Y-101024000D02*
X162657575Y-100074515D01*
X162657575Y-100074515D02*
X162600996Y-99772598D01*
X162600996Y-99772598D02*
X162511810Y-99165956D01*
X161190316Y-100624000D02*
X161540316Y-100624000D01*
X161540316Y-100624000D02*
X162208326Y-100056303D01*
X162208326Y-100056303D02*
X162035617Y-99853076D01*
X158110316Y-100624000D02*
X157760316Y-100624000D01*
X157760316Y-100624000D02*
X157092307Y-100056303D01*
X157092307Y-100056303D02*
X157265015Y-99853076D01*
X158110316Y-101024000D02*
X157760316Y-101024000D01*
X157760316Y-101024000D02*
X156643057Y-100074515D01*
X156643057Y-100074515D02*
X156699637Y-99772598D01*
X156699637Y-99772598D02*
X156788823Y-99165956D01*
X158110316Y-101424000D02*
X157760316Y-101424000D01*
X157760316Y-101424000D02*
X155961549Y-99895346D01*
X155961549Y-99895346D02*
X156134258Y-99692120D01*
X158110316Y-101824000D02*
X157760316Y-101824000D01*
X157760316Y-101824000D02*
X155512300Y-99913558D01*
X155512300Y-99913558D02*
X155568880Y-99611642D01*
X155568880Y-99611642D02*
X155658066Y-99005000D01*
X158110316Y-102224000D02*
X157760316Y-102224000D01*
X157760316Y-102224000D02*
X154846736Y-99747939D01*
X154846736Y-99747939D02*
X154674027Y-99951165D01*
X158110316Y-102624000D02*
X157760316Y-102624000D01*
X157760316Y-102624000D02*
X155133481Y-100391625D01*
X155133481Y-100391625D02*
X154844643Y-100496161D01*
X154844643Y-100496161D02*
X154259303Y-100678768D01*
X158110316Y-103024000D02*
X157760316Y-103024000D01*
X157760316Y-103024000D02*
X155187968Y-100837930D01*
X155187968Y-100837930D02*
X155015259Y-101041156D01*
X158110316Y-103424000D02*
X157760316Y-103424000D01*
X157760316Y-103424000D02*
X155474713Y-101481616D01*
X155474713Y-101481616D02*
X155185875Y-101586151D01*
X155185875Y-101586151D02*
X154600535Y-101768759D01*
X158110316Y-103824000D02*
X157760316Y-103824000D01*
X157760316Y-103824000D02*
X155529200Y-101927920D01*
X155529200Y-101927920D02*
X155356491Y-102131146D01*
X155527107Y-102676142D02*
X154941767Y-102858749D01*
X155815945Y-102571606D02*
X155527107Y-102676142D01*
X158110316Y-104224000D02*
X157760316Y-104224000D01*
X157760316Y-104224000D02*
X155815945Y-102571606D01*
X158110316Y-104624000D02*
X157760316Y-104624000D01*
X157760316Y-104624000D02*
X155870431Y-103017911D01*
X155870431Y-103017911D02*
X155697723Y-103221137D01*
X158110316Y-106624000D02*
X157760316Y-106624000D01*
X157760316Y-106624000D02*
X156839640Y-105841578D01*
X156839640Y-105841578D02*
X156550802Y-105946114D01*
X156550802Y-105946114D02*
X155965462Y-106128721D01*
X158110316Y-107024000D02*
X157760316Y-107024000D01*
X157760316Y-107024000D02*
X156894127Y-106287883D01*
X156894127Y-106287883D02*
X156721418Y-106491109D01*
X158110316Y-110576401D02*
X158087435Y-110599282D01*
X158087435Y-110599282D02*
X156865120Y-110599282D01*
X156865120Y-110599282D02*
X156380187Y-110599282D01*
X156498409Y-111248813D02*
X156209571Y-111144278D01*
X156209571Y-111144278D02*
X155624231Y-110961670D01*
X157295579Y-111248813D02*
X156498409Y-111248813D01*
X158110316Y-110976401D02*
X157567991Y-110976401D01*
X157567991Y-110976401D02*
X157295579Y-111248813D01*
X156523888Y-111689273D02*
X156038955Y-111689273D01*
X157530320Y-111571859D02*
X156641302Y-111571859D01*
X156641302Y-111571859D02*
X156523888Y-111689273D01*
X158110316Y-111376401D02*
X157725778Y-111376401D01*
X157725778Y-111376401D02*
X157530320Y-111571859D01*
X155868339Y-112234268D02*
X155282999Y-112051661D01*
X156871396Y-112338804D02*
X156157177Y-112338804D01*
X156157177Y-112338804D02*
X155868339Y-112234268D01*
X157645318Y-111874130D02*
X157336070Y-111874130D01*
X157760316Y-111776401D02*
X157645318Y-111874130D01*
X158110316Y-111776401D02*
X157760316Y-111776401D01*
X157336070Y-111874130D02*
X156871396Y-112338804D01*
X156858412Y-112779264D02*
X156182656Y-112779264D01*
X157461275Y-112176401D02*
X156858412Y-112779264D01*
X158110316Y-112176401D02*
X157461275Y-112176401D01*
X156182656Y-112779264D02*
X155697723Y-112779264D01*
X155527107Y-113324259D02*
X154941767Y-113141651D01*
X155815945Y-113428795D02*
X155527107Y-113324259D01*
X156636356Y-113428795D02*
X155815945Y-113428795D01*
X157488750Y-112576401D02*
X156636356Y-113428795D01*
X158110316Y-112576401D02*
X157488750Y-112576401D01*
X155841424Y-113869254D02*
X155356491Y-113869254D01*
X156623371Y-113869254D02*
X155841424Y-113869254D01*
X157516224Y-112976401D02*
X156623371Y-113869254D01*
X158110316Y-112976401D02*
X157516224Y-112976401D01*
X158110316Y-113376401D02*
X157543700Y-113376401D01*
X155185875Y-114414250D02*
X154600535Y-114231642D01*
X157543700Y-113376401D02*
X156401316Y-114518785D01*
X155474713Y-114518785D02*
X155185875Y-114414250D01*
X156401316Y-114518785D02*
X155474713Y-114518785D01*
X155612626Y-114846811D02*
X155500192Y-114959245D01*
X156500765Y-114846811D02*
X155612626Y-114846811D01*
X157571175Y-113776401D02*
X156500765Y-114846811D01*
X158110316Y-113776401D02*
X157571175Y-113776401D01*
X155500192Y-114959245D02*
X155015259Y-114959245D01*
X154844643Y-115504240D02*
X154259303Y-115321633D01*
X156491426Y-115254747D02*
X156481221Y-115254747D01*
X155133481Y-115608776D02*
X154844643Y-115504240D01*
X156481221Y-115254747D02*
X156127192Y-115608776D01*
X157598650Y-114176401D02*
X156683732Y-115091319D01*
X158110316Y-114176401D02*
X157598650Y-114176401D01*
X156683732Y-115091319D02*
X156491426Y-115254747D01*
X156127192Y-115608776D02*
X155133481Y-115608776D01*
X155771307Y-116392135D02*
X156606426Y-115557016D01*
X155016926Y-116392135D02*
X155771307Y-116392135D01*
X154674027Y-116049236D02*
X155016926Y-116392135D01*
X156606426Y-115557016D02*
X156866696Y-115335830D01*
X157626125Y-114576401D02*
X158110316Y-114576401D01*
X156866696Y-115335830D02*
X157626125Y-114576401D01*
X155657101Y-117012899D02*
X155657101Y-117207101D01*
X158110000Y-115000000D02*
X157670000Y-115000000D01*
X155857101Y-117407101D02*
X156200000Y-117750000D01*
X157670000Y-115000000D02*
X155657101Y-117012899D01*
X155657101Y-117207101D02*
X155857101Y-117407101D01*
X156906378Y-116191096D02*
X156906378Y-116639085D01*
X158110316Y-115376401D02*
X157721073Y-115376401D01*
X157721073Y-115376401D02*
X156906378Y-116191096D01*
X156906378Y-116639085D02*
X156563479Y-116981984D01*
X158110000Y-115800000D02*
X158110000Y-117125353D01*
X158110000Y-117125353D02*
X157529757Y-117705596D01*
X157529757Y-117705596D02*
X157186858Y-118048495D01*
X134650000Y-113890000D02*
X134650000Y-114042400D01*
X134650000Y-114042400D02*
X132200000Y-116492400D01*
X132200000Y-116492400D02*
X132200000Y-117725000D01*
X132200000Y-117725000D02*
X138045000Y-123570000D01*
X138045000Y-123570000D02*
X138045000Y-124450000D01*
X149245000Y-117990000D02*
X149430000Y-117990000D01*
X148860000Y-117990000D02*
X149430000Y-117990000D01*
X149430000Y-117990000D02*
X149961780Y-117990000D01*
X147860000Y-117140000D02*
X148010000Y-117140000D01*
X148010000Y-117140000D02*
X148860000Y-117990000D01*
X149085000Y-118150000D02*
X149245000Y-117990000D01*
X144460000Y-120750000D02*
X143125000Y-122085000D01*
X143125000Y-122085000D02*
X143125000Y-124450000D01*
X146079933Y-118130000D02*
X146099933Y-118150000D01*
X146099933Y-118150000D02*
X149085000Y-118150000D01*
X145350000Y-118375000D02*
X145834933Y-118375000D01*
X145834933Y-118375000D02*
X146079933Y-118130000D01*
X144850000Y-118375000D02*
X144865067Y-118375000D01*
X144225000Y-117750000D02*
X144850000Y-118375000D01*
X144225000Y-117750000D02*
X143437600Y-117750000D01*
X143437600Y-117750000D02*
X139730000Y-114042400D01*
X139730000Y-114042400D02*
X139730000Y-113890000D01*
X143125000Y-123872600D02*
X143125000Y-124025000D01*
X144865067Y-118375000D02*
X145350000Y-118375000D01*
X147390000Y-120190000D02*
X146937600Y-120190000D01*
X146937600Y-120190000D02*
X146010709Y-119263109D01*
X146010709Y-119263109D02*
X143663109Y-119263109D01*
X143663109Y-119263109D02*
X140585000Y-122341218D01*
X140585000Y-122341218D02*
X140585000Y-124450000D01*
X143663109Y-119263109D02*
X142893962Y-118493962D01*
X142893962Y-118493962D02*
X142893962Y-118068962D01*
X140585000Y-123872600D02*
X140585000Y-124025000D01*
X142893962Y-118068962D02*
X140400000Y-115575000D01*
X140400000Y-115575000D02*
X138722600Y-115575000D01*
X138722600Y-115575000D02*
X137190000Y-114042400D01*
X137190000Y-114042400D02*
X137190000Y-113890000D01*
X137490000Y-113890000D02*
X137190000Y-113890000D01*
X154343071Y-109746929D02*
X154617101Y-109472899D01*
X153762899Y-114196418D02*
X154343071Y-113616246D01*
X153420000Y-115350000D02*
X153762899Y-115007101D01*
X154343071Y-113616246D02*
X154343071Y-109746929D01*
X153762899Y-115007101D02*
X153762899Y-114196418D01*
X154617101Y-109472899D02*
X154960000Y-109130000D01*
X153470000Y-118810000D02*
X152090760Y-118810000D01*
X152090760Y-118810000D02*
X151960760Y-118940000D01*
X153470000Y-117190000D02*
X153470000Y-118810000D01*
X153282899Y-117002899D02*
X153470000Y-117190000D01*
X152940000Y-116650000D02*
X153282899Y-116992899D01*
X153282899Y-116992899D02*
X153282899Y-117002899D01*
X152510000Y-103600000D02*
X152660000Y-103600000D01*
X152660000Y-103600000D02*
X154461118Y-105401118D01*
X155895254Y-105401118D02*
X156380187Y-105401118D01*
X154461118Y-105401118D02*
X155895254Y-105401118D01*
X161638080Y-98250000D02*
X160346552Y-98250000D01*
X160346552Y-98250000D02*
X160303087Y-98206535D01*
X160303087Y-98206535D02*
X160303087Y-97700000D01*
X160303087Y-97700000D02*
X160303087Y-97398982D01*
X161638080Y-97599760D02*
X160735110Y-97599760D01*
X160735110Y-97599760D02*
X160634870Y-97700000D01*
X160634870Y-97700000D02*
X160303087Y-97700000D01*
X158110000Y-106200000D02*
X159531067Y-106200000D01*
X154650000Y-93945822D02*
X154650000Y-93846790D01*
X154650000Y-93846790D02*
X154897030Y-93599760D01*
X154897030Y-93599760D02*
X155800000Y-93599760D01*
X154650000Y-94900000D02*
X154650000Y-93945822D01*
X154650000Y-93945822D02*
X153928499Y-93224321D01*
X153928499Y-93224321D02*
X153928499Y-92526815D01*
X153928499Y-92526815D02*
X153982169Y-92473145D01*
X153982169Y-92473145D02*
X154325068Y-92130246D01*
X154394822Y-92200000D02*
X154325068Y-92130246D01*
X156750000Y-92200000D02*
X154394822Y-92200000D01*
X160303087Y-97398982D02*
X160303087Y-96914049D01*
X160239234Y-98270388D02*
X160303087Y-98206535D01*
X156957101Y-96757101D02*
X156957101Y-96153891D01*
X157300000Y-97100000D02*
X156957101Y-96757101D01*
X156957101Y-96153891D02*
X156852970Y-96049760D01*
X156852970Y-96049760D02*
X155950000Y-96049760D01*
X160054811Y-98454811D02*
X160239234Y-98270388D01*
X160054811Y-98454811D02*
X160050000Y-98450000D01*
X160059620Y-104997487D02*
X160054811Y-104992678D01*
X159531067Y-106200000D02*
X160059620Y-105671447D01*
X160054811Y-104992678D02*
X160054811Y-98454811D01*
X160059620Y-105671447D02*
X160059620Y-104997487D01*
X158110316Y-106224000D02*
X157760316Y-106224000D01*
X157760316Y-106224000D02*
X156552895Y-105197892D01*
X156552895Y-105197892D02*
X156380187Y-105401118D01*
D30*
X148080000Y-119560000D02*
X148540000Y-119100000D01*
X148540000Y-119100000D02*
X150640000Y-119100000D01*
X148080000Y-121882600D02*
X148080000Y-119560000D01*
X145665000Y-124297600D02*
X148080000Y-121882600D01*
X145665000Y-124297600D02*
X145665000Y-124450000D01*
X153422899Y-113837101D02*
X153080000Y-114180000D01*
X153990000Y-113270000D02*
X153422899Y-113837101D01*
X155821761Y-107218712D02*
X153990000Y-109050473D01*
X156306694Y-107218712D02*
X155821761Y-107218712D01*
X153990000Y-109050473D02*
X153990000Y-113270000D01*
D29*
X156306694Y-107218712D02*
X156306694Y-107703645D01*
X156306694Y-107703645D02*
X156443049Y-107840000D01*
X156892034Y-107036104D02*
X156306694Y-107218712D01*
X156443049Y-107840000D02*
X156443049Y-107715768D01*
X156443049Y-107715768D02*
X156577717Y-107581100D01*
X156577717Y-107581100D02*
X157062650Y-107581100D01*
X155965462Y-109395462D02*
X156079292Y-109509292D01*
X156079292Y-109509292D02*
X156721418Y-109509292D01*
X155965462Y-109871680D02*
X155965462Y-109395462D01*
X158110316Y-107424000D02*
X157760316Y-107424000D01*
X157760316Y-107424000D02*
X157180872Y-106931569D01*
X157180872Y-106931569D02*
X156892034Y-107036104D01*
X158110316Y-107824000D02*
X157760316Y-107824000D01*
X157760316Y-107824000D02*
X157235359Y-107377873D01*
X157235359Y-107377873D02*
X157062650Y-107581100D01*
X158110316Y-108176401D02*
X157760316Y-108176401D01*
X157760316Y-108176401D02*
X157235359Y-108622527D01*
X157235359Y-108622527D02*
X157062650Y-108419301D01*
X158110316Y-108576401D02*
X157760316Y-108576401D01*
X157760316Y-108576401D02*
X157180872Y-109068832D01*
X157180872Y-109068832D02*
X156892034Y-108964297D01*
X156892034Y-108964297D02*
X156306694Y-108781689D01*
X158110316Y-108976401D02*
X157760316Y-108976401D01*
X157760316Y-108976401D02*
X156894127Y-109712518D01*
X156894127Y-109712518D02*
X156721418Y-109509292D01*
X158110316Y-109376401D02*
X157760316Y-109376401D01*
X157760316Y-109376401D02*
X156839640Y-110158823D01*
X156839640Y-110158823D02*
X156550802Y-110054287D01*
X156550802Y-110054287D02*
X155965462Y-109871680D01*
D30*
G36*
X155770092Y-107106451D02*
X155954093Y-107106611D01*
X156166759Y-107319649D01*
X156526048Y-107468839D01*
X156915081Y-107469178D01*
X157097307Y-107393884D01*
X157125000Y-107417418D01*
X157125000Y-107527002D01*
X157144339Y-107527002D01*
X157125000Y-107573690D01*
X157125000Y-107591250D01*
X157133750Y-107600000D01*
X157125000Y-107608750D01*
X157125000Y-107626310D01*
X157196945Y-107800000D01*
X157125000Y-107973690D01*
X157125000Y-107991250D01*
X157133750Y-108000000D01*
X157125000Y-108008750D01*
X157125000Y-108026310D01*
X157196945Y-108200000D01*
X157125000Y-108373690D01*
X157125000Y-108391250D01*
X157133750Y-108400000D01*
X157125000Y-108408750D01*
X157125000Y-108426310D01*
X157196945Y-108600000D01*
X157125000Y-108773690D01*
X157125000Y-108791250D01*
X157133750Y-108800000D01*
X157125000Y-108808750D01*
X157125000Y-108826310D01*
X157196945Y-109000000D01*
X157125000Y-109173690D01*
X157125000Y-109191250D01*
X157133750Y-109200000D01*
X157125000Y-109208750D01*
X157125000Y-109226310D01*
X157196755Y-109399541D01*
X157163569Y-109448110D01*
X157132572Y-109601178D01*
X157125000Y-109608750D01*
X157125000Y-109626310D01*
X157126667Y-109630335D01*
X157112560Y-109700000D01*
X157112560Y-109801206D01*
X156998355Y-109834363D01*
X156934846Y-109770742D01*
X156575557Y-109621552D01*
X156186524Y-109621213D01*
X155826975Y-109769775D01*
X155612617Y-109983760D01*
X155577000Y-109983729D01*
X155577000Y-109895830D01*
X155788540Y-109684659D01*
X155937730Y-109325370D01*
X155938069Y-108936337D01*
X155789507Y-108576788D01*
X155577000Y-108363910D01*
X155577000Y-107026272D01*
X155770092Y-107106451D01*
X155770092Y-107106451D01*
G37*
X155770092Y-107106451D02*
X155954093Y-107106611D01*
X156166759Y-107319649D01*
X156526048Y-107468839D01*
X156915081Y-107469178D01*
X157097307Y-107393884D01*
X157125000Y-107417418D01*
X157125000Y-107527002D01*
X157144339Y-107527002D01*
X157125000Y-107573690D01*
X157125000Y-107591250D01*
X157133750Y-107600000D01*
X157125000Y-107608750D01*
X157125000Y-107626310D01*
X157196945Y-107800000D01*
X157125000Y-107973690D01*
X157125000Y-107991250D01*
X157133750Y-108000000D01*
X157125000Y-108008750D01*
X157125000Y-108026310D01*
X157196945Y-108200000D01*
X157125000Y-108373690D01*
X157125000Y-108391250D01*
X157133750Y-108400000D01*
X157125000Y-108408750D01*
X157125000Y-108426310D01*
X157196945Y-108600000D01*
X157125000Y-108773690D01*
X157125000Y-108791250D01*
X157133750Y-108800000D01*
X157125000Y-108808750D01*
X157125000Y-108826310D01*
X157196945Y-109000000D01*
X157125000Y-109173690D01*
X157125000Y-109191250D01*
X157133750Y-109200000D01*
X157125000Y-109208750D01*
X157125000Y-109226310D01*
X157196755Y-109399541D01*
X157163569Y-109448110D01*
X157132572Y-109601178D01*
X157125000Y-109608750D01*
X157125000Y-109626310D01*
X157126667Y-109630335D01*
X157112560Y-109700000D01*
X157112560Y-109801206D01*
X156998355Y-109834363D01*
X156934846Y-109770742D01*
X156575557Y-109621552D01*
X156186524Y-109621213D01*
X155826975Y-109769775D01*
X155612617Y-109983760D01*
X155577000Y-109983729D01*
X155577000Y-109895830D01*
X155788540Y-109684659D01*
X155937730Y-109325370D01*
X155938069Y-108936337D01*
X155789507Y-108576788D01*
X155577000Y-108363910D01*
X155577000Y-107026272D01*
X155770092Y-107106451D01*
M02*
