G04 #@! TF.FileFunction,Soldermask,Top*
%FSLAX46Y46*%
G04 Gerber Fmt 4.6, Leading zero omitted, Abs format (unit mm)*
G04 Created by KiCad (PCBNEW (2015-11-03 BZR 6296)-product) date Monday, December 21, 2015 'PMt' 04:07:47 PM*
%MOMM*%
G01*
G04 APERTURE LIST*
%ADD10C,0.100000*%
%ADD11C,0.010000*%
%ADD12O,2.432000X2.127200*%
%ADD13R,2.432000X2.127200*%
%ADD14R,1.901140X0.798780*%
%ADD15R,2.000000X2.400000*%
%ADD16R,1.197560X1.197560*%
%ADD17R,1.300000X1.600000*%
%ADD18R,2.127200X2.432000*%
%ADD19O,2.127200X2.432000*%
%ADD20R,2.432000X2.432000*%
%ADD21O,2.432000X2.432000*%
%ADD22R,1.100000X0.600000*%
G04 APERTURE END LIST*
D10*
D11*
G36*
X146488969Y-93576897D02*
X146451134Y-93575122D01*
X146415237Y-93572050D01*
X146379588Y-93567549D01*
X146342501Y-93561488D01*
X146317463Y-93556774D01*
X146280495Y-93549127D01*
X146245230Y-93540944D01*
X146210622Y-93531892D01*
X146175624Y-93521636D01*
X146139191Y-93509844D01*
X146100278Y-93496182D01*
X146057839Y-93480316D01*
X146010827Y-93461912D01*
X145975263Y-93447594D01*
X145928042Y-93428195D01*
X145880102Y-93408057D01*
X145831041Y-93386989D01*
X145780453Y-93364801D01*
X145727934Y-93341305D01*
X145673079Y-93316311D01*
X145615486Y-93289628D01*
X145554749Y-93261068D01*
X145490464Y-93230441D01*
X145422227Y-93197558D01*
X145349635Y-93162228D01*
X145272281Y-93124263D01*
X145189764Y-93083472D01*
X145101677Y-93039667D01*
X145043915Y-93010823D01*
X144962201Y-92970036D01*
X144886268Y-92932302D01*
X144815642Y-92897404D01*
X144749851Y-92865125D01*
X144688423Y-92835248D01*
X144630885Y-92807556D01*
X144576765Y-92781833D01*
X144525591Y-92757862D01*
X144476889Y-92735425D01*
X144430189Y-92714305D01*
X144385018Y-92694286D01*
X144340903Y-92675152D01*
X144297371Y-92656684D01*
X144253951Y-92638666D01*
X144210171Y-92620881D01*
X144165557Y-92603112D01*
X144119637Y-92585143D01*
X144102458Y-92578491D01*
X144078476Y-92569207D01*
X144056212Y-92560545D01*
X144036652Y-92552891D01*
X144020781Y-92546634D01*
X144009586Y-92542160D01*
X144004216Y-92539930D01*
X143994168Y-92535427D01*
X144009302Y-92516151D01*
X144021111Y-92502098D01*
X144037080Y-92484518D01*
X144056079Y-92464551D01*
X144076977Y-92443337D01*
X144098643Y-92422014D01*
X144119945Y-92401723D01*
X144139754Y-92383603D01*
X144148319Y-92376080D01*
X144223898Y-92314961D01*
X144305648Y-92256762D01*
X144393253Y-92201625D01*
X144486399Y-92149694D01*
X144584769Y-92101114D01*
X144688048Y-92056027D01*
X144795921Y-92014578D01*
X144908072Y-91976909D01*
X145024186Y-91943165D01*
X145143946Y-91913490D01*
X145183722Y-91904719D01*
X145242747Y-91892433D01*
X145296586Y-91881987D01*
X145346795Y-91873123D01*
X145394926Y-91865587D01*
X145442531Y-91859123D01*
X145491165Y-91853474D01*
X145501222Y-91852412D01*
X145521268Y-91850815D01*
X145546488Y-91849562D01*
X145575561Y-91848652D01*
X145607167Y-91848087D01*
X145639986Y-91847866D01*
X145672697Y-91847989D01*
X145703980Y-91848457D01*
X145732515Y-91849270D01*
X145756981Y-91850428D01*
X145776059Y-91851931D01*
X145779917Y-91852371D01*
X145850413Y-91863641D01*
X145915332Y-91879223D01*
X145974686Y-91899125D01*
X146028489Y-91923358D01*
X146076754Y-91951929D01*
X146119494Y-91984848D01*
X146156725Y-92022125D01*
X146188458Y-92063767D01*
X146214708Y-92109784D01*
X146234186Y-92156444D01*
X146243436Y-92184664D01*
X146250050Y-92210210D01*
X146254389Y-92235330D01*
X146256811Y-92262274D01*
X146257677Y-92293290D01*
X146257689Y-92303310D01*
X146257494Y-92360217D01*
X146280459Y-92362570D01*
X146303423Y-92364922D01*
X146353181Y-92330990D01*
X146352739Y-92281641D01*
X146348754Y-92223410D01*
X146337973Y-92166659D01*
X146320573Y-92111805D01*
X146296733Y-92059268D01*
X146266631Y-92009464D01*
X146230446Y-91962812D01*
X146205226Y-91935845D01*
X146164590Y-91899000D01*
X146120860Y-91866629D01*
X146073528Y-91838509D01*
X146022089Y-91814416D01*
X145966034Y-91794127D01*
X145904857Y-91777416D01*
X145838052Y-91764062D01*
X145804611Y-91758887D01*
X145783545Y-91756611D01*
X145756697Y-91754815D01*
X145725325Y-91753500D01*
X145690685Y-91752666D01*
X145654034Y-91752312D01*
X145616631Y-91752438D01*
X145579731Y-91753044D01*
X145544593Y-91754130D01*
X145512474Y-91755697D01*
X145484630Y-91757743D01*
X145473000Y-91758912D01*
X145358753Y-91774085D01*
X145243621Y-91793945D01*
X145128476Y-91818230D01*
X145014191Y-91846679D01*
X144901641Y-91879031D01*
X144791697Y-91915025D01*
X144685234Y-91954400D01*
X144583124Y-91996894D01*
X144486240Y-92042246D01*
X144431392Y-92070502D01*
X144348282Y-92117249D01*
X144269342Y-92166369D01*
X144195019Y-92217513D01*
X144125759Y-92270332D01*
X144062007Y-92324478D01*
X144004209Y-92379603D01*
X143952812Y-92435357D01*
X143931120Y-92461520D01*
X143916411Y-92479428D01*
X143905353Y-92491741D01*
X143897679Y-92498733D01*
X143893122Y-92500678D01*
X143892894Y-92500627D01*
X143878318Y-92496988D01*
X143857871Y-92492861D01*
X143832704Y-92488412D01*
X143803971Y-92483807D01*
X143772826Y-92479213D01*
X143740421Y-92474796D01*
X143707909Y-92470724D01*
X143676444Y-92467163D01*
X143647179Y-92464280D01*
X143633264Y-92463107D01*
X143603004Y-92461370D01*
X143569491Y-92460689D01*
X143532279Y-92461091D01*
X143490925Y-92462602D01*
X143444983Y-92465250D01*
X143394009Y-92469062D01*
X143337559Y-92474063D01*
X143275188Y-92480281D01*
X143206452Y-92487744D01*
X143185236Y-92490147D01*
X143087304Y-92501961D01*
X142982890Y-92515747D01*
X142872274Y-92531456D01*
X142755733Y-92549038D01*
X142633546Y-92568441D01*
X142505989Y-92589614D01*
X142373343Y-92612508D01*
X142235883Y-92637072D01*
X142093890Y-92663254D01*
X141947640Y-92691005D01*
X141797412Y-92720273D01*
X141643483Y-92751009D01*
X141486133Y-92783160D01*
X141325639Y-92816678D01*
X141162279Y-92851511D01*
X140996331Y-92887608D01*
X140968028Y-92893834D01*
X140936495Y-92900732D01*
X140906427Y-92907213D01*
X140878674Y-92913101D01*
X140854087Y-92918220D01*
X140833516Y-92922393D01*
X140817814Y-92925444D01*
X140807830Y-92927196D01*
X140805750Y-92927480D01*
X140778371Y-92927397D01*
X140749403Y-92921802D01*
X140720663Y-92911360D01*
X140693968Y-92896737D01*
X140671137Y-92878600D01*
X140670423Y-92877903D01*
X140659666Y-92865542D01*
X140646441Y-92847416D01*
X140631127Y-92824218D01*
X140614102Y-92796638D01*
X140595747Y-92765367D01*
X140576438Y-92731098D01*
X140556556Y-92694521D01*
X140536479Y-92656329D01*
X140516585Y-92617211D01*
X140497253Y-92577861D01*
X140478863Y-92538969D01*
X140461792Y-92501226D01*
X140453062Y-92481112D01*
X140425582Y-92412172D01*
X140403705Y-92347247D01*
X140387436Y-92286369D01*
X140376780Y-92229572D01*
X140371742Y-92176888D01*
X140372326Y-92128350D01*
X140378538Y-92083992D01*
X140389697Y-92045645D01*
X140399279Y-92025383D01*
X140412842Y-92003470D01*
X140428641Y-91982372D01*
X140444928Y-91964559D01*
X140450911Y-91959140D01*
X140466300Y-91947229D01*
X140482919Y-91936713D01*
X140501311Y-91927482D01*
X140522022Y-91919426D01*
X140545594Y-91912435D01*
X140572573Y-91906398D01*
X140603502Y-91901206D01*
X140638926Y-91896748D01*
X140679388Y-91892914D01*
X140725433Y-91889595D01*
X140777604Y-91886679D01*
X140818097Y-91884818D01*
X140837868Y-91884039D01*
X140863696Y-91883124D01*
X140894584Y-91882103D01*
X140929536Y-91881006D01*
X140967554Y-91879863D01*
X141007643Y-91878706D01*
X141048805Y-91877563D01*
X141090044Y-91876466D01*
X141110903Y-91875930D01*
X141216868Y-91873135D01*
X141316377Y-91870272D01*
X141410029Y-91867312D01*
X141498424Y-91864226D01*
X141582160Y-91860984D01*
X141661838Y-91857556D01*
X141738056Y-91853914D01*
X141811413Y-91850028D01*
X141882509Y-91845868D01*
X141951944Y-91841405D01*
X142020317Y-91836610D01*
X142088226Y-91831452D01*
X142156271Y-91825904D01*
X142192167Y-91822832D01*
X142344575Y-91808516D01*
X142491084Y-91792499D01*
X142632686Y-91774574D01*
X142770371Y-91754538D01*
X142905131Y-91732187D01*
X143037958Y-91707314D01*
X143169844Y-91679717D01*
X143301779Y-91649189D01*
X143434756Y-91615527D01*
X143569766Y-91578526D01*
X143707801Y-91537982D01*
X143849851Y-91493689D01*
X143957819Y-91458484D01*
X144014471Y-91439585D01*
X144066899Y-91421819D01*
X144115676Y-91404921D01*
X144161373Y-91388623D01*
X144204563Y-91372660D01*
X144245816Y-91356765D01*
X144285705Y-91340673D01*
X144324801Y-91324116D01*
X144363675Y-91306830D01*
X144402901Y-91288548D01*
X144443048Y-91269003D01*
X144484690Y-91247929D01*
X144528398Y-91225061D01*
X144574743Y-91200131D01*
X144624297Y-91172875D01*
X144677632Y-91143025D01*
X144735320Y-91110316D01*
X144797932Y-91074481D01*
X144862694Y-91037185D01*
X144912887Y-91008257D01*
X144957657Y-90982550D01*
X144997661Y-90959702D01*
X145033555Y-90939352D01*
X145065994Y-90921137D01*
X145095635Y-90904697D01*
X145123134Y-90889670D01*
X145149147Y-90875693D01*
X145174330Y-90862406D01*
X145199338Y-90849446D01*
X145224828Y-90836451D01*
X145247222Y-90825180D01*
X145312539Y-90793259D01*
X145373326Y-90765298D01*
X145430631Y-90740936D01*
X145485499Y-90719812D01*
X145538978Y-90701564D01*
X145592115Y-90685831D01*
X145645957Y-90672252D01*
X145701551Y-90660463D01*
X145749025Y-90651906D01*
X145808301Y-90642525D01*
X145862886Y-90635151D01*
X145914804Y-90629623D01*
X145966074Y-90625777D01*
X146018721Y-90623450D01*
X146074766Y-90622478D01*
X146113292Y-90622491D01*
X146139880Y-90622691D01*
X146164924Y-90622949D01*
X146187330Y-90623249D01*
X146206003Y-90623574D01*
X146219851Y-90623908D01*
X146227777Y-90624233D01*
X146227944Y-90624245D01*
X146318991Y-90633260D01*
X146408800Y-90646904D01*
X146496515Y-90664958D01*
X146581282Y-90687202D01*
X146662244Y-90713417D01*
X146738545Y-90743381D01*
X146796209Y-90770183D01*
X146882043Y-90817081D01*
X146965670Y-90870623D01*
X147047012Y-90930727D01*
X147125994Y-90997310D01*
X147202539Y-91070292D01*
X147276571Y-91149589D01*
X147348015Y-91235121D01*
X147416793Y-91326804D01*
X147482829Y-91424558D01*
X147546048Y-91528299D01*
X147606373Y-91637947D01*
X147610700Y-91646254D01*
X147647707Y-91721266D01*
X147682221Y-91799011D01*
X147714600Y-91880420D01*
X147745202Y-91966426D01*
X147774388Y-92057961D01*
X147790890Y-92114242D01*
X147798457Y-92140831D01*
X148044194Y-92239956D01*
X148083671Y-92255931D01*
X148121187Y-92271209D01*
X148156234Y-92285578D01*
X148188306Y-92298827D01*
X148216898Y-92310743D01*
X148241502Y-92321113D01*
X148261612Y-92329726D01*
X148276722Y-92336370D01*
X148286326Y-92340832D01*
X148289917Y-92342899D01*
X148289931Y-92342945D01*
X148287356Y-92345822D01*
X148279885Y-92353035D01*
X148267902Y-92364238D01*
X148251787Y-92379083D01*
X148231922Y-92397224D01*
X148208690Y-92418314D01*
X148182471Y-92442006D01*
X148153649Y-92467952D01*
X148122605Y-92495807D01*
X148089720Y-92525222D01*
X148064153Y-92548034D01*
X147838375Y-92749259D01*
X147823997Y-92788978D01*
X147795662Y-92859052D01*
X147762414Y-92925955D01*
X147723848Y-92990293D01*
X147679555Y-93052676D01*
X147629130Y-93113713D01*
X147572165Y-93174010D01*
X147555776Y-93190083D01*
X147488462Y-93250261D01*
X147415870Y-93305941D01*
X147338266Y-93356990D01*
X147255914Y-93403278D01*
X147169079Y-93444670D01*
X147078026Y-93481036D01*
X146983021Y-93512242D01*
X146884329Y-93538158D01*
X146838250Y-93548166D01*
X146793853Y-93556803D01*
X146754131Y-93563573D01*
X146717021Y-93568705D01*
X146680460Y-93572428D01*
X146642386Y-93574971D01*
X146600735Y-93576561D01*
X146577194Y-93577084D01*
X146530426Y-93577507D01*
X146488969Y-93576897D01*
X146488969Y-93576897D01*
G37*
X146488969Y-93576897D02*
X146451134Y-93575122D01*
X146415237Y-93572050D01*
X146379588Y-93567549D01*
X146342501Y-93561488D01*
X146317463Y-93556774D01*
X146280495Y-93549127D01*
X146245230Y-93540944D01*
X146210622Y-93531892D01*
X146175624Y-93521636D01*
X146139191Y-93509844D01*
X146100278Y-93496182D01*
X146057839Y-93480316D01*
X146010827Y-93461912D01*
X145975263Y-93447594D01*
X145928042Y-93428195D01*
X145880102Y-93408057D01*
X145831041Y-93386989D01*
X145780453Y-93364801D01*
X145727934Y-93341305D01*
X145673079Y-93316311D01*
X145615486Y-93289628D01*
X145554749Y-93261068D01*
X145490464Y-93230441D01*
X145422227Y-93197558D01*
X145349635Y-93162228D01*
X145272281Y-93124263D01*
X145189764Y-93083472D01*
X145101677Y-93039667D01*
X145043915Y-93010823D01*
X144962201Y-92970036D01*
X144886268Y-92932302D01*
X144815642Y-92897404D01*
X144749851Y-92865125D01*
X144688423Y-92835248D01*
X144630885Y-92807556D01*
X144576765Y-92781833D01*
X144525591Y-92757862D01*
X144476889Y-92735425D01*
X144430189Y-92714305D01*
X144385018Y-92694286D01*
X144340903Y-92675152D01*
X144297371Y-92656684D01*
X144253951Y-92638666D01*
X144210171Y-92620881D01*
X144165557Y-92603112D01*
X144119637Y-92585143D01*
X144102458Y-92578491D01*
X144078476Y-92569207D01*
X144056212Y-92560545D01*
X144036652Y-92552891D01*
X144020781Y-92546634D01*
X144009586Y-92542160D01*
X144004216Y-92539930D01*
X143994168Y-92535427D01*
X144009302Y-92516151D01*
X144021111Y-92502098D01*
X144037080Y-92484518D01*
X144056079Y-92464551D01*
X144076977Y-92443337D01*
X144098643Y-92422014D01*
X144119945Y-92401723D01*
X144139754Y-92383603D01*
X144148319Y-92376080D01*
X144223898Y-92314961D01*
X144305648Y-92256762D01*
X144393253Y-92201625D01*
X144486399Y-92149694D01*
X144584769Y-92101114D01*
X144688048Y-92056027D01*
X144795921Y-92014578D01*
X144908072Y-91976909D01*
X145024186Y-91943165D01*
X145143946Y-91913490D01*
X145183722Y-91904719D01*
X145242747Y-91892433D01*
X145296586Y-91881987D01*
X145346795Y-91873123D01*
X145394926Y-91865587D01*
X145442531Y-91859123D01*
X145491165Y-91853474D01*
X145501222Y-91852412D01*
X145521268Y-91850815D01*
X145546488Y-91849562D01*
X145575561Y-91848652D01*
X145607167Y-91848087D01*
X145639986Y-91847866D01*
X145672697Y-91847989D01*
X145703980Y-91848457D01*
X145732515Y-91849270D01*
X145756981Y-91850428D01*
X145776059Y-91851931D01*
X145779917Y-91852371D01*
X145850413Y-91863641D01*
X145915332Y-91879223D01*
X145974686Y-91899125D01*
X146028489Y-91923358D01*
X146076754Y-91951929D01*
X146119494Y-91984848D01*
X146156725Y-92022125D01*
X146188458Y-92063767D01*
X146214708Y-92109784D01*
X146234186Y-92156444D01*
X146243436Y-92184664D01*
X146250050Y-92210210D01*
X146254389Y-92235330D01*
X146256811Y-92262274D01*
X146257677Y-92293290D01*
X146257689Y-92303310D01*
X146257494Y-92360217D01*
X146280459Y-92362570D01*
X146303423Y-92364922D01*
X146353181Y-92330990D01*
X146352739Y-92281641D01*
X146348754Y-92223410D01*
X146337973Y-92166659D01*
X146320573Y-92111805D01*
X146296733Y-92059268D01*
X146266631Y-92009464D01*
X146230446Y-91962812D01*
X146205226Y-91935845D01*
X146164590Y-91899000D01*
X146120860Y-91866629D01*
X146073528Y-91838509D01*
X146022089Y-91814416D01*
X145966034Y-91794127D01*
X145904857Y-91777416D01*
X145838052Y-91764062D01*
X145804611Y-91758887D01*
X145783545Y-91756611D01*
X145756697Y-91754815D01*
X145725325Y-91753500D01*
X145690685Y-91752666D01*
X145654034Y-91752312D01*
X145616631Y-91752438D01*
X145579731Y-91753044D01*
X145544593Y-91754130D01*
X145512474Y-91755697D01*
X145484630Y-91757743D01*
X145473000Y-91758912D01*
X145358753Y-91774085D01*
X145243621Y-91793945D01*
X145128476Y-91818230D01*
X145014191Y-91846679D01*
X144901641Y-91879031D01*
X144791697Y-91915025D01*
X144685234Y-91954400D01*
X144583124Y-91996894D01*
X144486240Y-92042246D01*
X144431392Y-92070502D01*
X144348282Y-92117249D01*
X144269342Y-92166369D01*
X144195019Y-92217513D01*
X144125759Y-92270332D01*
X144062007Y-92324478D01*
X144004209Y-92379603D01*
X143952812Y-92435357D01*
X143931120Y-92461520D01*
X143916411Y-92479428D01*
X143905353Y-92491741D01*
X143897679Y-92498733D01*
X143893122Y-92500678D01*
X143892894Y-92500627D01*
X143878318Y-92496988D01*
X143857871Y-92492861D01*
X143832704Y-92488412D01*
X143803971Y-92483807D01*
X143772826Y-92479213D01*
X143740421Y-92474796D01*
X143707909Y-92470724D01*
X143676444Y-92467163D01*
X143647179Y-92464280D01*
X143633264Y-92463107D01*
X143603004Y-92461370D01*
X143569491Y-92460689D01*
X143532279Y-92461091D01*
X143490925Y-92462602D01*
X143444983Y-92465250D01*
X143394009Y-92469062D01*
X143337559Y-92474063D01*
X143275188Y-92480281D01*
X143206452Y-92487744D01*
X143185236Y-92490147D01*
X143087304Y-92501961D01*
X142982890Y-92515747D01*
X142872274Y-92531456D01*
X142755733Y-92549038D01*
X142633546Y-92568441D01*
X142505989Y-92589614D01*
X142373343Y-92612508D01*
X142235883Y-92637072D01*
X142093890Y-92663254D01*
X141947640Y-92691005D01*
X141797412Y-92720273D01*
X141643483Y-92751009D01*
X141486133Y-92783160D01*
X141325639Y-92816678D01*
X141162279Y-92851511D01*
X140996331Y-92887608D01*
X140968028Y-92893834D01*
X140936495Y-92900732D01*
X140906427Y-92907213D01*
X140878674Y-92913101D01*
X140854087Y-92918220D01*
X140833516Y-92922393D01*
X140817814Y-92925444D01*
X140807830Y-92927196D01*
X140805750Y-92927480D01*
X140778371Y-92927397D01*
X140749403Y-92921802D01*
X140720663Y-92911360D01*
X140693968Y-92896737D01*
X140671137Y-92878600D01*
X140670423Y-92877903D01*
X140659666Y-92865542D01*
X140646441Y-92847416D01*
X140631127Y-92824218D01*
X140614102Y-92796638D01*
X140595747Y-92765367D01*
X140576438Y-92731098D01*
X140556556Y-92694521D01*
X140536479Y-92656329D01*
X140516585Y-92617211D01*
X140497253Y-92577861D01*
X140478863Y-92538969D01*
X140461792Y-92501226D01*
X140453062Y-92481112D01*
X140425582Y-92412172D01*
X140403705Y-92347247D01*
X140387436Y-92286369D01*
X140376780Y-92229572D01*
X140371742Y-92176888D01*
X140372326Y-92128350D01*
X140378538Y-92083992D01*
X140389697Y-92045645D01*
X140399279Y-92025383D01*
X140412842Y-92003470D01*
X140428641Y-91982372D01*
X140444928Y-91964559D01*
X140450911Y-91959140D01*
X140466300Y-91947229D01*
X140482919Y-91936713D01*
X140501311Y-91927482D01*
X140522022Y-91919426D01*
X140545594Y-91912435D01*
X140572573Y-91906398D01*
X140603502Y-91901206D01*
X140638926Y-91896748D01*
X140679388Y-91892914D01*
X140725433Y-91889595D01*
X140777604Y-91886679D01*
X140818097Y-91884818D01*
X140837868Y-91884039D01*
X140863696Y-91883124D01*
X140894584Y-91882103D01*
X140929536Y-91881006D01*
X140967554Y-91879863D01*
X141007643Y-91878706D01*
X141048805Y-91877563D01*
X141090044Y-91876466D01*
X141110903Y-91875930D01*
X141216868Y-91873135D01*
X141316377Y-91870272D01*
X141410029Y-91867312D01*
X141498424Y-91864226D01*
X141582160Y-91860984D01*
X141661838Y-91857556D01*
X141738056Y-91853914D01*
X141811413Y-91850028D01*
X141882509Y-91845868D01*
X141951944Y-91841405D01*
X142020317Y-91836610D01*
X142088226Y-91831452D01*
X142156271Y-91825904D01*
X142192167Y-91822832D01*
X142344575Y-91808516D01*
X142491084Y-91792499D01*
X142632686Y-91774574D01*
X142770371Y-91754538D01*
X142905131Y-91732187D01*
X143037958Y-91707314D01*
X143169844Y-91679717D01*
X143301779Y-91649189D01*
X143434756Y-91615527D01*
X143569766Y-91578526D01*
X143707801Y-91537982D01*
X143849851Y-91493689D01*
X143957819Y-91458484D01*
X144014471Y-91439585D01*
X144066899Y-91421819D01*
X144115676Y-91404921D01*
X144161373Y-91388623D01*
X144204563Y-91372660D01*
X144245816Y-91356765D01*
X144285705Y-91340673D01*
X144324801Y-91324116D01*
X144363675Y-91306830D01*
X144402901Y-91288548D01*
X144443048Y-91269003D01*
X144484690Y-91247929D01*
X144528398Y-91225061D01*
X144574743Y-91200131D01*
X144624297Y-91172875D01*
X144677632Y-91143025D01*
X144735320Y-91110316D01*
X144797932Y-91074481D01*
X144862694Y-91037185D01*
X144912887Y-91008257D01*
X144957657Y-90982550D01*
X144997661Y-90959702D01*
X145033555Y-90939352D01*
X145065994Y-90921137D01*
X145095635Y-90904697D01*
X145123134Y-90889670D01*
X145149147Y-90875693D01*
X145174330Y-90862406D01*
X145199338Y-90849446D01*
X145224828Y-90836451D01*
X145247222Y-90825180D01*
X145312539Y-90793259D01*
X145373326Y-90765298D01*
X145430631Y-90740936D01*
X145485499Y-90719812D01*
X145538978Y-90701564D01*
X145592115Y-90685831D01*
X145645957Y-90672252D01*
X145701551Y-90660463D01*
X145749025Y-90651906D01*
X145808301Y-90642525D01*
X145862886Y-90635151D01*
X145914804Y-90629623D01*
X145966074Y-90625777D01*
X146018721Y-90623450D01*
X146074766Y-90622478D01*
X146113292Y-90622491D01*
X146139880Y-90622691D01*
X146164924Y-90622949D01*
X146187330Y-90623249D01*
X146206003Y-90623574D01*
X146219851Y-90623908D01*
X146227777Y-90624233D01*
X146227944Y-90624245D01*
X146318991Y-90633260D01*
X146408800Y-90646904D01*
X146496515Y-90664958D01*
X146581282Y-90687202D01*
X146662244Y-90713417D01*
X146738545Y-90743381D01*
X146796209Y-90770183D01*
X146882043Y-90817081D01*
X146965670Y-90870623D01*
X147047012Y-90930727D01*
X147125994Y-90997310D01*
X147202539Y-91070292D01*
X147276571Y-91149589D01*
X147348015Y-91235121D01*
X147416793Y-91326804D01*
X147482829Y-91424558D01*
X147546048Y-91528299D01*
X147606373Y-91637947D01*
X147610700Y-91646254D01*
X147647707Y-91721266D01*
X147682221Y-91799011D01*
X147714600Y-91880420D01*
X147745202Y-91966426D01*
X147774388Y-92057961D01*
X147790890Y-92114242D01*
X147798457Y-92140831D01*
X148044194Y-92239956D01*
X148083671Y-92255931D01*
X148121187Y-92271209D01*
X148156234Y-92285578D01*
X148188306Y-92298827D01*
X148216898Y-92310743D01*
X148241502Y-92321113D01*
X148261612Y-92329726D01*
X148276722Y-92336370D01*
X148286326Y-92340832D01*
X148289917Y-92342899D01*
X148289931Y-92342945D01*
X148287356Y-92345822D01*
X148279885Y-92353035D01*
X148267902Y-92364238D01*
X148251787Y-92379083D01*
X148231922Y-92397224D01*
X148208690Y-92418314D01*
X148182471Y-92442006D01*
X148153649Y-92467952D01*
X148122605Y-92495807D01*
X148089720Y-92525222D01*
X148064153Y-92548034D01*
X147838375Y-92749259D01*
X147823997Y-92788978D01*
X147795662Y-92859052D01*
X147762414Y-92925955D01*
X147723848Y-92990293D01*
X147679555Y-93052676D01*
X147629130Y-93113713D01*
X147572165Y-93174010D01*
X147555776Y-93190083D01*
X147488462Y-93250261D01*
X147415870Y-93305941D01*
X147338266Y-93356990D01*
X147255914Y-93403278D01*
X147169079Y-93444670D01*
X147078026Y-93481036D01*
X146983021Y-93512242D01*
X146884329Y-93538158D01*
X146838250Y-93548166D01*
X146793853Y-93556803D01*
X146754131Y-93563573D01*
X146717021Y-93568705D01*
X146680460Y-93572428D01*
X146642386Y-93574971D01*
X146600735Y-93576561D01*
X146577194Y-93577084D01*
X146530426Y-93577507D01*
X146488969Y-93576897D01*
D12*
X134550000Y-103700000D03*
D13*
X134550000Y-106240000D03*
D12*
X134550000Y-108780000D03*
D13*
X134550000Y-111320000D03*
D14*
X158461920Y-94250000D03*
X158461920Y-93599760D03*
X158461920Y-92949520D03*
X155800000Y-92949520D03*
X155800000Y-93599760D03*
X155800000Y-94250000D03*
X164300000Y-98250000D03*
X164300000Y-97599760D03*
X164300000Y-96949520D03*
X161638080Y-96949520D03*
X161638080Y-97599760D03*
X161638080Y-98250000D03*
X158611920Y-96700000D03*
X158611920Y-96049760D03*
X158611920Y-95399520D03*
X155950000Y-95399520D03*
X155950000Y-96049760D03*
X155950000Y-96700000D03*
D15*
X152250000Y-105850000D03*
X152250000Y-109850000D03*
D16*
X157800000Y-123500700D03*
X157800000Y-124999300D03*
D17*
X156050000Y-124750000D03*
X156050000Y-122550000D03*
D13*
X131500000Y-111300000D03*
D12*
X131500000Y-108760000D03*
D13*
X131500000Y-106220000D03*
D12*
X131500000Y-103680000D03*
D18*
X134650000Y-113890000D03*
D19*
X137190000Y-113890000D03*
X139730000Y-113890000D03*
X142270000Y-113890000D03*
X144810000Y-113890000D03*
X147350000Y-113890000D03*
D18*
X147400000Y-101200000D03*
D19*
X144860000Y-101200000D03*
X142320000Y-101200000D03*
X139780000Y-101200000D03*
X137240000Y-101200000D03*
D18*
X134700000Y-101200000D03*
D20*
X147400000Y-109140000D03*
D21*
X147400000Y-106600000D03*
D22*
X161190000Y-100200000D03*
X161190000Y-100600000D03*
X161190000Y-101000000D03*
X161190000Y-101400000D03*
X161190000Y-101800000D03*
X161190000Y-102200000D03*
X161190000Y-102600000D03*
X161190000Y-103000000D03*
X161190000Y-103400000D03*
X161190000Y-103800000D03*
X161190000Y-107800000D03*
X161190000Y-107400000D03*
X161190000Y-107000000D03*
X161190000Y-106600000D03*
X161190000Y-106200000D03*
X161190000Y-105800000D03*
X161190000Y-105400000D03*
X161190000Y-105000000D03*
X161190000Y-104600000D03*
X161190000Y-104200000D03*
X161190000Y-108200000D03*
X161190000Y-108600000D03*
X161190000Y-109000000D03*
X161190000Y-109400000D03*
X161190000Y-109800000D03*
X161190000Y-110200000D03*
X161190000Y-110600000D03*
X161190000Y-111000000D03*
X161190000Y-111400000D03*
X161190000Y-111800000D03*
X161190000Y-115800000D03*
X161190000Y-115400000D03*
X161190000Y-115000000D03*
X161190000Y-114600000D03*
X161190000Y-114200000D03*
X161190000Y-113800000D03*
X161190000Y-113400000D03*
X161190000Y-113000000D03*
X161190000Y-112600000D03*
X161190000Y-112200000D03*
X158110000Y-112200000D03*
X158110000Y-112600000D03*
X158110000Y-113000000D03*
X158110000Y-113400000D03*
X158110000Y-113800000D03*
X158110000Y-114200000D03*
X158110000Y-114600000D03*
X158110000Y-115000000D03*
X158110000Y-115400000D03*
X158110000Y-115800000D03*
X158110000Y-111800000D03*
X158110000Y-111400000D03*
X158110000Y-111000000D03*
X158110000Y-110600000D03*
X158110000Y-110200000D03*
X158110000Y-109800000D03*
X158110000Y-109400000D03*
X158110000Y-109000000D03*
X158110000Y-108600000D03*
X158110000Y-108200000D03*
X158110000Y-104200000D03*
X158110000Y-104600000D03*
X158110000Y-105000000D03*
X158110000Y-105400000D03*
X158110000Y-105800000D03*
X158110000Y-106200000D03*
X158110000Y-106600000D03*
X158110000Y-107000000D03*
X158110000Y-107400000D03*
X158110000Y-107800000D03*
X158110000Y-103800000D03*
X158110000Y-103400000D03*
X158110000Y-103000000D03*
X158110000Y-102600000D03*
X158110000Y-102200000D03*
X158110000Y-101800000D03*
X158110000Y-101400000D03*
X158110000Y-101000000D03*
X158110000Y-100600000D03*
X158110000Y-100200000D03*
M02*
