G04 #@! TF.FileFunction,Copper,L2,Bot,Signal*
%FSLAX46Y46*%
G04 Gerber Fmt 4.6, Leading zero omitted, Abs format (unit mm)*
G04 Created by KiCad (PCBNEW (2015-11-03 BZR 6296)-product) date Monday, December 21, 2015 'PMt' 04:07:47 PM*
%MOMM*%
G01*
G04 APERTURE LIST*
%ADD10C,0.100000*%
%ADD11C,0.010000*%
%ADD12O,2.032000X1.727200*%
%ADD13R,2.032000X1.727200*%
%ADD14R,0.660000X0.230000*%
%ADD15R,0.660000X0.350000*%
%ADD16R,1.200000X0.750000*%
%ADD17R,0.750000X0.300000*%
%ADD18R,0.875000X0.725000*%
%ADD19R,1.200000X0.900000*%
%ADD20C,1.524000*%
%ADD21R,1.727200X2.032000*%
%ADD22O,1.727200X2.032000*%
%ADD23R,2.032000X2.032000*%
%ADD24O,2.032000X2.032000*%
%ADD25C,0.685800*%
%ADD26C,0.685801*%
%ADD27C,0.152400*%
%ADD28C,0.254000*%
G04 APERTURE END LIST*
D10*
D11*
G36*
X141609423Y-93494931D02*
X141641094Y-93494428D01*
X141668725Y-93493379D01*
X141693824Y-93491660D01*
X141717893Y-93489149D01*
X141742439Y-93485724D01*
X141768967Y-93481260D01*
X141790931Y-93477185D01*
X141849786Y-93464422D01*
X141910883Y-93448355D01*
X141971336Y-93429818D01*
X142028260Y-93409646D01*
X142039639Y-93405223D01*
X142082817Y-93388030D01*
X142125192Y-93370892D01*
X142167150Y-93353630D01*
X142209080Y-93336063D01*
X142251369Y-93318011D01*
X142294404Y-93299293D01*
X142338573Y-93279729D01*
X142384265Y-93259138D01*
X142431866Y-93237341D01*
X142481764Y-93214156D01*
X142534347Y-93189403D01*
X142590003Y-93162901D01*
X142649118Y-93134472D01*
X142712082Y-93103933D01*
X142779280Y-93071104D01*
X142851102Y-93035806D01*
X142927935Y-92997857D01*
X143010166Y-92957077D01*
X143098183Y-92913286D01*
X143120903Y-92901963D01*
X143199183Y-92863019D01*
X143271702Y-92827120D01*
X143338949Y-92794039D01*
X143401415Y-92763552D01*
X143459589Y-92735433D01*
X143513962Y-92709455D01*
X143565024Y-92685394D01*
X143613265Y-92663022D01*
X143659175Y-92642115D01*
X143703244Y-92622447D01*
X143745962Y-92603792D01*
X143787819Y-92585924D01*
X143829306Y-92568618D01*
X143870912Y-92551647D01*
X143913128Y-92534787D01*
X143946403Y-92521719D01*
X143969926Y-92512482D01*
X143991319Y-92503963D01*
X144009688Y-92496527D01*
X144024143Y-92490540D01*
X144033791Y-92486365D01*
X144037732Y-92484376D01*
X144037199Y-92480281D01*
X144031987Y-92472263D01*
X144022739Y-92461032D01*
X144010100Y-92447296D01*
X143994712Y-92431764D01*
X143977219Y-92415145D01*
X143964178Y-92403343D01*
X143896199Y-92347242D01*
X143821764Y-92293747D01*
X143740994Y-92242914D01*
X143654011Y-92194800D01*
X143560938Y-92149462D01*
X143461897Y-92106957D01*
X143357009Y-92067342D01*
X143246398Y-92030673D01*
X143130185Y-91997008D01*
X143043292Y-91974704D01*
X142942697Y-91951462D01*
X142847709Y-91932133D01*
X142758081Y-91916697D01*
X142673561Y-91905132D01*
X142593901Y-91897420D01*
X142518851Y-91893538D01*
X142448163Y-91893465D01*
X142381587Y-91897182D01*
X142318874Y-91904668D01*
X142281082Y-91911340D01*
X142220450Y-91926252D01*
X142165094Y-91945633D01*
X142115086Y-91969410D01*
X142070499Y-91997509D01*
X142031404Y-92029858D01*
X141997873Y-92066383D01*
X141969979Y-92107012D01*
X141947795Y-92151671D01*
X141931392Y-92200287D01*
X141920842Y-92252786D01*
X141917903Y-92279060D01*
X141917085Y-92290167D01*
X141916149Y-92298302D01*
X141914111Y-92304006D01*
X141909991Y-92307822D01*
X141902806Y-92310290D01*
X141891575Y-92311954D01*
X141875315Y-92313354D01*
X141853045Y-92315033D01*
X141852667Y-92315063D01*
X141825115Y-92317290D01*
X141803944Y-92319184D01*
X141788491Y-92320834D01*
X141778094Y-92322327D01*
X141772090Y-92323751D01*
X141769817Y-92325193D01*
X141769918Y-92326026D01*
X141767973Y-92327335D01*
X141761139Y-92327560D01*
X141751468Y-92326886D01*
X141741010Y-92325503D01*
X141731817Y-92323597D01*
X141727431Y-92322141D01*
X141721923Y-92320624D01*
X141710616Y-92318164D01*
X141694669Y-92314992D01*
X141675241Y-92311335D01*
X141653489Y-92307422D01*
X141648056Y-92306471D01*
X141566570Y-92292964D01*
X141489154Y-92281591D01*
X141413266Y-92272013D01*
X141336367Y-92263891D01*
X141312917Y-92261706D01*
X141290487Y-92260112D01*
X141263281Y-92258879D01*
X141232652Y-92258007D01*
X141199951Y-92257496D01*
X141166529Y-92257348D01*
X141133738Y-92257562D01*
X141102930Y-92258139D01*
X141075455Y-92259080D01*
X141052666Y-92260385D01*
X141039514Y-92261598D01*
X140966686Y-92271253D01*
X140895829Y-92283140D01*
X140825068Y-92297651D01*
X140752527Y-92315178D01*
X140676331Y-92336110D01*
X140660857Y-92340632D01*
X140638243Y-92347425D01*
X140621577Y-92352778D01*
X140609982Y-92357041D01*
X140602578Y-92360562D01*
X140598490Y-92363691D01*
X140597057Y-92366032D01*
X140596091Y-92371145D01*
X140594509Y-92382439D01*
X140592410Y-92399075D01*
X140589895Y-92420217D01*
X140587063Y-92445025D01*
X140584013Y-92472662D01*
X140580918Y-92501608D01*
X140577321Y-92535601D01*
X140574435Y-92563243D01*
X140572312Y-92585209D01*
X140571001Y-92602170D01*
X140570553Y-92614802D01*
X140571018Y-92623777D01*
X140572447Y-92629770D01*
X140574890Y-92633453D01*
X140578397Y-92635501D01*
X140583018Y-92636587D01*
X140588805Y-92637385D01*
X140591091Y-92637717D01*
X140602337Y-92639746D01*
X140619389Y-92643203D01*
X140641193Y-92647849D01*
X140666700Y-92653445D01*
X140694858Y-92659751D01*
X140724615Y-92666529D01*
X140754921Y-92673539D01*
X140784725Y-92680543D01*
X140812975Y-92687300D01*
X140838620Y-92693573D01*
X140857833Y-92698407D01*
X140960462Y-92725766D01*
X141056453Y-92753603D01*
X141146213Y-92782055D01*
X141230153Y-92811258D01*
X141308680Y-92841350D01*
X141382203Y-92872466D01*
X141394056Y-92877787D01*
X141464730Y-92912240D01*
X141536700Y-92951978D01*
X141608246Y-92995908D01*
X141677648Y-93042934D01*
X141743190Y-93091963D01*
X141787403Y-93128214D01*
X141805065Y-93143577D01*
X141823398Y-93159988D01*
X141841684Y-93176756D01*
X141859206Y-93193190D01*
X141875249Y-93208599D01*
X141889095Y-93222291D01*
X141900027Y-93233576D01*
X141907329Y-93241762D01*
X141910283Y-93246159D01*
X141910219Y-93246632D01*
X141904114Y-93249881D01*
X141892137Y-93254203D01*
X141875347Y-93259337D01*
X141854801Y-93265020D01*
X141831556Y-93270989D01*
X141806670Y-93276981D01*
X141781199Y-93282735D01*
X141756201Y-93287987D01*
X141732732Y-93292474D01*
X141711852Y-93295935D01*
X141711556Y-93295979D01*
X141656513Y-93302523D01*
X141602179Y-93305577D01*
X141547039Y-93305107D01*
X141489581Y-93301077D01*
X141428289Y-93293452D01*
X141398461Y-93288739D01*
X141305204Y-93270150D01*
X141215771Y-93246293D01*
X141130377Y-93217275D01*
X141049234Y-93183203D01*
X140972557Y-93144182D01*
X140900558Y-93100319D01*
X140833451Y-93051720D01*
X140771449Y-92998491D01*
X140727949Y-92955085D01*
X140685574Y-92906444D01*
X140647536Y-92855667D01*
X140614493Y-92803770D01*
X140587105Y-92751770D01*
X140569656Y-92710645D01*
X140564680Y-92698231D01*
X140560056Y-92688063D01*
X140556789Y-92682348D01*
X140553532Y-92679042D01*
X140545631Y-92671330D01*
X140533561Y-92659666D01*
X140517793Y-92644504D01*
X140498801Y-92626296D01*
X140477057Y-92605496D01*
X140453034Y-92582558D01*
X140427205Y-92557935D01*
X140408042Y-92539691D01*
X140381341Y-92514263D01*
X140356208Y-92490288D01*
X140333104Y-92468206D01*
X140312486Y-92448460D01*
X140294813Y-92431487D01*
X140280545Y-92417730D01*
X140270139Y-92407629D01*
X140264055Y-92401624D01*
X140262607Y-92400078D01*
X140265572Y-92398301D01*
X140274384Y-92393948D01*
X140288436Y-92387299D01*
X140307123Y-92378632D01*
X140329836Y-92368227D01*
X140355972Y-92356363D01*
X140384923Y-92343317D01*
X140416083Y-92329370D01*
X140423468Y-92326077D01*
X140585126Y-92254058D01*
X140601981Y-92193786D01*
X140610094Y-92165801D01*
X140619941Y-92133466D01*
X140630916Y-92098653D01*
X140642411Y-92063238D01*
X140653817Y-92029093D01*
X140664527Y-91998093D01*
X140673511Y-91973243D01*
X140678959Y-91959557D01*
X140683479Y-91951083D01*
X140688136Y-91946267D01*
X140693830Y-91943608D01*
X140701132Y-91942442D01*
X140714453Y-91941504D01*
X140732760Y-91940791D01*
X140755020Y-91940303D01*
X140780201Y-91940035D01*
X140807269Y-91939987D01*
X140835192Y-91940155D01*
X140862937Y-91940539D01*
X140889472Y-91941134D01*
X140913763Y-91941940D01*
X140934777Y-91942954D01*
X140951319Y-91944159D01*
X141114261Y-91961788D01*
X141214139Y-91975162D01*
X141256859Y-91981600D01*
X141293678Y-91987900D01*
X141325734Y-91994376D01*
X141354167Y-92001339D01*
X141380116Y-92009101D01*
X141404721Y-92017975D01*
X141429122Y-92028273D01*
X141454457Y-92040306D01*
X141457556Y-92041853D01*
X141513115Y-92073187D01*
X141567664Y-92110789D01*
X141620233Y-92153872D01*
X141669852Y-92201647D01*
X141710314Y-92246958D01*
X141728347Y-92268681D01*
X141730748Y-92243431D01*
X141737775Y-92196009D01*
X141749681Y-92146832D01*
X141765802Y-92097776D01*
X141785477Y-92050718D01*
X141808042Y-92007537D01*
X141821719Y-91985711D01*
X141859340Y-91935994D01*
X141902141Y-91890997D01*
X141950037Y-91850749D01*
X142002937Y-91815277D01*
X142060757Y-91784611D01*
X142123406Y-91758777D01*
X142190799Y-91737803D01*
X142262848Y-91721718D01*
X142339465Y-91710549D01*
X142420562Y-91704324D01*
X142506053Y-91703071D01*
X142595848Y-91706818D01*
X142674639Y-91713861D01*
X142747782Y-91723178D01*
X142825875Y-91735491D01*
X142907621Y-91750519D01*
X142991724Y-91767976D01*
X143076887Y-91787582D01*
X143161813Y-91809051D01*
X143245205Y-91832101D01*
X143321986Y-91855255D01*
X143419460Y-91887888D01*
X143513786Y-91923330D01*
X143604613Y-91961371D01*
X143691592Y-92001797D01*
X143774372Y-92044400D01*
X143852604Y-92088966D01*
X143925937Y-92135286D01*
X143994021Y-92183147D01*
X144056506Y-92232339D01*
X144113041Y-92282650D01*
X144163278Y-92333869D01*
X144206865Y-92385785D01*
X144211516Y-92391897D01*
X144221132Y-92404324D01*
X144227892Y-92411896D01*
X144232929Y-92415578D01*
X144237377Y-92416336D01*
X144239726Y-92415921D01*
X144259163Y-92411612D01*
X144284240Y-92406930D01*
X144313568Y-92402078D01*
X144345757Y-92397263D01*
X144379415Y-92392687D01*
X144413152Y-92388557D01*
X144445578Y-92385077D01*
X144456167Y-92384068D01*
X144487905Y-92381538D01*
X144519888Y-92379816D01*
X144552791Y-92378933D01*
X144587290Y-92378920D01*
X144624060Y-92379806D01*
X144663775Y-92381623D01*
X144707113Y-92384401D01*
X144754746Y-92388171D01*
X144807352Y-92392963D01*
X144865605Y-92398808D01*
X144927125Y-92405400D01*
X145016165Y-92415763D01*
X145111639Y-92427982D01*
X145213193Y-92441993D01*
X145320469Y-92457731D01*
X145433115Y-92475132D01*
X145550774Y-92494133D01*
X145673091Y-92514668D01*
X145799712Y-92536674D01*
X145930280Y-92560086D01*
X146064441Y-92584840D01*
X146201840Y-92610872D01*
X146342121Y-92638118D01*
X146484930Y-92666514D01*
X146629911Y-92695994D01*
X146776709Y-92726495D01*
X146924969Y-92757954D01*
X147074335Y-92790304D01*
X147161972Y-92809592D01*
X147206466Y-92819446D01*
X147244684Y-92827733D01*
X147277258Y-92834320D01*
X147304823Y-92839072D01*
X147328011Y-92841854D01*
X147347455Y-92842532D01*
X147363788Y-92840972D01*
X147377642Y-92837038D01*
X147389652Y-92830596D01*
X147400449Y-92821512D01*
X147410667Y-92809652D01*
X147420938Y-92794880D01*
X147431896Y-92777062D01*
X147444174Y-92756064D01*
X147448453Y-92748705D01*
X147485722Y-92682928D01*
X147520654Y-92617678D01*
X147552855Y-92553786D01*
X147581929Y-92492085D01*
X147607481Y-92433406D01*
X147629117Y-92378581D01*
X147642982Y-92339141D01*
X147658442Y-92286728D01*
X147669158Y-92237816D01*
X147675158Y-92192633D01*
X147676469Y-92151406D01*
X147673119Y-92114365D01*
X147665134Y-92081738D01*
X147652543Y-92053753D01*
X147635372Y-92030638D01*
X147613649Y-92012622D01*
X147603124Y-92006605D01*
X147592991Y-92001846D01*
X147581941Y-91997476D01*
X147569615Y-91993467D01*
X147555657Y-91989791D01*
X147539709Y-91986419D01*
X147521413Y-91983323D01*
X147500414Y-91980476D01*
X147476352Y-91977848D01*
X147448872Y-91975413D01*
X147417615Y-91973141D01*
X147382225Y-91971005D01*
X147342343Y-91968977D01*
X147297613Y-91967027D01*
X147247677Y-91965129D01*
X147192178Y-91963254D01*
X147130759Y-91961374D01*
X147063062Y-91959460D01*
X146988731Y-91957485D01*
X146975000Y-91957131D01*
X146852923Y-91953793D01*
X146737344Y-91950214D01*
X146627707Y-91946361D01*
X146523456Y-91942206D01*
X146424037Y-91937716D01*
X146328895Y-91932862D01*
X146237474Y-91927612D01*
X146149219Y-91921936D01*
X146063574Y-91915804D01*
X145979985Y-91909184D01*
X145897897Y-91902046D01*
X145816754Y-91894360D01*
X145789667Y-91891655D01*
X145660967Y-91877823D01*
X145536502Y-91862727D01*
X145415523Y-91846195D01*
X145297281Y-91828059D01*
X145181028Y-91808149D01*
X145066016Y-91786295D01*
X144951496Y-91762329D01*
X144836721Y-91736080D01*
X144720941Y-91707380D01*
X144603408Y-91676058D01*
X144483373Y-91641946D01*
X144360090Y-91604873D01*
X144232808Y-91564671D01*
X144100780Y-91521170D01*
X143995792Y-91485449D01*
X143945932Y-91467941D01*
X143898400Y-91450515D01*
X143852527Y-91432850D01*
X143807643Y-91414626D01*
X143763080Y-91395524D01*
X143718167Y-91375221D01*
X143672235Y-91353399D01*
X143624615Y-91329737D01*
X143574637Y-91303915D01*
X143521633Y-91275612D01*
X143464932Y-91244508D01*
X143403865Y-91210283D01*
X143337763Y-91172616D01*
X143316694Y-91160507D01*
X143258073Y-91126777D01*
X143205102Y-91096349D01*
X143157334Y-91068975D01*
X143114321Y-91044409D01*
X143075616Y-91022404D01*
X143040771Y-91002713D01*
X143009338Y-90985090D01*
X142980870Y-90969286D01*
X142954919Y-90955056D01*
X142931037Y-90942152D01*
X142908777Y-90930328D01*
X142887692Y-90919336D01*
X142867332Y-90908930D01*
X142847252Y-90898862D01*
X142827003Y-90888887D01*
X142806138Y-90878756D01*
X142804306Y-90877872D01*
X142736867Y-90846435D01*
X142673250Y-90819181D01*
X142612082Y-90795718D01*
X142551992Y-90775655D01*
X142491609Y-90758598D01*
X142429560Y-90744156D01*
X142364474Y-90731936D01*
X142294978Y-90721546D01*
X142230139Y-90713721D01*
X142189152Y-90709961D01*
X142143206Y-90707001D01*
X142094358Y-90704895D01*
X142044663Y-90703699D01*
X141996179Y-90703468D01*
X141950962Y-90704256D01*
X141921458Y-90705492D01*
X141841912Y-90712135D01*
X141761456Y-90723257D01*
X141681278Y-90738557D01*
X141602567Y-90757737D01*
X141526511Y-90780499D01*
X141454298Y-90806544D01*
X141387116Y-90835573D01*
X141369008Y-90844375D01*
X141288028Y-90888628D01*
X141208806Y-90939592D01*
X141131482Y-90997107D01*
X141056195Y-91061017D01*
X140983086Y-91131164D01*
X140912295Y-91207390D01*
X140843960Y-91289537D01*
X140778223Y-91377448D01*
X140715222Y-91470964D01*
X140655097Y-91569930D01*
X140597989Y-91674186D01*
X140552897Y-91764799D01*
X140534559Y-91804713D01*
X140516937Y-91846078D01*
X140499526Y-91890186D01*
X140481819Y-91938328D01*
X140463310Y-91991796D01*
X140458965Y-92004750D01*
X140451296Y-92028196D01*
X140443193Y-92053786D01*
X140435008Y-92080327D01*
X140427093Y-92106627D01*
X140419801Y-92131492D01*
X140413485Y-92153731D01*
X140408496Y-92172152D01*
X140405187Y-92185560D01*
X140404378Y-92189442D01*
X140402209Y-92201004D01*
X140197595Y-92283572D01*
X140161615Y-92298117D01*
X140127607Y-92311915D01*
X140096132Y-92324734D01*
X140067748Y-92336346D01*
X140043014Y-92346520D01*
X140022490Y-92355026D01*
X140006734Y-92361633D01*
X139996307Y-92366111D01*
X139991768Y-92368231D01*
X139991619Y-92368344D01*
X139993960Y-92370994D01*
X140001162Y-92377950D01*
X140012812Y-92388837D01*
X140028495Y-92403276D01*
X140047797Y-92420892D01*
X140070304Y-92441306D01*
X140095601Y-92464141D01*
X140123274Y-92489021D01*
X140152909Y-92515568D01*
X140178286Y-92538231D01*
X140214302Y-92570360D01*
X140245416Y-92598154D01*
X140271998Y-92621967D01*
X140294415Y-92642152D01*
X140313038Y-92659065D01*
X140328235Y-92673058D01*
X140340376Y-92684487D01*
X140349830Y-92693706D01*
X140356965Y-92701069D01*
X140362152Y-92706929D01*
X140365759Y-92711642D01*
X140368156Y-92715561D01*
X140369712Y-92719041D01*
X140370795Y-92722435D01*
X140370979Y-92723103D01*
X140377388Y-92743652D01*
X140386490Y-92768602D01*
X140397560Y-92796184D01*
X140409874Y-92824625D01*
X140422705Y-92852157D01*
X140429300Y-92865446D01*
X140461749Y-92923655D01*
X140498977Y-92979780D01*
X140541666Y-93034751D01*
X140590499Y-93089498D01*
X140603642Y-93103151D01*
X140659151Y-93156690D01*
X140716431Y-93205173D01*
X140776685Y-93249469D01*
X140841117Y-93290443D01*
X140910931Y-93328963D01*
X140931917Y-93339580D01*
X140999971Y-93371452D01*
X141067985Y-93399287D01*
X141137187Y-93423459D01*
X141208807Y-93444341D01*
X141284072Y-93462308D01*
X141364212Y-93477732D01*
X141410680Y-93485248D01*
X141430516Y-93488168D01*
X141447844Y-93490434D01*
X141464061Y-93492130D01*
X141480562Y-93493341D01*
X141498742Y-93494152D01*
X141519998Y-93494645D01*
X141545724Y-93494906D01*
X141572208Y-93495009D01*
X141609423Y-93494931D01*
X141609423Y-93494931D01*
G37*
X141609423Y-93494931D02*
X141641094Y-93494428D01*
X141668725Y-93493379D01*
X141693824Y-93491660D01*
X141717893Y-93489149D01*
X141742439Y-93485724D01*
X141768967Y-93481260D01*
X141790931Y-93477185D01*
X141849786Y-93464422D01*
X141910883Y-93448355D01*
X141971336Y-93429818D01*
X142028260Y-93409646D01*
X142039639Y-93405223D01*
X142082817Y-93388030D01*
X142125192Y-93370892D01*
X142167150Y-93353630D01*
X142209080Y-93336063D01*
X142251369Y-93318011D01*
X142294404Y-93299293D01*
X142338573Y-93279729D01*
X142384265Y-93259138D01*
X142431866Y-93237341D01*
X142481764Y-93214156D01*
X142534347Y-93189403D01*
X142590003Y-93162901D01*
X142649118Y-93134472D01*
X142712082Y-93103933D01*
X142779280Y-93071104D01*
X142851102Y-93035806D01*
X142927935Y-92997857D01*
X143010166Y-92957077D01*
X143098183Y-92913286D01*
X143120903Y-92901963D01*
X143199183Y-92863019D01*
X143271702Y-92827120D01*
X143338949Y-92794039D01*
X143401415Y-92763552D01*
X143459589Y-92735433D01*
X143513962Y-92709455D01*
X143565024Y-92685394D01*
X143613265Y-92663022D01*
X143659175Y-92642115D01*
X143703244Y-92622447D01*
X143745962Y-92603792D01*
X143787819Y-92585924D01*
X143829306Y-92568618D01*
X143870912Y-92551647D01*
X143913128Y-92534787D01*
X143946403Y-92521719D01*
X143969926Y-92512482D01*
X143991319Y-92503963D01*
X144009688Y-92496527D01*
X144024143Y-92490540D01*
X144033791Y-92486365D01*
X144037732Y-92484376D01*
X144037199Y-92480281D01*
X144031987Y-92472263D01*
X144022739Y-92461032D01*
X144010100Y-92447296D01*
X143994712Y-92431764D01*
X143977219Y-92415145D01*
X143964178Y-92403343D01*
X143896199Y-92347242D01*
X143821764Y-92293747D01*
X143740994Y-92242914D01*
X143654011Y-92194800D01*
X143560938Y-92149462D01*
X143461897Y-92106957D01*
X143357009Y-92067342D01*
X143246398Y-92030673D01*
X143130185Y-91997008D01*
X143043292Y-91974704D01*
X142942697Y-91951462D01*
X142847709Y-91932133D01*
X142758081Y-91916697D01*
X142673561Y-91905132D01*
X142593901Y-91897420D01*
X142518851Y-91893538D01*
X142448163Y-91893465D01*
X142381587Y-91897182D01*
X142318874Y-91904668D01*
X142281082Y-91911340D01*
X142220450Y-91926252D01*
X142165094Y-91945633D01*
X142115086Y-91969410D01*
X142070499Y-91997509D01*
X142031404Y-92029858D01*
X141997873Y-92066383D01*
X141969979Y-92107012D01*
X141947795Y-92151671D01*
X141931392Y-92200287D01*
X141920842Y-92252786D01*
X141917903Y-92279060D01*
X141917085Y-92290167D01*
X141916149Y-92298302D01*
X141914111Y-92304006D01*
X141909991Y-92307822D01*
X141902806Y-92310290D01*
X141891575Y-92311954D01*
X141875315Y-92313354D01*
X141853045Y-92315033D01*
X141852667Y-92315063D01*
X141825115Y-92317290D01*
X141803944Y-92319184D01*
X141788491Y-92320834D01*
X141778094Y-92322327D01*
X141772090Y-92323751D01*
X141769817Y-92325193D01*
X141769918Y-92326026D01*
X141767973Y-92327335D01*
X141761139Y-92327560D01*
X141751468Y-92326886D01*
X141741010Y-92325503D01*
X141731817Y-92323597D01*
X141727431Y-92322141D01*
X141721923Y-92320624D01*
X141710616Y-92318164D01*
X141694669Y-92314992D01*
X141675241Y-92311335D01*
X141653489Y-92307422D01*
X141648056Y-92306471D01*
X141566570Y-92292964D01*
X141489154Y-92281591D01*
X141413266Y-92272013D01*
X141336367Y-92263891D01*
X141312917Y-92261706D01*
X141290487Y-92260112D01*
X141263281Y-92258879D01*
X141232652Y-92258007D01*
X141199951Y-92257496D01*
X141166529Y-92257348D01*
X141133738Y-92257562D01*
X141102930Y-92258139D01*
X141075455Y-92259080D01*
X141052666Y-92260385D01*
X141039514Y-92261598D01*
X140966686Y-92271253D01*
X140895829Y-92283140D01*
X140825068Y-92297651D01*
X140752527Y-92315178D01*
X140676331Y-92336110D01*
X140660857Y-92340632D01*
X140638243Y-92347425D01*
X140621577Y-92352778D01*
X140609982Y-92357041D01*
X140602578Y-92360562D01*
X140598490Y-92363691D01*
X140597057Y-92366032D01*
X140596091Y-92371145D01*
X140594509Y-92382439D01*
X140592410Y-92399075D01*
X140589895Y-92420217D01*
X140587063Y-92445025D01*
X140584013Y-92472662D01*
X140580918Y-92501608D01*
X140577321Y-92535601D01*
X140574435Y-92563243D01*
X140572312Y-92585209D01*
X140571001Y-92602170D01*
X140570553Y-92614802D01*
X140571018Y-92623777D01*
X140572447Y-92629770D01*
X140574890Y-92633453D01*
X140578397Y-92635501D01*
X140583018Y-92636587D01*
X140588805Y-92637385D01*
X140591091Y-92637717D01*
X140602337Y-92639746D01*
X140619389Y-92643203D01*
X140641193Y-92647849D01*
X140666700Y-92653445D01*
X140694858Y-92659751D01*
X140724615Y-92666529D01*
X140754921Y-92673539D01*
X140784725Y-92680543D01*
X140812975Y-92687300D01*
X140838620Y-92693573D01*
X140857833Y-92698407D01*
X140960462Y-92725766D01*
X141056453Y-92753603D01*
X141146213Y-92782055D01*
X141230153Y-92811258D01*
X141308680Y-92841350D01*
X141382203Y-92872466D01*
X141394056Y-92877787D01*
X141464730Y-92912240D01*
X141536700Y-92951978D01*
X141608246Y-92995908D01*
X141677648Y-93042934D01*
X141743190Y-93091963D01*
X141787403Y-93128214D01*
X141805065Y-93143577D01*
X141823398Y-93159988D01*
X141841684Y-93176756D01*
X141859206Y-93193190D01*
X141875249Y-93208599D01*
X141889095Y-93222291D01*
X141900027Y-93233576D01*
X141907329Y-93241762D01*
X141910283Y-93246159D01*
X141910219Y-93246632D01*
X141904114Y-93249881D01*
X141892137Y-93254203D01*
X141875347Y-93259337D01*
X141854801Y-93265020D01*
X141831556Y-93270989D01*
X141806670Y-93276981D01*
X141781199Y-93282735D01*
X141756201Y-93287987D01*
X141732732Y-93292474D01*
X141711852Y-93295935D01*
X141711556Y-93295979D01*
X141656513Y-93302523D01*
X141602179Y-93305577D01*
X141547039Y-93305107D01*
X141489581Y-93301077D01*
X141428289Y-93293452D01*
X141398461Y-93288739D01*
X141305204Y-93270150D01*
X141215771Y-93246293D01*
X141130377Y-93217275D01*
X141049234Y-93183203D01*
X140972557Y-93144182D01*
X140900558Y-93100319D01*
X140833451Y-93051720D01*
X140771449Y-92998491D01*
X140727949Y-92955085D01*
X140685574Y-92906444D01*
X140647536Y-92855667D01*
X140614493Y-92803770D01*
X140587105Y-92751770D01*
X140569656Y-92710645D01*
X140564680Y-92698231D01*
X140560056Y-92688063D01*
X140556789Y-92682348D01*
X140553532Y-92679042D01*
X140545631Y-92671330D01*
X140533561Y-92659666D01*
X140517793Y-92644504D01*
X140498801Y-92626296D01*
X140477057Y-92605496D01*
X140453034Y-92582558D01*
X140427205Y-92557935D01*
X140408042Y-92539691D01*
X140381341Y-92514263D01*
X140356208Y-92490288D01*
X140333104Y-92468206D01*
X140312486Y-92448460D01*
X140294813Y-92431487D01*
X140280545Y-92417730D01*
X140270139Y-92407629D01*
X140264055Y-92401624D01*
X140262607Y-92400078D01*
X140265572Y-92398301D01*
X140274384Y-92393948D01*
X140288436Y-92387299D01*
X140307123Y-92378632D01*
X140329836Y-92368227D01*
X140355972Y-92356363D01*
X140384923Y-92343317D01*
X140416083Y-92329370D01*
X140423468Y-92326077D01*
X140585126Y-92254058D01*
X140601981Y-92193786D01*
X140610094Y-92165801D01*
X140619941Y-92133466D01*
X140630916Y-92098653D01*
X140642411Y-92063238D01*
X140653817Y-92029093D01*
X140664527Y-91998093D01*
X140673511Y-91973243D01*
X140678959Y-91959557D01*
X140683479Y-91951083D01*
X140688136Y-91946267D01*
X140693830Y-91943608D01*
X140701132Y-91942442D01*
X140714453Y-91941504D01*
X140732760Y-91940791D01*
X140755020Y-91940303D01*
X140780201Y-91940035D01*
X140807269Y-91939987D01*
X140835192Y-91940155D01*
X140862937Y-91940539D01*
X140889472Y-91941134D01*
X140913763Y-91941940D01*
X140934777Y-91942954D01*
X140951319Y-91944159D01*
X141114261Y-91961788D01*
X141214139Y-91975162D01*
X141256859Y-91981600D01*
X141293678Y-91987900D01*
X141325734Y-91994376D01*
X141354167Y-92001339D01*
X141380116Y-92009101D01*
X141404721Y-92017975D01*
X141429122Y-92028273D01*
X141454457Y-92040306D01*
X141457556Y-92041853D01*
X141513115Y-92073187D01*
X141567664Y-92110789D01*
X141620233Y-92153872D01*
X141669852Y-92201647D01*
X141710314Y-92246958D01*
X141728347Y-92268681D01*
X141730748Y-92243431D01*
X141737775Y-92196009D01*
X141749681Y-92146832D01*
X141765802Y-92097776D01*
X141785477Y-92050718D01*
X141808042Y-92007537D01*
X141821719Y-91985711D01*
X141859340Y-91935994D01*
X141902141Y-91890997D01*
X141950037Y-91850749D01*
X142002937Y-91815277D01*
X142060757Y-91784611D01*
X142123406Y-91758777D01*
X142190799Y-91737803D01*
X142262848Y-91721718D01*
X142339465Y-91710549D01*
X142420562Y-91704324D01*
X142506053Y-91703071D01*
X142595848Y-91706818D01*
X142674639Y-91713861D01*
X142747782Y-91723178D01*
X142825875Y-91735491D01*
X142907621Y-91750519D01*
X142991724Y-91767976D01*
X143076887Y-91787582D01*
X143161813Y-91809051D01*
X143245205Y-91832101D01*
X143321986Y-91855255D01*
X143419460Y-91887888D01*
X143513786Y-91923330D01*
X143604613Y-91961371D01*
X143691592Y-92001797D01*
X143774372Y-92044400D01*
X143852604Y-92088966D01*
X143925937Y-92135286D01*
X143994021Y-92183147D01*
X144056506Y-92232339D01*
X144113041Y-92282650D01*
X144163278Y-92333869D01*
X144206865Y-92385785D01*
X144211516Y-92391897D01*
X144221132Y-92404324D01*
X144227892Y-92411896D01*
X144232929Y-92415578D01*
X144237377Y-92416336D01*
X144239726Y-92415921D01*
X144259163Y-92411612D01*
X144284240Y-92406930D01*
X144313568Y-92402078D01*
X144345757Y-92397263D01*
X144379415Y-92392687D01*
X144413152Y-92388557D01*
X144445578Y-92385077D01*
X144456167Y-92384068D01*
X144487905Y-92381538D01*
X144519888Y-92379816D01*
X144552791Y-92378933D01*
X144587290Y-92378920D01*
X144624060Y-92379806D01*
X144663775Y-92381623D01*
X144707113Y-92384401D01*
X144754746Y-92388171D01*
X144807352Y-92392963D01*
X144865605Y-92398808D01*
X144927125Y-92405400D01*
X145016165Y-92415763D01*
X145111639Y-92427982D01*
X145213193Y-92441993D01*
X145320469Y-92457731D01*
X145433115Y-92475132D01*
X145550774Y-92494133D01*
X145673091Y-92514668D01*
X145799712Y-92536674D01*
X145930280Y-92560086D01*
X146064441Y-92584840D01*
X146201840Y-92610872D01*
X146342121Y-92638118D01*
X146484930Y-92666514D01*
X146629911Y-92695994D01*
X146776709Y-92726495D01*
X146924969Y-92757954D01*
X147074335Y-92790304D01*
X147161972Y-92809592D01*
X147206466Y-92819446D01*
X147244684Y-92827733D01*
X147277258Y-92834320D01*
X147304823Y-92839072D01*
X147328011Y-92841854D01*
X147347455Y-92842532D01*
X147363788Y-92840972D01*
X147377642Y-92837038D01*
X147389652Y-92830596D01*
X147400449Y-92821512D01*
X147410667Y-92809652D01*
X147420938Y-92794880D01*
X147431896Y-92777062D01*
X147444174Y-92756064D01*
X147448453Y-92748705D01*
X147485722Y-92682928D01*
X147520654Y-92617678D01*
X147552855Y-92553786D01*
X147581929Y-92492085D01*
X147607481Y-92433406D01*
X147629117Y-92378581D01*
X147642982Y-92339141D01*
X147658442Y-92286728D01*
X147669158Y-92237816D01*
X147675158Y-92192633D01*
X147676469Y-92151406D01*
X147673119Y-92114365D01*
X147665134Y-92081738D01*
X147652543Y-92053753D01*
X147635372Y-92030638D01*
X147613649Y-92012622D01*
X147603124Y-92006605D01*
X147592991Y-92001846D01*
X147581941Y-91997476D01*
X147569615Y-91993467D01*
X147555657Y-91989791D01*
X147539709Y-91986419D01*
X147521413Y-91983323D01*
X147500414Y-91980476D01*
X147476352Y-91977848D01*
X147448872Y-91975413D01*
X147417615Y-91973141D01*
X147382225Y-91971005D01*
X147342343Y-91968977D01*
X147297613Y-91967027D01*
X147247677Y-91965129D01*
X147192178Y-91963254D01*
X147130759Y-91961374D01*
X147063062Y-91959460D01*
X146988731Y-91957485D01*
X146975000Y-91957131D01*
X146852923Y-91953793D01*
X146737344Y-91950214D01*
X146627707Y-91946361D01*
X146523456Y-91942206D01*
X146424037Y-91937716D01*
X146328895Y-91932862D01*
X146237474Y-91927612D01*
X146149219Y-91921936D01*
X146063574Y-91915804D01*
X145979985Y-91909184D01*
X145897897Y-91902046D01*
X145816754Y-91894360D01*
X145789667Y-91891655D01*
X145660967Y-91877823D01*
X145536502Y-91862727D01*
X145415523Y-91846195D01*
X145297281Y-91828059D01*
X145181028Y-91808149D01*
X145066016Y-91786295D01*
X144951496Y-91762329D01*
X144836721Y-91736080D01*
X144720941Y-91707380D01*
X144603408Y-91676058D01*
X144483373Y-91641946D01*
X144360090Y-91604873D01*
X144232808Y-91564671D01*
X144100780Y-91521170D01*
X143995792Y-91485449D01*
X143945932Y-91467941D01*
X143898400Y-91450515D01*
X143852527Y-91432850D01*
X143807643Y-91414626D01*
X143763080Y-91395524D01*
X143718167Y-91375221D01*
X143672235Y-91353399D01*
X143624615Y-91329737D01*
X143574637Y-91303915D01*
X143521633Y-91275612D01*
X143464932Y-91244508D01*
X143403865Y-91210283D01*
X143337763Y-91172616D01*
X143316694Y-91160507D01*
X143258073Y-91126777D01*
X143205102Y-91096349D01*
X143157334Y-91068975D01*
X143114321Y-91044409D01*
X143075616Y-91022404D01*
X143040771Y-91002713D01*
X143009338Y-90985090D01*
X142980870Y-90969286D01*
X142954919Y-90955056D01*
X142931037Y-90942152D01*
X142908777Y-90930328D01*
X142887692Y-90919336D01*
X142867332Y-90908930D01*
X142847252Y-90898862D01*
X142827003Y-90888887D01*
X142806138Y-90878756D01*
X142804306Y-90877872D01*
X142736867Y-90846435D01*
X142673250Y-90819181D01*
X142612082Y-90795718D01*
X142551992Y-90775655D01*
X142491609Y-90758598D01*
X142429560Y-90744156D01*
X142364474Y-90731936D01*
X142294978Y-90721546D01*
X142230139Y-90713721D01*
X142189152Y-90709961D01*
X142143206Y-90707001D01*
X142094358Y-90704895D01*
X142044663Y-90703699D01*
X141996179Y-90703468D01*
X141950962Y-90704256D01*
X141921458Y-90705492D01*
X141841912Y-90712135D01*
X141761456Y-90723257D01*
X141681278Y-90738557D01*
X141602567Y-90757737D01*
X141526511Y-90780499D01*
X141454298Y-90806544D01*
X141387116Y-90835573D01*
X141369008Y-90844375D01*
X141288028Y-90888628D01*
X141208806Y-90939592D01*
X141131482Y-90997107D01*
X141056195Y-91061017D01*
X140983086Y-91131164D01*
X140912295Y-91207390D01*
X140843960Y-91289537D01*
X140778223Y-91377448D01*
X140715222Y-91470964D01*
X140655097Y-91569930D01*
X140597989Y-91674186D01*
X140552897Y-91764799D01*
X140534559Y-91804713D01*
X140516937Y-91846078D01*
X140499526Y-91890186D01*
X140481819Y-91938328D01*
X140463310Y-91991796D01*
X140458965Y-92004750D01*
X140451296Y-92028196D01*
X140443193Y-92053786D01*
X140435008Y-92080327D01*
X140427093Y-92106627D01*
X140419801Y-92131492D01*
X140413485Y-92153731D01*
X140408496Y-92172152D01*
X140405187Y-92185560D01*
X140404378Y-92189442D01*
X140402209Y-92201004D01*
X140197595Y-92283572D01*
X140161615Y-92298117D01*
X140127607Y-92311915D01*
X140096132Y-92324734D01*
X140067748Y-92336346D01*
X140043014Y-92346520D01*
X140022490Y-92355026D01*
X140006734Y-92361633D01*
X139996307Y-92366111D01*
X139991768Y-92368231D01*
X139991619Y-92368344D01*
X139993960Y-92370994D01*
X140001162Y-92377950D01*
X140012812Y-92388837D01*
X140028495Y-92403276D01*
X140047797Y-92420892D01*
X140070304Y-92441306D01*
X140095601Y-92464141D01*
X140123274Y-92489021D01*
X140152909Y-92515568D01*
X140178286Y-92538231D01*
X140214302Y-92570360D01*
X140245416Y-92598154D01*
X140271998Y-92621967D01*
X140294415Y-92642152D01*
X140313038Y-92659065D01*
X140328235Y-92673058D01*
X140340376Y-92684487D01*
X140349830Y-92693706D01*
X140356965Y-92701069D01*
X140362152Y-92706929D01*
X140365759Y-92711642D01*
X140368156Y-92715561D01*
X140369712Y-92719041D01*
X140370795Y-92722435D01*
X140370979Y-92723103D01*
X140377388Y-92743652D01*
X140386490Y-92768602D01*
X140397560Y-92796184D01*
X140409874Y-92824625D01*
X140422705Y-92852157D01*
X140429300Y-92865446D01*
X140461749Y-92923655D01*
X140498977Y-92979780D01*
X140541666Y-93034751D01*
X140590499Y-93089498D01*
X140603642Y-93103151D01*
X140659151Y-93156690D01*
X140716431Y-93205173D01*
X140776685Y-93249469D01*
X140841117Y-93290443D01*
X140910931Y-93328963D01*
X140931917Y-93339580D01*
X140999971Y-93371452D01*
X141067985Y-93399287D01*
X141137187Y-93423459D01*
X141208807Y-93444341D01*
X141284072Y-93462308D01*
X141364212Y-93477732D01*
X141410680Y-93485248D01*
X141430516Y-93488168D01*
X141447844Y-93490434D01*
X141464061Y-93492130D01*
X141480562Y-93493341D01*
X141498742Y-93494152D01*
X141519998Y-93494645D01*
X141545724Y-93494906D01*
X141572208Y-93495009D01*
X141609423Y-93494931D01*
D12*
X134550000Y-103700000D03*
D13*
X134550000Y-106240000D03*
D12*
X134550000Y-108780000D03*
D13*
X134550000Y-111320000D03*
D14*
X161005000Y-115800000D03*
X158295000Y-115800000D03*
X161005000Y-100200000D03*
X158295000Y-100200000D03*
X161005000Y-115400000D03*
X161005000Y-115000000D03*
X161005000Y-114600000D03*
X161005000Y-114200000D03*
X161005000Y-113800000D03*
X161005000Y-113400000D03*
X161005000Y-113000000D03*
X161005000Y-112600000D03*
X161005000Y-112200000D03*
X161005000Y-111800000D03*
X161005000Y-111400000D03*
X161005000Y-111000000D03*
X161005000Y-110600000D03*
X161005000Y-110200000D03*
X161005000Y-109800000D03*
X161005000Y-109400000D03*
X161005000Y-109000000D03*
X161005000Y-108600000D03*
X161005000Y-108200000D03*
X161005000Y-107800000D03*
X161005000Y-107400000D03*
X161005000Y-107000000D03*
X161005000Y-106600000D03*
X161005000Y-106200000D03*
X161005000Y-105800000D03*
X161005000Y-105400000D03*
X161005000Y-105000000D03*
X161005000Y-104600000D03*
X161005000Y-104200000D03*
X161005000Y-103800000D03*
X161005000Y-103400000D03*
X161005000Y-103000000D03*
X161005000Y-102600000D03*
X161005000Y-102200000D03*
X161005000Y-101800000D03*
X161005000Y-101400000D03*
X161005000Y-101000000D03*
X161005000Y-100600000D03*
D15*
X161005000Y-99725000D03*
X158295000Y-99725000D03*
X161005000Y-116275000D03*
X158295000Y-116275000D03*
D14*
X158295000Y-100600000D03*
X158295000Y-101000000D03*
X158295000Y-101400000D03*
X158295000Y-101800000D03*
X158295000Y-102200000D03*
X158295000Y-102600000D03*
X158295000Y-103000000D03*
X158295000Y-103400000D03*
X158295000Y-103800000D03*
X158295000Y-104200000D03*
X158295000Y-104600000D03*
X158295000Y-105000000D03*
X158295000Y-105400000D03*
X158295000Y-105800000D03*
X158295000Y-106200000D03*
X158295000Y-106600000D03*
X158295000Y-107000000D03*
X158295000Y-107400000D03*
X158295000Y-107800000D03*
X158295000Y-108200000D03*
X158295000Y-108600000D03*
X158295000Y-109000000D03*
X158295000Y-109400000D03*
X158295000Y-109800000D03*
X158295000Y-110200000D03*
X158295000Y-110600000D03*
X158295000Y-111000000D03*
X158295000Y-111400000D03*
X158295000Y-111800000D03*
X158295000Y-112200000D03*
X158295000Y-112600000D03*
X158295000Y-113000000D03*
X158295000Y-113400000D03*
X158295000Y-113800000D03*
X158295000Y-114200000D03*
X158295000Y-114600000D03*
X158295000Y-115000000D03*
X158295000Y-115400000D03*
D16*
X156250000Y-95900000D03*
X158150000Y-95900000D03*
D17*
X158712500Y-92862500D03*
X158712500Y-93362500D03*
X158712500Y-93862500D03*
X158712500Y-94362500D03*
X155812500Y-94362500D03*
X155812500Y-93862500D03*
X155812500Y-93362500D03*
X155812500Y-92862500D03*
D18*
X156825000Y-93975000D03*
X156825000Y-93250000D03*
X157700000Y-93975000D03*
X157700000Y-93250000D03*
D19*
X156550000Y-91200000D03*
X154350000Y-91200000D03*
D20*
X158550000Y-91250000D03*
D13*
X131500000Y-111300000D03*
D12*
X131500000Y-108760000D03*
D13*
X131500000Y-106220000D03*
D12*
X131500000Y-103680000D03*
D21*
X134650000Y-113890000D03*
D22*
X137190000Y-113890000D03*
X139730000Y-113890000D03*
X142270000Y-113890000D03*
X144810000Y-113890000D03*
X147350000Y-113890000D03*
D21*
X147400000Y-101200000D03*
D22*
X144860000Y-101200000D03*
X142320000Y-101200000D03*
X139780000Y-101200000D03*
X137240000Y-101200000D03*
D21*
X134700000Y-101200000D03*
D23*
X147400000Y-109140000D03*
D24*
X147400000Y-106600000D03*
D25*
X162950000Y-97849974D03*
X162500000Y-95300000D03*
X133000000Y-104600000D03*
X150050000Y-110150000D03*
X150050000Y-109150000D03*
X154600000Y-121350000D03*
D26*
X163335170Y-106128721D03*
X162579214Y-106491109D03*
X162993938Y-107218712D03*
X162237982Y-107581100D03*
X162237982Y-108419301D03*
X162993938Y-108781689D03*
X162579214Y-109509292D03*
X163335170Y-109871680D03*
D25*
X164264956Y-95352566D03*
X160500000Y-95450000D03*
X157300000Y-95000000D03*
X159100000Y-98150000D03*
X159950000Y-93400000D03*
X154500000Y-92950000D03*
X153600000Y-93750000D03*
X154325068Y-92130246D03*
X160303087Y-96914049D03*
X157300000Y-97100000D03*
X156750000Y-92200000D03*
X154650000Y-94900000D03*
D26*
X156380187Y-105401118D03*
D25*
X160729126Y-94320874D03*
D26*
X156306694Y-107218712D03*
X157062650Y-107581100D03*
X157062650Y-108419301D03*
X156306694Y-108781689D03*
X156721418Y-109509292D03*
X155965462Y-109871680D03*
D25*
X153950000Y-117750000D03*
X154171538Y-118920210D03*
X161000000Y-117010000D03*
D26*
X161045015Y-99054899D03*
X158255617Y-99054899D03*
X158255617Y-99054899D03*
X162035617Y-116147324D03*
X162511810Y-116834445D03*
X163166374Y-116308281D03*
X163642567Y-116995401D03*
X164626605Y-116049236D03*
X165041329Y-115321633D03*
X164285373Y-114959245D03*
X164700097Y-114231642D03*
X163944142Y-113869254D03*
X164358866Y-113141651D03*
X163602910Y-112779264D03*
X164017634Y-112051661D03*
X163261678Y-111689273D03*
X163676402Y-110961670D03*
X162920446Y-110599282D03*
X162920446Y-105401118D03*
X163676402Y-105038731D03*
X163261678Y-104311128D03*
X164017634Y-103948740D03*
X163602910Y-103221137D03*
X164358866Y-102858749D03*
X163944142Y-102131146D03*
X164700097Y-101768759D03*
X164285373Y-101041156D03*
X165041329Y-100678768D03*
X164626605Y-99951165D03*
X163642567Y-99005000D03*
X163166374Y-99692120D03*
X162511810Y-99165956D03*
X162035617Y-99853076D03*
X157265015Y-99853076D03*
X156788823Y-99165956D03*
X156134258Y-99692120D03*
X155658066Y-99005000D03*
X154674027Y-99951165D03*
X154259303Y-100678768D03*
X155015259Y-101041156D03*
X154600535Y-101768759D03*
X155356491Y-102131146D03*
X154941767Y-102858749D03*
X155697723Y-103221137D03*
X155965462Y-106128721D03*
X156721418Y-106491109D03*
X156380187Y-110599282D03*
X155624231Y-110961670D03*
X156038955Y-111689273D03*
X155282999Y-112051661D03*
X155697723Y-112779264D03*
X154941767Y-113141651D03*
X155356491Y-113869254D03*
X154600535Y-114231642D03*
X155015259Y-114959245D03*
X154259303Y-115321633D03*
X154674027Y-116049236D03*
X156200000Y-117750000D03*
X156563479Y-116981984D03*
D25*
X157186858Y-118048495D03*
D27*
X162154815Y-98095191D02*
X162850000Y-97400006D01*
X162850000Y-97400006D02*
X162850000Y-97749974D01*
X162850000Y-97749974D02*
X162950000Y-97849974D01*
X159945189Y-105385878D02*
X159945189Y-98623744D01*
X160473743Y-98095191D02*
X162154815Y-98095191D01*
X159531067Y-105800000D02*
X159945189Y-105385878D01*
X159945189Y-98623744D02*
X160473743Y-98095191D01*
X158295000Y-105800000D02*
X159531067Y-105800000D01*
X162500000Y-94815067D02*
X162500000Y-95300000D01*
X159239900Y-92560100D02*
X160445033Y-92560100D01*
X158937500Y-92862500D02*
X159239900Y-92560100D01*
X160445033Y-92560100D02*
X162500000Y-94615067D01*
X158712500Y-92862500D02*
X158937500Y-92862500D01*
X162500000Y-94615067D02*
X162500000Y-94815067D01*
D28*
X147400000Y-101200000D02*
X147400000Y-99930000D01*
X147400000Y-99930000D02*
X148080000Y-99250000D01*
X147400000Y-101200000D02*
X149350000Y-101200000D01*
X134700000Y-101200000D02*
X134700000Y-99650000D01*
X134700000Y-101200000D02*
X133582400Y-101200000D01*
X133582400Y-101200000D02*
X133000000Y-101782400D01*
X133000000Y-101782400D02*
X133000000Y-103500000D01*
X133000000Y-104600000D02*
X133000000Y-103500000D01*
X150050000Y-109150000D02*
X150392899Y-109492899D01*
D27*
X161005000Y-109400000D02*
X159950000Y-109400000D01*
X159850000Y-108850000D02*
X160000000Y-109000000D01*
X160000000Y-109000000D02*
X161005000Y-109000000D01*
X160100000Y-108600000D02*
X159850000Y-108850000D01*
X161005000Y-108600000D02*
X160100000Y-108600000D01*
X159900000Y-108000000D02*
X160100000Y-108200000D01*
X160100000Y-108200000D02*
X161005000Y-108200000D01*
X160100000Y-107800000D02*
X159900000Y-108000000D01*
X161005000Y-107800000D02*
X160100000Y-107800000D01*
X161005000Y-107000000D02*
X159850000Y-107000000D01*
X159850000Y-107000000D02*
X160250000Y-107400000D01*
X160250000Y-107400000D02*
X161005000Y-107400000D01*
D28*
X154600000Y-121350000D02*
X154600000Y-120650000D01*
D27*
X160522600Y-106600000D02*
X160250000Y-106327400D01*
X161005000Y-106600000D02*
X160522600Y-106600000D01*
X160250000Y-99550000D02*
X160473514Y-99326486D01*
X160473514Y-99326486D02*
X160473514Y-98780578D01*
X160770694Y-98483398D02*
X163362426Y-98483398D01*
X163362426Y-98483398D02*
X164200000Y-97645824D01*
X164200000Y-97645824D02*
X164200000Y-97400000D01*
X160250000Y-106327400D02*
X160250000Y-99550000D01*
X160473514Y-98780578D02*
X160770694Y-98483398D01*
X161190316Y-106624000D02*
X161540316Y-106624000D01*
X161540316Y-106624000D02*
X162460992Y-105841578D01*
X162460992Y-105841578D02*
X162749830Y-105946114D01*
X162749830Y-105946114D02*
X163335170Y-106128721D01*
X161190316Y-107024000D02*
X161540316Y-107024000D01*
X161540316Y-107024000D02*
X162406505Y-106287883D01*
X162406505Y-106287883D02*
X162579214Y-106491109D01*
X161190316Y-107424000D02*
X161540316Y-107424000D01*
X161540316Y-107424000D02*
X162119760Y-106931569D01*
X162119760Y-106931569D02*
X162408598Y-107036104D01*
X162408598Y-107036104D02*
X162993938Y-107218712D01*
X161190316Y-107824000D02*
X161540316Y-107824000D01*
X161540316Y-107824000D02*
X162065274Y-107377873D01*
X162065274Y-107377873D02*
X162237982Y-107581100D01*
X161190316Y-108176401D02*
X161540316Y-108176401D01*
X161540316Y-108176401D02*
X162065274Y-108622527D01*
X162065274Y-108622527D02*
X162237982Y-108419301D01*
X161190316Y-108576401D02*
X161540316Y-108576401D01*
X161540316Y-108576401D02*
X162119760Y-109068832D01*
X162119760Y-109068832D02*
X162408598Y-108964297D01*
X162408598Y-108964297D02*
X162993938Y-108781689D01*
X161190316Y-108976401D02*
X161540316Y-108976401D01*
X161540316Y-108976401D02*
X162406505Y-109712518D01*
X162406505Y-109712518D02*
X162579214Y-109509292D01*
X161190316Y-109376401D02*
X161540316Y-109376401D01*
X161540316Y-109376401D02*
X162460992Y-110158823D01*
X162460992Y-110158823D02*
X162749830Y-110054287D01*
X162749830Y-110054287D02*
X163335170Y-109871680D01*
X163750000Y-95382589D02*
X163780023Y-95352566D01*
X163780023Y-95352566D02*
X164264956Y-95352566D01*
X163750000Y-95450000D02*
X163750000Y-95382589D01*
X160500000Y-95450000D02*
X160050000Y-95900000D01*
X160050000Y-95900000D02*
X158150000Y-95900000D01*
X160500000Y-95450000D02*
X159497600Y-95450000D01*
X159497600Y-95450000D02*
X158712500Y-94664900D01*
X158712500Y-94664900D02*
X158712500Y-94362500D01*
X157300000Y-95000000D02*
X158377400Y-95000000D01*
X158377400Y-95000000D02*
X158712500Y-94664900D01*
X157300000Y-95000000D02*
X157300000Y-95050000D01*
X157300000Y-95050000D02*
X158150000Y-95900000D01*
X158808467Y-105400000D02*
X159300000Y-104908467D01*
X158295000Y-105400000D02*
X158808467Y-105400000D01*
X160228028Y-93749372D02*
X159927400Y-94050000D01*
X159589348Y-98950000D02*
X159589348Y-98548519D01*
X161003448Y-93749372D02*
X160228028Y-93749372D01*
X161376312Y-97163035D02*
X161376312Y-94122236D01*
X161376312Y-94122236D02*
X161003448Y-93749372D01*
X160748967Y-97790380D02*
X161376312Y-97163035D01*
X159589348Y-98548519D02*
X160347487Y-97790380D01*
X160347487Y-97790380D02*
X160748967Y-97790380D01*
X159589348Y-98639348D02*
X159100000Y-98150000D01*
X159300000Y-99239348D02*
X159589348Y-98950000D01*
X159589348Y-98950000D02*
X159589348Y-98639348D01*
X159300000Y-104908467D02*
X159300000Y-99239348D01*
X159950000Y-94027400D02*
X159927400Y-94050000D01*
X159950000Y-93400000D02*
X159950000Y-94027400D01*
X159927400Y-94050000D02*
X159239900Y-93362500D01*
X159239900Y-93362500D02*
X158712500Y-93362500D01*
X154400000Y-92950000D02*
X154500000Y-92950000D01*
X153600000Y-93750000D02*
X154400000Y-92950000D01*
X154350000Y-92105314D02*
X154325068Y-92130246D01*
X154350000Y-91200000D02*
X154350000Y-92105314D01*
X157300000Y-97100000D02*
X160117136Y-97100000D01*
X160117136Y-97100000D02*
X160303087Y-96914049D01*
X156250000Y-96050000D02*
X156250000Y-95900000D01*
X157300000Y-97100000D02*
X156250000Y-96050000D01*
X156750000Y-92200000D02*
X156475000Y-92200000D01*
X156475000Y-92200000D02*
X155812500Y-92862500D01*
X156250000Y-95900000D02*
X156025000Y-95900000D01*
X155025000Y-94900000D02*
X154650000Y-94900000D01*
X156025000Y-95900000D02*
X155025000Y-94900000D01*
X158110316Y-106224000D02*
X157760316Y-106224000D01*
X157760316Y-106224000D02*
X156552895Y-105197892D01*
X156552895Y-105197892D02*
X156380187Y-105401118D01*
X158295000Y-105000000D02*
X158777400Y-105000000D01*
X158777400Y-105000000D02*
X158950000Y-104827400D01*
X161071501Y-97036738D02*
X161071501Y-95175679D01*
X158528498Y-98474322D02*
X158528498Y-97875678D01*
X161071501Y-95175679D02*
X160745822Y-94850000D01*
X160745822Y-94850000D02*
X160227400Y-94850000D01*
X160622670Y-97485569D02*
X161071501Y-97036738D01*
X158950000Y-104827400D02*
X158950000Y-98895824D01*
X158528498Y-97875678D02*
X158918607Y-97485569D01*
X158918607Y-97485569D02*
X160622670Y-97485569D01*
X158950000Y-98895824D02*
X158528498Y-98474322D01*
X160227400Y-94850000D02*
X160227400Y-94822600D01*
X160227400Y-94822600D02*
X160386227Y-94663773D01*
X160386227Y-94663773D02*
X160729126Y-94320874D01*
X160227400Y-94850000D02*
X159239900Y-93862500D01*
X159239900Y-93862500D02*
X158712500Y-93862500D01*
X156400000Y-91200000D02*
X156550000Y-91200000D01*
X155812500Y-93362500D02*
X155285100Y-93362500D01*
X155208899Y-93286299D02*
X155208899Y-92391101D01*
X155208899Y-92391101D02*
X156400000Y-91200000D01*
X155285100Y-93362500D02*
X155208899Y-93286299D01*
X156550000Y-91200000D02*
X158500000Y-91200000D01*
X158500000Y-91200000D02*
X158550000Y-91250000D01*
X158110316Y-107424000D02*
X157760316Y-107424000D01*
X157760316Y-107424000D02*
X157180872Y-106931569D01*
X157180872Y-106931569D02*
X156892034Y-107036104D01*
X156892034Y-107036104D02*
X156306694Y-107218712D01*
X158110316Y-107824000D02*
X157760316Y-107824000D01*
X157760316Y-107824000D02*
X157235359Y-107377873D01*
X157235359Y-107377873D02*
X157062650Y-107581100D01*
X158110316Y-108176401D02*
X157760316Y-108176401D01*
X157760316Y-108176401D02*
X157235359Y-108622527D01*
X157235359Y-108622527D02*
X157062650Y-108419301D01*
X158110316Y-108576401D02*
X157760316Y-108576401D01*
X157760316Y-108576401D02*
X157180872Y-109068832D01*
X157180872Y-109068832D02*
X156892034Y-108964297D01*
X156892034Y-108964297D02*
X156306694Y-108781689D01*
X158110316Y-108976401D02*
X157760316Y-108976401D01*
X157760316Y-108976401D02*
X156894127Y-109712518D01*
X156894127Y-109712518D02*
X156721418Y-109509292D01*
X158110316Y-109376401D02*
X157760316Y-109376401D01*
X157760316Y-109376401D02*
X156839640Y-110158823D01*
X156839640Y-110158823D02*
X156550802Y-110054287D01*
X156550802Y-110054287D02*
X155965462Y-109871680D01*
X157431588Y-116759137D02*
X157776314Y-117103863D01*
X157431588Y-115767261D02*
X157431588Y-116759137D01*
X156675678Y-118421502D02*
X154621502Y-118421502D01*
X156874173Y-118619997D02*
X156675678Y-118421502D01*
X157776314Y-118304863D02*
X157461180Y-118619997D01*
X157776314Y-117103863D02*
X157776314Y-118304863D01*
X157822449Y-115376401D02*
X157431588Y-115767261D01*
X157461180Y-118619997D02*
X156874173Y-118619997D01*
X158110316Y-115376401D02*
X157822449Y-115376401D01*
X154292899Y-118092899D02*
X153950000Y-117750000D01*
X154621502Y-118421502D02*
X154292899Y-118092899D01*
X158295000Y-116200000D02*
X158295000Y-115800000D01*
X156743319Y-118920210D02*
X154656471Y-118920210D01*
X157587436Y-118924808D02*
X156747917Y-118924808D01*
X157736399Y-115917119D02*
X157736399Y-116632881D01*
X157853318Y-115800200D02*
X157736399Y-115917119D01*
X158081125Y-116977607D02*
X158081125Y-118431119D01*
X158081125Y-118431119D02*
X157587436Y-118924808D01*
X154656471Y-118920210D02*
X154171538Y-118920210D01*
X158255617Y-115800200D02*
X157853318Y-115800200D01*
X157736399Y-116632881D02*
X158081125Y-116977607D01*
X156747917Y-118924808D02*
X156743319Y-118920210D01*
X161000000Y-117010000D02*
X161000000Y-116205000D01*
X161000000Y-116205000D02*
X161005000Y-116200000D01*
X161005000Y-115800000D02*
X161005000Y-116200000D01*
X161005000Y-99800000D02*
X161005000Y-100200000D01*
X161045015Y-99054899D02*
X161045015Y-99759985D01*
X161045015Y-99759985D02*
X161005000Y-99800000D01*
X158295000Y-99800000D02*
X158295000Y-100200000D01*
X158255617Y-99054899D02*
X158255617Y-99760617D01*
X158255617Y-99760617D02*
X158295000Y-99800000D01*
X161190316Y-115376401D02*
X161540316Y-115376401D01*
X161540316Y-115376401D02*
X162208326Y-115944098D01*
X162208326Y-115944098D02*
X162035617Y-116147324D01*
X161190316Y-114976401D02*
X161540316Y-114976401D01*
X161540316Y-114976401D02*
X162657575Y-115925886D01*
X162657575Y-115925886D02*
X162600996Y-116227803D01*
X162600996Y-116227803D02*
X162511810Y-116834445D01*
X161190316Y-114576401D02*
X161540316Y-114576401D01*
X161540316Y-114576401D02*
X163339083Y-116105055D01*
X163339083Y-116105055D02*
X163166374Y-116308281D01*
X161190316Y-114176401D02*
X161540316Y-114176401D01*
X161540316Y-114176401D02*
X163788332Y-116086842D01*
X163788332Y-116086842D02*
X163731753Y-116388759D01*
X163731753Y-116388759D02*
X163642567Y-116995401D01*
X161190316Y-113776401D02*
X161540316Y-113776401D01*
X161540316Y-113776401D02*
X164453897Y-116252462D01*
X164453897Y-116252462D02*
X164626605Y-116049236D01*
X161190316Y-113376401D02*
X161540316Y-113376401D01*
X161540316Y-113376401D02*
X164167151Y-115608776D01*
X164167151Y-115608776D02*
X164455989Y-115504240D01*
X164455989Y-115504240D02*
X165041329Y-115321633D01*
X161190316Y-112976401D02*
X161540316Y-112976401D01*
X161540316Y-112976401D02*
X164112665Y-115162471D01*
X164112665Y-115162471D02*
X164285373Y-114959245D01*
X161190316Y-112576401D02*
X161540316Y-112576401D01*
X161540316Y-112576401D02*
X163825920Y-114518785D01*
X163825920Y-114518785D02*
X164114757Y-114414250D01*
X164114757Y-114414250D02*
X164700097Y-114231642D01*
X161190316Y-112176401D02*
X161540316Y-112176401D01*
X161540316Y-112176401D02*
X163771433Y-114072481D01*
X163771433Y-114072481D02*
X163944142Y-113869254D01*
X161190316Y-111776401D02*
X161540316Y-111776401D01*
X161540316Y-111776401D02*
X163484688Y-113428795D01*
X163484688Y-113428795D02*
X163773526Y-113324259D01*
X163773526Y-113324259D02*
X164358866Y-113141651D01*
X161190316Y-111376401D02*
X161540316Y-111376401D01*
X161540316Y-111376401D02*
X163430201Y-112982490D01*
X163430201Y-112982490D02*
X163602910Y-112779264D01*
X161190316Y-110976401D02*
X161540316Y-110976401D01*
X161540316Y-110976401D02*
X163143456Y-112338804D01*
X163143456Y-112338804D02*
X163432294Y-112234268D01*
X163432294Y-112234268D02*
X164017634Y-112051661D01*
X161190316Y-110576401D02*
X161540316Y-110576401D01*
X161540316Y-110576401D02*
X163088969Y-111892499D01*
X163088969Y-111892499D02*
X163261678Y-111689273D01*
X161190316Y-110176401D02*
X161540316Y-110176401D01*
X161540316Y-110176401D02*
X162802224Y-111248813D01*
X162802224Y-111248813D02*
X163091062Y-111144278D01*
X163091062Y-111144278D02*
X163676402Y-110961670D01*
X161190316Y-109776401D02*
X161540316Y-109776401D01*
X161540316Y-109776401D02*
X162747737Y-110802509D01*
X162747737Y-110802509D02*
X162920446Y-110599282D01*
X161190316Y-106224000D02*
X161540316Y-106224000D01*
X161540316Y-106224000D02*
X162747737Y-105197892D01*
X162747737Y-105197892D02*
X162920446Y-105401118D01*
X161190316Y-105824000D02*
X161540316Y-105824000D01*
X161540316Y-105824000D02*
X162802224Y-104751587D01*
X162802224Y-104751587D02*
X163091062Y-104856123D01*
X163091062Y-104856123D02*
X163676402Y-105038731D01*
X161190316Y-105424000D02*
X161540316Y-105424000D01*
X161540316Y-105424000D02*
X163088969Y-104107901D01*
X163088969Y-104107901D02*
X163261678Y-104311128D01*
X161190316Y-105024000D02*
X161540316Y-105024000D01*
X161540316Y-105024000D02*
X163143456Y-103661597D01*
X163143456Y-103661597D02*
X163432294Y-103766132D01*
X163432294Y-103766132D02*
X164017634Y-103948740D01*
X161190316Y-104624000D02*
X161540316Y-104624000D01*
X161540316Y-104624000D02*
X163430201Y-103017911D01*
X163430201Y-103017911D02*
X163602910Y-103221137D01*
X161190316Y-104224000D02*
X161540316Y-104224000D01*
X161540316Y-104224000D02*
X163484688Y-102571606D01*
X163484688Y-102571606D02*
X163773526Y-102676142D01*
X163773526Y-102676142D02*
X164358866Y-102858749D01*
X161190316Y-103824000D02*
X161540316Y-103824000D01*
X161540316Y-103824000D02*
X163771433Y-101927920D01*
X163771433Y-101927920D02*
X163944142Y-102131146D01*
X161190316Y-103424000D02*
X161540316Y-103424000D01*
X161540316Y-103424000D02*
X163825920Y-101481616D01*
X163825920Y-101481616D02*
X164114757Y-101586151D01*
X164114757Y-101586151D02*
X164700097Y-101768759D01*
X161190316Y-103024000D02*
X161540316Y-103024000D01*
X161540316Y-103024000D02*
X164112665Y-100837930D01*
X164112665Y-100837930D02*
X164285373Y-101041156D01*
X161190316Y-102624000D02*
X161540316Y-102624000D01*
X161540316Y-102624000D02*
X164167151Y-100391625D01*
X164167151Y-100391625D02*
X164455989Y-100496161D01*
X164455989Y-100496161D02*
X165041329Y-100678768D01*
X161190316Y-102224000D02*
X161540316Y-102224000D01*
X161540316Y-102224000D02*
X164453897Y-99747939D01*
X164453897Y-99747939D02*
X164626605Y-99951165D01*
X161190316Y-101824000D02*
X161540316Y-101824000D01*
X161540316Y-101824000D02*
X163788332Y-99913558D01*
X163788332Y-99913558D02*
X163731753Y-99611642D01*
X163731753Y-99611642D02*
X163642567Y-99005000D01*
X161190316Y-101424000D02*
X161540316Y-101424000D01*
X161540316Y-101424000D02*
X163339083Y-99895346D01*
X163339083Y-99895346D02*
X163166374Y-99692120D01*
X161190316Y-101024000D02*
X161540316Y-101024000D01*
X161540316Y-101024000D02*
X162657575Y-100074515D01*
X162657575Y-100074515D02*
X162600996Y-99772598D01*
X162600996Y-99772598D02*
X162511810Y-99165956D01*
X161190316Y-100624000D02*
X161540316Y-100624000D01*
X161540316Y-100624000D02*
X162208326Y-100056303D01*
X162208326Y-100056303D02*
X162035617Y-99853076D01*
X158110316Y-100624000D02*
X157760316Y-100624000D01*
X157760316Y-100624000D02*
X157092307Y-100056303D01*
X157092307Y-100056303D02*
X157265015Y-99853076D01*
X158110316Y-101024000D02*
X157760316Y-101024000D01*
X157760316Y-101024000D02*
X156643057Y-100074515D01*
X156643057Y-100074515D02*
X156699637Y-99772598D01*
X156699637Y-99772598D02*
X156788823Y-99165956D01*
X158110316Y-101424000D02*
X157760316Y-101424000D01*
X157760316Y-101424000D02*
X155961549Y-99895346D01*
X155961549Y-99895346D02*
X156134258Y-99692120D01*
X158110316Y-101824000D02*
X157760316Y-101824000D01*
X157760316Y-101824000D02*
X155512300Y-99913558D01*
X155512300Y-99913558D02*
X155568880Y-99611642D01*
X155568880Y-99611642D02*
X155658066Y-99005000D01*
X158110316Y-102224000D02*
X157760316Y-102224000D01*
X157760316Y-102224000D02*
X154846736Y-99747939D01*
X154846736Y-99747939D02*
X154674027Y-99951165D01*
X158110316Y-102624000D02*
X157760316Y-102624000D01*
X157760316Y-102624000D02*
X155133481Y-100391625D01*
X155133481Y-100391625D02*
X154844643Y-100496161D01*
X154844643Y-100496161D02*
X154259303Y-100678768D01*
X158110316Y-103024000D02*
X157760316Y-103024000D01*
X157760316Y-103024000D02*
X155187968Y-100837930D01*
X155187968Y-100837930D02*
X155015259Y-101041156D01*
X158110316Y-103424000D02*
X157760316Y-103424000D01*
X157760316Y-103424000D02*
X155474713Y-101481616D01*
X155474713Y-101481616D02*
X155185875Y-101586151D01*
X155185875Y-101586151D02*
X154600535Y-101768759D01*
X158110316Y-103824000D02*
X157760316Y-103824000D01*
X157760316Y-103824000D02*
X155529200Y-101927920D01*
X155529200Y-101927920D02*
X155356491Y-102131146D01*
X153650000Y-101664047D02*
X154501803Y-102515850D01*
X155251098Y-94328498D02*
X154375678Y-94328498D01*
X154598868Y-102515850D02*
X154941767Y-102858749D01*
X155285100Y-94362500D02*
X155251098Y-94328498D01*
X154375678Y-94328498D02*
X153650000Y-95054176D01*
X153650000Y-95054176D02*
X153650000Y-101664047D01*
X154501803Y-102515850D02*
X154598868Y-102515850D01*
X155812500Y-94362500D02*
X155285100Y-94362500D01*
X155527107Y-102676142D02*
X154941767Y-102858749D01*
X155815945Y-102571606D02*
X155527107Y-102676142D01*
X157760316Y-104224000D02*
X155815945Y-102571606D01*
X158110316Y-104224000D02*
X157760316Y-104224000D01*
X153345189Y-102107994D02*
X154801231Y-103564036D01*
X153345189Y-94927920D02*
X153345189Y-102107994D01*
X155812500Y-93862500D02*
X154410609Y-93862500D01*
X154410609Y-93862500D02*
X153345189Y-94927920D01*
X154801231Y-103564036D02*
X155354824Y-103564036D01*
X155354824Y-103564036D02*
X155697723Y-103221137D01*
X158110316Y-104624000D02*
X157760316Y-104624000D01*
X157760316Y-104624000D02*
X155870431Y-103017911D01*
X155870431Y-103017911D02*
X155697723Y-103221137D01*
X158110316Y-106624000D02*
X157760316Y-106624000D01*
X157760316Y-106624000D02*
X156839640Y-105841578D01*
X156839640Y-105841578D02*
X156550802Y-105946114D01*
X156550802Y-105946114D02*
X155965462Y-106128721D01*
X158110316Y-107024000D02*
X157760316Y-107024000D01*
X157760316Y-107024000D02*
X156894127Y-106287883D01*
X156894127Y-106287883D02*
X156721418Y-106491109D01*
X158110316Y-109776401D02*
X157760316Y-109776401D01*
X157760316Y-109776401D02*
X156552895Y-110802509D01*
X156552895Y-110802509D02*
X156380187Y-110599282D01*
X158110316Y-110176401D02*
X157760316Y-110176401D01*
X157760316Y-110176401D02*
X156498409Y-111248813D01*
X156498409Y-111248813D02*
X156209571Y-111144278D01*
X156209571Y-111144278D02*
X155624231Y-110961670D01*
X158110316Y-110576401D02*
X157760316Y-110576401D01*
X157760316Y-110576401D02*
X156211663Y-111892499D01*
X156211663Y-111892499D02*
X156038955Y-111689273D01*
X158110316Y-110976401D02*
X157760316Y-110976401D01*
X157760316Y-110976401D02*
X156157177Y-112338804D01*
X156157177Y-112338804D02*
X155868339Y-112234268D01*
X155868339Y-112234268D02*
X155282999Y-112051661D01*
X158110316Y-111376401D02*
X157760316Y-111376401D01*
X157760316Y-111376401D02*
X155870431Y-112982490D01*
X155870431Y-112982490D02*
X155697723Y-112779264D01*
X158110316Y-111776401D02*
X157760316Y-111776401D01*
X157760316Y-111776401D02*
X155815945Y-113428795D01*
X155815945Y-113428795D02*
X155527107Y-113324259D01*
X155527107Y-113324259D02*
X154941767Y-113141651D01*
X158110316Y-112176401D02*
X157760316Y-112176401D01*
X157760316Y-112176401D02*
X155529200Y-114072481D01*
X155529200Y-114072481D02*
X155356491Y-113869254D01*
X158110316Y-112576401D02*
X157760316Y-112576401D01*
X157760316Y-112576401D02*
X155474713Y-114518785D01*
X155474713Y-114518785D02*
X155185875Y-114414250D01*
X155185875Y-114414250D02*
X154600535Y-114231642D01*
X158110316Y-112976401D02*
X157760316Y-112976401D01*
X157760316Y-112976401D02*
X155187968Y-115162471D01*
X155187968Y-115162471D02*
X155015259Y-114959245D01*
X158110316Y-113376401D02*
X157760316Y-113376401D01*
X157760316Y-113376401D02*
X155133481Y-115608776D01*
X155133481Y-115608776D02*
X154844643Y-115504240D01*
X154844643Y-115504240D02*
X154259303Y-115321633D01*
X158110316Y-113776401D02*
X157760316Y-113776401D01*
X157760316Y-113776401D02*
X154846736Y-116252462D01*
X154846736Y-116252462D02*
X154674027Y-116049236D01*
X155857101Y-117407101D02*
X156200000Y-117750000D01*
X155512300Y-116086842D02*
X155512300Y-117062300D01*
X158110316Y-114176401D02*
X157760316Y-114176401D01*
X157760316Y-114176401D02*
X155512300Y-116086842D01*
X155512300Y-117062300D02*
X155857101Y-117407101D01*
X158110316Y-114576401D02*
X157760316Y-114576401D01*
X156563479Y-116497051D02*
X156563479Y-116981984D01*
X156563479Y-115773238D02*
X156563479Y-116497051D01*
X157760316Y-114576401D02*
X156563479Y-115773238D01*
X157186858Y-117563562D02*
X157186858Y-118048495D01*
X157791382Y-114976401D02*
X157126777Y-115641005D01*
X158110316Y-114976401D02*
X157791382Y-114976401D01*
X157126777Y-115641005D02*
X157126777Y-116885393D01*
X157126777Y-116885393D02*
X157186858Y-116945474D01*
X157186858Y-116945474D02*
X157186858Y-117563562D01*
G36*
X141618447Y-90409298D02*
X141610494Y-90412520D01*
X141601920Y-90412886D01*
X141523209Y-90432066D01*
X141515225Y-90435780D01*
X141506460Y-90436610D01*
X141430404Y-90459372D01*
X141422089Y-90463777D01*
X141412785Y-90465181D01*
X141340572Y-90491226D01*
X141331591Y-90496640D01*
X141321341Y-90498841D01*
X141254159Y-90527869D01*
X141247913Y-90532181D01*
X141240576Y-90534102D01*
X141222468Y-90542904D01*
X141216006Y-90547804D01*
X141208267Y-90550230D01*
X141127287Y-90594483D01*
X141117973Y-90602272D01*
X141106676Y-90606723D01*
X141027455Y-90657687D01*
X141019166Y-90665693D01*
X141008752Y-90670636D01*
X140931428Y-90728151D01*
X140924103Y-90736255D01*
X140914555Y-90741565D01*
X140839269Y-90805474D01*
X140832840Y-90813579D01*
X140824123Y-90819146D01*
X140751014Y-90889293D01*
X140745406Y-90897321D01*
X140737469Y-90903060D01*
X140666678Y-90979286D01*
X140661812Y-90987186D01*
X140654601Y-90993024D01*
X140586266Y-91075171D01*
X140582062Y-91082912D01*
X140575513Y-91088801D01*
X140509776Y-91176712D01*
X140506167Y-91184265D01*
X140500224Y-91190163D01*
X140437223Y-91283679D01*
X140434141Y-91291041D01*
X140428746Y-91296922D01*
X140368622Y-91395887D01*
X140366011Y-91403049D01*
X140361112Y-91408895D01*
X140304005Y-91513151D01*
X140301994Y-91519545D01*
X140297894Y-91524848D01*
X140252801Y-91615462D01*
X140251412Y-91620571D01*
X140248306Y-91624858D01*
X140229968Y-91664772D01*
X140228862Y-91669404D01*
X140226176Y-91673338D01*
X140208555Y-91714703D01*
X140207620Y-91719168D01*
X140205149Y-91723004D01*
X140187738Y-91767112D01*
X140187022Y-91771057D01*
X140184931Y-91774476D01*
X140167224Y-91822617D01*
X140166715Y-91825850D01*
X140165061Y-91828676D01*
X140146552Y-91882144D01*
X140146327Y-91883775D01*
X140145511Y-91885201D01*
X140141166Y-91898154D01*
X140141003Y-91899425D01*
X140140375Y-91900542D01*
X140132706Y-91923988D01*
X140132513Y-91925592D01*
X140131734Y-91927008D01*
X140123864Y-91951862D01*
X140072159Y-91972726D01*
X140072070Y-91972784D01*
X140071967Y-91972804D01*
X140035986Y-91987349D01*
X140035803Y-91987469D01*
X140035593Y-91987509D01*
X140001585Y-92001307D01*
X140001395Y-92001432D01*
X140001172Y-92001475D01*
X139969697Y-92014294D01*
X139969475Y-92014441D01*
X139969210Y-92014492D01*
X139940827Y-92026104D01*
X139940555Y-92026284D01*
X139940234Y-92026347D01*
X139915500Y-92036521D01*
X139915123Y-92036771D01*
X139914678Y-92036860D01*
X139894154Y-92045367D01*
X139893563Y-92045762D01*
X139892865Y-92045904D01*
X139877109Y-92052511D01*
X139875894Y-92053331D01*
X139874461Y-92053635D01*
X139864034Y-92058113D01*
X139859639Y-92061133D01*
X139854457Y-92062404D01*
X139849918Y-92064525D01*
X139821231Y-92085587D01*
X139789217Y-92101150D01*
X139789068Y-92101263D01*
X139780654Y-92110748D01*
X139769696Y-92117128D01*
X139760428Y-92129298D01*
X139756237Y-92132177D01*
X139754836Y-92134333D01*
X139744493Y-92141927D01*
X139726153Y-92172192D01*
X139702279Y-92199107D01*
X139698135Y-92211091D01*
X139690454Y-92221177D01*
X139685808Y-92238771D01*
X139676712Y-92253781D01*
X139671407Y-92288391D01*
X139659539Y-92322715D01*
X139660297Y-92335374D01*
X139657060Y-92347631D01*
X139659530Y-92365882D01*
X139656897Y-92383060D01*
X139665171Y-92416785D01*
X139667356Y-92453270D01*
X139672900Y-92464673D01*
X139674600Y-92477238D01*
X139683940Y-92493282D01*
X139685221Y-92498500D01*
X139686551Y-92504630D01*
X139686820Y-92505017D01*
X139688062Y-92510081D01*
X139708520Y-92537946D01*
X139724538Y-92570895D01*
X139734023Y-92579309D01*
X139740403Y-92590267D01*
X139742744Y-92592917D01*
X139753434Y-92601058D01*
X139761091Y-92612098D01*
X139768293Y-92619054D01*
X139770656Y-92620574D01*
X139772295Y-92622856D01*
X139783945Y-92633743D01*
X139785023Y-92634412D01*
X139785772Y-92635438D01*
X139801455Y-92649877D01*
X139802091Y-92650265D01*
X139802533Y-92650865D01*
X139821835Y-92668481D01*
X139822288Y-92668755D01*
X139822601Y-92669177D01*
X139845108Y-92689591D01*
X139845455Y-92689799D01*
X139845699Y-92690127D01*
X139870996Y-92712962D01*
X139871289Y-92713137D01*
X139871492Y-92713408D01*
X139899165Y-92738288D01*
X139899431Y-92738446D01*
X139899617Y-92738694D01*
X139929252Y-92765241D01*
X139929476Y-92765373D01*
X139929633Y-92765582D01*
X139955011Y-92788245D01*
X139955090Y-92788291D01*
X139955146Y-92788366D01*
X139991034Y-92820381D01*
X140022106Y-92848138D01*
X140022108Y-92848139D01*
X140047950Y-92871290D01*
X140069471Y-92890667D01*
X140077055Y-92897555D01*
X140086480Y-92921036D01*
X140088987Y-92924879D01*
X140089954Y-92929367D01*
X140102268Y-92957808D01*
X140104934Y-92961664D01*
X140106048Y-92966220D01*
X140118879Y-92993752D01*
X140121354Y-92997129D01*
X140122447Y-93001168D01*
X140129042Y-93014456D01*
X140134016Y-93020905D01*
X140136519Y-93028659D01*
X140168968Y-93086868D01*
X140177447Y-93096834D01*
X140182413Y-93108940D01*
X140219641Y-93165065D01*
X140228566Y-93174050D01*
X140234232Y-93185374D01*
X140276921Y-93240345D01*
X140285654Y-93247914D01*
X140291518Y-93257877D01*
X140340351Y-93312623D01*
X140345516Y-93316518D01*
X140349009Y-93321967D01*
X140362152Y-93335620D01*
X140367337Y-93339229D01*
X140370940Y-93344416D01*
X140426449Y-93397955D01*
X140435726Y-93403914D01*
X140442591Y-93412543D01*
X140499871Y-93461026D01*
X140510041Y-93466662D01*
X140517886Y-93475245D01*
X140578140Y-93519541D01*
X140588524Y-93524399D01*
X140596812Y-93532320D01*
X140661245Y-93573294D01*
X140671100Y-93577117D01*
X140679183Y-93583933D01*
X140748997Y-93622453D01*
X140754811Y-93624301D01*
X140759613Y-93628065D01*
X140780599Y-93638682D01*
X140785583Y-93640072D01*
X140789750Y-93643138D01*
X140857805Y-93675010D01*
X140865983Y-93677026D01*
X140873010Y-93681678D01*
X140941024Y-93709512D01*
X140949770Y-93711213D01*
X140957450Y-93715738D01*
X141026652Y-93739910D01*
X141035466Y-93741149D01*
X141043361Y-93745260D01*
X141114981Y-93766142D01*
X141123346Y-93766875D01*
X141130976Y-93770380D01*
X141206241Y-93788347D01*
X141213756Y-93788633D01*
X141220721Y-93791467D01*
X141300861Y-93806891D01*
X141305934Y-93806859D01*
X141310690Y-93808632D01*
X141357159Y-93816148D01*
X141359581Y-93816061D01*
X141361862Y-93816874D01*
X141381699Y-93819794D01*
X141384446Y-93819656D01*
X141387052Y-93820538D01*
X141404380Y-93822804D01*
X141408772Y-93822512D01*
X141412978Y-93823816D01*
X141429195Y-93825512D01*
X141434445Y-93825027D01*
X141439527Y-93826431D01*
X141456027Y-93827642D01*
X141460878Y-93827042D01*
X141465624Y-93828208D01*
X141483804Y-93829019D01*
X141487410Y-93828468D01*
X141490970Y-93829262D01*
X141512226Y-93829755D01*
X141514418Y-93829372D01*
X141516597Y-93829828D01*
X141542323Y-93830089D01*
X141543375Y-93829891D01*
X141544420Y-93830103D01*
X141570904Y-93830206D01*
X141571907Y-93830011D01*
X141572911Y-93830208D01*
X141610125Y-93830130D01*
X141612430Y-93829666D01*
X141614746Y-93830089D01*
X141646417Y-93829586D01*
X141650095Y-93828793D01*
X141653811Y-93829387D01*
X141681442Y-93828338D01*
X141686486Y-93827134D01*
X141691629Y-93827796D01*
X141716728Y-93826077D01*
X141722574Y-93824492D01*
X141728605Y-93825051D01*
X141752674Y-93822540D01*
X141758318Y-93820792D01*
X141764216Y-93821133D01*
X141788762Y-93817708D01*
X141793280Y-93816135D01*
X141798063Y-93816277D01*
X141824591Y-93811813D01*
X141827260Y-93810799D01*
X141830113Y-93810836D01*
X141852078Y-93806761D01*
X141856842Y-93804859D01*
X141861970Y-93804771D01*
X141920825Y-93792008D01*
X141927631Y-93789051D01*
X141935037Y-93788600D01*
X141996133Y-93772533D01*
X142002312Y-93769521D01*
X142009151Y-93768827D01*
X142069604Y-93750290D01*
X142076050Y-93746819D01*
X142083298Y-93745767D01*
X142140221Y-93725595D01*
X142144638Y-93722966D01*
X142149700Y-93722074D01*
X142161079Y-93717651D01*
X142162263Y-93716897D01*
X142163643Y-93716642D01*
X142206821Y-93699450D01*
X142207593Y-93698950D01*
X142208495Y-93698778D01*
X142250869Y-93681640D01*
X142251722Y-93681080D01*
X142252726Y-93680883D01*
X142294684Y-93663621D01*
X142295601Y-93663012D01*
X142296677Y-93662793D01*
X142338607Y-93645226D01*
X142339557Y-93644586D01*
X142340679Y-93644350D01*
X142382968Y-93626298D01*
X142383929Y-93625641D01*
X142385065Y-93625394D01*
X142428099Y-93606676D01*
X142429038Y-93606025D01*
X142430155Y-93605774D01*
X142474324Y-93586210D01*
X142475221Y-93585578D01*
X142476292Y-93585331D01*
X142521984Y-93564740D01*
X142522822Y-93564142D01*
X142523821Y-93563905D01*
X142571422Y-93542108D01*
X142572191Y-93541552D01*
X142573113Y-93541328D01*
X142623011Y-93518144D01*
X142623702Y-93517638D01*
X142624529Y-93517433D01*
X142677112Y-93492680D01*
X142677720Y-93492231D01*
X142678457Y-93492044D01*
X142734113Y-93465542D01*
X142734642Y-93465148D01*
X142735278Y-93464984D01*
X142794393Y-93436555D01*
X142794848Y-93436213D01*
X142795400Y-93436069D01*
X142858363Y-93405530D01*
X142858749Y-93405237D01*
X142859221Y-93405113D01*
X142926418Y-93372284D01*
X142926739Y-93372040D01*
X142927128Y-93371936D01*
X142998950Y-93336638D01*
X142999217Y-93336433D01*
X142999543Y-93336346D01*
X143076376Y-93298397D01*
X143076595Y-93298229D01*
X143076860Y-93298157D01*
X143159091Y-93257377D01*
X143159265Y-93257243D01*
X143159478Y-93257185D01*
X143247495Y-93213394D01*
X143247586Y-93213323D01*
X143247698Y-93213293D01*
X143270206Y-93202075D01*
X143270208Y-93202075D01*
X143348102Y-93163323D01*
X143420079Y-93127692D01*
X143486337Y-93095097D01*
X143547838Y-93065081D01*
X143604753Y-93037571D01*
X143657751Y-93012250D01*
X143706921Y-92989080D01*
X143753230Y-92967604D01*
X143797002Y-92947671D01*
X143838608Y-92929102D01*
X143878814Y-92911544D01*
X143918143Y-92894755D01*
X143957159Y-92878480D01*
X143996426Y-92862463D01*
X144036543Y-92846442D01*
X144068921Y-92833726D01*
X144068922Y-92833726D01*
X144092445Y-92824489D01*
X144093133Y-92824047D01*
X144093937Y-92823899D01*
X144115330Y-92815380D01*
X144116145Y-92814851D01*
X144117097Y-92814670D01*
X144135466Y-92807234D01*
X144136611Y-92806482D01*
X144137955Y-92806215D01*
X144152410Y-92800228D01*
X144154642Y-92798737D01*
X144157265Y-92798172D01*
X144166914Y-92793997D01*
X144175161Y-92788297D01*
X144184820Y-92785613D01*
X144188760Y-92783624D01*
X144196088Y-92777893D01*
X144204905Y-92774914D01*
X144238884Y-92745203D01*
X144254443Y-92745538D01*
X144284404Y-92746802D01*
X144286007Y-92746216D01*
X144295694Y-92746424D01*
X144298043Y-92746009D01*
X144304849Y-92743360D01*
X144308634Y-92743255D01*
X144312275Y-92743176D01*
X144326229Y-92740083D01*
X144342342Y-92737074D01*
X144365714Y-92733207D01*
X144393186Y-92729098D01*
X144422352Y-92725133D01*
X144451393Y-92721578D01*
X144479309Y-92718582D01*
X144485416Y-92718000D01*
X144510245Y-92716020D01*
X144533403Y-92714774D01*
X144557336Y-92714131D01*
X144583305Y-92714122D01*
X144612361Y-92714822D01*
X144645429Y-92716335D01*
X144683141Y-92718752D01*
X144726305Y-92722168D01*
X144775459Y-92726646D01*
X144830984Y-92732217D01*
X144889833Y-92738523D01*
X144975553Y-92748499D01*
X145067408Y-92760255D01*
X145165998Y-92773857D01*
X145270531Y-92789193D01*
X145380787Y-92806225D01*
X145496316Y-92824882D01*
X145616631Y-92845080D01*
X145741503Y-92866783D01*
X145870295Y-92889876D01*
X146002856Y-92914335D01*
X146138672Y-92940067D01*
X146277452Y-92967022D01*
X146418905Y-92995148D01*
X146562337Y-93024313D01*
X146707818Y-93054540D01*
X146854885Y-93085746D01*
X147002687Y-93117757D01*
X147089754Y-93136920D01*
X147133986Y-93146716D01*
X147134742Y-93146732D01*
X147135434Y-93147033D01*
X147173651Y-93155320D01*
X147176040Y-93155361D01*
X147178246Y-93156283D01*
X147210819Y-93162870D01*
X147215731Y-93162886D01*
X147220312Y-93164647D01*
X147247877Y-93169399D01*
X147256599Y-93169175D01*
X147264893Y-93171885D01*
X147288081Y-93174667D01*
X147302375Y-93173565D01*
X147316330Y-93176850D01*
X147335774Y-93177528D01*
X147357463Y-93173994D01*
X147379326Y-93176213D01*
X147395658Y-93174653D01*
X147409670Y-93170448D01*
X147410984Y-93170575D01*
X147426933Y-93165712D01*
X147455352Y-93163424D01*
X147469206Y-93159490D01*
X147486517Y-93150630D01*
X147490869Y-93150148D01*
X147506896Y-93141328D01*
X147519378Y-93137522D01*
X147520926Y-93137057D01*
X147520941Y-93137045D01*
X147536085Y-93132427D01*
X147548095Y-93125985D01*
X147570159Y-93107823D01*
X147585633Y-93099904D01*
X147588685Y-93096317D01*
X147605452Y-93087090D01*
X147616249Y-93078006D01*
X147633121Y-93056928D01*
X147654398Y-93040302D01*
X147664616Y-93028442D01*
X147673251Y-93013178D01*
X147685880Y-93001008D01*
X147696151Y-92986236D01*
X147699970Y-92977479D01*
X147706463Y-92970477D01*
X147717421Y-92952659D01*
X147718740Y-92949100D01*
X147721260Y-92946259D01*
X147733538Y-92925262D01*
X147733675Y-92924867D01*
X147733948Y-92924557D01*
X147738227Y-92917198D01*
X147738846Y-92915392D01*
X147740093Y-92913947D01*
X147777362Y-92848170D01*
X147778644Y-92844291D01*
X147781238Y-92841134D01*
X147816170Y-92775885D01*
X147817395Y-92771857D01*
X147819987Y-92768539D01*
X147852188Y-92704647D01*
X147853394Y-92700296D01*
X147856078Y-92696667D01*
X147885152Y-92634966D01*
X147886373Y-92630060D01*
X147889255Y-92625911D01*
X147914807Y-92567232D01*
X147916068Y-92561440D01*
X147919280Y-92556453D01*
X147940916Y-92501628D01*
X147942066Y-92495292D01*
X147945346Y-92489750D01*
X147959210Y-92450310D01*
X147960440Y-92441687D01*
X147964487Y-92433974D01*
X147979948Y-92381560D01*
X147981039Y-92369532D01*
X147985876Y-92358465D01*
X147996592Y-92309553D01*
X147996866Y-92295368D01*
X148001441Y-92281941D01*
X148007441Y-92236758D01*
X148006350Y-92219822D01*
X148010189Y-92203287D01*
X148011500Y-92162060D01*
X148008121Y-92141715D01*
X148010306Y-92121213D01*
X148006956Y-92084173D01*
X147999813Y-92059932D01*
X147998710Y-92034681D01*
X147990725Y-92002054D01*
X147977742Y-91974214D01*
X147977634Y-91972054D01*
X147976858Y-91970417D01*
X147970819Y-91944204D01*
X147958228Y-91916219D01*
X147937168Y-91886666D01*
X147932757Y-91877357D01*
X147931803Y-91874154D01*
X147930448Y-91872485D01*
X147921624Y-91853866D01*
X147904453Y-91830751D01*
X147884375Y-91812582D01*
X147882327Y-91809708D01*
X147878716Y-91807449D01*
X147878709Y-91807435D01*
X147878156Y-91806954D01*
X147874671Y-91803800D01*
X147849355Y-91772626D01*
X147827632Y-91754610D01*
X147809423Y-91744756D01*
X147807477Y-91742995D01*
X147803634Y-91741623D01*
X147802005Y-91740742D01*
X147780012Y-91721619D01*
X147769486Y-91715602D01*
X147756575Y-91711281D01*
X147745619Y-91703201D01*
X147735486Y-91698442D01*
X147725184Y-91695891D01*
X147716265Y-91690137D01*
X147705214Y-91685767D01*
X147694828Y-91683874D01*
X147685618Y-91678713D01*
X147673292Y-91674704D01*
X147663682Y-91673564D01*
X147654983Y-91669320D01*
X147641025Y-91665644D01*
X147632681Y-91665133D01*
X147624998Y-91661842D01*
X147609050Y-91658469D01*
X147602115Y-91658386D01*
X147595635Y-91655917D01*
X147577340Y-91652821D01*
X147571741Y-91652982D01*
X147566447Y-91651162D01*
X147545448Y-91648315D01*
X147541028Y-91648588D01*
X147536807Y-91647258D01*
X147512745Y-91644630D01*
X147509280Y-91644934D01*
X147505938Y-91643956D01*
X147478458Y-91641521D01*
X147475774Y-91641812D01*
X147473172Y-91641095D01*
X147441916Y-91638823D01*
X147439836Y-91639082D01*
X147437809Y-91638550D01*
X147402420Y-91636414D01*
X147400816Y-91636634D01*
X147399248Y-91636238D01*
X147359366Y-91634210D01*
X147358144Y-91634389D01*
X147356942Y-91634095D01*
X147312212Y-91632145D01*
X147311270Y-91632290D01*
X147310344Y-91632069D01*
X147260408Y-91630171D01*
X147259697Y-91630285D01*
X147258995Y-91630120D01*
X147203496Y-91628245D01*
X147202961Y-91628333D01*
X147202434Y-91628211D01*
X147141014Y-91626331D01*
X147140621Y-91626397D01*
X147140232Y-91626308D01*
X147072535Y-91624394D01*
X147072249Y-91624442D01*
X147071965Y-91624378D01*
X146997634Y-91622403D01*
X146997502Y-91622426D01*
X146997370Y-91622396D01*
X146983831Y-91622047D01*
X146862508Y-91618730D01*
X146748468Y-91615198D01*
X146640289Y-91611396D01*
X146537769Y-91607310D01*
X146440149Y-91602902D01*
X146347041Y-91598151D01*
X146257795Y-91593026D01*
X146171916Y-91587503D01*
X146088835Y-91581555D01*
X146007715Y-91575130D01*
X145928162Y-91568213D01*
X145849290Y-91560742D01*
X145824259Y-91558242D01*
X145699013Y-91544781D01*
X145579370Y-91530270D01*
X145463634Y-91514455D01*
X145351027Y-91497183D01*
X145240608Y-91478272D01*
X145131605Y-91457560D01*
X145023193Y-91434871D01*
X144914434Y-91409999D01*
X144804451Y-91382736D01*
X144692375Y-91352868D01*
X144577453Y-91320209D01*
X144458838Y-91284540D01*
X144335733Y-91245658D01*
X144207216Y-91203313D01*
X144105287Y-91168633D01*
X144059137Y-91152428D01*
X144016350Y-91136741D01*
X143975830Y-91121138D01*
X143936731Y-91105263D01*
X143898166Y-91088732D01*
X143859165Y-91071101D01*
X143818715Y-91051884D01*
X143776147Y-91030732D01*
X143730537Y-91007167D01*
X143681234Y-90980841D01*
X143627459Y-90951342D01*
X143568747Y-90918437D01*
X143504384Y-90881760D01*
X143483723Y-90869886D01*
X143483722Y-90869886D01*
X143425246Y-90836239D01*
X143425128Y-90836199D01*
X143425035Y-90836118D01*
X143372064Y-90805690D01*
X143371898Y-90805634D01*
X143371766Y-90805519D01*
X143323998Y-90778145D01*
X143323763Y-90778066D01*
X143323574Y-90777902D01*
X143280561Y-90753336D01*
X143280243Y-90753230D01*
X143279990Y-90753011D01*
X143241285Y-90731006D01*
X143240864Y-90730866D01*
X143240528Y-90730577D01*
X143205683Y-90710886D01*
X143205136Y-90710706D01*
X143204696Y-90710330D01*
X143173263Y-90692707D01*
X143172581Y-90692485D01*
X143172035Y-90692022D01*
X143143567Y-90676218D01*
X143142716Y-90675945D01*
X143142034Y-90675373D01*
X143116084Y-90661143D01*
X143115078Y-90660826D01*
X143114263Y-90660151D01*
X143090381Y-90647248D01*
X143089223Y-90646891D01*
X143088281Y-90646122D01*
X143066021Y-90634299D01*
X143064760Y-90633920D01*
X143063731Y-90633093D01*
X143042646Y-90622101D01*
X143041323Y-90621714D01*
X143040243Y-90620861D01*
X143019883Y-90610455D01*
X143018614Y-90610095D01*
X143017572Y-90609285D01*
X142997492Y-90599217D01*
X142996334Y-90598899D01*
X142995380Y-90598167D01*
X142975130Y-90588192D01*
X142974189Y-90587940D01*
X142973414Y-90587353D01*
X142952548Y-90577221D01*
X142952143Y-90577115D01*
X142951810Y-90576864D01*
X142949979Y-90575980D01*
X142947768Y-90575408D01*
X142945929Y-90574060D01*
X142878490Y-90542623D01*
X142873287Y-90541350D01*
X142868866Y-90538319D01*
X142805249Y-90511065D01*
X142798839Y-90509709D01*
X142793299Y-90506216D01*
X142732130Y-90482752D01*
X142724745Y-90481485D01*
X142718239Y-90477772D01*
X142658149Y-90457709D01*
X142650228Y-90456706D01*
X142643114Y-90453078D01*
X142582731Y-90436021D01*
X142574822Y-90435395D01*
X142567597Y-90432125D01*
X142505547Y-90417682D01*
X142498217Y-90417445D01*
X142491413Y-90414712D01*
X142440751Y-90405200D01*
X157850322Y-90405200D01*
X157624618Y-90630511D01*
X157556897Y-90793600D01*
X157486669Y-90793600D01*
X157486669Y-90750000D01*
X157463644Y-90627635D01*
X157391327Y-90515251D01*
X157280983Y-90439856D01*
X157150000Y-90413331D01*
X155950000Y-90413331D01*
X155827635Y-90436356D01*
X155715251Y-90508673D01*
X155639856Y-90619017D01*
X155613331Y-90750000D01*
X155613331Y-91411933D01*
X155264172Y-91761092D01*
X155286669Y-91650000D01*
X155286669Y-90750000D01*
X155263644Y-90627635D01*
X155191327Y-90515251D01*
X155080983Y-90439856D01*
X154950000Y-90413331D01*
X153750000Y-90413331D01*
X153627635Y-90436356D01*
X153515251Y-90508673D01*
X153439856Y-90619017D01*
X153413331Y-90750000D01*
X153413331Y-91650000D01*
X153436356Y-91772365D01*
X153508673Y-91884749D01*
X153619017Y-91960144D01*
X153663166Y-91969085D01*
X153652085Y-91995771D01*
X153651851Y-92263547D01*
X153754109Y-92511029D01*
X153894894Y-92652059D01*
X153827017Y-92815525D01*
X153826901Y-92948363D01*
X153698279Y-93076985D01*
X153466699Y-93076783D01*
X153219217Y-93179041D01*
X153029706Y-93368222D01*
X152927017Y-93615525D01*
X152926783Y-93883301D01*
X153029041Y-94130783D01*
X153218222Y-94320294D01*
X153331176Y-94367197D01*
X153057821Y-94640552D01*
X152969724Y-94772397D01*
X152938789Y-94927920D01*
X152938789Y-102107994D01*
X152969724Y-102263517D01*
X153030195Y-102354017D01*
X153057821Y-102395362D01*
X154513863Y-103851404D01*
X154645708Y-103939501D01*
X154801231Y-103970436D01*
X155354824Y-103970436D01*
X155510347Y-103939501D01*
X155578244Y-103894133D01*
X155831024Y-103894354D01*
X156078506Y-103792096D01*
X156113149Y-103757513D01*
X157497142Y-104933678D01*
X157552302Y-104964391D01*
X157604793Y-104999465D01*
X157621129Y-105002714D01*
X157628331Y-105006724D01*
X157628331Y-105115000D01*
X157644912Y-105203120D01*
X157628331Y-105285000D01*
X157628331Y-105515000D01*
X157642555Y-105590590D01*
X156837080Y-104906070D01*
X156761965Y-104830824D01*
X156514662Y-104728135D01*
X156246886Y-104727901D01*
X155999404Y-104830159D01*
X155809893Y-105019340D01*
X155707204Y-105266643D01*
X155706994Y-105507222D01*
X155584679Y-105557762D01*
X155395168Y-105746943D01*
X155292479Y-105994246D01*
X155292245Y-106262022D01*
X155394503Y-106509504D01*
X155583684Y-106699015D01*
X155789110Y-106784315D01*
X155736400Y-106836934D01*
X155633711Y-107084237D01*
X155633477Y-107352013D01*
X155735735Y-107599495D01*
X155924916Y-107789006D01*
X156172219Y-107891695D01*
X156439995Y-107891929D01*
X156459463Y-107883885D01*
X156491691Y-107961883D01*
X156529843Y-108000101D01*
X156492356Y-108037523D01*
X156459617Y-108116366D01*
X156441169Y-108108706D01*
X156173393Y-108108472D01*
X155925911Y-108210730D01*
X155736400Y-108399911D01*
X155633711Y-108647214D01*
X155633477Y-108914990D01*
X155735735Y-109162472D01*
X155789330Y-109216160D01*
X155584679Y-109300721D01*
X155395168Y-109489902D01*
X155292479Y-109737205D01*
X155292245Y-110004981D01*
X155394503Y-110252463D01*
X155448098Y-110306151D01*
X155243448Y-110390711D01*
X155053937Y-110579892D01*
X154951248Y-110827195D01*
X154951014Y-111094971D01*
X155053272Y-111342453D01*
X155106867Y-111396141D01*
X154902216Y-111480702D01*
X154712705Y-111669883D01*
X154610016Y-111917186D01*
X154609782Y-112184962D01*
X154712040Y-112432444D01*
X154765634Y-112486132D01*
X154560984Y-112570692D01*
X154371473Y-112759873D01*
X154268784Y-113007176D01*
X154268550Y-113274952D01*
X154370808Y-113522434D01*
X154424403Y-113576122D01*
X154219752Y-113660683D01*
X154030241Y-113849864D01*
X153927552Y-114097167D01*
X153927318Y-114364943D01*
X154029576Y-114612425D01*
X154083171Y-114666113D01*
X153878520Y-114750674D01*
X153689009Y-114939855D01*
X153586320Y-115187158D01*
X153586086Y-115454934D01*
X153688344Y-115702416D01*
X153877525Y-115891927D01*
X154001019Y-115943206D01*
X154000810Y-116182537D01*
X154103068Y-116430019D01*
X154292249Y-116619530D01*
X154539552Y-116722219D01*
X154807328Y-116722453D01*
X155054810Y-116620195D01*
X155105900Y-116569194D01*
X155105900Y-117062300D01*
X155136835Y-117217823D01*
X155171266Y-117269352D01*
X155224932Y-117349668D01*
X155526985Y-117651721D01*
X155526783Y-117883301D01*
X155581242Y-118015102D01*
X154789838Y-118015102D01*
X154623015Y-117848279D01*
X154623217Y-117616699D01*
X154520959Y-117369217D01*
X154331778Y-117179706D01*
X154084475Y-117077017D01*
X153816699Y-117076783D01*
X153569217Y-117179041D01*
X153379706Y-117368222D01*
X153277017Y-117615525D01*
X153276783Y-117883301D01*
X153379041Y-118130783D01*
X153568222Y-118320294D01*
X153745869Y-118394059D01*
X153601244Y-118538432D01*
X153498555Y-118785735D01*
X153498321Y-119053511D01*
X153600579Y-119300993D01*
X153789760Y-119490504D01*
X154037063Y-119593193D01*
X154304839Y-119593427D01*
X154552321Y-119491169D01*
X154717167Y-119326610D01*
X156724800Y-119326610D01*
X156747917Y-119331208D01*
X157587436Y-119331208D01*
X157742959Y-119300273D01*
X157874804Y-119212176D01*
X158368493Y-118718487D01*
X158422647Y-118637440D01*
X158456590Y-118586642D01*
X158487525Y-118431119D01*
X158487525Y-116977607D01*
X158456590Y-116822084D01*
X158432926Y-116786669D01*
X158625000Y-116786669D01*
X158747365Y-116763644D01*
X158859749Y-116691327D01*
X158935144Y-116580983D01*
X158961669Y-116450000D01*
X158961669Y-116100000D01*
X158943625Y-116004105D01*
X158961669Y-115915000D01*
X158961669Y-115685000D01*
X158945088Y-115596880D01*
X158961669Y-115515000D01*
X158961669Y-115285000D01*
X158945088Y-115196880D01*
X158961669Y-115115000D01*
X158961669Y-114885000D01*
X158945088Y-114796880D01*
X158961669Y-114715000D01*
X158961669Y-114485000D01*
X158945088Y-114396880D01*
X158961669Y-114315000D01*
X158961669Y-114085000D01*
X158945088Y-113996880D01*
X158961669Y-113915000D01*
X158961669Y-113685000D01*
X158945088Y-113596880D01*
X158961669Y-113515000D01*
X158961669Y-113285000D01*
X158945088Y-113196880D01*
X158961669Y-113115000D01*
X158961669Y-112885000D01*
X158945088Y-112796880D01*
X158961669Y-112715000D01*
X158961669Y-112485000D01*
X158945088Y-112396880D01*
X158961669Y-112315000D01*
X158961669Y-112085000D01*
X158945088Y-111996880D01*
X158961669Y-111915000D01*
X158961669Y-111685000D01*
X158945088Y-111596880D01*
X158961669Y-111515000D01*
X158961669Y-111285000D01*
X158945088Y-111196880D01*
X158961669Y-111115000D01*
X158961669Y-110885000D01*
X158945088Y-110796880D01*
X158961669Y-110715000D01*
X158961669Y-110485000D01*
X158945088Y-110396880D01*
X158961669Y-110315000D01*
X158961669Y-110085000D01*
X158945088Y-109996880D01*
X158961669Y-109915000D01*
X158961669Y-109685000D01*
X158945088Y-109596880D01*
X158961669Y-109515000D01*
X158961669Y-109285000D01*
X158945088Y-109196880D01*
X158961669Y-109115000D01*
X158961669Y-108885000D01*
X158945088Y-108796880D01*
X158961669Y-108715000D01*
X158961669Y-108485000D01*
X158945088Y-108396880D01*
X158961669Y-108315000D01*
X158961669Y-108085000D01*
X158945088Y-107996880D01*
X158961669Y-107915000D01*
X158961669Y-107685000D01*
X158945088Y-107596880D01*
X158961669Y-107515000D01*
X158961669Y-107285000D01*
X158945088Y-107196880D01*
X158961669Y-107115000D01*
X158961669Y-106885000D01*
X158945088Y-106796880D01*
X158961669Y-106715000D01*
X158961669Y-106485000D01*
X158945088Y-106396880D01*
X158961669Y-106315000D01*
X158961669Y-106206400D01*
X159531067Y-106206400D01*
X159686590Y-106175465D01*
X159818435Y-106087368D01*
X160232557Y-105673246D01*
X160251780Y-105644477D01*
X160320654Y-105541401D01*
X160338331Y-105452531D01*
X160338331Y-105515000D01*
X160354912Y-105603120D01*
X160338331Y-105685000D01*
X160338331Y-105915000D01*
X160351793Y-105986543D01*
X160344077Y-105989739D01*
X160179739Y-106154078D01*
X160090800Y-106368796D01*
X160090800Y-106396450D01*
X160214083Y-106519733D01*
X160179739Y-106554078D01*
X160090800Y-106768796D01*
X160090800Y-106796450D01*
X160094350Y-106800000D01*
X160090800Y-106803550D01*
X160090800Y-106831204D01*
X160160718Y-107000000D01*
X160090800Y-107168796D01*
X160090800Y-107196450D01*
X160094350Y-107200000D01*
X160090800Y-107203550D01*
X160090800Y-107231204D01*
X160160718Y-107400000D01*
X160090800Y-107568796D01*
X160090800Y-107596450D01*
X160094350Y-107600000D01*
X160090800Y-107603550D01*
X160090800Y-107631204D01*
X160160718Y-107800000D01*
X160090800Y-107968796D01*
X160090800Y-107996450D01*
X160094350Y-108000000D01*
X160090800Y-108003550D01*
X160090800Y-108031204D01*
X160160718Y-108200000D01*
X160090800Y-108368796D01*
X160090800Y-108396450D01*
X160094350Y-108400000D01*
X160090800Y-108403550D01*
X160090800Y-108431204D01*
X160160718Y-108600000D01*
X160090800Y-108768796D01*
X160090800Y-108796450D01*
X160094350Y-108800000D01*
X160090800Y-108803550D01*
X160090800Y-108831204D01*
X160160718Y-109000000D01*
X160090800Y-109168796D01*
X160090800Y-109196450D01*
X160094350Y-109200000D01*
X160090800Y-109203550D01*
X160090800Y-109231204D01*
X160179739Y-109445922D01*
X160214083Y-109480267D01*
X160090800Y-109603550D01*
X160090800Y-109631204D01*
X160179739Y-109845922D01*
X160344077Y-110010261D01*
X160352740Y-110013849D01*
X160338331Y-110085000D01*
X160338331Y-110315000D01*
X160354912Y-110403120D01*
X160338331Y-110485000D01*
X160338331Y-110715000D01*
X160354912Y-110803120D01*
X160338331Y-110885000D01*
X160338331Y-111115000D01*
X160354912Y-111203120D01*
X160338331Y-111285000D01*
X160338331Y-111515000D01*
X160354912Y-111603120D01*
X160338331Y-111685000D01*
X160338331Y-111915000D01*
X160354912Y-112003120D01*
X160338331Y-112085000D01*
X160338331Y-112315000D01*
X160354912Y-112403120D01*
X160338331Y-112485000D01*
X160338331Y-112715000D01*
X160354912Y-112803120D01*
X160338331Y-112885000D01*
X160338331Y-113115000D01*
X160354912Y-113203120D01*
X160338331Y-113285000D01*
X160338331Y-113515000D01*
X160354912Y-113603120D01*
X160338331Y-113685000D01*
X160338331Y-113915000D01*
X160354912Y-114003120D01*
X160338331Y-114085000D01*
X160338331Y-114315000D01*
X160354912Y-114403120D01*
X160338331Y-114485000D01*
X160338331Y-114715000D01*
X160354912Y-114803120D01*
X160338331Y-114885000D01*
X160338331Y-115115000D01*
X160354912Y-115203120D01*
X160338331Y-115285000D01*
X160338331Y-115515000D01*
X160354912Y-115603120D01*
X160338331Y-115685000D01*
X160338331Y-115915000D01*
X160356375Y-116010895D01*
X160338331Y-116100000D01*
X160338331Y-116450000D01*
X160361356Y-116572365D01*
X160416996Y-116658832D01*
X160327017Y-116875525D01*
X160326783Y-117143301D01*
X160429041Y-117390783D01*
X160618222Y-117580294D01*
X160865525Y-117682983D01*
X161133301Y-117683217D01*
X161380783Y-117580959D01*
X161570294Y-117391778D01*
X161672983Y-117144475D01*
X161673217Y-116876699D01*
X161586495Y-116666818D01*
X161593254Y-116656927D01*
X161653839Y-116717618D01*
X161838744Y-116794397D01*
X161838593Y-116967746D01*
X161940851Y-117215228D01*
X162130032Y-117404739D01*
X162377335Y-117507428D01*
X162645111Y-117507662D01*
X162892593Y-117405404D01*
X163027879Y-117270353D01*
X163071608Y-117376184D01*
X163260789Y-117565695D01*
X163508092Y-117668384D01*
X163775868Y-117668618D01*
X164023350Y-117566360D01*
X164212861Y-117377179D01*
X164315550Y-117129876D01*
X164315784Y-116862100D01*
X164213526Y-116614618D01*
X164122694Y-116523627D01*
X164125216Y-116506470D01*
X164169713Y-116544285D01*
X164244827Y-116619530D01*
X164492130Y-116722219D01*
X164759906Y-116722453D01*
X165007388Y-116620195D01*
X165196899Y-116431014D01*
X165299588Y-116183711D01*
X165299798Y-115943131D01*
X165422112Y-115892592D01*
X165594800Y-115720205D01*
X165594800Y-123210093D01*
X165408979Y-124144277D01*
X164902410Y-124902412D01*
X164144277Y-125408979D01*
X163210092Y-125594800D01*
X132789907Y-125594800D01*
X131855723Y-125408979D01*
X131097588Y-124902410D01*
X130591021Y-124144277D01*
X130485235Y-123612452D01*
X130919483Y-123612452D01*
X131197527Y-124285371D01*
X131711921Y-124800664D01*
X132384354Y-125079882D01*
X133112452Y-125080517D01*
X133785371Y-124802473D01*
X134300664Y-124288079D01*
X134579882Y-123615646D01*
X134579884Y-123612452D01*
X161419483Y-123612452D01*
X161697527Y-124285371D01*
X162211921Y-124800664D01*
X162884354Y-125079882D01*
X163612452Y-125080517D01*
X164285371Y-124802473D01*
X164800664Y-124288079D01*
X165079882Y-123615646D01*
X165080517Y-122887548D01*
X164802473Y-122214629D01*
X164288079Y-121699336D01*
X163615646Y-121420118D01*
X162887548Y-121419483D01*
X162214629Y-121697527D01*
X161699336Y-122211921D01*
X161420118Y-122884354D01*
X161419483Y-123612452D01*
X134579884Y-123612452D01*
X134580517Y-122887548D01*
X134302473Y-122214629D01*
X133788079Y-121699336D01*
X133115646Y-121420118D01*
X132387548Y-121419483D01*
X131714629Y-121697527D01*
X131199336Y-122211921D01*
X130920118Y-122884354D01*
X130919483Y-123612452D01*
X130485235Y-123612452D01*
X130405200Y-123210092D01*
X130405200Y-112747800D01*
X131176150Y-112747800D01*
X131322200Y-112601750D01*
X131322200Y-111477800D01*
X131302200Y-111477800D01*
X131302200Y-111122200D01*
X131322200Y-111122200D01*
X131322200Y-111102200D01*
X131677800Y-111102200D01*
X131677800Y-111122200D01*
X132954150Y-111122200D01*
X133015000Y-111061350D01*
X133095850Y-111142200D01*
X134344800Y-111142200D01*
X134344800Y-111497800D01*
X133095850Y-111497800D01*
X133035000Y-111558650D01*
X132954150Y-111477800D01*
X131677800Y-111477800D01*
X131677800Y-112601750D01*
X131823850Y-112747800D01*
X132632205Y-112747800D01*
X132846923Y-112658861D01*
X133011261Y-112494522D01*
X133020858Y-112471353D01*
X133038739Y-112514522D01*
X133203077Y-112678861D01*
X133417795Y-112767800D01*
X133471237Y-112767800D01*
X133449731Y-112874000D01*
X133449731Y-114906000D01*
X133472756Y-115028365D01*
X133545073Y-115140749D01*
X133655417Y-115216144D01*
X133786400Y-115242669D01*
X135513600Y-115242669D01*
X135635965Y-115219644D01*
X135748349Y-115147327D01*
X135823744Y-115036983D01*
X135850269Y-114906000D01*
X135850269Y-112874000D01*
X135827244Y-112751635D01*
X135804934Y-112716964D01*
X135833335Y-112705200D01*
X136588130Y-112705200D01*
X136345856Y-112867082D01*
X136087073Y-113254379D01*
X135996200Y-113711226D01*
X135996200Y-114068774D01*
X136087073Y-114525621D01*
X136345856Y-114912918D01*
X136733153Y-115171701D01*
X137190000Y-115262574D01*
X137646847Y-115171701D01*
X138034144Y-114912918D01*
X138292927Y-114525621D01*
X138383800Y-114068774D01*
X138383800Y-113711226D01*
X138292927Y-113254379D01*
X138034144Y-112867082D01*
X137791870Y-112705200D01*
X139128130Y-112705200D01*
X138885856Y-112867082D01*
X138627073Y-113254379D01*
X138536200Y-113711226D01*
X138536200Y-114068774D01*
X138627073Y-114525621D01*
X138885856Y-114912918D01*
X139273153Y-115171701D01*
X139730000Y-115262574D01*
X140186847Y-115171701D01*
X140574144Y-114912918D01*
X140832927Y-114525621D01*
X140923800Y-114068774D01*
X140923800Y-113711226D01*
X140832927Y-113254379D01*
X140574144Y-112867082D01*
X140331870Y-112705200D01*
X141668130Y-112705200D01*
X141425856Y-112867082D01*
X141167073Y-113254379D01*
X141076200Y-113711226D01*
X141076200Y-114068774D01*
X141167073Y-114525621D01*
X141425856Y-114912918D01*
X141813153Y-115171701D01*
X142270000Y-115262574D01*
X142726847Y-115171701D01*
X143114144Y-114912918D01*
X143372927Y-114525621D01*
X143407714Y-114350736D01*
X143590148Y-114819716D01*
X143980470Y-115227363D01*
X144409618Y-115433737D01*
X144632200Y-115331950D01*
X144632200Y-114067800D01*
X144987800Y-114067800D01*
X144987800Y-115331950D01*
X145210382Y-115433737D01*
X145639530Y-115227363D01*
X146029852Y-114819716D01*
X146080000Y-114690801D01*
X146130148Y-114819716D01*
X146520470Y-115227363D01*
X146949618Y-115433737D01*
X147172200Y-115331950D01*
X147172200Y-114067800D01*
X147527800Y-114067800D01*
X147527800Y-115331950D01*
X147750382Y-115433737D01*
X148179530Y-115227363D01*
X148569852Y-114819716D01*
X148774462Y-114293729D01*
X148650191Y-114067800D01*
X147527800Y-114067800D01*
X147172200Y-114067800D01*
X144987800Y-114067800D01*
X144632200Y-114067800D01*
X144612200Y-114067800D01*
X144612200Y-113712200D01*
X144632200Y-113712200D01*
X144632200Y-113692200D01*
X144987800Y-113692200D01*
X144987800Y-113712200D01*
X147172200Y-113712200D01*
X147172200Y-113692200D01*
X147527800Y-113692200D01*
X147527800Y-113712200D01*
X148650191Y-113712200D01*
X148774462Y-113486271D01*
X148569852Y-112960284D01*
X148325609Y-112705200D01*
X148500000Y-112705200D01*
X148655063Y-112674356D01*
X148786520Y-112586520D01*
X148874356Y-112455063D01*
X148905200Y-112300000D01*
X148905200Y-110492983D01*
X148911261Y-110486922D01*
X149000200Y-110272204D01*
X149000200Y-109463850D01*
X148854150Y-109317800D01*
X147655200Y-109317800D01*
X147655200Y-108962200D01*
X148854150Y-108962200D01*
X149000200Y-108816150D01*
X149000200Y-108007796D01*
X148911261Y-107793078D01*
X148746923Y-107628739D01*
X148532205Y-107539800D01*
X148386371Y-107539800D01*
X148670101Y-107115168D01*
X148772574Y-106600000D01*
X148670101Y-106084832D01*
X148483257Y-105805200D01*
X148500000Y-105805200D01*
X148655063Y-105774356D01*
X148786520Y-105686520D01*
X148874356Y-105555063D01*
X148905200Y-105400000D01*
X148905200Y-101400000D01*
X148874356Y-101244937D01*
X148786520Y-101113480D01*
X148655063Y-101025644D01*
X148637749Y-101022200D01*
X148701750Y-101022200D01*
X148847800Y-100876150D01*
X148847800Y-100067795D01*
X148758861Y-99853077D01*
X148594522Y-99688739D01*
X148379804Y-99599800D01*
X147723850Y-99599800D01*
X147577800Y-99745850D01*
X147577800Y-100994800D01*
X147222200Y-100994800D01*
X147222200Y-99745850D01*
X147076150Y-99599800D01*
X146420196Y-99599800D01*
X146205478Y-99688739D01*
X146041139Y-99853077D01*
X145952200Y-100067795D01*
X145952200Y-100548325D01*
X145704144Y-100177082D01*
X145316847Y-99918299D01*
X144860000Y-99827426D01*
X144403153Y-99918299D01*
X144015856Y-100177082D01*
X143757073Y-100564379D01*
X143671456Y-100994800D01*
X143508544Y-100994800D01*
X143422927Y-100564379D01*
X143164144Y-100177082D01*
X142776847Y-99918299D01*
X142320000Y-99827426D01*
X141863153Y-99918299D01*
X141475856Y-100177082D01*
X141217073Y-100564379D01*
X141131456Y-100994800D01*
X140968544Y-100994800D01*
X140882927Y-100564379D01*
X140624144Y-100177082D01*
X140236847Y-99918299D01*
X139780000Y-99827426D01*
X139323153Y-99918299D01*
X138935856Y-100177082D01*
X138677073Y-100564379D01*
X138591456Y-100994800D01*
X138428544Y-100994800D01*
X138342927Y-100564379D01*
X138084144Y-100177082D01*
X137696847Y-99918299D01*
X137240000Y-99827426D01*
X136783153Y-99918299D01*
X136395856Y-100177082D01*
X136147800Y-100548325D01*
X136147800Y-100067795D01*
X136058861Y-99853077D01*
X135894522Y-99688739D01*
X135679804Y-99599800D01*
X135023850Y-99599800D01*
X134877800Y-99745850D01*
X134877800Y-100994800D01*
X134522200Y-100994800D01*
X134522200Y-99745850D01*
X134376150Y-99599800D01*
X133720196Y-99599800D01*
X133505478Y-99688739D01*
X133341139Y-99853077D01*
X133252200Y-100067795D01*
X133252200Y-100876150D01*
X133392277Y-101016227D01*
X133362260Y-101022198D01*
X133252200Y-101022198D01*
X133252200Y-101087608D01*
X133213480Y-101113480D01*
X133125644Y-101244937D01*
X133094800Y-101400000D01*
X133094800Y-102600000D01*
X133125644Y-102755063D01*
X133213480Y-102886520D01*
X133344937Y-102974356D01*
X133435823Y-102992434D01*
X133268299Y-103243153D01*
X133177426Y-103700000D01*
X133268299Y-104156847D01*
X133527082Y-104544144D01*
X133898325Y-104792200D01*
X133417795Y-104792200D01*
X133203077Y-104881139D01*
X133038739Y-105045478D01*
X133029142Y-105068647D01*
X133011261Y-105025478D01*
X132846923Y-104861139D01*
X132632205Y-104772200D01*
X132151675Y-104772200D01*
X132522918Y-104524144D01*
X132781701Y-104136847D01*
X132872574Y-103680000D01*
X132781701Y-103223153D01*
X132522918Y-102835856D01*
X132135621Y-102577073D01*
X131678774Y-102486200D01*
X131321226Y-102486200D01*
X130864379Y-102577073D01*
X130477082Y-102835856D01*
X130405200Y-102943435D01*
X130405200Y-93112452D01*
X130919483Y-93112452D01*
X131197527Y-93785371D01*
X131711921Y-94300664D01*
X132384354Y-94579882D01*
X133112452Y-94580517D01*
X133785371Y-94302473D01*
X134300664Y-93788079D01*
X134579882Y-93115646D01*
X134580517Y-92387548D01*
X134302473Y-91714629D01*
X133788079Y-91199336D01*
X133115646Y-90920118D01*
X132387548Y-90919483D01*
X131714629Y-91197527D01*
X131199336Y-91711921D01*
X130920118Y-92384354D01*
X130919483Y-93112452D01*
X130405200Y-93112452D01*
X130405200Y-92789908D01*
X130591021Y-91855723D01*
X131097588Y-91097590D01*
X131855723Y-90591021D01*
X132789907Y-90405200D01*
X141639922Y-90405200D01*
X141618447Y-90409298D01*
X141618447Y-90409298D01*
G37*
X141618447Y-90409298D02*
X141610494Y-90412520D01*
X141601920Y-90412886D01*
X141523209Y-90432066D01*
X141515225Y-90435780D01*
X141506460Y-90436610D01*
X141430404Y-90459372D01*
X141422089Y-90463777D01*
X141412785Y-90465181D01*
X141340572Y-90491226D01*
X141331591Y-90496640D01*
X141321341Y-90498841D01*
X141254159Y-90527869D01*
X141247913Y-90532181D01*
X141240576Y-90534102D01*
X141222468Y-90542904D01*
X141216006Y-90547804D01*
X141208267Y-90550230D01*
X141127287Y-90594483D01*
X141117973Y-90602272D01*
X141106676Y-90606723D01*
X141027455Y-90657687D01*
X141019166Y-90665693D01*
X141008752Y-90670636D01*
X140931428Y-90728151D01*
X140924103Y-90736255D01*
X140914555Y-90741565D01*
X140839269Y-90805474D01*
X140832840Y-90813579D01*
X140824123Y-90819146D01*
X140751014Y-90889293D01*
X140745406Y-90897321D01*
X140737469Y-90903060D01*
X140666678Y-90979286D01*
X140661812Y-90987186D01*
X140654601Y-90993024D01*
X140586266Y-91075171D01*
X140582062Y-91082912D01*
X140575513Y-91088801D01*
X140509776Y-91176712D01*
X140506167Y-91184265D01*
X140500224Y-91190163D01*
X140437223Y-91283679D01*
X140434141Y-91291041D01*
X140428746Y-91296922D01*
X140368622Y-91395887D01*
X140366011Y-91403049D01*
X140361112Y-91408895D01*
X140304005Y-91513151D01*
X140301994Y-91519545D01*
X140297894Y-91524848D01*
X140252801Y-91615462D01*
X140251412Y-91620571D01*
X140248306Y-91624858D01*
X140229968Y-91664772D01*
X140228862Y-91669404D01*
X140226176Y-91673338D01*
X140208555Y-91714703D01*
X140207620Y-91719168D01*
X140205149Y-91723004D01*
X140187738Y-91767112D01*
X140187022Y-91771057D01*
X140184931Y-91774476D01*
X140167224Y-91822617D01*
X140166715Y-91825850D01*
X140165061Y-91828676D01*
X140146552Y-91882144D01*
X140146327Y-91883775D01*
X140145511Y-91885201D01*
X140141166Y-91898154D01*
X140141003Y-91899425D01*
X140140375Y-91900542D01*
X140132706Y-91923988D01*
X140132513Y-91925592D01*
X140131734Y-91927008D01*
X140123864Y-91951862D01*
X140072159Y-91972726D01*
X140072070Y-91972784D01*
X140071967Y-91972804D01*
X140035986Y-91987349D01*
X140035803Y-91987469D01*
X140035593Y-91987509D01*
X140001585Y-92001307D01*
X140001395Y-92001432D01*
X140001172Y-92001475D01*
X139969697Y-92014294D01*
X139969475Y-92014441D01*
X139969210Y-92014492D01*
X139940827Y-92026104D01*
X139940555Y-92026284D01*
X139940234Y-92026347D01*
X139915500Y-92036521D01*
X139915123Y-92036771D01*
X139914678Y-92036860D01*
X139894154Y-92045367D01*
X139893563Y-92045762D01*
X139892865Y-92045904D01*
X139877109Y-92052511D01*
X139875894Y-92053331D01*
X139874461Y-92053635D01*
X139864034Y-92058113D01*
X139859639Y-92061133D01*
X139854457Y-92062404D01*
X139849918Y-92064525D01*
X139821231Y-92085587D01*
X139789217Y-92101150D01*
X139789068Y-92101263D01*
X139780654Y-92110748D01*
X139769696Y-92117128D01*
X139760428Y-92129298D01*
X139756237Y-92132177D01*
X139754836Y-92134333D01*
X139744493Y-92141927D01*
X139726153Y-92172192D01*
X139702279Y-92199107D01*
X139698135Y-92211091D01*
X139690454Y-92221177D01*
X139685808Y-92238771D01*
X139676712Y-92253781D01*
X139671407Y-92288391D01*
X139659539Y-92322715D01*
X139660297Y-92335374D01*
X139657060Y-92347631D01*
X139659530Y-92365882D01*
X139656897Y-92383060D01*
X139665171Y-92416785D01*
X139667356Y-92453270D01*
X139672900Y-92464673D01*
X139674600Y-92477238D01*
X139683940Y-92493282D01*
X139685221Y-92498500D01*
X139686551Y-92504630D01*
X139686820Y-92505017D01*
X139688062Y-92510081D01*
X139708520Y-92537946D01*
X139724538Y-92570895D01*
X139734023Y-92579309D01*
X139740403Y-92590267D01*
X139742744Y-92592917D01*
X139753434Y-92601058D01*
X139761091Y-92612098D01*
X139768293Y-92619054D01*
X139770656Y-92620574D01*
X139772295Y-92622856D01*
X139783945Y-92633743D01*
X139785023Y-92634412D01*
X139785772Y-92635438D01*
X139801455Y-92649877D01*
X139802091Y-92650265D01*
X139802533Y-92650865D01*
X139821835Y-92668481D01*
X139822288Y-92668755D01*
X139822601Y-92669177D01*
X139845108Y-92689591D01*
X139845455Y-92689799D01*
X139845699Y-92690127D01*
X139870996Y-92712962D01*
X139871289Y-92713137D01*
X139871492Y-92713408D01*
X139899165Y-92738288D01*
X139899431Y-92738446D01*
X139899617Y-92738694D01*
X139929252Y-92765241D01*
X139929476Y-92765373D01*
X139929633Y-92765582D01*
X139955011Y-92788245D01*
X139955090Y-92788291D01*
X139955146Y-92788366D01*
X139991034Y-92820381D01*
X140022106Y-92848138D01*
X140022108Y-92848139D01*
X140047950Y-92871290D01*
X140069471Y-92890667D01*
X140077055Y-92897555D01*
X140086480Y-92921036D01*
X140088987Y-92924879D01*
X140089954Y-92929367D01*
X140102268Y-92957808D01*
X140104934Y-92961664D01*
X140106048Y-92966220D01*
X140118879Y-92993752D01*
X140121354Y-92997129D01*
X140122447Y-93001168D01*
X140129042Y-93014456D01*
X140134016Y-93020905D01*
X140136519Y-93028659D01*
X140168968Y-93086868D01*
X140177447Y-93096834D01*
X140182413Y-93108940D01*
X140219641Y-93165065D01*
X140228566Y-93174050D01*
X140234232Y-93185374D01*
X140276921Y-93240345D01*
X140285654Y-93247914D01*
X140291518Y-93257877D01*
X140340351Y-93312623D01*
X140345516Y-93316518D01*
X140349009Y-93321967D01*
X140362152Y-93335620D01*
X140367337Y-93339229D01*
X140370940Y-93344416D01*
X140426449Y-93397955D01*
X140435726Y-93403914D01*
X140442591Y-93412543D01*
X140499871Y-93461026D01*
X140510041Y-93466662D01*
X140517886Y-93475245D01*
X140578140Y-93519541D01*
X140588524Y-93524399D01*
X140596812Y-93532320D01*
X140661245Y-93573294D01*
X140671100Y-93577117D01*
X140679183Y-93583933D01*
X140748997Y-93622453D01*
X140754811Y-93624301D01*
X140759613Y-93628065D01*
X140780599Y-93638682D01*
X140785583Y-93640072D01*
X140789750Y-93643138D01*
X140857805Y-93675010D01*
X140865983Y-93677026D01*
X140873010Y-93681678D01*
X140941024Y-93709512D01*
X140949770Y-93711213D01*
X140957450Y-93715738D01*
X141026652Y-93739910D01*
X141035466Y-93741149D01*
X141043361Y-93745260D01*
X141114981Y-93766142D01*
X141123346Y-93766875D01*
X141130976Y-93770380D01*
X141206241Y-93788347D01*
X141213756Y-93788633D01*
X141220721Y-93791467D01*
X141300861Y-93806891D01*
X141305934Y-93806859D01*
X141310690Y-93808632D01*
X141357159Y-93816148D01*
X141359581Y-93816061D01*
X141361862Y-93816874D01*
X141381699Y-93819794D01*
X141384446Y-93819656D01*
X141387052Y-93820538D01*
X141404380Y-93822804D01*
X141408772Y-93822512D01*
X141412978Y-93823816D01*
X141429195Y-93825512D01*
X141434445Y-93825027D01*
X141439527Y-93826431D01*
X141456027Y-93827642D01*
X141460878Y-93827042D01*
X141465624Y-93828208D01*
X141483804Y-93829019D01*
X141487410Y-93828468D01*
X141490970Y-93829262D01*
X141512226Y-93829755D01*
X141514418Y-93829372D01*
X141516597Y-93829828D01*
X141542323Y-93830089D01*
X141543375Y-93829891D01*
X141544420Y-93830103D01*
X141570904Y-93830206D01*
X141571907Y-93830011D01*
X141572911Y-93830208D01*
X141610125Y-93830130D01*
X141612430Y-93829666D01*
X141614746Y-93830089D01*
X141646417Y-93829586D01*
X141650095Y-93828793D01*
X141653811Y-93829387D01*
X141681442Y-93828338D01*
X141686486Y-93827134D01*
X141691629Y-93827796D01*
X141716728Y-93826077D01*
X141722574Y-93824492D01*
X141728605Y-93825051D01*
X141752674Y-93822540D01*
X141758318Y-93820792D01*
X141764216Y-93821133D01*
X141788762Y-93817708D01*
X141793280Y-93816135D01*
X141798063Y-93816277D01*
X141824591Y-93811813D01*
X141827260Y-93810799D01*
X141830113Y-93810836D01*
X141852078Y-93806761D01*
X141856842Y-93804859D01*
X141861970Y-93804771D01*
X141920825Y-93792008D01*
X141927631Y-93789051D01*
X141935037Y-93788600D01*
X141996133Y-93772533D01*
X142002312Y-93769521D01*
X142009151Y-93768827D01*
X142069604Y-93750290D01*
X142076050Y-93746819D01*
X142083298Y-93745767D01*
X142140221Y-93725595D01*
X142144638Y-93722966D01*
X142149700Y-93722074D01*
X142161079Y-93717651D01*
X142162263Y-93716897D01*
X142163643Y-93716642D01*
X142206821Y-93699450D01*
X142207593Y-93698950D01*
X142208495Y-93698778D01*
X142250869Y-93681640D01*
X142251722Y-93681080D01*
X142252726Y-93680883D01*
X142294684Y-93663621D01*
X142295601Y-93663012D01*
X142296677Y-93662793D01*
X142338607Y-93645226D01*
X142339557Y-93644586D01*
X142340679Y-93644350D01*
X142382968Y-93626298D01*
X142383929Y-93625641D01*
X142385065Y-93625394D01*
X142428099Y-93606676D01*
X142429038Y-93606025D01*
X142430155Y-93605774D01*
X142474324Y-93586210D01*
X142475221Y-93585578D01*
X142476292Y-93585331D01*
X142521984Y-93564740D01*
X142522822Y-93564142D01*
X142523821Y-93563905D01*
X142571422Y-93542108D01*
X142572191Y-93541552D01*
X142573113Y-93541328D01*
X142623011Y-93518144D01*
X142623702Y-93517638D01*
X142624529Y-93517433D01*
X142677112Y-93492680D01*
X142677720Y-93492231D01*
X142678457Y-93492044D01*
X142734113Y-93465542D01*
X142734642Y-93465148D01*
X142735278Y-93464984D01*
X142794393Y-93436555D01*
X142794848Y-93436213D01*
X142795400Y-93436069D01*
X142858363Y-93405530D01*
X142858749Y-93405237D01*
X142859221Y-93405113D01*
X142926418Y-93372284D01*
X142926739Y-93372040D01*
X142927128Y-93371936D01*
X142998950Y-93336638D01*
X142999217Y-93336433D01*
X142999543Y-93336346D01*
X143076376Y-93298397D01*
X143076595Y-93298229D01*
X143076860Y-93298157D01*
X143159091Y-93257377D01*
X143159265Y-93257243D01*
X143159478Y-93257185D01*
X143247495Y-93213394D01*
X143247586Y-93213323D01*
X143247698Y-93213293D01*
X143270206Y-93202075D01*
X143270208Y-93202075D01*
X143348102Y-93163323D01*
X143420079Y-93127692D01*
X143486337Y-93095097D01*
X143547838Y-93065081D01*
X143604753Y-93037571D01*
X143657751Y-93012250D01*
X143706921Y-92989080D01*
X143753230Y-92967604D01*
X143797002Y-92947671D01*
X143838608Y-92929102D01*
X143878814Y-92911544D01*
X143918143Y-92894755D01*
X143957159Y-92878480D01*
X143996426Y-92862463D01*
X144036543Y-92846442D01*
X144068921Y-92833726D01*
X144068922Y-92833726D01*
X144092445Y-92824489D01*
X144093133Y-92824047D01*
X144093937Y-92823899D01*
X144115330Y-92815380D01*
X144116145Y-92814851D01*
X144117097Y-92814670D01*
X144135466Y-92807234D01*
X144136611Y-92806482D01*
X144137955Y-92806215D01*
X144152410Y-92800228D01*
X144154642Y-92798737D01*
X144157265Y-92798172D01*
X144166914Y-92793997D01*
X144175161Y-92788297D01*
X144184820Y-92785613D01*
X144188760Y-92783624D01*
X144196088Y-92777893D01*
X144204905Y-92774914D01*
X144238884Y-92745203D01*
X144254443Y-92745538D01*
X144284404Y-92746802D01*
X144286007Y-92746216D01*
X144295694Y-92746424D01*
X144298043Y-92746009D01*
X144304849Y-92743360D01*
X144308634Y-92743255D01*
X144312275Y-92743176D01*
X144326229Y-92740083D01*
X144342342Y-92737074D01*
X144365714Y-92733207D01*
X144393186Y-92729098D01*
X144422352Y-92725133D01*
X144451393Y-92721578D01*
X144479309Y-92718582D01*
X144485416Y-92718000D01*
X144510245Y-92716020D01*
X144533403Y-92714774D01*
X144557336Y-92714131D01*
X144583305Y-92714122D01*
X144612361Y-92714822D01*
X144645429Y-92716335D01*
X144683141Y-92718752D01*
X144726305Y-92722168D01*
X144775459Y-92726646D01*
X144830984Y-92732217D01*
X144889833Y-92738523D01*
X144975553Y-92748499D01*
X145067408Y-92760255D01*
X145165998Y-92773857D01*
X145270531Y-92789193D01*
X145380787Y-92806225D01*
X145496316Y-92824882D01*
X145616631Y-92845080D01*
X145741503Y-92866783D01*
X145870295Y-92889876D01*
X146002856Y-92914335D01*
X146138672Y-92940067D01*
X146277452Y-92967022D01*
X146418905Y-92995148D01*
X146562337Y-93024313D01*
X146707818Y-93054540D01*
X146854885Y-93085746D01*
X147002687Y-93117757D01*
X147089754Y-93136920D01*
X147133986Y-93146716D01*
X147134742Y-93146732D01*
X147135434Y-93147033D01*
X147173651Y-93155320D01*
X147176040Y-93155361D01*
X147178246Y-93156283D01*
X147210819Y-93162870D01*
X147215731Y-93162886D01*
X147220312Y-93164647D01*
X147247877Y-93169399D01*
X147256599Y-93169175D01*
X147264893Y-93171885D01*
X147288081Y-93174667D01*
X147302375Y-93173565D01*
X147316330Y-93176850D01*
X147335774Y-93177528D01*
X147357463Y-93173994D01*
X147379326Y-93176213D01*
X147395658Y-93174653D01*
X147409670Y-93170448D01*
X147410984Y-93170575D01*
X147426933Y-93165712D01*
X147455352Y-93163424D01*
X147469206Y-93159490D01*
X147486517Y-93150630D01*
X147490869Y-93150148D01*
X147506896Y-93141328D01*
X147519378Y-93137522D01*
X147520926Y-93137057D01*
X147520941Y-93137045D01*
X147536085Y-93132427D01*
X147548095Y-93125985D01*
X147570159Y-93107823D01*
X147585633Y-93099904D01*
X147588685Y-93096317D01*
X147605452Y-93087090D01*
X147616249Y-93078006D01*
X147633121Y-93056928D01*
X147654398Y-93040302D01*
X147664616Y-93028442D01*
X147673251Y-93013178D01*
X147685880Y-93001008D01*
X147696151Y-92986236D01*
X147699970Y-92977479D01*
X147706463Y-92970477D01*
X147717421Y-92952659D01*
X147718740Y-92949100D01*
X147721260Y-92946259D01*
X147733538Y-92925262D01*
X147733675Y-92924867D01*
X147733948Y-92924557D01*
X147738227Y-92917198D01*
X147738846Y-92915392D01*
X147740093Y-92913947D01*
X147777362Y-92848170D01*
X147778644Y-92844291D01*
X147781238Y-92841134D01*
X147816170Y-92775885D01*
X147817395Y-92771857D01*
X147819987Y-92768539D01*
X147852188Y-92704647D01*
X147853394Y-92700296D01*
X147856078Y-92696667D01*
X147885152Y-92634966D01*
X147886373Y-92630060D01*
X147889255Y-92625911D01*
X147914807Y-92567232D01*
X147916068Y-92561440D01*
X147919280Y-92556453D01*
X147940916Y-92501628D01*
X147942066Y-92495292D01*
X147945346Y-92489750D01*
X147959210Y-92450310D01*
X147960440Y-92441687D01*
X147964487Y-92433974D01*
X147979948Y-92381560D01*
X147981039Y-92369532D01*
X147985876Y-92358465D01*
X147996592Y-92309553D01*
X147996866Y-92295368D01*
X148001441Y-92281941D01*
X148007441Y-92236758D01*
X148006350Y-92219822D01*
X148010189Y-92203287D01*
X148011500Y-92162060D01*
X148008121Y-92141715D01*
X148010306Y-92121213D01*
X148006956Y-92084173D01*
X147999813Y-92059932D01*
X147998710Y-92034681D01*
X147990725Y-92002054D01*
X147977742Y-91974214D01*
X147977634Y-91972054D01*
X147976858Y-91970417D01*
X147970819Y-91944204D01*
X147958228Y-91916219D01*
X147937168Y-91886666D01*
X147932757Y-91877357D01*
X147931803Y-91874154D01*
X147930448Y-91872485D01*
X147921624Y-91853866D01*
X147904453Y-91830751D01*
X147884375Y-91812582D01*
X147882327Y-91809708D01*
X147878716Y-91807449D01*
X147878709Y-91807435D01*
X147878156Y-91806954D01*
X147874671Y-91803800D01*
X147849355Y-91772626D01*
X147827632Y-91754610D01*
X147809423Y-91744756D01*
X147807477Y-91742995D01*
X147803634Y-91741623D01*
X147802005Y-91740742D01*
X147780012Y-91721619D01*
X147769486Y-91715602D01*
X147756575Y-91711281D01*
X147745619Y-91703201D01*
X147735486Y-91698442D01*
X147725184Y-91695891D01*
X147716265Y-91690137D01*
X147705214Y-91685767D01*
X147694828Y-91683874D01*
X147685618Y-91678713D01*
X147673292Y-91674704D01*
X147663682Y-91673564D01*
X147654983Y-91669320D01*
X147641025Y-91665644D01*
X147632681Y-91665133D01*
X147624998Y-91661842D01*
X147609050Y-91658469D01*
X147602115Y-91658386D01*
X147595635Y-91655917D01*
X147577340Y-91652821D01*
X147571741Y-91652982D01*
X147566447Y-91651162D01*
X147545448Y-91648315D01*
X147541028Y-91648588D01*
X147536807Y-91647258D01*
X147512745Y-91644630D01*
X147509280Y-91644934D01*
X147505938Y-91643956D01*
X147478458Y-91641521D01*
X147475774Y-91641812D01*
X147473172Y-91641095D01*
X147441916Y-91638823D01*
X147439836Y-91639082D01*
X147437809Y-91638550D01*
X147402420Y-91636414D01*
X147400816Y-91636634D01*
X147399248Y-91636238D01*
X147359366Y-91634210D01*
X147358144Y-91634389D01*
X147356942Y-91634095D01*
X147312212Y-91632145D01*
X147311270Y-91632290D01*
X147310344Y-91632069D01*
X147260408Y-91630171D01*
X147259697Y-91630285D01*
X147258995Y-91630120D01*
X147203496Y-91628245D01*
X147202961Y-91628333D01*
X147202434Y-91628211D01*
X147141014Y-91626331D01*
X147140621Y-91626397D01*
X147140232Y-91626308D01*
X147072535Y-91624394D01*
X147072249Y-91624442D01*
X147071965Y-91624378D01*
X146997634Y-91622403D01*
X146997502Y-91622426D01*
X146997370Y-91622396D01*
X146983831Y-91622047D01*
X146862508Y-91618730D01*
X146748468Y-91615198D01*
X146640289Y-91611396D01*
X146537769Y-91607310D01*
X146440149Y-91602902D01*
X146347041Y-91598151D01*
X146257795Y-91593026D01*
X146171916Y-91587503D01*
X146088835Y-91581555D01*
X146007715Y-91575130D01*
X145928162Y-91568213D01*
X145849290Y-91560742D01*
X145824259Y-91558242D01*
X145699013Y-91544781D01*
X145579370Y-91530270D01*
X145463634Y-91514455D01*
X145351027Y-91497183D01*
X145240608Y-91478272D01*
X145131605Y-91457560D01*
X145023193Y-91434871D01*
X144914434Y-91409999D01*
X144804451Y-91382736D01*
X144692375Y-91352868D01*
X144577453Y-91320209D01*
X144458838Y-91284540D01*
X144335733Y-91245658D01*
X144207216Y-91203313D01*
X144105287Y-91168633D01*
X144059137Y-91152428D01*
X144016350Y-91136741D01*
X143975830Y-91121138D01*
X143936731Y-91105263D01*
X143898166Y-91088732D01*
X143859165Y-91071101D01*
X143818715Y-91051884D01*
X143776147Y-91030732D01*
X143730537Y-91007167D01*
X143681234Y-90980841D01*
X143627459Y-90951342D01*
X143568747Y-90918437D01*
X143504384Y-90881760D01*
X143483723Y-90869886D01*
X143483722Y-90869886D01*
X143425246Y-90836239D01*
X143425128Y-90836199D01*
X143425035Y-90836118D01*
X143372064Y-90805690D01*
X143371898Y-90805634D01*
X143371766Y-90805519D01*
X143323998Y-90778145D01*
X143323763Y-90778066D01*
X143323574Y-90777902D01*
X143280561Y-90753336D01*
X143280243Y-90753230D01*
X143279990Y-90753011D01*
X143241285Y-90731006D01*
X143240864Y-90730866D01*
X143240528Y-90730577D01*
X143205683Y-90710886D01*
X143205136Y-90710706D01*
X143204696Y-90710330D01*
X143173263Y-90692707D01*
X143172581Y-90692485D01*
X143172035Y-90692022D01*
X143143567Y-90676218D01*
X143142716Y-90675945D01*
X143142034Y-90675373D01*
X143116084Y-90661143D01*
X143115078Y-90660826D01*
X143114263Y-90660151D01*
X143090381Y-90647248D01*
X143089223Y-90646891D01*
X143088281Y-90646122D01*
X143066021Y-90634299D01*
X143064760Y-90633920D01*
X143063731Y-90633093D01*
X143042646Y-90622101D01*
X143041323Y-90621714D01*
X143040243Y-90620861D01*
X143019883Y-90610455D01*
X143018614Y-90610095D01*
X143017572Y-90609285D01*
X142997492Y-90599217D01*
X142996334Y-90598899D01*
X142995380Y-90598167D01*
X142975130Y-90588192D01*
X142974189Y-90587940D01*
X142973414Y-90587353D01*
X142952548Y-90577221D01*
X142952143Y-90577115D01*
X142951810Y-90576864D01*
X142949979Y-90575980D01*
X142947768Y-90575408D01*
X142945929Y-90574060D01*
X142878490Y-90542623D01*
X142873287Y-90541350D01*
X142868866Y-90538319D01*
X142805249Y-90511065D01*
X142798839Y-90509709D01*
X142793299Y-90506216D01*
X142732130Y-90482752D01*
X142724745Y-90481485D01*
X142718239Y-90477772D01*
X142658149Y-90457709D01*
X142650228Y-90456706D01*
X142643114Y-90453078D01*
X142582731Y-90436021D01*
X142574822Y-90435395D01*
X142567597Y-90432125D01*
X142505547Y-90417682D01*
X142498217Y-90417445D01*
X142491413Y-90414712D01*
X142440751Y-90405200D01*
X157850322Y-90405200D01*
X157624618Y-90630511D01*
X157556897Y-90793600D01*
X157486669Y-90793600D01*
X157486669Y-90750000D01*
X157463644Y-90627635D01*
X157391327Y-90515251D01*
X157280983Y-90439856D01*
X157150000Y-90413331D01*
X155950000Y-90413331D01*
X155827635Y-90436356D01*
X155715251Y-90508673D01*
X155639856Y-90619017D01*
X155613331Y-90750000D01*
X155613331Y-91411933D01*
X155264172Y-91761092D01*
X155286669Y-91650000D01*
X155286669Y-90750000D01*
X155263644Y-90627635D01*
X155191327Y-90515251D01*
X155080983Y-90439856D01*
X154950000Y-90413331D01*
X153750000Y-90413331D01*
X153627635Y-90436356D01*
X153515251Y-90508673D01*
X153439856Y-90619017D01*
X153413331Y-90750000D01*
X153413331Y-91650000D01*
X153436356Y-91772365D01*
X153508673Y-91884749D01*
X153619017Y-91960144D01*
X153663166Y-91969085D01*
X153652085Y-91995771D01*
X153651851Y-92263547D01*
X153754109Y-92511029D01*
X153894894Y-92652059D01*
X153827017Y-92815525D01*
X153826901Y-92948363D01*
X153698279Y-93076985D01*
X153466699Y-93076783D01*
X153219217Y-93179041D01*
X153029706Y-93368222D01*
X152927017Y-93615525D01*
X152926783Y-93883301D01*
X153029041Y-94130783D01*
X153218222Y-94320294D01*
X153331176Y-94367197D01*
X153057821Y-94640552D01*
X152969724Y-94772397D01*
X152938789Y-94927920D01*
X152938789Y-102107994D01*
X152969724Y-102263517D01*
X153030195Y-102354017D01*
X153057821Y-102395362D01*
X154513863Y-103851404D01*
X154645708Y-103939501D01*
X154801231Y-103970436D01*
X155354824Y-103970436D01*
X155510347Y-103939501D01*
X155578244Y-103894133D01*
X155831024Y-103894354D01*
X156078506Y-103792096D01*
X156113149Y-103757513D01*
X157497142Y-104933678D01*
X157552302Y-104964391D01*
X157604793Y-104999465D01*
X157621129Y-105002714D01*
X157628331Y-105006724D01*
X157628331Y-105115000D01*
X157644912Y-105203120D01*
X157628331Y-105285000D01*
X157628331Y-105515000D01*
X157642555Y-105590590D01*
X156837080Y-104906070D01*
X156761965Y-104830824D01*
X156514662Y-104728135D01*
X156246886Y-104727901D01*
X155999404Y-104830159D01*
X155809893Y-105019340D01*
X155707204Y-105266643D01*
X155706994Y-105507222D01*
X155584679Y-105557762D01*
X155395168Y-105746943D01*
X155292479Y-105994246D01*
X155292245Y-106262022D01*
X155394503Y-106509504D01*
X155583684Y-106699015D01*
X155789110Y-106784315D01*
X155736400Y-106836934D01*
X155633711Y-107084237D01*
X155633477Y-107352013D01*
X155735735Y-107599495D01*
X155924916Y-107789006D01*
X156172219Y-107891695D01*
X156439995Y-107891929D01*
X156459463Y-107883885D01*
X156491691Y-107961883D01*
X156529843Y-108000101D01*
X156492356Y-108037523D01*
X156459617Y-108116366D01*
X156441169Y-108108706D01*
X156173393Y-108108472D01*
X155925911Y-108210730D01*
X155736400Y-108399911D01*
X155633711Y-108647214D01*
X155633477Y-108914990D01*
X155735735Y-109162472D01*
X155789330Y-109216160D01*
X155584679Y-109300721D01*
X155395168Y-109489902D01*
X155292479Y-109737205D01*
X155292245Y-110004981D01*
X155394503Y-110252463D01*
X155448098Y-110306151D01*
X155243448Y-110390711D01*
X155053937Y-110579892D01*
X154951248Y-110827195D01*
X154951014Y-111094971D01*
X155053272Y-111342453D01*
X155106867Y-111396141D01*
X154902216Y-111480702D01*
X154712705Y-111669883D01*
X154610016Y-111917186D01*
X154609782Y-112184962D01*
X154712040Y-112432444D01*
X154765634Y-112486132D01*
X154560984Y-112570692D01*
X154371473Y-112759873D01*
X154268784Y-113007176D01*
X154268550Y-113274952D01*
X154370808Y-113522434D01*
X154424403Y-113576122D01*
X154219752Y-113660683D01*
X154030241Y-113849864D01*
X153927552Y-114097167D01*
X153927318Y-114364943D01*
X154029576Y-114612425D01*
X154083171Y-114666113D01*
X153878520Y-114750674D01*
X153689009Y-114939855D01*
X153586320Y-115187158D01*
X153586086Y-115454934D01*
X153688344Y-115702416D01*
X153877525Y-115891927D01*
X154001019Y-115943206D01*
X154000810Y-116182537D01*
X154103068Y-116430019D01*
X154292249Y-116619530D01*
X154539552Y-116722219D01*
X154807328Y-116722453D01*
X155054810Y-116620195D01*
X155105900Y-116569194D01*
X155105900Y-117062300D01*
X155136835Y-117217823D01*
X155171266Y-117269352D01*
X155224932Y-117349668D01*
X155526985Y-117651721D01*
X155526783Y-117883301D01*
X155581242Y-118015102D01*
X154789838Y-118015102D01*
X154623015Y-117848279D01*
X154623217Y-117616699D01*
X154520959Y-117369217D01*
X154331778Y-117179706D01*
X154084475Y-117077017D01*
X153816699Y-117076783D01*
X153569217Y-117179041D01*
X153379706Y-117368222D01*
X153277017Y-117615525D01*
X153276783Y-117883301D01*
X153379041Y-118130783D01*
X153568222Y-118320294D01*
X153745869Y-118394059D01*
X153601244Y-118538432D01*
X153498555Y-118785735D01*
X153498321Y-119053511D01*
X153600579Y-119300993D01*
X153789760Y-119490504D01*
X154037063Y-119593193D01*
X154304839Y-119593427D01*
X154552321Y-119491169D01*
X154717167Y-119326610D01*
X156724800Y-119326610D01*
X156747917Y-119331208D01*
X157587436Y-119331208D01*
X157742959Y-119300273D01*
X157874804Y-119212176D01*
X158368493Y-118718487D01*
X158422647Y-118637440D01*
X158456590Y-118586642D01*
X158487525Y-118431119D01*
X158487525Y-116977607D01*
X158456590Y-116822084D01*
X158432926Y-116786669D01*
X158625000Y-116786669D01*
X158747365Y-116763644D01*
X158859749Y-116691327D01*
X158935144Y-116580983D01*
X158961669Y-116450000D01*
X158961669Y-116100000D01*
X158943625Y-116004105D01*
X158961669Y-115915000D01*
X158961669Y-115685000D01*
X158945088Y-115596880D01*
X158961669Y-115515000D01*
X158961669Y-115285000D01*
X158945088Y-115196880D01*
X158961669Y-115115000D01*
X158961669Y-114885000D01*
X158945088Y-114796880D01*
X158961669Y-114715000D01*
X158961669Y-114485000D01*
X158945088Y-114396880D01*
X158961669Y-114315000D01*
X158961669Y-114085000D01*
X158945088Y-113996880D01*
X158961669Y-113915000D01*
X158961669Y-113685000D01*
X158945088Y-113596880D01*
X158961669Y-113515000D01*
X158961669Y-113285000D01*
X158945088Y-113196880D01*
X158961669Y-113115000D01*
X158961669Y-112885000D01*
X158945088Y-112796880D01*
X158961669Y-112715000D01*
X158961669Y-112485000D01*
X158945088Y-112396880D01*
X158961669Y-112315000D01*
X158961669Y-112085000D01*
X158945088Y-111996880D01*
X158961669Y-111915000D01*
X158961669Y-111685000D01*
X158945088Y-111596880D01*
X158961669Y-111515000D01*
X158961669Y-111285000D01*
X158945088Y-111196880D01*
X158961669Y-111115000D01*
X158961669Y-110885000D01*
X158945088Y-110796880D01*
X158961669Y-110715000D01*
X158961669Y-110485000D01*
X158945088Y-110396880D01*
X158961669Y-110315000D01*
X158961669Y-110085000D01*
X158945088Y-109996880D01*
X158961669Y-109915000D01*
X158961669Y-109685000D01*
X158945088Y-109596880D01*
X158961669Y-109515000D01*
X158961669Y-109285000D01*
X158945088Y-109196880D01*
X158961669Y-109115000D01*
X158961669Y-108885000D01*
X158945088Y-108796880D01*
X158961669Y-108715000D01*
X158961669Y-108485000D01*
X158945088Y-108396880D01*
X158961669Y-108315000D01*
X158961669Y-108085000D01*
X158945088Y-107996880D01*
X158961669Y-107915000D01*
X158961669Y-107685000D01*
X158945088Y-107596880D01*
X158961669Y-107515000D01*
X158961669Y-107285000D01*
X158945088Y-107196880D01*
X158961669Y-107115000D01*
X158961669Y-106885000D01*
X158945088Y-106796880D01*
X158961669Y-106715000D01*
X158961669Y-106485000D01*
X158945088Y-106396880D01*
X158961669Y-106315000D01*
X158961669Y-106206400D01*
X159531067Y-106206400D01*
X159686590Y-106175465D01*
X159818435Y-106087368D01*
X160232557Y-105673246D01*
X160251780Y-105644477D01*
X160320654Y-105541401D01*
X160338331Y-105452531D01*
X160338331Y-105515000D01*
X160354912Y-105603120D01*
X160338331Y-105685000D01*
X160338331Y-105915000D01*
X160351793Y-105986543D01*
X160344077Y-105989739D01*
X160179739Y-106154078D01*
X160090800Y-106368796D01*
X160090800Y-106396450D01*
X160214083Y-106519733D01*
X160179739Y-106554078D01*
X160090800Y-106768796D01*
X160090800Y-106796450D01*
X160094350Y-106800000D01*
X160090800Y-106803550D01*
X160090800Y-106831204D01*
X160160718Y-107000000D01*
X160090800Y-107168796D01*
X160090800Y-107196450D01*
X160094350Y-107200000D01*
X160090800Y-107203550D01*
X160090800Y-107231204D01*
X160160718Y-107400000D01*
X160090800Y-107568796D01*
X160090800Y-107596450D01*
X160094350Y-107600000D01*
X160090800Y-107603550D01*
X160090800Y-107631204D01*
X160160718Y-107800000D01*
X160090800Y-107968796D01*
X160090800Y-107996450D01*
X160094350Y-108000000D01*
X160090800Y-108003550D01*
X160090800Y-108031204D01*
X160160718Y-108200000D01*
X160090800Y-108368796D01*
X160090800Y-108396450D01*
X160094350Y-108400000D01*
X160090800Y-108403550D01*
X160090800Y-108431204D01*
X160160718Y-108600000D01*
X160090800Y-108768796D01*
X160090800Y-108796450D01*
X160094350Y-108800000D01*
X160090800Y-108803550D01*
X160090800Y-108831204D01*
X160160718Y-109000000D01*
X160090800Y-109168796D01*
X160090800Y-109196450D01*
X160094350Y-109200000D01*
X160090800Y-109203550D01*
X160090800Y-109231204D01*
X160179739Y-109445922D01*
X160214083Y-109480267D01*
X160090800Y-109603550D01*
X160090800Y-109631204D01*
X160179739Y-109845922D01*
X160344077Y-110010261D01*
X160352740Y-110013849D01*
X160338331Y-110085000D01*
X160338331Y-110315000D01*
X160354912Y-110403120D01*
X160338331Y-110485000D01*
X160338331Y-110715000D01*
X160354912Y-110803120D01*
X160338331Y-110885000D01*
X160338331Y-111115000D01*
X160354912Y-111203120D01*
X160338331Y-111285000D01*
X160338331Y-111515000D01*
X160354912Y-111603120D01*
X160338331Y-111685000D01*
X160338331Y-111915000D01*
X160354912Y-112003120D01*
X160338331Y-112085000D01*
X160338331Y-112315000D01*
X160354912Y-112403120D01*
X160338331Y-112485000D01*
X160338331Y-112715000D01*
X160354912Y-112803120D01*
X160338331Y-112885000D01*
X160338331Y-113115000D01*
X160354912Y-113203120D01*
X160338331Y-113285000D01*
X160338331Y-113515000D01*
X160354912Y-113603120D01*
X160338331Y-113685000D01*
X160338331Y-113915000D01*
X160354912Y-114003120D01*
X160338331Y-114085000D01*
X160338331Y-114315000D01*
X160354912Y-114403120D01*
X160338331Y-114485000D01*
X160338331Y-114715000D01*
X160354912Y-114803120D01*
X160338331Y-114885000D01*
X160338331Y-115115000D01*
X160354912Y-115203120D01*
X160338331Y-115285000D01*
X160338331Y-115515000D01*
X160354912Y-115603120D01*
X160338331Y-115685000D01*
X160338331Y-115915000D01*
X160356375Y-116010895D01*
X160338331Y-116100000D01*
X160338331Y-116450000D01*
X160361356Y-116572365D01*
X160416996Y-116658832D01*
X160327017Y-116875525D01*
X160326783Y-117143301D01*
X160429041Y-117390783D01*
X160618222Y-117580294D01*
X160865525Y-117682983D01*
X161133301Y-117683217D01*
X161380783Y-117580959D01*
X161570294Y-117391778D01*
X161672983Y-117144475D01*
X161673217Y-116876699D01*
X161586495Y-116666818D01*
X161593254Y-116656927D01*
X161653839Y-116717618D01*
X161838744Y-116794397D01*
X161838593Y-116967746D01*
X161940851Y-117215228D01*
X162130032Y-117404739D01*
X162377335Y-117507428D01*
X162645111Y-117507662D01*
X162892593Y-117405404D01*
X163027879Y-117270353D01*
X163071608Y-117376184D01*
X163260789Y-117565695D01*
X163508092Y-117668384D01*
X163775868Y-117668618D01*
X164023350Y-117566360D01*
X164212861Y-117377179D01*
X164315550Y-117129876D01*
X164315784Y-116862100D01*
X164213526Y-116614618D01*
X164122694Y-116523627D01*
X164125216Y-116506470D01*
X164169713Y-116544285D01*
X164244827Y-116619530D01*
X164492130Y-116722219D01*
X164759906Y-116722453D01*
X165007388Y-116620195D01*
X165196899Y-116431014D01*
X165299588Y-116183711D01*
X165299798Y-115943131D01*
X165422112Y-115892592D01*
X165594800Y-115720205D01*
X165594800Y-123210093D01*
X165408979Y-124144277D01*
X164902410Y-124902412D01*
X164144277Y-125408979D01*
X163210092Y-125594800D01*
X132789907Y-125594800D01*
X131855723Y-125408979D01*
X131097588Y-124902410D01*
X130591021Y-124144277D01*
X130485235Y-123612452D01*
X130919483Y-123612452D01*
X131197527Y-124285371D01*
X131711921Y-124800664D01*
X132384354Y-125079882D01*
X133112452Y-125080517D01*
X133785371Y-124802473D01*
X134300664Y-124288079D01*
X134579882Y-123615646D01*
X134579884Y-123612452D01*
X161419483Y-123612452D01*
X161697527Y-124285371D01*
X162211921Y-124800664D01*
X162884354Y-125079882D01*
X163612452Y-125080517D01*
X164285371Y-124802473D01*
X164800664Y-124288079D01*
X165079882Y-123615646D01*
X165080517Y-122887548D01*
X164802473Y-122214629D01*
X164288079Y-121699336D01*
X163615646Y-121420118D01*
X162887548Y-121419483D01*
X162214629Y-121697527D01*
X161699336Y-122211921D01*
X161420118Y-122884354D01*
X161419483Y-123612452D01*
X134579884Y-123612452D01*
X134580517Y-122887548D01*
X134302473Y-122214629D01*
X133788079Y-121699336D01*
X133115646Y-121420118D01*
X132387548Y-121419483D01*
X131714629Y-121697527D01*
X131199336Y-122211921D01*
X130920118Y-122884354D01*
X130919483Y-123612452D01*
X130485235Y-123612452D01*
X130405200Y-123210092D01*
X130405200Y-112747800D01*
X131176150Y-112747800D01*
X131322200Y-112601750D01*
X131322200Y-111477800D01*
X131302200Y-111477800D01*
X131302200Y-111122200D01*
X131322200Y-111122200D01*
X131322200Y-111102200D01*
X131677800Y-111102200D01*
X131677800Y-111122200D01*
X132954150Y-111122200D01*
X133015000Y-111061350D01*
X133095850Y-111142200D01*
X134344800Y-111142200D01*
X134344800Y-111497800D01*
X133095850Y-111497800D01*
X133035000Y-111558650D01*
X132954150Y-111477800D01*
X131677800Y-111477800D01*
X131677800Y-112601750D01*
X131823850Y-112747800D01*
X132632205Y-112747800D01*
X132846923Y-112658861D01*
X133011261Y-112494522D01*
X133020858Y-112471353D01*
X133038739Y-112514522D01*
X133203077Y-112678861D01*
X133417795Y-112767800D01*
X133471237Y-112767800D01*
X133449731Y-112874000D01*
X133449731Y-114906000D01*
X133472756Y-115028365D01*
X133545073Y-115140749D01*
X133655417Y-115216144D01*
X133786400Y-115242669D01*
X135513600Y-115242669D01*
X135635965Y-115219644D01*
X135748349Y-115147327D01*
X135823744Y-115036983D01*
X135850269Y-114906000D01*
X135850269Y-112874000D01*
X135827244Y-112751635D01*
X135804934Y-112716964D01*
X135833335Y-112705200D01*
X136588130Y-112705200D01*
X136345856Y-112867082D01*
X136087073Y-113254379D01*
X135996200Y-113711226D01*
X135996200Y-114068774D01*
X136087073Y-114525621D01*
X136345856Y-114912918D01*
X136733153Y-115171701D01*
X137190000Y-115262574D01*
X137646847Y-115171701D01*
X138034144Y-114912918D01*
X138292927Y-114525621D01*
X138383800Y-114068774D01*
X138383800Y-113711226D01*
X138292927Y-113254379D01*
X138034144Y-112867082D01*
X137791870Y-112705200D01*
X139128130Y-112705200D01*
X138885856Y-112867082D01*
X138627073Y-113254379D01*
X138536200Y-113711226D01*
X138536200Y-114068774D01*
X138627073Y-114525621D01*
X138885856Y-114912918D01*
X139273153Y-115171701D01*
X139730000Y-115262574D01*
X140186847Y-115171701D01*
X140574144Y-114912918D01*
X140832927Y-114525621D01*
X140923800Y-114068774D01*
X140923800Y-113711226D01*
X140832927Y-113254379D01*
X140574144Y-112867082D01*
X140331870Y-112705200D01*
X141668130Y-112705200D01*
X141425856Y-112867082D01*
X141167073Y-113254379D01*
X141076200Y-113711226D01*
X141076200Y-114068774D01*
X141167073Y-114525621D01*
X141425856Y-114912918D01*
X141813153Y-115171701D01*
X142270000Y-115262574D01*
X142726847Y-115171701D01*
X143114144Y-114912918D01*
X143372927Y-114525621D01*
X143407714Y-114350736D01*
X143590148Y-114819716D01*
X143980470Y-115227363D01*
X144409618Y-115433737D01*
X144632200Y-115331950D01*
X144632200Y-114067800D01*
X144987800Y-114067800D01*
X144987800Y-115331950D01*
X145210382Y-115433737D01*
X145639530Y-115227363D01*
X146029852Y-114819716D01*
X146080000Y-114690801D01*
X146130148Y-114819716D01*
X146520470Y-115227363D01*
X146949618Y-115433737D01*
X147172200Y-115331950D01*
X147172200Y-114067800D01*
X147527800Y-114067800D01*
X147527800Y-115331950D01*
X147750382Y-115433737D01*
X148179530Y-115227363D01*
X148569852Y-114819716D01*
X148774462Y-114293729D01*
X148650191Y-114067800D01*
X147527800Y-114067800D01*
X147172200Y-114067800D01*
X144987800Y-114067800D01*
X144632200Y-114067800D01*
X144612200Y-114067800D01*
X144612200Y-113712200D01*
X144632200Y-113712200D01*
X144632200Y-113692200D01*
X144987800Y-113692200D01*
X144987800Y-113712200D01*
X147172200Y-113712200D01*
X147172200Y-113692200D01*
X147527800Y-113692200D01*
X147527800Y-113712200D01*
X148650191Y-113712200D01*
X148774462Y-113486271D01*
X148569852Y-112960284D01*
X148325609Y-112705200D01*
X148500000Y-112705200D01*
X148655063Y-112674356D01*
X148786520Y-112586520D01*
X148874356Y-112455063D01*
X148905200Y-112300000D01*
X148905200Y-110492983D01*
X148911261Y-110486922D01*
X149000200Y-110272204D01*
X149000200Y-109463850D01*
X148854150Y-109317800D01*
X147655200Y-109317800D01*
X147655200Y-108962200D01*
X148854150Y-108962200D01*
X149000200Y-108816150D01*
X149000200Y-108007796D01*
X148911261Y-107793078D01*
X148746923Y-107628739D01*
X148532205Y-107539800D01*
X148386371Y-107539800D01*
X148670101Y-107115168D01*
X148772574Y-106600000D01*
X148670101Y-106084832D01*
X148483257Y-105805200D01*
X148500000Y-105805200D01*
X148655063Y-105774356D01*
X148786520Y-105686520D01*
X148874356Y-105555063D01*
X148905200Y-105400000D01*
X148905200Y-101400000D01*
X148874356Y-101244937D01*
X148786520Y-101113480D01*
X148655063Y-101025644D01*
X148637749Y-101022200D01*
X148701750Y-101022200D01*
X148847800Y-100876150D01*
X148847800Y-100067795D01*
X148758861Y-99853077D01*
X148594522Y-99688739D01*
X148379804Y-99599800D01*
X147723850Y-99599800D01*
X147577800Y-99745850D01*
X147577800Y-100994800D01*
X147222200Y-100994800D01*
X147222200Y-99745850D01*
X147076150Y-99599800D01*
X146420196Y-99599800D01*
X146205478Y-99688739D01*
X146041139Y-99853077D01*
X145952200Y-100067795D01*
X145952200Y-100548325D01*
X145704144Y-100177082D01*
X145316847Y-99918299D01*
X144860000Y-99827426D01*
X144403153Y-99918299D01*
X144015856Y-100177082D01*
X143757073Y-100564379D01*
X143671456Y-100994800D01*
X143508544Y-100994800D01*
X143422927Y-100564379D01*
X143164144Y-100177082D01*
X142776847Y-99918299D01*
X142320000Y-99827426D01*
X141863153Y-99918299D01*
X141475856Y-100177082D01*
X141217073Y-100564379D01*
X141131456Y-100994800D01*
X140968544Y-100994800D01*
X140882927Y-100564379D01*
X140624144Y-100177082D01*
X140236847Y-99918299D01*
X139780000Y-99827426D01*
X139323153Y-99918299D01*
X138935856Y-100177082D01*
X138677073Y-100564379D01*
X138591456Y-100994800D01*
X138428544Y-100994800D01*
X138342927Y-100564379D01*
X138084144Y-100177082D01*
X137696847Y-99918299D01*
X137240000Y-99827426D01*
X136783153Y-99918299D01*
X136395856Y-100177082D01*
X136147800Y-100548325D01*
X136147800Y-100067795D01*
X136058861Y-99853077D01*
X135894522Y-99688739D01*
X135679804Y-99599800D01*
X135023850Y-99599800D01*
X134877800Y-99745850D01*
X134877800Y-100994800D01*
X134522200Y-100994800D01*
X134522200Y-99745850D01*
X134376150Y-99599800D01*
X133720196Y-99599800D01*
X133505478Y-99688739D01*
X133341139Y-99853077D01*
X133252200Y-100067795D01*
X133252200Y-100876150D01*
X133392277Y-101016227D01*
X133362260Y-101022198D01*
X133252200Y-101022198D01*
X133252200Y-101087608D01*
X133213480Y-101113480D01*
X133125644Y-101244937D01*
X133094800Y-101400000D01*
X133094800Y-102600000D01*
X133125644Y-102755063D01*
X133213480Y-102886520D01*
X133344937Y-102974356D01*
X133435823Y-102992434D01*
X133268299Y-103243153D01*
X133177426Y-103700000D01*
X133268299Y-104156847D01*
X133527082Y-104544144D01*
X133898325Y-104792200D01*
X133417795Y-104792200D01*
X133203077Y-104881139D01*
X133038739Y-105045478D01*
X133029142Y-105068647D01*
X133011261Y-105025478D01*
X132846923Y-104861139D01*
X132632205Y-104772200D01*
X132151675Y-104772200D01*
X132522918Y-104524144D01*
X132781701Y-104136847D01*
X132872574Y-103680000D01*
X132781701Y-103223153D01*
X132522918Y-102835856D01*
X132135621Y-102577073D01*
X131678774Y-102486200D01*
X131321226Y-102486200D01*
X130864379Y-102577073D01*
X130477082Y-102835856D01*
X130405200Y-102943435D01*
X130405200Y-93112452D01*
X130919483Y-93112452D01*
X131197527Y-93785371D01*
X131711921Y-94300664D01*
X132384354Y-94579882D01*
X133112452Y-94580517D01*
X133785371Y-94302473D01*
X134300664Y-93788079D01*
X134579882Y-93115646D01*
X134580517Y-92387548D01*
X134302473Y-91714629D01*
X133788079Y-91199336D01*
X133115646Y-90920118D01*
X132387548Y-90919483D01*
X131714629Y-91197527D01*
X131199336Y-91711921D01*
X130920118Y-92384354D01*
X130919483Y-93112452D01*
X130405200Y-93112452D01*
X130405200Y-92789908D01*
X130591021Y-91855723D01*
X131097588Y-91097590D01*
X131855723Y-90591021D01*
X132789907Y-90405200D01*
X141639922Y-90405200D01*
X141618447Y-90409298D01*
G36*
X165594800Y-114923331D02*
X165423107Y-114751339D01*
X165217681Y-114666039D01*
X165270391Y-114613420D01*
X165373080Y-114366117D01*
X165373314Y-114098341D01*
X165271056Y-113850859D01*
X165081875Y-113661348D01*
X164876449Y-113576048D01*
X164929160Y-113523429D01*
X165031849Y-113276126D01*
X165032083Y-113008350D01*
X164929825Y-112760868D01*
X164740644Y-112571357D01*
X164535218Y-112486057D01*
X164587928Y-112433439D01*
X164690617Y-112186136D01*
X164690851Y-111918360D01*
X164588593Y-111670878D01*
X164399412Y-111481367D01*
X164193986Y-111396067D01*
X164246696Y-111343448D01*
X164349385Y-111096145D01*
X164349619Y-110828369D01*
X164247361Y-110580887D01*
X164058180Y-110391376D01*
X163810877Y-110288687D01*
X163543101Y-110288453D01*
X163523633Y-110296497D01*
X163491405Y-110218499D01*
X163302224Y-110028988D01*
X163054921Y-109926299D01*
X162787145Y-109926065D01*
X162539663Y-110028323D01*
X162505019Y-110062907D01*
X161806717Y-109469466D01*
X161830261Y-109445922D01*
X161919200Y-109231204D01*
X161919200Y-109203550D01*
X161915650Y-109200000D01*
X161919200Y-109196450D01*
X161919200Y-109168796D01*
X161849282Y-109000000D01*
X161919200Y-108831204D01*
X161919200Y-108803550D01*
X161915650Y-108800000D01*
X161919200Y-108796450D01*
X161919200Y-108768796D01*
X161849282Y-108600000D01*
X161919200Y-108431204D01*
X161919200Y-108403550D01*
X161915650Y-108400000D01*
X161919200Y-108396450D01*
X161919200Y-108368796D01*
X161849282Y-108200000D01*
X161919200Y-108031204D01*
X161919200Y-108003550D01*
X161915650Y-108000000D01*
X161919200Y-107996450D01*
X161919200Y-107968796D01*
X161849282Y-107800000D01*
X161919200Y-107631204D01*
X161919200Y-107603550D01*
X161915650Y-107600000D01*
X161919200Y-107596450D01*
X161919200Y-107568796D01*
X161849282Y-107400000D01*
X161919200Y-107231204D01*
X161919200Y-107203550D01*
X161915650Y-107200000D01*
X161919200Y-107196450D01*
X161919200Y-107168796D01*
X161849282Y-107000000D01*
X161919200Y-106831204D01*
X161919200Y-106803550D01*
X161915650Y-106800000D01*
X161919200Y-106796450D01*
X161919200Y-106768796D01*
X161830261Y-106554078D01*
X161806934Y-106530751D01*
X162504906Y-105937591D01*
X162538668Y-105971412D01*
X162785971Y-106074101D01*
X163053747Y-106074335D01*
X163301229Y-105972077D01*
X163490740Y-105782896D01*
X163523478Y-105704053D01*
X163541927Y-105711714D01*
X163809703Y-105711948D01*
X164057185Y-105609690D01*
X164246696Y-105420509D01*
X164349385Y-105173206D01*
X164349619Y-104905430D01*
X164247361Y-104657948D01*
X164193766Y-104604260D01*
X164398417Y-104519699D01*
X164587928Y-104330518D01*
X164690617Y-104083215D01*
X164690851Y-103815439D01*
X164588593Y-103567957D01*
X164534998Y-103514269D01*
X164739649Y-103429708D01*
X164929160Y-103240527D01*
X165031849Y-102993224D01*
X165032083Y-102725448D01*
X164929825Y-102477966D01*
X164876230Y-102424278D01*
X165080880Y-102339718D01*
X165270391Y-102150537D01*
X165373080Y-101903234D01*
X165373314Y-101635458D01*
X165271056Y-101387976D01*
X165217461Y-101334288D01*
X165422112Y-101249727D01*
X165594800Y-101077340D01*
X165594800Y-114923331D01*
X165594800Y-114923331D01*
G37*
X165594800Y-114923331D02*
X165423107Y-114751339D01*
X165217681Y-114666039D01*
X165270391Y-114613420D01*
X165373080Y-114366117D01*
X165373314Y-114098341D01*
X165271056Y-113850859D01*
X165081875Y-113661348D01*
X164876449Y-113576048D01*
X164929160Y-113523429D01*
X165031849Y-113276126D01*
X165032083Y-113008350D01*
X164929825Y-112760868D01*
X164740644Y-112571357D01*
X164535218Y-112486057D01*
X164587928Y-112433439D01*
X164690617Y-112186136D01*
X164690851Y-111918360D01*
X164588593Y-111670878D01*
X164399412Y-111481367D01*
X164193986Y-111396067D01*
X164246696Y-111343448D01*
X164349385Y-111096145D01*
X164349619Y-110828369D01*
X164247361Y-110580887D01*
X164058180Y-110391376D01*
X163810877Y-110288687D01*
X163543101Y-110288453D01*
X163523633Y-110296497D01*
X163491405Y-110218499D01*
X163302224Y-110028988D01*
X163054921Y-109926299D01*
X162787145Y-109926065D01*
X162539663Y-110028323D01*
X162505019Y-110062907D01*
X161806717Y-109469466D01*
X161830261Y-109445922D01*
X161919200Y-109231204D01*
X161919200Y-109203550D01*
X161915650Y-109200000D01*
X161919200Y-109196450D01*
X161919200Y-109168796D01*
X161849282Y-109000000D01*
X161919200Y-108831204D01*
X161919200Y-108803550D01*
X161915650Y-108800000D01*
X161919200Y-108796450D01*
X161919200Y-108768796D01*
X161849282Y-108600000D01*
X161919200Y-108431204D01*
X161919200Y-108403550D01*
X161915650Y-108400000D01*
X161919200Y-108396450D01*
X161919200Y-108368796D01*
X161849282Y-108200000D01*
X161919200Y-108031204D01*
X161919200Y-108003550D01*
X161915650Y-108000000D01*
X161919200Y-107996450D01*
X161919200Y-107968796D01*
X161849282Y-107800000D01*
X161919200Y-107631204D01*
X161919200Y-107603550D01*
X161915650Y-107600000D01*
X161919200Y-107596450D01*
X161919200Y-107568796D01*
X161849282Y-107400000D01*
X161919200Y-107231204D01*
X161919200Y-107203550D01*
X161915650Y-107200000D01*
X161919200Y-107196450D01*
X161919200Y-107168796D01*
X161849282Y-107000000D01*
X161919200Y-106831204D01*
X161919200Y-106803550D01*
X161915650Y-106800000D01*
X161919200Y-106796450D01*
X161919200Y-106768796D01*
X161830261Y-106554078D01*
X161806934Y-106530751D01*
X162504906Y-105937591D01*
X162538668Y-105971412D01*
X162785971Y-106074101D01*
X163053747Y-106074335D01*
X163301229Y-105972077D01*
X163490740Y-105782896D01*
X163523478Y-105704053D01*
X163541927Y-105711714D01*
X163809703Y-105711948D01*
X164057185Y-105609690D01*
X164246696Y-105420509D01*
X164349385Y-105173206D01*
X164349619Y-104905430D01*
X164247361Y-104657948D01*
X164193766Y-104604260D01*
X164398417Y-104519699D01*
X164587928Y-104330518D01*
X164690617Y-104083215D01*
X164690851Y-103815439D01*
X164588593Y-103567957D01*
X164534998Y-103514269D01*
X164739649Y-103429708D01*
X164929160Y-103240527D01*
X165031849Y-102993224D01*
X165032083Y-102725448D01*
X164929825Y-102477966D01*
X164876230Y-102424278D01*
X165080880Y-102339718D01*
X165270391Y-102150537D01*
X165373080Y-101903234D01*
X165373314Y-101635458D01*
X165271056Y-101387976D01*
X165217461Y-101334288D01*
X165422112Y-101249727D01*
X165594800Y-101077340D01*
X165594800Y-114923331D01*
G36*
X161170000Y-109115000D02*
X160840000Y-109115000D01*
X160840000Y-106885000D01*
X161170000Y-106885000D01*
X161170000Y-109115000D01*
X161170000Y-109115000D01*
G37*
X161170000Y-109115000D02*
X160840000Y-109115000D01*
X160840000Y-106885000D01*
X161170000Y-106885000D01*
X161170000Y-109115000D01*
G36*
X133095850Y-106062200D02*
X134344800Y-106062200D01*
X134344800Y-106417800D01*
X133095850Y-106417800D01*
X133035000Y-106478650D01*
X132954150Y-106397800D01*
X131677800Y-106397800D01*
X131677800Y-106417800D01*
X131322200Y-106417800D01*
X131322200Y-106397800D01*
X131302200Y-106397800D01*
X131302200Y-106042200D01*
X131322200Y-106042200D01*
X131322200Y-106022200D01*
X131677800Y-106022200D01*
X131677800Y-106042200D01*
X132954150Y-106042200D01*
X133015000Y-105981350D01*
X133095850Y-106062200D01*
X133095850Y-106062200D01*
G37*
X133095850Y-106062200D02*
X134344800Y-106062200D01*
X134344800Y-106417800D01*
X133095850Y-106417800D01*
X133035000Y-106478650D01*
X132954150Y-106397800D01*
X131677800Y-106397800D01*
X131677800Y-106417800D01*
X131322200Y-106417800D01*
X131322200Y-106397800D01*
X131302200Y-106397800D01*
X131302200Y-106042200D01*
X131322200Y-106042200D01*
X131322200Y-106022200D01*
X131677800Y-106022200D01*
X131677800Y-106042200D01*
X132954150Y-106042200D01*
X133015000Y-105981350D01*
X133095850Y-106062200D01*
G36*
X164144277Y-90591021D02*
X164902410Y-91097588D01*
X165408979Y-91855723D01*
X165594800Y-92789907D01*
X165594800Y-100280466D01*
X165423107Y-100108474D01*
X165299613Y-100057195D01*
X165299822Y-99817864D01*
X165197564Y-99570382D01*
X165008383Y-99380871D01*
X164761080Y-99278182D01*
X164493304Y-99277948D01*
X164245822Y-99380206D01*
X164170161Y-99455736D01*
X164125216Y-99493931D01*
X164122696Y-99476786D01*
X164212861Y-99386778D01*
X164315550Y-99139475D01*
X164315784Y-98871699D01*
X164213526Y-98624217D01*
X164024345Y-98434706D01*
X163777042Y-98332017D01*
X163509266Y-98331783D01*
X163357108Y-98394654D01*
X163520294Y-98231752D01*
X163622983Y-97984449D01*
X163623217Y-97716673D01*
X163520959Y-97469191D01*
X163331778Y-97279680D01*
X163217190Y-97232099D01*
X163137368Y-97112638D01*
X163005523Y-97024541D01*
X162850000Y-96993606D01*
X162694477Y-97024541D01*
X162562632Y-97112638D01*
X161986479Y-97688791D01*
X161425292Y-97688791D01*
X161663680Y-97450403D01*
X161668534Y-97443138D01*
X161751777Y-97318558D01*
X161782712Y-97163035D01*
X161782712Y-94472515D01*
X162079193Y-94768996D01*
X161929706Y-94918222D01*
X161827017Y-95165525D01*
X161826783Y-95433301D01*
X161929041Y-95680783D01*
X162118222Y-95870294D01*
X162365525Y-95972983D01*
X162633301Y-95973217D01*
X162880783Y-95870959D01*
X163070294Y-95681778D01*
X163172983Y-95434475D01*
X163173217Y-95166699D01*
X163070959Y-94919217D01*
X162906400Y-94754371D01*
X162906400Y-94615067D01*
X162899404Y-94579895D01*
X163612452Y-94580517D01*
X164285371Y-94302473D01*
X164800664Y-93788079D01*
X165079882Y-93115646D01*
X165080517Y-92387548D01*
X164802473Y-91714629D01*
X164288079Y-91199336D01*
X163615646Y-90920118D01*
X162887548Y-90919483D01*
X162214629Y-91197527D01*
X161699336Y-91711921D01*
X161420118Y-92384354D01*
X161419616Y-92959947D01*
X160732401Y-92272732D01*
X160730711Y-92271603D01*
X160600556Y-92184635D01*
X160445033Y-92153700D01*
X159239900Y-92153700D01*
X159178426Y-92165928D01*
X159475382Y-91869489D01*
X159642010Y-91468205D01*
X159642389Y-91033701D01*
X159476462Y-90632127D01*
X159249931Y-90405200D01*
X163210092Y-90405200D01*
X164144277Y-90591021D01*
X164144277Y-90591021D01*
G37*
X164144277Y-90591021D02*
X164902410Y-91097588D01*
X165408979Y-91855723D01*
X165594800Y-92789907D01*
X165594800Y-100280466D01*
X165423107Y-100108474D01*
X165299613Y-100057195D01*
X165299822Y-99817864D01*
X165197564Y-99570382D01*
X165008383Y-99380871D01*
X164761080Y-99278182D01*
X164493304Y-99277948D01*
X164245822Y-99380206D01*
X164170161Y-99455736D01*
X164125216Y-99493931D01*
X164122696Y-99476786D01*
X164212861Y-99386778D01*
X164315550Y-99139475D01*
X164315784Y-98871699D01*
X164213526Y-98624217D01*
X164024345Y-98434706D01*
X163777042Y-98332017D01*
X163509266Y-98331783D01*
X163357108Y-98394654D01*
X163520294Y-98231752D01*
X163622983Y-97984449D01*
X163623217Y-97716673D01*
X163520959Y-97469191D01*
X163331778Y-97279680D01*
X163217190Y-97232099D01*
X163137368Y-97112638D01*
X163005523Y-97024541D01*
X162850000Y-96993606D01*
X162694477Y-97024541D01*
X162562632Y-97112638D01*
X161986479Y-97688791D01*
X161425292Y-97688791D01*
X161663680Y-97450403D01*
X161668534Y-97443138D01*
X161751777Y-97318558D01*
X161782712Y-97163035D01*
X161782712Y-94472515D01*
X162079193Y-94768996D01*
X161929706Y-94918222D01*
X161827017Y-95165525D01*
X161826783Y-95433301D01*
X161929041Y-95680783D01*
X162118222Y-95870294D01*
X162365525Y-95972983D01*
X162633301Y-95973217D01*
X162880783Y-95870959D01*
X163070294Y-95681778D01*
X163172983Y-95434475D01*
X163173217Y-95166699D01*
X163070959Y-94919217D01*
X162906400Y-94754371D01*
X162906400Y-94615067D01*
X162899404Y-94579895D01*
X163612452Y-94580517D01*
X164285371Y-94302473D01*
X164800664Y-93788079D01*
X165079882Y-93115646D01*
X165080517Y-92387548D01*
X164802473Y-91714629D01*
X164288079Y-91199336D01*
X163615646Y-90920118D01*
X162887548Y-90919483D01*
X162214629Y-91197527D01*
X161699336Y-91711921D01*
X161420118Y-92384354D01*
X161419616Y-92959947D01*
X160732401Y-92272732D01*
X160730711Y-92271603D01*
X160600556Y-92184635D01*
X160445033Y-92153700D01*
X159239900Y-92153700D01*
X159178426Y-92165928D01*
X159475382Y-91869489D01*
X159642010Y-91468205D01*
X159642389Y-91033701D01*
X159476462Y-90632127D01*
X159249931Y-90405200D01*
X163210092Y-90405200D01*
X164144277Y-90591021D01*
G36*
X159940032Y-95137368D02*
X160071877Y-95225465D01*
X160227400Y-95256400D01*
X160577486Y-95256400D01*
X160665101Y-95344015D01*
X160665101Y-96335548D01*
X160437562Y-96241066D01*
X160169786Y-96240832D01*
X159922304Y-96343090D01*
X159732793Y-96532271D01*
X159665803Y-96693600D01*
X159157584Y-96693600D01*
X159245261Y-96605922D01*
X159334200Y-96391204D01*
X159334200Y-96223850D01*
X159188150Y-96077800D01*
X158327800Y-96077800D01*
X158327800Y-96097800D01*
X157972200Y-96097800D01*
X157972200Y-96077800D01*
X157952200Y-96077800D01*
X157952200Y-95722200D01*
X157972200Y-95722200D01*
X157972200Y-95702200D01*
X158327800Y-95702200D01*
X158327800Y-95722200D01*
X159188150Y-95722200D01*
X159334200Y-95576150D01*
X159334200Y-95408796D01*
X159245261Y-95194078D01*
X159147884Y-95096700D01*
X159203705Y-95096700D01*
X159418423Y-95007761D01*
X159582761Y-94843422D01*
X159601308Y-94798644D01*
X159940032Y-95137368D01*
X159940032Y-95137368D01*
G37*
X159940032Y-95137368D02*
X160071877Y-95225465D01*
X160227400Y-95256400D01*
X160577486Y-95256400D01*
X160665101Y-95344015D01*
X160665101Y-96335548D01*
X160437562Y-96241066D01*
X160169786Y-96240832D01*
X159922304Y-96343090D01*
X159732793Y-96532271D01*
X159665803Y-96693600D01*
X159157584Y-96693600D01*
X159245261Y-96605922D01*
X159334200Y-96391204D01*
X159334200Y-96223850D01*
X159188150Y-96077800D01*
X158327800Y-96077800D01*
X158327800Y-96097800D01*
X157972200Y-96097800D01*
X157972200Y-96077800D01*
X157952200Y-96077800D01*
X157952200Y-95722200D01*
X157972200Y-95722200D01*
X157972200Y-95702200D01*
X158327800Y-95702200D01*
X158327800Y-95722200D01*
X159188150Y-95722200D01*
X159334200Y-95576150D01*
X159334200Y-95408796D01*
X159245261Y-95194078D01*
X159147884Y-95096700D01*
X159203705Y-95096700D01*
X159418423Y-95007761D01*
X159582761Y-94843422D01*
X159601308Y-94798644D01*
X159940032Y-95137368D01*
G36*
X158910300Y-94437500D02*
X158890300Y-94437500D01*
X158890300Y-94512500D01*
X158534700Y-94512500D01*
X158534700Y-94437500D01*
X158514700Y-94437500D01*
X158514700Y-94349169D01*
X158910300Y-94349169D01*
X158910300Y-94437500D01*
X158910300Y-94437500D01*
G37*
X158910300Y-94437500D02*
X158890300Y-94437500D01*
X158890300Y-94512500D01*
X158534700Y-94512500D01*
X158534700Y-94437500D01*
X158514700Y-94437500D01*
X158514700Y-94349169D01*
X158910300Y-94349169D01*
X158910300Y-94437500D01*
M02*
