M48
INCH,TZ
T1C0.013
T2C0.013
T3C0.040
T4C0.118
%
G90
G05
T1
X52362Y-41181
X57224Y-46604
X59075Y-42972
X59075Y-43366
X60472Y-36909
X60610Y-46358
X60697Y-46762
X60758Y-36272
X60827Y-36594
X60866Y-47776
X60886Y-37362
X61713Y-36299
X61885Y-46476
X61929Y-37402
X61929Y-38228
X62638Y-38642
X62972Y-36772
X63111Y-38155
X63189Y-37579
X63279Y-37134
X63386Y-46067
X63976Y-37520
X64154Y-38524
X64671Y-37540
T2
X60732Y-39637
X60732Y-45402
X60866Y-40066
X60866Y-44973
X60895Y-39351
X60895Y-45689
X61001Y-40496
X61001Y-44544
X61030Y-39780
X61030Y-45260
X61135Y-44115
X61164Y-40209
X61164Y-44830
X61269Y-43686
X61283Y-38978
X61298Y-40638
X61298Y-44401
X61404Y-41783
X61404Y-43257
X61433Y-43972
X61470Y-39249
X61496Y-46358
X61538Y-42212
X61538Y-42827
X61567Y-41497
X61567Y-43543
X61639Y-46056
X61701Y-41926
X61701Y-43114
X61728Y-39042
X61836Y-42355
X61836Y-42685
X61915Y-39312
X62305Y-38998
X62305Y-38998
X63404Y-38998
X63794Y-39312
X63794Y-45727
X63873Y-42355
X63873Y-42685
X63981Y-39042
X63981Y-45998
X64008Y-41926
X64008Y-43114
X64142Y-41497
X64142Y-43543
X64171Y-42212
X64171Y-42827
X64239Y-39249
X64239Y-45791
X64276Y-41067
X64276Y-43972
X64305Y-41783
X64305Y-43257
X64411Y-40638
X64411Y-44401
X64426Y-38978
X64426Y-46061
X64440Y-41354
X64440Y-43686
X64545Y-40209
X64545Y-44830
X64574Y-40925
X64574Y-44115
X64679Y-39780
X64679Y-45260
X64708Y-40496
X64708Y-44544
X64814Y-39351
X64814Y-45689
X64843Y-40066
X64843Y-44973
X64977Y-39637
X64977Y-45402
T3
X51772Y-40819
X51772Y-41819
X51772Y-42819
X51772Y-43819
X52972Y-40827
X52972Y-41827
X52972Y-42827
X52972Y-43827
X53012Y-44839
X53031Y-39843
X54012Y-44839
X54031Y-39843
X54348Y-48996
X55012Y-44839
X55031Y-39843
X55348Y-48996
X56012Y-44839
X56031Y-39843
X56348Y-48996
X57012Y-44839
X57031Y-39843
X57348Y-48996
X58012Y-44839
X58031Y-39843
X58031Y-41969
X58031Y-42969
X58348Y-48996
X59348Y-48996
T4
X52264Y-36516
X52264Y-48524
X64272Y-36516
X64272Y-48524
T0
M30
