G04 #@! TF.FileFunction,Legend,Bot*
%FSLAX46Y46*%
G04 Gerber Fmt 4.6, Leading zero omitted, Abs format (unit mm)*
G04 Created by KiCad (PCBNEW 4.0.1-stable) date Tuesday, May 31, 2016 'PMt' 11:05:36 PM*
%MOMM*%
G01*
G04 APERTURE LIST*
%ADD10C,0.100000*%
%ADD11C,0.200000*%
%ADD12C,0.150000*%
%ADD13C,0.300000*%
%ADD14C,0.175000*%
G04 APERTURE END LIST*
D10*
D11*
X143932884Y-119290000D02*
G75*
G03X143932884Y-119290000I-382884J0D01*
G01*
D12*
X132117619Y-120990952D02*
X132117619Y-121467143D01*
X131641429Y-121514762D01*
X131689048Y-121467143D01*
X131736667Y-121371905D01*
X131736667Y-121133809D01*
X131689048Y-121038571D01*
X131641429Y-120990952D01*
X131546190Y-120943333D01*
X131308095Y-120943333D01*
X131212857Y-120990952D01*
X131165238Y-121038571D01*
X131117619Y-121133809D01*
X131117619Y-121371905D01*
X131165238Y-121467143D01*
X131212857Y-121514762D01*
X132117619Y-120657619D02*
X131117619Y-120324286D01*
X132117619Y-119990952D01*
X130784286Y-119419524D02*
X132212857Y-119419524D01*
X131498571Y-118705238D02*
X131498571Y-117943333D01*
X130784286Y-117229048D02*
X132212857Y-117229048D01*
X132117619Y-116657619D02*
X131117619Y-116324286D01*
X132117619Y-115990952D01*
X131117619Y-115657619D02*
X131784286Y-115657619D01*
X132117619Y-115657619D02*
X132070000Y-115705238D01*
X132022381Y-115657619D01*
X132070000Y-115610000D01*
X132117619Y-115657619D01*
X132022381Y-115657619D01*
X131784286Y-115181429D02*
X131117619Y-115181429D01*
X131689048Y-115181429D02*
X131736667Y-115133810D01*
X131784286Y-115038572D01*
X131784286Y-114895714D01*
X131736667Y-114800476D01*
X131641429Y-114752857D01*
X131117619Y-114752857D01*
D13*
X150742857Y-121350000D02*
X150885714Y-121278571D01*
X151100000Y-121278571D01*
X151314285Y-121350000D01*
X151457143Y-121492857D01*
X151528571Y-121635714D01*
X151600000Y-121921429D01*
X151600000Y-122135714D01*
X151528571Y-122421429D01*
X151457143Y-122564286D01*
X151314285Y-122707143D01*
X151100000Y-122778571D01*
X150957143Y-122778571D01*
X150742857Y-122707143D01*
X150671428Y-122635714D01*
X150671428Y-122135714D01*
X150957143Y-122135714D01*
X150028571Y-122778571D02*
X150028571Y-121278571D01*
X149171428Y-122778571D01*
X149171428Y-121278571D01*
X148457142Y-122778571D02*
X148457142Y-121278571D01*
X148099999Y-121278571D01*
X147885714Y-121350000D01*
X147742856Y-121492857D01*
X147671428Y-121635714D01*
X147599999Y-121921429D01*
X147599999Y-122135714D01*
X147671428Y-122421429D01*
X147742856Y-122564286D01*
X147885714Y-122707143D01*
X148099999Y-122778571D01*
X148457142Y-122778571D01*
D12*
X145821429Y-120174286D02*
X145821429Y-120936191D01*
X146202381Y-120555239D02*
X145440476Y-120555239D01*
X145202381Y-121888572D02*
X145202381Y-121412381D01*
X145678571Y-121364762D01*
X145630952Y-121412381D01*
X145583333Y-121507619D01*
X145583333Y-121745715D01*
X145630952Y-121840953D01*
X145678571Y-121888572D01*
X145773810Y-121936191D01*
X146011905Y-121936191D01*
X146107143Y-121888572D01*
X146154762Y-121840953D01*
X146202381Y-121745715D01*
X146202381Y-121507619D01*
X146154762Y-121412381D01*
X146107143Y-121364762D01*
X145202381Y-122221905D02*
X146202381Y-122555238D01*
X145202381Y-122888572D01*
D13*
X143828571Y-121450001D02*
X143114286Y-120950001D01*
X143828571Y-120592858D02*
X142328571Y-120592858D01*
X142328571Y-121164286D01*
X142400000Y-121307144D01*
X142471429Y-121378572D01*
X142614286Y-121450001D01*
X142828571Y-121450001D01*
X142971429Y-121378572D01*
X143042857Y-121307144D01*
X143114286Y-121164286D01*
X143114286Y-120592858D01*
X142328571Y-121950001D02*
X143828571Y-122950001D01*
X142328571Y-122950001D02*
X143828571Y-121950001D01*
X139828571Y-120432143D02*
X139828571Y-121289286D01*
X141328571Y-120860715D02*
X139828571Y-120860715D01*
X139828571Y-121646429D02*
X141328571Y-122646429D01*
X139828571Y-122646429D02*
X141328571Y-121646429D01*
D12*
X138527381Y-120582143D02*
X137527381Y-120582143D01*
X137527381Y-120820238D01*
X137575000Y-120963096D01*
X137670238Y-121058334D01*
X137765476Y-121105953D01*
X137955952Y-121153572D01*
X138098810Y-121153572D01*
X138289286Y-121105953D01*
X138384524Y-121058334D01*
X138479762Y-120963096D01*
X138527381Y-120820238D01*
X138527381Y-120582143D01*
X137527381Y-121439286D02*
X137527381Y-122010715D01*
X138527381Y-121725000D02*
X137527381Y-121725000D01*
X138527381Y-122915477D02*
X138051190Y-122582143D01*
X138527381Y-122344048D02*
X137527381Y-122344048D01*
X137527381Y-122725001D01*
X137575000Y-122820239D01*
X137622619Y-122867858D01*
X137717857Y-122915477D01*
X137860714Y-122915477D01*
X137955952Y-122867858D01*
X138003571Y-122820239D01*
X138051190Y-122725001D01*
X138051190Y-122344048D01*
X147903811Y-98644762D02*
X147760954Y-98692381D01*
X147522858Y-98692381D01*
X147427620Y-98644762D01*
X147380001Y-98597143D01*
X147332382Y-98501905D01*
X147332382Y-98406667D01*
X147380001Y-98311429D01*
X147427620Y-98263810D01*
X147522858Y-98216190D01*
X147713335Y-98168571D01*
X147808573Y-98120952D01*
X147856192Y-98073333D01*
X147903811Y-97978095D01*
X147903811Y-97882857D01*
X147856192Y-97787619D01*
X147808573Y-97740000D01*
X147713335Y-97692381D01*
X147475239Y-97692381D01*
X147332382Y-97740000D01*
X146760954Y-98692381D02*
X146856192Y-98644762D01*
X146903811Y-98597143D01*
X146951430Y-98501905D01*
X146951430Y-98216190D01*
X146903811Y-98120952D01*
X146856192Y-98073333D01*
X146760954Y-98025714D01*
X146618096Y-98025714D01*
X146522858Y-98073333D01*
X146475239Y-98120952D01*
X146427620Y-98216190D01*
X146427620Y-98501905D01*
X146475239Y-98597143D01*
X146522858Y-98644762D01*
X146618096Y-98692381D01*
X146760954Y-98692381D01*
X145856192Y-98692381D02*
X145951430Y-98644762D01*
X145999049Y-98549524D01*
X145999049Y-97692381D01*
X145046667Y-98692381D02*
X145046667Y-97692381D01*
X145046667Y-98644762D02*
X145141905Y-98692381D01*
X145332382Y-98692381D01*
X145427620Y-98644762D01*
X145475239Y-98597143D01*
X145522858Y-98501905D01*
X145522858Y-98216190D01*
X145475239Y-98120952D01*
X145427620Y-98073333D01*
X145332382Y-98025714D01*
X145141905Y-98025714D01*
X145046667Y-98073333D01*
X144189524Y-98644762D02*
X144284762Y-98692381D01*
X144475239Y-98692381D01*
X144570477Y-98644762D01*
X144618096Y-98549524D01*
X144618096Y-98168571D01*
X144570477Y-98073333D01*
X144475239Y-98025714D01*
X144284762Y-98025714D01*
X144189524Y-98073333D01*
X144141905Y-98168571D01*
X144141905Y-98263810D01*
X144618096Y-98359048D01*
X143713334Y-98692381D02*
X143713334Y-98025714D01*
X143713334Y-98216190D02*
X143665715Y-98120952D01*
X143618096Y-98073333D01*
X143522858Y-98025714D01*
X143427619Y-98025714D01*
X142475238Y-98025714D02*
X142094286Y-98025714D01*
X142332381Y-98692381D02*
X142332381Y-97835238D01*
X142284762Y-97740000D01*
X142189524Y-97692381D01*
X142094286Y-97692381D01*
X141760952Y-98692381D02*
X141760952Y-98025714D01*
X141760952Y-98216190D02*
X141713333Y-98120952D01*
X141665714Y-98073333D01*
X141570476Y-98025714D01*
X141475237Y-98025714D01*
X140999047Y-98692381D02*
X141094285Y-98644762D01*
X141141904Y-98597143D01*
X141189523Y-98501905D01*
X141189523Y-98216190D01*
X141141904Y-98120952D01*
X141094285Y-98073333D01*
X140999047Y-98025714D01*
X140856189Y-98025714D01*
X140760951Y-98073333D01*
X140713332Y-98120952D01*
X140665713Y-98216190D01*
X140665713Y-98501905D01*
X140713332Y-98597143D01*
X140760951Y-98644762D01*
X140856189Y-98692381D01*
X140999047Y-98692381D01*
X140237142Y-98692381D02*
X140237142Y-98025714D01*
X140237142Y-98120952D02*
X140189523Y-98073333D01*
X140094285Y-98025714D01*
X139951427Y-98025714D01*
X139856189Y-98073333D01*
X139808570Y-98168571D01*
X139808570Y-98692381D01*
X139808570Y-98168571D02*
X139760951Y-98073333D01*
X139665713Y-98025714D01*
X139522856Y-98025714D01*
X139427618Y-98073333D01*
X139379999Y-98168571D01*
X139379999Y-98692381D01*
X138141904Y-98692381D02*
X138141904Y-97692381D01*
X137713332Y-98692381D02*
X137713332Y-98168571D01*
X137760951Y-98073333D01*
X137856189Y-98025714D01*
X137999047Y-98025714D01*
X138094285Y-98073333D01*
X138141904Y-98120952D01*
X136856189Y-98644762D02*
X136951427Y-98692381D01*
X137141904Y-98692381D01*
X137237142Y-98644762D01*
X137284761Y-98549524D01*
X137284761Y-98168571D01*
X137237142Y-98073333D01*
X137141904Y-98025714D01*
X136951427Y-98025714D01*
X136856189Y-98073333D01*
X136808570Y-98168571D01*
X136808570Y-98263810D01*
X137284761Y-98359048D01*
X136379999Y-98692381D02*
X136379999Y-98025714D01*
X136379999Y-98216190D02*
X136332380Y-98120952D01*
X136284761Y-98073333D01*
X136189523Y-98025714D01*
X136094284Y-98025714D01*
X135379998Y-98644762D02*
X135475236Y-98692381D01*
X135665713Y-98692381D01*
X135760951Y-98644762D01*
X135808570Y-98549524D01*
X135808570Y-98168571D01*
X135760951Y-98073333D01*
X135665713Y-98025714D01*
X135475236Y-98025714D01*
X135379998Y-98073333D01*
X135332379Y-98168571D01*
X135332379Y-98263810D01*
X135808570Y-98359048D01*
X134903808Y-98597143D02*
X134856189Y-98644762D01*
X134903808Y-98692381D01*
X134951427Y-98644762D01*
X134903808Y-98597143D01*
X134903808Y-98692381D01*
D14*
X151831428Y-91835714D02*
X151945714Y-91892857D01*
X152174285Y-91892857D01*
X152288571Y-91835714D01*
X152345714Y-91778571D01*
X152402857Y-91664286D01*
X152402857Y-91321429D01*
X152345714Y-91207143D01*
X152288571Y-91150000D01*
X152174285Y-91092857D01*
X151945714Y-91092857D01*
X151831428Y-91150000D01*
X151317143Y-91892857D02*
X151317143Y-90692857D01*
X151202857Y-91435714D02*
X150860000Y-91892857D01*
X150860000Y-91092857D02*
X151317143Y-91550000D01*
X149831428Y-91892857D02*
X149831428Y-90692857D01*
X149831428Y-91835714D02*
X149945714Y-91892857D01*
X150174285Y-91892857D01*
X150288571Y-91835714D01*
X150345714Y-91778571D01*
X150402857Y-91664286D01*
X150402857Y-91321429D01*
X150345714Y-91207143D01*
X150288571Y-91150000D01*
X150174285Y-91092857D01*
X149945714Y-91092857D01*
X149831428Y-91150000D01*
X149260000Y-91778571D02*
X149202857Y-91835714D01*
X149260000Y-91892857D01*
X149317143Y-91835714D01*
X149260000Y-91778571D01*
X149260000Y-91892857D01*
X148859999Y-91092857D02*
X148402856Y-91092857D01*
X148688571Y-90692857D02*
X148688571Y-91721429D01*
X148631428Y-91835714D01*
X148517142Y-91892857D01*
X148402856Y-91892857D01*
X147545714Y-91835714D02*
X147660000Y-91892857D01*
X147888571Y-91892857D01*
X148002857Y-91835714D01*
X148060000Y-91721429D01*
X148060000Y-91264286D01*
X148002857Y-91150000D01*
X147888571Y-91092857D01*
X147660000Y-91092857D01*
X147545714Y-91150000D01*
X147488571Y-91264286D01*
X147488571Y-91378571D01*
X148060000Y-91492857D01*
X146460000Y-91835714D02*
X146574286Y-91892857D01*
X146802857Y-91892857D01*
X146917143Y-91835714D01*
X146974286Y-91778571D01*
X147031429Y-91664286D01*
X147031429Y-91321429D01*
X146974286Y-91207143D01*
X146917143Y-91150000D01*
X146802857Y-91092857D01*
X146574286Y-91092857D01*
X146460000Y-91150000D01*
X145945715Y-91892857D02*
X145945715Y-90692857D01*
X145431429Y-91892857D02*
X145431429Y-91264286D01*
X145488572Y-91150000D01*
X145602858Y-91092857D01*
X145774286Y-91092857D01*
X145888572Y-91150000D01*
X145945715Y-91207143D01*
X144002858Y-90635714D02*
X145031429Y-92178571D01*
X143088572Y-91092857D02*
X143088572Y-91892857D01*
X143602858Y-91092857D02*
X143602858Y-91721429D01*
X143545715Y-91835714D01*
X143431429Y-91892857D01*
X143260001Y-91892857D01*
X143145715Y-91835714D01*
X143088572Y-91778571D01*
X142288572Y-90692857D02*
X142060001Y-90692857D01*
X141945715Y-90750000D01*
X141831429Y-90864286D01*
X141774287Y-91092857D01*
X141774287Y-91492857D01*
X141831429Y-91721429D01*
X141945715Y-91835714D01*
X142060001Y-91892857D01*
X142288572Y-91892857D01*
X142402858Y-91835714D01*
X142517144Y-91721429D01*
X142574287Y-91492857D01*
X142574287Y-91092857D01*
X142517144Y-90864286D01*
X142402858Y-90750000D01*
X142288572Y-90692857D01*
X141317144Y-91835714D02*
X141145715Y-91892857D01*
X140860001Y-91892857D01*
X140745715Y-91835714D01*
X140688572Y-91778571D01*
X140631429Y-91664286D01*
X140631429Y-91550000D01*
X140688572Y-91435714D01*
X140745715Y-91378571D01*
X140860001Y-91321429D01*
X141088572Y-91264286D01*
X141202858Y-91207143D01*
X141260001Y-91150000D01*
X141317144Y-91035714D01*
X141317144Y-90921429D01*
X141260001Y-90807143D01*
X141202858Y-90750000D01*
X141088572Y-90692857D01*
X140802858Y-90692857D01*
X140631429Y-90750000D01*
X140117144Y-91892857D02*
X140117144Y-90692857D01*
X139831429Y-90692857D01*
X139660001Y-90750000D01*
X139545715Y-90864286D01*
X139488572Y-90978571D01*
X139431429Y-91207143D01*
X139431429Y-91378571D01*
X139488572Y-91607143D01*
X139545715Y-91721429D01*
X139660001Y-91835714D01*
X139831429Y-91892857D01*
X140117144Y-91892857D01*
X138060001Y-90635714D02*
X139088572Y-92178571D01*
X137774286Y-91092857D02*
X137488572Y-91892857D01*
X137202858Y-91092857D01*
X136174286Y-90692857D02*
X136745715Y-90692857D01*
X136802858Y-91264286D01*
X136745715Y-91207143D01*
X136631429Y-91150000D01*
X136345715Y-91150000D01*
X136231429Y-91207143D01*
X136174286Y-91264286D01*
X136117143Y-91378571D01*
X136117143Y-91664286D01*
X136174286Y-91778571D01*
X136231429Y-91835714D01*
X136345715Y-91892857D01*
X136631429Y-91892857D01*
X136745715Y-91835714D01*
X136802858Y-91778571D01*
D12*
X131528571Y-101176191D02*
X131528571Y-100414286D01*
X130814286Y-99700001D02*
X132242857Y-99700001D01*
X132147619Y-99128572D02*
X131147619Y-98795239D01*
X132147619Y-98461905D01*
X131147619Y-97985715D02*
X131195238Y-98080953D01*
X131242857Y-98128572D01*
X131338095Y-98176191D01*
X131623810Y-98176191D01*
X131719048Y-98128572D01*
X131766667Y-98080953D01*
X131814286Y-97985715D01*
X131814286Y-97842857D01*
X131766667Y-97747619D01*
X131719048Y-97700000D01*
X131623810Y-97652381D01*
X131338095Y-97652381D01*
X131242857Y-97700000D01*
X131195238Y-97747619D01*
X131147619Y-97842857D01*
X131147619Y-97985715D01*
X131814286Y-96795238D02*
X131147619Y-96795238D01*
X131814286Y-97223810D02*
X131290476Y-97223810D01*
X131195238Y-97176191D01*
X131147619Y-97080953D01*
X131147619Y-96938095D01*
X131195238Y-96842857D01*
X131242857Y-96795238D01*
X131814286Y-96461905D02*
X131814286Y-96080953D01*
X132147619Y-96319048D02*
X131290476Y-96319048D01*
X131195238Y-96271429D01*
X131147619Y-96176191D01*
X131147619Y-96080953D01*
X158725000Y-99240000D02*
X160575000Y-99240000D01*
X158725000Y-116760000D02*
X160575000Y-116760000D01*
X159650000Y-115800000D02*
X159650000Y-100200000D01*
X156850000Y-96500000D02*
X157550000Y-96500000D01*
X157550000Y-95300000D02*
X156850000Y-95300000D01*
X158337500Y-94737500D02*
X156187500Y-94737500D01*
X159162500Y-92487500D02*
X156187500Y-92487500D01*
X154950000Y-91875000D02*
X155950000Y-91875000D01*
X155950000Y-90525000D02*
X154950000Y-90525000D01*
X151340000Y-117770000D02*
X151340000Y-118470000D01*
X152540000Y-118470000D02*
X152540000Y-117770000D01*
X152540000Y-114580000D02*
X152540000Y-113880000D01*
X151340000Y-113880000D02*
X151340000Y-114580000D01*
X142525000Y-118190000D02*
X142525000Y-117190000D01*
X141175000Y-117190000D02*
X141175000Y-118190000D01*
X144415000Y-118855000D02*
X144415000Y-118655000D01*
X149065000Y-118855000D02*
X149065000Y-118655000D01*
X149065000Y-115605000D02*
X149065000Y-115805000D01*
X144415000Y-115605000D02*
X144415000Y-115805000D01*
X144415000Y-118855000D02*
X149065000Y-118855000D01*
X144415000Y-115605000D02*
X149065000Y-115605000D01*
X144415000Y-118655000D02*
X143065000Y-118655000D01*
D10*
G36*
X165579431Y-120793441D02*
X165292761Y-120177151D01*
X165277580Y-120179083D01*
X165262689Y-120180831D01*
X165248090Y-120182394D01*
X165233781Y-120183774D01*
X165219764Y-120184970D01*
X165206037Y-120185982D01*
X165192601Y-120186809D01*
X165179456Y-120187453D01*
X165166602Y-120187913D01*
X165154039Y-120188189D01*
X165141767Y-120188281D01*
X165126550Y-120188018D01*
X165111768Y-120187228D01*
X165097421Y-120185912D01*
X165083509Y-120184070D01*
X165070032Y-120181701D01*
X165056990Y-120178805D01*
X165044383Y-120175383D01*
X165032210Y-120171435D01*
X165020472Y-120166960D01*
X165009170Y-120161959D01*
X164998302Y-120156431D01*
X164987869Y-120150377D01*
X164977871Y-120143796D01*
X164968307Y-120136689D01*
X164959179Y-120129056D01*
X164950485Y-120120896D01*
X164942227Y-120112209D01*
X164936056Y-120104952D01*
X164930173Y-120097212D01*
X164924576Y-120088990D01*
X164919267Y-120080284D01*
X164914244Y-120071096D01*
X164909509Y-120061425D01*
X164905061Y-120051271D01*
X164900899Y-120040634D01*
X164897025Y-120029514D01*
X164893437Y-120017912D01*
X164890137Y-120005826D01*
X164887123Y-119993258D01*
X164884397Y-119980207D01*
X164881957Y-119966673D01*
X164879805Y-119952657D01*
X164877939Y-119938157D01*
X164876361Y-119923175D01*
X164875069Y-119907709D01*
X164874065Y-119891761D01*
X164873347Y-119875330D01*
X164872917Y-119858417D01*
X164872773Y-119841020D01*
X164872881Y-119823207D01*
X164873202Y-119805850D01*
X164873737Y-119788949D01*
X164874486Y-119772503D01*
X164875450Y-119756513D01*
X164876627Y-119740979D01*
X164878019Y-119725900D01*
X164879625Y-119711276D01*
X164881445Y-119697109D01*
X164883479Y-119683397D01*
X164885727Y-119670140D01*
X164888189Y-119657339D01*
X164890866Y-119644994D01*
X164893756Y-119633104D01*
X164896861Y-119621670D01*
X164900179Y-119610691D01*
X164903712Y-119600168D01*
X164907459Y-119590101D01*
X164911420Y-119580489D01*
X164915595Y-119571333D01*
X164919984Y-119562632D01*
X164924588Y-119554388D01*
X164930951Y-119544316D01*
X164937847Y-119534854D01*
X164945278Y-119526004D01*
X164953243Y-119517763D01*
X164961742Y-119510133D01*
X164970775Y-119503113D01*
X164980342Y-119496704D01*
X164990444Y-119490905D01*
X165001079Y-119485717D01*
X165012248Y-119481139D01*
X165023951Y-119477171D01*
X165036189Y-119473814D01*
X165048960Y-119471067D01*
X165062266Y-119468930D01*
X165076105Y-119467404D01*
X165090479Y-119466489D01*
X165105386Y-119466184D01*
X165122642Y-119466413D01*
X165139130Y-119467101D01*
X165154852Y-119468247D01*
X165169807Y-119469852D01*
X165183994Y-119471915D01*
X165197415Y-119474437D01*
X165210069Y-119477417D01*
X165221956Y-119480856D01*
X165233077Y-119484753D01*
X165243430Y-119489109D01*
X165253016Y-119493923D01*
X165261836Y-119499196D01*
X165269888Y-119504927D01*
X165277174Y-119511116D01*
X165283693Y-119517765D01*
X165289444Y-119524871D01*
X165294429Y-119532437D01*
X165298647Y-119540460D01*
X165302098Y-119548943D01*
X165304782Y-119557883D01*
X165306700Y-119567282D01*
X165307850Y-119577140D01*
X165308234Y-119587456D01*
X165308234Y-120175051D01*
X165308234Y-120175036D01*
X165292761Y-120177151D01*
X165579431Y-120793441D01*
X165579431Y-119612744D01*
X165579213Y-119599310D01*
X165578556Y-119586044D01*
X165577462Y-119572944D01*
X165575930Y-119560011D01*
X165573961Y-119547244D01*
X165571554Y-119534644D01*
X165568709Y-119522211D01*
X165565427Y-119509945D01*
X165561707Y-119497845D01*
X165557550Y-119485912D01*
X165552954Y-119474145D01*
X165547922Y-119462546D01*
X165542451Y-119451113D01*
X165536543Y-119439846D01*
X165530197Y-119428747D01*
X165523414Y-119417814D01*
X165516193Y-119407047D01*
X165508534Y-119396448D01*
X165500438Y-119386015D01*
X165491904Y-119375748D01*
X165482932Y-119365649D01*
X165473523Y-119355716D01*
X165463676Y-119345949D01*
X165455469Y-119338328D01*
X165446965Y-119330974D01*
X165438166Y-119323887D01*
X165429070Y-119317068D01*
X165419677Y-119310516D01*
X165409989Y-119304231D01*
X165400004Y-119298214D01*
X165389723Y-119292464D01*
X165379146Y-119286982D01*
X165368272Y-119281767D01*
X165357102Y-119276820D01*
X165345636Y-119272140D01*
X165333874Y-119267728D01*
X165321815Y-119263582D01*
X165309461Y-119259705D01*
X165296809Y-119256095D01*
X165283862Y-119252752D01*
X165270619Y-119249676D01*
X165257079Y-119246868D01*
X165243243Y-119244328D01*
X165229110Y-119242055D01*
X165214682Y-119240049D01*
X165199957Y-119238311D01*
X165184936Y-119236840D01*
X165169618Y-119235636D01*
X165154005Y-119234700D01*
X165138095Y-119234032D01*
X165121889Y-119233631D01*
X165105386Y-119233497D01*
X165091348Y-119233636D01*
X165077343Y-119234052D01*
X165063373Y-119234746D01*
X165049438Y-119235717D01*
X165035537Y-119236966D01*
X165021671Y-119238492D01*
X165007838Y-119240296D01*
X164994041Y-119242378D01*
X164982609Y-119244439D01*
X164970802Y-119247071D01*
X164958620Y-119250274D01*
X164946063Y-119254048D01*
X164933132Y-119258393D01*
X164919825Y-119263308D01*
X164906144Y-119268794D01*
X164892088Y-119274851D01*
X164877657Y-119281479D01*
X164862852Y-119288677D01*
X164850327Y-119295079D01*
X164838108Y-119301787D01*
X164826196Y-119308801D01*
X164814590Y-119316122D01*
X164803290Y-119323748D01*
X164792296Y-119331680D01*
X164781609Y-119339919D01*
X164771227Y-119348463D01*
X164761152Y-119357314D01*
X164751384Y-119366470D01*
X164741921Y-119375933D01*
X164732765Y-119385701D01*
X164725626Y-119393889D01*
X164718614Y-119402576D01*
X164711730Y-119411762D01*
X164704974Y-119421449D01*
X164698344Y-119431635D01*
X164691843Y-119442320D01*
X164685468Y-119453506D01*
X164679221Y-119465191D01*
X164673101Y-119477376D01*
X164667109Y-119490061D01*
X164661244Y-119503245D01*
X164655506Y-119516929D01*
X164649896Y-119531113D01*
X164644414Y-119545797D01*
X164639058Y-119560980D01*
X164635189Y-119572536D01*
X164631518Y-119584274D01*
X164628045Y-119596194D01*
X164624771Y-119608296D01*
X164621695Y-119620580D01*
X164618818Y-119633046D01*
X164616139Y-119645694D01*
X164613658Y-119658523D01*
X164611376Y-119671535D01*
X164609293Y-119684729D01*
X164607407Y-119698105D01*
X164605721Y-119711662D01*
X164604232Y-119725402D01*
X164602943Y-119739324D01*
X164601851Y-119753428D01*
X164600958Y-119767713D01*
X164600264Y-119782181D01*
X164599768Y-119796830D01*
X164599470Y-119811662D01*
X164599371Y-119826675D01*
X164599488Y-119842777D01*
X164599840Y-119858657D01*
X164600426Y-119874315D01*
X164601248Y-119889753D01*
X164602303Y-119904969D01*
X164603594Y-119919964D01*
X164605118Y-119934738D01*
X164606878Y-119949290D01*
X164608872Y-119963622D01*
X164611101Y-119977732D01*
X164613564Y-119991621D01*
X164616262Y-120005288D01*
X164619194Y-120018735D01*
X164622362Y-120031960D01*
X164625763Y-120044964D01*
X164629400Y-120057747D01*
X164633270Y-120070309D01*
X164637376Y-120082649D01*
X164641716Y-120094768D01*
X164646291Y-120106666D01*
X164651100Y-120118343D01*
X164656144Y-120129798D01*
X164661422Y-120141032D01*
X164666936Y-120152045D01*
X164672683Y-120162837D01*
X164678666Y-120173408D01*
X164684883Y-120183757D01*
X164691334Y-120193885D01*
X164698020Y-120203792D01*
X164704941Y-120213478D01*
X164712096Y-120222943D01*
X164719486Y-120232186D01*
X164727111Y-120241208D01*
X164734970Y-120250009D01*
X164743295Y-120258826D01*
X164751835Y-120267372D01*
X164760590Y-120275646D01*
X164769559Y-120283649D01*
X164778743Y-120291381D01*
X164788141Y-120298842D01*
X164797755Y-120306031D01*
X164807582Y-120312949D01*
X164817625Y-120319595D01*
X164827882Y-120325971D01*
X164838353Y-120332075D01*
X164849039Y-120337908D01*
X164859940Y-120343469D01*
X164871056Y-120348759D01*
X164882386Y-120353778D01*
X164893930Y-120358526D01*
X164905690Y-120363002D01*
X164917663Y-120367207D01*
X164929852Y-120371141D01*
X164942255Y-120374803D01*
X164954873Y-120378195D01*
X164967705Y-120381314D01*
X164980752Y-120384163D01*
X164994014Y-120386740D01*
X165007490Y-120389046D01*
X165021180Y-120391081D01*
X165035086Y-120392844D01*
X165049206Y-120394337D01*
X165063541Y-120395557D01*
X165078090Y-120396507D01*
X165092854Y-120397185D01*
X165107832Y-120397592D01*
X165123025Y-120397728D01*
X165136547Y-120397626D01*
X165150024Y-120397323D01*
X165163455Y-120396817D01*
X165176842Y-120396108D01*
X165190184Y-120395197D01*
X165203480Y-120394084D01*
X165216732Y-120392768D01*
X165229939Y-120391250D01*
X165243100Y-120389529D01*
X165256217Y-120387606D01*
X165269289Y-120385481D01*
X165282315Y-120383153D01*
X165295297Y-120380622D01*
X165308234Y-120377889D01*
X165308234Y-120793501D01*
X165579431Y-120793501D01*
X165579431Y-120793441D01*
X165579431Y-120793441D01*
G37*
G36*
X164233364Y-120243326D02*
X164080946Y-119625453D01*
X164083984Y-119638098D01*
X164086759Y-119651309D01*
X164089269Y-119665084D01*
X164091515Y-119679425D01*
X164093496Y-119694330D01*
X164095214Y-119709800D01*
X164096667Y-119725835D01*
X164097856Y-119742435D01*
X164098781Y-119759600D01*
X164099441Y-119777330D01*
X164099838Y-119795624D01*
X164099970Y-119814483D01*
X164099838Y-119833245D01*
X164099441Y-119851447D01*
X164098781Y-119869088D01*
X164097856Y-119886169D01*
X164096667Y-119902689D01*
X164095214Y-119918649D01*
X164093496Y-119934049D01*
X164091515Y-119948888D01*
X164089269Y-119963167D01*
X164086759Y-119976886D01*
X164083984Y-119990045D01*
X164080946Y-120002643D01*
X164077643Y-120014680D01*
X164074076Y-120026158D01*
X164070245Y-120037075D01*
X164066150Y-120047431D01*
X164061790Y-120057228D01*
X164057166Y-120066464D01*
X164052278Y-120075139D01*
X164047126Y-120083255D01*
X164041709Y-120090810D01*
X164036029Y-120097804D01*
X164028140Y-120106113D01*
X164019778Y-120113918D01*
X164010944Y-120121219D01*
X164001636Y-120128017D01*
X163991855Y-120134311D01*
X163981601Y-120140101D01*
X163970875Y-120145388D01*
X163959675Y-120150172D01*
X163948002Y-120154452D01*
X163935856Y-120158229D01*
X163923237Y-120161502D01*
X163910146Y-120164271D01*
X163896581Y-120166537D01*
X163882543Y-120168299D01*
X163868032Y-120169558D01*
X163853048Y-120170313D01*
X163837591Y-120170565D01*
X163822138Y-120170313D01*
X163807166Y-120169558D01*
X163792674Y-120168299D01*
X163778663Y-120166537D01*
X163765132Y-120164271D01*
X163752082Y-120161502D01*
X163739513Y-120158229D01*
X163727424Y-120154452D01*
X163715816Y-120150172D01*
X163704689Y-120145388D01*
X163694043Y-120140101D01*
X163683877Y-120134311D01*
X163674191Y-120128017D01*
X163664986Y-120121219D01*
X163656262Y-120113918D01*
X163648019Y-120106113D01*
X163640256Y-120097804D01*
X163634575Y-120090810D01*
X163629159Y-120083255D01*
X163624007Y-120075139D01*
X163619119Y-120066464D01*
X163614495Y-120057228D01*
X163610135Y-120047431D01*
X163606040Y-120037075D01*
X163602209Y-120026158D01*
X163598642Y-120014680D01*
X163595339Y-120002643D01*
X163592300Y-119990045D01*
X163589526Y-119976886D01*
X163587016Y-119963167D01*
X163584770Y-119948888D01*
X163582789Y-119934049D01*
X163581071Y-119918649D01*
X163579618Y-119902689D01*
X163578429Y-119886169D01*
X163577504Y-119869088D01*
X163576844Y-119851447D01*
X163576447Y-119833245D01*
X163576315Y-119814483D01*
X163576447Y-119795624D01*
X163576844Y-119777330D01*
X163577504Y-119759600D01*
X163578429Y-119742435D01*
X163579618Y-119725835D01*
X163581071Y-119709800D01*
X163582789Y-119694330D01*
X163584770Y-119679425D01*
X163587016Y-119665084D01*
X163589526Y-119651309D01*
X163592300Y-119638098D01*
X163595339Y-119625453D01*
X163598642Y-119613372D01*
X163602209Y-119601856D01*
X163606040Y-119590905D01*
X163610135Y-119580519D01*
X163614495Y-119570697D01*
X163619119Y-119561441D01*
X163624007Y-119552749D01*
X163629159Y-119544622D01*
X163634575Y-119537061D01*
X163640256Y-119530064D01*
X163648019Y-119521628D01*
X163656262Y-119513704D01*
X163664986Y-119506291D01*
X163674191Y-119499389D01*
X163683877Y-119492999D01*
X163694043Y-119487119D01*
X163704689Y-119481751D01*
X163715816Y-119476895D01*
X163727424Y-119472549D01*
X163739513Y-119468715D01*
X163752082Y-119465392D01*
X163765132Y-119462580D01*
X163778663Y-119460279D01*
X163792674Y-119458490D01*
X163807166Y-119457212D01*
X163822138Y-119456445D01*
X163837591Y-119456189D01*
X163853048Y-119456445D01*
X163868032Y-119457212D01*
X163882543Y-119458490D01*
X163896581Y-119460279D01*
X163910146Y-119462580D01*
X163923237Y-119465392D01*
X163935856Y-119468715D01*
X163948002Y-119472549D01*
X163959675Y-119476895D01*
X163970875Y-119481751D01*
X163981601Y-119487119D01*
X163991855Y-119492999D01*
X164001636Y-119499389D01*
X164010944Y-119506291D01*
X164019778Y-119513704D01*
X164028140Y-119521628D01*
X164036029Y-119530064D01*
X164041709Y-119537061D01*
X164047126Y-119544622D01*
X164052278Y-119552749D01*
X164057166Y-119561441D01*
X164061790Y-119570697D01*
X164066150Y-119580519D01*
X164070245Y-119590905D01*
X164074076Y-119601856D01*
X164077643Y-119613372D01*
X164080946Y-119625453D01*
X164233364Y-120243326D01*
X164241126Y-120234652D01*
X164248663Y-120225766D01*
X164255975Y-120216668D01*
X164263062Y-120207357D01*
X164269924Y-120197834D01*
X164276561Y-120188098D01*
X164282973Y-120178150D01*
X164289160Y-120167990D01*
X164295122Y-120157617D01*
X164300860Y-120147032D01*
X164306372Y-120136235D01*
X164311659Y-120125225D01*
X164316721Y-120114003D01*
X164321558Y-120102568D01*
X164326170Y-120090921D01*
X164330558Y-120079062D01*
X164334720Y-120066990D01*
X164338657Y-120054706D01*
X164342369Y-120042210D01*
X164345857Y-120029501D01*
X164349119Y-120016580D01*
X164352156Y-120003446D01*
X164354969Y-119990100D01*
X164357556Y-119976542D01*
X164359918Y-119962772D01*
X164362056Y-119948789D01*
X164363968Y-119934593D01*
X164365655Y-119920185D01*
X164367118Y-119905565D01*
X164368355Y-119890733D01*
X164369368Y-119875688D01*
X164370155Y-119860431D01*
X164370718Y-119844961D01*
X164371055Y-119829279D01*
X164371168Y-119813385D01*
X164371055Y-119797490D01*
X164370718Y-119781807D01*
X164370155Y-119766336D01*
X164369368Y-119751078D01*
X164368355Y-119736033D01*
X164367118Y-119721199D01*
X164365655Y-119706579D01*
X164363968Y-119692170D01*
X164362056Y-119677974D01*
X164359918Y-119663990D01*
X164357556Y-119650219D01*
X164354969Y-119636660D01*
X164352156Y-119623314D01*
X164349119Y-119610180D01*
X164345857Y-119597258D01*
X164342369Y-119584549D01*
X164338657Y-119572052D01*
X164334720Y-119559768D01*
X164330558Y-119547696D01*
X164326170Y-119535836D01*
X164321558Y-119524189D01*
X164316721Y-119512754D01*
X164311659Y-119501531D01*
X164306372Y-119490521D01*
X164300860Y-119479724D01*
X164295122Y-119469138D01*
X164289160Y-119458765D01*
X164282973Y-119448605D01*
X164276561Y-119438657D01*
X164269924Y-119428921D01*
X164263062Y-119419398D01*
X164255975Y-119410087D01*
X164248663Y-119400988D01*
X164241126Y-119392102D01*
X164233364Y-119383429D01*
X164224903Y-119374479D01*
X164216223Y-119365806D01*
X164207325Y-119357407D01*
X164198207Y-119349284D01*
X164188872Y-119341437D01*
X164179317Y-119333864D01*
X164169544Y-119326568D01*
X164159553Y-119319546D01*
X164149342Y-119312800D01*
X164138913Y-119306329D01*
X164128265Y-119300133D01*
X164117399Y-119294213D01*
X164106314Y-119288568D01*
X164095010Y-119283199D01*
X164083488Y-119278105D01*
X164071747Y-119273286D01*
X164059787Y-119268743D01*
X164047609Y-119264475D01*
X164035212Y-119260482D01*
X164022596Y-119256765D01*
X164009762Y-119253323D01*
X163996709Y-119250156D01*
X163983437Y-119247265D01*
X163969947Y-119244649D01*
X163956238Y-119242308D01*
X163942310Y-119240243D01*
X163928164Y-119238453D01*
X163913799Y-119236939D01*
X163899215Y-119235700D01*
X163884413Y-119234736D01*
X163869392Y-119234048D01*
X163854152Y-119233635D01*
X163838694Y-119233497D01*
X163823170Y-119233635D01*
X163807866Y-119234048D01*
X163792783Y-119234736D01*
X163777921Y-119235700D01*
X163763280Y-119236939D01*
X163748859Y-119238453D01*
X163734659Y-119240243D01*
X163720680Y-119242308D01*
X163706921Y-119244649D01*
X163693383Y-119247265D01*
X163680066Y-119250156D01*
X163666970Y-119253323D01*
X163654094Y-119256765D01*
X163641439Y-119260482D01*
X163629004Y-119264475D01*
X163616790Y-119268743D01*
X163604797Y-119273286D01*
X163593025Y-119278105D01*
X163581473Y-119283199D01*
X163570142Y-119288568D01*
X163559032Y-119294213D01*
X163548142Y-119300133D01*
X163537473Y-119306329D01*
X163527025Y-119312800D01*
X163516797Y-119319546D01*
X163506790Y-119326568D01*
X163497004Y-119333864D01*
X163487438Y-119341437D01*
X163478093Y-119349284D01*
X163468969Y-119357407D01*
X163460066Y-119365806D01*
X163451383Y-119374479D01*
X163442921Y-119383429D01*
X163435159Y-119392102D01*
X163427622Y-119400988D01*
X163420310Y-119410087D01*
X163413223Y-119419398D01*
X163406361Y-119428921D01*
X163399724Y-119438657D01*
X163393312Y-119448605D01*
X163387125Y-119458765D01*
X163381162Y-119469138D01*
X163375425Y-119479724D01*
X163369913Y-119490521D01*
X163364626Y-119501531D01*
X163359564Y-119512754D01*
X163354727Y-119524189D01*
X163350114Y-119535836D01*
X163345727Y-119547696D01*
X163341565Y-119559768D01*
X163337628Y-119572052D01*
X163333915Y-119584549D01*
X163330428Y-119597258D01*
X163327166Y-119610180D01*
X163324129Y-119623314D01*
X163321316Y-119636660D01*
X163318729Y-119650219D01*
X163316366Y-119663990D01*
X163314229Y-119677974D01*
X163312317Y-119692170D01*
X163310629Y-119706579D01*
X163309167Y-119721199D01*
X163307930Y-119736033D01*
X163306917Y-119751078D01*
X163306130Y-119766336D01*
X163305567Y-119781807D01*
X163305230Y-119797490D01*
X163305117Y-119813385D01*
X163305230Y-119829279D01*
X163305567Y-119844961D01*
X163306130Y-119860431D01*
X163306917Y-119875688D01*
X163307930Y-119890733D01*
X163309167Y-119905565D01*
X163310629Y-119920185D01*
X163312317Y-119934593D01*
X163314229Y-119948789D01*
X163316366Y-119962772D01*
X163318729Y-119976542D01*
X163321316Y-119990100D01*
X163324129Y-120003446D01*
X163327166Y-120016580D01*
X163330428Y-120029501D01*
X163333915Y-120042210D01*
X163337628Y-120054706D01*
X163341565Y-120066990D01*
X163345727Y-120079062D01*
X163350114Y-120090921D01*
X163354727Y-120102568D01*
X163359564Y-120114003D01*
X163364626Y-120125225D01*
X163369913Y-120136235D01*
X163375425Y-120147032D01*
X163381162Y-120157617D01*
X163387125Y-120167990D01*
X163393312Y-120178150D01*
X163399724Y-120188098D01*
X163406361Y-120197834D01*
X163413223Y-120207357D01*
X163420310Y-120216668D01*
X163427622Y-120225766D01*
X163435159Y-120234652D01*
X163442921Y-120243326D01*
X163451383Y-120252275D01*
X163460066Y-120260949D01*
X163468969Y-120269347D01*
X163478093Y-120277470D01*
X163487438Y-120285318D01*
X163497004Y-120292890D01*
X163506790Y-120300187D01*
X163516797Y-120307208D01*
X163527025Y-120313955D01*
X163537473Y-120320426D01*
X163548142Y-120326621D01*
X163559032Y-120332541D01*
X163570142Y-120338186D01*
X163581473Y-120343555D01*
X163593025Y-120348650D01*
X163604797Y-120353468D01*
X163616790Y-120358012D01*
X163629004Y-120362280D01*
X163641439Y-120366272D01*
X163654094Y-120369990D01*
X163666970Y-120373432D01*
X163680066Y-120376598D01*
X163693383Y-120379489D01*
X163706921Y-120382105D01*
X163720680Y-120384446D01*
X163734659Y-120386511D01*
X163748859Y-120388301D01*
X163763280Y-120389815D01*
X163777921Y-120391054D01*
X163792783Y-120392018D01*
X163807866Y-120392707D01*
X163823170Y-120393120D01*
X163838694Y-120393257D01*
X163854152Y-120393120D01*
X163869392Y-120392707D01*
X163884413Y-120392018D01*
X163899215Y-120391054D01*
X163913799Y-120389815D01*
X163928164Y-120388301D01*
X163942310Y-120386511D01*
X163956238Y-120384446D01*
X163969947Y-120382105D01*
X163983437Y-120379489D01*
X163996709Y-120376598D01*
X164009762Y-120373432D01*
X164022596Y-120369990D01*
X164035212Y-120366272D01*
X164047609Y-120362280D01*
X164059787Y-120358012D01*
X164071747Y-120353468D01*
X164083488Y-120348650D01*
X164095010Y-120343555D01*
X164106314Y-120338186D01*
X164117399Y-120332541D01*
X164128265Y-120326621D01*
X164138913Y-120320426D01*
X164149342Y-120313955D01*
X164159553Y-120307208D01*
X164169544Y-120300187D01*
X164179317Y-120292890D01*
X164188872Y-120285318D01*
X164198207Y-120277470D01*
X164207325Y-120269347D01*
X164216223Y-120260949D01*
X164224903Y-120252275D01*
X164233364Y-120243326D01*
X164233364Y-120243326D01*
G37*
G36*
X163014075Y-120375617D02*
X163014075Y-118820098D01*
X162742878Y-118820098D01*
X162742878Y-120375617D01*
X163014075Y-120375617D01*
X163014075Y-120375617D01*
G37*
G36*
X162498138Y-119248940D02*
X162210404Y-119248940D01*
X161957947Y-120034963D01*
X161709900Y-119248940D01*
X161423268Y-119248940D01*
X161852114Y-120403176D01*
X161858367Y-120419940D01*
X161864656Y-120436320D01*
X161870982Y-120452318D01*
X161877345Y-120467933D01*
X161883745Y-120483165D01*
X161890181Y-120498015D01*
X161896654Y-120512481D01*
X161903164Y-120526565D01*
X161909710Y-120540266D01*
X161916293Y-120553585D01*
X161922913Y-120566520D01*
X161929570Y-120579073D01*
X161936263Y-120591243D01*
X161942993Y-120603031D01*
X161949759Y-120614435D01*
X161956563Y-120625457D01*
X161963403Y-120636096D01*
X161970280Y-120646353D01*
X161977193Y-120656226D01*
X161984143Y-120665717D01*
X161991130Y-120674825D01*
X161998154Y-120683551D01*
X162005214Y-120691893D01*
X162012311Y-120699853D01*
X162019445Y-120707430D01*
X162026615Y-120714624D01*
X162033822Y-120721436D01*
X162041066Y-120727865D01*
X162048346Y-120733911D01*
X162060129Y-120743200D01*
X162071960Y-120751958D01*
X162083839Y-120760186D01*
X162095765Y-120767883D01*
X162107738Y-120775049D01*
X162119759Y-120781684D01*
X162131828Y-120787788D01*
X162143945Y-120793362D01*
X162156109Y-120798404D01*
X162168321Y-120802916D01*
X162180580Y-120806897D01*
X162192887Y-120810347D01*
X162205242Y-120813267D01*
X162217644Y-120815656D01*
X162230094Y-120817513D01*
X162242592Y-120818840D01*
X162255137Y-120819637D01*
X162267730Y-120819902D01*
X162280640Y-120819719D01*
X162293588Y-120819171D01*
X162306576Y-120818258D01*
X162319603Y-120816979D01*
X162332669Y-120815335D01*
X162345774Y-120813326D01*
X162358919Y-120810951D01*
X162372102Y-120808211D01*
X162385325Y-120805106D01*
X162398587Y-120801635D01*
X162411888Y-120797799D01*
X162425228Y-120793597D01*
X162438607Y-120789031D01*
X162438607Y-120563027D01*
X162425620Y-120568264D01*
X162412678Y-120572949D01*
X162399779Y-120577083D01*
X162386925Y-120580665D01*
X162374115Y-120583697D01*
X162361348Y-120586177D01*
X162348626Y-120588107D01*
X162335948Y-120589485D01*
X162323315Y-120590311D01*
X162310725Y-120590587D01*
X162302685Y-120590262D01*
X162294685Y-120589287D01*
X162286724Y-120587661D01*
X162278803Y-120585386D01*
X162270921Y-120582460D01*
X162263078Y-120578884D01*
X162255274Y-120574658D01*
X162247510Y-120569781D01*
X162239785Y-120564255D01*
X162232100Y-120558078D01*
X162224453Y-120551251D01*
X162216847Y-120543774D01*
X162209279Y-120535647D01*
X162201751Y-120526869D01*
X162194262Y-120517442D01*
X162186812Y-120507364D01*
X162179402Y-120496636D01*
X162172031Y-120485257D01*
X162164699Y-120473229D01*
X162157407Y-120460551D01*
X162150154Y-120447222D01*
X162142940Y-120433243D01*
X162135766Y-120418614D01*
X162128631Y-120403334D01*
X162121535Y-120387405D01*
X162114479Y-120370825D01*
X162107462Y-120353595D01*
X162100484Y-120335715D01*
X162093546Y-120317185D01*
X162498138Y-119248940D01*
X162498138Y-119248940D01*
G37*
G36*
X161266723Y-119582971D02*
X161266498Y-119568358D01*
X161265823Y-119554046D01*
X161264698Y-119540033D01*
X161263122Y-119526321D01*
X161261096Y-119512909D01*
X161258621Y-119499797D01*
X161255695Y-119486985D01*
X161252319Y-119474472D01*
X161248492Y-119462260D01*
X161244216Y-119450349D01*
X161239490Y-119438737D01*
X161234313Y-119427425D01*
X161228686Y-119416413D01*
X161222609Y-119405701D01*
X161216082Y-119395290D01*
X161209105Y-119385178D01*
X161201678Y-119375367D01*
X161193800Y-119365856D01*
X161185473Y-119356644D01*
X161176695Y-119347733D01*
X161167467Y-119339122D01*
X161157789Y-119330811D01*
X161147661Y-119322800D01*
X161137545Y-119315334D01*
X161127227Y-119308185D01*
X161116706Y-119301354D01*
X161105983Y-119294841D01*
X161095056Y-119288646D01*
X161083926Y-119282768D01*
X161072594Y-119277208D01*
X161061059Y-119271966D01*
X161049320Y-119267042D01*
X161037379Y-119262435D01*
X161025235Y-119258146D01*
X161012888Y-119254175D01*
X161000339Y-119250521D01*
X160987586Y-119247185D01*
X160974631Y-119244167D01*
X160961472Y-119241466D01*
X160948111Y-119239083D01*
X160934547Y-119237018D01*
X160920780Y-119235271D01*
X160906810Y-119233841D01*
X160892637Y-119232729D01*
X160878262Y-119231935D01*
X160863683Y-119231458D01*
X160848902Y-119231300D01*
X160834986Y-119231439D01*
X160821165Y-119231858D01*
X160807440Y-119232557D01*
X160793811Y-119233535D01*
X160780278Y-119234793D01*
X160766840Y-119236330D01*
X160753498Y-119238146D01*
X160740251Y-119240242D01*
X160727101Y-119242617D01*
X160714046Y-119245272D01*
X160701086Y-119248206D01*
X160688223Y-119251420D01*
X160675455Y-119254913D01*
X160662783Y-119258686D01*
X160650206Y-119262738D01*
X160637725Y-119267069D01*
X160625340Y-119271680D01*
X160613051Y-119276571D01*
X160600857Y-119281741D01*
X160588759Y-119287190D01*
X160576757Y-119292919D01*
X160564850Y-119298927D01*
X160553039Y-119305215D01*
X160541324Y-119311782D01*
X160541324Y-119517932D01*
X160552866Y-119512665D01*
X160564563Y-119507668D01*
X160576414Y-119502941D01*
X160588420Y-119498484D01*
X160600579Y-119494298D01*
X160612894Y-119490381D01*
X160625362Y-119486735D01*
X160637985Y-119483358D01*
X160650762Y-119480252D01*
X160663694Y-119477416D01*
X160676779Y-119474850D01*
X160690020Y-119472554D01*
X160703414Y-119470528D01*
X160716963Y-119468773D01*
X160730666Y-119467287D01*
X160744524Y-119466072D01*
X160758536Y-119465126D01*
X160772702Y-119464451D01*
X160787022Y-119464046D01*
X160801497Y-119463911D01*
X160819536Y-119464126D01*
X160836695Y-119464771D01*
X160852974Y-119465846D01*
X160868373Y-119467351D01*
X160882892Y-119469286D01*
X160896531Y-119471651D01*
X160909291Y-119474445D01*
X160921170Y-119477670D01*
X160932169Y-119481325D01*
X160942289Y-119485410D01*
X160951528Y-119489925D01*
X160959887Y-119494870D01*
X160967367Y-119500245D01*
X160973967Y-119506049D01*
X160979686Y-119512284D01*
X160984526Y-119518949D01*
X160988486Y-119526044D01*
X160991565Y-119533568D01*
X160993765Y-119541523D01*
X160995085Y-119549908D01*
X160995525Y-119558722D01*
X160994664Y-119570262D01*
X160992080Y-119581182D01*
X160987774Y-119591481D01*
X160981745Y-119601161D01*
X160973993Y-119610221D01*
X160964519Y-119618661D01*
X160953323Y-119626481D01*
X160940404Y-119633681D01*
X160930181Y-119638446D01*
X160919558Y-119643121D01*
X160908533Y-119647704D01*
X160897108Y-119652197D01*
X160885282Y-119656598D01*
X160873055Y-119660908D01*
X160860427Y-119665128D01*
X160847399Y-119669256D01*
X160833969Y-119673293D01*
X160820138Y-119677239D01*
X160805907Y-119681094D01*
X160792686Y-119684508D01*
X160779479Y-119688136D01*
X160766288Y-119691978D01*
X160753113Y-119696035D01*
X160739953Y-119700307D01*
X160726808Y-119704793D01*
X160713678Y-119709494D01*
X160700564Y-119714409D01*
X160687465Y-119719538D01*
X160674381Y-119724882D01*
X160661313Y-119730441D01*
X160648260Y-119736214D01*
X160637044Y-119741342D01*
X160626076Y-119746966D01*
X160615355Y-119753085D01*
X160604882Y-119759698D01*
X160594657Y-119766807D01*
X160584679Y-119774411D01*
X160574948Y-119782510D01*
X160565465Y-119791103D01*
X160556229Y-119800192D01*
X160547241Y-119809776D01*
X160538500Y-119819855D01*
X160530007Y-119830429D01*
X160521761Y-119841497D01*
X160513763Y-119853061D01*
X160507343Y-119862947D01*
X160501312Y-119873144D01*
X160495670Y-119883655D01*
X160490417Y-119894478D01*
X160485554Y-119905614D01*
X160481079Y-119917063D01*
X160476994Y-119928824D01*
X160473297Y-119940898D01*
X160469990Y-119953285D01*
X160467072Y-119965985D01*
X160464543Y-119978997D01*
X160462403Y-119992322D01*
X160460652Y-120005959D01*
X160459290Y-120019910D01*
X160458317Y-120034173D01*
X160457734Y-120048748D01*
X160457539Y-120063637D01*
X160457802Y-120077071D01*
X160458589Y-120090285D01*
X160459901Y-120103278D01*
X160461739Y-120116052D01*
X160464101Y-120128607D01*
X160466988Y-120140941D01*
X160470401Y-120153055D01*
X160474338Y-120164949D01*
X160478800Y-120176623D01*
X160483787Y-120188078D01*
X160489300Y-120199312D01*
X160495337Y-120210327D01*
X160501899Y-120221121D01*
X160508986Y-120231696D01*
X160516598Y-120242050D01*
X160524735Y-120252185D01*
X160533397Y-120262100D01*
X160542584Y-120271795D01*
X160552296Y-120281270D01*
X160562532Y-120290525D01*
X160573294Y-120299560D01*
X160582979Y-120307205D01*
X160592924Y-120314525D01*
X160603129Y-120321520D01*
X160613594Y-120328189D01*
X160624320Y-120334534D01*
X160635306Y-120340552D01*
X160646552Y-120346246D01*
X160658059Y-120351614D01*
X160669826Y-120356657D01*
X160681853Y-120361374D01*
X160694141Y-120365766D01*
X160706688Y-120369833D01*
X160719496Y-120373574D01*
X160732565Y-120376990D01*
X160745894Y-120380081D01*
X160759483Y-120382846D01*
X160773332Y-120385286D01*
X160787441Y-120387401D01*
X160801811Y-120389191D01*
X160816441Y-120390655D01*
X160831332Y-120391793D01*
X160846483Y-120392607D01*
X160861894Y-120393095D01*
X160877565Y-120393257D01*
X160891385Y-120393139D01*
X160905126Y-120392785D01*
X160918788Y-120392194D01*
X160932372Y-120391368D01*
X160945876Y-120390305D01*
X160959302Y-120389005D01*
X160972650Y-120387470D01*
X160985918Y-120385698D01*
X160999108Y-120383690D01*
X161012219Y-120381446D01*
X161025251Y-120378966D01*
X161038205Y-120376249D01*
X161051080Y-120373297D01*
X161063876Y-120370108D01*
X161076593Y-120366682D01*
X161089232Y-120363021D01*
X161101792Y-120359123D01*
X161114273Y-120354989D01*
X161126675Y-120350619D01*
X161138999Y-120346013D01*
X161151243Y-120341170D01*
X161163410Y-120336092D01*
X161175497Y-120330777D01*
X161187506Y-120325225D01*
X161199435Y-120319438D01*
X161211287Y-120313414D01*
X161223059Y-120307154D01*
X161234753Y-120300658D01*
X161234753Y-120059227D01*
X161222813Y-120067006D01*
X161210806Y-120074467D01*
X161198732Y-120081611D01*
X161186591Y-120088438D01*
X161174383Y-120094946D01*
X161162109Y-120101138D01*
X161149767Y-120107012D01*
X161137358Y-120112568D01*
X161124882Y-120117807D01*
X161112339Y-120122729D01*
X161099729Y-120127332D01*
X161087052Y-120131619D01*
X161074308Y-120135588D01*
X161061496Y-120139239D01*
X161048618Y-120142573D01*
X161035673Y-120145589D01*
X161022661Y-120148288D01*
X161009582Y-120150669D01*
X160996435Y-120152733D01*
X160983222Y-120154480D01*
X160969942Y-120155908D01*
X160956594Y-120157020D01*
X160943180Y-120157813D01*
X160929699Y-120158290D01*
X160916150Y-120158448D01*
X160897240Y-120158265D01*
X160879464Y-120157713D01*
X160862820Y-120156795D01*
X160847310Y-120155508D01*
X160832932Y-120153854D01*
X160819687Y-120151833D01*
X160807576Y-120149444D01*
X160796598Y-120146688D01*
X160786752Y-120143564D01*
X160778040Y-120140073D01*
X160770461Y-120136214D01*
X160764015Y-120131987D01*
X160755747Y-120124684D01*
X160748581Y-120116553D01*
X160742517Y-120107596D01*
X160737556Y-120097812D01*
X160733698Y-120087201D01*
X160730942Y-120075763D01*
X160729288Y-120063498D01*
X160728737Y-120050406D01*
X160729431Y-120039626D01*
X160731513Y-120029337D01*
X160734984Y-120019537D01*
X160739843Y-120010226D01*
X160746090Y-120001406D01*
X160753725Y-119993075D01*
X160762749Y-119985235D01*
X160773161Y-119977884D01*
X160784961Y-119971023D01*
X160795183Y-119965485D01*
X160805807Y-119960093D01*
X160816831Y-119954847D01*
X160828256Y-119949746D01*
X160840082Y-119944791D01*
X160852309Y-119939981D01*
X160864937Y-119935317D01*
X160877966Y-119930798D01*
X160891396Y-119926425D01*
X160905226Y-119922198D01*
X160919457Y-119918115D01*
X160932511Y-119914204D01*
X160945579Y-119910184D01*
X160958663Y-119906058D01*
X160971762Y-119901824D01*
X160984876Y-119897483D01*
X160998006Y-119893035D01*
X161011151Y-119888480D01*
X161024311Y-119883817D01*
X161037486Y-119879047D01*
X161050677Y-119874170D01*
X161063884Y-119869186D01*
X161077105Y-119864094D01*
X161089017Y-119859110D01*
X161100667Y-119853656D01*
X161112057Y-119847733D01*
X161123185Y-119841340D01*
X161134053Y-119834478D01*
X161144660Y-119827146D01*
X161155006Y-119819344D01*
X161165091Y-119811073D01*
X161174915Y-119802333D01*
X161184478Y-119793123D01*
X161193780Y-119783443D01*
X161202821Y-119773294D01*
X161211602Y-119762675D01*
X161218706Y-119752958D01*
X161225321Y-119742918D01*
X161231445Y-119732555D01*
X161237080Y-119721868D01*
X161242225Y-119710858D01*
X161246879Y-119699525D01*
X161251044Y-119687868D01*
X161254719Y-119675888D01*
X161257904Y-119663584D01*
X161260599Y-119650957D01*
X161262803Y-119638006D01*
X161264518Y-119624733D01*
X161265743Y-119611135D01*
X161266478Y-119597215D01*
X161266723Y-119582971D01*
X161266723Y-119582971D01*
G37*
G36*
X160286662Y-119481552D02*
X160286662Y-119248940D01*
X160097044Y-119248940D01*
X160097044Y-118914895D01*
X159825846Y-118914895D01*
X159825846Y-119248940D01*
X159559058Y-119248940D01*
X159559058Y-119481552D01*
X159825846Y-119481552D01*
X159825846Y-120037176D01*
X159825381Y-120054625D01*
X159823986Y-120070593D01*
X159821661Y-120085079D01*
X159818405Y-120098083D01*
X159814219Y-120109606D01*
X159809103Y-120119647D01*
X159803057Y-120128206D01*
X159796081Y-120135284D01*
X159788650Y-120140607D01*
X159780075Y-120145303D01*
X159770357Y-120149374D01*
X159759496Y-120152818D01*
X159747492Y-120155636D01*
X159734345Y-120157828D01*
X159720054Y-120159394D01*
X159704620Y-120160333D01*
X159688042Y-120160646D01*
X159673656Y-120160403D01*
X159659600Y-120159676D01*
X159645875Y-120158464D01*
X159632480Y-120156766D01*
X159619416Y-120154584D01*
X159606683Y-120151917D01*
X159594281Y-120148764D01*
X159582209Y-120145127D01*
X159570468Y-120141005D01*
X159559058Y-120136397D01*
X159559058Y-120360188D01*
X159571354Y-120365080D01*
X159583820Y-120369581D01*
X159596456Y-120373690D01*
X159609261Y-120377408D01*
X159622236Y-120380734D01*
X159635380Y-120383669D01*
X159648694Y-120386213D01*
X159662178Y-120388365D01*
X159675831Y-120390127D01*
X159689654Y-120391496D01*
X159703646Y-120392475D01*
X159717808Y-120393062D01*
X159732140Y-120393257D01*
X159737652Y-120393257D01*
X159752737Y-120393052D01*
X159767527Y-120392437D01*
X159782020Y-120391412D01*
X159796217Y-120389977D01*
X159810118Y-120388132D01*
X159823723Y-120385877D01*
X159837032Y-120383212D01*
X159850045Y-120380137D01*
X159862762Y-120376652D01*
X159875182Y-120372757D01*
X159887307Y-120368452D01*
X159899135Y-120363737D01*
X159910667Y-120358612D01*
X159921903Y-120353077D01*
X159932843Y-120347131D01*
X159943487Y-120340776D01*
X159953835Y-120334011D01*
X159963887Y-120326836D01*
X159973642Y-120319251D01*
X159983102Y-120311256D01*
X159992265Y-120302851D01*
X160001133Y-120294035D01*
X160009291Y-120285267D01*
X160017088Y-120276215D01*
X160024521Y-120266880D01*
X160031592Y-120257261D01*
X160038301Y-120247358D01*
X160044646Y-120237172D01*
X160050629Y-120226703D01*
X160056250Y-120215950D01*
X160061508Y-120204913D01*
X160066403Y-120193593D01*
X160070936Y-120181990D01*
X160075106Y-120170103D01*
X160078913Y-120157932D01*
X160082358Y-120145478D01*
X160085440Y-120132741D01*
X160088160Y-120119719D01*
X160090517Y-120106415D01*
X160092511Y-120092827D01*
X160094143Y-120078955D01*
X160095412Y-120064800D01*
X160096319Y-120050361D01*
X160096863Y-120035639D01*
X160097044Y-120020634D01*
X160097044Y-119481552D01*
X160286662Y-119481552D01*
X160286662Y-119481552D01*
X160286662Y-119481552D01*
G37*
G36*
X159345187Y-120007403D02*
X159077297Y-119973235D01*
X159077025Y-119985919D01*
X159076211Y-119998142D01*
X159074854Y-120009903D01*
X159072954Y-120021203D01*
X159070512Y-120032042D01*
X159067527Y-120042420D01*
X159063999Y-120052337D01*
X159059928Y-120061792D01*
X159055314Y-120070786D01*
X159050158Y-120079319D01*
X159044459Y-120087390D01*
X159038217Y-120095001D01*
X159031432Y-120102150D01*
X159024104Y-120108838D01*
X159016234Y-120115064D01*
X159007821Y-120120830D01*
X158998865Y-120126134D01*
X158989367Y-120130977D01*
X158979325Y-120135358D01*
X158968741Y-120139279D01*
X158957614Y-120142738D01*
X158945944Y-120145736D01*
X158933732Y-120148273D01*
X158920977Y-120150348D01*
X158907678Y-120151963D01*
X158893838Y-120153116D01*
X158879454Y-120153808D01*
X158864528Y-120154038D01*
X158862323Y-120154038D01*
X158847575Y-120153804D01*
X158833384Y-120153101D01*
X158819750Y-120151929D01*
X158806672Y-120150288D01*
X158794150Y-120148178D01*
X158782185Y-120145600D01*
X158770777Y-120142552D01*
X158759925Y-120139036D01*
X158749630Y-120135051D01*
X158739891Y-120130597D01*
X158730708Y-120125675D01*
X158722082Y-120120283D01*
X158714013Y-120114423D01*
X158706500Y-120108094D01*
X158699544Y-120101296D01*
X158693144Y-120094030D01*
X158687301Y-120086294D01*
X158682014Y-120078090D01*
X158677283Y-120069417D01*
X158673110Y-120060275D01*
X158669492Y-120050664D01*
X158666432Y-120040585D01*
X158663927Y-120030036D01*
X158661979Y-120019019D01*
X158660588Y-120007533D01*
X158659753Y-119995578D01*
X158659475Y-119983155D01*
X158659475Y-119840945D01*
X158675085Y-119838822D01*
X158690313Y-119836868D01*
X158705157Y-119835084D01*
X158719619Y-119833469D01*
X158733698Y-119832023D01*
X158747394Y-119830747D01*
X158760707Y-119829640D01*
X158773638Y-119828702D01*
X158786186Y-119827934D01*
X158798351Y-119827335D01*
X158810133Y-119826906D01*
X158821532Y-119826645D01*
X158838794Y-119826820D01*
X158855452Y-119827343D01*
X158871508Y-119828214D01*
X158886960Y-119829435D01*
X158901809Y-119831004D01*
X158916056Y-119832922D01*
X158929699Y-119835188D01*
X158942740Y-119837803D01*
X158955177Y-119840767D01*
X158967011Y-119844079D01*
X158978243Y-119847741D01*
X158988871Y-119851750D01*
X158998897Y-119856109D01*
X159008319Y-119860816D01*
X159017139Y-119865872D01*
X159025355Y-119871276D01*
X159032968Y-119877030D01*
X159039979Y-119883132D01*
X159046386Y-119889582D01*
X159052191Y-119896381D01*
X159057392Y-119903529D01*
X159061991Y-119911026D01*
X159065986Y-119918871D01*
X159069379Y-119927065D01*
X159072168Y-119935608D01*
X159074355Y-119944499D01*
X159075938Y-119953739D01*
X159076919Y-119963328D01*
X159077296Y-119973265D01*
X159077297Y-119973235D01*
X159345187Y-120007403D01*
X159344922Y-119993691D01*
X159344128Y-119979891D01*
X159342806Y-119966001D01*
X159340954Y-119952022D01*
X159338573Y-119937954D01*
X159336255Y-119927199D01*
X159333083Y-119915725D01*
X159329056Y-119903531D01*
X159324173Y-119890616D01*
X159318436Y-119876982D01*
X159311844Y-119862627D01*
X159304397Y-119847552D01*
X159297783Y-119835711D01*
X159290678Y-119824196D01*
X159283084Y-119813008D01*
X159274999Y-119802147D01*
X159266425Y-119791612D01*
X159257360Y-119781405D01*
X159247806Y-119771523D01*
X159237762Y-119761969D01*
X159227227Y-119752741D01*
X159218821Y-119746027D01*
X159209772Y-119739481D01*
X159200080Y-119733104D01*
X159189745Y-119726895D01*
X159178766Y-119720855D01*
X159167145Y-119714983D01*
X159154880Y-119709280D01*
X159141973Y-119703745D01*
X159128422Y-119698379D01*
X159114228Y-119693181D01*
X159099391Y-119688152D01*
X159083911Y-119683292D01*
X159072639Y-119679894D01*
X159061130Y-119676702D01*
X159049385Y-119673716D01*
X159037403Y-119670935D01*
X159025185Y-119668361D01*
X159012730Y-119665993D01*
X159000039Y-119663831D01*
X158987111Y-119661874D01*
X158973947Y-119660124D01*
X158960546Y-119658579D01*
X158946909Y-119657241D01*
X158933035Y-119656108D01*
X158918924Y-119655182D01*
X158904578Y-119654461D01*
X158889994Y-119653946D01*
X158875174Y-119653637D01*
X158860118Y-119653534D01*
X158847712Y-119653603D01*
X158835188Y-119653808D01*
X158822547Y-119654151D01*
X158809788Y-119654631D01*
X158796912Y-119655248D01*
X158783918Y-119656003D01*
X158770806Y-119656894D01*
X158757577Y-119657922D01*
X158744230Y-119659088D01*
X158730766Y-119660391D01*
X158717184Y-119661831D01*
X158703485Y-119663408D01*
X158689667Y-119665122D01*
X158675733Y-119666974D01*
X158661680Y-119668962D01*
X158661900Y-119656262D01*
X158662559Y-119643953D01*
X158663658Y-119632035D01*
X158665195Y-119620507D01*
X158667172Y-119609370D01*
X158669589Y-119598624D01*
X158672445Y-119588269D01*
X158675740Y-119578304D01*
X158679474Y-119568730D01*
X158683648Y-119559547D01*
X158688261Y-119550755D01*
X158693314Y-119542353D01*
X158698806Y-119534343D01*
X158704737Y-119526723D01*
X158711108Y-119519494D01*
X158717918Y-119512655D01*
X158725167Y-119506207D01*
X158732856Y-119500151D01*
X158740984Y-119494484D01*
X158749551Y-119489209D01*
X158758558Y-119484324D01*
X158768004Y-119479831D01*
X158777889Y-119475728D01*
X158788214Y-119472015D01*
X158798978Y-119468694D01*
X158810182Y-119465763D01*
X158821824Y-119463223D01*
X158833907Y-119461074D01*
X158846428Y-119459315D01*
X158859389Y-119457948D01*
X158872789Y-119456971D01*
X158886629Y-119456385D01*
X158900908Y-119456189D01*
X158915998Y-119456281D01*
X158930929Y-119456556D01*
X158945702Y-119457015D01*
X158960316Y-119457657D01*
X158974771Y-119458483D01*
X158989067Y-119459492D01*
X159003205Y-119460684D01*
X159017183Y-119462060D01*
X159031003Y-119463620D01*
X159044665Y-119465362D01*
X159058167Y-119467289D01*
X159071511Y-119469399D01*
X159084696Y-119471692D01*
X159097723Y-119474169D01*
X159110590Y-119476829D01*
X159123299Y-119479673D01*
X159135849Y-119482700D01*
X159148240Y-119485910D01*
X159160473Y-119489304D01*
X159172547Y-119492882D01*
X159184462Y-119496643D01*
X159196218Y-119500588D01*
X159207816Y-119504715D01*
X159219255Y-119509027D01*
X159230535Y-119513522D01*
X159230535Y-119294141D01*
X159218527Y-119289400D01*
X159206418Y-119284845D01*
X159194208Y-119280476D01*
X159181897Y-119276293D01*
X159169485Y-119272295D01*
X159156972Y-119268484D01*
X159144357Y-119264858D01*
X159131642Y-119261419D01*
X159118825Y-119258165D01*
X159105908Y-119255097D01*
X159092889Y-119252216D01*
X159079769Y-119249520D01*
X159066548Y-119247010D01*
X159053226Y-119244686D01*
X159039803Y-119242548D01*
X159026278Y-119240596D01*
X159012653Y-119238829D01*
X158998926Y-119237249D01*
X158985099Y-119235855D01*
X158971170Y-119234646D01*
X158957140Y-119233624D01*
X158943009Y-119232787D01*
X158928777Y-119232136D01*
X158914444Y-119231671D01*
X158900009Y-119231392D01*
X158885474Y-119231300D01*
X158869504Y-119231437D01*
X158853787Y-119231848D01*
X158838323Y-119232534D01*
X158823110Y-119233495D01*
X158808151Y-119234729D01*
X158793443Y-119236238D01*
X158778988Y-119238022D01*
X158764785Y-119240080D01*
X158750834Y-119242412D01*
X158737136Y-119245018D01*
X158723690Y-119247899D01*
X158710496Y-119251055D01*
X158697555Y-119254484D01*
X158684866Y-119258189D01*
X158672429Y-119262167D01*
X158660245Y-119266420D01*
X158648313Y-119270947D01*
X158636633Y-119275749D01*
X158625206Y-119280825D01*
X158614031Y-119286175D01*
X158603108Y-119291800D01*
X158592438Y-119297699D01*
X158582020Y-119303873D01*
X158571854Y-119310321D01*
X158561941Y-119317043D01*
X158552280Y-119324039D01*
X158542871Y-119331310D01*
X158533715Y-119338856D01*
X158524811Y-119346676D01*
X158516160Y-119354770D01*
X158507776Y-119363050D01*
X158499677Y-119371576D01*
X158491862Y-119380347D01*
X158484331Y-119389362D01*
X158477085Y-119398623D01*
X158470122Y-119408128D01*
X158463444Y-119417879D01*
X158457050Y-119427874D01*
X158450940Y-119438114D01*
X158445114Y-119448600D01*
X158439572Y-119459330D01*
X158434315Y-119470305D01*
X158429342Y-119481526D01*
X158424653Y-119492991D01*
X158420248Y-119504701D01*
X158416127Y-119516657D01*
X158412291Y-119528857D01*
X158408739Y-119541302D01*
X158405471Y-119553992D01*
X158402487Y-119566927D01*
X158399787Y-119580108D01*
X158397371Y-119593533D01*
X158395240Y-119607203D01*
X158393393Y-119621118D01*
X158391830Y-119635278D01*
X158390551Y-119649683D01*
X158389556Y-119664333D01*
X158388846Y-119679228D01*
X158388420Y-119694368D01*
X158388278Y-119709753D01*
X158388278Y-120014026D01*
X158388498Y-120027461D01*
X158389161Y-120040734D01*
X158390266Y-120053844D01*
X158391812Y-120066792D01*
X158393800Y-120079577D01*
X158396230Y-120092200D01*
X158399102Y-120104660D01*
X158402415Y-120116958D01*
X158406171Y-120129093D01*
X158410368Y-120141065D01*
X158415007Y-120152875D01*
X158420088Y-120164523D01*
X158425610Y-120176008D01*
X158431575Y-120187330D01*
X158437981Y-120198490D01*
X158444829Y-120209488D01*
X158452119Y-120220322D01*
X158459850Y-120230995D01*
X158468024Y-120241505D01*
X158476639Y-120251852D01*
X158485696Y-120262037D01*
X158495195Y-120272059D01*
X158505135Y-120281919D01*
X158513268Y-120289465D01*
X158521699Y-120296746D01*
X158530430Y-120303763D01*
X158539459Y-120310515D01*
X158548787Y-120317002D01*
X158558414Y-120323224D01*
X158568340Y-120329181D01*
X158578564Y-120334874D01*
X158589088Y-120340302D01*
X158599910Y-120345465D01*
X158611032Y-120350363D01*
X158622452Y-120354997D01*
X158634171Y-120359366D01*
X158646189Y-120363470D01*
X158658506Y-120367309D01*
X158671121Y-120370884D01*
X158684036Y-120374193D01*
X158697249Y-120377238D01*
X158710762Y-120380018D01*
X158724573Y-120382534D01*
X158738683Y-120384784D01*
X158753092Y-120386770D01*
X158767800Y-120388491D01*
X158782806Y-120389948D01*
X158798112Y-120391139D01*
X158813716Y-120392066D01*
X158829620Y-120392728D01*
X158845822Y-120393125D01*
X158862323Y-120393257D01*
X158878715Y-120393132D01*
X158894818Y-120392758D01*
X158910631Y-120392133D01*
X158926156Y-120391258D01*
X158941392Y-120390134D01*
X158956338Y-120388759D01*
X158970996Y-120387135D01*
X158985364Y-120385261D01*
X158999443Y-120383137D01*
X159013233Y-120380763D01*
X159026734Y-120378139D01*
X159039946Y-120375265D01*
X159052869Y-120372141D01*
X159065503Y-120368768D01*
X159077848Y-120365144D01*
X159089904Y-120361271D01*
X159101670Y-120357148D01*
X159113148Y-120352774D01*
X159124336Y-120348151D01*
X159135236Y-120343278D01*
X159145846Y-120338156D01*
X159156167Y-120332783D01*
X159166199Y-120327160D01*
X159175942Y-120321288D01*
X159185396Y-120315165D01*
X159194561Y-120308793D01*
X159203437Y-120302171D01*
X159212024Y-120295299D01*
X159220321Y-120288177D01*
X159228330Y-120280805D01*
X159238270Y-120270936D01*
X159247769Y-120260884D01*
X159256826Y-120250648D01*
X159265441Y-120240229D01*
X159273615Y-120229626D01*
X159281346Y-120218840D01*
X159288636Y-120207870D01*
X159295484Y-120196717D01*
X159301890Y-120185380D01*
X159307855Y-120173860D01*
X159313377Y-120162156D01*
X159318458Y-120150269D01*
X159323097Y-120138199D01*
X159327294Y-120125945D01*
X159331050Y-120113507D01*
X159334363Y-120100887D01*
X159337235Y-120088082D01*
X159339665Y-120075094D01*
X159341653Y-120061923D01*
X159343199Y-120048568D01*
X159344304Y-120035030D01*
X159344966Y-120021308D01*
X159345187Y-120007403D01*
X159345187Y-120007403D01*
X159345187Y-120007403D01*
G37*
G36*
X158150152Y-119813385D02*
X158150039Y-119797366D01*
X158149702Y-119781563D01*
X158149139Y-119765976D01*
X158148352Y-119750605D01*
X158147339Y-119735450D01*
X158146102Y-119720511D01*
X158144640Y-119705787D01*
X158142952Y-119691280D01*
X158141040Y-119676989D01*
X158138903Y-119662914D01*
X158136540Y-119649055D01*
X158133953Y-119635412D01*
X158131141Y-119621985D01*
X158128103Y-119608773D01*
X158124841Y-119595778D01*
X158121354Y-119582999D01*
X158117641Y-119570436D01*
X158113704Y-119558089D01*
X158109542Y-119545957D01*
X158105155Y-119534042D01*
X158100542Y-119522343D01*
X158095705Y-119510859D01*
X158090643Y-119499592D01*
X158085356Y-119488541D01*
X158079844Y-119477705D01*
X158074107Y-119467086D01*
X158068145Y-119456683D01*
X158061957Y-119446495D01*
X158055545Y-119436524D01*
X158048908Y-119426768D01*
X158042046Y-119417229D01*
X158034959Y-119407905D01*
X158027647Y-119398798D01*
X158020110Y-119389907D01*
X158012348Y-119381231D01*
X158003887Y-119372282D01*
X157995207Y-119363608D01*
X157986309Y-119355210D01*
X157977192Y-119347087D01*
X157967856Y-119339239D01*
X157958302Y-119331667D01*
X157948529Y-119324370D01*
X157938537Y-119317348D01*
X157928326Y-119310602D01*
X157917897Y-119304131D01*
X157907250Y-119297936D01*
X157896383Y-119292016D01*
X157885298Y-119286371D01*
X157873995Y-119281001D01*
X157862472Y-119275907D01*
X157850731Y-119271088D01*
X157838771Y-119266545D01*
X157826593Y-119262277D01*
X157814196Y-119258284D01*
X157801580Y-119254567D01*
X157788746Y-119251125D01*
X157775693Y-119247959D01*
X157762421Y-119245067D01*
X157748931Y-119242451D01*
X157735222Y-119240111D01*
X157721294Y-119238046D01*
X157707148Y-119236256D01*
X157692783Y-119234741D01*
X157678199Y-119233502D01*
X157663397Y-119232539D01*
X157648376Y-119231850D01*
X157633136Y-119231437D01*
X157617678Y-119231300D01*
X157603907Y-119231409D01*
X157590155Y-119231736D01*
X157576423Y-119232281D01*
X157562710Y-119233045D01*
X157549015Y-119234027D01*
X157535340Y-119235227D01*
X157521684Y-119236645D01*
X157508047Y-119238282D01*
X157494430Y-119240137D01*
X157480831Y-119242209D01*
X157467252Y-119244501D01*
X157453691Y-119247010D01*
X157440150Y-119249737D01*
X157426628Y-119252683D01*
X157413125Y-119255847D01*
X157399642Y-119259229D01*
X157386177Y-119262829D01*
X157372732Y-119266648D01*
X157359305Y-119270685D01*
X157345898Y-119274939D01*
X157332510Y-119279413D01*
X157319141Y-119284104D01*
X157305791Y-119289013D01*
X157292461Y-119294141D01*
X157292461Y-119520129D01*
X157305195Y-119515107D01*
X157317989Y-119510330D01*
X157330843Y-119505797D01*
X157343758Y-119501510D01*
X157356732Y-119497468D01*
X157369766Y-119493670D01*
X157382860Y-119490118D01*
X157396014Y-119486810D01*
X157409228Y-119483748D01*
X157422503Y-119480931D01*
X157435837Y-119478358D01*
X157449231Y-119476031D01*
X157462685Y-119473948D01*
X157476199Y-119472111D01*
X157489773Y-119470518D01*
X157503408Y-119469171D01*
X157517102Y-119468068D01*
X157530856Y-119467211D01*
X157544670Y-119466598D01*
X157558544Y-119466231D01*
X157572478Y-119466108D01*
X157588621Y-119466307D01*
X157604324Y-119466902D01*
X157619587Y-119467895D01*
X157634410Y-119469285D01*
X157648793Y-119471071D01*
X157662737Y-119473255D01*
X157676241Y-119475835D01*
X157689305Y-119478813D01*
X157701930Y-119482188D01*
X157714115Y-119485959D01*
X157725860Y-119490128D01*
X157737165Y-119494694D01*
X157748030Y-119499656D01*
X157758456Y-119505016D01*
X157768442Y-119510773D01*
X157777988Y-119516927D01*
X157787095Y-119523478D01*
X157795762Y-119530425D01*
X157803989Y-119537770D01*
X157810649Y-119544463D01*
X157816999Y-119551711D01*
X157823040Y-119559516D01*
X157828771Y-119567875D01*
X157834192Y-119576791D01*
X157839303Y-119586262D01*
X157844104Y-119596290D01*
X157848596Y-119606872D01*
X157852778Y-119618011D01*
X157856650Y-119629705D01*
X157860213Y-119641955D01*
X157863465Y-119654761D01*
X157866408Y-119668123D01*
X157869041Y-119682040D01*
X157871364Y-119696513D01*
X157873378Y-119711542D01*
X157875082Y-119727126D01*
X157876476Y-119743266D01*
X157877560Y-119759962D01*
X157878334Y-119777214D01*
X157878799Y-119795022D01*
X157878954Y-119813385D01*
X157878799Y-119831556D01*
X157878334Y-119849189D01*
X157877560Y-119866286D01*
X157876476Y-119882844D01*
X157875082Y-119898865D01*
X157873378Y-119914349D01*
X157871364Y-119929295D01*
X157869041Y-119943703D01*
X157866408Y-119957574D01*
X157863465Y-119970908D01*
X157860213Y-119983704D01*
X157856650Y-119995962D01*
X157852778Y-120007683D01*
X157848596Y-120018867D01*
X157844104Y-120029513D01*
X157839303Y-120039621D01*
X157834192Y-120049192D01*
X157828771Y-120058226D01*
X157823040Y-120066721D01*
X157816999Y-120074680D01*
X157810649Y-120082101D01*
X157803989Y-120088984D01*
X157795762Y-120096329D01*
X157787095Y-120103277D01*
X157777988Y-120109828D01*
X157768442Y-120115981D01*
X157758456Y-120121738D01*
X157748030Y-120127098D01*
X157737165Y-120132061D01*
X157725860Y-120136626D01*
X157714115Y-120140795D01*
X157701930Y-120144567D01*
X157689305Y-120147941D01*
X157676241Y-120150919D01*
X157662737Y-120153500D01*
X157648793Y-120155683D01*
X157634410Y-120157470D01*
X157619587Y-120158859D01*
X157604324Y-120159852D01*
X157588621Y-120160447D01*
X157572478Y-120160646D01*
X157559144Y-120160518D01*
X157545810Y-120160136D01*
X157532476Y-120159499D01*
X157519142Y-120158606D01*
X157505807Y-120157459D01*
X157492473Y-120156057D01*
X157479139Y-120154399D01*
X157465805Y-120152487D01*
X157452471Y-120150320D01*
X157439137Y-120147898D01*
X157425802Y-120145221D01*
X157412468Y-120142289D01*
X157399134Y-120139102D01*
X157385800Y-120135660D01*
X157372466Y-120131963D01*
X157359132Y-120128011D01*
X157345798Y-120123804D01*
X157332463Y-120119342D01*
X157319129Y-120114626D01*
X157305795Y-120109654D01*
X157292461Y-120104427D01*
X157292461Y-120330416D01*
X157305791Y-120335544D01*
X157319141Y-120340453D01*
X157332510Y-120345144D01*
X157345898Y-120349617D01*
X157359305Y-120353872D01*
X157372732Y-120357909D01*
X157386177Y-120361727D01*
X157399642Y-120365328D01*
X157413125Y-120368710D01*
X157426628Y-120371874D01*
X157440150Y-120374819D01*
X157453691Y-120377547D01*
X157467252Y-120380056D01*
X157480831Y-120382347D01*
X157494430Y-120384420D01*
X157508047Y-120386275D01*
X157521684Y-120387911D01*
X157535340Y-120389330D01*
X157549015Y-120390530D01*
X157562710Y-120391512D01*
X157576423Y-120392275D01*
X157590155Y-120392821D01*
X157603907Y-120393148D01*
X157617678Y-120393257D01*
X157633136Y-120393120D01*
X157648376Y-120392707D01*
X157663397Y-120392018D01*
X157678199Y-120391054D01*
X157692783Y-120389815D01*
X157707148Y-120388301D01*
X157721294Y-120386511D01*
X157735222Y-120384446D01*
X157748931Y-120382105D01*
X157762421Y-120379489D01*
X157775693Y-120376598D01*
X157788746Y-120373432D01*
X157801580Y-120369990D01*
X157814196Y-120366272D01*
X157826593Y-120362280D01*
X157838771Y-120358012D01*
X157850731Y-120353468D01*
X157862472Y-120348650D01*
X157873995Y-120343555D01*
X157885298Y-120338186D01*
X157896383Y-120332541D01*
X157907250Y-120326621D01*
X157917897Y-120320426D01*
X157928326Y-120313955D01*
X157938537Y-120307208D01*
X157948529Y-120300187D01*
X157958302Y-120292890D01*
X157967856Y-120285318D01*
X157977192Y-120277470D01*
X157986309Y-120269347D01*
X157995207Y-120260949D01*
X158003887Y-120252275D01*
X158012348Y-120243326D01*
X158020110Y-120234652D01*
X158027647Y-120225766D01*
X158034959Y-120216668D01*
X158042046Y-120207357D01*
X158048908Y-120197834D01*
X158055545Y-120188098D01*
X158061957Y-120178150D01*
X158068145Y-120167990D01*
X158074107Y-120157617D01*
X158079844Y-120147032D01*
X158085356Y-120136235D01*
X158090643Y-120125225D01*
X158095705Y-120114003D01*
X158100542Y-120102568D01*
X158105155Y-120090921D01*
X158109542Y-120079062D01*
X158113704Y-120066990D01*
X158117641Y-120054706D01*
X158121354Y-120042210D01*
X158124841Y-120029501D01*
X158128103Y-120016580D01*
X158131141Y-120003446D01*
X158133953Y-119990100D01*
X158136540Y-119976542D01*
X158138903Y-119962772D01*
X158141040Y-119948789D01*
X158142952Y-119934593D01*
X158144640Y-119920185D01*
X158146102Y-119905565D01*
X158147339Y-119890733D01*
X158148352Y-119875688D01*
X158149139Y-119860431D01*
X158149702Y-119844961D01*
X158150039Y-119829279D01*
X158150152Y-119813385D01*
X158150152Y-119813385D01*
G37*
G36*
X157042209Y-120375617D02*
X157042209Y-118826706D01*
X156771011Y-118826706D01*
X156771011Y-119662354D01*
X156391775Y-119248940D01*
X156032383Y-119248940D01*
X156522964Y-119750543D01*
X155980569Y-120375617D01*
X156323424Y-120375617D01*
X156696046Y-119931346D01*
X156771011Y-120007403D01*
X156771011Y-120375617D01*
X157042209Y-120375617D01*
X157042209Y-120375617D01*
G37*
G36*
X165578753Y-104060455D02*
X165085721Y-104289791D01*
X165087266Y-104301936D01*
X165088664Y-104313848D01*
X165089915Y-104325528D01*
X165091019Y-104336975D01*
X165091976Y-104348189D01*
X165092785Y-104359171D01*
X165093448Y-104369919D01*
X165093963Y-104380435D01*
X165094331Y-104390719D01*
X165094551Y-104400769D01*
X165094625Y-104410587D01*
X165094414Y-104422760D01*
X165093783Y-104434585D01*
X165092730Y-104446063D01*
X165091256Y-104457192D01*
X165089360Y-104467974D01*
X165087044Y-104478408D01*
X165084307Y-104488494D01*
X165081148Y-104498232D01*
X165077568Y-104507622D01*
X165073567Y-104516664D01*
X165069145Y-104525359D01*
X165064301Y-104533705D01*
X165059037Y-104541704D01*
X165053351Y-104549354D01*
X165047244Y-104556657D01*
X165040716Y-104563612D01*
X165033767Y-104570219D01*
X165027962Y-104575155D01*
X165021770Y-104579862D01*
X165015192Y-104584339D01*
X165008227Y-104588586D01*
X165000877Y-104592604D01*
X164993140Y-104596393D01*
X164985017Y-104599952D01*
X164976507Y-104603281D01*
X164967611Y-104606380D01*
X164958329Y-104609250D01*
X164948661Y-104611891D01*
X164938607Y-104614301D01*
X164928166Y-104616483D01*
X164917339Y-104618434D01*
X164906125Y-104620156D01*
X164894526Y-104621648D01*
X164882540Y-104622911D01*
X164870167Y-104623944D01*
X164857409Y-104624748D01*
X164844264Y-104625322D01*
X164830733Y-104625666D01*
X164816816Y-104625781D01*
X164802566Y-104625696D01*
X164788680Y-104625439D01*
X164775159Y-104625010D01*
X164762003Y-104624411D01*
X164749211Y-104623640D01*
X164736783Y-104622698D01*
X164724720Y-104621585D01*
X164713021Y-104620300D01*
X164701687Y-104618844D01*
X164690717Y-104617217D01*
X164680112Y-104615418D01*
X164669871Y-104613449D01*
X164659995Y-104611307D01*
X164650483Y-104608995D01*
X164641336Y-104606511D01*
X164632553Y-104603857D01*
X164624135Y-104601030D01*
X164616081Y-104598033D01*
X164608391Y-104594864D01*
X164601066Y-104591524D01*
X164594106Y-104588012D01*
X164587510Y-104584330D01*
X164579453Y-104579240D01*
X164571884Y-104573722D01*
X164564803Y-104567777D01*
X164558210Y-104561405D01*
X164552106Y-104554606D01*
X164546491Y-104547380D01*
X164541363Y-104539726D01*
X164536724Y-104531645D01*
X164532573Y-104523137D01*
X164528911Y-104514201D01*
X164525737Y-104504839D01*
X164523051Y-104495049D01*
X164520854Y-104484832D01*
X164519144Y-104474187D01*
X164517924Y-104463116D01*
X164517191Y-104451617D01*
X164516947Y-104439691D01*
X164517130Y-104425887D01*
X164517681Y-104412696D01*
X164518598Y-104400118D01*
X164519881Y-104388155D01*
X164521532Y-104376804D01*
X164523549Y-104366068D01*
X164525933Y-104355945D01*
X164528684Y-104346435D01*
X164531802Y-104337539D01*
X164535287Y-104329256D01*
X164539138Y-104321587D01*
X164543356Y-104314532D01*
X164547941Y-104308089D01*
X164552893Y-104302261D01*
X164558212Y-104297046D01*
X164563897Y-104292445D01*
X164569949Y-104288457D01*
X164576368Y-104285082D01*
X164583154Y-104282321D01*
X164590307Y-104280174D01*
X164597826Y-104278640D01*
X164605712Y-104277720D01*
X164613965Y-104277413D01*
X165084040Y-104277413D01*
X165084028Y-104277413D01*
X165085721Y-104289791D01*
X165578753Y-104060455D01*
X164634195Y-104060455D01*
X164623448Y-104060630D01*
X164612835Y-104061155D01*
X164602355Y-104062030D01*
X164592009Y-104063256D01*
X164581795Y-104064831D01*
X164571716Y-104066757D01*
X164561769Y-104069033D01*
X164551956Y-104071658D01*
X164542276Y-104074634D01*
X164532730Y-104077960D01*
X164523316Y-104081636D01*
X164514037Y-104085663D01*
X164504890Y-104090039D01*
X164495877Y-104094766D01*
X164486997Y-104099842D01*
X164478251Y-104105269D01*
X164469638Y-104111046D01*
X164461158Y-104117173D01*
X164452812Y-104123650D01*
X164444599Y-104130477D01*
X164436519Y-104137654D01*
X164428573Y-104145181D01*
X164420760Y-104153059D01*
X164414662Y-104159625D01*
X164408779Y-104166428D01*
X164403109Y-104173467D01*
X164397654Y-104180744D01*
X164392412Y-104188258D01*
X164387385Y-104196009D01*
X164382571Y-104203997D01*
X164377972Y-104212222D01*
X164373586Y-104220683D01*
X164369414Y-104229382D01*
X164365456Y-104238318D01*
X164361712Y-104247491D01*
X164358182Y-104256901D01*
X164354866Y-104266548D01*
X164351764Y-104276432D01*
X164348876Y-104286552D01*
X164346201Y-104296910D01*
X164343741Y-104307505D01*
X164341495Y-104318337D01*
X164339462Y-104329406D01*
X164337644Y-104340712D01*
X164336039Y-104352255D01*
X164334649Y-104364035D01*
X164333472Y-104376051D01*
X164332509Y-104388305D01*
X164331760Y-104400796D01*
X164331226Y-104413524D01*
X164330905Y-104426489D01*
X164330798Y-104439691D01*
X164330909Y-104450922D01*
X164331242Y-104462125D01*
X164331797Y-104473301D01*
X164332574Y-104484450D01*
X164333573Y-104495570D01*
X164334794Y-104506664D01*
X164336237Y-104517729D01*
X164337902Y-104528767D01*
X164339551Y-104537913D01*
X164341657Y-104547359D01*
X164344220Y-104557104D01*
X164347239Y-104567150D01*
X164350714Y-104577495D01*
X164354647Y-104588140D01*
X164359035Y-104599085D01*
X164363881Y-104610330D01*
X164369183Y-104621874D01*
X164374942Y-104633719D01*
X164380063Y-104643739D01*
X164385430Y-104653513D01*
X164391041Y-104663043D01*
X164396897Y-104672328D01*
X164402998Y-104681368D01*
X164409344Y-104690163D01*
X164415935Y-104698713D01*
X164422770Y-104707018D01*
X164429851Y-104715078D01*
X164437176Y-104722893D01*
X164444746Y-104730463D01*
X164452561Y-104737788D01*
X164459111Y-104743499D01*
X164466060Y-104749108D01*
X164473410Y-104754616D01*
X164481159Y-104760021D01*
X164489308Y-104765324D01*
X164497856Y-104770526D01*
X164506805Y-104775626D01*
X164516153Y-104780623D01*
X164525901Y-104785519D01*
X164536049Y-104790313D01*
X164546596Y-104795005D01*
X164557544Y-104799595D01*
X164568891Y-104804083D01*
X164580638Y-104808469D01*
X164592784Y-104812753D01*
X164602029Y-104815849D01*
X164611419Y-104818786D01*
X164620955Y-104821564D01*
X164630637Y-104824183D01*
X164640464Y-104826644D01*
X164650437Y-104828946D01*
X164660555Y-104831089D01*
X164670819Y-104833073D01*
X164681228Y-104834899D01*
X164691783Y-104836566D01*
X164702484Y-104838074D01*
X164713330Y-104839423D01*
X164724322Y-104840614D01*
X164735459Y-104841646D01*
X164746742Y-104842519D01*
X164758171Y-104843233D01*
X164769745Y-104843789D01*
X164781464Y-104844186D01*
X164793330Y-104844424D01*
X164805340Y-104844503D01*
X164818221Y-104844410D01*
X164830925Y-104844128D01*
X164843452Y-104843659D01*
X164855802Y-104843002D01*
X164867975Y-104842157D01*
X164879971Y-104841125D01*
X164891790Y-104839905D01*
X164903432Y-104838498D01*
X164914897Y-104836902D01*
X164926185Y-104835119D01*
X164937297Y-104833149D01*
X164948231Y-104830990D01*
X164958988Y-104828644D01*
X164969568Y-104826111D01*
X164979971Y-104823389D01*
X164990198Y-104820480D01*
X165000247Y-104817384D01*
X165010119Y-104814099D01*
X165019814Y-104810627D01*
X165029333Y-104806967D01*
X165038674Y-104803120D01*
X165047839Y-104799085D01*
X165056826Y-104794862D01*
X165065636Y-104790452D01*
X165074270Y-104785853D01*
X165082726Y-104781068D01*
X165091006Y-104776094D01*
X165099108Y-104770933D01*
X165107034Y-104765584D01*
X165114783Y-104760047D01*
X165122354Y-104754323D01*
X165129749Y-104748411D01*
X165136966Y-104742312D01*
X165144007Y-104736024D01*
X165151061Y-104729364D01*
X165157897Y-104722532D01*
X165164517Y-104715528D01*
X165170919Y-104708353D01*
X165177105Y-104701006D01*
X165183073Y-104693487D01*
X165188825Y-104685796D01*
X165194359Y-104677934D01*
X165199676Y-104669900D01*
X165204777Y-104661695D01*
X165209660Y-104653317D01*
X165214326Y-104644769D01*
X165218775Y-104636048D01*
X165223007Y-104627156D01*
X165227023Y-104618092D01*
X165230821Y-104608856D01*
X165234402Y-104599448D01*
X165237766Y-104589869D01*
X165240913Y-104580119D01*
X165243843Y-104570196D01*
X165246556Y-104560102D01*
X165249052Y-104549836D01*
X165251330Y-104539398D01*
X165253392Y-104528789D01*
X165255237Y-104518008D01*
X165256865Y-104507056D01*
X165258276Y-104495931D01*
X165259469Y-104484635D01*
X165260446Y-104473168D01*
X165261205Y-104461528D01*
X165261748Y-104449717D01*
X165262074Y-104437734D01*
X165262182Y-104425580D01*
X165262101Y-104414762D01*
X165261858Y-104403981D01*
X165261453Y-104393236D01*
X165260887Y-104382527D01*
X165260158Y-104371853D01*
X165259267Y-104361216D01*
X165258214Y-104350615D01*
X165257000Y-104340049D01*
X165255623Y-104329520D01*
X165254085Y-104319027D01*
X165252384Y-104308569D01*
X165250522Y-104298148D01*
X165248498Y-104287762D01*
X165246311Y-104277413D01*
X165578801Y-104277413D01*
X165578801Y-104060455D01*
X165578753Y-104060455D01*
X165578753Y-104060455D01*
G37*
G36*
X165138661Y-105137309D02*
X164644362Y-105259243D01*
X164654479Y-105256812D01*
X164665047Y-105254593D01*
X164676068Y-105252585D01*
X164687540Y-105250788D01*
X164699464Y-105249203D01*
X164711840Y-105247829D01*
X164724668Y-105246666D01*
X164737948Y-105245715D01*
X164751680Y-105244975D01*
X164765864Y-105244447D01*
X164780499Y-105244130D01*
X164795587Y-105244024D01*
X164810596Y-105244130D01*
X164825157Y-105244447D01*
X164839270Y-105244975D01*
X164852935Y-105245715D01*
X164866151Y-105246666D01*
X164878919Y-105247829D01*
X164891239Y-105249203D01*
X164903111Y-105250788D01*
X164914534Y-105252585D01*
X164925509Y-105254593D01*
X164936036Y-105256812D01*
X164946114Y-105259243D01*
X164955744Y-105261885D01*
X164964926Y-105264739D01*
X164973660Y-105267804D01*
X164981945Y-105271080D01*
X164989782Y-105274568D01*
X164997171Y-105278267D01*
X165004112Y-105282177D01*
X165010604Y-105286299D01*
X165016648Y-105290632D01*
X165022244Y-105295177D01*
X165028890Y-105301488D01*
X165035134Y-105308177D01*
X165040975Y-105315245D01*
X165046413Y-105322691D01*
X165051449Y-105330516D01*
X165056081Y-105338719D01*
X165060311Y-105347300D01*
X165064138Y-105356260D01*
X165067562Y-105365598D01*
X165070583Y-105375315D01*
X165073201Y-105385410D01*
X165075417Y-105395884D01*
X165077230Y-105406735D01*
X165078639Y-105417966D01*
X165079646Y-105429574D01*
X165080251Y-105441561D01*
X165080452Y-105453927D01*
X165080251Y-105466290D01*
X165079646Y-105478267D01*
X165078639Y-105489861D01*
X165077230Y-105501070D01*
X165075417Y-105511894D01*
X165073201Y-105522334D01*
X165070583Y-105532390D01*
X165067562Y-105542060D01*
X165064138Y-105551347D01*
X165060311Y-105560249D01*
X165056081Y-105568766D01*
X165051449Y-105576899D01*
X165046413Y-105584647D01*
X165040975Y-105592011D01*
X165035134Y-105598990D01*
X165028890Y-105605585D01*
X165022244Y-105611795D01*
X165016648Y-105616340D01*
X165010604Y-105620673D01*
X165004112Y-105624795D01*
X164997171Y-105628705D01*
X164989782Y-105632404D01*
X164981945Y-105635892D01*
X164973660Y-105639168D01*
X164964926Y-105642233D01*
X164955744Y-105645087D01*
X164946114Y-105647729D01*
X164936036Y-105650160D01*
X164925509Y-105652379D01*
X164914534Y-105654387D01*
X164903111Y-105656184D01*
X164891239Y-105657769D01*
X164878919Y-105659143D01*
X164866151Y-105660306D01*
X164852935Y-105661257D01*
X164839270Y-105661997D01*
X164825157Y-105662525D01*
X164810596Y-105662842D01*
X164795587Y-105662948D01*
X164780499Y-105662842D01*
X164765864Y-105662525D01*
X164751680Y-105661997D01*
X164737948Y-105661257D01*
X164724668Y-105660306D01*
X164711840Y-105659143D01*
X164699464Y-105657769D01*
X164687540Y-105656184D01*
X164676068Y-105654387D01*
X164665047Y-105652379D01*
X164654479Y-105650160D01*
X164644362Y-105647729D01*
X164634697Y-105645087D01*
X164625485Y-105642233D01*
X164616724Y-105639168D01*
X164608415Y-105635892D01*
X164600558Y-105632404D01*
X164593153Y-105628705D01*
X164586199Y-105624795D01*
X164579698Y-105620673D01*
X164573649Y-105616340D01*
X164568051Y-105611795D01*
X164561303Y-105605585D01*
X164554963Y-105598990D01*
X164549033Y-105592011D01*
X164543511Y-105584647D01*
X164538399Y-105576899D01*
X164533695Y-105568766D01*
X164529401Y-105560249D01*
X164525516Y-105551347D01*
X164522039Y-105542060D01*
X164518972Y-105532390D01*
X164516313Y-105522334D01*
X164514064Y-105511894D01*
X164512223Y-105501070D01*
X164510792Y-105489861D01*
X164509769Y-105478267D01*
X164509156Y-105466290D01*
X164508951Y-105453927D01*
X164509156Y-105441561D01*
X164509769Y-105429574D01*
X164510792Y-105417966D01*
X164512223Y-105406735D01*
X164514064Y-105395884D01*
X164516313Y-105385410D01*
X164518972Y-105375315D01*
X164522039Y-105365598D01*
X164525516Y-105356260D01*
X164529401Y-105347300D01*
X164533695Y-105338719D01*
X164538399Y-105330516D01*
X164543511Y-105322691D01*
X164549033Y-105315245D01*
X164554963Y-105308177D01*
X164561303Y-105301488D01*
X164568051Y-105295177D01*
X164573649Y-105290632D01*
X164579698Y-105286299D01*
X164586199Y-105282177D01*
X164593153Y-105278267D01*
X164600558Y-105274568D01*
X164608415Y-105271080D01*
X164616724Y-105267804D01*
X164625485Y-105264739D01*
X164634697Y-105261885D01*
X164644362Y-105259243D01*
X165138661Y-105137309D01*
X165131722Y-105131099D01*
X165124613Y-105125070D01*
X165117334Y-105119220D01*
X165109885Y-105113550D01*
X165102267Y-105108061D01*
X165094478Y-105102751D01*
X165086520Y-105097621D01*
X165078392Y-105092672D01*
X165070094Y-105087902D01*
X165061626Y-105083312D01*
X165052988Y-105078903D01*
X165044180Y-105074673D01*
X165035202Y-105070623D01*
X165026054Y-105066753D01*
X165016737Y-105063064D01*
X165007250Y-105059554D01*
X164997592Y-105056224D01*
X164987765Y-105053074D01*
X164977768Y-105050104D01*
X164967601Y-105047315D01*
X164957264Y-105044705D01*
X164946757Y-105042275D01*
X164936080Y-105040025D01*
X164925234Y-105037955D01*
X164914217Y-105036065D01*
X164903031Y-105034355D01*
X164891675Y-105032826D01*
X164880148Y-105031476D01*
X164868452Y-105030306D01*
X164856586Y-105029316D01*
X164844550Y-105028506D01*
X164832345Y-105027876D01*
X164819969Y-105027426D01*
X164807423Y-105027156D01*
X164794708Y-105027066D01*
X164781992Y-105027156D01*
X164769445Y-105027426D01*
X164757069Y-105027876D01*
X164744863Y-105028506D01*
X164732826Y-105029316D01*
X164720960Y-105030306D01*
X164709263Y-105031476D01*
X164697736Y-105032826D01*
X164686379Y-105034355D01*
X164675192Y-105036065D01*
X164664175Y-105037955D01*
X164653328Y-105040025D01*
X164642651Y-105042275D01*
X164632144Y-105044705D01*
X164621807Y-105047315D01*
X164611639Y-105050104D01*
X164601642Y-105053074D01*
X164591814Y-105056224D01*
X164582156Y-105059554D01*
X164572669Y-105063064D01*
X164563351Y-105066753D01*
X164554203Y-105070623D01*
X164545225Y-105074673D01*
X164536417Y-105078903D01*
X164527779Y-105083312D01*
X164519311Y-105087902D01*
X164511012Y-105092672D01*
X164502884Y-105097621D01*
X164494925Y-105102751D01*
X164487137Y-105108061D01*
X164479518Y-105113550D01*
X164472070Y-105119220D01*
X164464791Y-105125070D01*
X164457682Y-105131099D01*
X164450743Y-105137309D01*
X164443584Y-105144078D01*
X164436645Y-105151022D01*
X164429926Y-105158140D01*
X164423428Y-105165434D01*
X164417149Y-105172903D01*
X164411092Y-105180546D01*
X164405254Y-105188365D01*
X164399637Y-105196358D01*
X164394240Y-105204526D01*
X164389063Y-105212870D01*
X164384107Y-105221388D01*
X164379371Y-105230081D01*
X164374855Y-105238949D01*
X164370559Y-105247992D01*
X164366484Y-105257210D01*
X164362629Y-105266603D01*
X164358994Y-105276170D01*
X164355580Y-105285913D01*
X164352386Y-105295831D01*
X164349412Y-105305923D01*
X164346658Y-105316191D01*
X164344125Y-105326633D01*
X164341812Y-105337250D01*
X164339719Y-105348043D01*
X164337847Y-105359010D01*
X164336195Y-105370152D01*
X164334763Y-105381469D01*
X164333551Y-105392961D01*
X164332560Y-105404628D01*
X164331789Y-105416470D01*
X164331238Y-105428487D01*
X164330908Y-105440678D01*
X164330798Y-105453045D01*
X164330908Y-105465464D01*
X164331238Y-105477707D01*
X164331789Y-105489773D01*
X164332560Y-105501663D01*
X164333551Y-105513376D01*
X164334763Y-105524913D01*
X164336195Y-105536273D01*
X164337847Y-105547456D01*
X164339719Y-105558463D01*
X164341812Y-105569293D01*
X164344125Y-105579947D01*
X164346658Y-105590424D01*
X164349412Y-105600725D01*
X164352386Y-105610849D01*
X164355580Y-105620797D01*
X164358994Y-105630568D01*
X164362629Y-105640162D01*
X164366484Y-105649580D01*
X164370559Y-105658822D01*
X164374855Y-105667886D01*
X164379371Y-105676775D01*
X164384107Y-105685486D01*
X164389063Y-105694022D01*
X164394240Y-105702380D01*
X164399637Y-105710562D01*
X164405254Y-105718568D01*
X164411092Y-105726397D01*
X164417149Y-105734049D01*
X164423428Y-105741525D01*
X164429926Y-105748825D01*
X164436645Y-105755947D01*
X164443584Y-105762894D01*
X164450743Y-105769663D01*
X164457682Y-105775873D01*
X164464791Y-105781902D01*
X164472070Y-105787752D01*
X164479518Y-105793422D01*
X164487137Y-105798911D01*
X164494925Y-105804221D01*
X164502884Y-105809351D01*
X164511012Y-105814300D01*
X164519311Y-105819070D01*
X164527779Y-105823660D01*
X164536417Y-105828070D01*
X164545225Y-105832299D01*
X164554203Y-105836349D01*
X164563351Y-105840219D01*
X164572669Y-105843909D01*
X164582156Y-105847418D01*
X164591814Y-105850748D01*
X164601642Y-105853898D01*
X164611639Y-105856868D01*
X164621807Y-105859658D01*
X164632144Y-105862267D01*
X164642651Y-105864697D01*
X164653328Y-105866947D01*
X164664175Y-105869017D01*
X164675192Y-105870907D01*
X164686379Y-105872617D01*
X164697736Y-105874147D01*
X164709263Y-105875497D01*
X164720960Y-105876666D01*
X164732826Y-105877656D01*
X164744863Y-105878466D01*
X164757069Y-105879096D01*
X164769445Y-105879546D01*
X164781992Y-105879816D01*
X164794708Y-105879906D01*
X164807423Y-105879816D01*
X164819969Y-105879546D01*
X164832345Y-105879096D01*
X164844550Y-105878466D01*
X164856586Y-105877656D01*
X164868452Y-105876666D01*
X164880148Y-105875497D01*
X164891675Y-105874147D01*
X164903031Y-105872617D01*
X164914217Y-105870907D01*
X164925234Y-105869017D01*
X164936080Y-105866947D01*
X164946757Y-105864697D01*
X164957264Y-105862267D01*
X164967601Y-105859658D01*
X164977768Y-105856868D01*
X164987765Y-105853898D01*
X164997592Y-105850748D01*
X165007250Y-105847418D01*
X165016737Y-105843909D01*
X165026054Y-105840219D01*
X165035202Y-105836349D01*
X165044180Y-105832299D01*
X165052988Y-105828070D01*
X165061626Y-105823660D01*
X165070094Y-105819070D01*
X165078392Y-105814300D01*
X165086520Y-105809351D01*
X165094478Y-105804221D01*
X165102267Y-105798911D01*
X165109885Y-105793422D01*
X165117334Y-105787752D01*
X165124613Y-105781902D01*
X165131722Y-105775873D01*
X165138661Y-105769663D01*
X165145820Y-105762894D01*
X165152759Y-105755947D01*
X165159478Y-105748825D01*
X165165976Y-105741525D01*
X165172254Y-105734049D01*
X165178312Y-105726397D01*
X165184149Y-105718568D01*
X165189767Y-105710562D01*
X165195164Y-105702380D01*
X165200340Y-105694022D01*
X165205297Y-105685486D01*
X165210033Y-105676775D01*
X165214549Y-105667886D01*
X165218844Y-105658822D01*
X165222920Y-105649580D01*
X165226775Y-105640162D01*
X165230409Y-105630568D01*
X165233824Y-105620797D01*
X165237018Y-105610849D01*
X165239992Y-105600725D01*
X165242745Y-105590424D01*
X165245279Y-105579947D01*
X165247592Y-105569293D01*
X165249684Y-105558463D01*
X165251557Y-105547456D01*
X165253209Y-105536273D01*
X165254641Y-105524913D01*
X165255852Y-105513376D01*
X165256844Y-105501663D01*
X165257615Y-105489773D01*
X165258165Y-105477707D01*
X165258496Y-105465464D01*
X165258606Y-105453045D01*
X165258496Y-105440678D01*
X165258165Y-105428487D01*
X165257615Y-105416470D01*
X165256844Y-105404628D01*
X165255852Y-105392961D01*
X165254641Y-105381469D01*
X165253209Y-105370152D01*
X165251557Y-105359010D01*
X165249684Y-105348043D01*
X165247592Y-105337250D01*
X165245279Y-105326633D01*
X165242745Y-105316191D01*
X165239992Y-105305923D01*
X165237018Y-105295831D01*
X165233824Y-105285913D01*
X165230409Y-105276170D01*
X165226775Y-105266603D01*
X165222920Y-105257210D01*
X165218844Y-105247992D01*
X165214549Y-105238949D01*
X165210033Y-105230081D01*
X165205297Y-105221388D01*
X165200340Y-105212870D01*
X165195164Y-105204526D01*
X165189767Y-105196358D01*
X165184149Y-105188365D01*
X165178312Y-105180546D01*
X165172254Y-105172903D01*
X165165976Y-105165434D01*
X165159478Y-105158140D01*
X165152759Y-105151022D01*
X165145820Y-105144078D01*
X165138661Y-105137309D01*
X165138661Y-105137309D01*
G37*
G36*
X165244493Y-106112740D02*
X164000078Y-106112740D01*
X164000078Y-106329698D01*
X165244493Y-106329698D01*
X165244493Y-106112740D01*
X165244493Y-106112740D01*
G37*
G36*
X164343152Y-106525490D02*
X164343152Y-106755677D01*
X164971970Y-106957642D01*
X164343152Y-107156080D01*
X164343152Y-107385385D01*
X165266541Y-107042309D01*
X165279952Y-107037307D01*
X165293056Y-107032275D01*
X165305854Y-107027214D01*
X165318346Y-107022124D01*
X165330532Y-107017004D01*
X165342412Y-107011855D01*
X165353985Y-107006677D01*
X165365252Y-107001469D01*
X165376213Y-106996232D01*
X165386868Y-106990965D01*
X165397216Y-106985669D01*
X165407259Y-106980344D01*
X165416995Y-106974990D01*
X165426425Y-106969606D01*
X165435548Y-106964192D01*
X165444366Y-106958750D01*
X165452877Y-106953278D01*
X165461082Y-106947776D01*
X165468981Y-106942246D01*
X165476574Y-106936685D01*
X165483860Y-106931096D01*
X165490841Y-106925477D01*
X165497515Y-106919829D01*
X165503882Y-106914151D01*
X165509944Y-106908444D01*
X165515700Y-106902708D01*
X165521149Y-106896942D01*
X165526292Y-106891147D01*
X165531129Y-106885323D01*
X165538560Y-106875896D01*
X165545567Y-106866432D01*
X165552149Y-106856929D01*
X165558306Y-106847388D01*
X165564039Y-106837809D01*
X165569347Y-106828192D01*
X165574230Y-106818537D01*
X165578689Y-106808844D01*
X165582723Y-106799113D01*
X165586333Y-106789343D01*
X165589518Y-106779536D01*
X165592278Y-106769690D01*
X165594614Y-106759806D01*
X165596524Y-106749885D01*
X165598011Y-106739925D01*
X165599072Y-106729926D01*
X165599709Y-106719890D01*
X165599922Y-106709816D01*
X165599775Y-106699488D01*
X165599337Y-106689129D01*
X165598606Y-106678739D01*
X165597583Y-106668318D01*
X165596268Y-106657865D01*
X165594661Y-106647381D01*
X165592761Y-106636865D01*
X165590569Y-106626318D01*
X165588085Y-106615740D01*
X165585308Y-106605131D01*
X165582239Y-106594490D01*
X165578878Y-106583818D01*
X165575225Y-106573115D01*
X165394422Y-106573115D01*
X165398611Y-106583504D01*
X165402359Y-106593858D01*
X165405666Y-106604177D01*
X165408532Y-106614460D01*
X165410958Y-106624708D01*
X165412942Y-106634921D01*
X165414485Y-106645099D01*
X165415588Y-106655241D01*
X165416249Y-106665348D01*
X165416470Y-106675420D01*
X165416210Y-106681852D01*
X165415429Y-106688252D01*
X165414129Y-106694620D01*
X165412308Y-106700958D01*
X165409968Y-106707263D01*
X165407107Y-106713538D01*
X165403726Y-106719781D01*
X165399825Y-106725992D01*
X165395404Y-106732172D01*
X165390462Y-106738320D01*
X165385001Y-106744437D01*
X165379019Y-106750523D01*
X165372517Y-106756577D01*
X165365495Y-106762599D01*
X165357953Y-106768591D01*
X165349891Y-106774550D01*
X165341309Y-106780478D01*
X165332206Y-106786375D01*
X165322583Y-106792240D01*
X165312440Y-106798074D01*
X165301777Y-106803877D01*
X165290594Y-106809648D01*
X165278891Y-106815387D01*
X165266668Y-106821095D01*
X165253924Y-106826772D01*
X165240660Y-106832417D01*
X165226876Y-106838030D01*
X165212572Y-106843612D01*
X165197748Y-106849163D01*
X164343152Y-106525490D01*
X164343152Y-106525490D01*
G37*
G36*
X164610377Y-107510621D02*
X164598687Y-107510802D01*
X164587237Y-107511342D01*
X164576027Y-107512242D01*
X164565057Y-107513502D01*
X164554327Y-107515123D01*
X164543837Y-107517104D01*
X164533588Y-107519444D01*
X164523578Y-107522145D01*
X164513808Y-107525206D01*
X164504279Y-107528627D01*
X164494989Y-107532408D01*
X164485940Y-107536550D01*
X164477131Y-107541051D01*
X164468561Y-107545913D01*
X164460232Y-107551134D01*
X164452143Y-107556716D01*
X164444294Y-107562658D01*
X164436684Y-107568960D01*
X164429315Y-107575622D01*
X164422186Y-107582644D01*
X164415297Y-107590027D01*
X164408649Y-107597769D01*
X164402240Y-107605872D01*
X164396267Y-107613964D01*
X164390548Y-107622218D01*
X164385083Y-107630635D01*
X164379873Y-107639214D01*
X164374917Y-107647955D01*
X164370215Y-107656859D01*
X164365767Y-107665925D01*
X164361573Y-107675153D01*
X164357633Y-107684544D01*
X164353948Y-107694097D01*
X164350517Y-107703812D01*
X164347340Y-107713689D01*
X164344417Y-107723729D01*
X164341748Y-107733931D01*
X164339333Y-107744295D01*
X164337173Y-107754822D01*
X164335267Y-107765511D01*
X164333615Y-107776362D01*
X164332217Y-107787376D01*
X164331073Y-107798552D01*
X164330183Y-107809890D01*
X164329548Y-107821391D01*
X164329167Y-107833053D01*
X164329040Y-107844878D01*
X164329151Y-107856011D01*
X164329487Y-107867068D01*
X164330046Y-107878048D01*
X164330828Y-107888951D01*
X164331834Y-107899778D01*
X164333064Y-107910528D01*
X164334517Y-107921202D01*
X164336194Y-107931799D01*
X164338094Y-107942320D01*
X164340218Y-107952764D01*
X164342565Y-107963131D01*
X164345136Y-107973422D01*
X164347931Y-107983636D01*
X164350949Y-107993774D01*
X164354190Y-108003835D01*
X164357656Y-108013820D01*
X164361344Y-108023728D01*
X164365257Y-108033559D01*
X164369393Y-108043314D01*
X164373752Y-108052993D01*
X164378335Y-108062595D01*
X164383142Y-108072120D01*
X164388172Y-108081569D01*
X164393425Y-108090941D01*
X164558346Y-108090941D01*
X164554132Y-108081707D01*
X164550134Y-108072350D01*
X164546353Y-108062869D01*
X164542787Y-108053264D01*
X164539438Y-108043536D01*
X164536305Y-108033685D01*
X164533388Y-108023710D01*
X164530687Y-108013612D01*
X164528202Y-108003390D01*
X164525933Y-107993045D01*
X164523880Y-107982577D01*
X164522043Y-107971984D01*
X164520423Y-107961269D01*
X164519018Y-107950430D01*
X164517830Y-107939467D01*
X164516857Y-107928381D01*
X164516101Y-107917172D01*
X164515561Y-107905839D01*
X164515237Y-107894382D01*
X164515129Y-107882802D01*
X164515301Y-107868371D01*
X164515817Y-107854644D01*
X164516677Y-107841621D01*
X164517881Y-107829301D01*
X164519429Y-107817686D01*
X164521320Y-107806775D01*
X164523556Y-107796568D01*
X164526136Y-107787064D01*
X164529060Y-107778265D01*
X164532328Y-107770169D01*
X164535940Y-107762778D01*
X164539896Y-107756090D01*
X164544196Y-107750106D01*
X164548839Y-107744827D01*
X164553827Y-107740251D01*
X164559159Y-107736379D01*
X164564835Y-107733211D01*
X164570855Y-107730748D01*
X164577218Y-107728988D01*
X164583926Y-107727932D01*
X164590978Y-107727580D01*
X164600210Y-107728269D01*
X164608945Y-107730336D01*
X164617185Y-107733781D01*
X164624929Y-107738604D01*
X164632177Y-107744805D01*
X164638929Y-107752385D01*
X164645185Y-107761342D01*
X164650945Y-107771677D01*
X164654757Y-107779855D01*
X164658497Y-107788354D01*
X164662163Y-107797173D01*
X164665757Y-107806313D01*
X164669278Y-107815774D01*
X164672727Y-107825556D01*
X164676102Y-107835658D01*
X164679405Y-107846081D01*
X164682634Y-107856825D01*
X164685791Y-107867889D01*
X164688875Y-107879274D01*
X164691606Y-107889852D01*
X164694509Y-107900417D01*
X164697583Y-107910969D01*
X164700828Y-107921510D01*
X164704246Y-107932038D01*
X164707835Y-107942554D01*
X164711595Y-107953058D01*
X164715527Y-107963549D01*
X164719631Y-107974028D01*
X164723906Y-107984495D01*
X164728353Y-107994950D01*
X164732971Y-108005392D01*
X164737074Y-108014365D01*
X164741573Y-108023139D01*
X164746468Y-108031716D01*
X164751759Y-108040094D01*
X164757446Y-108048275D01*
X164763529Y-108056257D01*
X164770008Y-108064042D01*
X164776883Y-108071628D01*
X164784154Y-108079017D01*
X164791821Y-108086207D01*
X164799884Y-108093200D01*
X164808343Y-108099994D01*
X164817198Y-108106591D01*
X164826449Y-108112990D01*
X164834357Y-108118126D01*
X164842516Y-108122950D01*
X164850924Y-108127464D01*
X164859583Y-108131666D01*
X164868491Y-108135557D01*
X164877650Y-108139137D01*
X164887059Y-108142405D01*
X164896719Y-108145362D01*
X164906628Y-108148008D01*
X164916788Y-108150343D01*
X164927197Y-108152366D01*
X164937857Y-108154078D01*
X164948767Y-108155479D01*
X164959928Y-108156568D01*
X164971338Y-108157346D01*
X164982999Y-108157813D01*
X164994909Y-108157969D01*
X165005656Y-108157759D01*
X165016228Y-108157129D01*
X165026623Y-108156079D01*
X165036842Y-108154609D01*
X165046885Y-108152719D01*
X165056753Y-108150409D01*
X165066444Y-108147679D01*
X165075959Y-108144530D01*
X165085299Y-108140960D01*
X165094462Y-108136970D01*
X165103450Y-108132560D01*
X165112261Y-108127731D01*
X165120897Y-108122481D01*
X165129357Y-108116811D01*
X165137640Y-108110722D01*
X165145748Y-108104212D01*
X165153680Y-108097283D01*
X165161436Y-108089933D01*
X165169016Y-108082164D01*
X165176420Y-108073974D01*
X165183648Y-108065365D01*
X165189764Y-108057617D01*
X165195620Y-108049661D01*
X165201216Y-108041497D01*
X165206552Y-108033125D01*
X165211627Y-108024544D01*
X165216442Y-108015755D01*
X165220997Y-108006758D01*
X165225291Y-107997553D01*
X165229325Y-107988139D01*
X165233099Y-107978518D01*
X165236613Y-107968688D01*
X165239866Y-107958649D01*
X165242859Y-107948403D01*
X165245592Y-107937948D01*
X165248065Y-107927285D01*
X165250277Y-107916414D01*
X165252229Y-107905335D01*
X165253921Y-107894047D01*
X165255352Y-107882551D01*
X165256524Y-107870847D01*
X165257435Y-107858935D01*
X165258085Y-107846814D01*
X165258476Y-107834485D01*
X165258606Y-107821948D01*
X165258511Y-107810892D01*
X165258228Y-107799899D01*
X165257755Y-107788970D01*
X165257094Y-107778103D01*
X165256244Y-107767299D01*
X165255204Y-107756558D01*
X165253976Y-107745880D01*
X165252559Y-107735265D01*
X165250952Y-107724714D01*
X165249157Y-107714225D01*
X165247173Y-107703799D01*
X165244999Y-107693436D01*
X165242637Y-107683136D01*
X165240086Y-107672899D01*
X165237346Y-107662725D01*
X165234417Y-107652615D01*
X165231299Y-107642567D01*
X165227991Y-107632582D01*
X165224495Y-107622660D01*
X165220810Y-107612801D01*
X165216936Y-107603005D01*
X165212873Y-107593272D01*
X165208621Y-107583602D01*
X165204180Y-107573996D01*
X165199550Y-107564452D01*
X165194731Y-107554971D01*
X165189724Y-107545553D01*
X165184527Y-107536198D01*
X164991381Y-107536198D01*
X164997604Y-107545750D01*
X165003574Y-107555355D01*
X165009289Y-107565014D01*
X165014750Y-107574727D01*
X165019957Y-107584493D01*
X165024910Y-107594313D01*
X165029609Y-107604187D01*
X165034055Y-107614114D01*
X165038246Y-107624095D01*
X165042183Y-107634129D01*
X165045866Y-107644217D01*
X165049295Y-107654359D01*
X165052470Y-107664554D01*
X165055391Y-107674803D01*
X165058058Y-107685105D01*
X165060471Y-107695462D01*
X165062630Y-107705871D01*
X165064536Y-107716335D01*
X165066187Y-107726852D01*
X165067584Y-107737422D01*
X165068727Y-107748047D01*
X165069616Y-107758725D01*
X165070251Y-107769456D01*
X165070632Y-107780241D01*
X165070759Y-107791080D01*
X165070612Y-107806208D01*
X165070171Y-107820429D01*
X165069436Y-107833744D01*
X165068407Y-107846152D01*
X165067084Y-107857654D01*
X165065466Y-107868250D01*
X165063555Y-107877939D01*
X165061350Y-107886722D01*
X165058851Y-107894598D01*
X165056058Y-107901568D01*
X165052971Y-107907631D01*
X165049590Y-107912788D01*
X165043747Y-107919403D01*
X165037243Y-107925135D01*
X165030077Y-107929986D01*
X165022250Y-107933955D01*
X165013761Y-107937042D01*
X165004610Y-107939247D01*
X164994798Y-107940569D01*
X164984325Y-107941010D01*
X164975701Y-107940455D01*
X164967469Y-107938789D01*
X164959629Y-107936013D01*
X164952181Y-107932126D01*
X164945125Y-107927128D01*
X164938460Y-107921020D01*
X164932188Y-107913801D01*
X164926307Y-107905471D01*
X164920818Y-107896031D01*
X164916388Y-107887853D01*
X164912075Y-107879354D01*
X164907878Y-107870535D01*
X164903797Y-107861395D01*
X164899833Y-107851934D01*
X164895985Y-107842152D01*
X164892254Y-107832050D01*
X164888639Y-107821627D01*
X164885140Y-107810884D01*
X164881758Y-107799819D01*
X164878492Y-107788434D01*
X164875363Y-107777992D01*
X164872148Y-107767537D01*
X164868846Y-107757070D01*
X164865459Y-107746591D01*
X164861987Y-107736099D01*
X164858428Y-107725596D01*
X164854784Y-107715080D01*
X164851054Y-107704551D01*
X164847238Y-107694011D01*
X164843336Y-107683458D01*
X164839349Y-107672893D01*
X164835276Y-107662316D01*
X164831288Y-107652787D01*
X164826925Y-107643466D01*
X164822187Y-107634355D01*
X164817072Y-107625452D01*
X164811582Y-107616758D01*
X164805717Y-107608272D01*
X164799476Y-107599995D01*
X164792859Y-107591927D01*
X164785866Y-107584068D01*
X164778498Y-107576418D01*
X164770754Y-107568976D01*
X164762635Y-107561743D01*
X164754140Y-107554719D01*
X164746367Y-107549035D01*
X164738335Y-107543743D01*
X164730044Y-107538844D01*
X164721495Y-107534336D01*
X164712687Y-107530220D01*
X164703620Y-107526496D01*
X164694294Y-107523165D01*
X164684710Y-107520225D01*
X164674867Y-107517677D01*
X164664765Y-107515521D01*
X164654405Y-107513757D01*
X164643786Y-107512385D01*
X164632908Y-107511405D01*
X164621772Y-107510817D01*
X164610377Y-107510621D01*
X164610377Y-107510621D01*
G37*
G36*
X164529241Y-108294670D02*
X164343152Y-108294670D01*
X164343152Y-108446365D01*
X164075916Y-108446365D01*
X164075916Y-108663323D01*
X164343152Y-108663323D01*
X164343152Y-108876753D01*
X164529241Y-108876753D01*
X164529241Y-108663323D01*
X164973741Y-108663323D01*
X164987700Y-108663695D01*
X165000474Y-108664811D01*
X165012063Y-108666672D01*
X165022466Y-108669276D01*
X165031684Y-108672625D01*
X165039717Y-108676717D01*
X165046565Y-108681554D01*
X165052227Y-108687135D01*
X165056485Y-108693080D01*
X165060243Y-108699940D01*
X165063499Y-108707714D01*
X165066254Y-108716403D01*
X165068509Y-108726006D01*
X165070262Y-108736524D01*
X165071515Y-108747957D01*
X165072266Y-108760304D01*
X165072517Y-108773566D01*
X165072323Y-108785075D01*
X165071741Y-108796320D01*
X165070771Y-108807300D01*
X165069413Y-108818016D01*
X165067667Y-108828467D01*
X165065533Y-108838653D01*
X165063011Y-108848575D01*
X165060102Y-108858233D01*
X165056804Y-108867625D01*
X165053118Y-108876753D01*
X165232151Y-108876753D01*
X165236064Y-108866916D01*
X165239665Y-108856944D01*
X165242952Y-108846835D01*
X165245926Y-108836591D01*
X165248587Y-108826211D01*
X165250935Y-108815696D01*
X165252970Y-108805045D01*
X165254692Y-108794258D01*
X165256101Y-108783335D01*
X165257197Y-108772277D01*
X165257980Y-108761083D01*
X165258449Y-108749754D01*
X165258606Y-108738288D01*
X165258606Y-108733879D01*
X165258442Y-108721810D01*
X165257950Y-108709979D01*
X165257130Y-108698384D01*
X165255982Y-108687026D01*
X165254506Y-108675905D01*
X165252702Y-108665021D01*
X165250570Y-108654374D01*
X165248110Y-108643964D01*
X165245322Y-108633791D01*
X165242206Y-108623854D01*
X165238761Y-108614155D01*
X165234989Y-108604692D01*
X165230889Y-108595466D01*
X165226461Y-108586477D01*
X165221705Y-108577725D01*
X165216621Y-108569210D01*
X165211209Y-108560932D01*
X165205469Y-108552891D01*
X165199401Y-108545086D01*
X165193005Y-108537518D01*
X165186281Y-108530188D01*
X165179228Y-108523094D01*
X165172214Y-108516567D01*
X165164972Y-108510330D01*
X165157504Y-108504383D01*
X165149809Y-108498726D01*
X165141887Y-108493360D01*
X165133738Y-108488283D01*
X165125362Y-108483496D01*
X165116760Y-108479000D01*
X165107931Y-108474794D01*
X165098875Y-108470877D01*
X165089592Y-108467251D01*
X165080082Y-108463915D01*
X165070346Y-108460869D01*
X165060382Y-108458113D01*
X165050192Y-108455648D01*
X165039776Y-108453472D01*
X165029132Y-108451586D01*
X165018261Y-108449991D01*
X165007164Y-108448685D01*
X164995840Y-108447670D01*
X164984289Y-108446945D01*
X164972511Y-108446510D01*
X164960507Y-108446365D01*
X164529241Y-108446365D01*
X164529241Y-108294670D01*
X164529241Y-108294670D01*
X164529241Y-108294670D01*
G37*
G36*
X164949922Y-109047851D02*
X164922588Y-109262163D01*
X164932735Y-109262380D01*
X164942514Y-109263031D01*
X164951923Y-109264117D01*
X164960963Y-109265636D01*
X164969634Y-109267590D01*
X164977936Y-109269979D01*
X164985869Y-109272801D01*
X164993433Y-109276058D01*
X165000629Y-109279749D01*
X165007455Y-109283874D01*
X165013912Y-109288433D01*
X165020000Y-109293427D01*
X165025720Y-109298854D01*
X165031070Y-109304716D01*
X165036051Y-109311013D01*
X165040664Y-109317743D01*
X165044907Y-109324908D01*
X165048781Y-109332507D01*
X165052287Y-109340540D01*
X165055423Y-109349007D01*
X165058190Y-109357909D01*
X165060589Y-109367245D01*
X165062618Y-109377015D01*
X165064279Y-109387219D01*
X165065570Y-109397857D01*
X165066493Y-109408930D01*
X165067046Y-109420437D01*
X165067231Y-109432378D01*
X165067231Y-109434142D01*
X165067043Y-109445940D01*
X165066480Y-109457293D01*
X165065543Y-109468200D01*
X165064230Y-109478663D01*
X165062542Y-109488680D01*
X165060480Y-109498252D01*
X165058042Y-109507379D01*
X165055229Y-109516060D01*
X165052041Y-109524296D01*
X165048478Y-109532087D01*
X165044540Y-109539433D01*
X165040227Y-109546334D01*
X165035539Y-109552790D01*
X165030475Y-109558800D01*
X165025037Y-109564365D01*
X165019224Y-109569485D01*
X165013035Y-109574160D01*
X165006472Y-109578389D01*
X164999533Y-109582173D01*
X164992220Y-109585512D01*
X164984531Y-109588406D01*
X164976468Y-109590855D01*
X164968029Y-109592858D01*
X164959215Y-109594416D01*
X164950026Y-109595529D01*
X164940463Y-109596197D01*
X164930524Y-109596420D01*
X164816756Y-109596420D01*
X164815057Y-109583932D01*
X164813494Y-109571750D01*
X164812067Y-109559874D01*
X164810775Y-109548305D01*
X164809619Y-109537042D01*
X164808598Y-109526085D01*
X164807712Y-109515434D01*
X164806962Y-109505090D01*
X164806347Y-109495051D01*
X164805868Y-109485319D01*
X164805525Y-109475894D01*
X164805316Y-109466774D01*
X164805456Y-109452965D01*
X164805874Y-109439638D01*
X164806572Y-109426794D01*
X164807548Y-109414432D01*
X164808803Y-109402553D01*
X164810337Y-109391155D01*
X164812150Y-109380241D01*
X164814243Y-109369808D01*
X164816614Y-109359858D01*
X164819264Y-109350391D01*
X164822192Y-109341406D01*
X164825400Y-109332903D01*
X164828887Y-109324883D01*
X164832653Y-109317345D01*
X164836698Y-109310289D01*
X164841021Y-109303716D01*
X164845624Y-109297625D01*
X164850505Y-109292017D01*
X164855666Y-109286891D01*
X164861105Y-109282247D01*
X164866824Y-109278086D01*
X164872821Y-109274407D01*
X164879097Y-109271211D01*
X164885652Y-109268497D01*
X164892486Y-109266265D01*
X164899599Y-109264516D01*
X164906992Y-109263249D01*
X164914662Y-109262465D01*
X164922612Y-109262163D01*
X164922588Y-109262163D01*
X164949922Y-109047851D01*
X164938953Y-109048062D01*
X164927913Y-109048697D01*
X164916801Y-109049756D01*
X164905618Y-109051237D01*
X164894363Y-109053142D01*
X164885760Y-109054996D01*
X164876580Y-109057534D01*
X164866824Y-109060756D01*
X164856493Y-109064661D01*
X164845585Y-109069251D01*
X164834102Y-109074525D01*
X164822042Y-109080482D01*
X164812569Y-109085774D01*
X164803357Y-109091457D01*
X164794407Y-109097533D01*
X164785718Y-109104001D01*
X164777290Y-109110860D01*
X164769124Y-109118112D01*
X164761219Y-109125755D01*
X164753575Y-109133791D01*
X164746193Y-109142218D01*
X164740821Y-109148943D01*
X164735585Y-109156182D01*
X164730483Y-109163936D01*
X164725516Y-109172204D01*
X164720684Y-109180987D01*
X164715987Y-109190284D01*
X164711424Y-109200096D01*
X164706996Y-109210422D01*
X164702703Y-109221263D01*
X164698545Y-109232618D01*
X164694522Y-109244487D01*
X164690633Y-109256871D01*
X164687915Y-109265889D01*
X164685361Y-109275096D01*
X164682972Y-109284492D01*
X164680748Y-109294077D01*
X164678689Y-109303852D01*
X164676794Y-109313816D01*
X164675065Y-109323969D01*
X164673500Y-109334311D01*
X164672099Y-109344843D01*
X164670864Y-109355563D01*
X164669793Y-109366473D01*
X164668887Y-109377572D01*
X164668145Y-109388861D01*
X164667569Y-109400338D01*
X164667157Y-109412005D01*
X164666910Y-109423861D01*
X164666827Y-109435906D01*
X164666882Y-109445831D01*
X164667047Y-109455849D01*
X164667321Y-109465962D01*
X164667705Y-109476169D01*
X164668199Y-109486470D01*
X164668802Y-109496866D01*
X164669515Y-109507355D01*
X164670338Y-109517938D01*
X164671271Y-109528616D01*
X164672313Y-109539387D01*
X164673465Y-109550253D01*
X164674726Y-109561212D01*
X164676098Y-109572266D01*
X164677579Y-109583414D01*
X164679170Y-109594656D01*
X164669010Y-109594480D01*
X164659162Y-109593953D01*
X164649628Y-109593074D01*
X164640406Y-109591844D01*
X164631496Y-109590262D01*
X164622899Y-109588329D01*
X164614615Y-109586044D01*
X164606643Y-109583408D01*
X164598984Y-109580421D01*
X164591638Y-109577082D01*
X164584604Y-109573391D01*
X164577883Y-109569349D01*
X164571474Y-109564955D01*
X164565378Y-109560210D01*
X164559595Y-109555114D01*
X164554124Y-109549666D01*
X164548966Y-109543867D01*
X164544120Y-109537716D01*
X164539588Y-109531213D01*
X164535367Y-109524359D01*
X164531460Y-109517154D01*
X164527865Y-109509597D01*
X164524582Y-109501689D01*
X164521612Y-109493429D01*
X164518955Y-109484818D01*
X164516610Y-109475855D01*
X164514578Y-109466541D01*
X164512859Y-109456875D01*
X164511452Y-109446858D01*
X164510358Y-109436489D01*
X164509577Y-109425769D01*
X164509108Y-109414697D01*
X164508951Y-109403274D01*
X164509025Y-109391202D01*
X164509245Y-109379257D01*
X164509612Y-109367439D01*
X164510126Y-109355748D01*
X164510786Y-109344183D01*
X164511593Y-109332746D01*
X164512547Y-109321436D01*
X164513648Y-109310253D01*
X164514896Y-109299197D01*
X164516290Y-109288268D01*
X164517831Y-109277466D01*
X164519519Y-109266791D01*
X164521354Y-109256243D01*
X164523335Y-109245822D01*
X164525463Y-109235528D01*
X164527738Y-109225361D01*
X164530160Y-109215321D01*
X164532728Y-109205408D01*
X164535444Y-109195622D01*
X164538306Y-109185963D01*
X164541314Y-109176431D01*
X164544470Y-109167025D01*
X164547772Y-109157747D01*
X164551221Y-109148596D01*
X164554817Y-109139572D01*
X164379313Y-109139572D01*
X164375520Y-109149178D01*
X164371876Y-109158865D01*
X164368381Y-109168633D01*
X164365034Y-109178482D01*
X164361836Y-109188412D01*
X164358787Y-109198423D01*
X164355887Y-109208514D01*
X164353135Y-109218686D01*
X164350532Y-109228940D01*
X164348078Y-109239274D01*
X164345773Y-109249689D01*
X164343616Y-109260185D01*
X164341608Y-109270762D01*
X164339749Y-109281419D01*
X164338038Y-109292158D01*
X164336476Y-109302977D01*
X164335063Y-109313878D01*
X164333799Y-109324859D01*
X164332684Y-109335921D01*
X164331717Y-109347064D01*
X164330899Y-109358288D01*
X164330230Y-109369593D01*
X164329709Y-109380979D01*
X164329337Y-109392445D01*
X164329114Y-109403993D01*
X164329040Y-109415621D01*
X164329149Y-109428396D01*
X164329479Y-109440970D01*
X164330027Y-109453342D01*
X164330796Y-109465512D01*
X164331783Y-109477480D01*
X164332991Y-109489246D01*
X164334417Y-109500810D01*
X164336064Y-109512172D01*
X164337929Y-109523333D01*
X164340015Y-109534292D01*
X164342320Y-109545048D01*
X164344844Y-109555603D01*
X164347588Y-109565956D01*
X164350551Y-109576107D01*
X164353734Y-109586057D01*
X164357136Y-109595804D01*
X164360758Y-109605350D01*
X164364599Y-109614693D01*
X164368660Y-109623835D01*
X164372940Y-109632775D01*
X164377440Y-109641513D01*
X164382159Y-109650050D01*
X164387098Y-109658384D01*
X164392256Y-109666517D01*
X164397634Y-109674447D01*
X164403232Y-109682176D01*
X164409048Y-109689703D01*
X164415085Y-109697028D01*
X164421341Y-109704151D01*
X164427816Y-109711072D01*
X164434440Y-109717779D01*
X164441261Y-109724258D01*
X164448277Y-109730510D01*
X164455490Y-109736535D01*
X164462898Y-109742332D01*
X164470502Y-109747902D01*
X164478303Y-109753245D01*
X164486299Y-109758360D01*
X164494491Y-109763248D01*
X164502880Y-109767909D01*
X164511464Y-109772342D01*
X164520244Y-109776548D01*
X164529221Y-109780527D01*
X164538393Y-109784278D01*
X164547761Y-109787802D01*
X164557325Y-109791098D01*
X164567085Y-109794167D01*
X164577042Y-109797009D01*
X164587194Y-109799624D01*
X164597542Y-109802011D01*
X164608086Y-109804170D01*
X164618826Y-109806103D01*
X164629762Y-109807808D01*
X164640894Y-109809286D01*
X164652222Y-109810536D01*
X164663746Y-109811559D01*
X164675466Y-109812355D01*
X164687382Y-109812923D01*
X164699494Y-109813264D01*
X164711802Y-109813378D01*
X164955221Y-109813378D01*
X164965969Y-109813201D01*
X164976587Y-109812671D01*
X164987075Y-109811787D01*
X164997434Y-109810550D01*
X165007662Y-109808960D01*
X165017760Y-109807016D01*
X165027728Y-109804719D01*
X165037566Y-109802068D01*
X165047274Y-109799063D01*
X165056852Y-109795706D01*
X165066300Y-109791995D01*
X165075618Y-109787930D01*
X165084806Y-109783512D01*
X165093864Y-109778740D01*
X165102792Y-109773615D01*
X165111590Y-109768137D01*
X165120258Y-109762305D01*
X165128796Y-109756120D01*
X165137204Y-109749581D01*
X165145482Y-109742689D01*
X165153629Y-109735443D01*
X165161647Y-109727844D01*
X165169535Y-109719892D01*
X165175572Y-109713386D01*
X165181397Y-109706641D01*
X165187010Y-109699656D01*
X165192412Y-109692433D01*
X165197601Y-109684971D01*
X165202579Y-109677269D01*
X165207345Y-109669328D01*
X165211899Y-109661149D01*
X165216242Y-109652730D01*
X165220372Y-109644072D01*
X165224291Y-109635175D01*
X165227998Y-109626039D01*
X165231493Y-109616663D01*
X165234776Y-109607049D01*
X165237847Y-109597196D01*
X165240707Y-109587103D01*
X165243355Y-109576771D01*
X165245791Y-109566201D01*
X165248015Y-109555391D01*
X165250027Y-109544342D01*
X165251828Y-109533054D01*
X165253416Y-109521527D01*
X165254793Y-109509760D01*
X165255958Y-109497755D01*
X165256911Y-109485511D01*
X165257653Y-109473027D01*
X165258182Y-109460304D01*
X165258500Y-109447343D01*
X165258606Y-109434142D01*
X165258506Y-109421028D01*
X165258206Y-109408146D01*
X165257706Y-109395495D01*
X165257007Y-109383075D01*
X165256107Y-109370887D01*
X165255007Y-109358930D01*
X165253708Y-109347204D01*
X165252209Y-109335709D01*
X165250509Y-109324446D01*
X165248610Y-109313413D01*
X165246511Y-109302612D01*
X165244212Y-109292043D01*
X165241713Y-109281705D01*
X165239014Y-109271597D01*
X165236115Y-109261722D01*
X165233017Y-109252077D01*
X165229718Y-109242664D01*
X165226220Y-109233482D01*
X165222521Y-109224531D01*
X165218623Y-109215812D01*
X165214524Y-109207323D01*
X165210226Y-109199066D01*
X165205728Y-109191041D01*
X165201030Y-109183246D01*
X165196132Y-109175683D01*
X165191034Y-109168351D01*
X165185737Y-109161251D01*
X165180239Y-109154381D01*
X165174541Y-109147743D01*
X165168644Y-109141336D01*
X165160749Y-109133384D01*
X165152707Y-109125785D01*
X165144518Y-109118539D01*
X165136183Y-109111647D01*
X165127701Y-109105108D01*
X165119072Y-109098923D01*
X165110296Y-109093091D01*
X165101373Y-109087613D01*
X165092304Y-109082488D01*
X165083088Y-109077716D01*
X165073725Y-109073298D01*
X165064215Y-109069234D01*
X165054559Y-109065522D01*
X165044756Y-109062165D01*
X165034806Y-109059160D01*
X165024709Y-109056510D01*
X165014466Y-109054212D01*
X165004075Y-109052268D01*
X164993538Y-109050678D01*
X164982855Y-109049441D01*
X164972024Y-109048557D01*
X164961047Y-109048027D01*
X164949922Y-109047850D01*
X164949922Y-109047851D01*
X164949922Y-109047851D01*
G37*
G36*
X164794708Y-110003879D02*
X164781893Y-110003969D01*
X164769250Y-110004239D01*
X164756781Y-110004689D01*
X164744484Y-110005318D01*
X164732360Y-110006128D01*
X164720408Y-110007118D01*
X164708630Y-110008288D01*
X164697024Y-110009638D01*
X164685591Y-110011168D01*
X164674331Y-110012878D01*
X164663244Y-110014768D01*
X164652329Y-110016838D01*
X164641588Y-110019088D01*
X164631019Y-110021517D01*
X164620623Y-110024127D01*
X164610399Y-110026917D01*
X164600349Y-110029887D01*
X164590471Y-110033037D01*
X164580766Y-110036366D01*
X164571234Y-110039876D01*
X164561874Y-110043566D01*
X164552688Y-110047436D01*
X164543674Y-110051486D01*
X164534833Y-110055715D01*
X164526164Y-110060125D01*
X164517669Y-110064715D01*
X164509346Y-110069484D01*
X164501196Y-110074434D01*
X164493219Y-110079564D01*
X164485415Y-110084873D01*
X164477783Y-110090363D01*
X164470324Y-110096033D01*
X164463038Y-110101882D01*
X164455925Y-110107912D01*
X164448985Y-110114122D01*
X164441826Y-110120890D01*
X164434887Y-110127834D01*
X164428168Y-110134953D01*
X164421669Y-110142247D01*
X164415391Y-110149715D01*
X164409333Y-110157359D01*
X164403496Y-110165177D01*
X164397879Y-110173171D01*
X164392482Y-110181339D01*
X164387305Y-110189682D01*
X164382349Y-110198200D01*
X164377612Y-110206893D01*
X164373097Y-110215761D01*
X164368801Y-110224804D01*
X164364726Y-110234022D01*
X164360871Y-110243415D01*
X164357236Y-110252983D01*
X164353822Y-110262726D01*
X164350628Y-110272643D01*
X164347654Y-110282736D01*
X164344900Y-110293003D01*
X164342367Y-110303446D01*
X164340054Y-110314063D01*
X164337961Y-110324855D01*
X164336089Y-110335822D01*
X164334437Y-110346965D01*
X164333005Y-110358282D01*
X164331793Y-110369774D01*
X164330802Y-110381441D01*
X164330031Y-110393282D01*
X164329480Y-110405299D01*
X164329150Y-110417491D01*
X164329040Y-110429858D01*
X164329127Y-110440874D01*
X164329389Y-110451876D01*
X164329825Y-110462862D01*
X164330436Y-110473832D01*
X164331222Y-110484788D01*
X164332182Y-110495728D01*
X164333316Y-110506653D01*
X164334626Y-110517562D01*
X164336109Y-110528456D01*
X164337768Y-110539335D01*
X164339600Y-110550199D01*
X164341608Y-110561047D01*
X164343790Y-110571880D01*
X164346146Y-110582697D01*
X164348678Y-110593500D01*
X164351383Y-110604287D01*
X164354263Y-110615058D01*
X164357318Y-110625815D01*
X164360548Y-110636556D01*
X164363952Y-110647282D01*
X164367530Y-110657992D01*
X164371283Y-110668687D01*
X164375211Y-110679367D01*
X164379313Y-110690031D01*
X164560104Y-110690031D01*
X164556086Y-110679844D01*
X164552264Y-110669609D01*
X164548638Y-110659325D01*
X164545208Y-110648994D01*
X164541974Y-110638615D01*
X164538936Y-110628187D01*
X164536094Y-110617712D01*
X164533448Y-110607189D01*
X164530998Y-110596617D01*
X164528744Y-110585998D01*
X164526686Y-110575331D01*
X164524825Y-110564615D01*
X164523159Y-110553852D01*
X164521689Y-110543041D01*
X164520415Y-110532181D01*
X164519337Y-110521274D01*
X164518455Y-110510319D01*
X164517769Y-110499315D01*
X164517279Y-110488264D01*
X164516985Y-110477165D01*
X164516887Y-110466017D01*
X164517046Y-110453103D01*
X164517522Y-110440541D01*
X164518316Y-110428331D01*
X164519428Y-110416472D01*
X164520857Y-110404965D01*
X164522604Y-110393810D01*
X164524668Y-110383007D01*
X164527050Y-110372556D01*
X164529750Y-110362456D01*
X164532767Y-110352708D01*
X164536102Y-110343312D01*
X164539755Y-110334268D01*
X164543725Y-110325576D01*
X164548013Y-110317235D01*
X164552618Y-110309246D01*
X164557541Y-110301609D01*
X164562782Y-110294324D01*
X164568340Y-110287391D01*
X164574216Y-110280809D01*
X164579570Y-110275481D01*
X164585369Y-110270401D01*
X164591612Y-110265568D01*
X164598300Y-110260984D01*
X164605433Y-110256647D01*
X164613010Y-110252558D01*
X164621032Y-110248717D01*
X164629498Y-110245123D01*
X164638409Y-110241778D01*
X164647764Y-110238680D01*
X164657564Y-110235830D01*
X164667809Y-110233228D01*
X164678498Y-110230874D01*
X164689632Y-110228767D01*
X164701210Y-110226908D01*
X164713233Y-110225298D01*
X164725701Y-110223935D01*
X164738613Y-110222819D01*
X164751970Y-110221952D01*
X164765771Y-110221333D01*
X164780017Y-110220961D01*
X164794708Y-110220837D01*
X164809245Y-110220961D01*
X164823352Y-110221333D01*
X164837028Y-110221952D01*
X164850275Y-110222819D01*
X164863092Y-110223935D01*
X164875479Y-110225298D01*
X164887436Y-110226908D01*
X164898963Y-110228767D01*
X164910060Y-110230874D01*
X164920726Y-110233228D01*
X164930963Y-110235830D01*
X164940770Y-110238680D01*
X164950147Y-110241778D01*
X164959093Y-110245123D01*
X164967610Y-110248717D01*
X164975697Y-110252558D01*
X164983354Y-110256647D01*
X164990580Y-110260984D01*
X164997377Y-110265568D01*
X165003744Y-110270401D01*
X165009681Y-110275481D01*
X165015187Y-110280809D01*
X165021063Y-110287391D01*
X165026621Y-110294324D01*
X165031862Y-110301609D01*
X165036785Y-110309246D01*
X165041391Y-110317235D01*
X165045678Y-110325576D01*
X165049649Y-110334268D01*
X165053301Y-110343312D01*
X165056636Y-110352708D01*
X165059653Y-110362456D01*
X165062353Y-110372556D01*
X165064735Y-110383007D01*
X165066800Y-110393810D01*
X165068547Y-110404965D01*
X165069976Y-110416472D01*
X165071088Y-110428331D01*
X165071882Y-110440541D01*
X165072358Y-110453103D01*
X165072517Y-110466017D01*
X165072415Y-110476685D01*
X165072109Y-110487352D01*
X165071599Y-110498019D01*
X165070885Y-110508687D01*
X165069967Y-110519354D01*
X165068845Y-110530021D01*
X165067520Y-110540689D01*
X165065990Y-110551356D01*
X165064256Y-110562023D01*
X165062318Y-110572691D01*
X165060177Y-110583358D01*
X165057831Y-110594025D01*
X165055281Y-110604693D01*
X165052528Y-110615360D01*
X165049570Y-110626027D01*
X165046409Y-110636695D01*
X165043043Y-110647362D01*
X165039474Y-110658029D01*
X165035701Y-110668697D01*
X165031723Y-110679364D01*
X165027542Y-110690031D01*
X165208333Y-110690031D01*
X165212435Y-110679367D01*
X165216362Y-110668687D01*
X165220115Y-110657992D01*
X165223694Y-110647282D01*
X165227098Y-110636556D01*
X165230327Y-110625815D01*
X165233382Y-110615058D01*
X165236262Y-110604287D01*
X165238968Y-110593500D01*
X165241499Y-110582697D01*
X165243856Y-110571880D01*
X165246038Y-110561047D01*
X165248045Y-110550199D01*
X165249878Y-110539335D01*
X165251536Y-110528456D01*
X165253020Y-110517562D01*
X165254329Y-110506653D01*
X165255464Y-110495728D01*
X165256424Y-110484788D01*
X165257209Y-110473832D01*
X165257820Y-110462862D01*
X165258257Y-110451876D01*
X165258519Y-110440874D01*
X165258606Y-110429858D01*
X165258496Y-110417491D01*
X165258165Y-110405299D01*
X165257615Y-110393282D01*
X165256844Y-110381441D01*
X165255852Y-110369774D01*
X165254641Y-110358282D01*
X165253209Y-110346965D01*
X165251557Y-110335822D01*
X165249684Y-110324855D01*
X165247592Y-110314063D01*
X165245279Y-110303446D01*
X165242745Y-110293003D01*
X165239992Y-110282736D01*
X165237018Y-110272643D01*
X165233824Y-110262726D01*
X165230409Y-110252983D01*
X165226775Y-110243415D01*
X165222920Y-110234022D01*
X165218844Y-110224804D01*
X165214549Y-110215761D01*
X165210033Y-110206893D01*
X165205297Y-110198200D01*
X165200340Y-110189682D01*
X165195164Y-110181339D01*
X165189767Y-110173171D01*
X165184149Y-110165177D01*
X165178312Y-110157359D01*
X165172254Y-110149715D01*
X165165976Y-110142247D01*
X165159478Y-110134953D01*
X165152759Y-110127834D01*
X165145820Y-110120890D01*
X165138661Y-110114122D01*
X165131722Y-110107912D01*
X165124613Y-110101882D01*
X165117334Y-110096033D01*
X165109885Y-110090363D01*
X165102267Y-110084873D01*
X165094478Y-110079564D01*
X165086520Y-110074434D01*
X165078392Y-110069484D01*
X165070094Y-110064715D01*
X165061626Y-110060125D01*
X165052988Y-110055715D01*
X165044180Y-110051486D01*
X165035202Y-110047436D01*
X165026054Y-110043566D01*
X165016737Y-110039876D01*
X165007250Y-110036366D01*
X164997592Y-110033037D01*
X164987765Y-110029887D01*
X164977768Y-110026917D01*
X164967601Y-110024127D01*
X164957264Y-110021517D01*
X164946757Y-110019088D01*
X164936080Y-110016838D01*
X164925234Y-110014768D01*
X164914217Y-110012878D01*
X164903031Y-110011168D01*
X164891675Y-110009638D01*
X164880148Y-110008288D01*
X164868452Y-110007118D01*
X164856586Y-110006128D01*
X164844550Y-110005318D01*
X164832345Y-110004689D01*
X164819969Y-110004239D01*
X164807423Y-110003969D01*
X164794708Y-110003879D01*
X164794708Y-110003879D01*
G37*
G36*
X165244493Y-110890233D02*
X164005365Y-110890233D01*
X164005365Y-111107191D01*
X164673884Y-111107191D01*
X164343152Y-111410580D01*
X164343152Y-111698094D01*
X164744435Y-111305629D01*
X165244493Y-111739545D01*
X165244493Y-111465260D01*
X164889077Y-111167163D01*
X164949922Y-111107191D01*
X165244493Y-111107191D01*
X165244493Y-110890233D01*
X165244493Y-110890233D01*
G37*
D12*
X159423333Y-121438571D02*
X159756667Y-121438571D01*
X159756667Y-121962381D02*
X159756667Y-120962381D01*
X159280476Y-120962381D01*
X158470952Y-120962381D02*
X158661429Y-120962381D01*
X158756667Y-121010000D01*
X158804286Y-121057619D01*
X158899524Y-121200476D01*
X158947143Y-121390952D01*
X158947143Y-121771905D01*
X158899524Y-121867143D01*
X158851905Y-121914762D01*
X158756667Y-121962381D01*
X158566190Y-121962381D01*
X158470952Y-121914762D01*
X158423333Y-121867143D01*
X158375714Y-121771905D01*
X158375714Y-121533810D01*
X158423333Y-121438571D01*
X158470952Y-121390952D01*
X158566190Y-121343333D01*
X158756667Y-121343333D01*
X158851905Y-121390952D01*
X158899524Y-121438571D01*
X158947143Y-121533810D01*
X135753333Y-124298571D02*
X136086667Y-124298571D01*
X136086667Y-124822381D02*
X136086667Y-123822381D01*
X135610476Y-123822381D01*
X134800952Y-124155714D02*
X134800952Y-124822381D01*
X135039048Y-123774762D02*
X135277143Y-124489048D01*
X134658095Y-124489048D01*
X133513333Y-95118571D02*
X133846667Y-95118571D01*
X133846667Y-95642381D02*
X133846667Y-94642381D01*
X133370476Y-94642381D01*
X132513333Y-94642381D02*
X132989524Y-94642381D01*
X133037143Y-95118571D01*
X132989524Y-95070952D01*
X132894286Y-95023333D01*
X132656190Y-95023333D01*
X132560952Y-95070952D01*
X132513333Y-95118571D01*
X132465714Y-95213810D01*
X132465714Y-95451905D01*
X132513333Y-95547143D01*
X132560952Y-95594762D01*
X132656190Y-95642381D01*
X132894286Y-95642381D01*
X132989524Y-95594762D01*
X133037143Y-95547143D01*
X154237143Y-117973334D02*
X154284762Y-117925715D01*
X154332381Y-117782858D01*
X154332381Y-117687620D01*
X154284762Y-117544762D01*
X154189524Y-117449524D01*
X154094286Y-117401905D01*
X153903810Y-117354286D01*
X153760952Y-117354286D01*
X153570476Y-117401905D01*
X153475238Y-117449524D01*
X153380000Y-117544762D01*
X153332381Y-117687620D01*
X153332381Y-117782858D01*
X153380000Y-117925715D01*
X153427619Y-117973334D01*
X153427619Y-118354286D02*
X153380000Y-118401905D01*
X153332381Y-118497143D01*
X153332381Y-118735239D01*
X153380000Y-118830477D01*
X153427619Y-118878096D01*
X153522857Y-118925715D01*
X153618095Y-118925715D01*
X153760952Y-118878096D01*
X154332381Y-118306667D01*
X154332381Y-118925715D01*
X154197143Y-114063334D02*
X154244762Y-114015715D01*
X154292381Y-113872858D01*
X154292381Y-113777620D01*
X154244762Y-113634762D01*
X154149524Y-113539524D01*
X154054286Y-113491905D01*
X153863810Y-113444286D01*
X153720952Y-113444286D01*
X153530476Y-113491905D01*
X153435238Y-113539524D01*
X153340000Y-113634762D01*
X153292381Y-113777620D01*
X153292381Y-113872858D01*
X153340000Y-114015715D01*
X153387619Y-114063334D01*
X153292381Y-114396667D02*
X153292381Y-115015715D01*
X153673333Y-114682381D01*
X153673333Y-114825239D01*
X153720952Y-114920477D01*
X153768571Y-114968096D01*
X153863810Y-115015715D01*
X154101905Y-115015715D01*
X154197143Y-114968096D01*
X154244762Y-114920477D01*
X154292381Y-114825239D01*
X154292381Y-114539524D01*
X154244762Y-114444286D01*
X154197143Y-114396667D01*
X140402381Y-117523334D02*
X139926190Y-117190000D01*
X140402381Y-116951905D02*
X139402381Y-116951905D01*
X139402381Y-117332858D01*
X139450000Y-117428096D01*
X139497619Y-117475715D01*
X139592857Y-117523334D01*
X139735714Y-117523334D01*
X139830952Y-117475715D01*
X139878571Y-117428096D01*
X139926190Y-117332858D01*
X139926190Y-116951905D01*
X139402381Y-118428096D02*
X139402381Y-117951905D01*
X139878571Y-117904286D01*
X139830952Y-117951905D01*
X139783333Y-118047143D01*
X139783333Y-118285239D01*
X139830952Y-118380477D01*
X139878571Y-118428096D01*
X139973810Y-118475715D01*
X140211905Y-118475715D01*
X140307143Y-118428096D01*
X140354762Y-118380477D01*
X140402381Y-118285239D01*
X140402381Y-118047143D01*
X140354762Y-117951905D01*
X140307143Y-117904286D01*
X148751905Y-119192381D02*
X148751905Y-120001905D01*
X148704286Y-120097143D01*
X148656667Y-120144762D01*
X148561429Y-120192381D01*
X148370952Y-120192381D01*
X148275714Y-120144762D01*
X148228095Y-120097143D01*
X148180476Y-120001905D01*
X148180476Y-119192381D01*
X147180476Y-120192381D02*
X147751905Y-120192381D01*
X147466191Y-120192381D02*
X147466191Y-119192381D01*
X147561429Y-119335238D01*
X147656667Y-119430476D01*
X147751905Y-119478095D01*
M02*
