G04 #@! TF.FileFunction,Soldermask,Bot*
%FSLAX46Y46*%
G04 Gerber Fmt 4.6, Leading zero omitted, Abs format (unit mm)*
G04 Created by KiCad (PCBNEW 4.0.1-stable) date Tuesday, April 12, 2016 'PMt' 11:05:27 PM*
%MOMM*%
G01*
G04 APERTURE LIST*
%ADD10C,0.100000*%
%ADD11C,0.010000*%
%ADD12C,2.000000*%
%ADD13O,2.184400X1.879600*%
%ADD14R,2.184400X1.879600*%
%ADD15R,0.812400X0.382400*%
%ADD16R,0.812400X0.502400*%
%ADD17R,1.352400X0.902400*%
%ADD18R,0.902400X0.452400*%
%ADD19R,1.027400X0.877400*%
%ADD20R,1.352400X1.052400*%
%ADD21C,1.676400*%
%ADD22R,1.879600X2.184400*%
%ADD23O,1.879600X2.184400*%
%ADD24R,2.184400X2.184400*%
%ADD25O,2.184400X2.184400*%
%ADD26R,0.902400X1.352400*%
%ADD27R,1.052400X1.352400*%
%ADD28R,1.602400X0.602400*%
G04 APERTURE END LIST*
D10*
D11*
G36*
X146558969Y-92473103D02*
X146521134Y-92474878D01*
X146485237Y-92477950D01*
X146449588Y-92482451D01*
X146412501Y-92488512D01*
X146387463Y-92493226D01*
X146350495Y-92500873D01*
X146315230Y-92509056D01*
X146280622Y-92518108D01*
X146245624Y-92528364D01*
X146209191Y-92540156D01*
X146170278Y-92553818D01*
X146127839Y-92569684D01*
X146080827Y-92588088D01*
X146045263Y-92602406D01*
X145998042Y-92621805D01*
X145950102Y-92641943D01*
X145901041Y-92663011D01*
X145850453Y-92685199D01*
X145797934Y-92708695D01*
X145743079Y-92733689D01*
X145685486Y-92760372D01*
X145624749Y-92788932D01*
X145560464Y-92819559D01*
X145492227Y-92852442D01*
X145419635Y-92887772D01*
X145342281Y-92925737D01*
X145259764Y-92966528D01*
X145171677Y-93010333D01*
X145113915Y-93039177D01*
X145032201Y-93079964D01*
X144956268Y-93117698D01*
X144885642Y-93152596D01*
X144819851Y-93184875D01*
X144758423Y-93214752D01*
X144700885Y-93242444D01*
X144646765Y-93268167D01*
X144595591Y-93292138D01*
X144546889Y-93314575D01*
X144500189Y-93335695D01*
X144455018Y-93355714D01*
X144410903Y-93374848D01*
X144367371Y-93393316D01*
X144323951Y-93411334D01*
X144280171Y-93429119D01*
X144235557Y-93446888D01*
X144189637Y-93464857D01*
X144172458Y-93471509D01*
X144148476Y-93480793D01*
X144126212Y-93489455D01*
X144106652Y-93497109D01*
X144090781Y-93503366D01*
X144079586Y-93507840D01*
X144074216Y-93510070D01*
X144064168Y-93514573D01*
X144079302Y-93533849D01*
X144091111Y-93547902D01*
X144107080Y-93565482D01*
X144126079Y-93585449D01*
X144146977Y-93606663D01*
X144168643Y-93627986D01*
X144189945Y-93648277D01*
X144209754Y-93666397D01*
X144218319Y-93673920D01*
X144293898Y-93735039D01*
X144375648Y-93793238D01*
X144463253Y-93848375D01*
X144556399Y-93900306D01*
X144654769Y-93948886D01*
X144758048Y-93993973D01*
X144865921Y-94035422D01*
X144978072Y-94073091D01*
X145094186Y-94106835D01*
X145213946Y-94136510D01*
X145253722Y-94145281D01*
X145312747Y-94157567D01*
X145366586Y-94168013D01*
X145416795Y-94176877D01*
X145464926Y-94184413D01*
X145512531Y-94190877D01*
X145561165Y-94196526D01*
X145571222Y-94197588D01*
X145591268Y-94199185D01*
X145616488Y-94200438D01*
X145645561Y-94201348D01*
X145677167Y-94201913D01*
X145709986Y-94202134D01*
X145742697Y-94202011D01*
X145773980Y-94201543D01*
X145802515Y-94200730D01*
X145826981Y-94199572D01*
X145846059Y-94198069D01*
X145849917Y-94197629D01*
X145920413Y-94186359D01*
X145985332Y-94170777D01*
X146044686Y-94150875D01*
X146098489Y-94126642D01*
X146146754Y-94098071D01*
X146189494Y-94065152D01*
X146226725Y-94027875D01*
X146258458Y-93986233D01*
X146284708Y-93940216D01*
X146304186Y-93893556D01*
X146313436Y-93865336D01*
X146320050Y-93839790D01*
X146324389Y-93814670D01*
X146326811Y-93787726D01*
X146327677Y-93756710D01*
X146327689Y-93746690D01*
X146327494Y-93689783D01*
X146350459Y-93687430D01*
X146373423Y-93685078D01*
X146423181Y-93719010D01*
X146422739Y-93768359D01*
X146418754Y-93826590D01*
X146407973Y-93883341D01*
X146390573Y-93938195D01*
X146366733Y-93990732D01*
X146336631Y-94040536D01*
X146300446Y-94087188D01*
X146275226Y-94114155D01*
X146234590Y-94151000D01*
X146190860Y-94183371D01*
X146143528Y-94211491D01*
X146092089Y-94235584D01*
X146036034Y-94255873D01*
X145974857Y-94272584D01*
X145908052Y-94285938D01*
X145874611Y-94291113D01*
X145853545Y-94293389D01*
X145826697Y-94295185D01*
X145795325Y-94296500D01*
X145760685Y-94297334D01*
X145724034Y-94297688D01*
X145686631Y-94297562D01*
X145649731Y-94296956D01*
X145614593Y-94295870D01*
X145582474Y-94294303D01*
X145554630Y-94292257D01*
X145543000Y-94291088D01*
X145428753Y-94275915D01*
X145313621Y-94256055D01*
X145198476Y-94231770D01*
X145084191Y-94203321D01*
X144971641Y-94170969D01*
X144861697Y-94134975D01*
X144755234Y-94095600D01*
X144653124Y-94053106D01*
X144556240Y-94007754D01*
X144501392Y-93979498D01*
X144418282Y-93932751D01*
X144339342Y-93883631D01*
X144265019Y-93832487D01*
X144195759Y-93779668D01*
X144132007Y-93725522D01*
X144074209Y-93670397D01*
X144022812Y-93614643D01*
X144001120Y-93588480D01*
X143986411Y-93570572D01*
X143975353Y-93558259D01*
X143967679Y-93551267D01*
X143963122Y-93549322D01*
X143962894Y-93549373D01*
X143948318Y-93553012D01*
X143927871Y-93557139D01*
X143902704Y-93561588D01*
X143873971Y-93566193D01*
X143842826Y-93570787D01*
X143810421Y-93575204D01*
X143777909Y-93579276D01*
X143746444Y-93582837D01*
X143717179Y-93585720D01*
X143703264Y-93586893D01*
X143673004Y-93588630D01*
X143639491Y-93589311D01*
X143602279Y-93588909D01*
X143560925Y-93587398D01*
X143514983Y-93584750D01*
X143464009Y-93580938D01*
X143407559Y-93575937D01*
X143345188Y-93569719D01*
X143276452Y-93562256D01*
X143255236Y-93559853D01*
X143157304Y-93548039D01*
X143052890Y-93534253D01*
X142942274Y-93518544D01*
X142825733Y-93500962D01*
X142703546Y-93481559D01*
X142575989Y-93460386D01*
X142443343Y-93437492D01*
X142305883Y-93412928D01*
X142163890Y-93386746D01*
X142017640Y-93358995D01*
X141867412Y-93329727D01*
X141713483Y-93298991D01*
X141556133Y-93266840D01*
X141395639Y-93233322D01*
X141232279Y-93198489D01*
X141066331Y-93162392D01*
X141038028Y-93156166D01*
X141006495Y-93149268D01*
X140976427Y-93142787D01*
X140948674Y-93136899D01*
X140924087Y-93131780D01*
X140903516Y-93127607D01*
X140887814Y-93124556D01*
X140877830Y-93122804D01*
X140875750Y-93122520D01*
X140848371Y-93122603D01*
X140819403Y-93128198D01*
X140790663Y-93138640D01*
X140763968Y-93153263D01*
X140741137Y-93171400D01*
X140740423Y-93172097D01*
X140729666Y-93184458D01*
X140716441Y-93202584D01*
X140701127Y-93225782D01*
X140684102Y-93253362D01*
X140665747Y-93284633D01*
X140646438Y-93318902D01*
X140626556Y-93355479D01*
X140606479Y-93393671D01*
X140586585Y-93432789D01*
X140567253Y-93472139D01*
X140548863Y-93511031D01*
X140531792Y-93548774D01*
X140523062Y-93568888D01*
X140495582Y-93637828D01*
X140473705Y-93702753D01*
X140457436Y-93763631D01*
X140446780Y-93820428D01*
X140441742Y-93873112D01*
X140442326Y-93921650D01*
X140448538Y-93966008D01*
X140459697Y-94004355D01*
X140469279Y-94024617D01*
X140482842Y-94046530D01*
X140498641Y-94067628D01*
X140514928Y-94085441D01*
X140520911Y-94090860D01*
X140536300Y-94102771D01*
X140552919Y-94113287D01*
X140571311Y-94122518D01*
X140592022Y-94130574D01*
X140615594Y-94137565D01*
X140642573Y-94143602D01*
X140673502Y-94148794D01*
X140708926Y-94153252D01*
X140749388Y-94157086D01*
X140795433Y-94160405D01*
X140847604Y-94163321D01*
X140888097Y-94165182D01*
X140907868Y-94165961D01*
X140933696Y-94166876D01*
X140964584Y-94167897D01*
X140999536Y-94168994D01*
X141037554Y-94170137D01*
X141077643Y-94171294D01*
X141118805Y-94172437D01*
X141160044Y-94173534D01*
X141180903Y-94174070D01*
X141286868Y-94176865D01*
X141386377Y-94179728D01*
X141480029Y-94182688D01*
X141568424Y-94185774D01*
X141652160Y-94189016D01*
X141731838Y-94192444D01*
X141808056Y-94196086D01*
X141881413Y-94199972D01*
X141952509Y-94204132D01*
X142021944Y-94208595D01*
X142090317Y-94213390D01*
X142158226Y-94218548D01*
X142226271Y-94224096D01*
X142262167Y-94227168D01*
X142414575Y-94241484D01*
X142561084Y-94257501D01*
X142702686Y-94275426D01*
X142840371Y-94295462D01*
X142975131Y-94317813D01*
X143107958Y-94342686D01*
X143239844Y-94370283D01*
X143371779Y-94400811D01*
X143504756Y-94434473D01*
X143639766Y-94471474D01*
X143777801Y-94512018D01*
X143919851Y-94556311D01*
X144027819Y-94591516D01*
X144084471Y-94610415D01*
X144136899Y-94628181D01*
X144185676Y-94645079D01*
X144231373Y-94661377D01*
X144274563Y-94677340D01*
X144315816Y-94693235D01*
X144355705Y-94709327D01*
X144394801Y-94725884D01*
X144433675Y-94743170D01*
X144472901Y-94761452D01*
X144513048Y-94780997D01*
X144554690Y-94802071D01*
X144598398Y-94824939D01*
X144644743Y-94849869D01*
X144694297Y-94877125D01*
X144747632Y-94906975D01*
X144805320Y-94939684D01*
X144867932Y-94975519D01*
X144932694Y-95012815D01*
X144982887Y-95041743D01*
X145027657Y-95067450D01*
X145067661Y-95090298D01*
X145103555Y-95110648D01*
X145135994Y-95128863D01*
X145165635Y-95145303D01*
X145193134Y-95160330D01*
X145219147Y-95174307D01*
X145244330Y-95187594D01*
X145269338Y-95200554D01*
X145294828Y-95213549D01*
X145317222Y-95224820D01*
X145382539Y-95256741D01*
X145443326Y-95284702D01*
X145500631Y-95309064D01*
X145555499Y-95330188D01*
X145608978Y-95348436D01*
X145662115Y-95364169D01*
X145715957Y-95377748D01*
X145771551Y-95389537D01*
X145819025Y-95398094D01*
X145878301Y-95407475D01*
X145932886Y-95414849D01*
X145984804Y-95420377D01*
X146036074Y-95424223D01*
X146088721Y-95426550D01*
X146144766Y-95427522D01*
X146183292Y-95427509D01*
X146209880Y-95427309D01*
X146234924Y-95427051D01*
X146257330Y-95426751D01*
X146276003Y-95426426D01*
X146289851Y-95426092D01*
X146297777Y-95425767D01*
X146297944Y-95425755D01*
X146388991Y-95416740D01*
X146478800Y-95403096D01*
X146566515Y-95385042D01*
X146651282Y-95362798D01*
X146732244Y-95336583D01*
X146808545Y-95306619D01*
X146866209Y-95279817D01*
X146952043Y-95232919D01*
X147035670Y-95179377D01*
X147117012Y-95119273D01*
X147195994Y-95052690D01*
X147272539Y-94979708D01*
X147346571Y-94900411D01*
X147418015Y-94814879D01*
X147486793Y-94723196D01*
X147552829Y-94625442D01*
X147616048Y-94521701D01*
X147676373Y-94412053D01*
X147680700Y-94403746D01*
X147717707Y-94328734D01*
X147752221Y-94250989D01*
X147784600Y-94169580D01*
X147815202Y-94083574D01*
X147844388Y-93992039D01*
X147860890Y-93935758D01*
X147868457Y-93909169D01*
X148114194Y-93810044D01*
X148153671Y-93794069D01*
X148191187Y-93778791D01*
X148226234Y-93764422D01*
X148258306Y-93751173D01*
X148286898Y-93739257D01*
X148311502Y-93728887D01*
X148331612Y-93720274D01*
X148346722Y-93713630D01*
X148356326Y-93709168D01*
X148359917Y-93707101D01*
X148359931Y-93707055D01*
X148357356Y-93704178D01*
X148349885Y-93696965D01*
X148337902Y-93685762D01*
X148321787Y-93670917D01*
X148301922Y-93652776D01*
X148278690Y-93631686D01*
X148252471Y-93607994D01*
X148223649Y-93582048D01*
X148192605Y-93554193D01*
X148159720Y-93524778D01*
X148134153Y-93501966D01*
X147908375Y-93300741D01*
X147893997Y-93261022D01*
X147865662Y-93190948D01*
X147832414Y-93124045D01*
X147793848Y-93059707D01*
X147749555Y-92997324D01*
X147699130Y-92936287D01*
X147642165Y-92875990D01*
X147625776Y-92859917D01*
X147558462Y-92799739D01*
X147485870Y-92744059D01*
X147408266Y-92693010D01*
X147325914Y-92646722D01*
X147239079Y-92605330D01*
X147148026Y-92568964D01*
X147053021Y-92537758D01*
X146954329Y-92511842D01*
X146908250Y-92501834D01*
X146863853Y-92493197D01*
X146824131Y-92486427D01*
X146787021Y-92481295D01*
X146750460Y-92477572D01*
X146712386Y-92475029D01*
X146670735Y-92473439D01*
X146647194Y-92472916D01*
X146600426Y-92472493D01*
X146558969Y-92473103D01*
X146558969Y-92473103D01*
G37*
X146558969Y-92473103D02*
X146521134Y-92474878D01*
X146485237Y-92477950D01*
X146449588Y-92482451D01*
X146412501Y-92488512D01*
X146387463Y-92493226D01*
X146350495Y-92500873D01*
X146315230Y-92509056D01*
X146280622Y-92518108D01*
X146245624Y-92528364D01*
X146209191Y-92540156D01*
X146170278Y-92553818D01*
X146127839Y-92569684D01*
X146080827Y-92588088D01*
X146045263Y-92602406D01*
X145998042Y-92621805D01*
X145950102Y-92641943D01*
X145901041Y-92663011D01*
X145850453Y-92685199D01*
X145797934Y-92708695D01*
X145743079Y-92733689D01*
X145685486Y-92760372D01*
X145624749Y-92788932D01*
X145560464Y-92819559D01*
X145492227Y-92852442D01*
X145419635Y-92887772D01*
X145342281Y-92925737D01*
X145259764Y-92966528D01*
X145171677Y-93010333D01*
X145113915Y-93039177D01*
X145032201Y-93079964D01*
X144956268Y-93117698D01*
X144885642Y-93152596D01*
X144819851Y-93184875D01*
X144758423Y-93214752D01*
X144700885Y-93242444D01*
X144646765Y-93268167D01*
X144595591Y-93292138D01*
X144546889Y-93314575D01*
X144500189Y-93335695D01*
X144455018Y-93355714D01*
X144410903Y-93374848D01*
X144367371Y-93393316D01*
X144323951Y-93411334D01*
X144280171Y-93429119D01*
X144235557Y-93446888D01*
X144189637Y-93464857D01*
X144172458Y-93471509D01*
X144148476Y-93480793D01*
X144126212Y-93489455D01*
X144106652Y-93497109D01*
X144090781Y-93503366D01*
X144079586Y-93507840D01*
X144074216Y-93510070D01*
X144064168Y-93514573D01*
X144079302Y-93533849D01*
X144091111Y-93547902D01*
X144107080Y-93565482D01*
X144126079Y-93585449D01*
X144146977Y-93606663D01*
X144168643Y-93627986D01*
X144189945Y-93648277D01*
X144209754Y-93666397D01*
X144218319Y-93673920D01*
X144293898Y-93735039D01*
X144375648Y-93793238D01*
X144463253Y-93848375D01*
X144556399Y-93900306D01*
X144654769Y-93948886D01*
X144758048Y-93993973D01*
X144865921Y-94035422D01*
X144978072Y-94073091D01*
X145094186Y-94106835D01*
X145213946Y-94136510D01*
X145253722Y-94145281D01*
X145312747Y-94157567D01*
X145366586Y-94168013D01*
X145416795Y-94176877D01*
X145464926Y-94184413D01*
X145512531Y-94190877D01*
X145561165Y-94196526D01*
X145571222Y-94197588D01*
X145591268Y-94199185D01*
X145616488Y-94200438D01*
X145645561Y-94201348D01*
X145677167Y-94201913D01*
X145709986Y-94202134D01*
X145742697Y-94202011D01*
X145773980Y-94201543D01*
X145802515Y-94200730D01*
X145826981Y-94199572D01*
X145846059Y-94198069D01*
X145849917Y-94197629D01*
X145920413Y-94186359D01*
X145985332Y-94170777D01*
X146044686Y-94150875D01*
X146098489Y-94126642D01*
X146146754Y-94098071D01*
X146189494Y-94065152D01*
X146226725Y-94027875D01*
X146258458Y-93986233D01*
X146284708Y-93940216D01*
X146304186Y-93893556D01*
X146313436Y-93865336D01*
X146320050Y-93839790D01*
X146324389Y-93814670D01*
X146326811Y-93787726D01*
X146327677Y-93756710D01*
X146327689Y-93746690D01*
X146327494Y-93689783D01*
X146350459Y-93687430D01*
X146373423Y-93685078D01*
X146423181Y-93719010D01*
X146422739Y-93768359D01*
X146418754Y-93826590D01*
X146407973Y-93883341D01*
X146390573Y-93938195D01*
X146366733Y-93990732D01*
X146336631Y-94040536D01*
X146300446Y-94087188D01*
X146275226Y-94114155D01*
X146234590Y-94151000D01*
X146190860Y-94183371D01*
X146143528Y-94211491D01*
X146092089Y-94235584D01*
X146036034Y-94255873D01*
X145974857Y-94272584D01*
X145908052Y-94285938D01*
X145874611Y-94291113D01*
X145853545Y-94293389D01*
X145826697Y-94295185D01*
X145795325Y-94296500D01*
X145760685Y-94297334D01*
X145724034Y-94297688D01*
X145686631Y-94297562D01*
X145649731Y-94296956D01*
X145614593Y-94295870D01*
X145582474Y-94294303D01*
X145554630Y-94292257D01*
X145543000Y-94291088D01*
X145428753Y-94275915D01*
X145313621Y-94256055D01*
X145198476Y-94231770D01*
X145084191Y-94203321D01*
X144971641Y-94170969D01*
X144861697Y-94134975D01*
X144755234Y-94095600D01*
X144653124Y-94053106D01*
X144556240Y-94007754D01*
X144501392Y-93979498D01*
X144418282Y-93932751D01*
X144339342Y-93883631D01*
X144265019Y-93832487D01*
X144195759Y-93779668D01*
X144132007Y-93725522D01*
X144074209Y-93670397D01*
X144022812Y-93614643D01*
X144001120Y-93588480D01*
X143986411Y-93570572D01*
X143975353Y-93558259D01*
X143967679Y-93551267D01*
X143963122Y-93549322D01*
X143962894Y-93549373D01*
X143948318Y-93553012D01*
X143927871Y-93557139D01*
X143902704Y-93561588D01*
X143873971Y-93566193D01*
X143842826Y-93570787D01*
X143810421Y-93575204D01*
X143777909Y-93579276D01*
X143746444Y-93582837D01*
X143717179Y-93585720D01*
X143703264Y-93586893D01*
X143673004Y-93588630D01*
X143639491Y-93589311D01*
X143602279Y-93588909D01*
X143560925Y-93587398D01*
X143514983Y-93584750D01*
X143464009Y-93580938D01*
X143407559Y-93575937D01*
X143345188Y-93569719D01*
X143276452Y-93562256D01*
X143255236Y-93559853D01*
X143157304Y-93548039D01*
X143052890Y-93534253D01*
X142942274Y-93518544D01*
X142825733Y-93500962D01*
X142703546Y-93481559D01*
X142575989Y-93460386D01*
X142443343Y-93437492D01*
X142305883Y-93412928D01*
X142163890Y-93386746D01*
X142017640Y-93358995D01*
X141867412Y-93329727D01*
X141713483Y-93298991D01*
X141556133Y-93266840D01*
X141395639Y-93233322D01*
X141232279Y-93198489D01*
X141066331Y-93162392D01*
X141038028Y-93156166D01*
X141006495Y-93149268D01*
X140976427Y-93142787D01*
X140948674Y-93136899D01*
X140924087Y-93131780D01*
X140903516Y-93127607D01*
X140887814Y-93124556D01*
X140877830Y-93122804D01*
X140875750Y-93122520D01*
X140848371Y-93122603D01*
X140819403Y-93128198D01*
X140790663Y-93138640D01*
X140763968Y-93153263D01*
X140741137Y-93171400D01*
X140740423Y-93172097D01*
X140729666Y-93184458D01*
X140716441Y-93202584D01*
X140701127Y-93225782D01*
X140684102Y-93253362D01*
X140665747Y-93284633D01*
X140646438Y-93318902D01*
X140626556Y-93355479D01*
X140606479Y-93393671D01*
X140586585Y-93432789D01*
X140567253Y-93472139D01*
X140548863Y-93511031D01*
X140531792Y-93548774D01*
X140523062Y-93568888D01*
X140495582Y-93637828D01*
X140473705Y-93702753D01*
X140457436Y-93763631D01*
X140446780Y-93820428D01*
X140441742Y-93873112D01*
X140442326Y-93921650D01*
X140448538Y-93966008D01*
X140459697Y-94004355D01*
X140469279Y-94024617D01*
X140482842Y-94046530D01*
X140498641Y-94067628D01*
X140514928Y-94085441D01*
X140520911Y-94090860D01*
X140536300Y-94102771D01*
X140552919Y-94113287D01*
X140571311Y-94122518D01*
X140592022Y-94130574D01*
X140615594Y-94137565D01*
X140642573Y-94143602D01*
X140673502Y-94148794D01*
X140708926Y-94153252D01*
X140749388Y-94157086D01*
X140795433Y-94160405D01*
X140847604Y-94163321D01*
X140888097Y-94165182D01*
X140907868Y-94165961D01*
X140933696Y-94166876D01*
X140964584Y-94167897D01*
X140999536Y-94168994D01*
X141037554Y-94170137D01*
X141077643Y-94171294D01*
X141118805Y-94172437D01*
X141160044Y-94173534D01*
X141180903Y-94174070D01*
X141286868Y-94176865D01*
X141386377Y-94179728D01*
X141480029Y-94182688D01*
X141568424Y-94185774D01*
X141652160Y-94189016D01*
X141731838Y-94192444D01*
X141808056Y-94196086D01*
X141881413Y-94199972D01*
X141952509Y-94204132D01*
X142021944Y-94208595D01*
X142090317Y-94213390D01*
X142158226Y-94218548D01*
X142226271Y-94224096D01*
X142262167Y-94227168D01*
X142414575Y-94241484D01*
X142561084Y-94257501D01*
X142702686Y-94275426D01*
X142840371Y-94295462D01*
X142975131Y-94317813D01*
X143107958Y-94342686D01*
X143239844Y-94370283D01*
X143371779Y-94400811D01*
X143504756Y-94434473D01*
X143639766Y-94471474D01*
X143777801Y-94512018D01*
X143919851Y-94556311D01*
X144027819Y-94591516D01*
X144084471Y-94610415D01*
X144136899Y-94628181D01*
X144185676Y-94645079D01*
X144231373Y-94661377D01*
X144274563Y-94677340D01*
X144315816Y-94693235D01*
X144355705Y-94709327D01*
X144394801Y-94725884D01*
X144433675Y-94743170D01*
X144472901Y-94761452D01*
X144513048Y-94780997D01*
X144554690Y-94802071D01*
X144598398Y-94824939D01*
X144644743Y-94849869D01*
X144694297Y-94877125D01*
X144747632Y-94906975D01*
X144805320Y-94939684D01*
X144867932Y-94975519D01*
X144932694Y-95012815D01*
X144982887Y-95041743D01*
X145027657Y-95067450D01*
X145067661Y-95090298D01*
X145103555Y-95110648D01*
X145135994Y-95128863D01*
X145165635Y-95145303D01*
X145193134Y-95160330D01*
X145219147Y-95174307D01*
X145244330Y-95187594D01*
X145269338Y-95200554D01*
X145294828Y-95213549D01*
X145317222Y-95224820D01*
X145382539Y-95256741D01*
X145443326Y-95284702D01*
X145500631Y-95309064D01*
X145555499Y-95330188D01*
X145608978Y-95348436D01*
X145662115Y-95364169D01*
X145715957Y-95377748D01*
X145771551Y-95389537D01*
X145819025Y-95398094D01*
X145878301Y-95407475D01*
X145932886Y-95414849D01*
X145984804Y-95420377D01*
X146036074Y-95424223D01*
X146088721Y-95426550D01*
X146144766Y-95427522D01*
X146183292Y-95427509D01*
X146209880Y-95427309D01*
X146234924Y-95427051D01*
X146257330Y-95426751D01*
X146276003Y-95426426D01*
X146289851Y-95426092D01*
X146297777Y-95425767D01*
X146297944Y-95425755D01*
X146388991Y-95416740D01*
X146478800Y-95403096D01*
X146566515Y-95385042D01*
X146651282Y-95362798D01*
X146732244Y-95336583D01*
X146808545Y-95306619D01*
X146866209Y-95279817D01*
X146952043Y-95232919D01*
X147035670Y-95179377D01*
X147117012Y-95119273D01*
X147195994Y-95052690D01*
X147272539Y-94979708D01*
X147346571Y-94900411D01*
X147418015Y-94814879D01*
X147486793Y-94723196D01*
X147552829Y-94625442D01*
X147616048Y-94521701D01*
X147676373Y-94412053D01*
X147680700Y-94403746D01*
X147717707Y-94328734D01*
X147752221Y-94250989D01*
X147784600Y-94169580D01*
X147815202Y-94083574D01*
X147844388Y-93992039D01*
X147860890Y-93935758D01*
X147868457Y-93909169D01*
X148114194Y-93810044D01*
X148153671Y-93794069D01*
X148191187Y-93778791D01*
X148226234Y-93764422D01*
X148258306Y-93751173D01*
X148286898Y-93739257D01*
X148311502Y-93728887D01*
X148331612Y-93720274D01*
X148346722Y-93713630D01*
X148356326Y-93709168D01*
X148359917Y-93707101D01*
X148359931Y-93707055D01*
X148357356Y-93704178D01*
X148349885Y-93696965D01*
X148337902Y-93685762D01*
X148321787Y-93670917D01*
X148301922Y-93652776D01*
X148278690Y-93631686D01*
X148252471Y-93607994D01*
X148223649Y-93582048D01*
X148192605Y-93554193D01*
X148159720Y-93524778D01*
X148134153Y-93501966D01*
X147908375Y-93300741D01*
X147893997Y-93261022D01*
X147865662Y-93190948D01*
X147832414Y-93124045D01*
X147793848Y-93059707D01*
X147749555Y-92997324D01*
X147699130Y-92936287D01*
X147642165Y-92875990D01*
X147625776Y-92859917D01*
X147558462Y-92799739D01*
X147485870Y-92744059D01*
X147408266Y-92693010D01*
X147325914Y-92646722D01*
X147239079Y-92605330D01*
X147148026Y-92568964D01*
X147053021Y-92537758D01*
X146954329Y-92511842D01*
X146908250Y-92501834D01*
X146863853Y-92493197D01*
X146824131Y-92486427D01*
X146787021Y-92481295D01*
X146750460Y-92477572D01*
X146712386Y-92475029D01*
X146670735Y-92473439D01*
X146647194Y-92472916D01*
X146600426Y-92472493D01*
X146558969Y-92473103D01*
G36*
X158598969Y-122263103D02*
X158561134Y-122264878D01*
X158525237Y-122267950D01*
X158489588Y-122272451D01*
X158452501Y-122278512D01*
X158427463Y-122283226D01*
X158390495Y-122290873D01*
X158355230Y-122299056D01*
X158320622Y-122308108D01*
X158285624Y-122318364D01*
X158249191Y-122330156D01*
X158210278Y-122343818D01*
X158167839Y-122359684D01*
X158120827Y-122378088D01*
X158085263Y-122392406D01*
X158038042Y-122411805D01*
X157990102Y-122431943D01*
X157941041Y-122453011D01*
X157890453Y-122475199D01*
X157837934Y-122498695D01*
X157783079Y-122523689D01*
X157725486Y-122550372D01*
X157664749Y-122578932D01*
X157600464Y-122609559D01*
X157532227Y-122642442D01*
X157459635Y-122677772D01*
X157382281Y-122715737D01*
X157299764Y-122756528D01*
X157211677Y-122800333D01*
X157153915Y-122829177D01*
X157072201Y-122869964D01*
X156996268Y-122907698D01*
X156925642Y-122942596D01*
X156859851Y-122974875D01*
X156798423Y-123004752D01*
X156740885Y-123032444D01*
X156686765Y-123058167D01*
X156635591Y-123082138D01*
X156586889Y-123104575D01*
X156540189Y-123125695D01*
X156495018Y-123145714D01*
X156450903Y-123164848D01*
X156407371Y-123183316D01*
X156363951Y-123201334D01*
X156320171Y-123219119D01*
X156275557Y-123236888D01*
X156229637Y-123254857D01*
X156212458Y-123261509D01*
X156188476Y-123270793D01*
X156166212Y-123279455D01*
X156146652Y-123287109D01*
X156130781Y-123293366D01*
X156119586Y-123297840D01*
X156114216Y-123300070D01*
X156104168Y-123304573D01*
X156119302Y-123323849D01*
X156131111Y-123337902D01*
X156147080Y-123355482D01*
X156166079Y-123375449D01*
X156186977Y-123396663D01*
X156208643Y-123417986D01*
X156229945Y-123438277D01*
X156249754Y-123456397D01*
X156258319Y-123463920D01*
X156333898Y-123525039D01*
X156415648Y-123583238D01*
X156503253Y-123638375D01*
X156596399Y-123690306D01*
X156694769Y-123738886D01*
X156798048Y-123783973D01*
X156905921Y-123825422D01*
X157018072Y-123863091D01*
X157134186Y-123896835D01*
X157253946Y-123926510D01*
X157293722Y-123935281D01*
X157352747Y-123947567D01*
X157406586Y-123958013D01*
X157456795Y-123966877D01*
X157504926Y-123974413D01*
X157552531Y-123980877D01*
X157601165Y-123986526D01*
X157611222Y-123987588D01*
X157631268Y-123989185D01*
X157656488Y-123990438D01*
X157685561Y-123991348D01*
X157717167Y-123991913D01*
X157749986Y-123992134D01*
X157782697Y-123992011D01*
X157813980Y-123991543D01*
X157842515Y-123990730D01*
X157866981Y-123989572D01*
X157886059Y-123988069D01*
X157889917Y-123987629D01*
X157960413Y-123976359D01*
X158025332Y-123960777D01*
X158084686Y-123940875D01*
X158138489Y-123916642D01*
X158186754Y-123888071D01*
X158229494Y-123855152D01*
X158266725Y-123817875D01*
X158298458Y-123776233D01*
X158324708Y-123730216D01*
X158344186Y-123683556D01*
X158353436Y-123655336D01*
X158360050Y-123629790D01*
X158364389Y-123604670D01*
X158366811Y-123577726D01*
X158367677Y-123546710D01*
X158367689Y-123536690D01*
X158367494Y-123479783D01*
X158390459Y-123477430D01*
X158413423Y-123475078D01*
X158463181Y-123509010D01*
X158462739Y-123558359D01*
X158458754Y-123616590D01*
X158447973Y-123673341D01*
X158430573Y-123728195D01*
X158406733Y-123780732D01*
X158376631Y-123830536D01*
X158340446Y-123877188D01*
X158315226Y-123904155D01*
X158274590Y-123941000D01*
X158230860Y-123973371D01*
X158183528Y-124001491D01*
X158132089Y-124025584D01*
X158076034Y-124045873D01*
X158014857Y-124062584D01*
X157948052Y-124075938D01*
X157914611Y-124081113D01*
X157893545Y-124083389D01*
X157866697Y-124085185D01*
X157835325Y-124086500D01*
X157800685Y-124087334D01*
X157764034Y-124087688D01*
X157726631Y-124087562D01*
X157689731Y-124086956D01*
X157654593Y-124085870D01*
X157622474Y-124084303D01*
X157594630Y-124082257D01*
X157583000Y-124081088D01*
X157468753Y-124065915D01*
X157353621Y-124046055D01*
X157238476Y-124021770D01*
X157124191Y-123993321D01*
X157011641Y-123960969D01*
X156901697Y-123924975D01*
X156795234Y-123885600D01*
X156693124Y-123843106D01*
X156596240Y-123797754D01*
X156541392Y-123769498D01*
X156458282Y-123722751D01*
X156379342Y-123673631D01*
X156305019Y-123622487D01*
X156235759Y-123569668D01*
X156172007Y-123515522D01*
X156114209Y-123460397D01*
X156062812Y-123404643D01*
X156041120Y-123378480D01*
X156026411Y-123360572D01*
X156015353Y-123348259D01*
X156007679Y-123341267D01*
X156003122Y-123339322D01*
X156002894Y-123339373D01*
X155988318Y-123343012D01*
X155967871Y-123347139D01*
X155942704Y-123351588D01*
X155913971Y-123356193D01*
X155882826Y-123360787D01*
X155850421Y-123365204D01*
X155817909Y-123369276D01*
X155786444Y-123372837D01*
X155757179Y-123375720D01*
X155743264Y-123376893D01*
X155713004Y-123378630D01*
X155679491Y-123379311D01*
X155642279Y-123378909D01*
X155600925Y-123377398D01*
X155554983Y-123374750D01*
X155504009Y-123370938D01*
X155447559Y-123365937D01*
X155385188Y-123359719D01*
X155316452Y-123352256D01*
X155295236Y-123349853D01*
X155197304Y-123338039D01*
X155092890Y-123324253D01*
X154982274Y-123308544D01*
X154865733Y-123290962D01*
X154743546Y-123271559D01*
X154615989Y-123250386D01*
X154483343Y-123227492D01*
X154345883Y-123202928D01*
X154203890Y-123176746D01*
X154057640Y-123148995D01*
X153907412Y-123119727D01*
X153753483Y-123088991D01*
X153596133Y-123056840D01*
X153435639Y-123023322D01*
X153272279Y-122988489D01*
X153106331Y-122952392D01*
X153078028Y-122946166D01*
X153046495Y-122939268D01*
X153016427Y-122932787D01*
X152988674Y-122926899D01*
X152964087Y-122921780D01*
X152943516Y-122917607D01*
X152927814Y-122914556D01*
X152917830Y-122912804D01*
X152915750Y-122912520D01*
X152888371Y-122912603D01*
X152859403Y-122918198D01*
X152830663Y-122928640D01*
X152803968Y-122943263D01*
X152781137Y-122961400D01*
X152780423Y-122962097D01*
X152769666Y-122974458D01*
X152756441Y-122992584D01*
X152741127Y-123015782D01*
X152724102Y-123043362D01*
X152705747Y-123074633D01*
X152686438Y-123108902D01*
X152666556Y-123145479D01*
X152646479Y-123183671D01*
X152626585Y-123222789D01*
X152607253Y-123262139D01*
X152588863Y-123301031D01*
X152571792Y-123338774D01*
X152563062Y-123358888D01*
X152535582Y-123427828D01*
X152513705Y-123492753D01*
X152497436Y-123553631D01*
X152486780Y-123610428D01*
X152481742Y-123663112D01*
X152482326Y-123711650D01*
X152488538Y-123756008D01*
X152499697Y-123794355D01*
X152509279Y-123814617D01*
X152522842Y-123836530D01*
X152538641Y-123857628D01*
X152554928Y-123875441D01*
X152560911Y-123880860D01*
X152576300Y-123892771D01*
X152592919Y-123903287D01*
X152611311Y-123912518D01*
X152632022Y-123920574D01*
X152655594Y-123927565D01*
X152682573Y-123933602D01*
X152713502Y-123938794D01*
X152748926Y-123943252D01*
X152789388Y-123947086D01*
X152835433Y-123950405D01*
X152887604Y-123953321D01*
X152928097Y-123955182D01*
X152947868Y-123955961D01*
X152973696Y-123956876D01*
X153004584Y-123957897D01*
X153039536Y-123958994D01*
X153077554Y-123960137D01*
X153117643Y-123961294D01*
X153158805Y-123962437D01*
X153200044Y-123963534D01*
X153220903Y-123964070D01*
X153326868Y-123966865D01*
X153426377Y-123969728D01*
X153520029Y-123972688D01*
X153608424Y-123975774D01*
X153692160Y-123979016D01*
X153771838Y-123982444D01*
X153848056Y-123986086D01*
X153921413Y-123989972D01*
X153992509Y-123994132D01*
X154061944Y-123998595D01*
X154130317Y-124003390D01*
X154198226Y-124008548D01*
X154266271Y-124014096D01*
X154302167Y-124017168D01*
X154454575Y-124031484D01*
X154601084Y-124047501D01*
X154742686Y-124065426D01*
X154880371Y-124085462D01*
X155015131Y-124107813D01*
X155147958Y-124132686D01*
X155279844Y-124160283D01*
X155411779Y-124190811D01*
X155544756Y-124224473D01*
X155679766Y-124261474D01*
X155817801Y-124302018D01*
X155959851Y-124346311D01*
X156067819Y-124381516D01*
X156124471Y-124400415D01*
X156176899Y-124418181D01*
X156225676Y-124435079D01*
X156271373Y-124451377D01*
X156314563Y-124467340D01*
X156355816Y-124483235D01*
X156395705Y-124499327D01*
X156434801Y-124515884D01*
X156473675Y-124533170D01*
X156512901Y-124551452D01*
X156553048Y-124570997D01*
X156594690Y-124592071D01*
X156638398Y-124614939D01*
X156684743Y-124639869D01*
X156734297Y-124667125D01*
X156787632Y-124696975D01*
X156845320Y-124729684D01*
X156907932Y-124765519D01*
X156972694Y-124802815D01*
X157022887Y-124831743D01*
X157067657Y-124857450D01*
X157107661Y-124880298D01*
X157143555Y-124900648D01*
X157175994Y-124918863D01*
X157205635Y-124935303D01*
X157233134Y-124950330D01*
X157259147Y-124964307D01*
X157284330Y-124977594D01*
X157309338Y-124990554D01*
X157334828Y-125003549D01*
X157357222Y-125014820D01*
X157422539Y-125046741D01*
X157483326Y-125074702D01*
X157540631Y-125099064D01*
X157595499Y-125120188D01*
X157648978Y-125138436D01*
X157702115Y-125154169D01*
X157755957Y-125167748D01*
X157811551Y-125179537D01*
X157859025Y-125188094D01*
X157918301Y-125197475D01*
X157972886Y-125204849D01*
X158024804Y-125210377D01*
X158076074Y-125214223D01*
X158128721Y-125216550D01*
X158184766Y-125217522D01*
X158223292Y-125217509D01*
X158249880Y-125217309D01*
X158274924Y-125217051D01*
X158297330Y-125216751D01*
X158316003Y-125216426D01*
X158329851Y-125216092D01*
X158337777Y-125215767D01*
X158337944Y-125215755D01*
X158428991Y-125206740D01*
X158518800Y-125193096D01*
X158606515Y-125175042D01*
X158691282Y-125152798D01*
X158772244Y-125126583D01*
X158848545Y-125096619D01*
X158906209Y-125069817D01*
X158992043Y-125022919D01*
X159075670Y-124969377D01*
X159157012Y-124909273D01*
X159235994Y-124842690D01*
X159312539Y-124769708D01*
X159386571Y-124690411D01*
X159458015Y-124604879D01*
X159526793Y-124513196D01*
X159592829Y-124415442D01*
X159656048Y-124311701D01*
X159716373Y-124202053D01*
X159720700Y-124193746D01*
X159757707Y-124118734D01*
X159792221Y-124040989D01*
X159824600Y-123959580D01*
X159855202Y-123873574D01*
X159884388Y-123782039D01*
X159900890Y-123725758D01*
X159908457Y-123699169D01*
X160154194Y-123600044D01*
X160193671Y-123584069D01*
X160231187Y-123568791D01*
X160266234Y-123554422D01*
X160298306Y-123541173D01*
X160326898Y-123529257D01*
X160351502Y-123518887D01*
X160371612Y-123510274D01*
X160386722Y-123503630D01*
X160396326Y-123499168D01*
X160399917Y-123497101D01*
X160399931Y-123497055D01*
X160397356Y-123494178D01*
X160389885Y-123486965D01*
X160377902Y-123475762D01*
X160361787Y-123460917D01*
X160341922Y-123442776D01*
X160318690Y-123421686D01*
X160292471Y-123397994D01*
X160263649Y-123372048D01*
X160232605Y-123344193D01*
X160199720Y-123314778D01*
X160174153Y-123291966D01*
X159948375Y-123090741D01*
X159933997Y-123051022D01*
X159905662Y-122980948D01*
X159872414Y-122914045D01*
X159833848Y-122849707D01*
X159789555Y-122787324D01*
X159739130Y-122726287D01*
X159682165Y-122665990D01*
X159665776Y-122649917D01*
X159598462Y-122589739D01*
X159525870Y-122534059D01*
X159448266Y-122483010D01*
X159365914Y-122436722D01*
X159279079Y-122395330D01*
X159188026Y-122358964D01*
X159093021Y-122327758D01*
X158994329Y-122301842D01*
X158948250Y-122291834D01*
X158903853Y-122283197D01*
X158864131Y-122276427D01*
X158827021Y-122271295D01*
X158790460Y-122267572D01*
X158752386Y-122265029D01*
X158710735Y-122263439D01*
X158687194Y-122262916D01*
X158640426Y-122262493D01*
X158598969Y-122263103D01*
X158598969Y-122263103D01*
G37*
X158598969Y-122263103D02*
X158561134Y-122264878D01*
X158525237Y-122267950D01*
X158489588Y-122272451D01*
X158452501Y-122278512D01*
X158427463Y-122283226D01*
X158390495Y-122290873D01*
X158355230Y-122299056D01*
X158320622Y-122308108D01*
X158285624Y-122318364D01*
X158249191Y-122330156D01*
X158210278Y-122343818D01*
X158167839Y-122359684D01*
X158120827Y-122378088D01*
X158085263Y-122392406D01*
X158038042Y-122411805D01*
X157990102Y-122431943D01*
X157941041Y-122453011D01*
X157890453Y-122475199D01*
X157837934Y-122498695D01*
X157783079Y-122523689D01*
X157725486Y-122550372D01*
X157664749Y-122578932D01*
X157600464Y-122609559D01*
X157532227Y-122642442D01*
X157459635Y-122677772D01*
X157382281Y-122715737D01*
X157299764Y-122756528D01*
X157211677Y-122800333D01*
X157153915Y-122829177D01*
X157072201Y-122869964D01*
X156996268Y-122907698D01*
X156925642Y-122942596D01*
X156859851Y-122974875D01*
X156798423Y-123004752D01*
X156740885Y-123032444D01*
X156686765Y-123058167D01*
X156635591Y-123082138D01*
X156586889Y-123104575D01*
X156540189Y-123125695D01*
X156495018Y-123145714D01*
X156450903Y-123164848D01*
X156407371Y-123183316D01*
X156363951Y-123201334D01*
X156320171Y-123219119D01*
X156275557Y-123236888D01*
X156229637Y-123254857D01*
X156212458Y-123261509D01*
X156188476Y-123270793D01*
X156166212Y-123279455D01*
X156146652Y-123287109D01*
X156130781Y-123293366D01*
X156119586Y-123297840D01*
X156114216Y-123300070D01*
X156104168Y-123304573D01*
X156119302Y-123323849D01*
X156131111Y-123337902D01*
X156147080Y-123355482D01*
X156166079Y-123375449D01*
X156186977Y-123396663D01*
X156208643Y-123417986D01*
X156229945Y-123438277D01*
X156249754Y-123456397D01*
X156258319Y-123463920D01*
X156333898Y-123525039D01*
X156415648Y-123583238D01*
X156503253Y-123638375D01*
X156596399Y-123690306D01*
X156694769Y-123738886D01*
X156798048Y-123783973D01*
X156905921Y-123825422D01*
X157018072Y-123863091D01*
X157134186Y-123896835D01*
X157253946Y-123926510D01*
X157293722Y-123935281D01*
X157352747Y-123947567D01*
X157406586Y-123958013D01*
X157456795Y-123966877D01*
X157504926Y-123974413D01*
X157552531Y-123980877D01*
X157601165Y-123986526D01*
X157611222Y-123987588D01*
X157631268Y-123989185D01*
X157656488Y-123990438D01*
X157685561Y-123991348D01*
X157717167Y-123991913D01*
X157749986Y-123992134D01*
X157782697Y-123992011D01*
X157813980Y-123991543D01*
X157842515Y-123990730D01*
X157866981Y-123989572D01*
X157886059Y-123988069D01*
X157889917Y-123987629D01*
X157960413Y-123976359D01*
X158025332Y-123960777D01*
X158084686Y-123940875D01*
X158138489Y-123916642D01*
X158186754Y-123888071D01*
X158229494Y-123855152D01*
X158266725Y-123817875D01*
X158298458Y-123776233D01*
X158324708Y-123730216D01*
X158344186Y-123683556D01*
X158353436Y-123655336D01*
X158360050Y-123629790D01*
X158364389Y-123604670D01*
X158366811Y-123577726D01*
X158367677Y-123546710D01*
X158367689Y-123536690D01*
X158367494Y-123479783D01*
X158390459Y-123477430D01*
X158413423Y-123475078D01*
X158463181Y-123509010D01*
X158462739Y-123558359D01*
X158458754Y-123616590D01*
X158447973Y-123673341D01*
X158430573Y-123728195D01*
X158406733Y-123780732D01*
X158376631Y-123830536D01*
X158340446Y-123877188D01*
X158315226Y-123904155D01*
X158274590Y-123941000D01*
X158230860Y-123973371D01*
X158183528Y-124001491D01*
X158132089Y-124025584D01*
X158076034Y-124045873D01*
X158014857Y-124062584D01*
X157948052Y-124075938D01*
X157914611Y-124081113D01*
X157893545Y-124083389D01*
X157866697Y-124085185D01*
X157835325Y-124086500D01*
X157800685Y-124087334D01*
X157764034Y-124087688D01*
X157726631Y-124087562D01*
X157689731Y-124086956D01*
X157654593Y-124085870D01*
X157622474Y-124084303D01*
X157594630Y-124082257D01*
X157583000Y-124081088D01*
X157468753Y-124065915D01*
X157353621Y-124046055D01*
X157238476Y-124021770D01*
X157124191Y-123993321D01*
X157011641Y-123960969D01*
X156901697Y-123924975D01*
X156795234Y-123885600D01*
X156693124Y-123843106D01*
X156596240Y-123797754D01*
X156541392Y-123769498D01*
X156458282Y-123722751D01*
X156379342Y-123673631D01*
X156305019Y-123622487D01*
X156235759Y-123569668D01*
X156172007Y-123515522D01*
X156114209Y-123460397D01*
X156062812Y-123404643D01*
X156041120Y-123378480D01*
X156026411Y-123360572D01*
X156015353Y-123348259D01*
X156007679Y-123341267D01*
X156003122Y-123339322D01*
X156002894Y-123339373D01*
X155988318Y-123343012D01*
X155967871Y-123347139D01*
X155942704Y-123351588D01*
X155913971Y-123356193D01*
X155882826Y-123360787D01*
X155850421Y-123365204D01*
X155817909Y-123369276D01*
X155786444Y-123372837D01*
X155757179Y-123375720D01*
X155743264Y-123376893D01*
X155713004Y-123378630D01*
X155679491Y-123379311D01*
X155642279Y-123378909D01*
X155600925Y-123377398D01*
X155554983Y-123374750D01*
X155504009Y-123370938D01*
X155447559Y-123365937D01*
X155385188Y-123359719D01*
X155316452Y-123352256D01*
X155295236Y-123349853D01*
X155197304Y-123338039D01*
X155092890Y-123324253D01*
X154982274Y-123308544D01*
X154865733Y-123290962D01*
X154743546Y-123271559D01*
X154615989Y-123250386D01*
X154483343Y-123227492D01*
X154345883Y-123202928D01*
X154203890Y-123176746D01*
X154057640Y-123148995D01*
X153907412Y-123119727D01*
X153753483Y-123088991D01*
X153596133Y-123056840D01*
X153435639Y-123023322D01*
X153272279Y-122988489D01*
X153106331Y-122952392D01*
X153078028Y-122946166D01*
X153046495Y-122939268D01*
X153016427Y-122932787D01*
X152988674Y-122926899D01*
X152964087Y-122921780D01*
X152943516Y-122917607D01*
X152927814Y-122914556D01*
X152917830Y-122912804D01*
X152915750Y-122912520D01*
X152888371Y-122912603D01*
X152859403Y-122918198D01*
X152830663Y-122928640D01*
X152803968Y-122943263D01*
X152781137Y-122961400D01*
X152780423Y-122962097D01*
X152769666Y-122974458D01*
X152756441Y-122992584D01*
X152741127Y-123015782D01*
X152724102Y-123043362D01*
X152705747Y-123074633D01*
X152686438Y-123108902D01*
X152666556Y-123145479D01*
X152646479Y-123183671D01*
X152626585Y-123222789D01*
X152607253Y-123262139D01*
X152588863Y-123301031D01*
X152571792Y-123338774D01*
X152563062Y-123358888D01*
X152535582Y-123427828D01*
X152513705Y-123492753D01*
X152497436Y-123553631D01*
X152486780Y-123610428D01*
X152481742Y-123663112D01*
X152482326Y-123711650D01*
X152488538Y-123756008D01*
X152499697Y-123794355D01*
X152509279Y-123814617D01*
X152522842Y-123836530D01*
X152538641Y-123857628D01*
X152554928Y-123875441D01*
X152560911Y-123880860D01*
X152576300Y-123892771D01*
X152592919Y-123903287D01*
X152611311Y-123912518D01*
X152632022Y-123920574D01*
X152655594Y-123927565D01*
X152682573Y-123933602D01*
X152713502Y-123938794D01*
X152748926Y-123943252D01*
X152789388Y-123947086D01*
X152835433Y-123950405D01*
X152887604Y-123953321D01*
X152928097Y-123955182D01*
X152947868Y-123955961D01*
X152973696Y-123956876D01*
X153004584Y-123957897D01*
X153039536Y-123958994D01*
X153077554Y-123960137D01*
X153117643Y-123961294D01*
X153158805Y-123962437D01*
X153200044Y-123963534D01*
X153220903Y-123964070D01*
X153326868Y-123966865D01*
X153426377Y-123969728D01*
X153520029Y-123972688D01*
X153608424Y-123975774D01*
X153692160Y-123979016D01*
X153771838Y-123982444D01*
X153848056Y-123986086D01*
X153921413Y-123989972D01*
X153992509Y-123994132D01*
X154061944Y-123998595D01*
X154130317Y-124003390D01*
X154198226Y-124008548D01*
X154266271Y-124014096D01*
X154302167Y-124017168D01*
X154454575Y-124031484D01*
X154601084Y-124047501D01*
X154742686Y-124065426D01*
X154880371Y-124085462D01*
X155015131Y-124107813D01*
X155147958Y-124132686D01*
X155279844Y-124160283D01*
X155411779Y-124190811D01*
X155544756Y-124224473D01*
X155679766Y-124261474D01*
X155817801Y-124302018D01*
X155959851Y-124346311D01*
X156067819Y-124381516D01*
X156124471Y-124400415D01*
X156176899Y-124418181D01*
X156225676Y-124435079D01*
X156271373Y-124451377D01*
X156314563Y-124467340D01*
X156355816Y-124483235D01*
X156395705Y-124499327D01*
X156434801Y-124515884D01*
X156473675Y-124533170D01*
X156512901Y-124551452D01*
X156553048Y-124570997D01*
X156594690Y-124592071D01*
X156638398Y-124614939D01*
X156684743Y-124639869D01*
X156734297Y-124667125D01*
X156787632Y-124696975D01*
X156845320Y-124729684D01*
X156907932Y-124765519D01*
X156972694Y-124802815D01*
X157022887Y-124831743D01*
X157067657Y-124857450D01*
X157107661Y-124880298D01*
X157143555Y-124900648D01*
X157175994Y-124918863D01*
X157205635Y-124935303D01*
X157233134Y-124950330D01*
X157259147Y-124964307D01*
X157284330Y-124977594D01*
X157309338Y-124990554D01*
X157334828Y-125003549D01*
X157357222Y-125014820D01*
X157422539Y-125046741D01*
X157483326Y-125074702D01*
X157540631Y-125099064D01*
X157595499Y-125120188D01*
X157648978Y-125138436D01*
X157702115Y-125154169D01*
X157755957Y-125167748D01*
X157811551Y-125179537D01*
X157859025Y-125188094D01*
X157918301Y-125197475D01*
X157972886Y-125204849D01*
X158024804Y-125210377D01*
X158076074Y-125214223D01*
X158128721Y-125216550D01*
X158184766Y-125217522D01*
X158223292Y-125217509D01*
X158249880Y-125217309D01*
X158274924Y-125217051D01*
X158297330Y-125216751D01*
X158316003Y-125216426D01*
X158329851Y-125216092D01*
X158337777Y-125215767D01*
X158337944Y-125215755D01*
X158428991Y-125206740D01*
X158518800Y-125193096D01*
X158606515Y-125175042D01*
X158691282Y-125152798D01*
X158772244Y-125126583D01*
X158848545Y-125096619D01*
X158906209Y-125069817D01*
X158992043Y-125022919D01*
X159075670Y-124969377D01*
X159157012Y-124909273D01*
X159235994Y-124842690D01*
X159312539Y-124769708D01*
X159386571Y-124690411D01*
X159458015Y-124604879D01*
X159526793Y-124513196D01*
X159592829Y-124415442D01*
X159656048Y-124311701D01*
X159716373Y-124202053D01*
X159720700Y-124193746D01*
X159757707Y-124118734D01*
X159792221Y-124040989D01*
X159824600Y-123959580D01*
X159855202Y-123873574D01*
X159884388Y-123782039D01*
X159900890Y-123725758D01*
X159908457Y-123699169D01*
X160154194Y-123600044D01*
X160193671Y-123584069D01*
X160231187Y-123568791D01*
X160266234Y-123554422D01*
X160298306Y-123541173D01*
X160326898Y-123529257D01*
X160351502Y-123518887D01*
X160371612Y-123510274D01*
X160386722Y-123503630D01*
X160396326Y-123499168D01*
X160399917Y-123497101D01*
X160399931Y-123497055D01*
X160397356Y-123494178D01*
X160389885Y-123486965D01*
X160377902Y-123475762D01*
X160361787Y-123460917D01*
X160341922Y-123442776D01*
X160318690Y-123421686D01*
X160292471Y-123397994D01*
X160263649Y-123372048D01*
X160232605Y-123344193D01*
X160199720Y-123314778D01*
X160174153Y-123291966D01*
X159948375Y-123090741D01*
X159933997Y-123051022D01*
X159905662Y-122980948D01*
X159872414Y-122914045D01*
X159833848Y-122849707D01*
X159789555Y-122787324D01*
X159739130Y-122726287D01*
X159682165Y-122665990D01*
X159665776Y-122649917D01*
X159598462Y-122589739D01*
X159525870Y-122534059D01*
X159448266Y-122483010D01*
X159365914Y-122436722D01*
X159279079Y-122395330D01*
X159188026Y-122358964D01*
X159093021Y-122327758D01*
X158994329Y-122301842D01*
X158948250Y-122291834D01*
X158903853Y-122283197D01*
X158864131Y-122276427D01*
X158827021Y-122271295D01*
X158790460Y-122267572D01*
X158752386Y-122265029D01*
X158710735Y-122263439D01*
X158687194Y-122262916D01*
X158640426Y-122262493D01*
X158598969Y-122263103D01*
D12*
X160940000Y-121520000D03*
X135450000Y-122570000D03*
X135010000Y-94490000D03*
D13*
X131570000Y-112820000D03*
D14*
X131570000Y-110280000D03*
D13*
X131570000Y-107740000D03*
D14*
X131570000Y-105200000D03*
D13*
X131570000Y-102660000D03*
X134550000Y-103700000D03*
D14*
X134550000Y-106240000D03*
D13*
X134550000Y-108780000D03*
D14*
X134550000Y-111320000D03*
D15*
X161005000Y-115800000D03*
X158295000Y-115800000D03*
X161005000Y-100200000D03*
X158295000Y-100200000D03*
X161005000Y-115400000D03*
X161005000Y-115000000D03*
X161005000Y-114600000D03*
X161005000Y-114200000D03*
X161005000Y-113800000D03*
X161005000Y-113400000D03*
X161005000Y-113000000D03*
X161005000Y-112600000D03*
X161005000Y-112200000D03*
X161005000Y-111800000D03*
X161005000Y-111400000D03*
X161005000Y-111000000D03*
X161005000Y-110600000D03*
X161005000Y-110200000D03*
X161005000Y-109800000D03*
X161005000Y-109400000D03*
X161005000Y-109000000D03*
X161005000Y-108600000D03*
X161005000Y-108200000D03*
X161005000Y-107800000D03*
X161005000Y-107400000D03*
X161005000Y-107000000D03*
X161005000Y-106600000D03*
X161005000Y-106200000D03*
X161005000Y-105800000D03*
X161005000Y-105400000D03*
X161005000Y-105000000D03*
X161005000Y-104600000D03*
X161005000Y-104200000D03*
X161005000Y-103800000D03*
X161005000Y-103400000D03*
X161005000Y-103000000D03*
X161005000Y-102600000D03*
X161005000Y-102200000D03*
X161005000Y-101800000D03*
X161005000Y-101400000D03*
X161005000Y-101000000D03*
X161005000Y-100600000D03*
D16*
X161005000Y-99725000D03*
X158295000Y-99725000D03*
X161005000Y-116275000D03*
X158295000Y-116275000D03*
D15*
X158295000Y-100600000D03*
X158295000Y-101000000D03*
X158295000Y-101400000D03*
X158295000Y-101800000D03*
X158295000Y-102200000D03*
X158295000Y-102600000D03*
X158295000Y-103000000D03*
X158295000Y-103400000D03*
X158295000Y-103800000D03*
X158295000Y-104200000D03*
X158295000Y-104600000D03*
X158295000Y-105000000D03*
X158295000Y-105400000D03*
X158295000Y-105800000D03*
X158295000Y-106200000D03*
X158295000Y-106600000D03*
X158295000Y-107000000D03*
X158295000Y-107400000D03*
X158295000Y-107800000D03*
X158295000Y-108200000D03*
X158295000Y-108600000D03*
X158295000Y-109000000D03*
X158295000Y-109400000D03*
X158295000Y-109800000D03*
X158295000Y-110200000D03*
X158295000Y-110600000D03*
X158295000Y-111000000D03*
X158295000Y-111400000D03*
X158295000Y-111800000D03*
X158295000Y-112200000D03*
X158295000Y-112600000D03*
X158295000Y-113000000D03*
X158295000Y-113400000D03*
X158295000Y-113800000D03*
X158295000Y-114200000D03*
X158295000Y-114600000D03*
X158295000Y-115000000D03*
X158295000Y-115400000D03*
D17*
X156250000Y-95900000D03*
X158150000Y-95900000D03*
D18*
X158712500Y-92862500D03*
X158712500Y-93362500D03*
X158712500Y-93862500D03*
X158712500Y-94362500D03*
X155812500Y-94362500D03*
X155812500Y-93862500D03*
X155812500Y-93362500D03*
X155812500Y-92862500D03*
D19*
X156825000Y-93975000D03*
X156825000Y-93250000D03*
X157700000Y-93975000D03*
X157700000Y-93250000D03*
D20*
X156550000Y-91200000D03*
X154350000Y-91200000D03*
D21*
X158550000Y-91250000D03*
D22*
X147350000Y-113890000D03*
D23*
X144810000Y-113890000D03*
X142270000Y-113890000D03*
X139730000Y-113890000D03*
X137190000Y-113890000D03*
X134650000Y-113890000D03*
D22*
X147400000Y-101200000D03*
D23*
X144860000Y-101200000D03*
X142320000Y-101200000D03*
X139780000Y-101200000D03*
X137240000Y-101200000D03*
D22*
X134700000Y-101200000D03*
D24*
X147400000Y-109140000D03*
D25*
X147400000Y-106600000D03*
D22*
X150745000Y-124450000D03*
D23*
X148205000Y-124450000D03*
X145665000Y-124450000D03*
X143125000Y-124450000D03*
X140585000Y-124450000D03*
X138045000Y-124450000D03*
D26*
X151940000Y-117170000D03*
X151940000Y-119070000D03*
X151940000Y-115180000D03*
X151940000Y-113280000D03*
D27*
X141850000Y-116590000D03*
X141850000Y-118790000D03*
D28*
X143790000Y-118205000D03*
X143790000Y-117555000D03*
X143790000Y-116905000D03*
X143790000Y-116255000D03*
X149690000Y-116255000D03*
X149690000Y-116905000D03*
X149690000Y-117555000D03*
X149690000Y-118205000D03*
M02*
