G04 #@! TF.FileFunction,Soldermask,Top*
%FSLAX46Y46*%
G04 Gerber Fmt 4.6, Leading zero omitted, Abs format (unit mm)*
G04 Created by KiCad (PCBNEW 4.0.1-stable) date Tuesday, April 12, 2016 'PMt' 11:05:27 PM*
%MOMM*%
G01*
G04 APERTURE LIST*
%ADD10C,0.100000*%
%ADD11C,0.010000*%
%ADD12C,2.000000*%
%ADD13O,2.184400X1.879600*%
%ADD14R,2.184400X1.879600*%
%ADD15R,1.653540X0.551180*%
%ADD16R,1.752400X2.152400*%
%ADD17R,0.949960X0.949960*%
%ADD18R,1.052400X1.352400*%
%ADD19R,1.879600X2.184400*%
%ADD20O,1.879600X2.184400*%
%ADD21R,2.184400X2.184400*%
%ADD22O,2.184400X2.184400*%
%ADD23R,0.852400X0.352400*%
%ADD24R,0.952500X0.952500*%
%ADD25R,1.352400X1.052400*%
%ADD26R,0.752400X0.852400*%
G04 APERTURE END LIST*
D10*
D11*
G36*
X146441031Y-92473103D02*
X146478866Y-92474878D01*
X146514763Y-92477950D01*
X146550412Y-92482451D01*
X146587499Y-92488512D01*
X146612537Y-92493226D01*
X146649505Y-92500873D01*
X146684770Y-92509056D01*
X146719378Y-92518108D01*
X146754376Y-92528364D01*
X146790809Y-92540156D01*
X146829722Y-92553818D01*
X146872161Y-92569684D01*
X146919173Y-92588088D01*
X146954737Y-92602406D01*
X147001958Y-92621805D01*
X147049898Y-92641943D01*
X147098959Y-92663011D01*
X147149547Y-92685199D01*
X147202066Y-92708695D01*
X147256921Y-92733689D01*
X147314514Y-92760372D01*
X147375251Y-92788932D01*
X147439536Y-92819559D01*
X147507773Y-92852442D01*
X147580365Y-92887772D01*
X147657719Y-92925737D01*
X147740236Y-92966528D01*
X147828323Y-93010333D01*
X147886085Y-93039177D01*
X147967799Y-93079964D01*
X148043732Y-93117698D01*
X148114358Y-93152596D01*
X148180149Y-93184875D01*
X148241577Y-93214752D01*
X148299115Y-93242444D01*
X148353235Y-93268167D01*
X148404409Y-93292138D01*
X148453111Y-93314575D01*
X148499811Y-93335695D01*
X148544982Y-93355714D01*
X148589097Y-93374848D01*
X148632629Y-93393316D01*
X148676049Y-93411334D01*
X148719829Y-93429119D01*
X148764443Y-93446888D01*
X148810363Y-93464857D01*
X148827542Y-93471509D01*
X148851524Y-93480793D01*
X148873788Y-93489455D01*
X148893348Y-93497109D01*
X148909219Y-93503366D01*
X148920414Y-93507840D01*
X148925784Y-93510070D01*
X148935832Y-93514573D01*
X148920698Y-93533849D01*
X148908889Y-93547902D01*
X148892920Y-93565482D01*
X148873921Y-93585449D01*
X148853023Y-93606663D01*
X148831357Y-93627986D01*
X148810055Y-93648277D01*
X148790246Y-93666397D01*
X148781681Y-93673920D01*
X148706102Y-93735039D01*
X148624352Y-93793238D01*
X148536747Y-93848375D01*
X148443601Y-93900306D01*
X148345231Y-93948886D01*
X148241952Y-93993973D01*
X148134079Y-94035422D01*
X148021928Y-94073091D01*
X147905814Y-94106835D01*
X147786054Y-94136510D01*
X147746278Y-94145281D01*
X147687253Y-94157567D01*
X147633414Y-94168013D01*
X147583205Y-94176877D01*
X147535074Y-94184413D01*
X147487469Y-94190877D01*
X147438835Y-94196526D01*
X147428778Y-94197588D01*
X147408732Y-94199185D01*
X147383512Y-94200438D01*
X147354439Y-94201348D01*
X147322833Y-94201913D01*
X147290014Y-94202134D01*
X147257303Y-94202011D01*
X147226020Y-94201543D01*
X147197485Y-94200730D01*
X147173019Y-94199572D01*
X147153941Y-94198069D01*
X147150083Y-94197629D01*
X147079587Y-94186359D01*
X147014668Y-94170777D01*
X146955314Y-94150875D01*
X146901511Y-94126642D01*
X146853246Y-94098071D01*
X146810506Y-94065152D01*
X146773275Y-94027875D01*
X146741542Y-93986233D01*
X146715292Y-93940216D01*
X146695814Y-93893556D01*
X146686564Y-93865336D01*
X146679950Y-93839790D01*
X146675611Y-93814670D01*
X146673189Y-93787726D01*
X146672323Y-93756710D01*
X146672311Y-93746690D01*
X146672506Y-93689783D01*
X146649541Y-93687430D01*
X146626577Y-93685078D01*
X146576819Y-93719010D01*
X146577261Y-93768359D01*
X146581246Y-93826590D01*
X146592027Y-93883341D01*
X146609427Y-93938195D01*
X146633267Y-93990732D01*
X146663369Y-94040536D01*
X146699554Y-94087188D01*
X146724774Y-94114155D01*
X146765410Y-94151000D01*
X146809140Y-94183371D01*
X146856472Y-94211491D01*
X146907911Y-94235584D01*
X146963966Y-94255873D01*
X147025143Y-94272584D01*
X147091948Y-94285938D01*
X147125389Y-94291113D01*
X147146455Y-94293389D01*
X147173303Y-94295185D01*
X147204675Y-94296500D01*
X147239315Y-94297334D01*
X147275966Y-94297688D01*
X147313369Y-94297562D01*
X147350269Y-94296956D01*
X147385407Y-94295870D01*
X147417526Y-94294303D01*
X147445370Y-94292257D01*
X147457000Y-94291088D01*
X147571247Y-94275915D01*
X147686379Y-94256055D01*
X147801524Y-94231770D01*
X147915809Y-94203321D01*
X148028359Y-94170969D01*
X148138303Y-94134975D01*
X148244766Y-94095600D01*
X148346876Y-94053106D01*
X148443760Y-94007754D01*
X148498608Y-93979498D01*
X148581718Y-93932751D01*
X148660658Y-93883631D01*
X148734981Y-93832487D01*
X148804241Y-93779668D01*
X148867993Y-93725522D01*
X148925791Y-93670397D01*
X148977188Y-93614643D01*
X148998880Y-93588480D01*
X149013589Y-93570572D01*
X149024647Y-93558259D01*
X149032321Y-93551267D01*
X149036878Y-93549322D01*
X149037106Y-93549373D01*
X149051682Y-93553012D01*
X149072129Y-93557139D01*
X149097296Y-93561588D01*
X149126029Y-93566193D01*
X149157174Y-93570787D01*
X149189579Y-93575204D01*
X149222091Y-93579276D01*
X149253556Y-93582837D01*
X149282821Y-93585720D01*
X149296736Y-93586893D01*
X149326996Y-93588630D01*
X149360509Y-93589311D01*
X149397721Y-93588909D01*
X149439075Y-93587398D01*
X149485017Y-93584750D01*
X149535991Y-93580938D01*
X149592441Y-93575937D01*
X149654812Y-93569719D01*
X149723548Y-93562256D01*
X149744764Y-93559853D01*
X149842696Y-93548039D01*
X149947110Y-93534253D01*
X150057726Y-93518544D01*
X150174267Y-93500962D01*
X150296454Y-93481559D01*
X150424011Y-93460386D01*
X150556657Y-93437492D01*
X150694117Y-93412928D01*
X150836110Y-93386746D01*
X150982360Y-93358995D01*
X151132588Y-93329727D01*
X151286517Y-93298991D01*
X151443867Y-93266840D01*
X151604361Y-93233322D01*
X151767721Y-93198489D01*
X151933669Y-93162392D01*
X151961972Y-93156166D01*
X151993505Y-93149268D01*
X152023573Y-93142787D01*
X152051326Y-93136899D01*
X152075913Y-93131780D01*
X152096484Y-93127607D01*
X152112186Y-93124556D01*
X152122170Y-93122804D01*
X152124250Y-93122520D01*
X152151629Y-93122603D01*
X152180597Y-93128198D01*
X152209337Y-93138640D01*
X152236032Y-93153263D01*
X152258863Y-93171400D01*
X152259577Y-93172097D01*
X152270334Y-93184458D01*
X152283559Y-93202584D01*
X152298873Y-93225782D01*
X152315898Y-93253362D01*
X152334253Y-93284633D01*
X152353562Y-93318902D01*
X152373444Y-93355479D01*
X152393521Y-93393671D01*
X152413415Y-93432789D01*
X152432747Y-93472139D01*
X152451137Y-93511031D01*
X152468208Y-93548774D01*
X152476938Y-93568888D01*
X152504418Y-93637828D01*
X152526295Y-93702753D01*
X152542564Y-93763631D01*
X152553220Y-93820428D01*
X152558258Y-93873112D01*
X152557674Y-93921650D01*
X152551462Y-93966008D01*
X152540303Y-94004355D01*
X152530721Y-94024617D01*
X152517158Y-94046530D01*
X152501359Y-94067628D01*
X152485072Y-94085441D01*
X152479089Y-94090860D01*
X152463700Y-94102771D01*
X152447081Y-94113287D01*
X152428689Y-94122518D01*
X152407978Y-94130574D01*
X152384406Y-94137565D01*
X152357427Y-94143602D01*
X152326498Y-94148794D01*
X152291074Y-94153252D01*
X152250612Y-94157086D01*
X152204567Y-94160405D01*
X152152396Y-94163321D01*
X152111903Y-94165182D01*
X152092132Y-94165961D01*
X152066304Y-94166876D01*
X152035416Y-94167897D01*
X152000464Y-94168994D01*
X151962446Y-94170137D01*
X151922357Y-94171294D01*
X151881195Y-94172437D01*
X151839956Y-94173534D01*
X151819097Y-94174070D01*
X151713132Y-94176865D01*
X151613623Y-94179728D01*
X151519971Y-94182688D01*
X151431576Y-94185774D01*
X151347840Y-94189016D01*
X151268162Y-94192444D01*
X151191944Y-94196086D01*
X151118587Y-94199972D01*
X151047491Y-94204132D01*
X150978056Y-94208595D01*
X150909683Y-94213390D01*
X150841774Y-94218548D01*
X150773729Y-94224096D01*
X150737833Y-94227168D01*
X150585425Y-94241484D01*
X150438916Y-94257501D01*
X150297314Y-94275426D01*
X150159629Y-94295462D01*
X150024869Y-94317813D01*
X149892042Y-94342686D01*
X149760156Y-94370283D01*
X149628221Y-94400811D01*
X149495244Y-94434473D01*
X149360234Y-94471474D01*
X149222199Y-94512018D01*
X149080149Y-94556311D01*
X148972181Y-94591516D01*
X148915529Y-94610415D01*
X148863101Y-94628181D01*
X148814324Y-94645079D01*
X148768627Y-94661377D01*
X148725437Y-94677340D01*
X148684184Y-94693235D01*
X148644295Y-94709327D01*
X148605199Y-94725884D01*
X148566325Y-94743170D01*
X148527099Y-94761452D01*
X148486952Y-94780997D01*
X148445310Y-94802071D01*
X148401602Y-94824939D01*
X148355257Y-94849869D01*
X148305703Y-94877125D01*
X148252368Y-94906975D01*
X148194680Y-94939684D01*
X148132068Y-94975519D01*
X148067306Y-95012815D01*
X148017113Y-95041743D01*
X147972343Y-95067450D01*
X147932339Y-95090298D01*
X147896445Y-95110648D01*
X147864006Y-95128863D01*
X147834365Y-95145303D01*
X147806866Y-95160330D01*
X147780853Y-95174307D01*
X147755670Y-95187594D01*
X147730662Y-95200554D01*
X147705172Y-95213549D01*
X147682778Y-95224820D01*
X147617461Y-95256741D01*
X147556674Y-95284702D01*
X147499369Y-95309064D01*
X147444501Y-95330188D01*
X147391022Y-95348436D01*
X147337885Y-95364169D01*
X147284043Y-95377748D01*
X147228449Y-95389537D01*
X147180975Y-95398094D01*
X147121699Y-95407475D01*
X147067114Y-95414849D01*
X147015196Y-95420377D01*
X146963926Y-95424223D01*
X146911279Y-95426550D01*
X146855234Y-95427522D01*
X146816708Y-95427509D01*
X146790120Y-95427309D01*
X146765076Y-95427051D01*
X146742670Y-95426751D01*
X146723997Y-95426426D01*
X146710149Y-95426092D01*
X146702223Y-95425767D01*
X146702056Y-95425755D01*
X146611009Y-95416740D01*
X146521200Y-95403096D01*
X146433485Y-95385042D01*
X146348718Y-95362798D01*
X146267756Y-95336583D01*
X146191455Y-95306619D01*
X146133791Y-95279817D01*
X146047957Y-95232919D01*
X145964330Y-95179377D01*
X145882988Y-95119273D01*
X145804006Y-95052690D01*
X145727461Y-94979708D01*
X145653429Y-94900411D01*
X145581985Y-94814879D01*
X145513207Y-94723196D01*
X145447171Y-94625442D01*
X145383952Y-94521701D01*
X145323627Y-94412053D01*
X145319300Y-94403746D01*
X145282293Y-94328734D01*
X145247779Y-94250989D01*
X145215400Y-94169580D01*
X145184798Y-94083574D01*
X145155612Y-93992039D01*
X145139110Y-93935758D01*
X145131543Y-93909169D01*
X144885806Y-93810044D01*
X144846329Y-93794069D01*
X144808813Y-93778791D01*
X144773766Y-93764422D01*
X144741694Y-93751173D01*
X144713102Y-93739257D01*
X144688498Y-93728887D01*
X144668388Y-93720274D01*
X144653278Y-93713630D01*
X144643674Y-93709168D01*
X144640083Y-93707101D01*
X144640069Y-93707055D01*
X144642644Y-93704178D01*
X144650115Y-93696965D01*
X144662098Y-93685762D01*
X144678213Y-93670917D01*
X144698078Y-93652776D01*
X144721310Y-93631686D01*
X144747529Y-93607994D01*
X144776351Y-93582048D01*
X144807395Y-93554193D01*
X144840280Y-93524778D01*
X144865847Y-93501966D01*
X145091625Y-93300741D01*
X145106003Y-93261022D01*
X145134338Y-93190948D01*
X145167586Y-93124045D01*
X145206152Y-93059707D01*
X145250445Y-92997324D01*
X145300870Y-92936287D01*
X145357835Y-92875990D01*
X145374224Y-92859917D01*
X145441538Y-92799739D01*
X145514130Y-92744059D01*
X145591734Y-92693010D01*
X145674086Y-92646722D01*
X145760921Y-92605330D01*
X145851974Y-92568964D01*
X145946979Y-92537758D01*
X146045671Y-92511842D01*
X146091750Y-92501834D01*
X146136147Y-92493197D01*
X146175869Y-92486427D01*
X146212979Y-92481295D01*
X146249540Y-92477572D01*
X146287614Y-92475029D01*
X146329265Y-92473439D01*
X146352806Y-92472916D01*
X146399574Y-92472493D01*
X146441031Y-92473103D01*
X146441031Y-92473103D01*
G37*
X146441031Y-92473103D02*
X146478866Y-92474878D01*
X146514763Y-92477950D01*
X146550412Y-92482451D01*
X146587499Y-92488512D01*
X146612537Y-92493226D01*
X146649505Y-92500873D01*
X146684770Y-92509056D01*
X146719378Y-92518108D01*
X146754376Y-92528364D01*
X146790809Y-92540156D01*
X146829722Y-92553818D01*
X146872161Y-92569684D01*
X146919173Y-92588088D01*
X146954737Y-92602406D01*
X147001958Y-92621805D01*
X147049898Y-92641943D01*
X147098959Y-92663011D01*
X147149547Y-92685199D01*
X147202066Y-92708695D01*
X147256921Y-92733689D01*
X147314514Y-92760372D01*
X147375251Y-92788932D01*
X147439536Y-92819559D01*
X147507773Y-92852442D01*
X147580365Y-92887772D01*
X147657719Y-92925737D01*
X147740236Y-92966528D01*
X147828323Y-93010333D01*
X147886085Y-93039177D01*
X147967799Y-93079964D01*
X148043732Y-93117698D01*
X148114358Y-93152596D01*
X148180149Y-93184875D01*
X148241577Y-93214752D01*
X148299115Y-93242444D01*
X148353235Y-93268167D01*
X148404409Y-93292138D01*
X148453111Y-93314575D01*
X148499811Y-93335695D01*
X148544982Y-93355714D01*
X148589097Y-93374848D01*
X148632629Y-93393316D01*
X148676049Y-93411334D01*
X148719829Y-93429119D01*
X148764443Y-93446888D01*
X148810363Y-93464857D01*
X148827542Y-93471509D01*
X148851524Y-93480793D01*
X148873788Y-93489455D01*
X148893348Y-93497109D01*
X148909219Y-93503366D01*
X148920414Y-93507840D01*
X148925784Y-93510070D01*
X148935832Y-93514573D01*
X148920698Y-93533849D01*
X148908889Y-93547902D01*
X148892920Y-93565482D01*
X148873921Y-93585449D01*
X148853023Y-93606663D01*
X148831357Y-93627986D01*
X148810055Y-93648277D01*
X148790246Y-93666397D01*
X148781681Y-93673920D01*
X148706102Y-93735039D01*
X148624352Y-93793238D01*
X148536747Y-93848375D01*
X148443601Y-93900306D01*
X148345231Y-93948886D01*
X148241952Y-93993973D01*
X148134079Y-94035422D01*
X148021928Y-94073091D01*
X147905814Y-94106835D01*
X147786054Y-94136510D01*
X147746278Y-94145281D01*
X147687253Y-94157567D01*
X147633414Y-94168013D01*
X147583205Y-94176877D01*
X147535074Y-94184413D01*
X147487469Y-94190877D01*
X147438835Y-94196526D01*
X147428778Y-94197588D01*
X147408732Y-94199185D01*
X147383512Y-94200438D01*
X147354439Y-94201348D01*
X147322833Y-94201913D01*
X147290014Y-94202134D01*
X147257303Y-94202011D01*
X147226020Y-94201543D01*
X147197485Y-94200730D01*
X147173019Y-94199572D01*
X147153941Y-94198069D01*
X147150083Y-94197629D01*
X147079587Y-94186359D01*
X147014668Y-94170777D01*
X146955314Y-94150875D01*
X146901511Y-94126642D01*
X146853246Y-94098071D01*
X146810506Y-94065152D01*
X146773275Y-94027875D01*
X146741542Y-93986233D01*
X146715292Y-93940216D01*
X146695814Y-93893556D01*
X146686564Y-93865336D01*
X146679950Y-93839790D01*
X146675611Y-93814670D01*
X146673189Y-93787726D01*
X146672323Y-93756710D01*
X146672311Y-93746690D01*
X146672506Y-93689783D01*
X146649541Y-93687430D01*
X146626577Y-93685078D01*
X146576819Y-93719010D01*
X146577261Y-93768359D01*
X146581246Y-93826590D01*
X146592027Y-93883341D01*
X146609427Y-93938195D01*
X146633267Y-93990732D01*
X146663369Y-94040536D01*
X146699554Y-94087188D01*
X146724774Y-94114155D01*
X146765410Y-94151000D01*
X146809140Y-94183371D01*
X146856472Y-94211491D01*
X146907911Y-94235584D01*
X146963966Y-94255873D01*
X147025143Y-94272584D01*
X147091948Y-94285938D01*
X147125389Y-94291113D01*
X147146455Y-94293389D01*
X147173303Y-94295185D01*
X147204675Y-94296500D01*
X147239315Y-94297334D01*
X147275966Y-94297688D01*
X147313369Y-94297562D01*
X147350269Y-94296956D01*
X147385407Y-94295870D01*
X147417526Y-94294303D01*
X147445370Y-94292257D01*
X147457000Y-94291088D01*
X147571247Y-94275915D01*
X147686379Y-94256055D01*
X147801524Y-94231770D01*
X147915809Y-94203321D01*
X148028359Y-94170969D01*
X148138303Y-94134975D01*
X148244766Y-94095600D01*
X148346876Y-94053106D01*
X148443760Y-94007754D01*
X148498608Y-93979498D01*
X148581718Y-93932751D01*
X148660658Y-93883631D01*
X148734981Y-93832487D01*
X148804241Y-93779668D01*
X148867993Y-93725522D01*
X148925791Y-93670397D01*
X148977188Y-93614643D01*
X148998880Y-93588480D01*
X149013589Y-93570572D01*
X149024647Y-93558259D01*
X149032321Y-93551267D01*
X149036878Y-93549322D01*
X149037106Y-93549373D01*
X149051682Y-93553012D01*
X149072129Y-93557139D01*
X149097296Y-93561588D01*
X149126029Y-93566193D01*
X149157174Y-93570787D01*
X149189579Y-93575204D01*
X149222091Y-93579276D01*
X149253556Y-93582837D01*
X149282821Y-93585720D01*
X149296736Y-93586893D01*
X149326996Y-93588630D01*
X149360509Y-93589311D01*
X149397721Y-93588909D01*
X149439075Y-93587398D01*
X149485017Y-93584750D01*
X149535991Y-93580938D01*
X149592441Y-93575937D01*
X149654812Y-93569719D01*
X149723548Y-93562256D01*
X149744764Y-93559853D01*
X149842696Y-93548039D01*
X149947110Y-93534253D01*
X150057726Y-93518544D01*
X150174267Y-93500962D01*
X150296454Y-93481559D01*
X150424011Y-93460386D01*
X150556657Y-93437492D01*
X150694117Y-93412928D01*
X150836110Y-93386746D01*
X150982360Y-93358995D01*
X151132588Y-93329727D01*
X151286517Y-93298991D01*
X151443867Y-93266840D01*
X151604361Y-93233322D01*
X151767721Y-93198489D01*
X151933669Y-93162392D01*
X151961972Y-93156166D01*
X151993505Y-93149268D01*
X152023573Y-93142787D01*
X152051326Y-93136899D01*
X152075913Y-93131780D01*
X152096484Y-93127607D01*
X152112186Y-93124556D01*
X152122170Y-93122804D01*
X152124250Y-93122520D01*
X152151629Y-93122603D01*
X152180597Y-93128198D01*
X152209337Y-93138640D01*
X152236032Y-93153263D01*
X152258863Y-93171400D01*
X152259577Y-93172097D01*
X152270334Y-93184458D01*
X152283559Y-93202584D01*
X152298873Y-93225782D01*
X152315898Y-93253362D01*
X152334253Y-93284633D01*
X152353562Y-93318902D01*
X152373444Y-93355479D01*
X152393521Y-93393671D01*
X152413415Y-93432789D01*
X152432747Y-93472139D01*
X152451137Y-93511031D01*
X152468208Y-93548774D01*
X152476938Y-93568888D01*
X152504418Y-93637828D01*
X152526295Y-93702753D01*
X152542564Y-93763631D01*
X152553220Y-93820428D01*
X152558258Y-93873112D01*
X152557674Y-93921650D01*
X152551462Y-93966008D01*
X152540303Y-94004355D01*
X152530721Y-94024617D01*
X152517158Y-94046530D01*
X152501359Y-94067628D01*
X152485072Y-94085441D01*
X152479089Y-94090860D01*
X152463700Y-94102771D01*
X152447081Y-94113287D01*
X152428689Y-94122518D01*
X152407978Y-94130574D01*
X152384406Y-94137565D01*
X152357427Y-94143602D01*
X152326498Y-94148794D01*
X152291074Y-94153252D01*
X152250612Y-94157086D01*
X152204567Y-94160405D01*
X152152396Y-94163321D01*
X152111903Y-94165182D01*
X152092132Y-94165961D01*
X152066304Y-94166876D01*
X152035416Y-94167897D01*
X152000464Y-94168994D01*
X151962446Y-94170137D01*
X151922357Y-94171294D01*
X151881195Y-94172437D01*
X151839956Y-94173534D01*
X151819097Y-94174070D01*
X151713132Y-94176865D01*
X151613623Y-94179728D01*
X151519971Y-94182688D01*
X151431576Y-94185774D01*
X151347840Y-94189016D01*
X151268162Y-94192444D01*
X151191944Y-94196086D01*
X151118587Y-94199972D01*
X151047491Y-94204132D01*
X150978056Y-94208595D01*
X150909683Y-94213390D01*
X150841774Y-94218548D01*
X150773729Y-94224096D01*
X150737833Y-94227168D01*
X150585425Y-94241484D01*
X150438916Y-94257501D01*
X150297314Y-94275426D01*
X150159629Y-94295462D01*
X150024869Y-94317813D01*
X149892042Y-94342686D01*
X149760156Y-94370283D01*
X149628221Y-94400811D01*
X149495244Y-94434473D01*
X149360234Y-94471474D01*
X149222199Y-94512018D01*
X149080149Y-94556311D01*
X148972181Y-94591516D01*
X148915529Y-94610415D01*
X148863101Y-94628181D01*
X148814324Y-94645079D01*
X148768627Y-94661377D01*
X148725437Y-94677340D01*
X148684184Y-94693235D01*
X148644295Y-94709327D01*
X148605199Y-94725884D01*
X148566325Y-94743170D01*
X148527099Y-94761452D01*
X148486952Y-94780997D01*
X148445310Y-94802071D01*
X148401602Y-94824939D01*
X148355257Y-94849869D01*
X148305703Y-94877125D01*
X148252368Y-94906975D01*
X148194680Y-94939684D01*
X148132068Y-94975519D01*
X148067306Y-95012815D01*
X148017113Y-95041743D01*
X147972343Y-95067450D01*
X147932339Y-95090298D01*
X147896445Y-95110648D01*
X147864006Y-95128863D01*
X147834365Y-95145303D01*
X147806866Y-95160330D01*
X147780853Y-95174307D01*
X147755670Y-95187594D01*
X147730662Y-95200554D01*
X147705172Y-95213549D01*
X147682778Y-95224820D01*
X147617461Y-95256741D01*
X147556674Y-95284702D01*
X147499369Y-95309064D01*
X147444501Y-95330188D01*
X147391022Y-95348436D01*
X147337885Y-95364169D01*
X147284043Y-95377748D01*
X147228449Y-95389537D01*
X147180975Y-95398094D01*
X147121699Y-95407475D01*
X147067114Y-95414849D01*
X147015196Y-95420377D01*
X146963926Y-95424223D01*
X146911279Y-95426550D01*
X146855234Y-95427522D01*
X146816708Y-95427509D01*
X146790120Y-95427309D01*
X146765076Y-95427051D01*
X146742670Y-95426751D01*
X146723997Y-95426426D01*
X146710149Y-95426092D01*
X146702223Y-95425767D01*
X146702056Y-95425755D01*
X146611009Y-95416740D01*
X146521200Y-95403096D01*
X146433485Y-95385042D01*
X146348718Y-95362798D01*
X146267756Y-95336583D01*
X146191455Y-95306619D01*
X146133791Y-95279817D01*
X146047957Y-95232919D01*
X145964330Y-95179377D01*
X145882988Y-95119273D01*
X145804006Y-95052690D01*
X145727461Y-94979708D01*
X145653429Y-94900411D01*
X145581985Y-94814879D01*
X145513207Y-94723196D01*
X145447171Y-94625442D01*
X145383952Y-94521701D01*
X145323627Y-94412053D01*
X145319300Y-94403746D01*
X145282293Y-94328734D01*
X145247779Y-94250989D01*
X145215400Y-94169580D01*
X145184798Y-94083574D01*
X145155612Y-93992039D01*
X145139110Y-93935758D01*
X145131543Y-93909169D01*
X144885806Y-93810044D01*
X144846329Y-93794069D01*
X144808813Y-93778791D01*
X144773766Y-93764422D01*
X144741694Y-93751173D01*
X144713102Y-93739257D01*
X144688498Y-93728887D01*
X144668388Y-93720274D01*
X144653278Y-93713630D01*
X144643674Y-93709168D01*
X144640083Y-93707101D01*
X144640069Y-93707055D01*
X144642644Y-93704178D01*
X144650115Y-93696965D01*
X144662098Y-93685762D01*
X144678213Y-93670917D01*
X144698078Y-93652776D01*
X144721310Y-93631686D01*
X144747529Y-93607994D01*
X144776351Y-93582048D01*
X144807395Y-93554193D01*
X144840280Y-93524778D01*
X144865847Y-93501966D01*
X145091625Y-93300741D01*
X145106003Y-93261022D01*
X145134338Y-93190948D01*
X145167586Y-93124045D01*
X145206152Y-93059707D01*
X145250445Y-92997324D01*
X145300870Y-92936287D01*
X145357835Y-92875990D01*
X145374224Y-92859917D01*
X145441538Y-92799739D01*
X145514130Y-92744059D01*
X145591734Y-92693010D01*
X145674086Y-92646722D01*
X145760921Y-92605330D01*
X145851974Y-92568964D01*
X145946979Y-92537758D01*
X146045671Y-92511842D01*
X146091750Y-92501834D01*
X146136147Y-92493197D01*
X146175869Y-92486427D01*
X146212979Y-92481295D01*
X146249540Y-92477572D01*
X146287614Y-92475029D01*
X146329265Y-92473439D01*
X146352806Y-92472916D01*
X146399574Y-92472493D01*
X146441031Y-92473103D01*
G36*
X134125029Y-115670793D02*
X134162864Y-115672568D01*
X134198761Y-115675640D01*
X134234410Y-115680141D01*
X134271497Y-115686202D01*
X134296535Y-115690916D01*
X134333503Y-115698563D01*
X134368768Y-115706746D01*
X134403376Y-115715798D01*
X134438374Y-115726054D01*
X134474807Y-115737846D01*
X134513720Y-115751508D01*
X134556159Y-115767374D01*
X134603171Y-115785778D01*
X134638735Y-115800096D01*
X134685956Y-115819495D01*
X134733896Y-115839633D01*
X134782957Y-115860701D01*
X134833545Y-115882889D01*
X134886064Y-115906385D01*
X134940919Y-115931379D01*
X134998512Y-115958062D01*
X135059249Y-115986622D01*
X135123534Y-116017249D01*
X135191771Y-116050132D01*
X135264363Y-116085462D01*
X135341717Y-116123427D01*
X135424234Y-116164218D01*
X135512321Y-116208023D01*
X135570083Y-116236867D01*
X135651797Y-116277654D01*
X135727730Y-116315388D01*
X135798356Y-116350286D01*
X135864147Y-116382565D01*
X135925575Y-116412442D01*
X135983113Y-116440134D01*
X136037233Y-116465857D01*
X136088407Y-116489828D01*
X136137109Y-116512265D01*
X136183809Y-116533385D01*
X136228980Y-116553404D01*
X136273095Y-116572538D01*
X136316627Y-116591006D01*
X136360047Y-116609024D01*
X136403827Y-116626809D01*
X136448441Y-116644578D01*
X136494361Y-116662547D01*
X136511540Y-116669199D01*
X136535522Y-116678483D01*
X136557786Y-116687145D01*
X136577346Y-116694799D01*
X136593217Y-116701056D01*
X136604412Y-116705530D01*
X136609782Y-116707760D01*
X136619830Y-116712263D01*
X136604696Y-116731539D01*
X136592887Y-116745592D01*
X136576918Y-116763172D01*
X136557919Y-116783139D01*
X136537021Y-116804353D01*
X136515355Y-116825676D01*
X136494053Y-116845967D01*
X136474244Y-116864087D01*
X136465679Y-116871610D01*
X136390100Y-116932729D01*
X136308350Y-116990928D01*
X136220745Y-117046065D01*
X136127599Y-117097996D01*
X136029229Y-117146576D01*
X135925950Y-117191663D01*
X135818077Y-117233112D01*
X135705926Y-117270781D01*
X135589812Y-117304525D01*
X135470052Y-117334200D01*
X135430276Y-117342971D01*
X135371251Y-117355257D01*
X135317412Y-117365703D01*
X135267203Y-117374567D01*
X135219072Y-117382103D01*
X135171467Y-117388567D01*
X135122833Y-117394216D01*
X135112776Y-117395278D01*
X135092730Y-117396875D01*
X135067510Y-117398128D01*
X135038437Y-117399038D01*
X135006831Y-117399603D01*
X134974012Y-117399824D01*
X134941301Y-117399701D01*
X134910018Y-117399233D01*
X134881483Y-117398420D01*
X134857017Y-117397262D01*
X134837939Y-117395759D01*
X134834081Y-117395319D01*
X134763585Y-117384049D01*
X134698666Y-117368467D01*
X134639312Y-117348565D01*
X134585509Y-117324332D01*
X134537244Y-117295761D01*
X134494504Y-117262842D01*
X134457273Y-117225565D01*
X134425540Y-117183923D01*
X134399290Y-117137906D01*
X134379812Y-117091246D01*
X134370562Y-117063026D01*
X134363948Y-117037480D01*
X134359609Y-117012360D01*
X134357187Y-116985416D01*
X134356321Y-116954400D01*
X134356309Y-116944380D01*
X134356504Y-116887473D01*
X134333539Y-116885120D01*
X134310575Y-116882768D01*
X134260817Y-116916700D01*
X134261259Y-116966049D01*
X134265244Y-117024280D01*
X134276025Y-117081031D01*
X134293425Y-117135885D01*
X134317265Y-117188422D01*
X134347367Y-117238226D01*
X134383552Y-117284878D01*
X134408772Y-117311845D01*
X134449408Y-117348690D01*
X134493138Y-117381061D01*
X134540470Y-117409181D01*
X134591909Y-117433274D01*
X134647964Y-117453563D01*
X134709141Y-117470274D01*
X134775946Y-117483628D01*
X134809387Y-117488803D01*
X134830453Y-117491079D01*
X134857301Y-117492875D01*
X134888673Y-117494190D01*
X134923313Y-117495024D01*
X134959964Y-117495378D01*
X134997367Y-117495252D01*
X135034267Y-117494646D01*
X135069405Y-117493560D01*
X135101524Y-117491993D01*
X135129368Y-117489947D01*
X135140998Y-117488778D01*
X135255245Y-117473605D01*
X135370377Y-117453745D01*
X135485522Y-117429460D01*
X135599807Y-117401011D01*
X135712357Y-117368659D01*
X135822301Y-117332665D01*
X135928764Y-117293290D01*
X136030874Y-117250796D01*
X136127758Y-117205444D01*
X136182606Y-117177188D01*
X136265716Y-117130441D01*
X136344656Y-117081321D01*
X136418979Y-117030177D01*
X136488239Y-116977358D01*
X136551991Y-116923212D01*
X136609789Y-116868087D01*
X136661186Y-116812333D01*
X136682878Y-116786170D01*
X136697587Y-116768262D01*
X136708645Y-116755949D01*
X136716319Y-116748957D01*
X136720876Y-116747012D01*
X136721104Y-116747063D01*
X136735680Y-116750702D01*
X136756127Y-116754829D01*
X136781294Y-116759278D01*
X136810027Y-116763883D01*
X136841172Y-116768477D01*
X136873577Y-116772894D01*
X136906089Y-116776966D01*
X136937554Y-116780527D01*
X136966819Y-116783410D01*
X136980734Y-116784583D01*
X137010994Y-116786320D01*
X137044507Y-116787001D01*
X137081719Y-116786599D01*
X137123073Y-116785088D01*
X137169015Y-116782440D01*
X137219989Y-116778628D01*
X137276439Y-116773627D01*
X137338810Y-116767409D01*
X137407546Y-116759946D01*
X137428762Y-116757543D01*
X137526694Y-116745729D01*
X137631108Y-116731943D01*
X137741724Y-116716234D01*
X137858265Y-116698652D01*
X137980452Y-116679249D01*
X138108009Y-116658076D01*
X138240655Y-116635182D01*
X138378115Y-116610618D01*
X138520108Y-116584436D01*
X138666358Y-116556685D01*
X138816586Y-116527417D01*
X138970515Y-116496681D01*
X139127865Y-116464530D01*
X139288359Y-116431012D01*
X139451719Y-116396179D01*
X139617667Y-116360082D01*
X139645970Y-116353856D01*
X139677503Y-116346958D01*
X139707571Y-116340477D01*
X139735324Y-116334589D01*
X139759911Y-116329470D01*
X139780482Y-116325297D01*
X139796184Y-116322246D01*
X139806168Y-116320494D01*
X139808248Y-116320210D01*
X139835627Y-116320293D01*
X139864595Y-116325888D01*
X139893335Y-116336330D01*
X139920030Y-116350953D01*
X139942861Y-116369090D01*
X139943575Y-116369787D01*
X139954332Y-116382148D01*
X139967557Y-116400274D01*
X139982871Y-116423472D01*
X139999896Y-116451052D01*
X140018251Y-116482323D01*
X140037560Y-116516592D01*
X140057442Y-116553169D01*
X140077519Y-116591361D01*
X140097413Y-116630479D01*
X140116745Y-116669829D01*
X140135135Y-116708721D01*
X140152206Y-116746464D01*
X140160936Y-116766578D01*
X140188416Y-116835518D01*
X140210293Y-116900443D01*
X140226562Y-116961321D01*
X140237218Y-117018118D01*
X140242256Y-117070802D01*
X140241672Y-117119340D01*
X140235460Y-117163698D01*
X140224301Y-117202045D01*
X140214719Y-117222307D01*
X140201156Y-117244220D01*
X140185357Y-117265318D01*
X140169070Y-117283131D01*
X140163087Y-117288550D01*
X140147698Y-117300461D01*
X140131079Y-117310977D01*
X140112687Y-117320208D01*
X140091976Y-117328264D01*
X140068404Y-117335255D01*
X140041425Y-117341292D01*
X140010496Y-117346484D01*
X139975072Y-117350942D01*
X139934610Y-117354776D01*
X139888565Y-117358095D01*
X139836394Y-117361011D01*
X139795901Y-117362872D01*
X139776130Y-117363651D01*
X139750302Y-117364566D01*
X139719414Y-117365587D01*
X139684462Y-117366684D01*
X139646444Y-117367827D01*
X139606355Y-117368984D01*
X139565193Y-117370127D01*
X139523954Y-117371224D01*
X139503095Y-117371760D01*
X139397130Y-117374555D01*
X139297621Y-117377418D01*
X139203969Y-117380378D01*
X139115574Y-117383464D01*
X139031838Y-117386706D01*
X138952160Y-117390134D01*
X138875942Y-117393776D01*
X138802585Y-117397662D01*
X138731489Y-117401822D01*
X138662054Y-117406285D01*
X138593681Y-117411080D01*
X138525772Y-117416238D01*
X138457727Y-117421786D01*
X138421831Y-117424858D01*
X138269423Y-117439174D01*
X138122914Y-117455191D01*
X137981312Y-117473116D01*
X137843627Y-117493152D01*
X137708867Y-117515503D01*
X137576040Y-117540376D01*
X137444154Y-117567973D01*
X137312219Y-117598501D01*
X137179242Y-117632163D01*
X137044232Y-117669164D01*
X136906197Y-117709708D01*
X136764147Y-117754001D01*
X136656179Y-117789206D01*
X136599527Y-117808105D01*
X136547099Y-117825871D01*
X136498322Y-117842769D01*
X136452625Y-117859067D01*
X136409435Y-117875030D01*
X136368182Y-117890925D01*
X136328293Y-117907017D01*
X136289197Y-117923574D01*
X136250323Y-117940860D01*
X136211097Y-117959142D01*
X136170950Y-117978687D01*
X136129308Y-117999761D01*
X136085600Y-118022629D01*
X136039255Y-118047559D01*
X135989701Y-118074815D01*
X135936366Y-118104665D01*
X135878678Y-118137374D01*
X135816066Y-118173209D01*
X135751304Y-118210505D01*
X135701111Y-118239433D01*
X135656341Y-118265140D01*
X135616337Y-118287988D01*
X135580443Y-118308338D01*
X135548004Y-118326553D01*
X135518363Y-118342993D01*
X135490864Y-118358020D01*
X135464851Y-118371997D01*
X135439668Y-118385284D01*
X135414660Y-118398244D01*
X135389170Y-118411239D01*
X135366776Y-118422510D01*
X135301459Y-118454431D01*
X135240672Y-118482392D01*
X135183367Y-118506754D01*
X135128499Y-118527878D01*
X135075020Y-118546126D01*
X135021883Y-118561859D01*
X134968041Y-118575438D01*
X134912447Y-118587227D01*
X134864973Y-118595784D01*
X134805697Y-118605165D01*
X134751112Y-118612539D01*
X134699194Y-118618067D01*
X134647924Y-118621913D01*
X134595277Y-118624240D01*
X134539232Y-118625212D01*
X134500706Y-118625199D01*
X134474118Y-118624999D01*
X134449074Y-118624741D01*
X134426668Y-118624441D01*
X134407995Y-118624116D01*
X134394147Y-118623782D01*
X134386221Y-118623457D01*
X134386054Y-118623445D01*
X134295007Y-118614430D01*
X134205198Y-118600786D01*
X134117483Y-118582732D01*
X134032716Y-118560488D01*
X133951754Y-118534273D01*
X133875453Y-118504309D01*
X133817789Y-118477507D01*
X133731955Y-118430609D01*
X133648328Y-118377067D01*
X133566986Y-118316963D01*
X133488004Y-118250380D01*
X133411459Y-118177398D01*
X133337427Y-118098101D01*
X133265983Y-118012569D01*
X133197205Y-117920886D01*
X133131169Y-117823132D01*
X133067950Y-117719391D01*
X133007625Y-117609743D01*
X133003298Y-117601436D01*
X132966291Y-117526424D01*
X132931777Y-117448679D01*
X132899398Y-117367270D01*
X132868796Y-117281264D01*
X132839610Y-117189729D01*
X132823108Y-117133448D01*
X132815541Y-117106859D01*
X132569804Y-117007734D01*
X132530327Y-116991759D01*
X132492811Y-116976481D01*
X132457764Y-116962112D01*
X132425692Y-116948863D01*
X132397100Y-116936947D01*
X132372496Y-116926577D01*
X132352386Y-116917964D01*
X132337276Y-116911320D01*
X132327672Y-116906858D01*
X132324081Y-116904791D01*
X132324067Y-116904745D01*
X132326642Y-116901868D01*
X132334113Y-116894655D01*
X132346096Y-116883452D01*
X132362211Y-116868607D01*
X132382076Y-116850466D01*
X132405308Y-116829376D01*
X132431527Y-116805684D01*
X132460349Y-116779738D01*
X132491393Y-116751883D01*
X132524278Y-116722468D01*
X132549845Y-116699656D01*
X132775623Y-116498431D01*
X132790001Y-116458712D01*
X132818336Y-116388638D01*
X132851584Y-116321735D01*
X132890150Y-116257397D01*
X132934443Y-116195014D01*
X132984868Y-116133977D01*
X133041833Y-116073680D01*
X133058222Y-116057607D01*
X133125536Y-115997429D01*
X133198128Y-115941749D01*
X133275732Y-115890700D01*
X133358084Y-115844412D01*
X133444919Y-115803020D01*
X133535972Y-115766654D01*
X133630977Y-115735448D01*
X133729669Y-115709532D01*
X133775748Y-115699524D01*
X133820145Y-115690887D01*
X133859867Y-115684117D01*
X133896977Y-115678985D01*
X133933538Y-115675262D01*
X133971612Y-115672719D01*
X134013263Y-115671129D01*
X134036804Y-115670606D01*
X134083572Y-115670183D01*
X134125029Y-115670793D01*
X134125029Y-115670793D01*
G37*
X134125029Y-115670793D02*
X134162864Y-115672568D01*
X134198761Y-115675640D01*
X134234410Y-115680141D01*
X134271497Y-115686202D01*
X134296535Y-115690916D01*
X134333503Y-115698563D01*
X134368768Y-115706746D01*
X134403376Y-115715798D01*
X134438374Y-115726054D01*
X134474807Y-115737846D01*
X134513720Y-115751508D01*
X134556159Y-115767374D01*
X134603171Y-115785778D01*
X134638735Y-115800096D01*
X134685956Y-115819495D01*
X134733896Y-115839633D01*
X134782957Y-115860701D01*
X134833545Y-115882889D01*
X134886064Y-115906385D01*
X134940919Y-115931379D01*
X134998512Y-115958062D01*
X135059249Y-115986622D01*
X135123534Y-116017249D01*
X135191771Y-116050132D01*
X135264363Y-116085462D01*
X135341717Y-116123427D01*
X135424234Y-116164218D01*
X135512321Y-116208023D01*
X135570083Y-116236867D01*
X135651797Y-116277654D01*
X135727730Y-116315388D01*
X135798356Y-116350286D01*
X135864147Y-116382565D01*
X135925575Y-116412442D01*
X135983113Y-116440134D01*
X136037233Y-116465857D01*
X136088407Y-116489828D01*
X136137109Y-116512265D01*
X136183809Y-116533385D01*
X136228980Y-116553404D01*
X136273095Y-116572538D01*
X136316627Y-116591006D01*
X136360047Y-116609024D01*
X136403827Y-116626809D01*
X136448441Y-116644578D01*
X136494361Y-116662547D01*
X136511540Y-116669199D01*
X136535522Y-116678483D01*
X136557786Y-116687145D01*
X136577346Y-116694799D01*
X136593217Y-116701056D01*
X136604412Y-116705530D01*
X136609782Y-116707760D01*
X136619830Y-116712263D01*
X136604696Y-116731539D01*
X136592887Y-116745592D01*
X136576918Y-116763172D01*
X136557919Y-116783139D01*
X136537021Y-116804353D01*
X136515355Y-116825676D01*
X136494053Y-116845967D01*
X136474244Y-116864087D01*
X136465679Y-116871610D01*
X136390100Y-116932729D01*
X136308350Y-116990928D01*
X136220745Y-117046065D01*
X136127599Y-117097996D01*
X136029229Y-117146576D01*
X135925950Y-117191663D01*
X135818077Y-117233112D01*
X135705926Y-117270781D01*
X135589812Y-117304525D01*
X135470052Y-117334200D01*
X135430276Y-117342971D01*
X135371251Y-117355257D01*
X135317412Y-117365703D01*
X135267203Y-117374567D01*
X135219072Y-117382103D01*
X135171467Y-117388567D01*
X135122833Y-117394216D01*
X135112776Y-117395278D01*
X135092730Y-117396875D01*
X135067510Y-117398128D01*
X135038437Y-117399038D01*
X135006831Y-117399603D01*
X134974012Y-117399824D01*
X134941301Y-117399701D01*
X134910018Y-117399233D01*
X134881483Y-117398420D01*
X134857017Y-117397262D01*
X134837939Y-117395759D01*
X134834081Y-117395319D01*
X134763585Y-117384049D01*
X134698666Y-117368467D01*
X134639312Y-117348565D01*
X134585509Y-117324332D01*
X134537244Y-117295761D01*
X134494504Y-117262842D01*
X134457273Y-117225565D01*
X134425540Y-117183923D01*
X134399290Y-117137906D01*
X134379812Y-117091246D01*
X134370562Y-117063026D01*
X134363948Y-117037480D01*
X134359609Y-117012360D01*
X134357187Y-116985416D01*
X134356321Y-116954400D01*
X134356309Y-116944380D01*
X134356504Y-116887473D01*
X134333539Y-116885120D01*
X134310575Y-116882768D01*
X134260817Y-116916700D01*
X134261259Y-116966049D01*
X134265244Y-117024280D01*
X134276025Y-117081031D01*
X134293425Y-117135885D01*
X134317265Y-117188422D01*
X134347367Y-117238226D01*
X134383552Y-117284878D01*
X134408772Y-117311845D01*
X134449408Y-117348690D01*
X134493138Y-117381061D01*
X134540470Y-117409181D01*
X134591909Y-117433274D01*
X134647964Y-117453563D01*
X134709141Y-117470274D01*
X134775946Y-117483628D01*
X134809387Y-117488803D01*
X134830453Y-117491079D01*
X134857301Y-117492875D01*
X134888673Y-117494190D01*
X134923313Y-117495024D01*
X134959964Y-117495378D01*
X134997367Y-117495252D01*
X135034267Y-117494646D01*
X135069405Y-117493560D01*
X135101524Y-117491993D01*
X135129368Y-117489947D01*
X135140998Y-117488778D01*
X135255245Y-117473605D01*
X135370377Y-117453745D01*
X135485522Y-117429460D01*
X135599807Y-117401011D01*
X135712357Y-117368659D01*
X135822301Y-117332665D01*
X135928764Y-117293290D01*
X136030874Y-117250796D01*
X136127758Y-117205444D01*
X136182606Y-117177188D01*
X136265716Y-117130441D01*
X136344656Y-117081321D01*
X136418979Y-117030177D01*
X136488239Y-116977358D01*
X136551991Y-116923212D01*
X136609789Y-116868087D01*
X136661186Y-116812333D01*
X136682878Y-116786170D01*
X136697587Y-116768262D01*
X136708645Y-116755949D01*
X136716319Y-116748957D01*
X136720876Y-116747012D01*
X136721104Y-116747063D01*
X136735680Y-116750702D01*
X136756127Y-116754829D01*
X136781294Y-116759278D01*
X136810027Y-116763883D01*
X136841172Y-116768477D01*
X136873577Y-116772894D01*
X136906089Y-116776966D01*
X136937554Y-116780527D01*
X136966819Y-116783410D01*
X136980734Y-116784583D01*
X137010994Y-116786320D01*
X137044507Y-116787001D01*
X137081719Y-116786599D01*
X137123073Y-116785088D01*
X137169015Y-116782440D01*
X137219989Y-116778628D01*
X137276439Y-116773627D01*
X137338810Y-116767409D01*
X137407546Y-116759946D01*
X137428762Y-116757543D01*
X137526694Y-116745729D01*
X137631108Y-116731943D01*
X137741724Y-116716234D01*
X137858265Y-116698652D01*
X137980452Y-116679249D01*
X138108009Y-116658076D01*
X138240655Y-116635182D01*
X138378115Y-116610618D01*
X138520108Y-116584436D01*
X138666358Y-116556685D01*
X138816586Y-116527417D01*
X138970515Y-116496681D01*
X139127865Y-116464530D01*
X139288359Y-116431012D01*
X139451719Y-116396179D01*
X139617667Y-116360082D01*
X139645970Y-116353856D01*
X139677503Y-116346958D01*
X139707571Y-116340477D01*
X139735324Y-116334589D01*
X139759911Y-116329470D01*
X139780482Y-116325297D01*
X139796184Y-116322246D01*
X139806168Y-116320494D01*
X139808248Y-116320210D01*
X139835627Y-116320293D01*
X139864595Y-116325888D01*
X139893335Y-116336330D01*
X139920030Y-116350953D01*
X139942861Y-116369090D01*
X139943575Y-116369787D01*
X139954332Y-116382148D01*
X139967557Y-116400274D01*
X139982871Y-116423472D01*
X139999896Y-116451052D01*
X140018251Y-116482323D01*
X140037560Y-116516592D01*
X140057442Y-116553169D01*
X140077519Y-116591361D01*
X140097413Y-116630479D01*
X140116745Y-116669829D01*
X140135135Y-116708721D01*
X140152206Y-116746464D01*
X140160936Y-116766578D01*
X140188416Y-116835518D01*
X140210293Y-116900443D01*
X140226562Y-116961321D01*
X140237218Y-117018118D01*
X140242256Y-117070802D01*
X140241672Y-117119340D01*
X140235460Y-117163698D01*
X140224301Y-117202045D01*
X140214719Y-117222307D01*
X140201156Y-117244220D01*
X140185357Y-117265318D01*
X140169070Y-117283131D01*
X140163087Y-117288550D01*
X140147698Y-117300461D01*
X140131079Y-117310977D01*
X140112687Y-117320208D01*
X140091976Y-117328264D01*
X140068404Y-117335255D01*
X140041425Y-117341292D01*
X140010496Y-117346484D01*
X139975072Y-117350942D01*
X139934610Y-117354776D01*
X139888565Y-117358095D01*
X139836394Y-117361011D01*
X139795901Y-117362872D01*
X139776130Y-117363651D01*
X139750302Y-117364566D01*
X139719414Y-117365587D01*
X139684462Y-117366684D01*
X139646444Y-117367827D01*
X139606355Y-117368984D01*
X139565193Y-117370127D01*
X139523954Y-117371224D01*
X139503095Y-117371760D01*
X139397130Y-117374555D01*
X139297621Y-117377418D01*
X139203969Y-117380378D01*
X139115574Y-117383464D01*
X139031838Y-117386706D01*
X138952160Y-117390134D01*
X138875942Y-117393776D01*
X138802585Y-117397662D01*
X138731489Y-117401822D01*
X138662054Y-117406285D01*
X138593681Y-117411080D01*
X138525772Y-117416238D01*
X138457727Y-117421786D01*
X138421831Y-117424858D01*
X138269423Y-117439174D01*
X138122914Y-117455191D01*
X137981312Y-117473116D01*
X137843627Y-117493152D01*
X137708867Y-117515503D01*
X137576040Y-117540376D01*
X137444154Y-117567973D01*
X137312219Y-117598501D01*
X137179242Y-117632163D01*
X137044232Y-117669164D01*
X136906197Y-117709708D01*
X136764147Y-117754001D01*
X136656179Y-117789206D01*
X136599527Y-117808105D01*
X136547099Y-117825871D01*
X136498322Y-117842769D01*
X136452625Y-117859067D01*
X136409435Y-117875030D01*
X136368182Y-117890925D01*
X136328293Y-117907017D01*
X136289197Y-117923574D01*
X136250323Y-117940860D01*
X136211097Y-117959142D01*
X136170950Y-117978687D01*
X136129308Y-117999761D01*
X136085600Y-118022629D01*
X136039255Y-118047559D01*
X135989701Y-118074815D01*
X135936366Y-118104665D01*
X135878678Y-118137374D01*
X135816066Y-118173209D01*
X135751304Y-118210505D01*
X135701111Y-118239433D01*
X135656341Y-118265140D01*
X135616337Y-118287988D01*
X135580443Y-118308338D01*
X135548004Y-118326553D01*
X135518363Y-118342993D01*
X135490864Y-118358020D01*
X135464851Y-118371997D01*
X135439668Y-118385284D01*
X135414660Y-118398244D01*
X135389170Y-118411239D01*
X135366776Y-118422510D01*
X135301459Y-118454431D01*
X135240672Y-118482392D01*
X135183367Y-118506754D01*
X135128499Y-118527878D01*
X135075020Y-118546126D01*
X135021883Y-118561859D01*
X134968041Y-118575438D01*
X134912447Y-118587227D01*
X134864973Y-118595784D01*
X134805697Y-118605165D01*
X134751112Y-118612539D01*
X134699194Y-118618067D01*
X134647924Y-118621913D01*
X134595277Y-118624240D01*
X134539232Y-118625212D01*
X134500706Y-118625199D01*
X134474118Y-118624999D01*
X134449074Y-118624741D01*
X134426668Y-118624441D01*
X134407995Y-118624116D01*
X134394147Y-118623782D01*
X134386221Y-118623457D01*
X134386054Y-118623445D01*
X134295007Y-118614430D01*
X134205198Y-118600786D01*
X134117483Y-118582732D01*
X134032716Y-118560488D01*
X133951754Y-118534273D01*
X133875453Y-118504309D01*
X133817789Y-118477507D01*
X133731955Y-118430609D01*
X133648328Y-118377067D01*
X133566986Y-118316963D01*
X133488004Y-118250380D01*
X133411459Y-118177398D01*
X133337427Y-118098101D01*
X133265983Y-118012569D01*
X133197205Y-117920886D01*
X133131169Y-117823132D01*
X133067950Y-117719391D01*
X133007625Y-117609743D01*
X133003298Y-117601436D01*
X132966291Y-117526424D01*
X132931777Y-117448679D01*
X132899398Y-117367270D01*
X132868796Y-117281264D01*
X132839610Y-117189729D01*
X132823108Y-117133448D01*
X132815541Y-117106859D01*
X132569804Y-117007734D01*
X132530327Y-116991759D01*
X132492811Y-116976481D01*
X132457764Y-116962112D01*
X132425692Y-116948863D01*
X132397100Y-116936947D01*
X132372496Y-116926577D01*
X132352386Y-116917964D01*
X132337276Y-116911320D01*
X132327672Y-116906858D01*
X132324081Y-116904791D01*
X132324067Y-116904745D01*
X132326642Y-116901868D01*
X132334113Y-116894655D01*
X132346096Y-116883452D01*
X132362211Y-116868607D01*
X132382076Y-116850466D01*
X132405308Y-116829376D01*
X132431527Y-116805684D01*
X132460349Y-116779738D01*
X132491393Y-116751883D01*
X132524278Y-116722468D01*
X132549845Y-116699656D01*
X132775623Y-116498431D01*
X132790001Y-116458712D01*
X132818336Y-116388638D01*
X132851584Y-116321735D01*
X132890150Y-116257397D01*
X132934443Y-116195014D01*
X132984868Y-116133977D01*
X133041833Y-116073680D01*
X133058222Y-116057607D01*
X133125536Y-115997429D01*
X133198128Y-115941749D01*
X133275732Y-115890700D01*
X133358084Y-115844412D01*
X133444919Y-115803020D01*
X133535972Y-115766654D01*
X133630977Y-115735448D01*
X133729669Y-115709532D01*
X133775748Y-115699524D01*
X133820145Y-115690887D01*
X133859867Y-115684117D01*
X133896977Y-115678985D01*
X133933538Y-115675262D01*
X133971612Y-115672719D01*
X134013263Y-115671129D01*
X134036804Y-115670606D01*
X134083572Y-115670183D01*
X134125029Y-115670793D01*
D12*
X135010000Y-94490000D03*
X160940000Y-121520000D03*
D13*
X131570000Y-112820000D03*
D14*
X131570000Y-110280000D03*
D13*
X131570000Y-107740000D03*
D14*
X131570000Y-105200000D03*
D13*
X131570000Y-102660000D03*
X134550000Y-103700000D03*
D14*
X134550000Y-106240000D03*
D13*
X134550000Y-108780000D03*
D14*
X134550000Y-111320000D03*
D15*
X158461920Y-94250000D03*
X158461920Y-93599760D03*
X158461920Y-92949520D03*
X155800000Y-92949520D03*
X155800000Y-93599760D03*
X155800000Y-94250000D03*
X164300000Y-98250000D03*
X164300000Y-97599760D03*
X164300000Y-96949520D03*
X161638080Y-96949520D03*
X161638080Y-97599760D03*
X161638080Y-98250000D03*
X158611920Y-96700000D03*
X158611920Y-96049760D03*
X158611920Y-95399520D03*
X155950000Y-95399520D03*
X155950000Y-96049760D03*
X155950000Y-96700000D03*
D16*
X152250000Y-105850000D03*
X152250000Y-109850000D03*
D17*
X157800000Y-123500700D03*
X157800000Y-124999300D03*
D18*
X156050000Y-124750000D03*
X156050000Y-122550000D03*
D19*
X147350000Y-113890000D03*
D20*
X144810000Y-113890000D03*
X142270000Y-113890000D03*
X139730000Y-113890000D03*
X137190000Y-113890000D03*
X134650000Y-113890000D03*
D19*
X147400000Y-101200000D03*
D20*
X144860000Y-101200000D03*
X142320000Y-101200000D03*
X139780000Y-101200000D03*
X137240000Y-101200000D03*
D19*
X134700000Y-101200000D03*
D21*
X147400000Y-109140000D03*
D22*
X147400000Y-106600000D03*
D23*
X161190000Y-100200000D03*
X161190000Y-100600000D03*
X161190000Y-101000000D03*
X161190000Y-101400000D03*
X161190000Y-101800000D03*
X161190000Y-102200000D03*
X161190000Y-102600000D03*
X161190000Y-103000000D03*
X161190000Y-103400000D03*
X161190000Y-103800000D03*
X161190000Y-107800000D03*
X161190000Y-107400000D03*
X161190000Y-107000000D03*
X161190000Y-106600000D03*
X161190000Y-106200000D03*
X161190000Y-105800000D03*
X161190000Y-105400000D03*
X161190000Y-105000000D03*
X161190000Y-104600000D03*
X161190000Y-104200000D03*
X161190000Y-108200000D03*
X161190000Y-108600000D03*
X161190000Y-109000000D03*
X161190000Y-109400000D03*
X161190000Y-109800000D03*
X161190000Y-110200000D03*
X161190000Y-110600000D03*
X161190000Y-111000000D03*
X161190000Y-111400000D03*
X161190000Y-111800000D03*
X161190000Y-115800000D03*
X161190000Y-115400000D03*
X161190000Y-115000000D03*
X161190000Y-114600000D03*
X161190000Y-114200000D03*
X161190000Y-113800000D03*
X161190000Y-113400000D03*
X161190000Y-113000000D03*
X161190000Y-112600000D03*
X161190000Y-112200000D03*
X158110000Y-112200000D03*
X158110000Y-112600000D03*
X158110000Y-113000000D03*
X158110000Y-113400000D03*
X158110000Y-113800000D03*
X158110000Y-114200000D03*
X158110000Y-114600000D03*
X158110000Y-115000000D03*
X158110000Y-115400000D03*
X158110000Y-115800000D03*
X158110000Y-111800000D03*
X158110000Y-111400000D03*
X158110000Y-111000000D03*
X158110000Y-110600000D03*
X158110000Y-110200000D03*
X158110000Y-109800000D03*
X158110000Y-109400000D03*
X158110000Y-109000000D03*
X158110000Y-108600000D03*
X158110000Y-108200000D03*
X158110000Y-104200000D03*
X158110000Y-104600000D03*
X158110000Y-105000000D03*
X158110000Y-105400000D03*
X158110000Y-105800000D03*
X158110000Y-106200000D03*
X158110000Y-106600000D03*
X158110000Y-107000000D03*
X158110000Y-107400000D03*
X158110000Y-107800000D03*
X158110000Y-103800000D03*
X158110000Y-103400000D03*
X158110000Y-103000000D03*
X158110000Y-102600000D03*
X158110000Y-102200000D03*
X158110000Y-101800000D03*
X158110000Y-101400000D03*
X158110000Y-101000000D03*
X158110000Y-100600000D03*
X158110000Y-100200000D03*
D19*
X150745000Y-124450000D03*
D20*
X148205000Y-124450000D03*
X145665000Y-124450000D03*
X143125000Y-124450000D03*
X140585000Y-124450000D03*
X138045000Y-124450000D03*
D24*
X151960760Y-118940000D03*
X151960760Y-117040000D03*
X149961780Y-117990000D03*
D25*
X145660000Y-117140000D03*
X147860000Y-117140000D03*
D18*
X153470000Y-118810000D03*
X153470000Y-121010000D03*
D25*
X152510000Y-103600000D03*
X150310000Y-103600000D03*
D26*
X148790000Y-120190000D03*
X147390000Y-120190000D03*
D12*
X135450000Y-122570000D03*
M02*
