G04 #@! TF.FileFunction,Soldermask,Top*
%FSLAX46Y46*%
G04 Gerber Fmt 4.6, Leading zero omitted, Abs format (unit mm)*
G04 Created by KiCad (PCBNEW 4.0.1-stable) date Thursday, February 04, 2016 'PMt' 11:12:06 PM*
%MOMM*%
G01*
G04 APERTURE LIST*
%ADD10C,0.100000*%
%ADD11C,0.010000*%
%ADD12O,2.432000X2.127200*%
%ADD13R,2.432000X2.127200*%
%ADD14R,1.901140X0.798780*%
%ADD15R,2.000000X2.400000*%
%ADD16R,1.197560X1.197560*%
%ADD17R,1.300000X1.600000*%
%ADD18R,2.127200X2.432000*%
%ADD19O,2.127200X2.432000*%
%ADD20R,2.432000X2.432000*%
%ADD21O,2.432000X2.432000*%
%ADD22R,1.100000X0.600000*%
G04 APERTURE END LIST*
D10*
D11*
G36*
X134465029Y-115590793D02*
X134502864Y-115592568D01*
X134538761Y-115595640D01*
X134574410Y-115600141D01*
X134611497Y-115606202D01*
X134636535Y-115610916D01*
X134673503Y-115618563D01*
X134708768Y-115626746D01*
X134743376Y-115635798D01*
X134778374Y-115646054D01*
X134814807Y-115657846D01*
X134853720Y-115671508D01*
X134896159Y-115687374D01*
X134943171Y-115705778D01*
X134978735Y-115720096D01*
X135025956Y-115739495D01*
X135073896Y-115759633D01*
X135122957Y-115780701D01*
X135173545Y-115802889D01*
X135226064Y-115826385D01*
X135280919Y-115851379D01*
X135338512Y-115878062D01*
X135399249Y-115906622D01*
X135463534Y-115937249D01*
X135531771Y-115970132D01*
X135604363Y-116005462D01*
X135681717Y-116043427D01*
X135764234Y-116084218D01*
X135852321Y-116128023D01*
X135910083Y-116156867D01*
X135991797Y-116197654D01*
X136067730Y-116235388D01*
X136138356Y-116270286D01*
X136204147Y-116302565D01*
X136265575Y-116332442D01*
X136323113Y-116360134D01*
X136377233Y-116385857D01*
X136428407Y-116409828D01*
X136477109Y-116432265D01*
X136523809Y-116453385D01*
X136568980Y-116473404D01*
X136613095Y-116492538D01*
X136656627Y-116511006D01*
X136700047Y-116529024D01*
X136743827Y-116546809D01*
X136788441Y-116564578D01*
X136834361Y-116582547D01*
X136851540Y-116589199D01*
X136875522Y-116598483D01*
X136897786Y-116607145D01*
X136917346Y-116614799D01*
X136933217Y-116621056D01*
X136944412Y-116625530D01*
X136949782Y-116627760D01*
X136959830Y-116632263D01*
X136944696Y-116651539D01*
X136932887Y-116665592D01*
X136916918Y-116683172D01*
X136897919Y-116703139D01*
X136877021Y-116724353D01*
X136855355Y-116745676D01*
X136834053Y-116765967D01*
X136814244Y-116784087D01*
X136805679Y-116791610D01*
X136730100Y-116852729D01*
X136648350Y-116910928D01*
X136560745Y-116966065D01*
X136467599Y-117017996D01*
X136369229Y-117066576D01*
X136265950Y-117111663D01*
X136158077Y-117153112D01*
X136045926Y-117190781D01*
X135929812Y-117224525D01*
X135810052Y-117254200D01*
X135770276Y-117262971D01*
X135711251Y-117275257D01*
X135657412Y-117285703D01*
X135607203Y-117294567D01*
X135559072Y-117302103D01*
X135511467Y-117308567D01*
X135462833Y-117314216D01*
X135452776Y-117315278D01*
X135432730Y-117316875D01*
X135407510Y-117318128D01*
X135378437Y-117319038D01*
X135346831Y-117319603D01*
X135314012Y-117319824D01*
X135281301Y-117319701D01*
X135250018Y-117319233D01*
X135221483Y-117318420D01*
X135197017Y-117317262D01*
X135177939Y-117315759D01*
X135174081Y-117315319D01*
X135103585Y-117304049D01*
X135038666Y-117288467D01*
X134979312Y-117268565D01*
X134925509Y-117244332D01*
X134877244Y-117215761D01*
X134834504Y-117182842D01*
X134797273Y-117145565D01*
X134765540Y-117103923D01*
X134739290Y-117057906D01*
X134719812Y-117011246D01*
X134710562Y-116983026D01*
X134703948Y-116957480D01*
X134699609Y-116932360D01*
X134697187Y-116905416D01*
X134696321Y-116874400D01*
X134696309Y-116864380D01*
X134696504Y-116807473D01*
X134673539Y-116805120D01*
X134650575Y-116802768D01*
X134600817Y-116836700D01*
X134601259Y-116886049D01*
X134605244Y-116944280D01*
X134616025Y-117001031D01*
X134633425Y-117055885D01*
X134657265Y-117108422D01*
X134687367Y-117158226D01*
X134723552Y-117204878D01*
X134748772Y-117231845D01*
X134789408Y-117268690D01*
X134833138Y-117301061D01*
X134880470Y-117329181D01*
X134931909Y-117353274D01*
X134987964Y-117373563D01*
X135049141Y-117390274D01*
X135115946Y-117403628D01*
X135149387Y-117408803D01*
X135170453Y-117411079D01*
X135197301Y-117412875D01*
X135228673Y-117414190D01*
X135263313Y-117415024D01*
X135299964Y-117415378D01*
X135337367Y-117415252D01*
X135374267Y-117414646D01*
X135409405Y-117413560D01*
X135441524Y-117411993D01*
X135469368Y-117409947D01*
X135480998Y-117408778D01*
X135595245Y-117393605D01*
X135710377Y-117373745D01*
X135825522Y-117349460D01*
X135939807Y-117321011D01*
X136052357Y-117288659D01*
X136162301Y-117252665D01*
X136268764Y-117213290D01*
X136370874Y-117170796D01*
X136467758Y-117125444D01*
X136522606Y-117097188D01*
X136605716Y-117050441D01*
X136684656Y-117001321D01*
X136758979Y-116950177D01*
X136828239Y-116897358D01*
X136891991Y-116843212D01*
X136949789Y-116788087D01*
X137001186Y-116732333D01*
X137022878Y-116706170D01*
X137037587Y-116688262D01*
X137048645Y-116675949D01*
X137056319Y-116668957D01*
X137060876Y-116667012D01*
X137061104Y-116667063D01*
X137075680Y-116670702D01*
X137096127Y-116674829D01*
X137121294Y-116679278D01*
X137150027Y-116683883D01*
X137181172Y-116688477D01*
X137213577Y-116692894D01*
X137246089Y-116696966D01*
X137277554Y-116700527D01*
X137306819Y-116703410D01*
X137320734Y-116704583D01*
X137350994Y-116706320D01*
X137384507Y-116707001D01*
X137421719Y-116706599D01*
X137463073Y-116705088D01*
X137509015Y-116702440D01*
X137559989Y-116698628D01*
X137616439Y-116693627D01*
X137678810Y-116687409D01*
X137747546Y-116679946D01*
X137768762Y-116677543D01*
X137866694Y-116665729D01*
X137971108Y-116651943D01*
X138081724Y-116636234D01*
X138198265Y-116618652D01*
X138320452Y-116599249D01*
X138448009Y-116578076D01*
X138580655Y-116555182D01*
X138718115Y-116530618D01*
X138860108Y-116504436D01*
X139006358Y-116476685D01*
X139156586Y-116447417D01*
X139310515Y-116416681D01*
X139467865Y-116384530D01*
X139628359Y-116351012D01*
X139791719Y-116316179D01*
X139957667Y-116280082D01*
X139985970Y-116273856D01*
X140017503Y-116266958D01*
X140047571Y-116260477D01*
X140075324Y-116254589D01*
X140099911Y-116249470D01*
X140120482Y-116245297D01*
X140136184Y-116242246D01*
X140146168Y-116240494D01*
X140148248Y-116240210D01*
X140175627Y-116240293D01*
X140204595Y-116245888D01*
X140233335Y-116256330D01*
X140260030Y-116270953D01*
X140282861Y-116289090D01*
X140283575Y-116289787D01*
X140294332Y-116302148D01*
X140307557Y-116320274D01*
X140322871Y-116343472D01*
X140339896Y-116371052D01*
X140358251Y-116402323D01*
X140377560Y-116436592D01*
X140397442Y-116473169D01*
X140417519Y-116511361D01*
X140437413Y-116550479D01*
X140456745Y-116589829D01*
X140475135Y-116628721D01*
X140492206Y-116666464D01*
X140500936Y-116686578D01*
X140528416Y-116755518D01*
X140550293Y-116820443D01*
X140566562Y-116881321D01*
X140577218Y-116938118D01*
X140582256Y-116990802D01*
X140581672Y-117039340D01*
X140575460Y-117083698D01*
X140564301Y-117122045D01*
X140554719Y-117142307D01*
X140541156Y-117164220D01*
X140525357Y-117185318D01*
X140509070Y-117203131D01*
X140503087Y-117208550D01*
X140487698Y-117220461D01*
X140471079Y-117230977D01*
X140452687Y-117240208D01*
X140431976Y-117248264D01*
X140408404Y-117255255D01*
X140381425Y-117261292D01*
X140350496Y-117266484D01*
X140315072Y-117270942D01*
X140274610Y-117274776D01*
X140228565Y-117278095D01*
X140176394Y-117281011D01*
X140135901Y-117282872D01*
X140116130Y-117283651D01*
X140090302Y-117284566D01*
X140059414Y-117285587D01*
X140024462Y-117286684D01*
X139986444Y-117287827D01*
X139946355Y-117288984D01*
X139905193Y-117290127D01*
X139863954Y-117291224D01*
X139843095Y-117291760D01*
X139737130Y-117294555D01*
X139637621Y-117297418D01*
X139543969Y-117300378D01*
X139455574Y-117303464D01*
X139371838Y-117306706D01*
X139292160Y-117310134D01*
X139215942Y-117313776D01*
X139142585Y-117317662D01*
X139071489Y-117321822D01*
X139002054Y-117326285D01*
X138933681Y-117331080D01*
X138865772Y-117336238D01*
X138797727Y-117341786D01*
X138761831Y-117344858D01*
X138609423Y-117359174D01*
X138462914Y-117375191D01*
X138321312Y-117393116D01*
X138183627Y-117413152D01*
X138048867Y-117435503D01*
X137916040Y-117460376D01*
X137784154Y-117487973D01*
X137652219Y-117518501D01*
X137519242Y-117552163D01*
X137384232Y-117589164D01*
X137246197Y-117629708D01*
X137104147Y-117674001D01*
X136996179Y-117709206D01*
X136939527Y-117728105D01*
X136887099Y-117745871D01*
X136838322Y-117762769D01*
X136792625Y-117779067D01*
X136749435Y-117795030D01*
X136708182Y-117810925D01*
X136668293Y-117827017D01*
X136629197Y-117843574D01*
X136590323Y-117860860D01*
X136551097Y-117879142D01*
X136510950Y-117898687D01*
X136469308Y-117919761D01*
X136425600Y-117942629D01*
X136379255Y-117967559D01*
X136329701Y-117994815D01*
X136276366Y-118024665D01*
X136218678Y-118057374D01*
X136156066Y-118093209D01*
X136091304Y-118130505D01*
X136041111Y-118159433D01*
X135996341Y-118185140D01*
X135956337Y-118207988D01*
X135920443Y-118228338D01*
X135888004Y-118246553D01*
X135858363Y-118262993D01*
X135830864Y-118278020D01*
X135804851Y-118291997D01*
X135779668Y-118305284D01*
X135754660Y-118318244D01*
X135729170Y-118331239D01*
X135706776Y-118342510D01*
X135641459Y-118374431D01*
X135580672Y-118402392D01*
X135523367Y-118426754D01*
X135468499Y-118447878D01*
X135415020Y-118466126D01*
X135361883Y-118481859D01*
X135308041Y-118495438D01*
X135252447Y-118507227D01*
X135204973Y-118515784D01*
X135145697Y-118525165D01*
X135091112Y-118532539D01*
X135039194Y-118538067D01*
X134987924Y-118541913D01*
X134935277Y-118544240D01*
X134879232Y-118545212D01*
X134840706Y-118545199D01*
X134814118Y-118544999D01*
X134789074Y-118544741D01*
X134766668Y-118544441D01*
X134747995Y-118544116D01*
X134734147Y-118543782D01*
X134726221Y-118543457D01*
X134726054Y-118543445D01*
X134635007Y-118534430D01*
X134545198Y-118520786D01*
X134457483Y-118502732D01*
X134372716Y-118480488D01*
X134291754Y-118454273D01*
X134215453Y-118424309D01*
X134157789Y-118397507D01*
X134071955Y-118350609D01*
X133988328Y-118297067D01*
X133906986Y-118236963D01*
X133828004Y-118170380D01*
X133751459Y-118097398D01*
X133677427Y-118018101D01*
X133605983Y-117932569D01*
X133537205Y-117840886D01*
X133471169Y-117743132D01*
X133407950Y-117639391D01*
X133347625Y-117529743D01*
X133343298Y-117521436D01*
X133306291Y-117446424D01*
X133271777Y-117368679D01*
X133239398Y-117287270D01*
X133208796Y-117201264D01*
X133179610Y-117109729D01*
X133163108Y-117053448D01*
X133155541Y-117026859D01*
X132909804Y-116927734D01*
X132870327Y-116911759D01*
X132832811Y-116896481D01*
X132797764Y-116882112D01*
X132765692Y-116868863D01*
X132737100Y-116856947D01*
X132712496Y-116846577D01*
X132692386Y-116837964D01*
X132677276Y-116831320D01*
X132667672Y-116826858D01*
X132664081Y-116824791D01*
X132664067Y-116824745D01*
X132666642Y-116821868D01*
X132674113Y-116814655D01*
X132686096Y-116803452D01*
X132702211Y-116788607D01*
X132722076Y-116770466D01*
X132745308Y-116749376D01*
X132771527Y-116725684D01*
X132800349Y-116699738D01*
X132831393Y-116671883D01*
X132864278Y-116642468D01*
X132889845Y-116619656D01*
X133115623Y-116418431D01*
X133130001Y-116378712D01*
X133158336Y-116308638D01*
X133191584Y-116241735D01*
X133230150Y-116177397D01*
X133274443Y-116115014D01*
X133324868Y-116053977D01*
X133381833Y-115993680D01*
X133398222Y-115977607D01*
X133465536Y-115917429D01*
X133538128Y-115861749D01*
X133615732Y-115810700D01*
X133698084Y-115764412D01*
X133784919Y-115723020D01*
X133875972Y-115686654D01*
X133970977Y-115655448D01*
X134069669Y-115629532D01*
X134115748Y-115619524D01*
X134160145Y-115610887D01*
X134199867Y-115604117D01*
X134236977Y-115598985D01*
X134273538Y-115595262D01*
X134311612Y-115592719D01*
X134353263Y-115591129D01*
X134376804Y-115590606D01*
X134423572Y-115590183D01*
X134465029Y-115590793D01*
X134465029Y-115590793D01*
G37*
X134465029Y-115590793D02*
X134502864Y-115592568D01*
X134538761Y-115595640D01*
X134574410Y-115600141D01*
X134611497Y-115606202D01*
X134636535Y-115610916D01*
X134673503Y-115618563D01*
X134708768Y-115626746D01*
X134743376Y-115635798D01*
X134778374Y-115646054D01*
X134814807Y-115657846D01*
X134853720Y-115671508D01*
X134896159Y-115687374D01*
X134943171Y-115705778D01*
X134978735Y-115720096D01*
X135025956Y-115739495D01*
X135073896Y-115759633D01*
X135122957Y-115780701D01*
X135173545Y-115802889D01*
X135226064Y-115826385D01*
X135280919Y-115851379D01*
X135338512Y-115878062D01*
X135399249Y-115906622D01*
X135463534Y-115937249D01*
X135531771Y-115970132D01*
X135604363Y-116005462D01*
X135681717Y-116043427D01*
X135764234Y-116084218D01*
X135852321Y-116128023D01*
X135910083Y-116156867D01*
X135991797Y-116197654D01*
X136067730Y-116235388D01*
X136138356Y-116270286D01*
X136204147Y-116302565D01*
X136265575Y-116332442D01*
X136323113Y-116360134D01*
X136377233Y-116385857D01*
X136428407Y-116409828D01*
X136477109Y-116432265D01*
X136523809Y-116453385D01*
X136568980Y-116473404D01*
X136613095Y-116492538D01*
X136656627Y-116511006D01*
X136700047Y-116529024D01*
X136743827Y-116546809D01*
X136788441Y-116564578D01*
X136834361Y-116582547D01*
X136851540Y-116589199D01*
X136875522Y-116598483D01*
X136897786Y-116607145D01*
X136917346Y-116614799D01*
X136933217Y-116621056D01*
X136944412Y-116625530D01*
X136949782Y-116627760D01*
X136959830Y-116632263D01*
X136944696Y-116651539D01*
X136932887Y-116665592D01*
X136916918Y-116683172D01*
X136897919Y-116703139D01*
X136877021Y-116724353D01*
X136855355Y-116745676D01*
X136834053Y-116765967D01*
X136814244Y-116784087D01*
X136805679Y-116791610D01*
X136730100Y-116852729D01*
X136648350Y-116910928D01*
X136560745Y-116966065D01*
X136467599Y-117017996D01*
X136369229Y-117066576D01*
X136265950Y-117111663D01*
X136158077Y-117153112D01*
X136045926Y-117190781D01*
X135929812Y-117224525D01*
X135810052Y-117254200D01*
X135770276Y-117262971D01*
X135711251Y-117275257D01*
X135657412Y-117285703D01*
X135607203Y-117294567D01*
X135559072Y-117302103D01*
X135511467Y-117308567D01*
X135462833Y-117314216D01*
X135452776Y-117315278D01*
X135432730Y-117316875D01*
X135407510Y-117318128D01*
X135378437Y-117319038D01*
X135346831Y-117319603D01*
X135314012Y-117319824D01*
X135281301Y-117319701D01*
X135250018Y-117319233D01*
X135221483Y-117318420D01*
X135197017Y-117317262D01*
X135177939Y-117315759D01*
X135174081Y-117315319D01*
X135103585Y-117304049D01*
X135038666Y-117288467D01*
X134979312Y-117268565D01*
X134925509Y-117244332D01*
X134877244Y-117215761D01*
X134834504Y-117182842D01*
X134797273Y-117145565D01*
X134765540Y-117103923D01*
X134739290Y-117057906D01*
X134719812Y-117011246D01*
X134710562Y-116983026D01*
X134703948Y-116957480D01*
X134699609Y-116932360D01*
X134697187Y-116905416D01*
X134696321Y-116874400D01*
X134696309Y-116864380D01*
X134696504Y-116807473D01*
X134673539Y-116805120D01*
X134650575Y-116802768D01*
X134600817Y-116836700D01*
X134601259Y-116886049D01*
X134605244Y-116944280D01*
X134616025Y-117001031D01*
X134633425Y-117055885D01*
X134657265Y-117108422D01*
X134687367Y-117158226D01*
X134723552Y-117204878D01*
X134748772Y-117231845D01*
X134789408Y-117268690D01*
X134833138Y-117301061D01*
X134880470Y-117329181D01*
X134931909Y-117353274D01*
X134987964Y-117373563D01*
X135049141Y-117390274D01*
X135115946Y-117403628D01*
X135149387Y-117408803D01*
X135170453Y-117411079D01*
X135197301Y-117412875D01*
X135228673Y-117414190D01*
X135263313Y-117415024D01*
X135299964Y-117415378D01*
X135337367Y-117415252D01*
X135374267Y-117414646D01*
X135409405Y-117413560D01*
X135441524Y-117411993D01*
X135469368Y-117409947D01*
X135480998Y-117408778D01*
X135595245Y-117393605D01*
X135710377Y-117373745D01*
X135825522Y-117349460D01*
X135939807Y-117321011D01*
X136052357Y-117288659D01*
X136162301Y-117252665D01*
X136268764Y-117213290D01*
X136370874Y-117170796D01*
X136467758Y-117125444D01*
X136522606Y-117097188D01*
X136605716Y-117050441D01*
X136684656Y-117001321D01*
X136758979Y-116950177D01*
X136828239Y-116897358D01*
X136891991Y-116843212D01*
X136949789Y-116788087D01*
X137001186Y-116732333D01*
X137022878Y-116706170D01*
X137037587Y-116688262D01*
X137048645Y-116675949D01*
X137056319Y-116668957D01*
X137060876Y-116667012D01*
X137061104Y-116667063D01*
X137075680Y-116670702D01*
X137096127Y-116674829D01*
X137121294Y-116679278D01*
X137150027Y-116683883D01*
X137181172Y-116688477D01*
X137213577Y-116692894D01*
X137246089Y-116696966D01*
X137277554Y-116700527D01*
X137306819Y-116703410D01*
X137320734Y-116704583D01*
X137350994Y-116706320D01*
X137384507Y-116707001D01*
X137421719Y-116706599D01*
X137463073Y-116705088D01*
X137509015Y-116702440D01*
X137559989Y-116698628D01*
X137616439Y-116693627D01*
X137678810Y-116687409D01*
X137747546Y-116679946D01*
X137768762Y-116677543D01*
X137866694Y-116665729D01*
X137971108Y-116651943D01*
X138081724Y-116636234D01*
X138198265Y-116618652D01*
X138320452Y-116599249D01*
X138448009Y-116578076D01*
X138580655Y-116555182D01*
X138718115Y-116530618D01*
X138860108Y-116504436D01*
X139006358Y-116476685D01*
X139156586Y-116447417D01*
X139310515Y-116416681D01*
X139467865Y-116384530D01*
X139628359Y-116351012D01*
X139791719Y-116316179D01*
X139957667Y-116280082D01*
X139985970Y-116273856D01*
X140017503Y-116266958D01*
X140047571Y-116260477D01*
X140075324Y-116254589D01*
X140099911Y-116249470D01*
X140120482Y-116245297D01*
X140136184Y-116242246D01*
X140146168Y-116240494D01*
X140148248Y-116240210D01*
X140175627Y-116240293D01*
X140204595Y-116245888D01*
X140233335Y-116256330D01*
X140260030Y-116270953D01*
X140282861Y-116289090D01*
X140283575Y-116289787D01*
X140294332Y-116302148D01*
X140307557Y-116320274D01*
X140322871Y-116343472D01*
X140339896Y-116371052D01*
X140358251Y-116402323D01*
X140377560Y-116436592D01*
X140397442Y-116473169D01*
X140417519Y-116511361D01*
X140437413Y-116550479D01*
X140456745Y-116589829D01*
X140475135Y-116628721D01*
X140492206Y-116666464D01*
X140500936Y-116686578D01*
X140528416Y-116755518D01*
X140550293Y-116820443D01*
X140566562Y-116881321D01*
X140577218Y-116938118D01*
X140582256Y-116990802D01*
X140581672Y-117039340D01*
X140575460Y-117083698D01*
X140564301Y-117122045D01*
X140554719Y-117142307D01*
X140541156Y-117164220D01*
X140525357Y-117185318D01*
X140509070Y-117203131D01*
X140503087Y-117208550D01*
X140487698Y-117220461D01*
X140471079Y-117230977D01*
X140452687Y-117240208D01*
X140431976Y-117248264D01*
X140408404Y-117255255D01*
X140381425Y-117261292D01*
X140350496Y-117266484D01*
X140315072Y-117270942D01*
X140274610Y-117274776D01*
X140228565Y-117278095D01*
X140176394Y-117281011D01*
X140135901Y-117282872D01*
X140116130Y-117283651D01*
X140090302Y-117284566D01*
X140059414Y-117285587D01*
X140024462Y-117286684D01*
X139986444Y-117287827D01*
X139946355Y-117288984D01*
X139905193Y-117290127D01*
X139863954Y-117291224D01*
X139843095Y-117291760D01*
X139737130Y-117294555D01*
X139637621Y-117297418D01*
X139543969Y-117300378D01*
X139455574Y-117303464D01*
X139371838Y-117306706D01*
X139292160Y-117310134D01*
X139215942Y-117313776D01*
X139142585Y-117317662D01*
X139071489Y-117321822D01*
X139002054Y-117326285D01*
X138933681Y-117331080D01*
X138865772Y-117336238D01*
X138797727Y-117341786D01*
X138761831Y-117344858D01*
X138609423Y-117359174D01*
X138462914Y-117375191D01*
X138321312Y-117393116D01*
X138183627Y-117413152D01*
X138048867Y-117435503D01*
X137916040Y-117460376D01*
X137784154Y-117487973D01*
X137652219Y-117518501D01*
X137519242Y-117552163D01*
X137384232Y-117589164D01*
X137246197Y-117629708D01*
X137104147Y-117674001D01*
X136996179Y-117709206D01*
X136939527Y-117728105D01*
X136887099Y-117745871D01*
X136838322Y-117762769D01*
X136792625Y-117779067D01*
X136749435Y-117795030D01*
X136708182Y-117810925D01*
X136668293Y-117827017D01*
X136629197Y-117843574D01*
X136590323Y-117860860D01*
X136551097Y-117879142D01*
X136510950Y-117898687D01*
X136469308Y-117919761D01*
X136425600Y-117942629D01*
X136379255Y-117967559D01*
X136329701Y-117994815D01*
X136276366Y-118024665D01*
X136218678Y-118057374D01*
X136156066Y-118093209D01*
X136091304Y-118130505D01*
X136041111Y-118159433D01*
X135996341Y-118185140D01*
X135956337Y-118207988D01*
X135920443Y-118228338D01*
X135888004Y-118246553D01*
X135858363Y-118262993D01*
X135830864Y-118278020D01*
X135804851Y-118291997D01*
X135779668Y-118305284D01*
X135754660Y-118318244D01*
X135729170Y-118331239D01*
X135706776Y-118342510D01*
X135641459Y-118374431D01*
X135580672Y-118402392D01*
X135523367Y-118426754D01*
X135468499Y-118447878D01*
X135415020Y-118466126D01*
X135361883Y-118481859D01*
X135308041Y-118495438D01*
X135252447Y-118507227D01*
X135204973Y-118515784D01*
X135145697Y-118525165D01*
X135091112Y-118532539D01*
X135039194Y-118538067D01*
X134987924Y-118541913D01*
X134935277Y-118544240D01*
X134879232Y-118545212D01*
X134840706Y-118545199D01*
X134814118Y-118544999D01*
X134789074Y-118544741D01*
X134766668Y-118544441D01*
X134747995Y-118544116D01*
X134734147Y-118543782D01*
X134726221Y-118543457D01*
X134726054Y-118543445D01*
X134635007Y-118534430D01*
X134545198Y-118520786D01*
X134457483Y-118502732D01*
X134372716Y-118480488D01*
X134291754Y-118454273D01*
X134215453Y-118424309D01*
X134157789Y-118397507D01*
X134071955Y-118350609D01*
X133988328Y-118297067D01*
X133906986Y-118236963D01*
X133828004Y-118170380D01*
X133751459Y-118097398D01*
X133677427Y-118018101D01*
X133605983Y-117932569D01*
X133537205Y-117840886D01*
X133471169Y-117743132D01*
X133407950Y-117639391D01*
X133347625Y-117529743D01*
X133343298Y-117521436D01*
X133306291Y-117446424D01*
X133271777Y-117368679D01*
X133239398Y-117287270D01*
X133208796Y-117201264D01*
X133179610Y-117109729D01*
X133163108Y-117053448D01*
X133155541Y-117026859D01*
X132909804Y-116927734D01*
X132870327Y-116911759D01*
X132832811Y-116896481D01*
X132797764Y-116882112D01*
X132765692Y-116868863D01*
X132737100Y-116856947D01*
X132712496Y-116846577D01*
X132692386Y-116837964D01*
X132677276Y-116831320D01*
X132667672Y-116826858D01*
X132664081Y-116824791D01*
X132664067Y-116824745D01*
X132666642Y-116821868D01*
X132674113Y-116814655D01*
X132686096Y-116803452D01*
X132702211Y-116788607D01*
X132722076Y-116770466D01*
X132745308Y-116749376D01*
X132771527Y-116725684D01*
X132800349Y-116699738D01*
X132831393Y-116671883D01*
X132864278Y-116642468D01*
X132889845Y-116619656D01*
X133115623Y-116418431D01*
X133130001Y-116378712D01*
X133158336Y-116308638D01*
X133191584Y-116241735D01*
X133230150Y-116177397D01*
X133274443Y-116115014D01*
X133324868Y-116053977D01*
X133381833Y-115993680D01*
X133398222Y-115977607D01*
X133465536Y-115917429D01*
X133538128Y-115861749D01*
X133615732Y-115810700D01*
X133698084Y-115764412D01*
X133784919Y-115723020D01*
X133875972Y-115686654D01*
X133970977Y-115655448D01*
X134069669Y-115629532D01*
X134115748Y-115619524D01*
X134160145Y-115610887D01*
X134199867Y-115604117D01*
X134236977Y-115598985D01*
X134273538Y-115595262D01*
X134311612Y-115592719D01*
X134353263Y-115591129D01*
X134376804Y-115590606D01*
X134423572Y-115590183D01*
X134465029Y-115590793D01*
D12*
X134550000Y-103700000D03*
D13*
X134550000Y-106240000D03*
D12*
X134550000Y-108780000D03*
D13*
X134550000Y-111320000D03*
D14*
X158461920Y-94250000D03*
X158461920Y-93599760D03*
X158461920Y-92949520D03*
X155800000Y-92949520D03*
X155800000Y-93599760D03*
X155800000Y-94250000D03*
X164300000Y-98250000D03*
X164300000Y-97599760D03*
X164300000Y-96949520D03*
X161638080Y-96949520D03*
X161638080Y-97599760D03*
X161638080Y-98250000D03*
X158611920Y-96700000D03*
X158611920Y-96049760D03*
X158611920Y-95399520D03*
X155950000Y-95399520D03*
X155950000Y-96049760D03*
X155950000Y-96700000D03*
D15*
X152250000Y-105850000D03*
X152250000Y-109850000D03*
D16*
X157800000Y-123500700D03*
X157800000Y-124999300D03*
D17*
X156050000Y-124750000D03*
X156050000Y-122550000D03*
D13*
X131500000Y-111300000D03*
D12*
X131500000Y-108760000D03*
D13*
X131500000Y-106220000D03*
D12*
X131500000Y-103680000D03*
D18*
X147350000Y-113890000D03*
D19*
X144810000Y-113890000D03*
X142270000Y-113890000D03*
X139730000Y-113890000D03*
X137190000Y-113890000D03*
X134650000Y-113890000D03*
D18*
X147400000Y-101200000D03*
D19*
X144860000Y-101200000D03*
X142320000Y-101200000D03*
X139780000Y-101200000D03*
X137240000Y-101200000D03*
D18*
X134700000Y-101200000D03*
D20*
X147400000Y-109140000D03*
D21*
X147400000Y-106600000D03*
D22*
X161190000Y-100200000D03*
X161190000Y-100600000D03*
X161190000Y-101000000D03*
X161190000Y-101400000D03*
X161190000Y-101800000D03*
X161190000Y-102200000D03*
X161190000Y-102600000D03*
X161190000Y-103000000D03*
X161190000Y-103400000D03*
X161190000Y-103800000D03*
X161190000Y-107800000D03*
X161190000Y-107400000D03*
X161190000Y-107000000D03*
X161190000Y-106600000D03*
X161190000Y-106200000D03*
X161190000Y-105800000D03*
X161190000Y-105400000D03*
X161190000Y-105000000D03*
X161190000Y-104600000D03*
X161190000Y-104200000D03*
X161190000Y-108200000D03*
X161190000Y-108600000D03*
X161190000Y-109000000D03*
X161190000Y-109400000D03*
X161190000Y-109800000D03*
X161190000Y-110200000D03*
X161190000Y-110600000D03*
X161190000Y-111000000D03*
X161190000Y-111400000D03*
X161190000Y-111800000D03*
X161190000Y-115800000D03*
X161190000Y-115400000D03*
X161190000Y-115000000D03*
X161190000Y-114600000D03*
X161190000Y-114200000D03*
X161190000Y-113800000D03*
X161190000Y-113400000D03*
X161190000Y-113000000D03*
X161190000Y-112600000D03*
X161190000Y-112200000D03*
X158110000Y-112200000D03*
X158110000Y-112600000D03*
X158110000Y-113000000D03*
X158110000Y-113400000D03*
X158110000Y-113800000D03*
X158110000Y-114200000D03*
X158110000Y-114600000D03*
X158110000Y-115000000D03*
X158110000Y-115400000D03*
X158110000Y-115800000D03*
X158110000Y-111800000D03*
X158110000Y-111400000D03*
X158110000Y-111000000D03*
X158110000Y-110600000D03*
X158110000Y-110200000D03*
X158110000Y-109800000D03*
X158110000Y-109400000D03*
X158110000Y-109000000D03*
X158110000Y-108600000D03*
X158110000Y-108200000D03*
X158110000Y-104200000D03*
X158110000Y-104600000D03*
X158110000Y-105000000D03*
X158110000Y-105400000D03*
X158110000Y-105800000D03*
X158110000Y-106200000D03*
X158110000Y-106600000D03*
X158110000Y-107000000D03*
X158110000Y-107400000D03*
X158110000Y-107800000D03*
X158110000Y-103800000D03*
X158110000Y-103400000D03*
X158110000Y-103000000D03*
X158110000Y-102600000D03*
X158110000Y-102200000D03*
X158110000Y-101800000D03*
X158110000Y-101400000D03*
X158110000Y-101000000D03*
X158110000Y-100600000D03*
X158110000Y-100200000D03*
D18*
X150745000Y-124450000D03*
D19*
X148205000Y-124450000D03*
X145665000Y-124450000D03*
X143125000Y-124450000D03*
X140585000Y-124450000D03*
X138045000Y-124450000D03*
M02*
