G04 #@! TF.FileFunction,Legend,Top*
%FSLAX46Y46*%
G04 Gerber Fmt 4.6, Leading zero omitted, Abs format (unit mm)*
G04 Created by KiCad (PCBNEW 4.0.1-stable) date Tuesday, April 12, 2016 'PMt' 11:05:27 PM*
%MOMM*%
G01*
G04 APERTURE LIST*
%ADD10C,0.100000*%
%ADD11C,0.200000*%
%ADD12C,0.150000*%
%ADD13C,0.300000*%
%ADD14C,0.175000*%
G04 APERTURE END LIST*
D10*
D11*
X139502858Y-118517857D02*
X138931429Y-118517857D01*
X138874286Y-119089286D01*
X138931429Y-119032143D01*
X139045715Y-118975000D01*
X139331429Y-118975000D01*
X139445715Y-119032143D01*
X139502858Y-119089286D01*
X139560001Y-119203571D01*
X139560001Y-119489286D01*
X139502858Y-119603571D01*
X139445715Y-119660714D01*
X139331429Y-119717857D01*
X139045715Y-119717857D01*
X138931429Y-119660714D01*
X138874286Y-119603571D01*
X139902858Y-118517857D02*
X140302858Y-119717857D01*
X140702858Y-118517857D01*
X142588572Y-119717857D02*
X142017143Y-119717857D01*
X142017143Y-118517857D01*
X143160001Y-119717857D02*
X143045715Y-119660714D01*
X142988572Y-119603571D01*
X142931429Y-119489286D01*
X142931429Y-119146429D01*
X142988572Y-119032143D01*
X143045715Y-118975000D01*
X143160001Y-118917857D01*
X143331429Y-118917857D01*
X143445715Y-118975000D01*
X143502858Y-119032143D01*
X143560001Y-119146429D01*
X143560001Y-119489286D01*
X143502858Y-119603571D01*
X143445715Y-119660714D01*
X143331429Y-119717857D01*
X143160001Y-119717857D01*
X144588572Y-118917857D02*
X144588572Y-119889286D01*
X144531429Y-120003571D01*
X144474286Y-120060714D01*
X144360001Y-120117857D01*
X144188572Y-120117857D01*
X144074286Y-120060714D01*
X144588572Y-119660714D02*
X144474286Y-119717857D01*
X144245715Y-119717857D01*
X144131429Y-119660714D01*
X144074286Y-119603571D01*
X144017143Y-119489286D01*
X144017143Y-119146429D01*
X144074286Y-119032143D01*
X144131429Y-118975000D01*
X144245715Y-118917857D01*
X144474286Y-118917857D01*
X144588572Y-118975000D01*
X145160000Y-119717857D02*
X145160000Y-118917857D01*
X145160000Y-118517857D02*
X145102857Y-118575000D01*
X145160000Y-118632143D01*
X145217143Y-118575000D01*
X145160000Y-118517857D01*
X145160000Y-118632143D01*
X146245715Y-119660714D02*
X146131429Y-119717857D01*
X145902858Y-119717857D01*
X145788572Y-119660714D01*
X145731429Y-119603571D01*
X145674286Y-119489286D01*
X145674286Y-119146429D01*
X145731429Y-119032143D01*
X145788572Y-118975000D01*
X145902858Y-118917857D01*
X146131429Y-118917857D01*
X146245715Y-118975000D01*
D12*
X138527381Y-122867857D02*
X137527381Y-122867857D01*
X137527381Y-122629762D01*
X137575000Y-122486904D01*
X137670238Y-122391666D01*
X137765476Y-122344047D01*
X137955952Y-122296428D01*
X138098810Y-122296428D01*
X138289286Y-122344047D01*
X138384524Y-122391666D01*
X138479762Y-122486904D01*
X138527381Y-122629762D01*
X138527381Y-122867857D01*
X137527381Y-122010714D02*
X137527381Y-121439285D01*
X138527381Y-121725000D02*
X137527381Y-121725000D01*
X138527381Y-120534523D02*
X138051190Y-120867857D01*
X138527381Y-121105952D02*
X137527381Y-121105952D01*
X137527381Y-120724999D01*
X137575000Y-120629761D01*
X137622619Y-120582142D01*
X137717857Y-120534523D01*
X137860714Y-120534523D01*
X137955952Y-120582142D01*
X138003571Y-120629761D01*
X138051190Y-120724999D01*
X138051190Y-121105952D01*
D13*
X148457143Y-121350000D02*
X148314286Y-121278571D01*
X148100000Y-121278571D01*
X147885715Y-121350000D01*
X147742857Y-121492857D01*
X147671429Y-121635714D01*
X147600000Y-121921429D01*
X147600000Y-122135714D01*
X147671429Y-122421429D01*
X147742857Y-122564286D01*
X147885715Y-122707143D01*
X148100000Y-122778571D01*
X148242857Y-122778571D01*
X148457143Y-122707143D01*
X148528572Y-122635714D01*
X148528572Y-122135714D01*
X148242857Y-122135714D01*
X149171429Y-122778571D02*
X149171429Y-121278571D01*
X150028572Y-122778571D01*
X150028572Y-121278571D01*
X150742858Y-122778571D02*
X150742858Y-121278571D01*
X151100001Y-121278571D01*
X151314286Y-121350000D01*
X151457144Y-121492857D01*
X151528572Y-121635714D01*
X151600001Y-121921429D01*
X151600001Y-122135714D01*
X151528572Y-122421429D01*
X151457144Y-122564286D01*
X151314286Y-122707143D01*
X151100001Y-122778571D01*
X150742858Y-122778571D01*
D12*
X145821429Y-122745714D02*
X145821429Y-121983809D01*
X146202381Y-122364761D02*
X145440476Y-122364761D01*
X145202381Y-121031428D02*
X145202381Y-121507619D01*
X145678571Y-121555238D01*
X145630952Y-121507619D01*
X145583333Y-121412381D01*
X145583333Y-121174285D01*
X145630952Y-121079047D01*
X145678571Y-121031428D01*
X145773810Y-120983809D01*
X146011905Y-120983809D01*
X146107143Y-121031428D01*
X146154762Y-121079047D01*
X146202381Y-121174285D01*
X146202381Y-121412381D01*
X146154762Y-121507619D01*
X146107143Y-121555238D01*
X145202381Y-120698095D02*
X146202381Y-120364762D01*
X145202381Y-120031428D01*
D13*
X143828571Y-121949999D02*
X143114286Y-122449999D01*
X143828571Y-122807142D02*
X142328571Y-122807142D01*
X142328571Y-122235714D01*
X142400000Y-122092856D01*
X142471429Y-122021428D01*
X142614286Y-121949999D01*
X142828571Y-121949999D01*
X142971429Y-122021428D01*
X143042857Y-122092856D01*
X143114286Y-122235714D01*
X143114286Y-122807142D01*
X142328571Y-121449999D02*
X143828571Y-120449999D01*
X142328571Y-120449999D02*
X143828571Y-121449999D01*
X139828571Y-122717857D02*
X139828571Y-121860714D01*
X141328571Y-122289285D02*
X139828571Y-122289285D01*
X139828571Y-121503571D02*
X141328571Y-120503571D01*
X139828571Y-120503571D02*
X141328571Y-121503571D01*
D14*
X136688572Y-91835714D02*
X136574286Y-91892857D01*
X136345715Y-91892857D01*
X136231429Y-91835714D01*
X136174286Y-91778571D01*
X136117143Y-91664286D01*
X136117143Y-91321429D01*
X136174286Y-91207143D01*
X136231429Y-91150000D01*
X136345715Y-91092857D01*
X136574286Y-91092857D01*
X136688572Y-91150000D01*
X137202857Y-91892857D02*
X137202857Y-90692857D01*
X137317143Y-91435714D02*
X137660000Y-91892857D01*
X137660000Y-91092857D02*
X137202857Y-91550000D01*
X138688572Y-91892857D02*
X138688572Y-90692857D01*
X138688572Y-91835714D02*
X138574286Y-91892857D01*
X138345715Y-91892857D01*
X138231429Y-91835714D01*
X138174286Y-91778571D01*
X138117143Y-91664286D01*
X138117143Y-91321429D01*
X138174286Y-91207143D01*
X138231429Y-91150000D01*
X138345715Y-91092857D01*
X138574286Y-91092857D01*
X138688572Y-91150000D01*
X139260000Y-91778571D02*
X139317143Y-91835714D01*
X139260000Y-91892857D01*
X139202857Y-91835714D01*
X139260000Y-91778571D01*
X139260000Y-91892857D01*
X139660001Y-91092857D02*
X140117144Y-91092857D01*
X139831429Y-90692857D02*
X139831429Y-91721429D01*
X139888572Y-91835714D01*
X140002858Y-91892857D01*
X140117144Y-91892857D01*
X140974286Y-91835714D02*
X140860000Y-91892857D01*
X140631429Y-91892857D01*
X140517143Y-91835714D01*
X140460000Y-91721429D01*
X140460000Y-91264286D01*
X140517143Y-91150000D01*
X140631429Y-91092857D01*
X140860000Y-91092857D01*
X140974286Y-91150000D01*
X141031429Y-91264286D01*
X141031429Y-91378571D01*
X140460000Y-91492857D01*
X142060000Y-91835714D02*
X141945714Y-91892857D01*
X141717143Y-91892857D01*
X141602857Y-91835714D01*
X141545714Y-91778571D01*
X141488571Y-91664286D01*
X141488571Y-91321429D01*
X141545714Y-91207143D01*
X141602857Y-91150000D01*
X141717143Y-91092857D01*
X141945714Y-91092857D01*
X142060000Y-91150000D01*
X142574285Y-91892857D02*
X142574285Y-90692857D01*
X143088571Y-91892857D02*
X143088571Y-91264286D01*
X143031428Y-91150000D01*
X142917142Y-91092857D01*
X142745714Y-91092857D01*
X142631428Y-91150000D01*
X142574285Y-91207143D01*
X144517142Y-90635714D02*
X143488571Y-92178571D01*
X145431428Y-91092857D02*
X145431428Y-91892857D01*
X144917142Y-91092857D02*
X144917142Y-91721429D01*
X144974285Y-91835714D01*
X145088571Y-91892857D01*
X145259999Y-91892857D01*
X145374285Y-91835714D01*
X145431428Y-91778571D01*
X146231428Y-90692857D02*
X146459999Y-90692857D01*
X146574285Y-90750000D01*
X146688571Y-90864286D01*
X146745713Y-91092857D01*
X146745713Y-91492857D01*
X146688571Y-91721429D01*
X146574285Y-91835714D01*
X146459999Y-91892857D01*
X146231428Y-91892857D01*
X146117142Y-91835714D01*
X146002856Y-91721429D01*
X145945713Y-91492857D01*
X145945713Y-91092857D01*
X146002856Y-90864286D01*
X146117142Y-90750000D01*
X146231428Y-90692857D01*
X147202856Y-91835714D02*
X147374285Y-91892857D01*
X147659999Y-91892857D01*
X147774285Y-91835714D01*
X147831428Y-91778571D01*
X147888571Y-91664286D01*
X147888571Y-91550000D01*
X147831428Y-91435714D01*
X147774285Y-91378571D01*
X147659999Y-91321429D01*
X147431428Y-91264286D01*
X147317142Y-91207143D01*
X147259999Y-91150000D01*
X147202856Y-91035714D01*
X147202856Y-90921429D01*
X147259999Y-90807143D01*
X147317142Y-90750000D01*
X147431428Y-90692857D01*
X147717142Y-90692857D01*
X147888571Y-90750000D01*
X148402856Y-91892857D02*
X148402856Y-90692857D01*
X148688571Y-90692857D01*
X148859999Y-90750000D01*
X148974285Y-90864286D01*
X149031428Y-90978571D01*
X149088571Y-91207143D01*
X149088571Y-91378571D01*
X149031428Y-91607143D01*
X148974285Y-91721429D01*
X148859999Y-91835714D01*
X148688571Y-91892857D01*
X148402856Y-91892857D01*
X150459999Y-90635714D02*
X149431428Y-92178571D01*
X150745714Y-91092857D02*
X151031428Y-91892857D01*
X151317142Y-91092857D01*
X152288571Y-91092857D02*
X152288571Y-91892857D01*
X152002857Y-90635714D02*
X151717142Y-91492857D01*
X152460000Y-91492857D01*
D12*
X158367144Y-117945714D02*
X158367144Y-118612381D01*
X158129048Y-117564762D02*
X157890953Y-118279048D01*
X158510001Y-118279048D01*
X158890953Y-118612381D02*
X158890953Y-117945714D01*
X158890953Y-118040952D02*
X158938572Y-117993333D01*
X159033810Y-117945714D01*
X159176668Y-117945714D01*
X159271906Y-117993333D01*
X159319525Y-118088571D01*
X159319525Y-118612381D01*
X159319525Y-118088571D02*
X159367144Y-117993333D01*
X159462382Y-117945714D01*
X159605239Y-117945714D01*
X159700477Y-117993333D01*
X159748096Y-118088571D01*
X159748096Y-118612381D01*
X160224286Y-118612381D02*
X160224286Y-117945714D01*
X160224286Y-118040952D02*
X160271905Y-117993333D01*
X160367143Y-117945714D01*
X160510001Y-117945714D01*
X160605239Y-117993333D01*
X160652858Y-118088571D01*
X160652858Y-118612381D01*
X160652858Y-118088571D02*
X160700477Y-117993333D01*
X160795715Y-117945714D01*
X160938572Y-117945714D01*
X161033810Y-117993333D01*
X161081429Y-118088571D01*
X161081429Y-118612381D01*
D13*
X137142857Y-107765714D02*
X137071428Y-107837143D01*
X136857142Y-107908571D01*
X136714285Y-107908571D01*
X136500000Y-107837143D01*
X136357142Y-107694286D01*
X136285714Y-107551429D01*
X136214285Y-107265714D01*
X136214285Y-107051429D01*
X136285714Y-106765714D01*
X136357142Y-106622857D01*
X136500000Y-106480000D01*
X136714285Y-106408571D01*
X136857142Y-106408571D01*
X137071428Y-106480000D01*
X137142857Y-106551429D01*
X137785714Y-106408571D02*
X137785714Y-107622857D01*
X137857142Y-107765714D01*
X137928571Y-107837143D01*
X138071428Y-107908571D01*
X138357142Y-107908571D01*
X138500000Y-107837143D01*
X138571428Y-107765714D01*
X138642857Y-107622857D01*
X138642857Y-106408571D01*
X139142857Y-106408571D02*
X140000000Y-106408571D01*
X139571429Y-107908571D02*
X139571429Y-106408571D01*
X141928571Y-106408571D02*
X142214285Y-106408571D01*
X142357143Y-106480000D01*
X142500000Y-106622857D01*
X142571428Y-106908571D01*
X142571428Y-107408571D01*
X142500000Y-107694286D01*
X142357143Y-107837143D01*
X142214285Y-107908571D01*
X141928571Y-107908571D01*
X141785714Y-107837143D01*
X141642857Y-107694286D01*
X141571428Y-107408571D01*
X141571428Y-106908571D01*
X141642857Y-106622857D01*
X141785714Y-106480000D01*
X141928571Y-106408571D01*
X143214286Y-106408571D02*
X143214286Y-107622857D01*
X143285714Y-107765714D01*
X143357143Y-107837143D01*
X143500000Y-107908571D01*
X143785714Y-107908571D01*
X143928572Y-107837143D01*
X144000000Y-107765714D01*
X144071429Y-107622857D01*
X144071429Y-106408571D01*
X144571429Y-106408571D02*
X145428572Y-106408571D01*
X145000001Y-107908571D02*
X145000001Y-106408571D01*
D12*
X132147619Y-96080952D02*
X131147619Y-96414285D01*
X132147619Y-96747619D01*
X131147619Y-97223809D02*
X131195238Y-97128571D01*
X131242857Y-97080952D01*
X131338095Y-97033333D01*
X131623810Y-97033333D01*
X131719048Y-97080952D01*
X131766667Y-97128571D01*
X131814286Y-97223809D01*
X131814286Y-97366667D01*
X131766667Y-97461905D01*
X131719048Y-97509524D01*
X131623810Y-97557143D01*
X131338095Y-97557143D01*
X131242857Y-97509524D01*
X131195238Y-97461905D01*
X131147619Y-97366667D01*
X131147619Y-97223809D01*
X131814286Y-98414286D02*
X131147619Y-98414286D01*
X131814286Y-97985714D02*
X131290476Y-97985714D01*
X131195238Y-98033333D01*
X131147619Y-98128571D01*
X131147619Y-98271429D01*
X131195238Y-98366667D01*
X131242857Y-98414286D01*
X131814286Y-98747619D02*
X131814286Y-99128571D01*
X132147619Y-98890476D02*
X131290476Y-98890476D01*
X131195238Y-98938095D01*
X131147619Y-99033333D01*
X131147619Y-99128571D01*
X130814286Y-99700000D02*
X132242857Y-99700000D01*
X131528571Y-100414286D02*
X131528571Y-101176191D01*
X132117619Y-113990953D02*
X131117619Y-114324286D01*
X132117619Y-114657620D01*
X131117619Y-114990953D02*
X131784286Y-114990953D01*
X132117619Y-114990953D02*
X132070000Y-114943334D01*
X132022381Y-114990953D01*
X132070000Y-115038572D01*
X132117619Y-114990953D01*
X132022381Y-114990953D01*
X131784286Y-115467143D02*
X131117619Y-115467143D01*
X131689048Y-115467143D02*
X131736667Y-115514762D01*
X131784286Y-115610000D01*
X131784286Y-115752858D01*
X131736667Y-115848096D01*
X131641429Y-115895715D01*
X131117619Y-115895715D01*
X130784286Y-116610000D02*
X132212857Y-116610000D01*
X131498571Y-117324286D02*
X131498571Y-118086191D01*
X130784286Y-118800476D02*
X132212857Y-118800476D01*
X131498571Y-119514762D02*
X131498571Y-120276667D01*
X131117619Y-119895715D02*
X131879524Y-119895715D01*
X132117619Y-121229048D02*
X132117619Y-120752857D01*
X131641429Y-120705238D01*
X131689048Y-120752857D01*
X131736667Y-120848095D01*
X131736667Y-121086191D01*
X131689048Y-121181429D01*
X131641429Y-121229048D01*
X131546190Y-121276667D01*
X131308095Y-121276667D01*
X131212857Y-121229048D01*
X131165238Y-121181429D01*
X131117619Y-121086191D01*
X131117619Y-120848095D01*
X131165238Y-120752857D01*
X131212857Y-120705238D01*
X132117619Y-121562381D02*
X131117619Y-121895714D01*
X132117619Y-122229048D01*
X132778095Y-97127381D02*
X132778095Y-96127381D01*
X133159048Y-96127381D01*
X133254286Y-96175000D01*
X133301905Y-96222619D01*
X133349524Y-96317857D01*
X133349524Y-96460714D01*
X133301905Y-96555952D01*
X133254286Y-96603571D01*
X133159048Y-96651190D01*
X132778095Y-96651190D01*
X133920952Y-97127381D02*
X133825714Y-97079762D01*
X133778095Y-96984524D01*
X133778095Y-96127381D01*
X134730477Y-97127381D02*
X134730477Y-96603571D01*
X134682858Y-96508333D01*
X134587620Y-96460714D01*
X134397143Y-96460714D01*
X134301905Y-96508333D01*
X134730477Y-97079762D02*
X134635239Y-97127381D01*
X134397143Y-97127381D01*
X134301905Y-97079762D01*
X134254286Y-96984524D01*
X134254286Y-96889286D01*
X134301905Y-96794048D01*
X134397143Y-96746429D01*
X134635239Y-96746429D01*
X134730477Y-96698810D01*
X135635239Y-97079762D02*
X135540001Y-97127381D01*
X135349524Y-97127381D01*
X135254286Y-97079762D01*
X135206667Y-97032143D01*
X135159048Y-96936905D01*
X135159048Y-96651190D01*
X135206667Y-96555952D01*
X135254286Y-96508333D01*
X135349524Y-96460714D01*
X135540001Y-96460714D01*
X135635239Y-96508333D01*
X136444763Y-97079762D02*
X136349525Y-97127381D01*
X136159048Y-97127381D01*
X136063810Y-97079762D01*
X136016191Y-96984524D01*
X136016191Y-96603571D01*
X136063810Y-96508333D01*
X136159048Y-96460714D01*
X136349525Y-96460714D01*
X136444763Y-96508333D01*
X136492382Y-96603571D01*
X136492382Y-96698810D01*
X136016191Y-96794048D01*
X137682858Y-97127381D02*
X137682858Y-96127381D01*
X138016192Y-96841667D01*
X138349525Y-96127381D01*
X138349525Y-97127381D01*
X138825715Y-97127381D02*
X138825715Y-96460714D01*
X138825715Y-96127381D02*
X138778096Y-96175000D01*
X138825715Y-96222619D01*
X138873334Y-96175000D01*
X138825715Y-96127381D01*
X138825715Y-96222619D01*
X139730477Y-97079762D02*
X139635239Y-97127381D01*
X139444762Y-97127381D01*
X139349524Y-97079762D01*
X139301905Y-97032143D01*
X139254286Y-96936905D01*
X139254286Y-96651190D01*
X139301905Y-96555952D01*
X139349524Y-96508333D01*
X139444762Y-96460714D01*
X139635239Y-96460714D01*
X139730477Y-96508333D01*
X140159048Y-97127381D02*
X140159048Y-96460714D01*
X140159048Y-96651190D02*
X140206667Y-96555952D01*
X140254286Y-96508333D01*
X140349524Y-96460714D01*
X140444763Y-96460714D01*
X140920953Y-97127381D02*
X140825715Y-97079762D01*
X140778096Y-97032143D01*
X140730477Y-96936905D01*
X140730477Y-96651190D01*
X140778096Y-96555952D01*
X140825715Y-96508333D01*
X140920953Y-96460714D01*
X141063811Y-96460714D01*
X141159049Y-96508333D01*
X141206668Y-96555952D01*
X141254287Y-96651190D01*
X141254287Y-96936905D01*
X141206668Y-97032143D01*
X141159049Y-97079762D01*
X141063811Y-97127381D01*
X140920953Y-97127381D01*
X142444763Y-97127381D02*
X142444763Y-96127381D01*
X142778097Y-96841667D01*
X143111430Y-96127381D01*
X143111430Y-97127381D01*
X143587620Y-97127381D02*
X143587620Y-96460714D01*
X143587620Y-96127381D02*
X143540001Y-96175000D01*
X143587620Y-96222619D01*
X143635239Y-96175000D01*
X143587620Y-96127381D01*
X143587620Y-96222619D01*
X144063810Y-96460714D02*
X144063810Y-97127381D01*
X144063810Y-96555952D02*
X144111429Y-96508333D01*
X144206667Y-96460714D01*
X144349525Y-96460714D01*
X144444763Y-96508333D01*
X144492382Y-96603571D01*
X144492382Y-97127381D01*
X144968572Y-97127381D02*
X144968572Y-96460714D01*
X144968572Y-96127381D02*
X144920953Y-96175000D01*
X144968572Y-96222619D01*
X145016191Y-96175000D01*
X144968572Y-96127381D01*
X144968572Y-96222619D01*
X145444762Y-97127381D02*
X145444762Y-96460714D01*
X145444762Y-96555952D02*
X145492381Y-96508333D01*
X145587619Y-96460714D01*
X145730477Y-96460714D01*
X145825715Y-96508333D01*
X145873334Y-96603571D01*
X145873334Y-97127381D01*
X145873334Y-96603571D02*
X145920953Y-96508333D01*
X146016191Y-96460714D01*
X146159048Y-96460714D01*
X146254286Y-96508333D01*
X146301905Y-96603571D01*
X146301905Y-97127381D01*
X146968571Y-96127381D02*
X147159048Y-96127381D01*
X147254286Y-96175000D01*
X147349524Y-96270238D01*
X147397143Y-96460714D01*
X147397143Y-96794048D01*
X147349524Y-96984524D01*
X147254286Y-97079762D01*
X147159048Y-97127381D01*
X146968571Y-97127381D01*
X146873333Y-97079762D01*
X146778095Y-96984524D01*
X146730476Y-96794048D01*
X146730476Y-96460714D01*
X146778095Y-96270238D01*
X146873333Y-96175000D01*
X146968571Y-96127381D01*
X147778095Y-97079762D02*
X147920952Y-97127381D01*
X148159048Y-97127381D01*
X148254286Y-97079762D01*
X148301905Y-97032143D01*
X148349524Y-96936905D01*
X148349524Y-96841667D01*
X148301905Y-96746429D01*
X148254286Y-96698810D01*
X148159048Y-96651190D01*
X147968571Y-96603571D01*
X147873333Y-96555952D01*
X147825714Y-96508333D01*
X147778095Y-96413095D01*
X147778095Y-96317857D01*
X147825714Y-96222619D01*
X147873333Y-96175000D01*
X147968571Y-96127381D01*
X148206667Y-96127381D01*
X148349524Y-96175000D01*
X148778095Y-97127381D02*
X148778095Y-96127381D01*
X149016190Y-96127381D01*
X149159048Y-96175000D01*
X149254286Y-96270238D01*
X149301905Y-96365476D01*
X149349524Y-96555952D01*
X149349524Y-96698810D01*
X149301905Y-96889286D01*
X149254286Y-96984524D01*
X149159048Y-97079762D01*
X149016190Y-97127381D01*
X148778095Y-97127381D01*
X135016190Y-98010714D02*
X135016190Y-99010714D01*
X135016190Y-98058333D02*
X135111428Y-98010714D01*
X135301905Y-98010714D01*
X135397143Y-98058333D01*
X135444762Y-98105952D01*
X135492381Y-98201190D01*
X135492381Y-98486905D01*
X135444762Y-98582143D01*
X135397143Y-98629762D01*
X135301905Y-98677381D01*
X135111428Y-98677381D01*
X135016190Y-98629762D01*
X136349524Y-98677381D02*
X136349524Y-98153571D01*
X136301905Y-98058333D01*
X136206667Y-98010714D01*
X136016190Y-98010714D01*
X135920952Y-98058333D01*
X136349524Y-98629762D02*
X136254286Y-98677381D01*
X136016190Y-98677381D01*
X135920952Y-98629762D01*
X135873333Y-98534524D01*
X135873333Y-98439286D01*
X135920952Y-98344048D01*
X136016190Y-98296429D01*
X136254286Y-98296429D01*
X136349524Y-98248810D01*
X137254286Y-98677381D02*
X137254286Y-97677381D01*
X137254286Y-98629762D02*
X137159048Y-98677381D01*
X136968571Y-98677381D01*
X136873333Y-98629762D01*
X136825714Y-98582143D01*
X136778095Y-98486905D01*
X136778095Y-98201190D01*
X136825714Y-98105952D01*
X136873333Y-98058333D01*
X136968571Y-98010714D01*
X137159048Y-98010714D01*
X137254286Y-98058333D01*
X137682857Y-98629762D02*
X137778095Y-98677381D01*
X137968571Y-98677381D01*
X138063810Y-98629762D01*
X138111429Y-98534524D01*
X138111429Y-98486905D01*
X138063810Y-98391667D01*
X137968571Y-98344048D01*
X137825714Y-98344048D01*
X137730476Y-98296429D01*
X137682857Y-98201190D01*
X137682857Y-98153571D01*
X137730476Y-98058333D01*
X137825714Y-98010714D01*
X137968571Y-98010714D01*
X138063810Y-98058333D01*
X139730477Y-98677381D02*
X139730477Y-97677381D01*
X139730477Y-98629762D02*
X139635239Y-98677381D01*
X139444762Y-98677381D01*
X139349524Y-98629762D01*
X139301905Y-98582143D01*
X139254286Y-98486905D01*
X139254286Y-98201190D01*
X139301905Y-98105952D01*
X139349524Y-98058333D01*
X139444762Y-98010714D01*
X139635239Y-98010714D01*
X139730477Y-98058333D01*
X140349524Y-98677381D02*
X140254286Y-98629762D01*
X140206667Y-98582143D01*
X140159048Y-98486905D01*
X140159048Y-98201190D01*
X140206667Y-98105952D01*
X140254286Y-98058333D01*
X140349524Y-98010714D01*
X140492382Y-98010714D01*
X140587620Y-98058333D01*
X140635239Y-98105952D01*
X140682858Y-98201190D01*
X140682858Y-98486905D01*
X140635239Y-98582143D01*
X140587620Y-98629762D01*
X140492382Y-98677381D01*
X140349524Y-98677381D01*
X141016191Y-98010714D02*
X141206667Y-98677381D01*
X141397144Y-98201190D01*
X141587620Y-98677381D01*
X141778096Y-98010714D01*
X142159048Y-98010714D02*
X142159048Y-98677381D01*
X142159048Y-98105952D02*
X142206667Y-98058333D01*
X142301905Y-98010714D01*
X142444763Y-98010714D01*
X142540001Y-98058333D01*
X142587620Y-98153571D01*
X142587620Y-98677381D01*
X143825715Y-98677381D02*
X143825715Y-97677381D01*
X144254287Y-98677381D02*
X144254287Y-98153571D01*
X144206668Y-98058333D01*
X144111430Y-98010714D01*
X143968572Y-98010714D01*
X143873334Y-98058333D01*
X143825715Y-98105952D01*
X145111430Y-98629762D02*
X145016192Y-98677381D01*
X144825715Y-98677381D01*
X144730477Y-98629762D01*
X144682858Y-98534524D01*
X144682858Y-98153571D01*
X144730477Y-98058333D01*
X144825715Y-98010714D01*
X145016192Y-98010714D01*
X145111430Y-98058333D01*
X145159049Y-98153571D01*
X145159049Y-98248810D01*
X144682858Y-98344048D01*
X145587620Y-98677381D02*
X145587620Y-98010714D01*
X145587620Y-98201190D02*
X145635239Y-98105952D01*
X145682858Y-98058333D01*
X145778096Y-98010714D01*
X145873335Y-98010714D01*
X146587621Y-98629762D02*
X146492383Y-98677381D01*
X146301906Y-98677381D01*
X146206668Y-98629762D01*
X146159049Y-98534524D01*
X146159049Y-98153571D01*
X146206668Y-98058333D01*
X146301906Y-98010714D01*
X146492383Y-98010714D01*
X146587621Y-98058333D01*
X146635240Y-98153571D01*
X146635240Y-98248810D01*
X146159049Y-98344048D01*
X147063811Y-98582143D02*
X147111430Y-98629762D01*
X147063811Y-98677381D01*
X147016192Y-98629762D01*
X147063811Y-98582143D01*
X147063811Y-98677381D01*
X133280000Y-104970000D02*
X133280000Y-112590000D01*
X135820000Y-104970000D02*
X135820000Y-112590000D01*
X133280000Y-112590000D02*
X135820000Y-112590000D01*
X135820000Y-104970000D02*
X133280000Y-104970000D01*
X159109620Y-94920560D02*
X159678580Y-94920560D01*
X159678580Y-94920560D02*
X159678580Y-94509080D01*
X164947700Y-98920560D02*
X165516660Y-98920560D01*
X165516660Y-98920560D02*
X165516660Y-98509080D01*
X159259620Y-97370560D02*
X159828580Y-97370560D01*
X159828580Y-97370560D02*
X159828580Y-96959080D01*
X153275000Y-108850000D02*
X153275000Y-106850000D01*
X151225000Y-106850000D02*
X151225000Y-108850000D01*
X158350000Y-125350000D02*
X158350000Y-123450000D01*
X157250000Y-125350000D02*
X157250000Y-123450000D01*
X157800000Y-124450000D02*
X157800000Y-124000000D01*
X157550000Y-124500000D02*
X158050000Y-124500000D01*
X157800000Y-124500000D02*
X157550000Y-124250000D01*
X157550000Y-124250000D02*
X158050000Y-124250000D01*
X158050000Y-124250000D02*
X157800000Y-124500000D01*
X156725000Y-123150000D02*
X156725000Y-124150000D01*
X155375000Y-124150000D02*
X155375000Y-123150000D01*
X146080000Y-115160000D02*
X133380000Y-115160000D01*
X133380000Y-115160000D02*
X133380000Y-112620000D01*
X133380000Y-112620000D02*
X146080000Y-112620000D01*
X148900000Y-115440000D02*
X147350000Y-115440000D01*
X146080000Y-115160000D02*
X146080000Y-112620000D01*
X147350000Y-112340000D02*
X148900000Y-112340000D01*
X148900000Y-112340000D02*
X148900000Y-115440000D01*
X146130000Y-102470000D02*
X133430000Y-102470000D01*
X133430000Y-102470000D02*
X133430000Y-99930000D01*
X133430000Y-99930000D02*
X146130000Y-99930000D01*
X148950000Y-102750000D02*
X147400000Y-102750000D01*
X146130000Y-102470000D02*
X146130000Y-99930000D01*
X147400000Y-99650000D02*
X148950000Y-99650000D01*
X148950000Y-99650000D02*
X148950000Y-102750000D01*
X146130000Y-107870000D02*
X146130000Y-105330000D01*
X145850000Y-110690000D02*
X145850000Y-109140000D01*
X146130000Y-107870000D02*
X148670000Y-107870000D01*
X148950000Y-109140000D02*
X148950000Y-110690000D01*
X148950000Y-110690000D02*
X145850000Y-110690000D01*
X148670000Y-107870000D02*
X148670000Y-105330000D01*
X148670000Y-105330000D02*
X146130000Y-105330000D01*
X152295000Y-123150000D02*
X150745000Y-123150000D01*
X152295000Y-124450000D02*
X152295000Y-123150000D01*
X150872000Y-128641000D02*
X150872000Y-134483000D01*
X150872000Y-134483000D02*
X150618000Y-134483000D01*
X150618000Y-134483000D02*
X150618000Y-128641000D01*
X150618000Y-128641000D02*
X150745000Y-128641000D01*
X150745000Y-128641000D02*
X150745000Y-134483000D01*
X150999000Y-125974000D02*
X150999000Y-125593000D01*
X150491000Y-125974000D02*
X150491000Y-125593000D01*
X148459000Y-125974000D02*
X148459000Y-125593000D01*
X147951000Y-125974000D02*
X147951000Y-125593000D01*
X145919000Y-125974000D02*
X145919000Y-125593000D01*
X145411000Y-125974000D02*
X145411000Y-125593000D01*
X137791000Y-125974000D02*
X137791000Y-125593000D01*
X138299000Y-125974000D02*
X138299000Y-125593000D01*
X140331000Y-125974000D02*
X140331000Y-125593000D01*
X140839000Y-125974000D02*
X140839000Y-125593000D01*
X142871000Y-125974000D02*
X142871000Y-125593000D01*
X143379000Y-125974000D02*
X143379000Y-125593000D01*
X152015000Y-125974000D02*
X152015000Y-128514000D01*
X149475000Y-125974000D02*
X149475000Y-128514000D01*
X149475000Y-125974000D02*
X146935000Y-125974000D01*
X146935000Y-125974000D02*
X146935000Y-128514000D01*
X148459000Y-128514000D02*
X148459000Y-134610000D01*
X148459000Y-134610000D02*
X147951000Y-134610000D01*
X147951000Y-134610000D02*
X147951000Y-128514000D01*
X146935000Y-128514000D02*
X149475000Y-128514000D01*
X149475000Y-128514000D02*
X152015000Y-128514000D01*
X150491000Y-134610000D02*
X150491000Y-128514000D01*
X150999000Y-134610000D02*
X150491000Y-134610000D01*
X150999000Y-128514000D02*
X150999000Y-134610000D01*
X149475000Y-125974000D02*
X149475000Y-128514000D01*
X152015000Y-125974000D02*
X149475000Y-125974000D01*
X141855000Y-125974000D02*
X141855000Y-128514000D01*
X141855000Y-125974000D02*
X139315000Y-125974000D01*
X139315000Y-125974000D02*
X139315000Y-128514000D01*
X140839000Y-128514000D02*
X140839000Y-134610000D01*
X140839000Y-134610000D02*
X140331000Y-134610000D01*
X140331000Y-134610000D02*
X140331000Y-128514000D01*
X139315000Y-128514000D02*
X141855000Y-128514000D01*
X136775000Y-128514000D02*
X139315000Y-128514000D01*
X137791000Y-134610000D02*
X137791000Y-128514000D01*
X138299000Y-134610000D02*
X137791000Y-134610000D01*
X138299000Y-128514000D02*
X138299000Y-134610000D01*
X136775000Y-125974000D02*
X136775000Y-128514000D01*
X139315000Y-125974000D02*
X136775000Y-125974000D01*
X139315000Y-125974000D02*
X139315000Y-128514000D01*
X144395000Y-125974000D02*
X144395000Y-128514000D01*
X144395000Y-125974000D02*
X141855000Y-125974000D01*
X141855000Y-125974000D02*
X141855000Y-128514000D01*
X143379000Y-128514000D02*
X143379000Y-134610000D01*
X143379000Y-134610000D02*
X142871000Y-134610000D01*
X142871000Y-134610000D02*
X142871000Y-128514000D01*
X141855000Y-128514000D02*
X144395000Y-128514000D01*
X144395000Y-128514000D02*
X146935000Y-128514000D01*
X145411000Y-134610000D02*
X145411000Y-128514000D01*
X145919000Y-134610000D02*
X145411000Y-134610000D01*
X145919000Y-128514000D02*
X145919000Y-134610000D01*
X144395000Y-125974000D02*
X144395000Y-128514000D01*
X146935000Y-125974000D02*
X144395000Y-125974000D01*
X146935000Y-125974000D02*
X146935000Y-128514000D01*
X150309760Y-116690840D02*
X150309760Y-116739100D01*
X151010800Y-119489820D02*
X150309760Y-119489820D01*
X150309760Y-119489820D02*
X150309760Y-119240900D01*
X150309760Y-116690840D02*
X150309760Y-116490180D01*
X150309760Y-116490180D02*
X151010800Y-116490180D01*
X147260000Y-117815000D02*
X146260000Y-117815000D01*
X146260000Y-116465000D02*
X147260000Y-116465000D01*
X152795000Y-120410000D02*
X152795000Y-119410000D01*
X154145000Y-119410000D02*
X154145000Y-120410000D01*
X150910000Y-102925000D02*
X151910000Y-102925000D01*
X151910000Y-104275000D02*
X150910000Y-104275000D01*
X148490000Y-119590000D02*
X146940000Y-119590000D01*
X148490000Y-120790000D02*
X146940000Y-120790000D01*
D10*
G36*
X156306953Y-120784474D02*
X156306953Y-119574004D01*
X156592452Y-119426488D01*
X156583517Y-119431578D01*
X156575125Y-119437019D01*
X156567273Y-119442811D01*
X156559964Y-119448955D01*
X156553195Y-119455449D01*
X156546969Y-119462294D01*
X156541283Y-119469490D01*
X156536139Y-119477037D01*
X156531537Y-119484935D01*
X156527476Y-119493185D01*
X156523956Y-119501785D01*
X156520978Y-119510736D01*
X156518542Y-119520039D01*
X156516647Y-119529692D01*
X156515293Y-119539696D01*
X156514481Y-119550052D01*
X156514210Y-119560758D01*
X156514210Y-120142844D01*
X156514210Y-120142828D01*
X156527211Y-120147711D01*
X156540246Y-120152315D01*
X156553316Y-120156640D01*
X156566419Y-120160686D01*
X156579556Y-120164452D01*
X156592728Y-120167940D01*
X156605933Y-120171149D01*
X156619172Y-120174078D01*
X156632446Y-120176729D01*
X156645753Y-120179101D01*
X156659095Y-120181193D01*
X156672470Y-120183007D01*
X156685880Y-120184541D01*
X156699323Y-120185797D01*
X156712801Y-120186774D01*
X156726312Y-120187471D01*
X156739858Y-120187890D01*
X156753437Y-120188029D01*
X156768613Y-120187866D01*
X156783271Y-120187375D01*
X156797412Y-120186557D01*
X156811036Y-120185413D01*
X156824143Y-120183941D01*
X156836732Y-120182142D01*
X156848804Y-120180016D01*
X156860360Y-120177564D01*
X156871397Y-120174784D01*
X156883765Y-120171094D01*
X156896064Y-120166647D01*
X156908294Y-120161444D01*
X156920456Y-120155483D01*
X156932548Y-120148766D01*
X156944571Y-120141292D01*
X156956526Y-120133061D01*
X156968411Y-120124074D01*
X156976839Y-120116911D01*
X156984884Y-120109055D01*
X156992546Y-120100508D01*
X156999826Y-120091268D01*
X157006723Y-120081337D01*
X157013237Y-120070713D01*
X157019369Y-120059397D01*
X157025118Y-120047389D01*
X157030485Y-120034688D01*
X157035468Y-120021296D01*
X157040069Y-120007211D01*
X157043337Y-119996294D01*
X157046380Y-119985005D01*
X157049197Y-119973343D01*
X157051789Y-119961309D01*
X157054156Y-119948902D01*
X157056297Y-119936123D01*
X157058213Y-119922972D01*
X157059903Y-119909448D01*
X157061368Y-119895552D01*
X157062608Y-119881284D01*
X157063622Y-119866644D01*
X157064411Y-119851631D01*
X157064974Y-119836245D01*
X157065313Y-119820488D01*
X157065425Y-119804358D01*
X157065326Y-119788137D01*
X157065029Y-119772269D01*
X157064534Y-119756755D01*
X157063841Y-119741593D01*
X157062949Y-119726785D01*
X157061860Y-119712329D01*
X157060572Y-119698227D01*
X157059086Y-119684477D01*
X157057402Y-119671081D01*
X157055521Y-119658037D01*
X157053441Y-119645347D01*
X157051163Y-119633009D01*
X157048686Y-119621025D01*
X157046012Y-119609393D01*
X157043140Y-119598115D01*
X157040069Y-119587189D01*
X157035477Y-119571744D01*
X157030521Y-119557083D01*
X157025200Y-119543205D01*
X157019515Y-119530112D01*
X157013465Y-119517802D01*
X157007051Y-119506277D01*
X157000273Y-119495535D01*
X156993129Y-119485577D01*
X156985622Y-119476403D01*
X156977750Y-119468014D01*
X156969514Y-119460408D01*
X156957955Y-119450881D01*
X156946432Y-119442147D01*
X156934942Y-119434205D01*
X156923487Y-119427057D01*
X156912067Y-119420700D01*
X156900681Y-119415136D01*
X156889329Y-119410365D01*
X156878012Y-119406387D01*
X156866505Y-119403035D01*
X156854585Y-119400131D01*
X156842252Y-119397673D01*
X156829505Y-119395662D01*
X156816345Y-119394098D01*
X156802771Y-119392981D01*
X156788784Y-119392311D01*
X156774384Y-119392087D01*
X156757869Y-119392263D01*
X156741896Y-119392789D01*
X156726464Y-119393667D01*
X156711574Y-119394896D01*
X156697225Y-119396475D01*
X156683418Y-119398406D01*
X156670152Y-119400688D01*
X156657427Y-119403320D01*
X156645244Y-119406304D01*
X156633603Y-119409639D01*
X156622503Y-119413325D01*
X156611944Y-119417362D01*
X156601927Y-119421750D01*
X156592452Y-119426488D01*
X156306953Y-119574004D01*
X156307137Y-119561908D01*
X156307688Y-119549873D01*
X156308607Y-119537898D01*
X156309893Y-119525985D01*
X156311546Y-119514133D01*
X156313568Y-119502342D01*
X156315862Y-119491565D01*
X156318967Y-119480024D01*
X156322882Y-119467717D01*
X156327607Y-119454646D01*
X156333141Y-119440809D01*
X156339486Y-119426208D01*
X156346641Y-119410842D01*
X156352997Y-119398756D01*
X156359815Y-119386998D01*
X156367097Y-119375565D01*
X156374841Y-119364460D01*
X156383048Y-119353681D01*
X156391718Y-119343229D01*
X156400850Y-119333104D01*
X156410445Y-119323305D01*
X156420503Y-119313833D01*
X156428542Y-119306933D01*
X156437224Y-119300202D01*
X156446548Y-119293640D01*
X156456516Y-119287246D01*
X156467127Y-119281021D01*
X156478381Y-119274965D01*
X156490278Y-119269078D01*
X156502818Y-119263359D01*
X156516001Y-119257809D01*
X156529828Y-119252427D01*
X156544297Y-119247215D01*
X156559410Y-119242171D01*
X156571101Y-119238433D01*
X156583026Y-119234935D01*
X156595183Y-119231679D01*
X156607572Y-119228665D01*
X156620194Y-119225891D01*
X156633049Y-119223359D01*
X156646136Y-119221067D01*
X156659455Y-119219017D01*
X156673007Y-119217208D01*
X156686792Y-119215641D01*
X156700809Y-119214314D01*
X156715059Y-119213229D01*
X156729541Y-119212385D01*
X156744256Y-119211782D01*
X156759204Y-119211420D01*
X156774384Y-119211300D01*
X156788307Y-119211435D01*
X156802148Y-119211842D01*
X156815908Y-119212520D01*
X156829587Y-119213470D01*
X156843183Y-119214691D01*
X156856698Y-119216183D01*
X156870132Y-119217946D01*
X156883483Y-119219981D01*
X156896753Y-119222287D01*
X156907860Y-119224514D01*
X156919130Y-119227197D01*
X156930564Y-119230336D01*
X156942163Y-119233933D01*
X156953925Y-119237986D01*
X156965851Y-119242496D01*
X156977941Y-119247463D01*
X156990196Y-119252887D01*
X157002614Y-119258767D01*
X157015196Y-119265104D01*
X157027943Y-119271898D01*
X157039748Y-119278491D01*
X157051277Y-119285405D01*
X157062531Y-119292641D01*
X157073510Y-119300197D01*
X157084213Y-119308075D01*
X157094640Y-119316275D01*
X157104791Y-119324796D01*
X157114667Y-119333638D01*
X157124267Y-119342801D01*
X157133592Y-119352286D01*
X157142641Y-119362092D01*
X157151415Y-119372219D01*
X157158245Y-119380677D01*
X157164918Y-119389585D01*
X157171435Y-119398944D01*
X157177795Y-119408754D01*
X157183998Y-119419015D01*
X157190044Y-119429727D01*
X157195933Y-119440889D01*
X157201666Y-119452502D01*
X157207242Y-119464566D01*
X157212661Y-119477080D01*
X157217923Y-119490045D01*
X157223029Y-119503461D01*
X157227977Y-119517328D01*
X157232769Y-119531646D01*
X157237404Y-119546414D01*
X157241020Y-119558232D01*
X157244440Y-119570245D01*
X157247665Y-119582453D01*
X157250695Y-119594857D01*
X157253529Y-119607456D01*
X157256167Y-119620251D01*
X157258610Y-119633242D01*
X157260858Y-119646428D01*
X157262910Y-119659809D01*
X157264767Y-119673386D01*
X157266428Y-119687158D01*
X157267894Y-119701126D01*
X157269164Y-119715289D01*
X157270239Y-119729647D01*
X157271119Y-119744202D01*
X157271803Y-119758951D01*
X157272291Y-119773896D01*
X157272584Y-119789037D01*
X157272682Y-119804373D01*
X157272577Y-119820222D01*
X157272262Y-119835851D01*
X157271737Y-119851260D01*
X157271002Y-119866450D01*
X157270057Y-119881419D01*
X157268902Y-119896168D01*
X157267537Y-119910697D01*
X157265963Y-119925006D01*
X157264178Y-119939096D01*
X157262183Y-119952965D01*
X157259978Y-119966614D01*
X157257563Y-119980043D01*
X157254938Y-119993252D01*
X157252103Y-120006241D01*
X157249059Y-120019010D01*
X157245804Y-120031560D01*
X157242339Y-120043889D01*
X157238664Y-120055998D01*
X157234780Y-120067887D01*
X157230685Y-120079556D01*
X157226380Y-120091005D01*
X157220592Y-120105513D01*
X157214529Y-120119548D01*
X157208190Y-120133109D01*
X157201575Y-120146196D01*
X157194685Y-120158810D01*
X157187519Y-120170950D01*
X157180078Y-120182616D01*
X157172361Y-120193809D01*
X157164368Y-120204528D01*
X157156100Y-120214774D01*
X157147556Y-120224545D01*
X157138737Y-120233843D01*
X157129642Y-120242668D01*
X157120271Y-120251018D01*
X157110625Y-120258895D01*
X157100703Y-120266299D01*
X157089189Y-120274324D01*
X157077642Y-120282023D01*
X157066061Y-120289396D01*
X157054446Y-120296443D01*
X157042797Y-120303164D01*
X157031115Y-120309559D01*
X157019399Y-120315628D01*
X157007649Y-120321370D01*
X156995865Y-120326787D01*
X156984048Y-120331877D01*
X156972197Y-120336642D01*
X156960312Y-120341080D01*
X156948393Y-120345192D01*
X156936441Y-120348979D01*
X156924539Y-120352319D01*
X156912457Y-120355412D01*
X156900196Y-120358257D01*
X156887754Y-120360855D01*
X156875132Y-120363206D01*
X156862331Y-120365309D01*
X156849349Y-120367165D01*
X156836187Y-120368773D01*
X156822846Y-120370134D01*
X156809324Y-120371248D01*
X156795622Y-120372114D01*
X156781741Y-120372732D01*
X156767679Y-120373103D01*
X156753437Y-120373227D01*
X156739626Y-120373125D01*
X156725877Y-120372819D01*
X156712188Y-120372309D01*
X156698561Y-120371594D01*
X156684995Y-120370676D01*
X156671490Y-120369553D01*
X156658047Y-120368226D01*
X156644664Y-120366695D01*
X156631343Y-120364960D01*
X156618083Y-120363021D01*
X156604885Y-120360877D01*
X156591748Y-120358530D01*
X156578672Y-120355978D01*
X156565657Y-120353223D01*
X156552703Y-120350263D01*
X156539811Y-120347099D01*
X156526980Y-120343731D01*
X156514210Y-120340158D01*
X156514210Y-120784444D01*
X156306953Y-120784444D01*
X156306953Y-120784474D01*
X156306953Y-120784474D01*
G37*
G36*
X157553802Y-120085526D02*
X157739010Y-119585022D01*
X157736073Y-119595396D01*
X157733326Y-119606123D01*
X157730768Y-119617204D01*
X157728400Y-119628637D01*
X157726220Y-119640424D01*
X157724231Y-119652564D01*
X157722431Y-119665057D01*
X157720820Y-119677903D01*
X157719399Y-119691102D01*
X157718168Y-119704655D01*
X157717125Y-119718560D01*
X157716273Y-119732819D01*
X157715610Y-119747431D01*
X157715136Y-119762396D01*
X157714852Y-119777714D01*
X157714757Y-119793385D01*
X157714852Y-119809060D01*
X157715136Y-119824391D01*
X157715610Y-119839377D01*
X157716273Y-119854019D01*
X157717125Y-119868316D01*
X157718168Y-119882269D01*
X157719399Y-119895877D01*
X157720820Y-119909141D01*
X157722431Y-119922060D01*
X157724231Y-119934635D01*
X157726220Y-119946865D01*
X157728400Y-119958750D01*
X157730768Y-119970291D01*
X157733326Y-119981487D01*
X157736073Y-119992339D01*
X157739010Y-120002846D01*
X157743821Y-120017333D01*
X157749033Y-120031127D01*
X157754645Y-120044229D01*
X157760658Y-120056639D01*
X157767072Y-120068356D01*
X157773887Y-120079381D01*
X157781103Y-120089713D01*
X157788720Y-120099353D01*
X157796738Y-120108301D01*
X157805156Y-120116556D01*
X157813976Y-120124119D01*
X157825014Y-120132610D01*
X157836079Y-120140447D01*
X157847171Y-120147632D01*
X157858291Y-120154163D01*
X157869438Y-120160042D01*
X157880612Y-120165267D01*
X157891813Y-120169840D01*
X157903041Y-120173760D01*
X157914297Y-120177026D01*
X157925825Y-120179806D01*
X157937870Y-120182259D01*
X157950432Y-120184385D01*
X157963512Y-120186184D01*
X157977108Y-120187656D01*
X157991222Y-120188800D01*
X158005853Y-120189618D01*
X158021001Y-120190108D01*
X158036667Y-120190272D01*
X158052563Y-120190108D01*
X158067916Y-120189618D01*
X158082724Y-120188800D01*
X158096987Y-120187656D01*
X158110706Y-120186184D01*
X158123881Y-120184385D01*
X158136511Y-120182259D01*
X158148597Y-120179806D01*
X158160139Y-120177026D01*
X158171394Y-120173757D01*
X158182623Y-120169835D01*
X158193824Y-120165261D01*
X158204998Y-120160034D01*
X158216145Y-120154156D01*
X158227265Y-120147625D01*
X158238357Y-120140442D01*
X158249422Y-120132607D01*
X158260460Y-120124119D01*
X158269270Y-120116556D01*
X158277662Y-120108301D01*
X158285634Y-120099353D01*
X158293187Y-120089713D01*
X158300321Y-120079381D01*
X158307035Y-120068356D01*
X158313331Y-120056639D01*
X158319208Y-120044229D01*
X158324665Y-120031127D01*
X158329704Y-120017333D01*
X158334323Y-120002846D01*
X158337393Y-119992339D01*
X158340266Y-119981487D01*
X158342940Y-119970291D01*
X158345416Y-119958750D01*
X158347694Y-119946865D01*
X158349774Y-119934635D01*
X158351656Y-119922060D01*
X158353340Y-119909141D01*
X158354826Y-119895877D01*
X158356113Y-119882269D01*
X158357203Y-119868316D01*
X158358094Y-119854019D01*
X158358787Y-119839377D01*
X158359283Y-119824391D01*
X158359580Y-119809060D01*
X158359679Y-119793385D01*
X158359580Y-119777714D01*
X158359283Y-119762396D01*
X158358787Y-119747431D01*
X158358094Y-119732819D01*
X158357203Y-119718560D01*
X158356113Y-119704655D01*
X158354826Y-119691102D01*
X158353340Y-119677903D01*
X158351656Y-119665057D01*
X158349774Y-119652564D01*
X158347694Y-119640424D01*
X158345416Y-119628637D01*
X158342940Y-119617204D01*
X158340266Y-119606123D01*
X158337393Y-119595396D01*
X158334323Y-119585022D01*
X158329704Y-119570345D01*
X158324665Y-119556378D01*
X158319208Y-119543121D01*
X158313331Y-119530576D01*
X158307035Y-119518740D01*
X158300321Y-119507616D01*
X158293187Y-119497201D01*
X158285634Y-119487498D01*
X158277662Y-119478505D01*
X158269270Y-119470222D01*
X158260460Y-119462650D01*
X158249422Y-119454160D01*
X158238357Y-119446322D01*
X158227265Y-119439138D01*
X158216145Y-119432606D01*
X158204998Y-119426728D01*
X158193824Y-119421502D01*
X158182623Y-119416929D01*
X158171394Y-119413010D01*
X158160139Y-119409743D01*
X158148597Y-119406963D01*
X158136511Y-119404510D01*
X158123881Y-119402384D01*
X158110706Y-119400586D01*
X158096987Y-119399114D01*
X158082724Y-119397969D01*
X158067916Y-119397152D01*
X158052563Y-119396661D01*
X158036667Y-119396497D01*
X158021001Y-119396661D01*
X158005853Y-119397152D01*
X157991222Y-119397969D01*
X157977108Y-119399114D01*
X157963512Y-119400586D01*
X157950432Y-119402384D01*
X157937870Y-119404510D01*
X157925825Y-119406963D01*
X157914297Y-119409743D01*
X157903041Y-119413013D01*
X157891813Y-119416935D01*
X157880612Y-119421509D01*
X157869438Y-119426735D01*
X157858291Y-119432614D01*
X157847171Y-119439144D01*
X157836079Y-119446327D01*
X157825014Y-119454163D01*
X157813976Y-119462650D01*
X157805156Y-119470222D01*
X157796738Y-119478505D01*
X157788720Y-119487498D01*
X157781103Y-119497201D01*
X157773887Y-119507616D01*
X157767072Y-119518740D01*
X157760658Y-119530576D01*
X157754645Y-119543121D01*
X157749033Y-119556378D01*
X157743821Y-119570345D01*
X157739010Y-119585022D01*
X157553802Y-120085526D01*
X157549590Y-120074495D01*
X157545575Y-120063251D01*
X157541755Y-120051792D01*
X157538131Y-120040119D01*
X157534703Y-120028232D01*
X157531471Y-120016130D01*
X157528435Y-120003815D01*
X157525594Y-119991285D01*
X157522950Y-119978541D01*
X157520501Y-119965583D01*
X157518249Y-119952411D01*
X157516192Y-119939025D01*
X157514331Y-119925425D01*
X157512666Y-119911610D01*
X157511197Y-119897581D01*
X157509924Y-119883339D01*
X157508846Y-119868882D01*
X157507965Y-119854211D01*
X157507279Y-119839325D01*
X157506789Y-119824226D01*
X157506496Y-119808912D01*
X157506398Y-119793385D01*
X157506496Y-119777859D01*
X157506789Y-119762553D01*
X157507279Y-119747464D01*
X157507965Y-119732595D01*
X157508846Y-119717944D01*
X157509924Y-119703512D01*
X157511197Y-119689299D01*
X157512666Y-119675305D01*
X157514331Y-119661529D01*
X157516192Y-119647971D01*
X157518249Y-119634633D01*
X157520501Y-119621513D01*
X157522950Y-119608612D01*
X157525594Y-119595929D01*
X157528435Y-119583465D01*
X157531471Y-119571220D01*
X157534703Y-119559194D01*
X157538131Y-119547386D01*
X157541755Y-119535797D01*
X157545575Y-119524427D01*
X157549590Y-119513275D01*
X157553802Y-119502342D01*
X157559497Y-119488416D01*
X157565429Y-119474908D01*
X157571597Y-119461821D01*
X157578002Y-119449153D01*
X157584643Y-119436904D01*
X157591521Y-119425075D01*
X157598635Y-119413665D01*
X157605986Y-119402674D01*
X157613574Y-119392104D01*
X157621397Y-119381952D01*
X157629458Y-119372220D01*
X157637755Y-119362908D01*
X157646288Y-119354015D01*
X157655058Y-119345542D01*
X157664064Y-119337488D01*
X157673307Y-119329853D01*
X157682786Y-119322638D01*
X157694458Y-119314314D01*
X157706162Y-119306349D01*
X157717901Y-119298745D01*
X157729674Y-119291501D01*
X157741480Y-119284617D01*
X157753320Y-119278093D01*
X157765193Y-119271928D01*
X157777101Y-119266124D01*
X157789042Y-119260680D01*
X157801017Y-119255596D01*
X157813025Y-119250872D01*
X157825068Y-119246508D01*
X157837144Y-119242504D01*
X157849253Y-119238859D01*
X157861616Y-119235368D01*
X157874137Y-119232135D01*
X157886815Y-119229160D01*
X157899650Y-119226444D01*
X157912643Y-119223987D01*
X157925794Y-119221789D01*
X157939102Y-119219849D01*
X157952567Y-119218168D01*
X157966190Y-119216745D01*
X157979970Y-119215581D01*
X157993908Y-119214676D01*
X158008003Y-119214029D01*
X158022256Y-119213641D01*
X158036667Y-119213512D01*
X158051223Y-119213641D01*
X158065600Y-119214029D01*
X158079796Y-119214676D01*
X158093813Y-119215581D01*
X158107650Y-119216745D01*
X158121306Y-119218168D01*
X158134783Y-119219849D01*
X158148080Y-119221789D01*
X158161196Y-119223987D01*
X158174133Y-119226444D01*
X158186890Y-119229160D01*
X158199466Y-119232135D01*
X158211863Y-119235368D01*
X158224080Y-119238859D01*
X158236342Y-119242504D01*
X158248558Y-119246508D01*
X158260730Y-119250872D01*
X158272857Y-119255596D01*
X158284938Y-119260680D01*
X158296975Y-119266124D01*
X158308967Y-119271928D01*
X158320914Y-119278093D01*
X158332815Y-119284617D01*
X158344672Y-119291501D01*
X158356484Y-119298745D01*
X158368251Y-119306349D01*
X158379972Y-119314314D01*
X158391649Y-119322638D01*
X158401129Y-119329853D01*
X158410372Y-119337488D01*
X158419378Y-119345542D01*
X158428148Y-119354015D01*
X158436681Y-119362908D01*
X158444978Y-119372220D01*
X158453038Y-119381952D01*
X158460862Y-119392104D01*
X158468449Y-119402674D01*
X158475800Y-119413665D01*
X158482915Y-119425075D01*
X158489792Y-119436904D01*
X158496434Y-119449153D01*
X158502838Y-119461821D01*
X158509007Y-119474908D01*
X158514938Y-119488416D01*
X158520634Y-119502342D01*
X158524845Y-119513275D01*
X158528861Y-119524427D01*
X158532681Y-119535797D01*
X158536305Y-119547386D01*
X158539733Y-119559194D01*
X158542965Y-119571220D01*
X158546001Y-119583465D01*
X158548841Y-119595929D01*
X158551486Y-119608612D01*
X158553934Y-119621513D01*
X158556187Y-119634633D01*
X158558244Y-119647971D01*
X158560105Y-119661529D01*
X158561770Y-119675305D01*
X158563239Y-119689299D01*
X158564512Y-119703512D01*
X158565590Y-119717944D01*
X158566471Y-119732595D01*
X158567157Y-119747464D01*
X158567646Y-119762553D01*
X158567940Y-119777859D01*
X158568038Y-119793385D01*
X158567940Y-119808912D01*
X158567646Y-119824226D01*
X158567157Y-119839325D01*
X158566471Y-119854211D01*
X158565590Y-119868882D01*
X158564512Y-119883339D01*
X158563239Y-119897581D01*
X158561770Y-119911610D01*
X158560105Y-119925425D01*
X158558244Y-119939025D01*
X158556187Y-119952411D01*
X158553934Y-119965583D01*
X158551486Y-119978541D01*
X158548841Y-119991285D01*
X158546001Y-120003815D01*
X158542965Y-120016130D01*
X158539733Y-120028232D01*
X158536305Y-120040119D01*
X158532681Y-120051792D01*
X158528861Y-120063251D01*
X158524845Y-120074495D01*
X158520634Y-120085526D01*
X158514938Y-120099327D01*
X158509007Y-120112716D01*
X158502838Y-120125693D01*
X158496434Y-120138259D01*
X158489792Y-120150412D01*
X158482915Y-120162153D01*
X158475800Y-120173482D01*
X158468449Y-120184400D01*
X158460862Y-120194905D01*
X158453038Y-120204998D01*
X158444978Y-120214680D01*
X158436681Y-120223949D01*
X158428148Y-120232806D01*
X158419378Y-120241252D01*
X158410372Y-120249285D01*
X158401129Y-120256907D01*
X158391649Y-120264116D01*
X158379972Y-120272446D01*
X158368251Y-120280428D01*
X158356484Y-120288060D01*
X158344672Y-120295344D01*
X158332815Y-120302280D01*
X158320914Y-120308866D01*
X158308967Y-120315104D01*
X158296975Y-120320994D01*
X158284938Y-120326535D01*
X158272857Y-120331727D01*
X158260730Y-120336570D01*
X158248558Y-120341065D01*
X158236342Y-120345211D01*
X158224080Y-120349009D01*
X158211863Y-120352349D01*
X158199466Y-120355442D01*
X158186890Y-120358288D01*
X158174133Y-120360886D01*
X158161196Y-120363236D01*
X158148080Y-120365339D01*
X158134783Y-120367195D01*
X158121306Y-120368803D01*
X158107650Y-120370164D01*
X158093813Y-120371278D01*
X158079796Y-120372144D01*
X158065600Y-120372762D01*
X158051223Y-120373134D01*
X158036667Y-120373257D01*
X158022256Y-120373134D01*
X158008003Y-120372762D01*
X157993908Y-120372144D01*
X157979970Y-120371278D01*
X157966190Y-120370164D01*
X157952567Y-120368803D01*
X157939102Y-120367195D01*
X157925794Y-120365339D01*
X157912643Y-120363236D01*
X157899650Y-120360886D01*
X157886815Y-120358288D01*
X157874137Y-120355442D01*
X157861616Y-120352349D01*
X157849253Y-120349009D01*
X157837144Y-120345211D01*
X157825068Y-120341065D01*
X157813025Y-120336570D01*
X157801017Y-120331727D01*
X157789042Y-120326535D01*
X157777101Y-120320994D01*
X157765193Y-120315104D01*
X157753320Y-120308866D01*
X157741480Y-120302280D01*
X157729674Y-120295344D01*
X157717901Y-120288060D01*
X157706162Y-120280428D01*
X157694458Y-120272446D01*
X157682786Y-120264116D01*
X157673307Y-120256907D01*
X157664064Y-120249285D01*
X157655058Y-120241252D01*
X157646288Y-120232806D01*
X157637755Y-120223949D01*
X157629458Y-120214680D01*
X157621397Y-120204998D01*
X157613574Y-120194905D01*
X157605986Y-120184400D01*
X157598635Y-120173482D01*
X157591521Y-120162153D01*
X157584643Y-120150412D01*
X157578002Y-120138259D01*
X157571597Y-120125693D01*
X157565429Y-120112716D01*
X157559497Y-120099327D01*
X157553802Y-120085526D01*
X157553802Y-120085526D01*
G37*
G36*
X158867899Y-120355617D02*
X158867899Y-118800098D01*
X159075156Y-118800098D01*
X159075156Y-120355617D01*
X158867899Y-120355617D01*
X158867899Y-120355617D01*
G37*
G36*
X159322101Y-119228940D02*
X159543689Y-119228940D01*
X159846858Y-120073394D01*
X160144514Y-119228940D01*
X160366102Y-119228940D01*
X159903082Y-120475791D01*
X159897155Y-120491408D01*
X159891098Y-120506640D01*
X159884912Y-120521486D01*
X159878596Y-120535947D01*
X159872150Y-120550022D01*
X159865574Y-120563711D01*
X159858868Y-120577015D01*
X159852033Y-120589933D01*
X159845067Y-120602466D01*
X159837972Y-120614613D01*
X159830747Y-120626374D01*
X159823392Y-120637750D01*
X159815907Y-120648740D01*
X159808292Y-120659344D01*
X159800548Y-120669563D01*
X159792673Y-120679397D01*
X159784669Y-120688844D01*
X159776535Y-120697906D01*
X159768271Y-120706583D01*
X159759877Y-120714873D01*
X159751353Y-120722779D01*
X159742700Y-120730298D01*
X159733917Y-120737432D01*
X159725003Y-120744180D01*
X159715960Y-120750543D01*
X159706787Y-120756520D01*
X159697485Y-120762112D01*
X159688052Y-120767317D01*
X159678489Y-120772138D01*
X159668797Y-120776572D01*
X159658975Y-120780621D01*
X159649023Y-120784285D01*
X159638941Y-120787562D01*
X159628729Y-120790454D01*
X159618388Y-120792961D01*
X159607916Y-120795082D01*
X159597315Y-120796817D01*
X159586584Y-120798167D01*
X159575723Y-120799131D01*
X159564732Y-120799709D01*
X159553611Y-120799902D01*
X159552512Y-120799902D01*
X159539965Y-120799780D01*
X159527310Y-120799412D01*
X159514547Y-120798799D01*
X159501678Y-120797942D01*
X159488701Y-120796839D01*
X159475618Y-120795492D01*
X159462427Y-120793899D01*
X159449129Y-120792062D01*
X159435724Y-120789979D01*
X159422211Y-120787651D01*
X159408591Y-120785079D01*
X159394865Y-120782261D01*
X159394865Y-120597048D01*
X159408237Y-120600411D01*
X159421455Y-120603443D01*
X159434519Y-120606145D01*
X159447429Y-120608517D01*
X159460184Y-120610557D01*
X159472785Y-120612267D01*
X159485231Y-120613647D01*
X159497523Y-120614696D01*
X159509661Y-120615415D01*
X159521644Y-120615803D01*
X159530918Y-120615514D01*
X159540072Y-120614646D01*
X159549106Y-120613201D01*
X159558020Y-120611177D01*
X159566813Y-120608575D01*
X159575487Y-120605395D01*
X159584041Y-120601637D01*
X159592474Y-120597301D01*
X159600788Y-120592386D01*
X159608981Y-120586893D01*
X159617055Y-120580822D01*
X159625008Y-120574173D01*
X159632841Y-120566946D01*
X159640555Y-120559140D01*
X159648148Y-120550756D01*
X159655621Y-120541794D01*
X159662975Y-120532254D01*
X159670208Y-120522136D01*
X159677321Y-120511439D01*
X159684314Y-120500164D01*
X159691187Y-120488312D01*
X159697940Y-120475880D01*
X159704573Y-120462871D01*
X159711086Y-120449284D01*
X159717479Y-120435118D01*
X159723752Y-120420374D01*
X159729904Y-120405052D01*
X159735937Y-120389152D01*
X159741850Y-120372673D01*
X159747642Y-120355617D01*
X159322104Y-119228940D01*
X159322101Y-119228940D01*
X159322101Y-119228940D01*
G37*
G36*
X160516033Y-119547543D02*
X160516281Y-119533646D01*
X160517025Y-119519959D01*
X160518265Y-119506482D01*
X160520002Y-119493214D01*
X160522234Y-119480156D01*
X160524963Y-119467307D01*
X160528187Y-119454667D01*
X160531908Y-119442238D01*
X160536125Y-119430017D01*
X160540838Y-119418007D01*
X160546047Y-119406205D01*
X160551752Y-119394614D01*
X160557953Y-119383231D01*
X160564650Y-119372059D01*
X160571844Y-119361096D01*
X160579533Y-119350342D01*
X160587719Y-119339798D01*
X160596400Y-119329463D01*
X160605578Y-119319338D01*
X160615252Y-119309423D01*
X160623445Y-119301730D01*
X160631973Y-119294351D01*
X160640837Y-119287286D01*
X160650036Y-119280535D01*
X160659569Y-119274098D01*
X160669438Y-119267975D01*
X160679643Y-119262166D01*
X160690182Y-119256672D01*
X160701056Y-119251491D01*
X160712266Y-119246624D01*
X160723810Y-119242071D01*
X160735690Y-119237832D01*
X160747905Y-119233907D01*
X160760455Y-119230296D01*
X160773340Y-119226999D01*
X160786561Y-119224016D01*
X160800116Y-119221347D01*
X160814007Y-119218992D01*
X160828232Y-119216951D01*
X160842793Y-119215224D01*
X160857689Y-119213811D01*
X160872921Y-119212712D01*
X160888487Y-119211927D01*
X160904388Y-119211457D01*
X160920625Y-119211300D01*
X160933942Y-119211439D01*
X160947242Y-119211858D01*
X160960525Y-119212556D01*
X160973792Y-119213533D01*
X160987042Y-119214790D01*
X161000275Y-119216326D01*
X161013492Y-119218141D01*
X161026692Y-119220235D01*
X161039875Y-119222609D01*
X161053042Y-119225262D01*
X161066192Y-119228194D01*
X161079325Y-119231405D01*
X161092442Y-119234895D01*
X161105542Y-119238665D01*
X161118625Y-119242714D01*
X161131692Y-119247042D01*
X161144741Y-119251650D01*
X161157775Y-119256537D01*
X161170791Y-119261703D01*
X161183791Y-119267148D01*
X161196775Y-119272872D01*
X161209741Y-119278876D01*
X161222691Y-119285159D01*
X161222691Y-119463749D01*
X161208764Y-119457498D01*
X161194913Y-119451552D01*
X161181136Y-119445911D01*
X161167434Y-119440575D01*
X161153808Y-119435543D01*
X161140256Y-119430817D01*
X161126780Y-119426395D01*
X161113378Y-119422279D01*
X161100051Y-119418467D01*
X161086800Y-119414961D01*
X161073623Y-119411759D01*
X161060521Y-119408862D01*
X161047495Y-119406270D01*
X161034543Y-119403983D01*
X161021666Y-119402001D01*
X161008864Y-119400324D01*
X160996138Y-119398952D01*
X160983486Y-119397885D01*
X160970909Y-119397122D01*
X160958408Y-119396665D01*
X160945981Y-119396513D01*
X160929711Y-119396711D01*
X160914054Y-119397305D01*
X160899012Y-119398295D01*
X160884584Y-119399682D01*
X160870769Y-119401465D01*
X160857569Y-119403644D01*
X160844982Y-119406219D01*
X160833010Y-119409190D01*
X160821651Y-119412558D01*
X160810907Y-119416322D01*
X160800776Y-119420481D01*
X160791260Y-119425037D01*
X160782357Y-119429990D01*
X160774068Y-119435338D01*
X160766394Y-119441083D01*
X160759333Y-119447224D01*
X160752886Y-119453760D01*
X160747053Y-119460694D01*
X160741835Y-119468023D01*
X160737230Y-119475748D01*
X160733239Y-119483870D01*
X160729862Y-119492388D01*
X160727099Y-119501302D01*
X160724950Y-119510612D01*
X160723416Y-119520319D01*
X160722495Y-119530421D01*
X160722188Y-119540920D01*
X160722923Y-119551266D01*
X160725127Y-119561230D01*
X160728802Y-119570813D01*
X160733947Y-119580015D01*
X160740561Y-119588835D01*
X160748646Y-119597274D01*
X160758200Y-119605332D01*
X160769225Y-119613008D01*
X160781719Y-119620303D01*
X160792743Y-119625862D01*
X160804168Y-119631310D01*
X160815994Y-119636650D01*
X160828221Y-119641880D01*
X160840849Y-119647000D01*
X160853878Y-119652011D01*
X160867307Y-119656912D01*
X160881138Y-119661704D01*
X160895369Y-119666387D01*
X160910002Y-119670960D01*
X160925035Y-119675423D01*
X160937925Y-119679050D01*
X160950815Y-119682807D01*
X160963705Y-119686695D01*
X160976595Y-119690714D01*
X160989485Y-119694863D01*
X161002375Y-119699143D01*
X161015264Y-119703553D01*
X161028154Y-119708094D01*
X161041044Y-119712765D01*
X161053934Y-119717567D01*
X161066824Y-119722499D01*
X161079714Y-119727562D01*
X161092604Y-119732756D01*
X161104602Y-119737716D01*
X161116340Y-119743149D01*
X161127820Y-119749054D01*
X161139041Y-119755432D01*
X161150004Y-119762282D01*
X161160707Y-119769605D01*
X161171152Y-119777400D01*
X161181339Y-119785667D01*
X161191266Y-119794407D01*
X161200935Y-119803619D01*
X161210345Y-119813304D01*
X161219496Y-119823461D01*
X161228389Y-119834091D01*
X161237023Y-119845193D01*
X161244365Y-119855262D01*
X161251234Y-119865624D01*
X161257629Y-119876279D01*
X161263550Y-119887226D01*
X161268997Y-119898466D01*
X161273971Y-119909999D01*
X161278471Y-119921825D01*
X161282498Y-119933943D01*
X161286051Y-119946353D01*
X161289130Y-119959057D01*
X161291735Y-119972053D01*
X161293867Y-119985342D01*
X161295525Y-119998923D01*
X161296709Y-120012798D01*
X161297419Y-120026965D01*
X161297656Y-120041424D01*
X161297400Y-120054891D01*
X161296631Y-120068170D01*
X161295349Y-120081262D01*
X161293555Y-120094166D01*
X161291248Y-120106883D01*
X161288429Y-120119412D01*
X161285097Y-120131754D01*
X161281252Y-120143909D01*
X161276895Y-120155877D01*
X161272025Y-120167657D01*
X161266642Y-120179249D01*
X161260747Y-120190654D01*
X161254339Y-120201872D01*
X161247419Y-120212902D01*
X161239985Y-120223745D01*
X161232040Y-120234401D01*
X161223581Y-120244869D01*
X161214610Y-120255150D01*
X161205127Y-120265243D01*
X161195130Y-120275149D01*
X161187077Y-120282551D01*
X161178692Y-120289662D01*
X161169973Y-120296483D01*
X161160922Y-120303014D01*
X161151539Y-120309255D01*
X161141822Y-120315205D01*
X161131773Y-120320865D01*
X161121391Y-120326235D01*
X161110677Y-120331315D01*
X161099630Y-120336104D01*
X161088250Y-120340603D01*
X161076537Y-120344812D01*
X161064492Y-120348730D01*
X161052114Y-120352359D01*
X161039404Y-120355697D01*
X161026361Y-120358744D01*
X161012985Y-120361502D01*
X160999276Y-120363969D01*
X160985235Y-120366146D01*
X160970861Y-120368033D01*
X160956154Y-120369629D01*
X160941115Y-120370935D01*
X160925743Y-120371951D01*
X160910038Y-120372677D01*
X160894000Y-120373112D01*
X160877630Y-120373257D01*
X160863225Y-120373132D01*
X160848935Y-120372756D01*
X160834762Y-120372130D01*
X160820706Y-120371254D01*
X160806766Y-120370127D01*
X160792942Y-120368749D01*
X160779235Y-120367121D01*
X160765644Y-120365242D01*
X160752170Y-120363114D01*
X160738812Y-120360734D01*
X160725571Y-120358104D01*
X160712446Y-120355224D01*
X160699437Y-120352093D01*
X160686545Y-120348712D01*
X160673769Y-120345080D01*
X160661109Y-120341198D01*
X160648566Y-120337065D01*
X160636140Y-120332682D01*
X160623830Y-120328049D01*
X160611636Y-120323165D01*
X160599558Y-120318030D01*
X160587598Y-120312645D01*
X160575753Y-120307010D01*
X160564025Y-120301124D01*
X160552413Y-120294988D01*
X160552413Y-120107577D01*
X160564664Y-120114324D01*
X160576981Y-120120783D01*
X160589362Y-120126955D01*
X160601808Y-120132840D01*
X160614320Y-120138438D01*
X160626896Y-120143749D01*
X160639538Y-120148773D01*
X160652244Y-120153510D01*
X160665016Y-120157960D01*
X160677853Y-120162123D01*
X160690755Y-120165998D01*
X160703722Y-120169587D01*
X160716754Y-120172888D01*
X160729851Y-120175903D01*
X160743013Y-120178630D01*
X160756240Y-120181070D01*
X160769533Y-120183223D01*
X160782890Y-120185089D01*
X160796313Y-120186668D01*
X160809800Y-120187960D01*
X160823353Y-120188965D01*
X160836970Y-120189683D01*
X160850653Y-120190113D01*
X160864401Y-120190257D01*
X160868811Y-120190257D01*
X160885126Y-120190029D01*
X160900827Y-120189344D01*
X160915916Y-120188202D01*
X160930391Y-120186605D01*
X160944253Y-120184550D01*
X160957501Y-120182039D01*
X160970137Y-120179072D01*
X160982159Y-120175648D01*
X160993568Y-120171767D01*
X161004364Y-120167430D01*
X161014547Y-120162636D01*
X161024117Y-120157386D01*
X161033073Y-120151679D01*
X161043965Y-120143531D01*
X161053711Y-120134965D01*
X161062310Y-120125980D01*
X161069762Y-120116576D01*
X161076068Y-120106753D01*
X161081228Y-120096512D01*
X161085240Y-120085851D01*
X161088107Y-120074772D01*
X161089827Y-120063275D01*
X161090400Y-120051358D01*
X161089908Y-120038956D01*
X161088432Y-120027010D01*
X161085972Y-120015520D01*
X161082528Y-120004485D01*
X161078100Y-119993906D01*
X161072688Y-119983783D01*
X161066292Y-119974116D01*
X161058912Y-119964905D01*
X161050548Y-119956149D01*
X161041200Y-119947849D01*
X161030869Y-119940005D01*
X161020947Y-119932978D01*
X161010657Y-119926226D01*
X161000000Y-119919751D01*
X160988976Y-119913550D01*
X160977584Y-119907626D01*
X160965825Y-119901976D01*
X160953698Y-119896603D01*
X160941204Y-119891504D01*
X160928343Y-119886682D01*
X160915113Y-119882135D01*
X160901517Y-119877863D01*
X160887553Y-119873867D01*
X160874493Y-119870108D01*
X160861433Y-119866297D01*
X160848374Y-119862434D01*
X160835314Y-119858519D01*
X160822255Y-119854552D01*
X160809195Y-119850534D01*
X160796136Y-119846463D01*
X160783076Y-119842340D01*
X160770017Y-119838165D01*
X160756957Y-119833938D01*
X160743897Y-119829659D01*
X160730838Y-119825328D01*
X160717778Y-119820945D01*
X160705032Y-119816143D01*
X160692572Y-119810897D01*
X160680400Y-119805208D01*
X160668515Y-119799076D01*
X160656916Y-119792501D01*
X160645605Y-119785482D01*
X160634581Y-119778020D01*
X160623843Y-119770114D01*
X160613393Y-119761765D01*
X160603230Y-119752973D01*
X160593354Y-119743737D01*
X160583764Y-119734058D01*
X160574462Y-119723935D01*
X160566931Y-119714646D01*
X160559920Y-119705003D01*
X160553428Y-119695008D01*
X160547455Y-119684659D01*
X160542002Y-119673958D01*
X160537068Y-119662904D01*
X160532653Y-119651498D01*
X160528758Y-119639738D01*
X160525382Y-119627626D01*
X160522526Y-119615161D01*
X160520188Y-119602343D01*
X160518371Y-119589172D01*
X160517072Y-119575648D01*
X160516293Y-119561772D01*
X160516033Y-119547543D01*
X160516033Y-119547543D01*
X160516033Y-119547543D01*
G37*
G36*
X161458611Y-119403120D02*
X161458611Y-119228940D01*
X161654844Y-119228940D01*
X161654844Y-118892697D01*
X161860998Y-118892697D01*
X161860998Y-119228940D01*
X162160859Y-119228940D01*
X162160859Y-119403120D01*
X161860998Y-119403120D01*
X161860998Y-120057966D01*
X161861342Y-120069719D01*
X161862374Y-120080926D01*
X161864094Y-120091585D01*
X161866501Y-120101699D01*
X161869597Y-120111265D01*
X161873380Y-120120285D01*
X161877851Y-120128758D01*
X161883011Y-120136685D01*
X161888857Y-120144064D01*
X161895392Y-120150898D01*
X161902615Y-120157184D01*
X161910526Y-120162924D01*
X161919124Y-120168117D01*
X161928411Y-120172764D01*
X161938385Y-120176864D01*
X161949047Y-120180417D01*
X161960397Y-120183424D01*
X161972435Y-120185884D01*
X161985161Y-120187797D01*
X161998574Y-120189164D01*
X162012676Y-120189984D01*
X162027465Y-120190257D01*
X162029670Y-120190257D01*
X162044873Y-120189926D01*
X162059613Y-120188934D01*
X162073889Y-120187281D01*
X162087702Y-120184966D01*
X162101053Y-120181990D01*
X162113940Y-120178352D01*
X162126365Y-120174053D01*
X162138326Y-120169093D01*
X162149824Y-120163471D01*
X162160860Y-120157188D01*
X162160860Y-120342401D01*
X162147998Y-120347329D01*
X162135136Y-120351829D01*
X162122275Y-120355901D01*
X162109413Y-120359543D01*
X162096551Y-120362758D01*
X162083690Y-120365543D01*
X162070828Y-120367900D01*
X162057966Y-120369829D01*
X162045105Y-120371329D01*
X162032243Y-120372400D01*
X162019381Y-120373043D01*
X162006520Y-120373257D01*
X162001008Y-120373257D01*
X161989241Y-120373055D01*
X161977249Y-120372446D01*
X161965032Y-120371433D01*
X161952590Y-120370013D01*
X161939924Y-120368189D01*
X161927032Y-120365959D01*
X161913915Y-120363323D01*
X161903395Y-120360884D01*
X161892411Y-120357984D01*
X161880965Y-120354621D01*
X161869056Y-120350797D01*
X161856684Y-120346511D01*
X161843850Y-120341762D01*
X161830553Y-120336552D01*
X161816793Y-120330879D01*
X161802570Y-120324745D01*
X161791126Y-120318986D01*
X161780048Y-120312534D01*
X161769333Y-120305390D01*
X161758983Y-120297553D01*
X161748997Y-120289024D01*
X161739376Y-120279803D01*
X161730119Y-120269889D01*
X161721227Y-120259283D01*
X161712699Y-120247985D01*
X161704536Y-120235994D01*
X161696737Y-120223311D01*
X161690966Y-120212742D01*
X161685622Y-120201825D01*
X161680706Y-120190559D01*
X161676218Y-120178944D01*
X161672157Y-120166981D01*
X161668523Y-120154669D01*
X161665317Y-120142008D01*
X161662539Y-120128999D01*
X161660188Y-120115641D01*
X161658264Y-120101934D01*
X161656768Y-120087879D01*
X161655699Y-120073475D01*
X161655058Y-120058723D01*
X161654844Y-120043622D01*
X161654844Y-119403105D01*
X161458612Y-119403105D01*
X161458611Y-119403120D01*
X161458611Y-119403120D01*
G37*
G36*
X162369219Y-120000634D02*
X162574270Y-119998391D01*
X162574519Y-120009840D01*
X162575266Y-120020937D01*
X162576511Y-120031682D01*
X162578255Y-120042075D01*
X162580496Y-120052115D01*
X162583235Y-120061803D01*
X162586473Y-120071138D01*
X162590208Y-120080122D01*
X162594442Y-120088753D01*
X162599173Y-120097032D01*
X162604403Y-120104958D01*
X162610131Y-120112532D01*
X162616357Y-120119754D01*
X162623081Y-120126624D01*
X162630303Y-120133141D01*
X162638023Y-120139306D01*
X162646241Y-120145119D01*
X162654957Y-120150579D01*
X162664171Y-120155688D01*
X162673884Y-120160443D01*
X162684094Y-120164847D01*
X162694803Y-120168898D01*
X162706009Y-120172597D01*
X162717714Y-120175944D01*
X162729916Y-120178939D01*
X162742617Y-120181581D01*
X162755816Y-120183871D01*
X162769513Y-120185808D01*
X162783708Y-120187393D01*
X162798401Y-120188626D01*
X162813592Y-120189507D01*
X162829281Y-120190036D01*
X162845468Y-120190212D01*
X162848775Y-120190212D01*
X162864510Y-120190032D01*
X162879746Y-120189493D01*
X162894483Y-120188594D01*
X162908720Y-120187335D01*
X162922457Y-120185717D01*
X162935695Y-120183739D01*
X162948433Y-120181402D01*
X162960672Y-120178706D01*
X162972411Y-120175649D01*
X162983650Y-120172233D01*
X162994390Y-120168458D01*
X163004631Y-120164323D01*
X163014372Y-120159828D01*
X163023613Y-120154974D01*
X163032355Y-120149760D01*
X163040598Y-120144187D01*
X163048341Y-120138254D01*
X163055584Y-120131962D01*
X163062328Y-120125310D01*
X163068572Y-120118298D01*
X163074317Y-120110927D01*
X163079562Y-120103196D01*
X163084307Y-120095106D01*
X163088553Y-120086656D01*
X163092300Y-120077846D01*
X163095547Y-120068677D01*
X163098294Y-120059149D01*
X163100542Y-120049261D01*
X163102291Y-120039013D01*
X163103540Y-120028406D01*
X163104289Y-120017439D01*
X163104539Y-120006113D01*
X163104539Y-119823097D01*
X163092716Y-119821267D01*
X163080555Y-119819561D01*
X163068057Y-119817980D01*
X163055222Y-119816523D01*
X163042049Y-119815191D01*
X163028539Y-119813983D01*
X163014691Y-119812899D01*
X163000505Y-119811940D01*
X162985983Y-119811106D01*
X162971122Y-119810395D01*
X162955924Y-119809809D01*
X162940389Y-119809348D01*
X162924516Y-119809011D01*
X162908306Y-119808798D01*
X162895302Y-119808979D01*
X162882118Y-119809523D01*
X162868754Y-119810429D01*
X162855210Y-119811698D01*
X162841485Y-119813329D01*
X162827581Y-119815322D01*
X162813497Y-119817678D01*
X162800974Y-119819754D01*
X162788210Y-119822142D01*
X162775205Y-119824843D01*
X162761959Y-119827857D01*
X162748471Y-119831184D01*
X162734742Y-119834823D01*
X162720772Y-119838776D01*
X162706561Y-119843041D01*
X162694067Y-119847247D01*
X162682063Y-119852024D01*
X162670549Y-119857373D01*
X162659524Y-119863294D01*
X162648990Y-119869787D01*
X162638946Y-119876851D01*
X162629391Y-119884486D01*
X162620327Y-119892693D01*
X162611752Y-119901472D01*
X162602967Y-119911911D01*
X162595354Y-119922832D01*
X162588911Y-119934235D01*
X162583640Y-119946120D01*
X162579541Y-119958487D01*
X162576612Y-119971336D01*
X162574855Y-119984668D01*
X162574270Y-119998481D01*
X162574270Y-119998391D01*
X162369219Y-120000634D01*
X162369464Y-119986799D01*
X162370199Y-119973220D01*
X162371424Y-119959898D01*
X162373139Y-119946832D01*
X162375343Y-119934023D01*
X162378038Y-119921470D01*
X162381223Y-119909174D01*
X162384898Y-119897134D01*
X162389063Y-119885350D01*
X162393717Y-119873823D01*
X162398862Y-119862552D01*
X162404497Y-119851538D01*
X162410621Y-119840779D01*
X162417236Y-119830278D01*
X162424340Y-119820033D01*
X162431935Y-119810044D01*
X162440019Y-119800311D01*
X162448594Y-119790835D01*
X162457658Y-119781616D01*
X162467213Y-119772652D01*
X162477257Y-119763946D01*
X162487791Y-119755495D01*
X162498816Y-119747301D01*
X162510330Y-119739364D01*
X162519856Y-119733148D01*
X162529620Y-119727143D01*
X162539622Y-119721349D01*
X162549861Y-119715766D01*
X162560337Y-119710393D01*
X162571052Y-119705231D01*
X162582004Y-119700280D01*
X162593194Y-119695540D01*
X162604621Y-119691010D01*
X162616286Y-119686690D01*
X162628188Y-119682582D01*
X162640329Y-119678684D01*
X162652706Y-119674997D01*
X162665322Y-119671521D01*
X162678175Y-119668255D01*
X162691266Y-119665200D01*
X162704594Y-119662356D01*
X162718160Y-119659722D01*
X162731964Y-119657299D01*
X162746005Y-119655087D01*
X162760284Y-119653085D01*
X162774801Y-119651294D01*
X162789555Y-119649714D01*
X162804547Y-119648344D01*
X162819776Y-119647186D01*
X162835243Y-119646238D01*
X162850948Y-119645500D01*
X162866890Y-119644973D01*
X162883070Y-119644657D01*
X162899488Y-119644552D01*
X162913570Y-119644611D01*
X162927593Y-119644787D01*
X162941557Y-119645082D01*
X162955462Y-119645494D01*
X162969309Y-119646024D01*
X162983096Y-119646671D01*
X162996825Y-119647437D01*
X163010495Y-119648320D01*
X163024107Y-119649320D01*
X163037659Y-119650439D01*
X163051153Y-119651675D01*
X163064588Y-119653029D01*
X163077964Y-119654501D01*
X163091281Y-119656090D01*
X163104540Y-119657798D01*
X163103537Y-119641345D01*
X163102083Y-119625450D01*
X163100180Y-119610112D01*
X163097826Y-119595330D01*
X163095022Y-119581106D01*
X163091768Y-119567438D01*
X163088064Y-119554327D01*
X163083910Y-119541773D01*
X163079306Y-119529776D01*
X163074251Y-119518335D01*
X163068747Y-119507452D01*
X163062792Y-119497125D01*
X163056388Y-119487355D01*
X163049533Y-119478142D01*
X163042228Y-119469486D01*
X163034473Y-119461387D01*
X163026267Y-119453845D01*
X163018587Y-119447518D01*
X163010400Y-119441534D01*
X163001706Y-119435891D01*
X162992504Y-119430590D01*
X162982796Y-119425632D01*
X162972581Y-119421015D01*
X162961859Y-119416740D01*
X162950630Y-119412807D01*
X162938894Y-119409216D01*
X162926652Y-119405968D01*
X162913902Y-119403061D01*
X162900645Y-119400496D01*
X162886882Y-119398273D01*
X162872611Y-119396392D01*
X162857834Y-119394853D01*
X162842549Y-119393656D01*
X162826758Y-119392801D01*
X162810460Y-119392288D01*
X162793655Y-119392117D01*
X162780869Y-119392224D01*
X162768013Y-119392542D01*
X162755086Y-119393074D01*
X162742088Y-119393818D01*
X162729020Y-119394774D01*
X162715880Y-119395943D01*
X162702670Y-119397325D01*
X162689388Y-119398919D01*
X162676036Y-119400726D01*
X162662613Y-119402745D01*
X162649120Y-119404976D01*
X162635555Y-119407421D01*
X162621919Y-119410078D01*
X162608213Y-119412947D01*
X162594436Y-119416029D01*
X162580587Y-119419323D01*
X162566669Y-119422830D01*
X162552679Y-119426550D01*
X162538618Y-119430482D01*
X162524486Y-119434627D01*
X162510284Y-119438984D01*
X162496011Y-119443554D01*
X162481667Y-119448336D01*
X162481667Y-119271943D01*
X162494488Y-119267190D01*
X162507377Y-119262631D01*
X162520333Y-119258266D01*
X162533356Y-119254094D01*
X162546446Y-119250117D01*
X162559602Y-119246334D01*
X162572826Y-119242745D01*
X162586117Y-119239349D01*
X162599475Y-119236148D01*
X162612900Y-119233141D01*
X162626392Y-119230328D01*
X162639951Y-119227709D01*
X162653577Y-119225283D01*
X162667270Y-119223052D01*
X162681030Y-119221015D01*
X162694857Y-119219172D01*
X162708752Y-119217523D01*
X162722713Y-119216068D01*
X162736741Y-119214807D01*
X162750836Y-119213740D01*
X162764998Y-119212867D01*
X162779228Y-119212188D01*
X162793524Y-119211703D01*
X162807887Y-119211412D01*
X162822318Y-119211315D01*
X162837853Y-119211451D01*
X162853151Y-119211858D01*
X162868212Y-119212538D01*
X162883035Y-119213490D01*
X162897620Y-119214714D01*
X162911967Y-119216209D01*
X162926077Y-119217977D01*
X162939950Y-119220017D01*
X162953584Y-119222328D01*
X162966981Y-119224911D01*
X162980140Y-119227767D01*
X162993062Y-119230894D01*
X163005746Y-119234293D01*
X163018193Y-119237964D01*
X163030402Y-119241907D01*
X163042373Y-119246122D01*
X163054106Y-119250609D01*
X163065602Y-119255368D01*
X163076860Y-119260399D01*
X163087881Y-119265702D01*
X163098664Y-119271277D01*
X163109209Y-119277123D01*
X163119517Y-119283242D01*
X163129587Y-119289632D01*
X163139420Y-119296295D01*
X163149014Y-119303229D01*
X163158372Y-119310436D01*
X163167491Y-119317914D01*
X163176373Y-119325664D01*
X163185017Y-119333686D01*
X163193685Y-119342177D01*
X163202048Y-119350922D01*
X163210107Y-119359921D01*
X163217862Y-119369175D01*
X163225313Y-119378683D01*
X163232460Y-119388445D01*
X163239303Y-119398462D01*
X163245841Y-119408732D01*
X163252076Y-119419258D01*
X163258006Y-119430037D01*
X163263632Y-119441071D01*
X163268954Y-119452359D01*
X163273972Y-119463901D01*
X163278686Y-119475697D01*
X163283096Y-119487748D01*
X163287201Y-119500053D01*
X163291003Y-119512613D01*
X163294500Y-119525426D01*
X163297693Y-119538494D01*
X163300583Y-119551817D01*
X163303168Y-119565393D01*
X163305448Y-119579224D01*
X163307425Y-119593309D01*
X163309098Y-119607649D01*
X163310466Y-119622242D01*
X163311531Y-119637090D01*
X163312291Y-119652193D01*
X163312747Y-119667549D01*
X163312899Y-119683160D01*
X163312899Y-120008370D01*
X163312685Y-120020497D01*
X163312042Y-120032624D01*
X163310970Y-120044751D01*
X163309470Y-120056877D01*
X163307540Y-120069004D01*
X163305182Y-120081131D01*
X163302865Y-120091639D01*
X163299692Y-120103001D01*
X163295665Y-120115218D01*
X163290783Y-120128289D01*
X163285046Y-120142215D01*
X163278454Y-120156996D01*
X163271007Y-120172631D01*
X163264882Y-120184950D01*
X163258268Y-120196916D01*
X163251163Y-120208526D01*
X163243569Y-120219783D01*
X163235484Y-120230686D01*
X163226910Y-120241234D01*
X163217845Y-120251428D01*
X163208291Y-120261268D01*
X163198247Y-120270754D01*
X163190208Y-120277659D01*
X163181526Y-120284411D01*
X163172202Y-120291010D01*
X163162234Y-120297456D01*
X163151623Y-120303749D01*
X163140369Y-120309889D01*
X163128472Y-120315876D01*
X163115932Y-120321710D01*
X163102749Y-120327391D01*
X163088922Y-120332918D01*
X163074453Y-120338293D01*
X163059340Y-120343515D01*
X163047653Y-120347118D01*
X163035741Y-120350489D01*
X163023606Y-120353628D01*
X163011247Y-120356534D01*
X162998664Y-120359207D01*
X162985856Y-120361648D01*
X162972825Y-120363857D01*
X162959570Y-120365833D01*
X162946091Y-120367577D01*
X162932389Y-120369088D01*
X162918462Y-120370366D01*
X162904311Y-120371412D01*
X162889936Y-120372226D01*
X162875338Y-120372807D01*
X162860515Y-120373156D01*
X162845469Y-120373272D01*
X162830018Y-120373152D01*
X162814807Y-120372790D01*
X162799839Y-120372188D01*
X162785111Y-120371344D01*
X162770624Y-120370259D01*
X162756379Y-120368933D01*
X162742374Y-120367366D01*
X162728611Y-120365558D01*
X162715089Y-120363509D01*
X162701808Y-120361219D01*
X162688769Y-120358688D01*
X162675970Y-120355916D01*
X162663413Y-120352902D01*
X162651097Y-120349648D01*
X162639021Y-120346153D01*
X162627188Y-120342416D01*
X162611891Y-120337016D01*
X162597238Y-120331479D01*
X162583228Y-120325804D01*
X162569861Y-120319992D01*
X162557137Y-120314042D01*
X162545056Y-120307955D01*
X162533619Y-120301730D01*
X162522824Y-120295367D01*
X162512673Y-120288867D01*
X162503164Y-120282230D01*
X162494299Y-120275454D01*
X162486076Y-120268542D01*
X162476783Y-120260009D01*
X162467864Y-120251168D01*
X162459320Y-120242018D01*
X162451151Y-120232559D01*
X162443357Y-120222791D01*
X162435938Y-120212715D01*
X162428893Y-120202329D01*
X162422224Y-120191635D01*
X162415929Y-120180632D01*
X162410009Y-120169320D01*
X162403446Y-120155300D01*
X162397538Y-120141901D01*
X162392284Y-120129121D01*
X162387685Y-120116962D01*
X162383740Y-120105422D01*
X162380450Y-120094503D01*
X162377814Y-120084203D01*
X162375833Y-120074523D01*
X162373812Y-120062056D01*
X162372158Y-120049651D01*
X162370872Y-120037307D01*
X162369953Y-120025026D01*
X162369402Y-120012806D01*
X162369218Y-120000649D01*
X162369219Y-120000634D01*
X162369219Y-120000634D01*
G37*
G36*
X163683316Y-120223326D02*
X163675616Y-120214650D01*
X163668139Y-120205759D01*
X163660886Y-120196651D01*
X163653855Y-120187328D01*
X163647048Y-120177788D01*
X163640464Y-120168033D01*
X163634104Y-120158062D01*
X163627966Y-120147874D01*
X163622051Y-120137471D01*
X163616360Y-120126851D01*
X163610892Y-120116016D01*
X163605647Y-120104965D01*
X163600626Y-120093697D01*
X163595827Y-120082214D01*
X163591252Y-120070515D01*
X163586900Y-120058600D01*
X163582771Y-120046468D01*
X163578865Y-120034121D01*
X163575182Y-120021558D01*
X163571723Y-120008779D01*
X163568487Y-119995783D01*
X163565474Y-119982572D01*
X163562684Y-119969145D01*
X163560117Y-119955502D01*
X163557774Y-119941643D01*
X163555654Y-119927568D01*
X163553757Y-119913276D01*
X163552083Y-119898769D01*
X163550632Y-119884046D01*
X163549404Y-119869107D01*
X163548400Y-119853952D01*
X163547619Y-119838581D01*
X163547061Y-119822994D01*
X163546726Y-119807191D01*
X163546615Y-119791172D01*
X163546726Y-119775154D01*
X163547061Y-119759354D01*
X163547619Y-119743771D01*
X163548400Y-119728407D01*
X163549404Y-119713260D01*
X163550632Y-119698331D01*
X163552083Y-119683619D01*
X163553757Y-119669126D01*
X163555654Y-119654850D01*
X163557774Y-119640792D01*
X163560117Y-119626952D01*
X163562684Y-119613330D01*
X163565474Y-119599926D01*
X163568487Y-119586739D01*
X163571723Y-119573770D01*
X163575182Y-119561019D01*
X163578865Y-119548486D01*
X163582771Y-119536171D01*
X163586900Y-119524073D01*
X163591252Y-119512193D01*
X163595827Y-119500531D01*
X163600626Y-119489087D01*
X163605647Y-119477860D01*
X163610892Y-119466852D01*
X163616360Y-119456061D01*
X163622051Y-119445488D01*
X163627966Y-119435133D01*
X163634104Y-119424995D01*
X163640464Y-119415076D01*
X163647048Y-119405374D01*
X163653855Y-119395890D01*
X163660886Y-119386624D01*
X163668139Y-119377576D01*
X163675616Y-119368745D01*
X163683316Y-119360132D01*
X163691711Y-119351249D01*
X163700327Y-119342639D01*
X163709164Y-119334302D01*
X163718221Y-119326238D01*
X163727499Y-119318448D01*
X163736998Y-119310931D01*
X163746717Y-119303688D01*
X163756657Y-119296718D01*
X163766818Y-119290021D01*
X163777200Y-119283597D01*
X163787802Y-119277447D01*
X163798625Y-119271571D01*
X163809668Y-119265967D01*
X163820933Y-119260637D01*
X163832417Y-119255580D01*
X163844123Y-119250797D01*
X163856049Y-119246287D01*
X163868196Y-119242050D01*
X163880564Y-119238087D01*
X163893152Y-119234397D01*
X163905961Y-119230980D01*
X163918991Y-119227836D01*
X163932242Y-119224966D01*
X163945713Y-119222370D01*
X163959404Y-119220046D01*
X163973317Y-119217996D01*
X163987450Y-119216220D01*
X164001804Y-119214716D01*
X164016379Y-119213486D01*
X164031174Y-119212530D01*
X164046190Y-119211846D01*
X164061426Y-119211436D01*
X164076884Y-119211300D01*
X164090623Y-119211400D01*
X164104323Y-119211702D01*
X164117984Y-119212204D01*
X164131607Y-119212908D01*
X164145190Y-119213813D01*
X164158735Y-119214919D01*
X164172241Y-119216226D01*
X164185709Y-119217734D01*
X164199137Y-119219444D01*
X164212527Y-119221354D01*
X164225878Y-119223466D01*
X164239190Y-119225778D01*
X164252463Y-119228292D01*
X164265698Y-119231007D01*
X164278893Y-119233922D01*
X164292050Y-119237039D01*
X164305168Y-119240357D01*
X164318247Y-119243877D01*
X164331288Y-119247597D01*
X164344289Y-119251518D01*
X164357252Y-119255640D01*
X164370176Y-119259964D01*
X164383061Y-119264489D01*
X164395908Y-119269214D01*
X164408715Y-119274141D01*
X164408715Y-119470372D01*
X164395940Y-119464345D01*
X164383153Y-119458575D01*
X164370354Y-119453061D01*
X164357544Y-119447804D01*
X164344723Y-119442803D01*
X164331890Y-119438058D01*
X164319045Y-119433570D01*
X164306189Y-119429339D01*
X164293322Y-119425364D01*
X164280443Y-119421645D01*
X164267553Y-119418183D01*
X164254651Y-119414977D01*
X164241737Y-119412028D01*
X164228812Y-119409335D01*
X164215876Y-119406899D01*
X164202928Y-119404719D01*
X164189969Y-119402796D01*
X164176998Y-119401129D01*
X164164016Y-119399718D01*
X164151022Y-119398564D01*
X164138017Y-119397667D01*
X164125000Y-119397025D01*
X164111972Y-119396641D01*
X164098932Y-119396513D01*
X164094522Y-119396513D01*
X164079146Y-119396714D01*
X164064106Y-119397317D01*
X164049402Y-119398323D01*
X164035035Y-119399731D01*
X164021004Y-119401542D01*
X164007309Y-119403755D01*
X163993950Y-119406370D01*
X163980928Y-119409387D01*
X163968242Y-119412807D01*
X163955892Y-119416629D01*
X163943878Y-119420854D01*
X163932200Y-119425481D01*
X163920859Y-119430510D01*
X163909854Y-119435941D01*
X163899185Y-119441775D01*
X163888853Y-119448012D01*
X163878857Y-119454650D01*
X163869196Y-119461691D01*
X163859873Y-119469134D01*
X163850885Y-119476980D01*
X163844231Y-119483316D01*
X163837839Y-119490112D01*
X163831707Y-119497368D01*
X163825836Y-119505084D01*
X163820226Y-119513260D01*
X163814877Y-119521895D01*
X163809789Y-119530991D01*
X163804961Y-119540546D01*
X163800395Y-119550561D01*
X163796090Y-119561036D01*
X163792045Y-119571971D01*
X163788262Y-119583365D01*
X163784739Y-119595220D01*
X163781478Y-119607534D01*
X163778477Y-119620308D01*
X163775737Y-119633542D01*
X163773258Y-119647236D01*
X163771040Y-119661389D01*
X163769083Y-119676003D01*
X163767387Y-119691076D01*
X163765952Y-119706609D01*
X163764778Y-119722602D01*
X163763865Y-119739055D01*
X163763212Y-119755967D01*
X163762821Y-119773340D01*
X163762691Y-119791172D01*
X163762803Y-119807597D01*
X163763141Y-119823650D01*
X163763705Y-119839330D01*
X163764494Y-119854637D01*
X163765508Y-119869572D01*
X163766748Y-119884135D01*
X163768213Y-119898325D01*
X163769903Y-119912142D01*
X163771819Y-119925588D01*
X163773960Y-119938660D01*
X163776326Y-119951360D01*
X163778918Y-119963688D01*
X163781736Y-119975643D01*
X163784778Y-119987226D01*
X163788046Y-119998436D01*
X163793058Y-120012923D01*
X163798469Y-120026717D01*
X163804282Y-120039819D01*
X163810496Y-120052229D01*
X163817111Y-120063946D01*
X163824126Y-120074971D01*
X163831542Y-120085303D01*
X163839360Y-120094943D01*
X163847578Y-120103891D01*
X163856197Y-120112146D01*
X163865217Y-120119709D01*
X163876731Y-120128199D01*
X163888245Y-120136037D01*
X163899759Y-120143222D01*
X163911274Y-120149753D01*
X163922788Y-120155632D01*
X163934302Y-120160857D01*
X163945817Y-120165430D01*
X163957331Y-120169349D01*
X163968845Y-120172616D01*
X163979627Y-120175133D01*
X163990806Y-120177385D01*
X164002381Y-120179371D01*
X164014353Y-120181093D01*
X164026723Y-120182550D01*
X164039489Y-120183742D01*
X164052652Y-120184670D01*
X164066212Y-120185332D01*
X164080169Y-120185729D01*
X164094522Y-120185862D01*
X164108010Y-120185737D01*
X164121463Y-120185364D01*
X164134882Y-120184742D01*
X164148266Y-120183871D01*
X164161615Y-120182751D01*
X164174931Y-120181383D01*
X164188212Y-120179766D01*
X164201458Y-120177899D01*
X164214670Y-120175784D01*
X164227847Y-120173420D01*
X164240990Y-120170808D01*
X164254099Y-120167946D01*
X164267173Y-120164836D01*
X164280213Y-120161477D01*
X164293218Y-120157869D01*
X164306189Y-120154012D01*
X164319125Y-120149906D01*
X164332027Y-120145552D01*
X164344894Y-120140949D01*
X164357727Y-120136097D01*
X164370526Y-120130996D01*
X164383290Y-120125646D01*
X164396020Y-120120047D01*
X164408715Y-120114200D01*
X164408715Y-120310431D01*
X164395907Y-120315358D01*
X164383061Y-120320083D01*
X164370176Y-120324608D01*
X164357252Y-120328931D01*
X164344289Y-120333054D01*
X164331287Y-120336975D01*
X164318247Y-120340695D01*
X164305168Y-120344214D01*
X164292050Y-120347532D01*
X164278893Y-120350649D01*
X164265697Y-120353565D01*
X164252463Y-120356280D01*
X164239189Y-120358794D01*
X164225877Y-120361106D01*
X164212526Y-120363218D01*
X164199137Y-120365128D01*
X164185708Y-120366837D01*
X164172241Y-120368346D01*
X164158735Y-120369653D01*
X164145190Y-120370759D01*
X164131606Y-120371664D01*
X164117984Y-120372367D01*
X164104322Y-120372870D01*
X164090622Y-120373172D01*
X164076883Y-120373272D01*
X164061426Y-120373135D01*
X164046189Y-120372722D01*
X164031173Y-120372033D01*
X164016378Y-120371069D01*
X164001804Y-120369830D01*
X163987450Y-120368316D01*
X163973317Y-120366526D01*
X163959404Y-120364461D01*
X163945712Y-120362120D01*
X163932241Y-120359505D01*
X163918991Y-120356613D01*
X163905961Y-120353447D01*
X163893152Y-120350005D01*
X163880564Y-120346287D01*
X163868196Y-120342295D01*
X163856049Y-120338027D01*
X163844123Y-120333483D01*
X163832417Y-120328665D01*
X163820932Y-120323571D01*
X163809668Y-120318201D01*
X163798624Y-120312556D01*
X163787801Y-120306636D01*
X163777199Y-120300441D01*
X163766818Y-120293970D01*
X163756657Y-120287224D01*
X163746717Y-120280202D01*
X163736998Y-120272905D01*
X163727499Y-120265333D01*
X163718221Y-120257485D01*
X163709163Y-120249362D01*
X163700327Y-120240964D01*
X163691711Y-120232290D01*
X163683316Y-120223341D01*
X163683316Y-120223326D01*
X163683316Y-120223326D01*
G37*
G36*
X164654557Y-120355617D02*
X164654557Y-118800098D01*
X164860712Y-118800098D01*
X164860712Y-119700786D01*
X165347986Y-119228940D01*
X165628004Y-119228940D01*
X165138524Y-119698573D01*
X165693047Y-120355617D01*
X165418542Y-120355617D01*
X165000721Y-119831963D01*
X164860712Y-119967565D01*
X164860712Y-120355617D01*
X164654557Y-120355617D01*
X164654557Y-120355617D01*
G37*
G36*
X165687579Y-111654438D02*
X164719203Y-111654438D01*
X164601191Y-111426039D01*
X164605263Y-111433186D01*
X164609616Y-111439900D01*
X164614249Y-111446181D01*
X164619164Y-111452029D01*
X164624359Y-111457444D01*
X164629835Y-111462425D01*
X164635592Y-111466973D01*
X164641630Y-111471089D01*
X164647948Y-111474771D01*
X164654548Y-111478019D01*
X164661428Y-111480835D01*
X164668589Y-111483217D01*
X164676031Y-111485167D01*
X164683754Y-111486683D01*
X164691757Y-111487766D01*
X164700041Y-111488415D01*
X164708607Y-111488632D01*
X165174275Y-111488632D01*
X165174263Y-111488632D01*
X165178169Y-111478231D01*
X165181852Y-111467803D01*
X165185312Y-111457347D01*
X165188548Y-111446865D01*
X165191562Y-111436355D01*
X165194352Y-111425818D01*
X165196919Y-111415254D01*
X165199263Y-111404662D01*
X165201383Y-111394043D01*
X165203281Y-111383398D01*
X165204955Y-111372724D01*
X165206406Y-111362024D01*
X165207633Y-111351296D01*
X165208638Y-111340542D01*
X165209419Y-111329760D01*
X165209977Y-111318950D01*
X165210312Y-111308114D01*
X165210423Y-111297250D01*
X165210293Y-111285110D01*
X165209900Y-111273383D01*
X165209246Y-111262070D01*
X165208330Y-111251171D01*
X165207153Y-111240686D01*
X165205714Y-111230614D01*
X165204013Y-111220956D01*
X165202051Y-111211712D01*
X165199827Y-111202882D01*
X165196875Y-111192988D01*
X165193318Y-111183149D01*
X165189155Y-111173364D01*
X165184387Y-111163635D01*
X165179013Y-111153962D01*
X165173034Y-111144343D01*
X165166449Y-111134779D01*
X165159259Y-111125271D01*
X165153529Y-111118529D01*
X165147244Y-111112093D01*
X165140406Y-111105963D01*
X165133015Y-111100139D01*
X165125069Y-111094622D01*
X165116570Y-111089410D01*
X165107517Y-111084505D01*
X165097911Y-111079905D01*
X165087751Y-111075612D01*
X165077037Y-111071625D01*
X165065769Y-111067945D01*
X165057035Y-111065330D01*
X165048004Y-111062896D01*
X165038674Y-111060642D01*
X165029047Y-111058568D01*
X165019122Y-111056675D01*
X165008899Y-111054962D01*
X164998378Y-111053430D01*
X164987559Y-111052077D01*
X164976442Y-111050905D01*
X164965027Y-111049914D01*
X164953315Y-111049102D01*
X164941304Y-111048471D01*
X164928996Y-111048020D01*
X164916390Y-111047750D01*
X164903486Y-111047660D01*
X164890510Y-111047739D01*
X164877815Y-111047977D01*
X164865404Y-111048373D01*
X164853275Y-111048928D01*
X164841428Y-111049641D01*
X164829863Y-111050512D01*
X164818581Y-111051542D01*
X164807582Y-111052731D01*
X164796864Y-111054078D01*
X164786430Y-111055584D01*
X164776277Y-111057247D01*
X164766407Y-111059070D01*
X164756820Y-111061051D01*
X164747515Y-111063190D01*
X164738492Y-111065488D01*
X164729752Y-111067945D01*
X164717395Y-111071618D01*
X164705666Y-111075583D01*
X164694564Y-111079840D01*
X164684089Y-111084388D01*
X164674242Y-111089228D01*
X164665021Y-111094359D01*
X164656428Y-111099782D01*
X164648462Y-111105496D01*
X164641123Y-111111502D01*
X164634411Y-111117800D01*
X164628326Y-111124389D01*
X164620705Y-111133636D01*
X164613718Y-111142855D01*
X164607364Y-111152046D01*
X164601645Y-111161210D01*
X164596560Y-111170347D01*
X164592109Y-111179455D01*
X164588292Y-111188537D01*
X164585109Y-111197590D01*
X164582428Y-111206796D01*
X164580105Y-111216332D01*
X164578138Y-111226198D01*
X164576530Y-111236396D01*
X164575279Y-111246924D01*
X164574385Y-111257783D01*
X164573849Y-111268973D01*
X164573670Y-111280493D01*
X164573810Y-111293705D01*
X164574231Y-111306483D01*
X164574934Y-111318829D01*
X164575916Y-111330741D01*
X164577180Y-111342220D01*
X164578725Y-111353266D01*
X164580550Y-111363879D01*
X164582656Y-111374058D01*
X164585043Y-111383805D01*
X164587711Y-111393118D01*
X164590660Y-111401998D01*
X164593889Y-111410445D01*
X164597400Y-111418458D01*
X164601191Y-111426039D01*
X164719203Y-111654438D01*
X164709526Y-111654291D01*
X164699898Y-111653850D01*
X164690319Y-111653115D01*
X164680788Y-111652086D01*
X164671307Y-111650763D01*
X164661874Y-111649146D01*
X164653252Y-111647310D01*
X164644019Y-111644826D01*
X164634174Y-111641694D01*
X164623716Y-111637915D01*
X164612647Y-111633487D01*
X164600966Y-111628411D01*
X164588674Y-111622688D01*
X164579005Y-111617603D01*
X164569598Y-111612148D01*
X164560452Y-111606323D01*
X164551568Y-111600127D01*
X164542945Y-111593562D01*
X164534583Y-111586626D01*
X164526483Y-111579320D01*
X164518644Y-111571644D01*
X164511066Y-111563597D01*
X164505546Y-111557166D01*
X164500162Y-111550221D01*
X164494912Y-111542761D01*
X164489797Y-111534787D01*
X164484817Y-111526298D01*
X164479972Y-111517295D01*
X164475262Y-111507778D01*
X164470687Y-111497745D01*
X164466247Y-111487199D01*
X164461942Y-111476138D01*
X164457772Y-111464562D01*
X164453737Y-111452472D01*
X164450746Y-111443119D01*
X164447948Y-111433579D01*
X164445344Y-111423854D01*
X164442932Y-111413942D01*
X164440713Y-111403845D01*
X164438687Y-111393561D01*
X164436854Y-111383092D01*
X164435214Y-111372436D01*
X164433767Y-111361594D01*
X164432513Y-111350566D01*
X164431451Y-111339353D01*
X164430583Y-111327953D01*
X164429908Y-111316367D01*
X164429425Y-111304595D01*
X164429136Y-111292637D01*
X164429040Y-111280493D01*
X164429148Y-111269355D01*
X164429474Y-111258281D01*
X164430016Y-111247273D01*
X164430776Y-111236331D01*
X164431753Y-111225453D01*
X164432946Y-111214641D01*
X164434357Y-111203895D01*
X164435985Y-111193213D01*
X164437830Y-111182597D01*
X164439611Y-111173712D01*
X164441757Y-111164696D01*
X164444269Y-111155549D01*
X164447146Y-111146270D01*
X164450389Y-111136860D01*
X164453997Y-111127319D01*
X164457970Y-111117647D01*
X164462309Y-111107843D01*
X164467014Y-111097909D01*
X164472083Y-111087843D01*
X164477519Y-111077646D01*
X164482793Y-111068202D01*
X164488324Y-111058978D01*
X164494113Y-111049975D01*
X164500158Y-111041192D01*
X164506460Y-111032630D01*
X164513020Y-111024288D01*
X164519836Y-111016167D01*
X164526910Y-111008266D01*
X164534241Y-111000586D01*
X164541828Y-110993126D01*
X164549673Y-110985887D01*
X164557775Y-110978868D01*
X164564541Y-110973404D01*
X164571668Y-110968065D01*
X164579155Y-110962852D01*
X164587003Y-110957764D01*
X164595212Y-110952802D01*
X164603781Y-110947965D01*
X164612711Y-110943253D01*
X164622001Y-110938667D01*
X164631652Y-110934206D01*
X164641664Y-110929871D01*
X164652036Y-110925661D01*
X164662769Y-110921577D01*
X164673863Y-110917618D01*
X164685317Y-110913785D01*
X164697131Y-110910076D01*
X164706585Y-110907184D01*
X164716196Y-110904448D01*
X164725962Y-110901868D01*
X164735886Y-110899444D01*
X164745965Y-110897177D01*
X164756201Y-110895066D01*
X164766593Y-110893112D01*
X164777142Y-110891314D01*
X164787847Y-110889672D01*
X164798709Y-110888187D01*
X164809726Y-110886858D01*
X164820900Y-110885685D01*
X164832231Y-110884669D01*
X164843718Y-110883809D01*
X164855361Y-110883105D01*
X164867161Y-110882558D01*
X164879117Y-110882167D01*
X164891229Y-110881932D01*
X164903498Y-110881854D01*
X164916177Y-110881938D01*
X164928681Y-110882190D01*
X164941008Y-110882610D01*
X164953160Y-110883198D01*
X164965135Y-110883954D01*
X164976934Y-110884878D01*
X164988558Y-110885970D01*
X165000005Y-110887230D01*
X165011276Y-110888658D01*
X165022372Y-110890254D01*
X165033291Y-110892018D01*
X165044034Y-110893950D01*
X165054602Y-110896049D01*
X165064993Y-110898317D01*
X165075208Y-110900753D01*
X165085248Y-110903357D01*
X165095111Y-110906129D01*
X165104798Y-110909069D01*
X165114309Y-110912176D01*
X165123645Y-110915452D01*
X165132804Y-110918896D01*
X165144411Y-110923526D01*
X165155638Y-110928377D01*
X165166487Y-110933448D01*
X165176957Y-110938740D01*
X165187048Y-110944252D01*
X165196760Y-110949984D01*
X165206093Y-110955938D01*
X165215047Y-110962111D01*
X165223623Y-110968505D01*
X165231819Y-110975120D01*
X165239636Y-110981955D01*
X165247075Y-110989010D01*
X165254134Y-110996287D01*
X165260815Y-111003783D01*
X165267116Y-111011500D01*
X165273039Y-111019438D01*
X165279459Y-111028648D01*
X165285618Y-111037886D01*
X165291517Y-111047151D01*
X165297154Y-111056443D01*
X165302531Y-111065762D01*
X165307647Y-111075108D01*
X165312502Y-111084481D01*
X165317096Y-111093881D01*
X165321429Y-111103308D01*
X165325502Y-111112762D01*
X165329313Y-111122243D01*
X165332864Y-111131750D01*
X165336154Y-111141285D01*
X165339183Y-111150847D01*
X165341855Y-111160369D01*
X165344330Y-111170034D01*
X165346606Y-111179843D01*
X165348684Y-111189797D01*
X165350565Y-111199894D01*
X165352247Y-111210136D01*
X165353732Y-111220521D01*
X165355019Y-111231050D01*
X165356107Y-111241724D01*
X165356998Y-111252541D01*
X165357691Y-111263502D01*
X165358186Y-111274608D01*
X165358483Y-111285857D01*
X165358582Y-111297250D01*
X165358500Y-111308299D01*
X165358255Y-111319299D01*
X165357847Y-111330249D01*
X165357275Y-111341151D01*
X165356540Y-111352004D01*
X165355642Y-111362808D01*
X165354581Y-111373563D01*
X165353356Y-111384269D01*
X165351968Y-111394925D01*
X165350417Y-111405533D01*
X165348702Y-111416092D01*
X165346824Y-111426602D01*
X165344783Y-111437063D01*
X165342578Y-111447475D01*
X165340210Y-111457837D01*
X165337679Y-111468151D01*
X165334984Y-111478416D01*
X165332127Y-111488632D01*
X165687555Y-111488632D01*
X165687555Y-111654438D01*
X165687579Y-111654438D01*
X165687579Y-111654438D01*
G37*
G36*
X165128421Y-110656958D02*
X164728018Y-110508792D01*
X164736317Y-110511141D01*
X164744899Y-110513339D01*
X164753763Y-110515386D01*
X164762910Y-110517280D01*
X164772339Y-110519024D01*
X164782051Y-110520615D01*
X164792046Y-110522055D01*
X164802323Y-110523344D01*
X164812882Y-110524481D01*
X164823724Y-110525466D01*
X164834848Y-110526300D01*
X164846255Y-110526982D01*
X164857945Y-110527512D01*
X164869916Y-110527891D01*
X164882171Y-110528119D01*
X164894708Y-110528194D01*
X164907248Y-110528119D01*
X164919513Y-110527891D01*
X164931502Y-110527512D01*
X164943215Y-110526982D01*
X164954653Y-110526300D01*
X164965815Y-110525466D01*
X164976702Y-110524481D01*
X164987313Y-110523344D01*
X164997648Y-110522055D01*
X165007708Y-110520615D01*
X165017492Y-110519024D01*
X165027000Y-110517280D01*
X165036233Y-110515386D01*
X165045190Y-110513339D01*
X165053871Y-110511141D01*
X165062277Y-110508792D01*
X165073866Y-110504943D01*
X165084902Y-110500774D01*
X165095383Y-110496284D01*
X165105311Y-110491473D01*
X165114685Y-110486342D01*
X165123505Y-110480890D01*
X165131771Y-110475117D01*
X165139483Y-110469024D01*
X165146641Y-110462610D01*
X165153245Y-110455875D01*
X165159295Y-110448819D01*
X165166088Y-110439989D01*
X165172358Y-110431137D01*
X165178105Y-110422263D01*
X165183331Y-110413367D01*
X165188033Y-110404450D01*
X165192214Y-110395511D01*
X165195872Y-110386550D01*
X165199008Y-110377567D01*
X165201621Y-110368562D01*
X165203845Y-110359340D01*
X165205807Y-110349704D01*
X165207508Y-110339654D01*
X165208947Y-110329191D01*
X165210124Y-110318313D01*
X165211040Y-110307022D01*
X165211694Y-110295318D01*
X165212087Y-110283199D01*
X165212218Y-110270667D01*
X165212087Y-110257949D01*
X165211694Y-110245667D01*
X165211040Y-110233821D01*
X165210124Y-110222410D01*
X165208947Y-110211435D01*
X165207508Y-110200895D01*
X165205807Y-110190791D01*
X165203845Y-110181122D01*
X165201621Y-110171889D01*
X165199005Y-110162884D01*
X165195868Y-110153902D01*
X165192209Y-110144941D01*
X165188028Y-110136001D01*
X165183325Y-110127084D01*
X165178100Y-110118188D01*
X165172354Y-110109314D01*
X165166085Y-110100462D01*
X165159295Y-110091632D01*
X165153245Y-110084584D01*
X165146641Y-110077871D01*
X165139483Y-110071493D01*
X165131771Y-110065451D01*
X165123505Y-110059743D01*
X165114685Y-110054372D01*
X165105311Y-110049335D01*
X165095383Y-110044634D01*
X165084902Y-110040268D01*
X165073866Y-110036237D01*
X165062277Y-110032542D01*
X165053871Y-110030085D01*
X165045190Y-110027787D01*
X165036233Y-110025648D01*
X165027000Y-110023667D01*
X165017492Y-110021845D01*
X165007708Y-110020181D01*
X164997648Y-110018675D01*
X164987313Y-110017328D01*
X164976702Y-110016140D01*
X164965815Y-110015109D01*
X164954653Y-110014238D01*
X164943215Y-110013525D01*
X164931502Y-110012970D01*
X164919513Y-110012574D01*
X164907248Y-110012336D01*
X164894708Y-110012257D01*
X164882171Y-110012336D01*
X164869916Y-110012574D01*
X164857945Y-110012970D01*
X164846255Y-110013525D01*
X164834848Y-110014238D01*
X164823724Y-110015109D01*
X164812882Y-110016140D01*
X164802323Y-110017328D01*
X164792046Y-110018675D01*
X164782051Y-110020181D01*
X164772339Y-110021845D01*
X164762910Y-110023667D01*
X164753763Y-110025648D01*
X164744899Y-110027787D01*
X164736317Y-110030085D01*
X164728018Y-110032542D01*
X164716276Y-110036237D01*
X164705102Y-110040268D01*
X164694497Y-110044634D01*
X164684460Y-110049335D01*
X164674992Y-110054372D01*
X164666092Y-110059743D01*
X164657761Y-110065451D01*
X164649998Y-110071493D01*
X164642804Y-110077871D01*
X164636178Y-110084584D01*
X164630120Y-110091632D01*
X164623328Y-110100462D01*
X164617058Y-110109314D01*
X164611310Y-110118188D01*
X164606085Y-110127084D01*
X164601382Y-110136001D01*
X164597202Y-110144941D01*
X164593543Y-110153902D01*
X164590408Y-110162884D01*
X164587794Y-110171889D01*
X164585571Y-110181122D01*
X164583608Y-110190791D01*
X164581908Y-110200895D01*
X164580469Y-110211435D01*
X164579291Y-110222410D01*
X164578375Y-110233821D01*
X164577721Y-110245667D01*
X164577329Y-110257949D01*
X164577198Y-110270667D01*
X164577329Y-110283199D01*
X164577721Y-110295318D01*
X164578375Y-110307022D01*
X164579291Y-110318313D01*
X164580469Y-110329191D01*
X164581908Y-110339654D01*
X164583608Y-110349704D01*
X164585571Y-110359340D01*
X164587794Y-110368562D01*
X164590410Y-110377567D01*
X164593548Y-110386550D01*
X164597207Y-110395511D01*
X164601388Y-110404450D01*
X164606091Y-110413367D01*
X164611316Y-110422263D01*
X164617062Y-110431137D01*
X164623330Y-110439989D01*
X164630120Y-110448819D01*
X164636178Y-110455875D01*
X164642804Y-110462610D01*
X164649998Y-110469024D01*
X164657761Y-110475117D01*
X164666092Y-110480890D01*
X164674992Y-110486342D01*
X164684460Y-110491473D01*
X164694497Y-110496284D01*
X164705102Y-110500774D01*
X164716276Y-110504943D01*
X164728018Y-110508792D01*
X165128421Y-110656958D01*
X165119596Y-110660328D01*
X165110601Y-110663540D01*
X165101433Y-110666596D01*
X165092095Y-110669495D01*
X165082585Y-110672237D01*
X165072904Y-110674823D01*
X165063052Y-110677252D01*
X165053028Y-110679524D01*
X165042833Y-110681640D01*
X165032467Y-110683599D01*
X165021929Y-110685401D01*
X165011220Y-110687046D01*
X165000340Y-110688535D01*
X164989288Y-110689867D01*
X164978065Y-110691043D01*
X164966671Y-110692061D01*
X164955105Y-110692923D01*
X164943368Y-110693628D01*
X164931460Y-110694177D01*
X164919381Y-110694569D01*
X164907130Y-110694804D01*
X164894708Y-110694882D01*
X164882287Y-110694804D01*
X164870042Y-110694569D01*
X164857972Y-110694177D01*
X164846076Y-110693628D01*
X164834356Y-110692923D01*
X164822810Y-110692061D01*
X164811439Y-110691043D01*
X164800244Y-110689867D01*
X164789223Y-110688535D01*
X164778377Y-110687046D01*
X164767706Y-110685401D01*
X164757210Y-110683599D01*
X164746889Y-110681640D01*
X164736743Y-110679524D01*
X164726772Y-110677252D01*
X164716976Y-110674823D01*
X164707355Y-110672237D01*
X164697909Y-110669495D01*
X164688638Y-110666596D01*
X164679541Y-110663540D01*
X164670620Y-110660328D01*
X164661874Y-110656958D01*
X164650732Y-110652402D01*
X164639927Y-110647657D01*
X164629457Y-110642722D01*
X164619322Y-110637598D01*
X164609523Y-110632285D01*
X164600060Y-110626783D01*
X164590932Y-110621092D01*
X164582140Y-110615211D01*
X164573683Y-110609141D01*
X164565562Y-110602882D01*
X164557776Y-110596434D01*
X164550326Y-110589796D01*
X164543212Y-110582970D01*
X164536433Y-110575954D01*
X164529990Y-110568749D01*
X164523882Y-110561354D01*
X164518110Y-110553771D01*
X164511451Y-110544434D01*
X164505080Y-110535070D01*
X164498996Y-110525679D01*
X164493201Y-110516261D01*
X164487693Y-110506816D01*
X164482474Y-110497344D01*
X164477543Y-110487845D01*
X164472899Y-110478320D01*
X164468544Y-110468767D01*
X164464477Y-110459187D01*
X164460697Y-110449580D01*
X164457206Y-110439946D01*
X164454003Y-110430285D01*
X164451088Y-110420597D01*
X164448294Y-110410707D01*
X164445708Y-110400690D01*
X164443328Y-110390548D01*
X164441156Y-110380280D01*
X164439190Y-110369885D01*
X164437431Y-110359365D01*
X164435879Y-110348719D01*
X164434534Y-110337946D01*
X164433396Y-110327048D01*
X164432465Y-110316024D01*
X164431741Y-110304874D01*
X164431224Y-110293597D01*
X164430913Y-110282195D01*
X164430810Y-110270667D01*
X164430913Y-110259021D01*
X164431224Y-110247520D01*
X164431741Y-110236163D01*
X164432465Y-110224950D01*
X164433396Y-110213880D01*
X164434534Y-110202955D01*
X164435879Y-110192174D01*
X164437431Y-110181536D01*
X164439190Y-110171043D01*
X164441156Y-110160694D01*
X164443328Y-110150488D01*
X164445708Y-110140427D01*
X164448294Y-110130510D01*
X164451088Y-110120736D01*
X164454003Y-110110927D01*
X164457206Y-110101153D01*
X164460697Y-110091416D01*
X164464477Y-110081715D01*
X164468544Y-110072049D01*
X164472899Y-110062420D01*
X164477543Y-110052826D01*
X164482474Y-110043269D01*
X164487693Y-110033748D01*
X164493201Y-110024262D01*
X164498996Y-110014813D01*
X164505080Y-110005399D01*
X164511451Y-109996022D01*
X164518110Y-109986681D01*
X164523882Y-109979097D01*
X164529990Y-109971703D01*
X164536433Y-109964498D01*
X164543212Y-109957482D01*
X164550326Y-109950655D01*
X164557776Y-109944018D01*
X164565562Y-109937569D01*
X164573683Y-109931310D01*
X164582140Y-109925240D01*
X164590932Y-109919360D01*
X164600060Y-109913668D01*
X164609523Y-109908166D01*
X164619322Y-109902853D01*
X164629457Y-109897729D01*
X164639927Y-109892795D01*
X164650732Y-109888049D01*
X164661874Y-109883493D01*
X164670620Y-109880124D01*
X164679541Y-109876911D01*
X164688638Y-109873855D01*
X164697909Y-109870956D01*
X164707355Y-109868214D01*
X164716976Y-109865628D01*
X164726772Y-109863199D01*
X164736743Y-109860927D01*
X164746889Y-109858811D01*
X164757210Y-109856853D01*
X164767706Y-109855050D01*
X164778377Y-109853405D01*
X164789223Y-109851916D01*
X164800244Y-109850584D01*
X164811439Y-109849409D01*
X164822810Y-109848390D01*
X164834356Y-109847528D01*
X164846076Y-109846823D01*
X164857972Y-109846275D01*
X164870042Y-109845883D01*
X164882287Y-109845648D01*
X164894708Y-109845569D01*
X164907130Y-109845648D01*
X164919381Y-109845883D01*
X164931460Y-109846275D01*
X164943368Y-109846823D01*
X164955105Y-109847528D01*
X164966671Y-109848390D01*
X164978065Y-109849409D01*
X164989288Y-109850584D01*
X165000340Y-109851916D01*
X165011220Y-109853405D01*
X165021929Y-109855050D01*
X165032467Y-109856853D01*
X165042833Y-109858811D01*
X165053028Y-109860927D01*
X165063052Y-109863199D01*
X165072904Y-109865628D01*
X165082585Y-109868214D01*
X165092095Y-109870956D01*
X165101433Y-109873855D01*
X165110601Y-109876911D01*
X165119596Y-109880124D01*
X165128421Y-109883493D01*
X165139462Y-109888049D01*
X165150173Y-109892795D01*
X165160555Y-109897729D01*
X165170607Y-109902853D01*
X165180329Y-109908166D01*
X165189722Y-109913668D01*
X165198786Y-109919360D01*
X165207520Y-109925240D01*
X165215924Y-109931310D01*
X165223999Y-109937569D01*
X165231744Y-109944018D01*
X165239159Y-109950655D01*
X165246245Y-109957482D01*
X165253001Y-109964498D01*
X165259428Y-109971703D01*
X165265525Y-109979097D01*
X165271293Y-109986681D01*
X165277957Y-109996022D01*
X165284342Y-110005399D01*
X165290448Y-110014813D01*
X165296275Y-110024262D01*
X165301824Y-110033748D01*
X165307093Y-110043269D01*
X165312084Y-110052826D01*
X165316795Y-110062420D01*
X165321228Y-110072049D01*
X165325381Y-110081715D01*
X165329256Y-110091416D01*
X165332852Y-110101153D01*
X165336169Y-110110927D01*
X165339207Y-110120736D01*
X165341879Y-110130510D01*
X165344354Y-110140427D01*
X165346630Y-110150488D01*
X165348708Y-110160694D01*
X165350589Y-110171043D01*
X165352272Y-110181536D01*
X165353756Y-110192174D01*
X165355043Y-110202955D01*
X165356131Y-110213880D01*
X165357022Y-110224950D01*
X165357715Y-110236163D01*
X165358210Y-110247520D01*
X165358507Y-110259021D01*
X165358606Y-110270667D01*
X165358507Y-110282195D01*
X165358210Y-110293597D01*
X165357715Y-110304874D01*
X165357022Y-110316024D01*
X165356131Y-110327048D01*
X165355043Y-110337946D01*
X165353756Y-110348719D01*
X165352272Y-110359365D01*
X165350589Y-110369885D01*
X165348708Y-110380280D01*
X165346630Y-110390548D01*
X165344354Y-110400690D01*
X165341879Y-110410707D01*
X165339207Y-110420597D01*
X165336169Y-110430285D01*
X165332852Y-110439946D01*
X165329256Y-110449580D01*
X165325381Y-110459187D01*
X165321228Y-110468767D01*
X165316795Y-110478320D01*
X165312084Y-110487845D01*
X165307093Y-110497344D01*
X165301824Y-110506816D01*
X165296275Y-110516261D01*
X165290448Y-110525679D01*
X165284342Y-110535070D01*
X165277957Y-110544434D01*
X165271293Y-110553771D01*
X165265525Y-110561354D01*
X165259428Y-110568749D01*
X165253001Y-110575954D01*
X165246245Y-110582970D01*
X165239159Y-110589796D01*
X165231744Y-110596434D01*
X165223999Y-110602882D01*
X165215924Y-110609141D01*
X165207520Y-110615211D01*
X165198786Y-110621092D01*
X165189722Y-110626783D01*
X165180329Y-110632285D01*
X165170607Y-110637598D01*
X165160555Y-110642722D01*
X165150173Y-110647657D01*
X165139462Y-110652402D01*
X165128421Y-110656958D01*
X165128421Y-110656958D01*
G37*
G36*
X165344493Y-109605681D02*
X164100078Y-109605681D01*
X164100078Y-109439875D01*
X165344493Y-109439875D01*
X165344493Y-109605681D01*
X165344493Y-109605681D01*
G37*
G36*
X164443152Y-109242319D02*
X164443152Y-109065049D01*
X165118715Y-108822514D01*
X164443152Y-108584389D01*
X164443152Y-108407118D01*
X165440632Y-108777535D01*
X165453126Y-108782276D01*
X165465312Y-108787121D01*
X165477189Y-108792070D01*
X165488757Y-108797123D01*
X165500018Y-108802280D01*
X165510969Y-108807541D01*
X165521612Y-108812905D01*
X165531947Y-108818374D01*
X165541973Y-108823946D01*
X165551690Y-108829622D01*
X165561099Y-108835403D01*
X165570200Y-108841287D01*
X165578992Y-108847274D01*
X165587476Y-108853366D01*
X165595651Y-108859562D01*
X165603517Y-108865861D01*
X165611075Y-108872265D01*
X165618325Y-108878772D01*
X165625266Y-108885383D01*
X165631899Y-108892098D01*
X165638223Y-108898917D01*
X165644238Y-108905840D01*
X165649946Y-108912867D01*
X165655344Y-108919997D01*
X165660434Y-108927232D01*
X165665216Y-108934570D01*
X165669689Y-108942012D01*
X165673854Y-108949558D01*
X165677710Y-108957208D01*
X165681258Y-108964962D01*
X165684497Y-108972820D01*
X165687428Y-108980782D01*
X165690050Y-108988847D01*
X165692364Y-108997017D01*
X165694369Y-109005290D01*
X165696065Y-109013667D01*
X165697454Y-109022148D01*
X165698533Y-109030733D01*
X165699305Y-109039422D01*
X165699767Y-109048215D01*
X165699922Y-109057111D01*
X165699922Y-109057990D01*
X165699824Y-109068028D01*
X165699530Y-109078152D01*
X165699040Y-109088362D01*
X165698354Y-109098658D01*
X165697472Y-109109039D01*
X165696393Y-109119506D01*
X165695119Y-109130058D01*
X165693649Y-109140697D01*
X165691983Y-109151421D01*
X165690121Y-109162231D01*
X165688063Y-109173127D01*
X165685809Y-109184108D01*
X165537639Y-109184108D01*
X165540329Y-109173410D01*
X165542755Y-109162836D01*
X165544916Y-109152385D01*
X165546813Y-109142057D01*
X165548446Y-109131853D01*
X165549814Y-109121772D01*
X165550918Y-109111815D01*
X165551757Y-109101982D01*
X165552332Y-109092271D01*
X165552642Y-109082685D01*
X165552411Y-109075265D01*
X165551717Y-109067942D01*
X165550561Y-109060715D01*
X165548942Y-109053584D01*
X165546860Y-109046549D01*
X165544316Y-109039610D01*
X165541310Y-109032768D01*
X165537841Y-109026021D01*
X165533909Y-109019370D01*
X165529515Y-109012815D01*
X165524658Y-109006356D01*
X165519338Y-108999994D01*
X165513556Y-108993727D01*
X165507312Y-108987556D01*
X165500605Y-108981482D01*
X165493435Y-108975503D01*
X165485803Y-108969620D01*
X165477709Y-108963834D01*
X165469151Y-108958143D01*
X165460132Y-108952549D01*
X165450649Y-108947050D01*
X165440704Y-108941648D01*
X165430297Y-108936342D01*
X165419427Y-108931131D01*
X165408094Y-108926017D01*
X165396299Y-108920999D01*
X165384042Y-108916077D01*
X165371321Y-108911250D01*
X165358139Y-108906520D01*
X165344493Y-108901886D01*
X164443152Y-109242317D01*
X164443152Y-109242319D01*
X164443152Y-109242319D01*
G37*
G36*
X164698034Y-108287174D02*
X164686917Y-108286975D01*
X164675968Y-108286380D01*
X164665186Y-108285388D01*
X164654571Y-108283999D01*
X164644125Y-108282213D01*
X164633845Y-108280030D01*
X164623734Y-108277450D01*
X164613790Y-108274474D01*
X164604014Y-108271100D01*
X164594405Y-108267330D01*
X164584964Y-108263163D01*
X164575691Y-108258599D01*
X164566585Y-108253638D01*
X164557647Y-108248280D01*
X164548876Y-108242525D01*
X164540274Y-108236374D01*
X164531838Y-108229825D01*
X164523571Y-108222880D01*
X164515470Y-108215538D01*
X164507538Y-108207799D01*
X164501384Y-108201244D01*
X164495481Y-108194421D01*
X164489829Y-108187330D01*
X164484428Y-108179971D01*
X164479279Y-108172344D01*
X164474380Y-108164449D01*
X164469733Y-108156286D01*
X164465337Y-108147855D01*
X164461193Y-108139155D01*
X164457299Y-108130187D01*
X164453657Y-108120952D01*
X164450266Y-108111448D01*
X164447126Y-108101676D01*
X164444237Y-108091636D01*
X164441599Y-108081328D01*
X164439213Y-108070752D01*
X164437078Y-108059907D01*
X164435194Y-108048795D01*
X164433561Y-108037414D01*
X164432180Y-108025765D01*
X164431049Y-108013848D01*
X164430170Y-108001664D01*
X164429542Y-107989210D01*
X164429165Y-107976489D01*
X164429040Y-107963500D01*
X164429151Y-107952847D01*
X164429486Y-107942207D01*
X164430045Y-107931580D01*
X164430827Y-107920967D01*
X164431832Y-107910367D01*
X164433061Y-107899780D01*
X164434513Y-107889207D01*
X164436188Y-107878647D01*
X164438087Y-107868100D01*
X164440209Y-107857567D01*
X164442555Y-107847047D01*
X164445124Y-107836540D01*
X164447916Y-107826047D01*
X164450932Y-107815567D01*
X164454171Y-107805100D01*
X164457634Y-107794647D01*
X164461320Y-107784207D01*
X164465229Y-107773780D01*
X164469362Y-107763367D01*
X164473718Y-107752967D01*
X164478298Y-107742580D01*
X164483101Y-107732207D01*
X164488127Y-107721847D01*
X164630999Y-107721847D01*
X164625999Y-107732989D01*
X164621242Y-107744070D01*
X164616729Y-107755091D01*
X164612460Y-107766052D01*
X164608435Y-107776954D01*
X164604654Y-107787795D01*
X164601116Y-107798576D01*
X164597823Y-107809298D01*
X164594774Y-107819959D01*
X164591969Y-107830560D01*
X164589407Y-107841102D01*
X164587090Y-107851583D01*
X164585016Y-107862004D01*
X164583187Y-107872366D01*
X164581601Y-107882667D01*
X164580259Y-107892908D01*
X164579162Y-107903090D01*
X164578308Y-107913211D01*
X164577698Y-107923273D01*
X164577332Y-107933274D01*
X164577210Y-107943215D01*
X164577369Y-107956232D01*
X164577844Y-107968757D01*
X164578636Y-107980790D01*
X164579746Y-107992333D01*
X164581172Y-108003385D01*
X164582915Y-108013945D01*
X164584975Y-108024014D01*
X164587352Y-108033592D01*
X164590046Y-108042679D01*
X164593057Y-108051275D01*
X164596385Y-108059379D01*
X164600030Y-108066992D01*
X164603992Y-108074114D01*
X164608271Y-108080745D01*
X164612866Y-108086885D01*
X164617779Y-108092534D01*
X164623008Y-108097691D01*
X164628555Y-108102357D01*
X164634418Y-108106532D01*
X164640599Y-108110216D01*
X164647096Y-108113409D01*
X164653910Y-108116110D01*
X164661042Y-108118321D01*
X164668490Y-108120040D01*
X164676255Y-108121268D01*
X164684337Y-108122004D01*
X164692736Y-108122250D01*
X164701013Y-108121662D01*
X164708984Y-108119898D01*
X164716650Y-108116958D01*
X164724012Y-108112843D01*
X164731068Y-108107551D01*
X164737819Y-108101083D01*
X164744266Y-108093440D01*
X164750407Y-108084620D01*
X164756243Y-108074625D01*
X164760689Y-108065806D01*
X164765048Y-108056665D01*
X164769320Y-108047205D01*
X164773504Y-108037423D01*
X164777600Y-108027321D01*
X164781609Y-108016898D01*
X164785530Y-108006154D01*
X164789363Y-107995090D01*
X164793109Y-107983705D01*
X164796768Y-107971999D01*
X164800339Y-107959972D01*
X164803240Y-107949660D01*
X164806246Y-107939348D01*
X164809356Y-107929036D01*
X164812571Y-107918724D01*
X164815890Y-107908412D01*
X164819314Y-107898100D01*
X164822842Y-107887788D01*
X164826475Y-107877476D01*
X164830212Y-107867165D01*
X164834053Y-107856853D01*
X164837999Y-107846541D01*
X164842050Y-107836229D01*
X164846205Y-107825917D01*
X164850173Y-107816319D01*
X164854519Y-107806928D01*
X164859243Y-107797744D01*
X164864346Y-107788767D01*
X164869826Y-107779997D01*
X164875684Y-107771434D01*
X164881920Y-107763078D01*
X164888534Y-107754929D01*
X164895526Y-107746987D01*
X164902895Y-107739252D01*
X164910643Y-107731724D01*
X164918769Y-107724403D01*
X164927273Y-107717289D01*
X164936155Y-107710382D01*
X164944210Y-107704508D01*
X164952500Y-107699013D01*
X164961023Y-107693897D01*
X164969781Y-107689160D01*
X164978773Y-107684802D01*
X164987999Y-107680823D01*
X164997460Y-107677223D01*
X165007154Y-107674002D01*
X165017083Y-107671159D01*
X165027246Y-107668696D01*
X165037642Y-107666612D01*
X165048274Y-107664907D01*
X165059139Y-107663580D01*
X165070238Y-107662633D01*
X165081572Y-107662064D01*
X165093139Y-107661875D01*
X165103913Y-107662080D01*
X165114536Y-107662695D01*
X165125009Y-107663720D01*
X165135333Y-107665156D01*
X165145506Y-107667001D01*
X165155530Y-107669257D01*
X165165404Y-107671923D01*
X165175127Y-107674998D01*
X165184701Y-107678484D01*
X165194125Y-107682380D01*
X165203399Y-107686686D01*
X165212523Y-107691402D01*
X165221498Y-107696529D01*
X165230322Y-107702065D01*
X165238996Y-107708012D01*
X165247521Y-107714368D01*
X165255895Y-107721135D01*
X165264120Y-107728312D01*
X165272195Y-107735899D01*
X165280119Y-107743896D01*
X165286041Y-107750338D01*
X165291730Y-107757047D01*
X165297187Y-107764021D01*
X165302411Y-107771262D01*
X165307404Y-107778769D01*
X165312164Y-107786542D01*
X165316692Y-107794582D01*
X165320988Y-107802887D01*
X165325052Y-107811458D01*
X165328883Y-107820296D01*
X165332482Y-107829400D01*
X165335849Y-107838770D01*
X165338984Y-107848406D01*
X165341887Y-107858309D01*
X165344557Y-107868477D01*
X165346995Y-107878912D01*
X165349201Y-107889612D01*
X165351175Y-107900579D01*
X165352917Y-107911812D01*
X165354426Y-107923311D01*
X165355703Y-107935077D01*
X165356748Y-107947108D01*
X165357561Y-107959406D01*
X165358141Y-107971970D01*
X165358490Y-107984800D01*
X165358606Y-107997896D01*
X165358506Y-108009420D01*
X165358205Y-108020852D01*
X165357704Y-108032190D01*
X165357003Y-108043435D01*
X165356101Y-108054587D01*
X165354999Y-108065646D01*
X165353697Y-108076612D01*
X165352194Y-108087484D01*
X165350491Y-108098264D01*
X165348587Y-108108950D01*
X165346483Y-108119543D01*
X165344179Y-108130044D01*
X165341675Y-108140450D01*
X165338970Y-108150764D01*
X165336064Y-108160985D01*
X165332958Y-108171113D01*
X165329652Y-108181147D01*
X165326146Y-108191088D01*
X165322439Y-108200936D01*
X165318532Y-108210691D01*
X165314424Y-108220353D01*
X165310116Y-108229922D01*
X165305608Y-108239398D01*
X165300899Y-108248780D01*
X165295990Y-108258069D01*
X165146062Y-108258069D01*
X165151459Y-108248269D01*
X165156626Y-108238416D01*
X165161564Y-108228511D01*
X165166272Y-108218553D01*
X165170751Y-108208544D01*
X165175000Y-108198483D01*
X165179019Y-108188370D01*
X165182808Y-108178204D01*
X165186368Y-108167987D01*
X165189698Y-108157718D01*
X165192799Y-108147396D01*
X165195670Y-108137023D01*
X165198311Y-108126597D01*
X165200722Y-108116119D01*
X165202904Y-108105590D01*
X165204856Y-108095008D01*
X165206579Y-108084374D01*
X165208072Y-108073688D01*
X165209335Y-108062950D01*
X165210368Y-108052160D01*
X165211172Y-108041318D01*
X165211746Y-108030424D01*
X165212091Y-108019477D01*
X165212206Y-108008479D01*
X165212206Y-108004951D01*
X165212023Y-107991899D01*
X165211475Y-107979338D01*
X165210562Y-107967267D01*
X165209284Y-107955687D01*
X165207640Y-107944598D01*
X165205631Y-107933999D01*
X165203257Y-107923890D01*
X165200518Y-107914273D01*
X165197414Y-107905145D01*
X165193944Y-107896508D01*
X165190109Y-107888362D01*
X165185909Y-107880706D01*
X165181343Y-107873541D01*
X165174825Y-107864828D01*
X165167972Y-107857031D01*
X165160784Y-107850152D01*
X165153261Y-107844190D01*
X165145402Y-107839145D01*
X165137209Y-107835018D01*
X165128681Y-107831808D01*
X165119818Y-107829515D01*
X165110620Y-107828139D01*
X165101087Y-107827680D01*
X165091165Y-107828074D01*
X165081608Y-107829255D01*
X165072416Y-107831223D01*
X165063588Y-107833978D01*
X165055125Y-107837520D01*
X165047027Y-107841850D01*
X165039293Y-107846966D01*
X165031924Y-107852870D01*
X165024919Y-107859561D01*
X165018279Y-107867040D01*
X165012004Y-107875305D01*
X165006382Y-107883243D01*
X165000981Y-107891474D01*
X164995801Y-107900000D01*
X164990840Y-107908819D01*
X164986100Y-107917933D01*
X164981581Y-107927340D01*
X164977282Y-107937041D01*
X164973204Y-107947037D01*
X164969345Y-107957326D01*
X164965708Y-107967909D01*
X164962290Y-107978787D01*
X164959094Y-107989958D01*
X164956086Y-108000406D01*
X164953038Y-108010853D01*
X164949947Y-108021301D01*
X164946816Y-108031749D01*
X164943642Y-108042196D01*
X164940427Y-108052644D01*
X164937170Y-108063091D01*
X164933872Y-108073539D01*
X164930532Y-108083987D01*
X164927150Y-108094434D01*
X164923727Y-108104882D01*
X164920262Y-108115330D01*
X164916756Y-108125777D01*
X164912914Y-108135975D01*
X164908718Y-108145942D01*
X164904167Y-108155680D01*
X164899261Y-108165188D01*
X164894001Y-108174467D01*
X164888385Y-108183516D01*
X164882416Y-108192336D01*
X164876091Y-108200925D01*
X164869412Y-108209286D01*
X164862378Y-108217416D01*
X164854990Y-108225317D01*
X164847246Y-108232988D01*
X164839148Y-108240430D01*
X164831717Y-108246455D01*
X164824002Y-108252064D01*
X164816006Y-108257258D01*
X164807727Y-108262036D01*
X164799167Y-108266399D01*
X164790324Y-108270346D01*
X164781198Y-108273877D01*
X164771791Y-108276994D01*
X164762101Y-108279694D01*
X164752129Y-108281980D01*
X164741874Y-108283849D01*
X164731338Y-108285303D01*
X164720519Y-108286342D01*
X164709418Y-108286965D01*
X164698034Y-108287173D01*
X164698034Y-108287174D01*
X164698034Y-108287174D01*
G37*
G36*
X164582496Y-107533111D02*
X164443152Y-107533111D01*
X164443152Y-107376125D01*
X164174158Y-107376125D01*
X164174158Y-107211201D01*
X164443152Y-107211201D01*
X164443152Y-106971312D01*
X164582496Y-106971312D01*
X164582496Y-107211201D01*
X165106373Y-107211201D01*
X165115775Y-107210926D01*
X165124741Y-107210101D01*
X165133268Y-107208725D01*
X165141359Y-107206799D01*
X165149012Y-107204323D01*
X165156228Y-107201296D01*
X165163006Y-107197719D01*
X165169348Y-107193592D01*
X165175252Y-107188914D01*
X165180718Y-107183686D01*
X165185747Y-107177908D01*
X165190339Y-107171579D01*
X165194494Y-107164701D01*
X165198211Y-107157272D01*
X165201491Y-107149292D01*
X165204334Y-107140762D01*
X165206739Y-107131682D01*
X165208707Y-107122052D01*
X165210238Y-107111871D01*
X165211331Y-107101140D01*
X165211987Y-107089859D01*
X165212206Y-107078028D01*
X165212206Y-107076264D01*
X165211941Y-107064102D01*
X165211147Y-107052310D01*
X165209825Y-107040889D01*
X165207973Y-107029838D01*
X165205592Y-107019158D01*
X165202682Y-107008848D01*
X165199242Y-106998908D01*
X165195274Y-106989339D01*
X165190777Y-106980140D01*
X165185750Y-106971312D01*
X165333921Y-106971312D01*
X165337864Y-106981602D01*
X165341463Y-106991891D01*
X165344721Y-107002180D01*
X165347635Y-107012470D01*
X165350206Y-107022759D01*
X165352435Y-107033048D01*
X165354320Y-107043338D01*
X165355863Y-107053627D01*
X165357063Y-107063916D01*
X165357920Y-107074206D01*
X165358434Y-107084495D01*
X165358606Y-107094784D01*
X165358606Y-107099194D01*
X165358444Y-107108607D01*
X165357957Y-107118201D01*
X165357146Y-107127974D01*
X165356011Y-107137928D01*
X165354551Y-107148061D01*
X165352767Y-107158374D01*
X165350658Y-107168868D01*
X165348708Y-107177284D01*
X165346387Y-107186071D01*
X165343697Y-107195228D01*
X165340638Y-107204755D01*
X165337208Y-107214653D01*
X165333410Y-107224920D01*
X165329241Y-107235558D01*
X165324704Y-107246566D01*
X165319796Y-107257944D01*
X165315189Y-107267099D01*
X165310027Y-107275962D01*
X165304312Y-107284534D01*
X165298043Y-107292814D01*
X165291220Y-107300802D01*
X165283842Y-107308499D01*
X165275912Y-107315905D01*
X165267427Y-107323018D01*
X165258388Y-107329841D01*
X165248795Y-107336372D01*
X165238649Y-107342611D01*
X165230194Y-107347227D01*
X165221460Y-107351502D01*
X165212447Y-107355435D01*
X165203155Y-107359026D01*
X165193585Y-107362274D01*
X165183735Y-107365181D01*
X165173607Y-107367746D01*
X165163199Y-107369969D01*
X165152513Y-107371850D01*
X165141548Y-107373389D01*
X165130303Y-107374586D01*
X165118780Y-107375441D01*
X165106978Y-107375954D01*
X165094897Y-107376125D01*
X164582484Y-107376125D01*
X164582484Y-107533111D01*
X164582496Y-107533111D01*
X164582496Y-107533111D01*
G37*
G36*
X165060507Y-106804625D02*
X165058713Y-106640584D01*
X165067872Y-106640385D01*
X165076750Y-106639787D01*
X165085346Y-106638791D01*
X165093660Y-106637396D01*
X165101692Y-106635603D01*
X165109442Y-106633412D01*
X165116911Y-106630822D01*
X165124097Y-106627833D01*
X165131002Y-106624447D01*
X165137625Y-106620661D01*
X165143966Y-106616477D01*
X165150026Y-106611895D01*
X165155803Y-106606915D01*
X165161299Y-106601535D01*
X165166513Y-106595758D01*
X165171445Y-106589582D01*
X165176095Y-106583007D01*
X165180463Y-106576034D01*
X165184550Y-106568663D01*
X165188355Y-106560893D01*
X165191878Y-106552725D01*
X165195119Y-106544158D01*
X165198078Y-106535193D01*
X165200755Y-106525829D01*
X165203151Y-106516067D01*
X165205265Y-106505906D01*
X165207096Y-106495347D01*
X165208647Y-106484390D01*
X165209915Y-106473034D01*
X165210901Y-106461279D01*
X165211606Y-106449127D01*
X165212028Y-106436575D01*
X165212169Y-106423626D01*
X165212169Y-106420980D01*
X165212026Y-106408392D01*
X165211594Y-106396203D01*
X165210875Y-106384414D01*
X165209868Y-106373024D01*
X165208574Y-106362034D01*
X165206992Y-106351444D01*
X165205122Y-106341254D01*
X165202964Y-106331463D01*
X165200519Y-106322071D01*
X165197787Y-106313080D01*
X165194766Y-106304488D01*
X165191458Y-106296295D01*
X165187863Y-106288502D01*
X165183979Y-106281109D01*
X165179808Y-106274116D01*
X165175350Y-106267522D01*
X165170603Y-106261327D01*
X165165569Y-106255533D01*
X165160248Y-106250138D01*
X165154638Y-106245142D01*
X165148741Y-106240547D01*
X165142557Y-106236351D01*
X165136085Y-106232554D01*
X165129325Y-106229157D01*
X165122277Y-106226160D01*
X165114942Y-106223562D01*
X165107319Y-106221364D01*
X165099409Y-106219566D01*
X165091210Y-106218167D01*
X165082725Y-106217168D01*
X165073951Y-106216569D01*
X165064890Y-106216369D01*
X164918478Y-106216369D01*
X164917014Y-106225827D01*
X164915649Y-106235556D01*
X164914384Y-106245554D01*
X164913219Y-106255823D01*
X164912153Y-106266361D01*
X164911186Y-106277169D01*
X164910320Y-106288247D01*
X164909552Y-106299596D01*
X164908884Y-106311214D01*
X164908316Y-106323102D01*
X164907847Y-106335260D01*
X164907478Y-106347689D01*
X164907208Y-106360387D01*
X164907038Y-106373355D01*
X164907183Y-106383758D01*
X164907618Y-106394306D01*
X164908343Y-106404997D01*
X164909358Y-106415832D01*
X164910663Y-106426812D01*
X164912258Y-106437935D01*
X164914143Y-106449202D01*
X164915803Y-106459221D01*
X164917714Y-106469432D01*
X164919875Y-106479836D01*
X164922286Y-106490433D01*
X164924947Y-106501223D01*
X164927859Y-106512206D01*
X164931021Y-106523382D01*
X164934433Y-106534751D01*
X164937797Y-106544746D01*
X164941619Y-106554350D01*
X164945899Y-106563561D01*
X164950635Y-106572381D01*
X164955829Y-106580808D01*
X164961480Y-106588843D01*
X164967589Y-106596487D01*
X164974155Y-106603739D01*
X164981178Y-106610598D01*
X164989529Y-106617626D01*
X164998265Y-106623717D01*
X165007388Y-106628871D01*
X165016896Y-106633088D01*
X165026789Y-106636367D01*
X165037069Y-106638710D01*
X165047734Y-106640116D01*
X165058785Y-106640584D01*
X165058713Y-106640584D01*
X165060507Y-106804625D01*
X165049439Y-106804429D01*
X165038576Y-106803841D01*
X165027919Y-106802861D01*
X165017466Y-106801489D01*
X165007219Y-106799725D01*
X164997176Y-106797569D01*
X164987339Y-106795022D01*
X164977707Y-106792082D01*
X164968280Y-106788750D01*
X164959058Y-106785026D01*
X164950042Y-106780910D01*
X164941230Y-106776403D01*
X164932624Y-106771503D01*
X164924222Y-106766211D01*
X164916026Y-106760528D01*
X164908035Y-106754452D01*
X164900249Y-106747984D01*
X164892668Y-106741125D01*
X164885293Y-106733873D01*
X164878122Y-106726230D01*
X164871157Y-106718194D01*
X164864396Y-106709767D01*
X164857841Y-106700947D01*
X164851491Y-106691736D01*
X164846519Y-106684115D01*
X164841715Y-106676304D01*
X164837080Y-106668303D01*
X164832613Y-106660111D01*
X164828315Y-106651730D01*
X164824185Y-106643159D01*
X164820224Y-106634397D01*
X164816432Y-106625445D01*
X164812808Y-106616303D01*
X164809352Y-106606971D01*
X164806066Y-106597449D01*
X164802947Y-106587737D01*
X164799998Y-106577835D01*
X164797217Y-106567742D01*
X164794604Y-106557460D01*
X164792160Y-106546987D01*
X164789884Y-106536325D01*
X164787777Y-106525472D01*
X164785839Y-106514429D01*
X164784069Y-106503196D01*
X164782468Y-106491773D01*
X164781035Y-106480160D01*
X164779771Y-106468356D01*
X164778676Y-106456363D01*
X164777749Y-106444179D01*
X164776990Y-106431805D01*
X164776400Y-106419242D01*
X164775979Y-106406488D01*
X164775726Y-106393544D01*
X164775642Y-106380410D01*
X164775689Y-106369144D01*
X164775830Y-106357926D01*
X164776065Y-106346755D01*
X164776395Y-106335630D01*
X164776819Y-106324553D01*
X164777337Y-106313523D01*
X164777949Y-106302540D01*
X164778656Y-106291604D01*
X164779456Y-106280715D01*
X164780351Y-106269873D01*
X164781340Y-106259078D01*
X164782423Y-106248330D01*
X164783601Y-106237629D01*
X164784872Y-106226975D01*
X164786238Y-106216368D01*
X164773076Y-106217171D01*
X164760360Y-106218333D01*
X164748089Y-106219856D01*
X164736264Y-106221739D01*
X164724884Y-106223982D01*
X164713950Y-106226585D01*
X164703461Y-106229549D01*
X164693418Y-106232872D01*
X164683820Y-106236555D01*
X164674668Y-106240599D01*
X164665961Y-106245002D01*
X164657700Y-106249766D01*
X164649884Y-106254890D01*
X164642514Y-106260374D01*
X164635589Y-106266218D01*
X164629110Y-106272422D01*
X164623076Y-106278986D01*
X164618015Y-106285130D01*
X164613227Y-106291680D01*
X164608713Y-106298636D01*
X164604472Y-106305997D01*
X164600505Y-106313763D01*
X164596812Y-106321935D01*
X164593392Y-106330513D01*
X164590246Y-106339496D01*
X164587373Y-106348884D01*
X164584774Y-106358679D01*
X164582449Y-106368878D01*
X164580397Y-106379484D01*
X164578618Y-106390495D01*
X164577114Y-106401911D01*
X164575883Y-106413733D01*
X164574925Y-106425960D01*
X164574241Y-106438594D01*
X164573831Y-106451632D01*
X164573694Y-106465076D01*
X164573779Y-106475305D01*
X164574034Y-106485589D01*
X164574459Y-106495931D01*
X164575054Y-106506329D01*
X164575819Y-106516784D01*
X164576755Y-106527296D01*
X164577860Y-106537864D01*
X164579135Y-106548489D01*
X164580580Y-106559171D01*
X164582196Y-106569909D01*
X164583981Y-106580704D01*
X164585937Y-106591556D01*
X164588062Y-106602465D01*
X164590358Y-106613430D01*
X164592823Y-106624452D01*
X164595459Y-106635530D01*
X164598264Y-106646665D01*
X164601240Y-106657857D01*
X164604386Y-106669106D01*
X164607701Y-106680411D01*
X164611187Y-106691773D01*
X164614843Y-106703191D01*
X164618669Y-106714667D01*
X164477555Y-106714667D01*
X164473752Y-106704409D01*
X164470105Y-106694098D01*
X164466612Y-106683734D01*
X164463275Y-106673315D01*
X164460094Y-106662844D01*
X164457067Y-106652318D01*
X164454196Y-106641739D01*
X164451479Y-106631106D01*
X164448919Y-106620420D01*
X164446513Y-106609680D01*
X164444262Y-106598886D01*
X164442167Y-106588039D01*
X164440227Y-106577138D01*
X164438442Y-106566184D01*
X164436812Y-106555176D01*
X164435338Y-106544114D01*
X164434018Y-106532999D01*
X164432854Y-106521830D01*
X164431845Y-106510607D01*
X164430992Y-106499331D01*
X164430293Y-106488001D01*
X164429750Y-106476618D01*
X164429362Y-106465181D01*
X164429129Y-106453690D01*
X164429052Y-106442146D01*
X164429160Y-106429717D01*
X164429487Y-106417479D01*
X164430031Y-106405430D01*
X164430792Y-106393572D01*
X164431771Y-106381904D01*
X164432968Y-106370426D01*
X164434382Y-106359138D01*
X164436013Y-106348040D01*
X164437862Y-106337133D01*
X164439929Y-106326415D01*
X164442213Y-106315888D01*
X164444715Y-106305550D01*
X164447435Y-106295403D01*
X164450371Y-106285446D01*
X164453526Y-106275679D01*
X164456898Y-106266102D01*
X164460488Y-106256715D01*
X164464295Y-106247518D01*
X164468319Y-106238512D01*
X164472562Y-106229695D01*
X164477021Y-106221069D01*
X164481699Y-106212633D01*
X164486593Y-106204386D01*
X164491706Y-106196330D01*
X164497036Y-106188464D01*
X164502583Y-106180788D01*
X164508348Y-106173303D01*
X164514331Y-106166007D01*
X164520531Y-106158902D01*
X164526949Y-106151986D01*
X164533742Y-106145052D01*
X164540738Y-106138362D01*
X164547937Y-106131914D01*
X164555340Y-106125710D01*
X164562946Y-106119749D01*
X164570756Y-106114032D01*
X164578769Y-106108558D01*
X164586986Y-106103327D01*
X164595406Y-106098340D01*
X164604030Y-106093595D01*
X164612856Y-106089094D01*
X164621887Y-106084837D01*
X164631121Y-106080822D01*
X164640558Y-106077051D01*
X164650199Y-106073523D01*
X164660043Y-106070239D01*
X164670090Y-106067198D01*
X164680341Y-106064400D01*
X164690795Y-106061845D01*
X164701453Y-106059534D01*
X164712315Y-106057466D01*
X164723379Y-106055641D01*
X164734647Y-106054060D01*
X164746119Y-106052722D01*
X164757794Y-106051627D01*
X164769672Y-106050775D01*
X164781754Y-106050167D01*
X164794039Y-106049802D01*
X164806528Y-106049680D01*
X165066696Y-106049680D01*
X165076398Y-106049852D01*
X165086099Y-106050366D01*
X165095801Y-106051224D01*
X165105502Y-106052424D01*
X165115203Y-106053968D01*
X165124905Y-106055854D01*
X165133311Y-106057708D01*
X165142401Y-106060246D01*
X165152174Y-106063468D01*
X165162631Y-106067374D01*
X165173772Y-106071963D01*
X165185597Y-106077237D01*
X165198105Y-106083194D01*
X165207960Y-106088094D01*
X165217532Y-106093386D01*
X165226821Y-106099069D01*
X165235827Y-106105145D01*
X165244549Y-106111613D01*
X165252987Y-106118472D01*
X165261143Y-106125724D01*
X165269015Y-106133367D01*
X165276603Y-106141403D01*
X165282127Y-106147834D01*
X165287529Y-106154779D01*
X165292808Y-106162239D01*
X165297965Y-106170213D01*
X165302999Y-106178702D01*
X165307911Y-106187705D01*
X165312701Y-106197222D01*
X165317368Y-106207255D01*
X165321912Y-106217801D01*
X165326335Y-106228862D01*
X165330634Y-106240438D01*
X165334812Y-106252528D01*
X165337695Y-106261878D01*
X165340391Y-106271407D01*
X165342902Y-106281115D01*
X165345227Y-106291003D01*
X165347366Y-106301069D01*
X165349319Y-106311315D01*
X165351086Y-106321740D01*
X165352666Y-106332344D01*
X165354061Y-106343127D01*
X165355270Y-106354089D01*
X165356293Y-106365231D01*
X165357130Y-106376551D01*
X165357781Y-106388051D01*
X165358246Y-106399730D01*
X165358525Y-106411588D01*
X165358618Y-106423625D01*
X165358521Y-106435986D01*
X165358232Y-106448154D01*
X165357750Y-106460129D01*
X165357075Y-106471911D01*
X165356207Y-106483501D01*
X165355147Y-106494897D01*
X165353893Y-106506101D01*
X165352447Y-106517111D01*
X165350807Y-106527929D01*
X165348975Y-106538553D01*
X165346950Y-106548985D01*
X165344733Y-106559224D01*
X165342322Y-106569270D01*
X165339718Y-106579123D01*
X165336922Y-106588783D01*
X165333933Y-106598250D01*
X165329613Y-106610487D01*
X165325183Y-106622209D01*
X165320644Y-106633417D01*
X165315994Y-106644111D01*
X165311234Y-106654290D01*
X165306364Y-106663955D01*
X165301384Y-106673105D01*
X165296294Y-106681741D01*
X165291094Y-106689862D01*
X165285784Y-106697469D01*
X165280363Y-106704561D01*
X165274833Y-106711139D01*
X165268007Y-106718574D01*
X165260934Y-106725709D01*
X165253614Y-106732544D01*
X165246047Y-106739079D01*
X165238233Y-106745314D01*
X165230172Y-106751250D01*
X165221863Y-106756885D01*
X165213308Y-106762221D01*
X165204505Y-106767257D01*
X165195456Y-106771993D01*
X165184240Y-106777243D01*
X165173521Y-106781970D01*
X165163297Y-106786173D01*
X165153570Y-106789852D01*
X165144338Y-106793008D01*
X165135602Y-106795640D01*
X165127362Y-106797749D01*
X165119619Y-106799333D01*
X165109645Y-106800950D01*
X165099721Y-106802273D01*
X165089846Y-106803302D01*
X165080021Y-106804037D01*
X165070245Y-106804479D01*
X165060519Y-106804626D01*
X165060507Y-106804625D01*
X165060507Y-106804625D01*
G37*
G36*
X165238661Y-105753347D02*
X165231720Y-105759507D01*
X165224607Y-105765489D01*
X165217321Y-105771291D01*
X165209862Y-105776916D01*
X165202231Y-105782361D01*
X165194426Y-105787629D01*
X165186449Y-105792717D01*
X165178299Y-105797627D01*
X165169977Y-105802359D01*
X165161481Y-105806912D01*
X165152813Y-105811286D01*
X165143972Y-105815482D01*
X165134958Y-105819500D01*
X165125771Y-105823338D01*
X165116412Y-105826999D01*
X165106880Y-105830480D01*
X165097175Y-105833783D01*
X165087297Y-105836908D01*
X165077246Y-105839854D01*
X165067023Y-105842622D01*
X165056627Y-105845211D01*
X165046058Y-105847621D01*
X165035316Y-105849853D01*
X165024401Y-105851906D01*
X165013314Y-105853781D01*
X165002054Y-105855477D01*
X164990621Y-105856995D01*
X164979015Y-105858334D01*
X164967237Y-105859494D01*
X164955286Y-105860476D01*
X164943162Y-105861280D01*
X164930865Y-105861905D01*
X164918395Y-105862351D01*
X164905753Y-105862619D01*
X164892938Y-105862708D01*
X164880123Y-105862619D01*
X164867483Y-105862351D01*
X164855017Y-105861905D01*
X164842725Y-105861280D01*
X164830608Y-105860476D01*
X164818665Y-105859494D01*
X164806896Y-105858334D01*
X164795301Y-105856995D01*
X164783880Y-105855477D01*
X164772634Y-105853781D01*
X164761562Y-105851906D01*
X164750664Y-105849853D01*
X164739941Y-105847621D01*
X164729391Y-105845211D01*
X164719016Y-105842622D01*
X164708815Y-105839854D01*
X164698789Y-105836908D01*
X164688936Y-105833783D01*
X164679258Y-105830480D01*
X164669754Y-105826999D01*
X164660425Y-105823338D01*
X164651269Y-105819500D01*
X164642288Y-105815482D01*
X164633481Y-105811286D01*
X164624849Y-105806912D01*
X164616390Y-105802359D01*
X164608106Y-105797627D01*
X164599996Y-105792717D01*
X164592061Y-105787629D01*
X164584299Y-105782361D01*
X164576712Y-105776916D01*
X164569299Y-105771291D01*
X164562060Y-105765489D01*
X164554996Y-105759507D01*
X164548106Y-105753347D01*
X164540999Y-105746631D01*
X164534111Y-105739738D01*
X164527441Y-105732669D01*
X164520991Y-105725423D01*
X164514759Y-105718001D01*
X164508745Y-105710402D01*
X164502950Y-105702626D01*
X164497374Y-105694674D01*
X164492017Y-105686545D01*
X164486878Y-105678240D01*
X164481958Y-105669758D01*
X164477256Y-105661100D01*
X164472774Y-105652265D01*
X164468510Y-105643254D01*
X164464464Y-105634066D01*
X164460638Y-105624702D01*
X164457029Y-105615161D01*
X164453640Y-105605443D01*
X164450469Y-105595549D01*
X164447517Y-105585478D01*
X164444784Y-105575231D01*
X164442269Y-105564807D01*
X164439973Y-105554207D01*
X164437896Y-105543430D01*
X164436037Y-105532476D01*
X164434397Y-105521346D01*
X164432976Y-105510040D01*
X164431773Y-105498557D01*
X164430789Y-105486897D01*
X164430024Y-105475061D01*
X164429477Y-105463048D01*
X164429149Y-105450859D01*
X164429040Y-105438493D01*
X164429120Y-105427502D01*
X164429361Y-105416542D01*
X164429764Y-105405613D01*
X164430327Y-105394715D01*
X164431051Y-105383848D01*
X164431935Y-105373012D01*
X164432981Y-105362207D01*
X164434188Y-105351433D01*
X164435555Y-105340690D01*
X164437083Y-105329979D01*
X164438772Y-105319298D01*
X164440623Y-105308648D01*
X164442633Y-105298030D01*
X164444805Y-105287442D01*
X164447138Y-105276885D01*
X164449632Y-105266360D01*
X164452286Y-105255866D01*
X164455101Y-105245402D01*
X164458077Y-105234970D01*
X164461214Y-105224569D01*
X164464512Y-105214198D01*
X164467971Y-105203859D01*
X164471591Y-105193551D01*
X164475371Y-105183274D01*
X164479313Y-105173028D01*
X164636298Y-105173028D01*
X164631476Y-105183248D01*
X164626860Y-105193478D01*
X164622449Y-105203717D01*
X164618243Y-105213965D01*
X164614242Y-105224222D01*
X164610447Y-105234488D01*
X164606856Y-105244764D01*
X164603471Y-105255049D01*
X164600291Y-105265342D01*
X164597316Y-105275646D01*
X164594546Y-105285958D01*
X164591982Y-105296279D01*
X164589623Y-105306610D01*
X164587468Y-105316950D01*
X164585519Y-105327299D01*
X164583775Y-105337657D01*
X164582237Y-105348025D01*
X164580903Y-105358401D01*
X164579775Y-105368787D01*
X164578851Y-105379182D01*
X164578133Y-105389586D01*
X164577620Y-105400000D01*
X164577313Y-105410422D01*
X164577210Y-105420854D01*
X164577210Y-105424382D01*
X164577371Y-105436683D01*
X164577854Y-105448715D01*
X164578658Y-105460478D01*
X164579785Y-105471972D01*
X164581233Y-105483197D01*
X164583004Y-105494153D01*
X164585096Y-105504840D01*
X164587510Y-105515258D01*
X164590246Y-105525407D01*
X164593303Y-105535287D01*
X164596683Y-105544898D01*
X164600385Y-105554240D01*
X164604408Y-105563313D01*
X164608753Y-105572117D01*
X164613420Y-105580652D01*
X164618409Y-105588918D01*
X164623720Y-105596915D01*
X164629353Y-105604643D01*
X164635307Y-105612102D01*
X164641584Y-105619292D01*
X164646653Y-105624615D01*
X164652090Y-105629729D01*
X164657895Y-105634635D01*
X164664067Y-105639331D01*
X164670608Y-105643819D01*
X164677516Y-105648099D01*
X164684793Y-105652169D01*
X164692437Y-105656031D01*
X164700449Y-105659684D01*
X164708829Y-105663128D01*
X164717576Y-105666364D01*
X164726692Y-105669391D01*
X164736176Y-105672209D01*
X164746027Y-105674818D01*
X164756246Y-105677218D01*
X164766833Y-105679410D01*
X164777788Y-105681393D01*
X164789111Y-105683168D01*
X164800802Y-105684733D01*
X164812861Y-105686090D01*
X164825287Y-105687238D01*
X164838082Y-105688178D01*
X164851244Y-105688908D01*
X164864774Y-105689430D01*
X164878672Y-105689743D01*
X164892938Y-105689848D01*
X164906078Y-105689757D01*
X164918920Y-105689487D01*
X164931464Y-105689036D01*
X164943710Y-105688405D01*
X164955658Y-105687594D01*
X164967308Y-105686602D01*
X164978660Y-105685430D01*
X164989714Y-105684078D01*
X165000470Y-105682545D01*
X165010928Y-105680832D01*
X165021088Y-105678939D01*
X165030950Y-105676865D01*
X165040515Y-105674611D01*
X165049781Y-105672177D01*
X165058749Y-105669563D01*
X165070338Y-105665554D01*
X165081374Y-105661224D01*
X165091855Y-105656574D01*
X165101783Y-105651603D01*
X165111157Y-105646312D01*
X165119977Y-105640699D01*
X165128242Y-105634766D01*
X165135954Y-105628512D01*
X165143113Y-105621938D01*
X165149717Y-105615043D01*
X165155767Y-105607827D01*
X165162560Y-105598615D01*
X165168830Y-105589404D01*
X165174577Y-105580192D01*
X165179802Y-105570981D01*
X165184505Y-105561770D01*
X165188686Y-105552558D01*
X165192344Y-105543347D01*
X165195480Y-105534135D01*
X165198093Y-105524924D01*
X165200106Y-105516298D01*
X165201908Y-105507356D01*
X165203497Y-105498095D01*
X165204875Y-105488517D01*
X165206040Y-105478622D01*
X165206994Y-105468409D01*
X165207736Y-105457879D01*
X165208266Y-105447031D01*
X165208583Y-105435865D01*
X165208689Y-105424382D01*
X165208590Y-105413592D01*
X165208291Y-105402830D01*
X165207794Y-105392095D01*
X165207097Y-105381387D01*
X165206201Y-105370708D01*
X165205106Y-105360055D01*
X165203812Y-105349431D01*
X165202319Y-105338834D01*
X165200627Y-105328264D01*
X165198736Y-105317722D01*
X165196646Y-105307208D01*
X165194357Y-105296721D01*
X165191869Y-105286261D01*
X165189181Y-105275830D01*
X165186295Y-105265426D01*
X165183210Y-105255049D01*
X165179925Y-105244700D01*
X165176442Y-105234378D01*
X165172759Y-105224084D01*
X165168877Y-105213818D01*
X165164796Y-105203579D01*
X165160517Y-105193368D01*
X165156038Y-105183184D01*
X165151360Y-105173028D01*
X165308345Y-105173028D01*
X165312286Y-105183274D01*
X165316067Y-105193551D01*
X165319686Y-105203859D01*
X165323145Y-105214199D01*
X165326443Y-105224569D01*
X165329580Y-105234970D01*
X165332556Y-105245403D01*
X165335372Y-105255866D01*
X165338026Y-105266360D01*
X165340520Y-105276886D01*
X165342852Y-105287442D01*
X165345024Y-105298030D01*
X165347035Y-105308649D01*
X165348885Y-105319298D01*
X165350574Y-105329979D01*
X165352102Y-105340691D01*
X165353470Y-105351433D01*
X165354676Y-105362207D01*
X165355722Y-105373012D01*
X165356607Y-105383848D01*
X165357331Y-105394715D01*
X165357894Y-105405613D01*
X165358296Y-105416542D01*
X165358537Y-105427502D01*
X165358618Y-105438493D01*
X165358508Y-105450859D01*
X165358177Y-105463049D01*
X165357627Y-105475061D01*
X165356856Y-105486897D01*
X165355864Y-105498557D01*
X165354653Y-105510040D01*
X165353221Y-105521347D01*
X165351569Y-105532477D01*
X165349696Y-105543430D01*
X165347604Y-105554207D01*
X165345291Y-105564807D01*
X165342757Y-105575231D01*
X165340004Y-105585478D01*
X165337030Y-105595549D01*
X165333836Y-105605443D01*
X165330421Y-105615161D01*
X165326787Y-105624702D01*
X165322932Y-105634066D01*
X165318856Y-105643254D01*
X165314561Y-105652266D01*
X165310045Y-105661101D01*
X165305309Y-105669759D01*
X165300352Y-105678241D01*
X165295176Y-105686546D01*
X165289779Y-105694674D01*
X165284162Y-105702626D01*
X165278324Y-105710402D01*
X165272266Y-105718001D01*
X165265988Y-105725423D01*
X165259490Y-105732669D01*
X165252771Y-105739739D01*
X165245832Y-105746631D01*
X165238673Y-105753348D01*
X165238661Y-105753347D01*
X165238661Y-105753347D01*
G37*
G36*
X165344493Y-104976354D02*
X164100078Y-104976354D01*
X164100078Y-104811430D01*
X164820629Y-104811430D01*
X164443152Y-104421611D01*
X164443152Y-104197597D01*
X164818858Y-104589180D01*
X165344493Y-104145562D01*
X165344493Y-104365167D01*
X164925570Y-104699423D01*
X165034052Y-104811430D01*
X165344493Y-104811430D01*
X165344493Y-104976354D01*
X165344493Y-104976354D01*
G37*
D12*
X132846667Y-95138571D02*
X132513333Y-95138571D01*
X132513333Y-95662381D02*
X132513333Y-94662381D01*
X132989524Y-94662381D01*
X133322857Y-94757619D02*
X133370476Y-94710000D01*
X133465714Y-94662381D01*
X133703810Y-94662381D01*
X133799048Y-94710000D01*
X133846667Y-94757619D01*
X133894286Y-94852857D01*
X133894286Y-94948095D01*
X133846667Y-95090952D01*
X133275238Y-95662381D01*
X133894286Y-95662381D01*
X158756667Y-121458571D02*
X158423333Y-121458571D01*
X158423333Y-121982381D02*
X158423333Y-120982381D01*
X158899524Y-120982381D01*
X159185238Y-120982381D02*
X159804286Y-120982381D01*
X159470952Y-121363333D01*
X159613810Y-121363333D01*
X159709048Y-121410952D01*
X159756667Y-121458571D01*
X159804286Y-121553810D01*
X159804286Y-121791905D01*
X159756667Y-121887143D01*
X159709048Y-121934762D01*
X159613810Y-121982381D01*
X159328095Y-121982381D01*
X159232857Y-121934762D01*
X159185238Y-121887143D01*
X154907143Y-108016666D02*
X154954762Y-108064285D01*
X155002381Y-108207142D01*
X155002381Y-108302380D01*
X154954762Y-108445238D01*
X154859524Y-108540476D01*
X154764286Y-108588095D01*
X154573810Y-108635714D01*
X154430952Y-108635714D01*
X154240476Y-108588095D01*
X154145238Y-108540476D01*
X154050000Y-108445238D01*
X154002381Y-108302380D01*
X154002381Y-108207142D01*
X154050000Y-108064285D01*
X154097619Y-108016666D01*
X155002381Y-107064285D02*
X155002381Y-107635714D01*
X155002381Y-107350000D02*
X154002381Y-107350000D01*
X154145238Y-107445238D01*
X154240476Y-107540476D01*
X154288095Y-107635714D01*
X159702381Y-124988095D02*
X158702381Y-124988095D01*
X158702381Y-124750000D01*
X158750000Y-124607142D01*
X158845238Y-124511904D01*
X158940476Y-124464285D01*
X159130952Y-124416666D01*
X159273810Y-124416666D01*
X159464286Y-124464285D01*
X159559524Y-124511904D01*
X159654762Y-124607142D01*
X159702381Y-124750000D01*
X159702381Y-124988095D01*
X159702381Y-123464285D02*
X159702381Y-124035714D01*
X159702381Y-123750000D02*
X158702381Y-123750000D01*
X158845238Y-123845238D01*
X158940476Y-123940476D01*
X158988095Y-124035714D01*
X154602381Y-123816666D02*
X154126190Y-124150000D01*
X154602381Y-124388095D02*
X153602381Y-124388095D01*
X153602381Y-124007142D01*
X153650000Y-123911904D01*
X153697619Y-123864285D01*
X153792857Y-123816666D01*
X153935714Y-123816666D01*
X154030952Y-123864285D01*
X154078571Y-123911904D01*
X154126190Y-124007142D01*
X154126190Y-124388095D01*
X154602381Y-122864285D02*
X154602381Y-123435714D01*
X154602381Y-123150000D02*
X153602381Y-123150000D01*
X153745238Y-123245238D01*
X153840476Y-123340476D01*
X153888095Y-123435714D01*
X150894762Y-116187619D02*
X150799524Y-116140000D01*
X150704286Y-116044762D01*
X150561429Y-115901905D01*
X150466190Y-115854286D01*
X150370952Y-115854286D01*
X150418571Y-116092381D02*
X150323333Y-116044762D01*
X150228095Y-115949524D01*
X150180476Y-115759048D01*
X150180476Y-115425714D01*
X150228095Y-115235238D01*
X150323333Y-115140000D01*
X150418571Y-115092381D01*
X150609048Y-115092381D01*
X150704286Y-115140000D01*
X150799524Y-115235238D01*
X150847143Y-115425714D01*
X150847143Y-115759048D01*
X150799524Y-115949524D01*
X150704286Y-116044762D01*
X150609048Y-116092381D01*
X150418571Y-116092381D01*
X151799524Y-116092381D02*
X151228095Y-116092381D01*
X151513809Y-116092381D02*
X151513809Y-115092381D01*
X151418571Y-115235238D01*
X151323333Y-115330476D01*
X151228095Y-115378095D01*
X143713334Y-117582381D02*
X143380000Y-117106190D01*
X143141905Y-117582381D02*
X143141905Y-116582381D01*
X143522858Y-116582381D01*
X143618096Y-116630000D01*
X143665715Y-116677619D01*
X143713334Y-116772857D01*
X143713334Y-116915714D01*
X143665715Y-117010952D01*
X143618096Y-117058571D01*
X143522858Y-117106190D01*
X143141905Y-117106190D01*
X144094286Y-116677619D02*
X144141905Y-116630000D01*
X144237143Y-116582381D01*
X144475239Y-116582381D01*
X144570477Y-116630000D01*
X144618096Y-116677619D01*
X144665715Y-116772857D01*
X144665715Y-116868095D01*
X144618096Y-117010952D01*
X144046667Y-117582381D01*
X144665715Y-117582381D01*
X155452381Y-117966666D02*
X154976190Y-118300000D01*
X155452381Y-118538095D02*
X154452381Y-118538095D01*
X154452381Y-118157142D01*
X154500000Y-118061904D01*
X154547619Y-118014285D01*
X154642857Y-117966666D01*
X154785714Y-117966666D01*
X154880952Y-118014285D01*
X154928571Y-118061904D01*
X154976190Y-118157142D01*
X154976190Y-118538095D01*
X154452381Y-117633333D02*
X154452381Y-117014285D01*
X154833333Y-117347619D01*
X154833333Y-117204761D01*
X154880952Y-117109523D01*
X154928571Y-117061904D01*
X155023810Y-117014285D01*
X155261905Y-117014285D01*
X155357143Y-117061904D01*
X155404762Y-117109523D01*
X155452381Y-117204761D01*
X155452381Y-117490476D01*
X155404762Y-117585714D01*
X155357143Y-117633333D01*
X151293334Y-102592381D02*
X150960000Y-102116190D01*
X150721905Y-102592381D02*
X150721905Y-101592381D01*
X151102858Y-101592381D01*
X151198096Y-101640000D01*
X151245715Y-101687619D01*
X151293334Y-101782857D01*
X151293334Y-101925714D01*
X151245715Y-102020952D01*
X151198096Y-102068571D01*
X151102858Y-102116190D01*
X150721905Y-102116190D01*
X152150477Y-101925714D02*
X152150477Y-102592381D01*
X151912381Y-101544762D02*
X151674286Y-102259048D01*
X152293334Y-102259048D01*
X147091905Y-119342381D02*
X147091905Y-118342381D01*
X147330000Y-118342381D01*
X147472858Y-118390000D01*
X147568096Y-118485238D01*
X147615715Y-118580476D01*
X147663334Y-118770952D01*
X147663334Y-118913810D01*
X147615715Y-119104286D01*
X147568096Y-119199524D01*
X147472858Y-119294762D01*
X147330000Y-119342381D01*
X147091905Y-119342381D01*
X148044286Y-118437619D02*
X148091905Y-118390000D01*
X148187143Y-118342381D01*
X148425239Y-118342381D01*
X148520477Y-118390000D01*
X148568096Y-118437619D01*
X148615715Y-118532857D01*
X148615715Y-118628095D01*
X148568096Y-118770952D01*
X147996667Y-119342381D01*
X148615715Y-119342381D01*
X135146667Y-124298571D02*
X134813333Y-124298571D01*
X134813333Y-124822381D02*
X134813333Y-123822381D01*
X135289524Y-123822381D01*
X136194286Y-124822381D02*
X135622857Y-124822381D01*
X135908571Y-124822381D02*
X135908571Y-123822381D01*
X135813333Y-123965238D01*
X135718095Y-124060476D01*
X135622857Y-124108095D01*
M02*
