G04 #@! TF.FileFunction,Legend,Top*
%FSLAX46Y46*%
G04 Gerber Fmt 4.6, Leading zero omitted, Abs format (unit mm)*
G04 Created by KiCad (PCBNEW 4.0.1-stable) date Wednesday, March 23, 2016 'PMt' 11:14:25 PM*
%MOMM*%
G01*
G04 APERTURE LIST*
%ADD10C,0.100000*%
%ADD11C,0.200000*%
%ADD12C,0.150000*%
%ADD13C,0.300000*%
%ADD14C,0.175000*%
%ADD15C,0.010000*%
G04 APERTURE END LIST*
D10*
D11*
X139502858Y-118517857D02*
X138931429Y-118517857D01*
X138874286Y-119089286D01*
X138931429Y-119032143D01*
X139045715Y-118975000D01*
X139331429Y-118975000D01*
X139445715Y-119032143D01*
X139502858Y-119089286D01*
X139560001Y-119203571D01*
X139560001Y-119489286D01*
X139502858Y-119603571D01*
X139445715Y-119660714D01*
X139331429Y-119717857D01*
X139045715Y-119717857D01*
X138931429Y-119660714D01*
X138874286Y-119603571D01*
X139902858Y-118517857D02*
X140302858Y-119717857D01*
X140702858Y-118517857D01*
X142588572Y-119717857D02*
X142017143Y-119717857D01*
X142017143Y-118517857D01*
X143160001Y-119717857D02*
X143045715Y-119660714D01*
X142988572Y-119603571D01*
X142931429Y-119489286D01*
X142931429Y-119146429D01*
X142988572Y-119032143D01*
X143045715Y-118975000D01*
X143160001Y-118917857D01*
X143331429Y-118917857D01*
X143445715Y-118975000D01*
X143502858Y-119032143D01*
X143560001Y-119146429D01*
X143560001Y-119489286D01*
X143502858Y-119603571D01*
X143445715Y-119660714D01*
X143331429Y-119717857D01*
X143160001Y-119717857D01*
X144588572Y-118917857D02*
X144588572Y-119889286D01*
X144531429Y-120003571D01*
X144474286Y-120060714D01*
X144360001Y-120117857D01*
X144188572Y-120117857D01*
X144074286Y-120060714D01*
X144588572Y-119660714D02*
X144474286Y-119717857D01*
X144245715Y-119717857D01*
X144131429Y-119660714D01*
X144074286Y-119603571D01*
X144017143Y-119489286D01*
X144017143Y-119146429D01*
X144074286Y-119032143D01*
X144131429Y-118975000D01*
X144245715Y-118917857D01*
X144474286Y-118917857D01*
X144588572Y-118975000D01*
X145160000Y-119717857D02*
X145160000Y-118917857D01*
X145160000Y-118517857D02*
X145102857Y-118575000D01*
X145160000Y-118632143D01*
X145217143Y-118575000D01*
X145160000Y-118517857D01*
X145160000Y-118632143D01*
X146245715Y-119660714D02*
X146131429Y-119717857D01*
X145902858Y-119717857D01*
X145788572Y-119660714D01*
X145731429Y-119603571D01*
X145674286Y-119489286D01*
X145674286Y-119146429D01*
X145731429Y-119032143D01*
X145788572Y-118975000D01*
X145902858Y-118917857D01*
X146131429Y-118917857D01*
X146245715Y-118975000D01*
D12*
X138527381Y-122867857D02*
X137527381Y-122867857D01*
X137527381Y-122629762D01*
X137575000Y-122486904D01*
X137670238Y-122391666D01*
X137765476Y-122344047D01*
X137955952Y-122296428D01*
X138098810Y-122296428D01*
X138289286Y-122344047D01*
X138384524Y-122391666D01*
X138479762Y-122486904D01*
X138527381Y-122629762D01*
X138527381Y-122867857D01*
X137527381Y-122010714D02*
X137527381Y-121439285D01*
X138527381Y-121725000D02*
X137527381Y-121725000D01*
X138527381Y-120534523D02*
X138051190Y-120867857D01*
X138527381Y-121105952D02*
X137527381Y-121105952D01*
X137527381Y-120724999D01*
X137575000Y-120629761D01*
X137622619Y-120582142D01*
X137717857Y-120534523D01*
X137860714Y-120534523D01*
X137955952Y-120582142D01*
X138003571Y-120629761D01*
X138051190Y-120724999D01*
X138051190Y-121105952D01*
D13*
X148457143Y-121350000D02*
X148314286Y-121278571D01*
X148100000Y-121278571D01*
X147885715Y-121350000D01*
X147742857Y-121492857D01*
X147671429Y-121635714D01*
X147600000Y-121921429D01*
X147600000Y-122135714D01*
X147671429Y-122421429D01*
X147742857Y-122564286D01*
X147885715Y-122707143D01*
X148100000Y-122778571D01*
X148242857Y-122778571D01*
X148457143Y-122707143D01*
X148528572Y-122635714D01*
X148528572Y-122135714D01*
X148242857Y-122135714D01*
X149171429Y-122778571D02*
X149171429Y-121278571D01*
X150028572Y-122778571D01*
X150028572Y-121278571D01*
X150742858Y-122778571D02*
X150742858Y-121278571D01*
X151100001Y-121278571D01*
X151314286Y-121350000D01*
X151457144Y-121492857D01*
X151528572Y-121635714D01*
X151600001Y-121921429D01*
X151600001Y-122135714D01*
X151528572Y-122421429D01*
X151457144Y-122564286D01*
X151314286Y-122707143D01*
X151100001Y-122778571D01*
X150742858Y-122778571D01*
D12*
X145821429Y-122745714D02*
X145821429Y-121983809D01*
X146202381Y-122364761D02*
X145440476Y-122364761D01*
X145202381Y-121031428D02*
X145202381Y-121507619D01*
X145678571Y-121555238D01*
X145630952Y-121507619D01*
X145583333Y-121412381D01*
X145583333Y-121174285D01*
X145630952Y-121079047D01*
X145678571Y-121031428D01*
X145773810Y-120983809D01*
X146011905Y-120983809D01*
X146107143Y-121031428D01*
X146154762Y-121079047D01*
X146202381Y-121174285D01*
X146202381Y-121412381D01*
X146154762Y-121507619D01*
X146107143Y-121555238D01*
X145202381Y-120698095D02*
X146202381Y-120364762D01*
X145202381Y-120031428D01*
D13*
X143828571Y-121949999D02*
X143114286Y-122449999D01*
X143828571Y-122807142D02*
X142328571Y-122807142D01*
X142328571Y-122235714D01*
X142400000Y-122092856D01*
X142471429Y-122021428D01*
X142614286Y-121949999D01*
X142828571Y-121949999D01*
X142971429Y-122021428D01*
X143042857Y-122092856D01*
X143114286Y-122235714D01*
X143114286Y-122807142D01*
X142328571Y-121449999D02*
X143828571Y-120449999D01*
X142328571Y-120449999D02*
X143828571Y-121449999D01*
X139828571Y-122717857D02*
X139828571Y-121860714D01*
X141328571Y-122289285D02*
X139828571Y-122289285D01*
X139828571Y-121503571D02*
X141328571Y-120503571D01*
X139828571Y-120503571D02*
X141328571Y-121503571D01*
D14*
X151831428Y-90864286D02*
X151945714Y-90807143D01*
X152174285Y-90807143D01*
X152288571Y-90864286D01*
X152345714Y-90921429D01*
X152402857Y-91035714D01*
X152402857Y-91378571D01*
X152345714Y-91492857D01*
X152288571Y-91550000D01*
X152174285Y-91607143D01*
X151945714Y-91607143D01*
X151831428Y-91550000D01*
X151317143Y-90807143D02*
X151317143Y-92007143D01*
X151202857Y-91264286D02*
X150860000Y-90807143D01*
X150860000Y-91607143D02*
X151317143Y-91150000D01*
X149831428Y-90807143D02*
X149831428Y-92007143D01*
X149831428Y-90864286D02*
X149945714Y-90807143D01*
X150174285Y-90807143D01*
X150288571Y-90864286D01*
X150345714Y-90921429D01*
X150402857Y-91035714D01*
X150402857Y-91378571D01*
X150345714Y-91492857D01*
X150288571Y-91550000D01*
X150174285Y-91607143D01*
X149945714Y-91607143D01*
X149831428Y-91550000D01*
X149260000Y-90921429D02*
X149202857Y-90864286D01*
X149260000Y-90807143D01*
X149317143Y-90864286D01*
X149260000Y-90921429D01*
X149260000Y-90807143D01*
X148859999Y-91607143D02*
X148402856Y-91607143D01*
X148688571Y-92007143D02*
X148688571Y-90978571D01*
X148631428Y-90864286D01*
X148517142Y-90807143D01*
X148402856Y-90807143D01*
X147545714Y-90864286D02*
X147660000Y-90807143D01*
X147888571Y-90807143D01*
X148002857Y-90864286D01*
X148060000Y-90978571D01*
X148060000Y-91435714D01*
X148002857Y-91550000D01*
X147888571Y-91607143D01*
X147660000Y-91607143D01*
X147545714Y-91550000D01*
X147488571Y-91435714D01*
X147488571Y-91321429D01*
X148060000Y-91207143D01*
X146460000Y-90864286D02*
X146574286Y-90807143D01*
X146802857Y-90807143D01*
X146917143Y-90864286D01*
X146974286Y-90921429D01*
X147031429Y-91035714D01*
X147031429Y-91378571D01*
X146974286Y-91492857D01*
X146917143Y-91550000D01*
X146802857Y-91607143D01*
X146574286Y-91607143D01*
X146460000Y-91550000D01*
X145945715Y-90807143D02*
X145945715Y-92007143D01*
X145431429Y-90807143D02*
X145431429Y-91435714D01*
X145488572Y-91550000D01*
X145602858Y-91607143D01*
X145774286Y-91607143D01*
X145888572Y-91550000D01*
X145945715Y-91492857D01*
X144002858Y-92064286D02*
X145031429Y-90521429D01*
X143088572Y-91607143D02*
X143088572Y-90807143D01*
X143602858Y-91607143D02*
X143602858Y-90978571D01*
X143545715Y-90864286D01*
X143431429Y-90807143D01*
X143260001Y-90807143D01*
X143145715Y-90864286D01*
X143088572Y-90921429D01*
X142288572Y-92007143D02*
X142060001Y-92007143D01*
X141945715Y-91950000D01*
X141831429Y-91835714D01*
X141774287Y-91607143D01*
X141774287Y-91207143D01*
X141831429Y-90978571D01*
X141945715Y-90864286D01*
X142060001Y-90807143D01*
X142288572Y-90807143D01*
X142402858Y-90864286D01*
X142517144Y-90978571D01*
X142574287Y-91207143D01*
X142574287Y-91607143D01*
X142517144Y-91835714D01*
X142402858Y-91950000D01*
X142288572Y-92007143D01*
X141317144Y-90864286D02*
X141145715Y-90807143D01*
X140860001Y-90807143D01*
X140745715Y-90864286D01*
X140688572Y-90921429D01*
X140631429Y-91035714D01*
X140631429Y-91150000D01*
X140688572Y-91264286D01*
X140745715Y-91321429D01*
X140860001Y-91378571D01*
X141088572Y-91435714D01*
X141202858Y-91492857D01*
X141260001Y-91550000D01*
X141317144Y-91664286D01*
X141317144Y-91778571D01*
X141260001Y-91892857D01*
X141202858Y-91950000D01*
X141088572Y-92007143D01*
X140802858Y-92007143D01*
X140631429Y-91950000D01*
X140117144Y-90807143D02*
X140117144Y-92007143D01*
X139831429Y-92007143D01*
X139660001Y-91950000D01*
X139545715Y-91835714D01*
X139488572Y-91721429D01*
X139431429Y-91492857D01*
X139431429Y-91321429D01*
X139488572Y-91092857D01*
X139545715Y-90978571D01*
X139660001Y-90864286D01*
X139831429Y-90807143D01*
X140117144Y-90807143D01*
X138060001Y-92064286D02*
X139088572Y-90521429D01*
X137774286Y-91607143D02*
X137488572Y-90807143D01*
X137202858Y-91607143D01*
X136860000Y-92007143D02*
X136117143Y-92007143D01*
X136517143Y-91550000D01*
X136345715Y-91550000D01*
X136231429Y-91492857D01*
X136174286Y-91435714D01*
X136117143Y-91321429D01*
X136117143Y-91035714D01*
X136174286Y-90921429D01*
X136231429Y-90864286D01*
X136345715Y-90807143D01*
X136688572Y-90807143D01*
X136802858Y-90864286D01*
X136860000Y-90921429D01*
D12*
X158367144Y-117945714D02*
X158367144Y-118612381D01*
X158129048Y-117564762D02*
X157890953Y-118279048D01*
X158510001Y-118279048D01*
X158890953Y-118612381D02*
X158890953Y-117945714D01*
X158890953Y-118040952D02*
X158938572Y-117993333D01*
X159033810Y-117945714D01*
X159176668Y-117945714D01*
X159271906Y-117993333D01*
X159319525Y-118088571D01*
X159319525Y-118612381D01*
X159319525Y-118088571D02*
X159367144Y-117993333D01*
X159462382Y-117945714D01*
X159605239Y-117945714D01*
X159700477Y-117993333D01*
X159748096Y-118088571D01*
X159748096Y-118612381D01*
X160224286Y-118612381D02*
X160224286Y-117945714D01*
X160224286Y-118040952D02*
X160271905Y-117993333D01*
X160367143Y-117945714D01*
X160510001Y-117945714D01*
X160605239Y-117993333D01*
X160652858Y-118088571D01*
X160652858Y-118612381D01*
X160652858Y-118088571D02*
X160700477Y-117993333D01*
X160795715Y-117945714D01*
X160938572Y-117945714D01*
X161033810Y-117993333D01*
X161081429Y-118088571D01*
X161081429Y-118612381D01*
D13*
X137142857Y-107765714D02*
X137071428Y-107837143D01*
X136857142Y-107908571D01*
X136714285Y-107908571D01*
X136500000Y-107837143D01*
X136357142Y-107694286D01*
X136285714Y-107551429D01*
X136214285Y-107265714D01*
X136214285Y-107051429D01*
X136285714Y-106765714D01*
X136357142Y-106622857D01*
X136500000Y-106480000D01*
X136714285Y-106408571D01*
X136857142Y-106408571D01*
X137071428Y-106480000D01*
X137142857Y-106551429D01*
X137785714Y-106408571D02*
X137785714Y-107622857D01*
X137857142Y-107765714D01*
X137928571Y-107837143D01*
X138071428Y-107908571D01*
X138357142Y-107908571D01*
X138500000Y-107837143D01*
X138571428Y-107765714D01*
X138642857Y-107622857D01*
X138642857Y-106408571D01*
X139142857Y-106408571D02*
X140000000Y-106408571D01*
X139571429Y-107908571D02*
X139571429Y-106408571D01*
X141928571Y-106408571D02*
X142214285Y-106408571D01*
X142357143Y-106480000D01*
X142500000Y-106622857D01*
X142571428Y-106908571D01*
X142571428Y-107408571D01*
X142500000Y-107694286D01*
X142357143Y-107837143D01*
X142214285Y-107908571D01*
X141928571Y-107908571D01*
X141785714Y-107837143D01*
X141642857Y-107694286D01*
X141571428Y-107408571D01*
X141571428Y-106908571D01*
X141642857Y-106622857D01*
X141785714Y-106480000D01*
X141928571Y-106408571D01*
X143214286Y-106408571D02*
X143214286Y-107622857D01*
X143285714Y-107765714D01*
X143357143Y-107837143D01*
X143500000Y-107908571D01*
X143785714Y-107908571D01*
X143928572Y-107837143D01*
X144000000Y-107765714D01*
X144071429Y-107622857D01*
X144071429Y-106408571D01*
X144571429Y-106408571D02*
X145428572Y-106408571D01*
X145000001Y-107908571D02*
X145000001Y-106408571D01*
D12*
X132147619Y-96080952D02*
X131147619Y-96414285D01*
X132147619Y-96747619D01*
X131147619Y-97223809D02*
X131195238Y-97128571D01*
X131242857Y-97080952D01*
X131338095Y-97033333D01*
X131623810Y-97033333D01*
X131719048Y-97080952D01*
X131766667Y-97128571D01*
X131814286Y-97223809D01*
X131814286Y-97366667D01*
X131766667Y-97461905D01*
X131719048Y-97509524D01*
X131623810Y-97557143D01*
X131338095Y-97557143D01*
X131242857Y-97509524D01*
X131195238Y-97461905D01*
X131147619Y-97366667D01*
X131147619Y-97223809D01*
X131814286Y-98414286D02*
X131147619Y-98414286D01*
X131814286Y-97985714D02*
X131290476Y-97985714D01*
X131195238Y-98033333D01*
X131147619Y-98128571D01*
X131147619Y-98271429D01*
X131195238Y-98366667D01*
X131242857Y-98414286D01*
X131814286Y-98747619D02*
X131814286Y-99128571D01*
X132147619Y-98890476D02*
X131290476Y-98890476D01*
X131195238Y-98938095D01*
X131147619Y-99033333D01*
X131147619Y-99128571D01*
X130814286Y-99700000D02*
X132242857Y-99700000D01*
X131528571Y-100414286D02*
X131528571Y-101176191D01*
X132117619Y-113990953D02*
X131117619Y-114324286D01*
X132117619Y-114657620D01*
X131117619Y-114990953D02*
X131784286Y-114990953D01*
X132117619Y-114990953D02*
X132070000Y-114943334D01*
X132022381Y-114990953D01*
X132070000Y-115038572D01*
X132117619Y-114990953D01*
X132022381Y-114990953D01*
X131784286Y-115467143D02*
X131117619Y-115467143D01*
X131689048Y-115467143D02*
X131736667Y-115514762D01*
X131784286Y-115610000D01*
X131784286Y-115752858D01*
X131736667Y-115848096D01*
X131641429Y-115895715D01*
X131117619Y-115895715D01*
X130784286Y-116610000D02*
X132212857Y-116610000D01*
X131498571Y-117324286D02*
X131498571Y-118086191D01*
X130784286Y-118800476D02*
X132212857Y-118800476D01*
X131498571Y-119514762D02*
X131498571Y-120276667D01*
X131117619Y-119895715D02*
X131879524Y-119895715D01*
X132117619Y-121229048D02*
X132117619Y-120752857D01*
X131641429Y-120705238D01*
X131689048Y-120752857D01*
X131736667Y-120848095D01*
X131736667Y-121086191D01*
X131689048Y-121181429D01*
X131641429Y-121229048D01*
X131546190Y-121276667D01*
X131308095Y-121276667D01*
X131212857Y-121229048D01*
X131165238Y-121181429D01*
X131117619Y-121086191D01*
X131117619Y-120848095D01*
X131165238Y-120752857D01*
X131212857Y-120705238D01*
X132117619Y-121562381D02*
X131117619Y-121895714D01*
X132117619Y-122229048D01*
X149301905Y-97772619D02*
X149301905Y-98772619D01*
X148920952Y-98772619D01*
X148825714Y-98725000D01*
X148778095Y-98677381D01*
X148730476Y-98582143D01*
X148730476Y-98439286D01*
X148778095Y-98344048D01*
X148825714Y-98296429D01*
X148920952Y-98248810D01*
X149301905Y-98248810D01*
X148159048Y-97772619D02*
X148254286Y-97820238D01*
X148301905Y-97915476D01*
X148301905Y-98772619D01*
X147349523Y-97772619D02*
X147349523Y-98296429D01*
X147397142Y-98391667D01*
X147492380Y-98439286D01*
X147682857Y-98439286D01*
X147778095Y-98391667D01*
X147349523Y-97820238D02*
X147444761Y-97772619D01*
X147682857Y-97772619D01*
X147778095Y-97820238D01*
X147825714Y-97915476D01*
X147825714Y-98010714D01*
X147778095Y-98105952D01*
X147682857Y-98153571D01*
X147444761Y-98153571D01*
X147349523Y-98201190D01*
X146444761Y-97820238D02*
X146539999Y-97772619D01*
X146730476Y-97772619D01*
X146825714Y-97820238D01*
X146873333Y-97867857D01*
X146920952Y-97963095D01*
X146920952Y-98248810D01*
X146873333Y-98344048D01*
X146825714Y-98391667D01*
X146730476Y-98439286D01*
X146539999Y-98439286D01*
X146444761Y-98391667D01*
X145635237Y-97820238D02*
X145730475Y-97772619D01*
X145920952Y-97772619D01*
X146016190Y-97820238D01*
X146063809Y-97915476D01*
X146063809Y-98296429D01*
X146016190Y-98391667D01*
X145920952Y-98439286D01*
X145730475Y-98439286D01*
X145635237Y-98391667D01*
X145587618Y-98296429D01*
X145587618Y-98201190D01*
X146063809Y-98105952D01*
X144397142Y-97772619D02*
X144397142Y-98772619D01*
X144063808Y-98058333D01*
X143730475Y-98772619D01*
X143730475Y-97772619D01*
X143254285Y-97772619D02*
X143254285Y-98439286D01*
X143254285Y-98772619D02*
X143301904Y-98725000D01*
X143254285Y-98677381D01*
X143206666Y-98725000D01*
X143254285Y-98772619D01*
X143254285Y-98677381D01*
X142349523Y-97820238D02*
X142444761Y-97772619D01*
X142635238Y-97772619D01*
X142730476Y-97820238D01*
X142778095Y-97867857D01*
X142825714Y-97963095D01*
X142825714Y-98248810D01*
X142778095Y-98344048D01*
X142730476Y-98391667D01*
X142635238Y-98439286D01*
X142444761Y-98439286D01*
X142349523Y-98391667D01*
X141920952Y-97772619D02*
X141920952Y-98439286D01*
X141920952Y-98248810D02*
X141873333Y-98344048D01*
X141825714Y-98391667D01*
X141730476Y-98439286D01*
X141635237Y-98439286D01*
X141159047Y-97772619D02*
X141254285Y-97820238D01*
X141301904Y-97867857D01*
X141349523Y-97963095D01*
X141349523Y-98248810D01*
X141301904Y-98344048D01*
X141254285Y-98391667D01*
X141159047Y-98439286D01*
X141016189Y-98439286D01*
X140920951Y-98391667D01*
X140873332Y-98344048D01*
X140825713Y-98248810D01*
X140825713Y-97963095D01*
X140873332Y-97867857D01*
X140920951Y-97820238D01*
X141016189Y-97772619D01*
X141159047Y-97772619D01*
X139635237Y-97772619D02*
X139635237Y-98772619D01*
X139301903Y-98058333D01*
X138968570Y-98772619D01*
X138968570Y-97772619D01*
X138492380Y-97772619D02*
X138492380Y-98439286D01*
X138492380Y-98772619D02*
X138539999Y-98725000D01*
X138492380Y-98677381D01*
X138444761Y-98725000D01*
X138492380Y-98772619D01*
X138492380Y-98677381D01*
X138016190Y-98439286D02*
X138016190Y-97772619D01*
X138016190Y-98344048D02*
X137968571Y-98391667D01*
X137873333Y-98439286D01*
X137730475Y-98439286D01*
X137635237Y-98391667D01*
X137587618Y-98296429D01*
X137587618Y-97772619D01*
X137111428Y-97772619D02*
X137111428Y-98439286D01*
X137111428Y-98772619D02*
X137159047Y-98725000D01*
X137111428Y-98677381D01*
X137063809Y-98725000D01*
X137111428Y-98772619D01*
X137111428Y-98677381D01*
X136635238Y-97772619D02*
X136635238Y-98439286D01*
X136635238Y-98344048D02*
X136587619Y-98391667D01*
X136492381Y-98439286D01*
X136349523Y-98439286D01*
X136254285Y-98391667D01*
X136206666Y-98296429D01*
X136206666Y-97772619D01*
X136206666Y-98296429D02*
X136159047Y-98391667D01*
X136063809Y-98439286D01*
X135920952Y-98439286D01*
X135825714Y-98391667D01*
X135778095Y-98296429D01*
X135778095Y-97772619D01*
X135111429Y-98772619D02*
X134920952Y-98772619D01*
X134825714Y-98725000D01*
X134730476Y-98629762D01*
X134682857Y-98439286D01*
X134682857Y-98105952D01*
X134730476Y-97915476D01*
X134825714Y-97820238D01*
X134920952Y-97772619D01*
X135111429Y-97772619D01*
X135206667Y-97820238D01*
X135301905Y-97915476D01*
X135349524Y-98105952D01*
X135349524Y-98439286D01*
X135301905Y-98629762D01*
X135206667Y-98725000D01*
X135111429Y-98772619D01*
X134301905Y-97820238D02*
X134159048Y-97772619D01*
X133920952Y-97772619D01*
X133825714Y-97820238D01*
X133778095Y-97867857D01*
X133730476Y-97963095D01*
X133730476Y-98058333D01*
X133778095Y-98153571D01*
X133825714Y-98201190D01*
X133920952Y-98248810D01*
X134111429Y-98296429D01*
X134206667Y-98344048D01*
X134254286Y-98391667D01*
X134301905Y-98486905D01*
X134301905Y-98582143D01*
X134254286Y-98677381D01*
X134206667Y-98725000D01*
X134111429Y-98772619D01*
X133873333Y-98772619D01*
X133730476Y-98725000D01*
X133301905Y-97772619D02*
X133301905Y-98772619D01*
X133063810Y-98772619D01*
X132920952Y-98725000D01*
X132825714Y-98629762D01*
X132778095Y-98534524D01*
X132730476Y-98344048D01*
X132730476Y-98201190D01*
X132778095Y-98010714D01*
X132825714Y-97915476D01*
X132920952Y-97820238D01*
X133063810Y-97772619D01*
X133301905Y-97772619D01*
X147063810Y-96889286D02*
X147063810Y-95889286D01*
X147063810Y-96841667D02*
X146968572Y-96889286D01*
X146778095Y-96889286D01*
X146682857Y-96841667D01*
X146635238Y-96794048D01*
X146587619Y-96698810D01*
X146587619Y-96413095D01*
X146635238Y-96317857D01*
X146682857Y-96270238D01*
X146778095Y-96222619D01*
X146968572Y-96222619D01*
X147063810Y-96270238D01*
X145730476Y-96222619D02*
X145730476Y-96746429D01*
X145778095Y-96841667D01*
X145873333Y-96889286D01*
X146063810Y-96889286D01*
X146159048Y-96841667D01*
X145730476Y-96270238D02*
X145825714Y-96222619D01*
X146063810Y-96222619D01*
X146159048Y-96270238D01*
X146206667Y-96365476D01*
X146206667Y-96460714D01*
X146159048Y-96555952D01*
X146063810Y-96603571D01*
X145825714Y-96603571D01*
X145730476Y-96651190D01*
X144825714Y-96222619D02*
X144825714Y-97222619D01*
X144825714Y-96270238D02*
X144920952Y-96222619D01*
X145111429Y-96222619D01*
X145206667Y-96270238D01*
X145254286Y-96317857D01*
X145301905Y-96413095D01*
X145301905Y-96698810D01*
X145254286Y-96794048D01*
X145206667Y-96841667D01*
X145111429Y-96889286D01*
X144920952Y-96889286D01*
X144825714Y-96841667D01*
X144397143Y-96270238D02*
X144301905Y-96222619D01*
X144111429Y-96222619D01*
X144016190Y-96270238D01*
X143968571Y-96365476D01*
X143968571Y-96413095D01*
X144016190Y-96508333D01*
X144111429Y-96555952D01*
X144254286Y-96555952D01*
X144349524Y-96603571D01*
X144397143Y-96698810D01*
X144397143Y-96746429D01*
X144349524Y-96841667D01*
X144254286Y-96889286D01*
X144111429Y-96889286D01*
X144016190Y-96841667D01*
X142349523Y-96222619D02*
X142349523Y-97222619D01*
X142349523Y-96270238D02*
X142444761Y-96222619D01*
X142635238Y-96222619D01*
X142730476Y-96270238D01*
X142778095Y-96317857D01*
X142825714Y-96413095D01*
X142825714Y-96698810D01*
X142778095Y-96794048D01*
X142730476Y-96841667D01*
X142635238Y-96889286D01*
X142444761Y-96889286D01*
X142349523Y-96841667D01*
X141730476Y-96222619D02*
X141825714Y-96270238D01*
X141873333Y-96317857D01*
X141920952Y-96413095D01*
X141920952Y-96698810D01*
X141873333Y-96794048D01*
X141825714Y-96841667D01*
X141730476Y-96889286D01*
X141587618Y-96889286D01*
X141492380Y-96841667D01*
X141444761Y-96794048D01*
X141397142Y-96698810D01*
X141397142Y-96413095D01*
X141444761Y-96317857D01*
X141492380Y-96270238D01*
X141587618Y-96222619D01*
X141730476Y-96222619D01*
X141063809Y-96889286D02*
X140873333Y-96222619D01*
X140682856Y-96698810D01*
X140492380Y-96222619D01*
X140301904Y-96889286D01*
X139920952Y-96889286D02*
X139920952Y-96222619D01*
X139920952Y-96794048D02*
X139873333Y-96841667D01*
X139778095Y-96889286D01*
X139635237Y-96889286D01*
X139539999Y-96841667D01*
X139492380Y-96746429D01*
X139492380Y-96222619D01*
X138254285Y-96222619D02*
X138254285Y-97222619D01*
X137825713Y-96222619D02*
X137825713Y-96746429D01*
X137873332Y-96841667D01*
X137968570Y-96889286D01*
X138111428Y-96889286D01*
X138206666Y-96841667D01*
X138254285Y-96794048D01*
X136968570Y-96270238D02*
X137063808Y-96222619D01*
X137254285Y-96222619D01*
X137349523Y-96270238D01*
X137397142Y-96365476D01*
X137397142Y-96746429D01*
X137349523Y-96841667D01*
X137254285Y-96889286D01*
X137063808Y-96889286D01*
X136968570Y-96841667D01*
X136920951Y-96746429D01*
X136920951Y-96651190D01*
X137397142Y-96555952D01*
X136492380Y-96222619D02*
X136492380Y-96889286D01*
X136492380Y-96698810D02*
X136444761Y-96794048D01*
X136397142Y-96841667D01*
X136301904Y-96889286D01*
X136206665Y-96889286D01*
X135492379Y-96270238D02*
X135587617Y-96222619D01*
X135778094Y-96222619D01*
X135873332Y-96270238D01*
X135920951Y-96365476D01*
X135920951Y-96746429D01*
X135873332Y-96841667D01*
X135778094Y-96889286D01*
X135587617Y-96889286D01*
X135492379Y-96841667D01*
X135444760Y-96746429D01*
X135444760Y-96651190D01*
X135920951Y-96555952D01*
X135016189Y-96317857D02*
X134968570Y-96270238D01*
X135016189Y-96222619D01*
X135063808Y-96270238D01*
X135016189Y-96317857D01*
X135016189Y-96222619D01*
X133280000Y-104970000D02*
X133280000Y-112590000D01*
X135820000Y-104970000D02*
X135820000Y-112590000D01*
X133280000Y-112590000D02*
X135820000Y-112590000D01*
X135820000Y-104970000D02*
X133280000Y-104970000D01*
X159109620Y-94920560D02*
X159678580Y-94920560D01*
X159678580Y-94920560D02*
X159678580Y-94509080D01*
X164947700Y-98920560D02*
X165516660Y-98920560D01*
X165516660Y-98920560D02*
X165516660Y-98509080D01*
X159259620Y-97370560D02*
X159828580Y-97370560D01*
X159828580Y-97370560D02*
X159828580Y-96959080D01*
X153275000Y-108850000D02*
X153275000Y-106850000D01*
X151225000Y-106850000D02*
X151225000Y-108850000D01*
X158350000Y-125350000D02*
X158350000Y-123450000D01*
X157250000Y-125350000D02*
X157250000Y-123450000D01*
X157800000Y-124450000D02*
X157800000Y-124000000D01*
X157550000Y-124500000D02*
X158050000Y-124500000D01*
X157800000Y-124500000D02*
X157550000Y-124250000D01*
X157550000Y-124250000D02*
X158050000Y-124250000D01*
X158050000Y-124250000D02*
X157800000Y-124500000D01*
X156725000Y-123150000D02*
X156725000Y-124150000D01*
X155375000Y-124150000D02*
X155375000Y-123150000D01*
X146080000Y-115160000D02*
X133380000Y-115160000D01*
X133380000Y-115160000D02*
X133380000Y-112620000D01*
X133380000Y-112620000D02*
X146080000Y-112620000D01*
X148900000Y-115440000D02*
X147350000Y-115440000D01*
X146080000Y-115160000D02*
X146080000Y-112620000D01*
X147350000Y-112340000D02*
X148900000Y-112340000D01*
X148900000Y-112340000D02*
X148900000Y-115440000D01*
X146130000Y-102470000D02*
X133430000Y-102470000D01*
X133430000Y-102470000D02*
X133430000Y-99930000D01*
X133430000Y-99930000D02*
X146130000Y-99930000D01*
X148950000Y-102750000D02*
X147400000Y-102750000D01*
X146130000Y-102470000D02*
X146130000Y-99930000D01*
X147400000Y-99650000D02*
X148950000Y-99650000D01*
X148950000Y-99650000D02*
X148950000Y-102750000D01*
X146130000Y-107870000D02*
X146130000Y-105330000D01*
X145850000Y-110690000D02*
X145850000Y-109140000D01*
X146130000Y-107870000D02*
X148670000Y-107870000D01*
X148950000Y-109140000D02*
X148950000Y-110690000D01*
X148950000Y-110690000D02*
X145850000Y-110690000D01*
X148670000Y-107870000D02*
X148670000Y-105330000D01*
X148670000Y-105330000D02*
X146130000Y-105330000D01*
X152295000Y-123150000D02*
X150745000Y-123150000D01*
X152295000Y-124450000D02*
X152295000Y-123150000D01*
X150872000Y-128641000D02*
X150872000Y-134483000D01*
X150872000Y-134483000D02*
X150618000Y-134483000D01*
X150618000Y-134483000D02*
X150618000Y-128641000D01*
X150618000Y-128641000D02*
X150745000Y-128641000D01*
X150745000Y-128641000D02*
X150745000Y-134483000D01*
X150999000Y-125974000D02*
X150999000Y-125593000D01*
X150491000Y-125974000D02*
X150491000Y-125593000D01*
X148459000Y-125974000D02*
X148459000Y-125593000D01*
X147951000Y-125974000D02*
X147951000Y-125593000D01*
X145919000Y-125974000D02*
X145919000Y-125593000D01*
X145411000Y-125974000D02*
X145411000Y-125593000D01*
X137791000Y-125974000D02*
X137791000Y-125593000D01*
X138299000Y-125974000D02*
X138299000Y-125593000D01*
X140331000Y-125974000D02*
X140331000Y-125593000D01*
X140839000Y-125974000D02*
X140839000Y-125593000D01*
X142871000Y-125974000D02*
X142871000Y-125593000D01*
X143379000Y-125974000D02*
X143379000Y-125593000D01*
X152015000Y-125974000D02*
X152015000Y-128514000D01*
X149475000Y-125974000D02*
X149475000Y-128514000D01*
X149475000Y-125974000D02*
X146935000Y-125974000D01*
X146935000Y-125974000D02*
X146935000Y-128514000D01*
X148459000Y-128514000D02*
X148459000Y-134610000D01*
X148459000Y-134610000D02*
X147951000Y-134610000D01*
X147951000Y-134610000D02*
X147951000Y-128514000D01*
X146935000Y-128514000D02*
X149475000Y-128514000D01*
X149475000Y-128514000D02*
X152015000Y-128514000D01*
X150491000Y-134610000D02*
X150491000Y-128514000D01*
X150999000Y-134610000D02*
X150491000Y-134610000D01*
X150999000Y-128514000D02*
X150999000Y-134610000D01*
X149475000Y-125974000D02*
X149475000Y-128514000D01*
X152015000Y-125974000D02*
X149475000Y-125974000D01*
X141855000Y-125974000D02*
X141855000Y-128514000D01*
X141855000Y-125974000D02*
X139315000Y-125974000D01*
X139315000Y-125974000D02*
X139315000Y-128514000D01*
X140839000Y-128514000D02*
X140839000Y-134610000D01*
X140839000Y-134610000D02*
X140331000Y-134610000D01*
X140331000Y-134610000D02*
X140331000Y-128514000D01*
X139315000Y-128514000D02*
X141855000Y-128514000D01*
X136775000Y-128514000D02*
X139315000Y-128514000D01*
X137791000Y-134610000D02*
X137791000Y-128514000D01*
X138299000Y-134610000D02*
X137791000Y-134610000D01*
X138299000Y-128514000D02*
X138299000Y-134610000D01*
X136775000Y-125974000D02*
X136775000Y-128514000D01*
X139315000Y-125974000D02*
X136775000Y-125974000D01*
X139315000Y-125974000D02*
X139315000Y-128514000D01*
X144395000Y-125974000D02*
X144395000Y-128514000D01*
X144395000Y-125974000D02*
X141855000Y-125974000D01*
X141855000Y-125974000D02*
X141855000Y-128514000D01*
X143379000Y-128514000D02*
X143379000Y-134610000D01*
X143379000Y-134610000D02*
X142871000Y-134610000D01*
X142871000Y-134610000D02*
X142871000Y-128514000D01*
X141855000Y-128514000D02*
X144395000Y-128514000D01*
X144395000Y-128514000D02*
X146935000Y-128514000D01*
X145411000Y-134610000D02*
X145411000Y-128514000D01*
X145919000Y-134610000D02*
X145411000Y-134610000D01*
X145919000Y-128514000D02*
X145919000Y-134610000D01*
X144395000Y-125974000D02*
X144395000Y-128514000D01*
X146935000Y-125974000D02*
X144395000Y-125974000D01*
X146935000Y-125974000D02*
X146935000Y-128514000D01*
D15*
G36*
X159834250Y-119209952D02*
X159881186Y-119213674D01*
X159928923Y-119220308D01*
X159960470Y-119226230D01*
X159977376Y-119229947D01*
X159994424Y-119234096D01*
X160011213Y-119238546D01*
X160027341Y-119243163D01*
X160042408Y-119247817D01*
X160056014Y-119252375D01*
X160067757Y-119256706D01*
X160077236Y-119260677D01*
X160084053Y-119264157D01*
X160087804Y-119267014D01*
X160088418Y-119268338D01*
X160088094Y-119270608D01*
X160087148Y-119276410D01*
X160085614Y-119285542D01*
X160083528Y-119297801D01*
X160080925Y-119312987D01*
X160077840Y-119330897D01*
X160074309Y-119351329D01*
X160070367Y-119374081D01*
X160066050Y-119398952D01*
X160061393Y-119425740D01*
X160056431Y-119454242D01*
X160051200Y-119484258D01*
X160045734Y-119515585D01*
X160040071Y-119548021D01*
X160034244Y-119581365D01*
X160028289Y-119615414D01*
X160022242Y-119649967D01*
X160016137Y-119684822D01*
X160010011Y-119719776D01*
X160003898Y-119754629D01*
X159997835Y-119789179D01*
X159991856Y-119823223D01*
X159985996Y-119856559D01*
X159980292Y-119888986D01*
X159974778Y-119920302D01*
X159969490Y-119950305D01*
X159964463Y-119978793D01*
X159959733Y-120005565D01*
X159955335Y-120030418D01*
X159951304Y-120053151D01*
X159947676Y-120073561D01*
X159944486Y-120091448D01*
X159941769Y-120106608D01*
X159939561Y-120118841D01*
X159937897Y-120127943D01*
X159936813Y-120133715D01*
X159936554Y-120135023D01*
X159926987Y-120178174D01*
X159916334Y-120219393D01*
X159904697Y-120258391D01*
X159892178Y-120294879D01*
X159878877Y-120328570D01*
X159864898Y-120359174D01*
X159850340Y-120386403D01*
X159845100Y-120395127D01*
X159824332Y-120425616D01*
X159801668Y-120453263D01*
X159777299Y-120477879D01*
X159751414Y-120499271D01*
X159724206Y-120517249D01*
X159721656Y-120518718D01*
X159700637Y-120529337D01*
X159676564Y-120539149D01*
X159650122Y-120547957D01*
X159622000Y-120555564D01*
X159592884Y-120561775D01*
X159563460Y-120566392D01*
X159549428Y-120567985D01*
X159535316Y-120569119D01*
X159519006Y-120570002D01*
X159501487Y-120570616D01*
X159483744Y-120570944D01*
X159466764Y-120570968D01*
X159451536Y-120570670D01*
X159439045Y-120570032D01*
X159438511Y-120569991D01*
X159387587Y-120564170D01*
X159336028Y-120554642D01*
X159315992Y-120549983D01*
X159304862Y-120547134D01*
X159293787Y-120544099D01*
X159283482Y-120541094D01*
X159274664Y-120538334D01*
X159268048Y-120536036D01*
X159264351Y-120534417D01*
X159264229Y-120534340D01*
X159263464Y-120533102D01*
X159263204Y-120530393D01*
X159263494Y-120525764D01*
X159264380Y-120518763D01*
X159265906Y-120508941D01*
X159268103Y-120495940D01*
X159274456Y-120459157D01*
X159395687Y-120458107D01*
X159420846Y-120457878D01*
X159442522Y-120457652D01*
X159461024Y-120457420D01*
X159476661Y-120457172D01*
X159489742Y-120456898D01*
X159500574Y-120456588D01*
X159509468Y-120456234D01*
X159516730Y-120455825D01*
X159522671Y-120455351D01*
X159527598Y-120454804D01*
X159531820Y-120454173D01*
X159533977Y-120453782D01*
X159558686Y-120448382D01*
X159580267Y-120442198D01*
X159599344Y-120434999D01*
X159616540Y-120426555D01*
X159629926Y-120418372D01*
X159638839Y-120411612D01*
X159649131Y-120402520D01*
X159660033Y-120391886D01*
X159670778Y-120380503D01*
X159680598Y-120369161D01*
X159688724Y-120358654D01*
X159690838Y-120355602D01*
X159701540Y-120338029D01*
X159712260Y-120317473D01*
X159722653Y-120294721D01*
X159732372Y-120270564D01*
X159741075Y-120245790D01*
X159746308Y-120228740D01*
X159748567Y-120220456D01*
X159751127Y-120210356D01*
X159753831Y-120199145D01*
X159756522Y-120187527D01*
X159759042Y-120176207D01*
X159761234Y-120165889D01*
X159762939Y-120157276D01*
X159764002Y-120151074D01*
X159764283Y-120148326D01*
X159763157Y-120147554D01*
X159759566Y-120148230D01*
X159753192Y-120150443D01*
X159744854Y-120153807D01*
X159716081Y-120164996D01*
X159687373Y-120174545D01*
X159659552Y-120182212D01*
X159633440Y-120187758D01*
X159623067Y-120189412D01*
X159613634Y-120190380D01*
X159601370Y-120191091D01*
X159587159Y-120191546D01*
X159571889Y-120191744D01*
X159556444Y-120191685D01*
X159541711Y-120191368D01*
X159528575Y-120190793D01*
X159517922Y-120189958D01*
X159514052Y-120189480D01*
X159497780Y-120186652D01*
X159480679Y-120182884D01*
X159464106Y-120178516D01*
X159449421Y-120173888D01*
X159444407Y-120172051D01*
X159424388Y-120162428D01*
X159405255Y-120149546D01*
X159387541Y-120133923D01*
X159371781Y-120116074D01*
X159358509Y-120096516D01*
X159350721Y-120081506D01*
X159339927Y-120053613D01*
X159331499Y-120022767D01*
X159325437Y-119988981D01*
X159321743Y-119952266D01*
X159320418Y-119912632D01*
X159321461Y-119870090D01*
X159321630Y-119867836D01*
X159492267Y-119867836D01*
X159492431Y-119899159D01*
X159494198Y-119928773D01*
X159497547Y-119956104D01*
X159502461Y-119980579D01*
X159502781Y-119981848D01*
X159510038Y-120003997D01*
X159519800Y-120023307D01*
X159532069Y-120039780D01*
X159546847Y-120053417D01*
X159564137Y-120064219D01*
X159583941Y-120072188D01*
X159606262Y-120077325D01*
X159631102Y-120079632D01*
X159658464Y-120079109D01*
X159679897Y-120076959D01*
X159692054Y-120074949D01*
X159705242Y-120072046D01*
X159718931Y-120068442D01*
X159732587Y-120064326D01*
X159745678Y-120059889D01*
X159757671Y-120055319D01*
X159768035Y-120050808D01*
X159776237Y-120046546D01*
X159781745Y-120042721D01*
X159783958Y-120039812D01*
X159784395Y-120037595D01*
X159785446Y-120031874D01*
X159787072Y-120022869D01*
X159789235Y-120010802D01*
X159791895Y-119995895D01*
X159795014Y-119978369D01*
X159798552Y-119958444D01*
X159802470Y-119936344D01*
X159806731Y-119912287D01*
X159811293Y-119886497D01*
X159816120Y-119859195D01*
X159821170Y-119830601D01*
X159826407Y-119800938D01*
X159831790Y-119770425D01*
X159837281Y-119739286D01*
X159842840Y-119707741D01*
X159848429Y-119676011D01*
X159854009Y-119644319D01*
X159859540Y-119612884D01*
X159864984Y-119581929D01*
X159870302Y-119551675D01*
X159875454Y-119522343D01*
X159880403Y-119494154D01*
X159885108Y-119467331D01*
X159889531Y-119442093D01*
X159893633Y-119418663D01*
X159897375Y-119397262D01*
X159900717Y-119378112D01*
X159903622Y-119361433D01*
X159906049Y-119347447D01*
X159907961Y-119336375D01*
X159909317Y-119328438D01*
X159910079Y-119323859D01*
X159910239Y-119322770D01*
X159908420Y-119322136D01*
X159903267Y-119321643D01*
X159895233Y-119321286D01*
X159884771Y-119321056D01*
X159872335Y-119320947D01*
X159858378Y-119320951D01*
X159843354Y-119321062D01*
X159827716Y-119321273D01*
X159811918Y-119321577D01*
X159796413Y-119321966D01*
X159781655Y-119322433D01*
X159768098Y-119322972D01*
X159756193Y-119323576D01*
X159746397Y-119324238D01*
X159739160Y-119324950D01*
X159735905Y-119325465D01*
X159712600Y-119331444D01*
X159692051Y-119339166D01*
X159673451Y-119349076D01*
X159655992Y-119361617D01*
X159638869Y-119377233D01*
X159635333Y-119380849D01*
X159618607Y-119400377D01*
X159602563Y-119423354D01*
X159587349Y-119449480D01*
X159573108Y-119478450D01*
X159559987Y-119509964D01*
X159548131Y-119543717D01*
X159537685Y-119579408D01*
X159535182Y-119589112D01*
X159530323Y-119609599D01*
X159525244Y-119633052D01*
X159520088Y-119658667D01*
X159515000Y-119685638D01*
X159510127Y-119713159D01*
X159505611Y-119740423D01*
X159501600Y-119766625D01*
X159498237Y-119790959D01*
X159496822Y-119802358D01*
X159493725Y-119835378D01*
X159492267Y-119867836D01*
X159321630Y-119867836D01*
X159324875Y-119824653D01*
X159328452Y-119792881D01*
X159334267Y-119751114D01*
X159341111Y-119709306D01*
X159348866Y-119667973D01*
X159357414Y-119627631D01*
X159366636Y-119588796D01*
X159376413Y-119551985D01*
X159386627Y-119517714D01*
X159397159Y-119486498D01*
X159401642Y-119474438D01*
X159416718Y-119438077D01*
X159432798Y-119405130D01*
X159450056Y-119375312D01*
X159468667Y-119348338D01*
X159488807Y-119323922D01*
X159502563Y-119309523D01*
X159526335Y-119288099D01*
X159551406Y-119269676D01*
X159578196Y-119254028D01*
X159607123Y-119240930D01*
X159638606Y-119230156D01*
X159660977Y-119224211D01*
X159701479Y-119216269D01*
X159744074Y-119211247D01*
X159788438Y-119209142D01*
X159834250Y-119209952D01*
X159834250Y-119209952D01*
G37*
X159834250Y-119209952D02*
X159881186Y-119213674D01*
X159928923Y-119220308D01*
X159960470Y-119226230D01*
X159977376Y-119229947D01*
X159994424Y-119234096D01*
X160011213Y-119238546D01*
X160027341Y-119243163D01*
X160042408Y-119247817D01*
X160056014Y-119252375D01*
X160067757Y-119256706D01*
X160077236Y-119260677D01*
X160084053Y-119264157D01*
X160087804Y-119267014D01*
X160088418Y-119268338D01*
X160088094Y-119270608D01*
X160087148Y-119276410D01*
X160085614Y-119285542D01*
X160083528Y-119297801D01*
X160080925Y-119312987D01*
X160077840Y-119330897D01*
X160074309Y-119351329D01*
X160070367Y-119374081D01*
X160066050Y-119398952D01*
X160061393Y-119425740D01*
X160056431Y-119454242D01*
X160051200Y-119484258D01*
X160045734Y-119515585D01*
X160040071Y-119548021D01*
X160034244Y-119581365D01*
X160028289Y-119615414D01*
X160022242Y-119649967D01*
X160016137Y-119684822D01*
X160010011Y-119719776D01*
X160003898Y-119754629D01*
X159997835Y-119789179D01*
X159991856Y-119823223D01*
X159985996Y-119856559D01*
X159980292Y-119888986D01*
X159974778Y-119920302D01*
X159969490Y-119950305D01*
X159964463Y-119978793D01*
X159959733Y-120005565D01*
X159955335Y-120030418D01*
X159951304Y-120053151D01*
X159947676Y-120073561D01*
X159944486Y-120091448D01*
X159941769Y-120106608D01*
X159939561Y-120118841D01*
X159937897Y-120127943D01*
X159936813Y-120133715D01*
X159936554Y-120135023D01*
X159926987Y-120178174D01*
X159916334Y-120219393D01*
X159904697Y-120258391D01*
X159892178Y-120294879D01*
X159878877Y-120328570D01*
X159864898Y-120359174D01*
X159850340Y-120386403D01*
X159845100Y-120395127D01*
X159824332Y-120425616D01*
X159801668Y-120453263D01*
X159777299Y-120477879D01*
X159751414Y-120499271D01*
X159724206Y-120517249D01*
X159721656Y-120518718D01*
X159700637Y-120529337D01*
X159676564Y-120539149D01*
X159650122Y-120547957D01*
X159622000Y-120555564D01*
X159592884Y-120561775D01*
X159563460Y-120566392D01*
X159549428Y-120567985D01*
X159535316Y-120569119D01*
X159519006Y-120570002D01*
X159501487Y-120570616D01*
X159483744Y-120570944D01*
X159466764Y-120570968D01*
X159451536Y-120570670D01*
X159439045Y-120570032D01*
X159438511Y-120569991D01*
X159387587Y-120564170D01*
X159336028Y-120554642D01*
X159315992Y-120549983D01*
X159304862Y-120547134D01*
X159293787Y-120544099D01*
X159283482Y-120541094D01*
X159274664Y-120538334D01*
X159268048Y-120536036D01*
X159264351Y-120534417D01*
X159264229Y-120534340D01*
X159263464Y-120533102D01*
X159263204Y-120530393D01*
X159263494Y-120525764D01*
X159264380Y-120518763D01*
X159265906Y-120508941D01*
X159268103Y-120495940D01*
X159274456Y-120459157D01*
X159395687Y-120458107D01*
X159420846Y-120457878D01*
X159442522Y-120457652D01*
X159461024Y-120457420D01*
X159476661Y-120457172D01*
X159489742Y-120456898D01*
X159500574Y-120456588D01*
X159509468Y-120456234D01*
X159516730Y-120455825D01*
X159522671Y-120455351D01*
X159527598Y-120454804D01*
X159531820Y-120454173D01*
X159533977Y-120453782D01*
X159558686Y-120448382D01*
X159580267Y-120442198D01*
X159599344Y-120434999D01*
X159616540Y-120426555D01*
X159629926Y-120418372D01*
X159638839Y-120411612D01*
X159649131Y-120402520D01*
X159660033Y-120391886D01*
X159670778Y-120380503D01*
X159680598Y-120369161D01*
X159688724Y-120358654D01*
X159690838Y-120355602D01*
X159701540Y-120338029D01*
X159712260Y-120317473D01*
X159722653Y-120294721D01*
X159732372Y-120270564D01*
X159741075Y-120245790D01*
X159746308Y-120228740D01*
X159748567Y-120220456D01*
X159751127Y-120210356D01*
X159753831Y-120199145D01*
X159756522Y-120187527D01*
X159759042Y-120176207D01*
X159761234Y-120165889D01*
X159762939Y-120157276D01*
X159764002Y-120151074D01*
X159764283Y-120148326D01*
X159763157Y-120147554D01*
X159759566Y-120148230D01*
X159753192Y-120150443D01*
X159744854Y-120153807D01*
X159716081Y-120164996D01*
X159687373Y-120174545D01*
X159659552Y-120182212D01*
X159633440Y-120187758D01*
X159623067Y-120189412D01*
X159613634Y-120190380D01*
X159601370Y-120191091D01*
X159587159Y-120191546D01*
X159571889Y-120191744D01*
X159556444Y-120191685D01*
X159541711Y-120191368D01*
X159528575Y-120190793D01*
X159517922Y-120189958D01*
X159514052Y-120189480D01*
X159497780Y-120186652D01*
X159480679Y-120182884D01*
X159464106Y-120178516D01*
X159449421Y-120173888D01*
X159444407Y-120172051D01*
X159424388Y-120162428D01*
X159405255Y-120149546D01*
X159387541Y-120133923D01*
X159371781Y-120116074D01*
X159358509Y-120096516D01*
X159350721Y-120081506D01*
X159339927Y-120053613D01*
X159331499Y-120022767D01*
X159325437Y-119988981D01*
X159321743Y-119952266D01*
X159320418Y-119912632D01*
X159321461Y-119870090D01*
X159321630Y-119867836D01*
X159492267Y-119867836D01*
X159492431Y-119899159D01*
X159494198Y-119928773D01*
X159497547Y-119956104D01*
X159502461Y-119980579D01*
X159502781Y-119981848D01*
X159510038Y-120003997D01*
X159519800Y-120023307D01*
X159532069Y-120039780D01*
X159546847Y-120053417D01*
X159564137Y-120064219D01*
X159583941Y-120072188D01*
X159606262Y-120077325D01*
X159631102Y-120079632D01*
X159658464Y-120079109D01*
X159679897Y-120076959D01*
X159692054Y-120074949D01*
X159705242Y-120072046D01*
X159718931Y-120068442D01*
X159732587Y-120064326D01*
X159745678Y-120059889D01*
X159757671Y-120055319D01*
X159768035Y-120050808D01*
X159776237Y-120046546D01*
X159781745Y-120042721D01*
X159783958Y-120039812D01*
X159784395Y-120037595D01*
X159785446Y-120031874D01*
X159787072Y-120022869D01*
X159789235Y-120010802D01*
X159791895Y-119995895D01*
X159795014Y-119978369D01*
X159798552Y-119958444D01*
X159802470Y-119936344D01*
X159806731Y-119912287D01*
X159811293Y-119886497D01*
X159816120Y-119859195D01*
X159821170Y-119830601D01*
X159826407Y-119800938D01*
X159831790Y-119770425D01*
X159837281Y-119739286D01*
X159842840Y-119707741D01*
X159848429Y-119676011D01*
X159854009Y-119644319D01*
X159859540Y-119612884D01*
X159864984Y-119581929D01*
X159870302Y-119551675D01*
X159875454Y-119522343D01*
X159880403Y-119494154D01*
X159885108Y-119467331D01*
X159889531Y-119442093D01*
X159893633Y-119418663D01*
X159897375Y-119397262D01*
X159900717Y-119378112D01*
X159903622Y-119361433D01*
X159906049Y-119347447D01*
X159907961Y-119336375D01*
X159909317Y-119328438D01*
X159910079Y-119323859D01*
X159910239Y-119322770D01*
X159908420Y-119322136D01*
X159903267Y-119321643D01*
X159895233Y-119321286D01*
X159884771Y-119321056D01*
X159872335Y-119320947D01*
X159858378Y-119320951D01*
X159843354Y-119321062D01*
X159827716Y-119321273D01*
X159811918Y-119321577D01*
X159796413Y-119321966D01*
X159781655Y-119322433D01*
X159768098Y-119322972D01*
X159756193Y-119323576D01*
X159746397Y-119324238D01*
X159739160Y-119324950D01*
X159735905Y-119325465D01*
X159712600Y-119331444D01*
X159692051Y-119339166D01*
X159673451Y-119349076D01*
X159655992Y-119361617D01*
X159638869Y-119377233D01*
X159635333Y-119380849D01*
X159618607Y-119400377D01*
X159602563Y-119423354D01*
X159587349Y-119449480D01*
X159573108Y-119478450D01*
X159559987Y-119509964D01*
X159548131Y-119543717D01*
X159537685Y-119579408D01*
X159535182Y-119589112D01*
X159530323Y-119609599D01*
X159525244Y-119633052D01*
X159520088Y-119658667D01*
X159515000Y-119685638D01*
X159510127Y-119713159D01*
X159505611Y-119740423D01*
X159501600Y-119766625D01*
X159498237Y-119790959D01*
X159496822Y-119802358D01*
X159493725Y-119835378D01*
X159492267Y-119867836D01*
X159321630Y-119867836D01*
X159324875Y-119824653D01*
X159328452Y-119792881D01*
X159334267Y-119751114D01*
X159341111Y-119709306D01*
X159348866Y-119667973D01*
X159357414Y-119627631D01*
X159366636Y-119588796D01*
X159376413Y-119551985D01*
X159386627Y-119517714D01*
X159397159Y-119486498D01*
X159401642Y-119474438D01*
X159416718Y-119438077D01*
X159432798Y-119405130D01*
X159450056Y-119375312D01*
X159468667Y-119348338D01*
X159488807Y-119323922D01*
X159502563Y-119309523D01*
X159526335Y-119288099D01*
X159551406Y-119269676D01*
X159578196Y-119254028D01*
X159607123Y-119240930D01*
X159638606Y-119230156D01*
X159660977Y-119224211D01*
X159701479Y-119216269D01*
X159744074Y-119211247D01*
X159788438Y-119209142D01*
X159834250Y-119209952D01*
G36*
X161486412Y-119023773D02*
X161485940Y-119026265D01*
X161484898Y-119032038D01*
X161483356Y-119040694D01*
X161481383Y-119051834D01*
X161479050Y-119065059D01*
X161476425Y-119079971D01*
X161473580Y-119096171D01*
X161470583Y-119113261D01*
X161467504Y-119130842D01*
X161464413Y-119148515D01*
X161461380Y-119165881D01*
X161458475Y-119182543D01*
X161455766Y-119198101D01*
X161453325Y-119212157D01*
X161451220Y-119224312D01*
X161449521Y-119234167D01*
X161448299Y-119241324D01*
X161447622Y-119245385D01*
X161447507Y-119246169D01*
X161449352Y-119246305D01*
X161454684Y-119246447D01*
X161463200Y-119246592D01*
X161474595Y-119246737D01*
X161488567Y-119246880D01*
X161504811Y-119247018D01*
X161523023Y-119247147D01*
X161542900Y-119247265D01*
X161564138Y-119247368D01*
X161579812Y-119247432D01*
X161712117Y-119247918D01*
X161704654Y-119289930D01*
X161697190Y-119331941D01*
X161690345Y-119333799D01*
X161685498Y-119335117D01*
X161678212Y-119337101D01*
X161669708Y-119339419D01*
X161665332Y-119340612D01*
X161626372Y-119350056D01*
X161585704Y-119357701D01*
X161544465Y-119363390D01*
X161503797Y-119366969D01*
X161464840Y-119368281D01*
X161462876Y-119368284D01*
X161425062Y-119368284D01*
X161423993Y-119373497D01*
X161423467Y-119376357D01*
X161422343Y-119382687D01*
X161420668Y-119392222D01*
X161418487Y-119404697D01*
X161415847Y-119419845D01*
X161412793Y-119437401D01*
X161409371Y-119457100D01*
X161405627Y-119478675D01*
X161401607Y-119501861D01*
X161397357Y-119526393D01*
X161392923Y-119552005D01*
X161388350Y-119578431D01*
X161383685Y-119605406D01*
X161378974Y-119632663D01*
X161374261Y-119659938D01*
X161369594Y-119686965D01*
X161365019Y-119713479D01*
X161360580Y-119739212D01*
X161356325Y-119763901D01*
X161352298Y-119787279D01*
X161348546Y-119809081D01*
X161345115Y-119829041D01*
X161342050Y-119846893D01*
X161339398Y-119862372D01*
X161337204Y-119875212D01*
X161335514Y-119885148D01*
X161334375Y-119891914D01*
X161333832Y-119895239D01*
X161331015Y-119920778D01*
X161330265Y-119945796D01*
X161331528Y-119969730D01*
X161334748Y-119992019D01*
X161339871Y-120012102D01*
X161346842Y-120029418D01*
X161347004Y-120029742D01*
X161352422Y-120038638D01*
X161359705Y-120048105D01*
X161367916Y-120057094D01*
X161376115Y-120064561D01*
X161381948Y-120068684D01*
X161386091Y-120071013D01*
X161390160Y-120072990D01*
X161394500Y-120074647D01*
X161399454Y-120076015D01*
X161405367Y-120077127D01*
X161412581Y-120078015D01*
X161421442Y-120078712D01*
X161432292Y-120079248D01*
X161445477Y-120079657D01*
X161461338Y-120079971D01*
X161480221Y-120080221D01*
X161502470Y-120080441D01*
X161508304Y-120080492D01*
X161602272Y-120081303D01*
X161596955Y-120111954D01*
X161594592Y-120125712D01*
X161592748Y-120136233D01*
X161591207Y-120144000D01*
X161589753Y-120149496D01*
X161588171Y-120153203D01*
X161586244Y-120155603D01*
X161583757Y-120157178D01*
X161580493Y-120158412D01*
X161576237Y-120159787D01*
X161575423Y-120160062D01*
X161556571Y-120165829D01*
X161534657Y-120171377D01*
X161510408Y-120176566D01*
X161484550Y-120181253D01*
X161457812Y-120185298D01*
X161430921Y-120188559D01*
X161426270Y-120189037D01*
X161403428Y-120191042D01*
X161383343Y-120192168D01*
X161365092Y-120192431D01*
X161347747Y-120191848D01*
X161333234Y-120190719D01*
X161303440Y-120186692D01*
X161276763Y-120180591D01*
X161253078Y-120172308D01*
X161232261Y-120161737D01*
X161214189Y-120148773D01*
X161198737Y-120133308D01*
X161185782Y-120115236D01*
X161175200Y-120094451D01*
X161166868Y-120070847D01*
X161160660Y-120044316D01*
X161160266Y-120042142D01*
X161158942Y-120031928D01*
X161157993Y-120018811D01*
X161157426Y-120003660D01*
X161157249Y-119987346D01*
X161157469Y-119970738D01*
X161158095Y-119954706D01*
X161159133Y-119940120D01*
X161159347Y-119937888D01*
X161159860Y-119932864D01*
X161160393Y-119927918D01*
X161160980Y-119922847D01*
X161161655Y-119917451D01*
X161162450Y-119911525D01*
X161163399Y-119904870D01*
X161164536Y-119897283D01*
X161165894Y-119888561D01*
X161167506Y-119878504D01*
X161169405Y-119866908D01*
X161171625Y-119853573D01*
X161174199Y-119838296D01*
X161177161Y-119820875D01*
X161180543Y-119801108D01*
X161184380Y-119778793D01*
X161188703Y-119753729D01*
X161193548Y-119725713D01*
X161198947Y-119694544D01*
X161204933Y-119660019D01*
X161210703Y-119626761D01*
X161215963Y-119596417D01*
X161221041Y-119567066D01*
X161225899Y-119538930D01*
X161230500Y-119512228D01*
X161234805Y-119487181D01*
X161238778Y-119464010D01*
X161242380Y-119442934D01*
X161245574Y-119424175D01*
X161248322Y-119407953D01*
X161250587Y-119394489D01*
X161252330Y-119384003D01*
X161253515Y-119376715D01*
X161254104Y-119372846D01*
X161254164Y-119372287D01*
X161254087Y-119371141D01*
X161253589Y-119370238D01*
X161252266Y-119369549D01*
X161249715Y-119369044D01*
X161245533Y-119368695D01*
X161239317Y-119368474D01*
X161230665Y-119368351D01*
X161219173Y-119368297D01*
X161204439Y-119368284D01*
X161198246Y-119368284D01*
X161181495Y-119368250D01*
X161168211Y-119368138D01*
X161158069Y-119367935D01*
X161150745Y-119367626D01*
X161145915Y-119367199D01*
X161143256Y-119366640D01*
X161142442Y-119365934D01*
X161142442Y-119365914D01*
X161142809Y-119363524D01*
X161143793Y-119357880D01*
X161145308Y-119349456D01*
X161147269Y-119338724D01*
X161149589Y-119326157D01*
X161152182Y-119312226D01*
X161153398Y-119305732D01*
X161164238Y-119247918D01*
X161278036Y-119246916D01*
X161297850Y-119133214D01*
X161317664Y-119019511D01*
X161402525Y-119019509D01*
X161487385Y-119019508D01*
X161486412Y-119023773D01*
X161486412Y-119023773D01*
G37*
X161486412Y-119023773D02*
X161485940Y-119026265D01*
X161484898Y-119032038D01*
X161483356Y-119040694D01*
X161481383Y-119051834D01*
X161479050Y-119065059D01*
X161476425Y-119079971D01*
X161473580Y-119096171D01*
X161470583Y-119113261D01*
X161467504Y-119130842D01*
X161464413Y-119148515D01*
X161461380Y-119165881D01*
X161458475Y-119182543D01*
X161455766Y-119198101D01*
X161453325Y-119212157D01*
X161451220Y-119224312D01*
X161449521Y-119234167D01*
X161448299Y-119241324D01*
X161447622Y-119245385D01*
X161447507Y-119246169D01*
X161449352Y-119246305D01*
X161454684Y-119246447D01*
X161463200Y-119246592D01*
X161474595Y-119246737D01*
X161488567Y-119246880D01*
X161504811Y-119247018D01*
X161523023Y-119247147D01*
X161542900Y-119247265D01*
X161564138Y-119247368D01*
X161579812Y-119247432D01*
X161712117Y-119247918D01*
X161704654Y-119289930D01*
X161697190Y-119331941D01*
X161690345Y-119333799D01*
X161685498Y-119335117D01*
X161678212Y-119337101D01*
X161669708Y-119339419D01*
X161665332Y-119340612D01*
X161626372Y-119350056D01*
X161585704Y-119357701D01*
X161544465Y-119363390D01*
X161503797Y-119366969D01*
X161464840Y-119368281D01*
X161462876Y-119368284D01*
X161425062Y-119368284D01*
X161423993Y-119373497D01*
X161423467Y-119376357D01*
X161422343Y-119382687D01*
X161420668Y-119392222D01*
X161418487Y-119404697D01*
X161415847Y-119419845D01*
X161412793Y-119437401D01*
X161409371Y-119457100D01*
X161405627Y-119478675D01*
X161401607Y-119501861D01*
X161397357Y-119526393D01*
X161392923Y-119552005D01*
X161388350Y-119578431D01*
X161383685Y-119605406D01*
X161378974Y-119632663D01*
X161374261Y-119659938D01*
X161369594Y-119686965D01*
X161365019Y-119713479D01*
X161360580Y-119739212D01*
X161356325Y-119763901D01*
X161352298Y-119787279D01*
X161348546Y-119809081D01*
X161345115Y-119829041D01*
X161342050Y-119846893D01*
X161339398Y-119862372D01*
X161337204Y-119875212D01*
X161335514Y-119885148D01*
X161334375Y-119891914D01*
X161333832Y-119895239D01*
X161331015Y-119920778D01*
X161330265Y-119945796D01*
X161331528Y-119969730D01*
X161334748Y-119992019D01*
X161339871Y-120012102D01*
X161346842Y-120029418D01*
X161347004Y-120029742D01*
X161352422Y-120038638D01*
X161359705Y-120048105D01*
X161367916Y-120057094D01*
X161376115Y-120064561D01*
X161381948Y-120068684D01*
X161386091Y-120071013D01*
X161390160Y-120072990D01*
X161394500Y-120074647D01*
X161399454Y-120076015D01*
X161405367Y-120077127D01*
X161412581Y-120078015D01*
X161421442Y-120078712D01*
X161432292Y-120079248D01*
X161445477Y-120079657D01*
X161461338Y-120079971D01*
X161480221Y-120080221D01*
X161502470Y-120080441D01*
X161508304Y-120080492D01*
X161602272Y-120081303D01*
X161596955Y-120111954D01*
X161594592Y-120125712D01*
X161592748Y-120136233D01*
X161591207Y-120144000D01*
X161589753Y-120149496D01*
X161588171Y-120153203D01*
X161586244Y-120155603D01*
X161583757Y-120157178D01*
X161580493Y-120158412D01*
X161576237Y-120159787D01*
X161575423Y-120160062D01*
X161556571Y-120165829D01*
X161534657Y-120171377D01*
X161510408Y-120176566D01*
X161484550Y-120181253D01*
X161457812Y-120185298D01*
X161430921Y-120188559D01*
X161426270Y-120189037D01*
X161403428Y-120191042D01*
X161383343Y-120192168D01*
X161365092Y-120192431D01*
X161347747Y-120191848D01*
X161333234Y-120190719D01*
X161303440Y-120186692D01*
X161276763Y-120180591D01*
X161253078Y-120172308D01*
X161232261Y-120161737D01*
X161214189Y-120148773D01*
X161198737Y-120133308D01*
X161185782Y-120115236D01*
X161175200Y-120094451D01*
X161166868Y-120070847D01*
X161160660Y-120044316D01*
X161160266Y-120042142D01*
X161158942Y-120031928D01*
X161157993Y-120018811D01*
X161157426Y-120003660D01*
X161157249Y-119987346D01*
X161157469Y-119970738D01*
X161158095Y-119954706D01*
X161159133Y-119940120D01*
X161159347Y-119937888D01*
X161159860Y-119932864D01*
X161160393Y-119927918D01*
X161160980Y-119922847D01*
X161161655Y-119917451D01*
X161162450Y-119911525D01*
X161163399Y-119904870D01*
X161164536Y-119897283D01*
X161165894Y-119888561D01*
X161167506Y-119878504D01*
X161169405Y-119866908D01*
X161171625Y-119853573D01*
X161174199Y-119838296D01*
X161177161Y-119820875D01*
X161180543Y-119801108D01*
X161184380Y-119778793D01*
X161188703Y-119753729D01*
X161193548Y-119725713D01*
X161198947Y-119694544D01*
X161204933Y-119660019D01*
X161210703Y-119626761D01*
X161215963Y-119596417D01*
X161221041Y-119567066D01*
X161225899Y-119538930D01*
X161230500Y-119512228D01*
X161234805Y-119487181D01*
X161238778Y-119464010D01*
X161242380Y-119442934D01*
X161245574Y-119424175D01*
X161248322Y-119407953D01*
X161250587Y-119394489D01*
X161252330Y-119384003D01*
X161253515Y-119376715D01*
X161254104Y-119372846D01*
X161254164Y-119372287D01*
X161254087Y-119371141D01*
X161253589Y-119370238D01*
X161252266Y-119369549D01*
X161249715Y-119369044D01*
X161245533Y-119368695D01*
X161239317Y-119368474D01*
X161230665Y-119368351D01*
X161219173Y-119368297D01*
X161204439Y-119368284D01*
X161198246Y-119368284D01*
X161181495Y-119368250D01*
X161168211Y-119368138D01*
X161158069Y-119367935D01*
X161150745Y-119367626D01*
X161145915Y-119367199D01*
X161143256Y-119366640D01*
X161142442Y-119365934D01*
X161142442Y-119365914D01*
X161142809Y-119363524D01*
X161143793Y-119357880D01*
X161145308Y-119349456D01*
X161147269Y-119338724D01*
X161149589Y-119326157D01*
X161152182Y-119312226D01*
X161153398Y-119305732D01*
X161164238Y-119247918D01*
X161278036Y-119246916D01*
X161297850Y-119133214D01*
X161317664Y-119019511D01*
X161402525Y-119019509D01*
X161487385Y-119019508D01*
X161486412Y-119023773D01*
G36*
X162308734Y-118830954D02*
X162343967Y-118832352D01*
X162379370Y-118834848D01*
X162414301Y-118838386D01*
X162448119Y-118842913D01*
X162480185Y-118848371D01*
X162509857Y-118854705D01*
X162536496Y-118861861D01*
X162538007Y-118862322D01*
X162546561Y-118865069D01*
X162551998Y-118867160D01*
X162554875Y-118868880D01*
X162555748Y-118870509D01*
X162555641Y-118871269D01*
X162555103Y-118873812D01*
X162554047Y-118879352D01*
X162552595Y-118887211D01*
X162550868Y-118896711D01*
X162548986Y-118907174D01*
X162547071Y-118917921D01*
X162545243Y-118928274D01*
X162543624Y-118937554D01*
X162542334Y-118945083D01*
X162541495Y-118950184D01*
X162541224Y-118952146D01*
X162539376Y-118952287D01*
X162534025Y-118952437D01*
X162525459Y-118952593D01*
X162513965Y-118952751D01*
X162499832Y-118952910D01*
X162483346Y-118953065D01*
X162464796Y-118953215D01*
X162444470Y-118953355D01*
X162422655Y-118953484D01*
X162399639Y-118953599D01*
X162393847Y-118953624D01*
X162365370Y-118953749D01*
X162340389Y-118953876D01*
X162318611Y-118954024D01*
X162299741Y-118954212D01*
X162283484Y-118954461D01*
X162269547Y-118954788D01*
X162257635Y-118955214D01*
X162247453Y-118955757D01*
X162238708Y-118956438D01*
X162231105Y-118957275D01*
X162224349Y-118958288D01*
X162218147Y-118959495D01*
X162212203Y-118960917D01*
X162206225Y-118962572D01*
X162199917Y-118964480D01*
X162192984Y-118966660D01*
X162192448Y-118966830D01*
X162167004Y-118976187D01*
X162144416Y-118987383D01*
X162124032Y-119000806D01*
X162105205Y-119016846D01*
X162099345Y-119022655D01*
X162080784Y-119044371D01*
X162064756Y-119068740D01*
X162051357Y-119095513D01*
X162040684Y-119124438D01*
X162032834Y-119155265D01*
X162027903Y-119187741D01*
X162026203Y-119212349D01*
X162026015Y-119234774D01*
X162027304Y-119254367D01*
X162030287Y-119271874D01*
X162035181Y-119288038D01*
X162042202Y-119303603D01*
X162051568Y-119319315D01*
X162061442Y-119333217D01*
X162070826Y-119345010D01*
X162080811Y-119356156D01*
X162091684Y-119366852D01*
X162103733Y-119377294D01*
X162117248Y-119387680D01*
X162132515Y-119398206D01*
X162149823Y-119409068D01*
X162169461Y-119420464D01*
X162191717Y-119432591D01*
X162216878Y-119445644D01*
X162245234Y-119459821D01*
X162251209Y-119462757D01*
X162272144Y-119473280D01*
X162290277Y-119483026D01*
X162306381Y-119492481D01*
X162321227Y-119502135D01*
X162335588Y-119512476D01*
X162350235Y-119523992D01*
X162357358Y-119529882D01*
X162376863Y-119547243D01*
X162393426Y-119564351D01*
X162407732Y-119582052D01*
X162420467Y-119601192D01*
X162431978Y-119621954D01*
X162441768Y-119642780D01*
X162449219Y-119662755D01*
X162454546Y-119682816D01*
X162457963Y-119703902D01*
X162459684Y-119726951D01*
X162459996Y-119744545D01*
X162458530Y-119781691D01*
X162454134Y-119819146D01*
X162449456Y-119845145D01*
X162439973Y-119886504D01*
X162429004Y-119924497D01*
X162416435Y-119959292D01*
X162402151Y-119991058D01*
X162386039Y-120019962D01*
X162367984Y-120046174D01*
X162347872Y-120069860D01*
X162325589Y-120091190D01*
X162301022Y-120110332D01*
X162274056Y-120127453D01*
X162249065Y-120140590D01*
X162223394Y-120152064D01*
X162197361Y-120161818D01*
X162170341Y-120170014D01*
X162141708Y-120176815D01*
X162110836Y-120182383D01*
X162077100Y-120186879D01*
X162065448Y-120188133D01*
X162056347Y-120188875D01*
X162044288Y-120189582D01*
X162029931Y-120190237D01*
X162013936Y-120190825D01*
X161996963Y-120191332D01*
X161979671Y-120191742D01*
X161962721Y-120192040D01*
X161946772Y-120192210D01*
X161932483Y-120192238D01*
X161920516Y-120192109D01*
X161911530Y-120191806D01*
X161910015Y-120191715D01*
X161884282Y-120189876D01*
X161861585Y-120188012D01*
X161841168Y-120186033D01*
X161822274Y-120183848D01*
X161804150Y-120181368D01*
X161786039Y-120178503D01*
X161767186Y-120175162D01*
X161760268Y-120173864D01*
X161748772Y-120171552D01*
X161736728Y-120168913D01*
X161724758Y-120166107D01*
X161713483Y-120163292D01*
X161703522Y-120160628D01*
X161695497Y-120158274D01*
X161690029Y-120156390D01*
X161687840Y-120155264D01*
X161687832Y-120153183D01*
X161688397Y-120148025D01*
X161689430Y-120140440D01*
X161690828Y-120131080D01*
X161692484Y-120120597D01*
X161694295Y-120109643D01*
X161696156Y-120098870D01*
X161697962Y-120088929D01*
X161699609Y-120080472D01*
X161700561Y-120076004D01*
X161701471Y-120071956D01*
X161850761Y-120070943D01*
X161880515Y-120070730D01*
X161906787Y-120070511D01*
X161929885Y-120070269D01*
X161950119Y-120069988D01*
X161967797Y-120069651D01*
X161983228Y-120069243D01*
X161996721Y-120068746D01*
X162008585Y-120068145D01*
X162019128Y-120067424D01*
X162028660Y-120066566D01*
X162037490Y-120065555D01*
X162045925Y-120064375D01*
X162054276Y-120063010D01*
X162062850Y-120061443D01*
X162071957Y-120059658D01*
X162074296Y-120059187D01*
X162105056Y-120051748D01*
X162132666Y-120042455D01*
X162157333Y-120031207D01*
X162179267Y-120017905D01*
X162198677Y-120002450D01*
X162203950Y-119997466D01*
X162221455Y-119978402D01*
X162236753Y-119957651D01*
X162250007Y-119934874D01*
X162261380Y-119909732D01*
X162271036Y-119881885D01*
X162279138Y-119850995D01*
X162282787Y-119833635D01*
X162284452Y-119822399D01*
X162285589Y-119809127D01*
X162286199Y-119794734D01*
X162286282Y-119780134D01*
X162285839Y-119766240D01*
X162284869Y-119753968D01*
X162283374Y-119744230D01*
X162282757Y-119741702D01*
X162277441Y-119726159D01*
X162270140Y-119711161D01*
X162260457Y-119696051D01*
X162247997Y-119680170D01*
X162240855Y-119672016D01*
X162229508Y-119660682D01*
X162215326Y-119648732D01*
X162198194Y-119636093D01*
X162177998Y-119622693D01*
X162154623Y-119608458D01*
X162127955Y-119593316D01*
X162097881Y-119577195D01*
X162068291Y-119562031D01*
X162047037Y-119551153D01*
X162028664Y-119541313D01*
X162012538Y-119532129D01*
X161998025Y-119523221D01*
X161984490Y-119514207D01*
X161971299Y-119504708D01*
X161965426Y-119500264D01*
X161939947Y-119478644D01*
X161917750Y-119455287D01*
X161898609Y-119429893D01*
X161882298Y-119402163D01*
X161868702Y-119372075D01*
X161860971Y-119348039D01*
X161855556Y-119321296D01*
X161852454Y-119292140D01*
X161851664Y-119260866D01*
X161853184Y-119227768D01*
X161857012Y-119193138D01*
X161863146Y-119157272D01*
X161870266Y-119125657D01*
X161881623Y-119086293D01*
X161895301Y-119049897D01*
X161911345Y-119016403D01*
X161929801Y-118985746D01*
X161950716Y-118957862D01*
X161974134Y-118932684D01*
X162000102Y-118910148D01*
X162028666Y-118890188D01*
X162041286Y-118882650D01*
X162064558Y-118870896D01*
X162090839Y-118860328D01*
X162119481Y-118851135D01*
X162149836Y-118843501D01*
X162181256Y-118837614D01*
X162210455Y-118833910D01*
X162241337Y-118831678D01*
X162274311Y-118830711D01*
X162308734Y-118830954D01*
X162308734Y-118830954D01*
G37*
X162308734Y-118830954D02*
X162343967Y-118832352D01*
X162379370Y-118834848D01*
X162414301Y-118838386D01*
X162448119Y-118842913D01*
X162480185Y-118848371D01*
X162509857Y-118854705D01*
X162536496Y-118861861D01*
X162538007Y-118862322D01*
X162546561Y-118865069D01*
X162551998Y-118867160D01*
X162554875Y-118868880D01*
X162555748Y-118870509D01*
X162555641Y-118871269D01*
X162555103Y-118873812D01*
X162554047Y-118879352D01*
X162552595Y-118887211D01*
X162550868Y-118896711D01*
X162548986Y-118907174D01*
X162547071Y-118917921D01*
X162545243Y-118928274D01*
X162543624Y-118937554D01*
X162542334Y-118945083D01*
X162541495Y-118950184D01*
X162541224Y-118952146D01*
X162539376Y-118952287D01*
X162534025Y-118952437D01*
X162525459Y-118952593D01*
X162513965Y-118952751D01*
X162499832Y-118952910D01*
X162483346Y-118953065D01*
X162464796Y-118953215D01*
X162444470Y-118953355D01*
X162422655Y-118953484D01*
X162399639Y-118953599D01*
X162393847Y-118953624D01*
X162365370Y-118953749D01*
X162340389Y-118953876D01*
X162318611Y-118954024D01*
X162299741Y-118954212D01*
X162283484Y-118954461D01*
X162269547Y-118954788D01*
X162257635Y-118955214D01*
X162247453Y-118955757D01*
X162238708Y-118956438D01*
X162231105Y-118957275D01*
X162224349Y-118958288D01*
X162218147Y-118959495D01*
X162212203Y-118960917D01*
X162206225Y-118962572D01*
X162199917Y-118964480D01*
X162192984Y-118966660D01*
X162192448Y-118966830D01*
X162167004Y-118976187D01*
X162144416Y-118987383D01*
X162124032Y-119000806D01*
X162105205Y-119016846D01*
X162099345Y-119022655D01*
X162080784Y-119044371D01*
X162064756Y-119068740D01*
X162051357Y-119095513D01*
X162040684Y-119124438D01*
X162032834Y-119155265D01*
X162027903Y-119187741D01*
X162026203Y-119212349D01*
X162026015Y-119234774D01*
X162027304Y-119254367D01*
X162030287Y-119271874D01*
X162035181Y-119288038D01*
X162042202Y-119303603D01*
X162051568Y-119319315D01*
X162061442Y-119333217D01*
X162070826Y-119345010D01*
X162080811Y-119356156D01*
X162091684Y-119366852D01*
X162103733Y-119377294D01*
X162117248Y-119387680D01*
X162132515Y-119398206D01*
X162149823Y-119409068D01*
X162169461Y-119420464D01*
X162191717Y-119432591D01*
X162216878Y-119445644D01*
X162245234Y-119459821D01*
X162251209Y-119462757D01*
X162272144Y-119473280D01*
X162290277Y-119483026D01*
X162306381Y-119492481D01*
X162321227Y-119502135D01*
X162335588Y-119512476D01*
X162350235Y-119523992D01*
X162357358Y-119529882D01*
X162376863Y-119547243D01*
X162393426Y-119564351D01*
X162407732Y-119582052D01*
X162420467Y-119601192D01*
X162431978Y-119621954D01*
X162441768Y-119642780D01*
X162449219Y-119662755D01*
X162454546Y-119682816D01*
X162457963Y-119703902D01*
X162459684Y-119726951D01*
X162459996Y-119744545D01*
X162458530Y-119781691D01*
X162454134Y-119819146D01*
X162449456Y-119845145D01*
X162439973Y-119886504D01*
X162429004Y-119924497D01*
X162416435Y-119959292D01*
X162402151Y-119991058D01*
X162386039Y-120019962D01*
X162367984Y-120046174D01*
X162347872Y-120069860D01*
X162325589Y-120091190D01*
X162301022Y-120110332D01*
X162274056Y-120127453D01*
X162249065Y-120140590D01*
X162223394Y-120152064D01*
X162197361Y-120161818D01*
X162170341Y-120170014D01*
X162141708Y-120176815D01*
X162110836Y-120182383D01*
X162077100Y-120186879D01*
X162065448Y-120188133D01*
X162056347Y-120188875D01*
X162044288Y-120189582D01*
X162029931Y-120190237D01*
X162013936Y-120190825D01*
X161996963Y-120191332D01*
X161979671Y-120191742D01*
X161962721Y-120192040D01*
X161946772Y-120192210D01*
X161932483Y-120192238D01*
X161920516Y-120192109D01*
X161911530Y-120191806D01*
X161910015Y-120191715D01*
X161884282Y-120189876D01*
X161861585Y-120188012D01*
X161841168Y-120186033D01*
X161822274Y-120183848D01*
X161804150Y-120181368D01*
X161786039Y-120178503D01*
X161767186Y-120175162D01*
X161760268Y-120173864D01*
X161748772Y-120171552D01*
X161736728Y-120168913D01*
X161724758Y-120166107D01*
X161713483Y-120163292D01*
X161703522Y-120160628D01*
X161695497Y-120158274D01*
X161690029Y-120156390D01*
X161687840Y-120155264D01*
X161687832Y-120153183D01*
X161688397Y-120148025D01*
X161689430Y-120140440D01*
X161690828Y-120131080D01*
X161692484Y-120120597D01*
X161694295Y-120109643D01*
X161696156Y-120098870D01*
X161697962Y-120088929D01*
X161699609Y-120080472D01*
X161700561Y-120076004D01*
X161701471Y-120071956D01*
X161850761Y-120070943D01*
X161880515Y-120070730D01*
X161906787Y-120070511D01*
X161929885Y-120070269D01*
X161950119Y-120069988D01*
X161967797Y-120069651D01*
X161983228Y-120069243D01*
X161996721Y-120068746D01*
X162008585Y-120068145D01*
X162019128Y-120067424D01*
X162028660Y-120066566D01*
X162037490Y-120065555D01*
X162045925Y-120064375D01*
X162054276Y-120063010D01*
X162062850Y-120061443D01*
X162071957Y-120059658D01*
X162074296Y-120059187D01*
X162105056Y-120051748D01*
X162132666Y-120042455D01*
X162157333Y-120031207D01*
X162179267Y-120017905D01*
X162198677Y-120002450D01*
X162203950Y-119997466D01*
X162221455Y-119978402D01*
X162236753Y-119957651D01*
X162250007Y-119934874D01*
X162261380Y-119909732D01*
X162271036Y-119881885D01*
X162279138Y-119850995D01*
X162282787Y-119833635D01*
X162284452Y-119822399D01*
X162285589Y-119809127D01*
X162286199Y-119794734D01*
X162286282Y-119780134D01*
X162285839Y-119766240D01*
X162284869Y-119753968D01*
X162283374Y-119744230D01*
X162282757Y-119741702D01*
X162277441Y-119726159D01*
X162270140Y-119711161D01*
X162260457Y-119696051D01*
X162247997Y-119680170D01*
X162240855Y-119672016D01*
X162229508Y-119660682D01*
X162215326Y-119648732D01*
X162198194Y-119636093D01*
X162177998Y-119622693D01*
X162154623Y-119608458D01*
X162127955Y-119593316D01*
X162097881Y-119577195D01*
X162068291Y-119562031D01*
X162047037Y-119551153D01*
X162028664Y-119541313D01*
X162012538Y-119532129D01*
X161998025Y-119523221D01*
X161984490Y-119514207D01*
X161971299Y-119504708D01*
X161965426Y-119500264D01*
X161939947Y-119478644D01*
X161917750Y-119455287D01*
X161898609Y-119429893D01*
X161882298Y-119402163D01*
X161868702Y-119372075D01*
X161860971Y-119348039D01*
X161855556Y-119321296D01*
X161852454Y-119292140D01*
X161851664Y-119260866D01*
X161853184Y-119227768D01*
X161857012Y-119193138D01*
X161863146Y-119157272D01*
X161870266Y-119125657D01*
X161881623Y-119086293D01*
X161895301Y-119049897D01*
X161911345Y-119016403D01*
X161929801Y-118985746D01*
X161950716Y-118957862D01*
X161974134Y-118932684D01*
X162000102Y-118910148D01*
X162028666Y-118890188D01*
X162041286Y-118882650D01*
X162064558Y-118870896D01*
X162090839Y-118860328D01*
X162119481Y-118851135D01*
X162149836Y-118843501D01*
X162181256Y-118837614D01*
X162210455Y-118833910D01*
X162241337Y-118831678D01*
X162274311Y-118830711D01*
X162308734Y-118830954D01*
G36*
X162983834Y-119023773D02*
X162983351Y-119026283D01*
X162982298Y-119032077D01*
X162980747Y-119040755D01*
X162978766Y-119051916D01*
X162976425Y-119065163D01*
X162973795Y-119080094D01*
X162970944Y-119096310D01*
X162967944Y-119113412D01*
X162964864Y-119131001D01*
X162961774Y-119148676D01*
X162958743Y-119166038D01*
X162955842Y-119182687D01*
X162953141Y-119198225D01*
X162950708Y-119212251D01*
X162948616Y-119224366D01*
X162946932Y-119234170D01*
X162945727Y-119241264D01*
X162945071Y-119245248D01*
X162944970Y-119245972D01*
X162946815Y-119246141D01*
X162952147Y-119246314D01*
X162960662Y-119246488D01*
X162972057Y-119246660D01*
X162986028Y-119246826D01*
X163002270Y-119246983D01*
X163020481Y-119247128D01*
X163040356Y-119247257D01*
X163061591Y-119247367D01*
X163077202Y-119247432D01*
X163209435Y-119247918D01*
X163201987Y-119289944D01*
X163194540Y-119331970D01*
X163187751Y-119333813D01*
X163182931Y-119335124D01*
X163175669Y-119337102D01*
X163167179Y-119339417D01*
X163162795Y-119340612D01*
X163123835Y-119350056D01*
X163083166Y-119357701D01*
X163041928Y-119363390D01*
X163001260Y-119366969D01*
X162962302Y-119368281D01*
X162960339Y-119368284D01*
X162922525Y-119368284D01*
X162921423Y-119373497D01*
X162920469Y-119378371D01*
X162918948Y-119386625D01*
X162916904Y-119397991D01*
X162914383Y-119412203D01*
X162911431Y-119428994D01*
X162908093Y-119448097D01*
X162904415Y-119469246D01*
X162900442Y-119492174D01*
X162896220Y-119516614D01*
X162891795Y-119542300D01*
X162887211Y-119568965D01*
X162882515Y-119596342D01*
X162877752Y-119624165D01*
X162872968Y-119652167D01*
X162868207Y-119680081D01*
X162863516Y-119707641D01*
X162858941Y-119734579D01*
X162854526Y-119760630D01*
X162850317Y-119785527D01*
X162846360Y-119809002D01*
X162842700Y-119830790D01*
X162839383Y-119850624D01*
X162836454Y-119868236D01*
X162833959Y-119883360D01*
X162831944Y-119895731D01*
X162830453Y-119905080D01*
X162829534Y-119911141D01*
X162829257Y-119913247D01*
X162827650Y-119939963D01*
X162828425Y-119965065D01*
X162831502Y-119988310D01*
X162836805Y-120009458D01*
X162844255Y-120028265D01*
X162853774Y-120044492D01*
X162865284Y-120057896D01*
X162878706Y-120068236D01*
X162879600Y-120068771D01*
X162883695Y-120071082D01*
X162887734Y-120073044D01*
X162892060Y-120074687D01*
X162897016Y-120076045D01*
X162902946Y-120077149D01*
X162910191Y-120078031D01*
X162919096Y-120078723D01*
X162930004Y-120079257D01*
X162943258Y-120079664D01*
X162959200Y-120079977D01*
X162978175Y-120080227D01*
X163000524Y-120080446D01*
X163005729Y-120080492D01*
X163099660Y-120081303D01*
X163093450Y-120116609D01*
X163091459Y-120127805D01*
X163089647Y-120137761D01*
X163088130Y-120145857D01*
X163087024Y-120151470D01*
X163086447Y-120153982D01*
X163086442Y-120153995D01*
X163084325Y-120155424D01*
X163079185Y-120157559D01*
X163071681Y-120160197D01*
X163062472Y-120163136D01*
X163052214Y-120166173D01*
X163041566Y-120169105D01*
X163031187Y-120171729D01*
X163022686Y-120173645D01*
X162986034Y-120180635D01*
X162950862Y-120186022D01*
X162917541Y-120189773D01*
X162886443Y-120191855D01*
X162857940Y-120192233D01*
X162832404Y-120190875D01*
X162831571Y-120190796D01*
X162802001Y-120186812D01*
X162775550Y-120180845D01*
X162752075Y-120172842D01*
X162731432Y-120162748D01*
X162713476Y-120150510D01*
X162706044Y-120144113D01*
X162696942Y-120135032D01*
X162689556Y-120125957D01*
X162682956Y-120115615D01*
X162677047Y-120104429D01*
X162668278Y-120083745D01*
X162661630Y-120061224D01*
X162657082Y-120036638D01*
X162654613Y-120009758D01*
X162654204Y-119980356D01*
X162655834Y-119948204D01*
X162659483Y-119913073D01*
X162659798Y-119910610D01*
X162660466Y-119906090D01*
X162661745Y-119898074D01*
X162663593Y-119886799D01*
X162665971Y-119872506D01*
X162668838Y-119855431D01*
X162672154Y-119835814D01*
X162675877Y-119813893D01*
X162679968Y-119789906D01*
X162684385Y-119764092D01*
X162689089Y-119736690D01*
X162694039Y-119707937D01*
X162699193Y-119678072D01*
X162704512Y-119647334D01*
X162707139Y-119632187D01*
X162712461Y-119601486D01*
X162717601Y-119571781D01*
X162722522Y-119543289D01*
X162727187Y-119516228D01*
X162731559Y-119490815D01*
X162735601Y-119467267D01*
X162739275Y-119445803D01*
X162742544Y-119426639D01*
X162745370Y-119409993D01*
X162747718Y-119396084D01*
X162749549Y-119385127D01*
X162750827Y-119377342D01*
X162751514Y-119372945D01*
X162751627Y-119372026D01*
X162751506Y-119370957D01*
X162750876Y-119370113D01*
X162749335Y-119369468D01*
X162746482Y-119368996D01*
X162741914Y-119368670D01*
X162735230Y-119368462D01*
X162726028Y-119368346D01*
X162713907Y-119368296D01*
X162698465Y-119368284D01*
X162639349Y-119368284D01*
X162640348Y-119363071D01*
X162640936Y-119359921D01*
X162642108Y-119353557D01*
X162643771Y-119344499D01*
X162645830Y-119333262D01*
X162648190Y-119320363D01*
X162650756Y-119306320D01*
X162651469Y-119302415D01*
X162661589Y-119246971D01*
X162718485Y-119246971D01*
X162775380Y-119246970D01*
X162795224Y-119133239D01*
X162815067Y-119019508D01*
X162984848Y-119019508D01*
X162983834Y-119023773D01*
X162983834Y-119023773D01*
G37*
X162983834Y-119023773D02*
X162983351Y-119026283D01*
X162982298Y-119032077D01*
X162980747Y-119040755D01*
X162978766Y-119051916D01*
X162976425Y-119065163D01*
X162973795Y-119080094D01*
X162970944Y-119096310D01*
X162967944Y-119113412D01*
X162964864Y-119131001D01*
X162961774Y-119148676D01*
X162958743Y-119166038D01*
X162955842Y-119182687D01*
X162953141Y-119198225D01*
X162950708Y-119212251D01*
X162948616Y-119224366D01*
X162946932Y-119234170D01*
X162945727Y-119241264D01*
X162945071Y-119245248D01*
X162944970Y-119245972D01*
X162946815Y-119246141D01*
X162952147Y-119246314D01*
X162960662Y-119246488D01*
X162972057Y-119246660D01*
X162986028Y-119246826D01*
X163002270Y-119246983D01*
X163020481Y-119247128D01*
X163040356Y-119247257D01*
X163061591Y-119247367D01*
X163077202Y-119247432D01*
X163209435Y-119247918D01*
X163201987Y-119289944D01*
X163194540Y-119331970D01*
X163187751Y-119333813D01*
X163182931Y-119335124D01*
X163175669Y-119337102D01*
X163167179Y-119339417D01*
X163162795Y-119340612D01*
X163123835Y-119350056D01*
X163083166Y-119357701D01*
X163041928Y-119363390D01*
X163001260Y-119366969D01*
X162962302Y-119368281D01*
X162960339Y-119368284D01*
X162922525Y-119368284D01*
X162921423Y-119373497D01*
X162920469Y-119378371D01*
X162918948Y-119386625D01*
X162916904Y-119397991D01*
X162914383Y-119412203D01*
X162911431Y-119428994D01*
X162908093Y-119448097D01*
X162904415Y-119469246D01*
X162900442Y-119492174D01*
X162896220Y-119516614D01*
X162891795Y-119542300D01*
X162887211Y-119568965D01*
X162882515Y-119596342D01*
X162877752Y-119624165D01*
X162872968Y-119652167D01*
X162868207Y-119680081D01*
X162863516Y-119707641D01*
X162858941Y-119734579D01*
X162854526Y-119760630D01*
X162850317Y-119785527D01*
X162846360Y-119809002D01*
X162842700Y-119830790D01*
X162839383Y-119850624D01*
X162836454Y-119868236D01*
X162833959Y-119883360D01*
X162831944Y-119895731D01*
X162830453Y-119905080D01*
X162829534Y-119911141D01*
X162829257Y-119913247D01*
X162827650Y-119939963D01*
X162828425Y-119965065D01*
X162831502Y-119988310D01*
X162836805Y-120009458D01*
X162844255Y-120028265D01*
X162853774Y-120044492D01*
X162865284Y-120057896D01*
X162878706Y-120068236D01*
X162879600Y-120068771D01*
X162883695Y-120071082D01*
X162887734Y-120073044D01*
X162892060Y-120074687D01*
X162897016Y-120076045D01*
X162902946Y-120077149D01*
X162910191Y-120078031D01*
X162919096Y-120078723D01*
X162930004Y-120079257D01*
X162943258Y-120079664D01*
X162959200Y-120079977D01*
X162978175Y-120080227D01*
X163000524Y-120080446D01*
X163005729Y-120080492D01*
X163099660Y-120081303D01*
X163093450Y-120116609D01*
X163091459Y-120127805D01*
X163089647Y-120137761D01*
X163088130Y-120145857D01*
X163087024Y-120151470D01*
X163086447Y-120153982D01*
X163086442Y-120153995D01*
X163084325Y-120155424D01*
X163079185Y-120157559D01*
X163071681Y-120160197D01*
X163062472Y-120163136D01*
X163052214Y-120166173D01*
X163041566Y-120169105D01*
X163031187Y-120171729D01*
X163022686Y-120173645D01*
X162986034Y-120180635D01*
X162950862Y-120186022D01*
X162917541Y-120189773D01*
X162886443Y-120191855D01*
X162857940Y-120192233D01*
X162832404Y-120190875D01*
X162831571Y-120190796D01*
X162802001Y-120186812D01*
X162775550Y-120180845D01*
X162752075Y-120172842D01*
X162731432Y-120162748D01*
X162713476Y-120150510D01*
X162706044Y-120144113D01*
X162696942Y-120135032D01*
X162689556Y-120125957D01*
X162682956Y-120115615D01*
X162677047Y-120104429D01*
X162668278Y-120083745D01*
X162661630Y-120061224D01*
X162657082Y-120036638D01*
X162654613Y-120009758D01*
X162654204Y-119980356D01*
X162655834Y-119948204D01*
X162659483Y-119913073D01*
X162659798Y-119910610D01*
X162660466Y-119906090D01*
X162661745Y-119898074D01*
X162663593Y-119886799D01*
X162665971Y-119872506D01*
X162668838Y-119855431D01*
X162672154Y-119835814D01*
X162675877Y-119813893D01*
X162679968Y-119789906D01*
X162684385Y-119764092D01*
X162689089Y-119736690D01*
X162694039Y-119707937D01*
X162699193Y-119678072D01*
X162704512Y-119647334D01*
X162707139Y-119632187D01*
X162712461Y-119601486D01*
X162717601Y-119571781D01*
X162722522Y-119543289D01*
X162727187Y-119516228D01*
X162731559Y-119490815D01*
X162735601Y-119467267D01*
X162739275Y-119445803D01*
X162742544Y-119426639D01*
X162745370Y-119409993D01*
X162747718Y-119396084D01*
X162749549Y-119385127D01*
X162750827Y-119377342D01*
X162751514Y-119372945D01*
X162751627Y-119372026D01*
X162751506Y-119370957D01*
X162750876Y-119370113D01*
X162749335Y-119369468D01*
X162746482Y-119368996D01*
X162741914Y-119368670D01*
X162735230Y-119368462D01*
X162726028Y-119368346D01*
X162713907Y-119368296D01*
X162698465Y-119368284D01*
X162639349Y-119368284D01*
X162640348Y-119363071D01*
X162640936Y-119359921D01*
X162642108Y-119353557D01*
X162643771Y-119344499D01*
X162645830Y-119333262D01*
X162648190Y-119320363D01*
X162650756Y-119306320D01*
X162651469Y-119302415D01*
X162661589Y-119246971D01*
X162718485Y-119246971D01*
X162775380Y-119246970D01*
X162795224Y-119133239D01*
X162815067Y-119019508D01*
X162984848Y-119019508D01*
X162983834Y-119023773D01*
G36*
X163747524Y-119210320D02*
X163766762Y-119210863D01*
X163784461Y-119211708D01*
X163799861Y-119212855D01*
X163806485Y-119213544D01*
X163836211Y-119217623D01*
X163866505Y-119222905D01*
X163896652Y-119229213D01*
X163925936Y-119236371D01*
X163953641Y-119244203D01*
X163979053Y-119252532D01*
X164001455Y-119261184D01*
X164003296Y-119261971D01*
X164008622Y-119264470D01*
X164011161Y-119266532D01*
X164011684Y-119269034D01*
X164011345Y-119271136D01*
X164010922Y-119273456D01*
X164009875Y-119279347D01*
X164008234Y-119288642D01*
X164006027Y-119301179D01*
X164003283Y-119316792D01*
X164000030Y-119335316D01*
X163996299Y-119356588D01*
X163992116Y-119380442D01*
X163987513Y-119406714D01*
X163982516Y-119435239D01*
X163977155Y-119465853D01*
X163971460Y-119498391D01*
X163965458Y-119532689D01*
X163959178Y-119568582D01*
X163952650Y-119605906D01*
X163945902Y-119644495D01*
X163938963Y-119684186D01*
X163932554Y-119720851D01*
X163925470Y-119761382D01*
X163918551Y-119800953D01*
X163911826Y-119839400D01*
X163905325Y-119876559D01*
X163899075Y-119912266D01*
X163893107Y-119946356D01*
X163887447Y-119978666D01*
X163882127Y-120009032D01*
X163877173Y-120037289D01*
X163872615Y-120063273D01*
X163868482Y-120086821D01*
X163864802Y-120107767D01*
X163861604Y-120125949D01*
X163858917Y-120141201D01*
X163856770Y-120153360D01*
X163855192Y-120162262D01*
X163854210Y-120167742D01*
X163853861Y-120169616D01*
X163852853Y-120173881D01*
X163712656Y-120173881D01*
X163712656Y-120117015D01*
X163707833Y-120117015D01*
X163703979Y-120118190D01*
X163697749Y-120121517D01*
X163689661Y-120126702D01*
X163684612Y-120130235D01*
X163655103Y-120149134D01*
X163623905Y-120164685D01*
X163591186Y-120176845D01*
X163557118Y-120185570D01*
X163521869Y-120190818D01*
X163485608Y-120192544D01*
X163448740Y-120190727D01*
X163420315Y-120186786D01*
X163393795Y-120180689D01*
X163369529Y-120172561D01*
X163347864Y-120162527D01*
X163329149Y-120150711D01*
X163322806Y-120145715D01*
X163306592Y-120130369D01*
X163292427Y-120113176D01*
X163280202Y-120093887D01*
X163269811Y-120072251D01*
X163261147Y-120048016D01*
X163254102Y-120020932D01*
X163248570Y-119990748D01*
X163245117Y-119963791D01*
X163243242Y-119937692D01*
X163242822Y-119908380D01*
X163243050Y-119901057D01*
X163415043Y-119901057D01*
X163416883Y-119931671D01*
X163420590Y-119959340D01*
X163426160Y-119983959D01*
X163433589Y-120005426D01*
X163438270Y-120015476D01*
X163446366Y-120028602D01*
X163456563Y-120041160D01*
X163467986Y-120052238D01*
X163479756Y-120060924D01*
X163484556Y-120063621D01*
X163502404Y-120070846D01*
X163522856Y-120075983D01*
X163545309Y-120078964D01*
X163569160Y-120079721D01*
X163593807Y-120078188D01*
X163603664Y-120076931D01*
X163633173Y-120070945D01*
X163662912Y-120061705D01*
X163688217Y-120051239D01*
X163706426Y-120042774D01*
X163712499Y-120008339D01*
X163713484Y-120002758D01*
X163715089Y-119993661D01*
X163717277Y-119981265D01*
X163720008Y-119965787D01*
X163723246Y-119947444D01*
X163726951Y-119926453D01*
X163731086Y-119903031D01*
X163735611Y-119877394D01*
X163740489Y-119849761D01*
X163745681Y-119820348D01*
X163751149Y-119789373D01*
X163756855Y-119757051D01*
X163762760Y-119723601D01*
X163768826Y-119689239D01*
X163775014Y-119654183D01*
X163775961Y-119648821D01*
X163782056Y-119614263D01*
X163787963Y-119580709D01*
X163793648Y-119548350D01*
X163799080Y-119517376D01*
X163804224Y-119487978D01*
X163809047Y-119460347D01*
X163813517Y-119434672D01*
X163817601Y-119411144D01*
X163821265Y-119389954D01*
X163824477Y-119371291D01*
X163827203Y-119355347D01*
X163829411Y-119342312D01*
X163831067Y-119332377D01*
X163832138Y-119325731D01*
X163832591Y-119322565D01*
X163832600Y-119322317D01*
X163830546Y-119321901D01*
X163825193Y-119321561D01*
X163817031Y-119321296D01*
X163806552Y-119321105D01*
X163794245Y-119320986D01*
X163780601Y-119320937D01*
X163766112Y-119320957D01*
X163751268Y-119321043D01*
X163736559Y-119321195D01*
X163722477Y-119321409D01*
X163709513Y-119321685D01*
X163698156Y-119322022D01*
X163688899Y-119322416D01*
X163682511Y-119322841D01*
X163656760Y-119326282D01*
X163633686Y-119331946D01*
X163612724Y-119340086D01*
X163593312Y-119350958D01*
X163574885Y-119364815D01*
X163560996Y-119377698D01*
X163552481Y-119386759D01*
X163543690Y-119396997D01*
X163535744Y-119407066D01*
X163530960Y-119413776D01*
X163524660Y-119423922D01*
X163517416Y-119436736D01*
X163509661Y-119451351D01*
X163501827Y-119466902D01*
X163494345Y-119482524D01*
X163487647Y-119497351D01*
X163482165Y-119510517D01*
X163480424Y-119515084D01*
X163471551Y-119541288D01*
X163462874Y-119571147D01*
X163454424Y-119604529D01*
X163446232Y-119641301D01*
X163438326Y-119681332D01*
X163430738Y-119724489D01*
X163426451Y-119751179D01*
X163420774Y-119792556D01*
X163416984Y-119831397D01*
X163415075Y-119867598D01*
X163415043Y-119901057D01*
X163243050Y-119901057D01*
X163243827Y-119876128D01*
X163246230Y-119841214D01*
X163249999Y-119803911D01*
X163255106Y-119764494D01*
X163261523Y-119723238D01*
X163269218Y-119680419D01*
X163278164Y-119636311D01*
X163281637Y-119620388D01*
X163293713Y-119570613D01*
X163307050Y-119524391D01*
X163321661Y-119481697D01*
X163337558Y-119442506D01*
X163354754Y-119406791D01*
X163373260Y-119374528D01*
X163393089Y-119345691D01*
X163414254Y-119320253D01*
X163436361Y-119298546D01*
X163459202Y-119280023D01*
X163483095Y-119263959D01*
X163508430Y-119250194D01*
X163535599Y-119238564D01*
X163564992Y-119228910D01*
X163596999Y-119221069D01*
X163632011Y-119214880D01*
X163642323Y-119213432D01*
X163654841Y-119212153D01*
X163670378Y-119211178D01*
X163688175Y-119210508D01*
X163707471Y-119210142D01*
X163727507Y-119210079D01*
X163747524Y-119210320D01*
X163747524Y-119210320D01*
G37*
X163747524Y-119210320D02*
X163766762Y-119210863D01*
X163784461Y-119211708D01*
X163799861Y-119212855D01*
X163806485Y-119213544D01*
X163836211Y-119217623D01*
X163866505Y-119222905D01*
X163896652Y-119229213D01*
X163925936Y-119236371D01*
X163953641Y-119244203D01*
X163979053Y-119252532D01*
X164001455Y-119261184D01*
X164003296Y-119261971D01*
X164008622Y-119264470D01*
X164011161Y-119266532D01*
X164011684Y-119269034D01*
X164011345Y-119271136D01*
X164010922Y-119273456D01*
X164009875Y-119279347D01*
X164008234Y-119288642D01*
X164006027Y-119301179D01*
X164003283Y-119316792D01*
X164000030Y-119335316D01*
X163996299Y-119356588D01*
X163992116Y-119380442D01*
X163987513Y-119406714D01*
X163982516Y-119435239D01*
X163977155Y-119465853D01*
X163971460Y-119498391D01*
X163965458Y-119532689D01*
X163959178Y-119568582D01*
X163952650Y-119605906D01*
X163945902Y-119644495D01*
X163938963Y-119684186D01*
X163932554Y-119720851D01*
X163925470Y-119761382D01*
X163918551Y-119800953D01*
X163911826Y-119839400D01*
X163905325Y-119876559D01*
X163899075Y-119912266D01*
X163893107Y-119946356D01*
X163887447Y-119978666D01*
X163882127Y-120009032D01*
X163877173Y-120037289D01*
X163872615Y-120063273D01*
X163868482Y-120086821D01*
X163864802Y-120107767D01*
X163861604Y-120125949D01*
X163858917Y-120141201D01*
X163856770Y-120153360D01*
X163855192Y-120162262D01*
X163854210Y-120167742D01*
X163853861Y-120169616D01*
X163852853Y-120173881D01*
X163712656Y-120173881D01*
X163712656Y-120117015D01*
X163707833Y-120117015D01*
X163703979Y-120118190D01*
X163697749Y-120121517D01*
X163689661Y-120126702D01*
X163684612Y-120130235D01*
X163655103Y-120149134D01*
X163623905Y-120164685D01*
X163591186Y-120176845D01*
X163557118Y-120185570D01*
X163521869Y-120190818D01*
X163485608Y-120192544D01*
X163448740Y-120190727D01*
X163420315Y-120186786D01*
X163393795Y-120180689D01*
X163369529Y-120172561D01*
X163347864Y-120162527D01*
X163329149Y-120150711D01*
X163322806Y-120145715D01*
X163306592Y-120130369D01*
X163292427Y-120113176D01*
X163280202Y-120093887D01*
X163269811Y-120072251D01*
X163261147Y-120048016D01*
X163254102Y-120020932D01*
X163248570Y-119990748D01*
X163245117Y-119963791D01*
X163243242Y-119937692D01*
X163242822Y-119908380D01*
X163243050Y-119901057D01*
X163415043Y-119901057D01*
X163416883Y-119931671D01*
X163420590Y-119959340D01*
X163426160Y-119983959D01*
X163433589Y-120005426D01*
X163438270Y-120015476D01*
X163446366Y-120028602D01*
X163456563Y-120041160D01*
X163467986Y-120052238D01*
X163479756Y-120060924D01*
X163484556Y-120063621D01*
X163502404Y-120070846D01*
X163522856Y-120075983D01*
X163545309Y-120078964D01*
X163569160Y-120079721D01*
X163593807Y-120078188D01*
X163603664Y-120076931D01*
X163633173Y-120070945D01*
X163662912Y-120061705D01*
X163688217Y-120051239D01*
X163706426Y-120042774D01*
X163712499Y-120008339D01*
X163713484Y-120002758D01*
X163715089Y-119993661D01*
X163717277Y-119981265D01*
X163720008Y-119965787D01*
X163723246Y-119947444D01*
X163726951Y-119926453D01*
X163731086Y-119903031D01*
X163735611Y-119877394D01*
X163740489Y-119849761D01*
X163745681Y-119820348D01*
X163751149Y-119789373D01*
X163756855Y-119757051D01*
X163762760Y-119723601D01*
X163768826Y-119689239D01*
X163775014Y-119654183D01*
X163775961Y-119648821D01*
X163782056Y-119614263D01*
X163787963Y-119580709D01*
X163793648Y-119548350D01*
X163799080Y-119517376D01*
X163804224Y-119487978D01*
X163809047Y-119460347D01*
X163813517Y-119434672D01*
X163817601Y-119411144D01*
X163821265Y-119389954D01*
X163824477Y-119371291D01*
X163827203Y-119355347D01*
X163829411Y-119342312D01*
X163831067Y-119332377D01*
X163832138Y-119325731D01*
X163832591Y-119322565D01*
X163832600Y-119322317D01*
X163830546Y-119321901D01*
X163825193Y-119321561D01*
X163817031Y-119321296D01*
X163806552Y-119321105D01*
X163794245Y-119320986D01*
X163780601Y-119320937D01*
X163766112Y-119320957D01*
X163751268Y-119321043D01*
X163736559Y-119321195D01*
X163722477Y-119321409D01*
X163709513Y-119321685D01*
X163698156Y-119322022D01*
X163688899Y-119322416D01*
X163682511Y-119322841D01*
X163656760Y-119326282D01*
X163633686Y-119331946D01*
X163612724Y-119340086D01*
X163593312Y-119350958D01*
X163574885Y-119364815D01*
X163560996Y-119377698D01*
X163552481Y-119386759D01*
X163543690Y-119396997D01*
X163535744Y-119407066D01*
X163530960Y-119413776D01*
X163524660Y-119423922D01*
X163517416Y-119436736D01*
X163509661Y-119451351D01*
X163501827Y-119466902D01*
X163494345Y-119482524D01*
X163487647Y-119497351D01*
X163482165Y-119510517D01*
X163480424Y-119515084D01*
X163471551Y-119541288D01*
X163462874Y-119571147D01*
X163454424Y-119604529D01*
X163446232Y-119641301D01*
X163438326Y-119681332D01*
X163430738Y-119724489D01*
X163426451Y-119751179D01*
X163420774Y-119792556D01*
X163416984Y-119831397D01*
X163415075Y-119867598D01*
X163415043Y-119901057D01*
X163243050Y-119901057D01*
X163243827Y-119876128D01*
X163246230Y-119841214D01*
X163249999Y-119803911D01*
X163255106Y-119764494D01*
X163261523Y-119723238D01*
X163269218Y-119680419D01*
X163278164Y-119636311D01*
X163281637Y-119620388D01*
X163293713Y-119570613D01*
X163307050Y-119524391D01*
X163321661Y-119481697D01*
X163337558Y-119442506D01*
X163354754Y-119406791D01*
X163373260Y-119374528D01*
X163393089Y-119345691D01*
X163414254Y-119320253D01*
X163436361Y-119298546D01*
X163459202Y-119280023D01*
X163483095Y-119263959D01*
X163508430Y-119250194D01*
X163535599Y-119238564D01*
X163564992Y-119228910D01*
X163596999Y-119221069D01*
X163632011Y-119214880D01*
X163642323Y-119213432D01*
X163654841Y-119212153D01*
X163670378Y-119211178D01*
X163688175Y-119210508D01*
X163707471Y-119210142D01*
X163727507Y-119210079D01*
X163747524Y-119210320D01*
G36*
X164591984Y-119210278D02*
X164609647Y-119210658D01*
X164626186Y-119211308D01*
X164640784Y-119212223D01*
X164652625Y-119213397D01*
X164653260Y-119213480D01*
X164672477Y-119216260D01*
X164692783Y-119219617D01*
X164712970Y-119223330D01*
X164731829Y-119227175D01*
X164748153Y-119230930D01*
X164748559Y-119231031D01*
X164758916Y-119233732D01*
X164769420Y-119236679D01*
X164779359Y-119239650D01*
X164788024Y-119242422D01*
X164794706Y-119244774D01*
X164798695Y-119246484D01*
X164799354Y-119246916D01*
X164799515Y-119249124D01*
X164799073Y-119254468D01*
X164798101Y-119262352D01*
X164796673Y-119272182D01*
X164794864Y-119283364D01*
X164794655Y-119284591D01*
X164788445Y-119320896D01*
X164696473Y-119320912D01*
X164677077Y-119320955D01*
X164657961Y-119321072D01*
X164639637Y-119321253D01*
X164622619Y-119321492D01*
X164607421Y-119321779D01*
X164594557Y-119322107D01*
X164584540Y-119322468D01*
X164578716Y-119322788D01*
X164548980Y-119326362D01*
X164521756Y-119332677D01*
X164496824Y-119341852D01*
X164473963Y-119354002D01*
X164452952Y-119369242D01*
X164433570Y-119387689D01*
X164416844Y-119407782D01*
X164403160Y-119427428D01*
X164390449Y-119448691D01*
X164378631Y-119471807D01*
X164367624Y-119497010D01*
X164357350Y-119524538D01*
X164347728Y-119554624D01*
X164338677Y-119587506D01*
X164330119Y-119623418D01*
X164321972Y-119662596D01*
X164314157Y-119705276D01*
X164312650Y-119714111D01*
X164307885Y-119743151D01*
X164303944Y-119769001D01*
X164300779Y-119792161D01*
X164298341Y-119813132D01*
X164296582Y-119832413D01*
X164295455Y-119850505D01*
X164294912Y-119867907D01*
X164294904Y-119885120D01*
X164295155Y-119896187D01*
X164296756Y-119924275D01*
X164299779Y-119949123D01*
X164304319Y-119971041D01*
X164310469Y-119990342D01*
X164318325Y-120007337D01*
X164327980Y-120022335D01*
X164336601Y-120032612D01*
X164348915Y-120044596D01*
X164361481Y-120054150D01*
X164375124Y-120061711D01*
X164390669Y-120067721D01*
X164408942Y-120072617D01*
X164413755Y-120073660D01*
X164422162Y-120075214D01*
X164431612Y-120076549D01*
X164442413Y-120077679D01*
X164454871Y-120078616D01*
X164469291Y-120079374D01*
X164485980Y-120079967D01*
X164505243Y-120080408D01*
X164527388Y-120080710D01*
X164552719Y-120080886D01*
X164580569Y-120080951D01*
X164672265Y-120081000D01*
X164671279Y-120086213D01*
X164670640Y-120089788D01*
X164669500Y-120096353D01*
X164667988Y-120105162D01*
X164666231Y-120115466D01*
X164664927Y-120123164D01*
X164659559Y-120154902D01*
X164648141Y-120158672D01*
X164634606Y-120162720D01*
X164618051Y-120166989D01*
X164599229Y-120171328D01*
X164578895Y-120175583D01*
X164557800Y-120179602D01*
X164536699Y-120183233D01*
X164516344Y-120186324D01*
X164502142Y-120188182D01*
X164493145Y-120189051D01*
X164481470Y-120189860D01*
X164467880Y-120190588D01*
X164453135Y-120191210D01*
X164437999Y-120191703D01*
X164423231Y-120192045D01*
X164409595Y-120192212D01*
X164397852Y-120192181D01*
X164388764Y-120191930D01*
X164385567Y-120191723D01*
X164354737Y-120188664D01*
X164327288Y-120184937D01*
X164302847Y-120180417D01*
X164281042Y-120174975D01*
X164261500Y-120168486D01*
X164243851Y-120160822D01*
X164227721Y-120151857D01*
X164212738Y-120141463D01*
X164198530Y-120129514D01*
X164195905Y-120127074D01*
X164180309Y-120110525D01*
X164166846Y-120092192D01*
X164155372Y-120071756D01*
X164145740Y-120048897D01*
X164137807Y-120023293D01*
X164131428Y-119994625D01*
X164128713Y-119978642D01*
X164127003Y-119964487D01*
X164125709Y-119947396D01*
X164124844Y-119928204D01*
X164124419Y-119907745D01*
X164124447Y-119886852D01*
X164124940Y-119866361D01*
X164125911Y-119847105D01*
X164126645Y-119837426D01*
X164130138Y-119803396D01*
X164134890Y-119766786D01*
X164140737Y-119728528D01*
X164147516Y-119689556D01*
X164155061Y-119650801D01*
X164163211Y-119613198D01*
X164171800Y-119577680D01*
X164173256Y-119572053D01*
X164186860Y-119524570D01*
X164201938Y-119480573D01*
X164218494Y-119440053D01*
X164236534Y-119403000D01*
X164256066Y-119369404D01*
X164277094Y-119339257D01*
X164299624Y-119312548D01*
X164323662Y-119289269D01*
X164349214Y-119269408D01*
X164366605Y-119258347D01*
X164389025Y-119246800D01*
X164414527Y-119236439D01*
X164442541Y-119227440D01*
X164472494Y-119219979D01*
X164503816Y-119214231D01*
X164515410Y-119212603D01*
X164526435Y-119211557D01*
X164540423Y-119210807D01*
X164556554Y-119210347D01*
X164574014Y-119210172D01*
X164591984Y-119210278D01*
X164591984Y-119210278D01*
G37*
X164591984Y-119210278D02*
X164609647Y-119210658D01*
X164626186Y-119211308D01*
X164640784Y-119212223D01*
X164652625Y-119213397D01*
X164653260Y-119213480D01*
X164672477Y-119216260D01*
X164692783Y-119219617D01*
X164712970Y-119223330D01*
X164731829Y-119227175D01*
X164748153Y-119230930D01*
X164748559Y-119231031D01*
X164758916Y-119233732D01*
X164769420Y-119236679D01*
X164779359Y-119239650D01*
X164788024Y-119242422D01*
X164794706Y-119244774D01*
X164798695Y-119246484D01*
X164799354Y-119246916D01*
X164799515Y-119249124D01*
X164799073Y-119254468D01*
X164798101Y-119262352D01*
X164796673Y-119272182D01*
X164794864Y-119283364D01*
X164794655Y-119284591D01*
X164788445Y-119320896D01*
X164696473Y-119320912D01*
X164677077Y-119320955D01*
X164657961Y-119321072D01*
X164639637Y-119321253D01*
X164622619Y-119321492D01*
X164607421Y-119321779D01*
X164594557Y-119322107D01*
X164584540Y-119322468D01*
X164578716Y-119322788D01*
X164548980Y-119326362D01*
X164521756Y-119332677D01*
X164496824Y-119341852D01*
X164473963Y-119354002D01*
X164452952Y-119369242D01*
X164433570Y-119387689D01*
X164416844Y-119407782D01*
X164403160Y-119427428D01*
X164390449Y-119448691D01*
X164378631Y-119471807D01*
X164367624Y-119497010D01*
X164357350Y-119524538D01*
X164347728Y-119554624D01*
X164338677Y-119587506D01*
X164330119Y-119623418D01*
X164321972Y-119662596D01*
X164314157Y-119705276D01*
X164312650Y-119714111D01*
X164307885Y-119743151D01*
X164303944Y-119769001D01*
X164300779Y-119792161D01*
X164298341Y-119813132D01*
X164296582Y-119832413D01*
X164295455Y-119850505D01*
X164294912Y-119867907D01*
X164294904Y-119885120D01*
X164295155Y-119896187D01*
X164296756Y-119924275D01*
X164299779Y-119949123D01*
X164304319Y-119971041D01*
X164310469Y-119990342D01*
X164318325Y-120007337D01*
X164327980Y-120022335D01*
X164336601Y-120032612D01*
X164348915Y-120044596D01*
X164361481Y-120054150D01*
X164375124Y-120061711D01*
X164390669Y-120067721D01*
X164408942Y-120072617D01*
X164413755Y-120073660D01*
X164422162Y-120075214D01*
X164431612Y-120076549D01*
X164442413Y-120077679D01*
X164454871Y-120078616D01*
X164469291Y-120079374D01*
X164485980Y-120079967D01*
X164505243Y-120080408D01*
X164527388Y-120080710D01*
X164552719Y-120080886D01*
X164580569Y-120080951D01*
X164672265Y-120081000D01*
X164671279Y-120086213D01*
X164670640Y-120089788D01*
X164669500Y-120096353D01*
X164667988Y-120105162D01*
X164666231Y-120115466D01*
X164664927Y-120123164D01*
X164659559Y-120154902D01*
X164648141Y-120158672D01*
X164634606Y-120162720D01*
X164618051Y-120166989D01*
X164599229Y-120171328D01*
X164578895Y-120175583D01*
X164557800Y-120179602D01*
X164536699Y-120183233D01*
X164516344Y-120186324D01*
X164502142Y-120188182D01*
X164493145Y-120189051D01*
X164481470Y-120189860D01*
X164467880Y-120190588D01*
X164453135Y-120191210D01*
X164437999Y-120191703D01*
X164423231Y-120192045D01*
X164409595Y-120192212D01*
X164397852Y-120192181D01*
X164388764Y-120191930D01*
X164385567Y-120191723D01*
X164354737Y-120188664D01*
X164327288Y-120184937D01*
X164302847Y-120180417D01*
X164281042Y-120174975D01*
X164261500Y-120168486D01*
X164243851Y-120160822D01*
X164227721Y-120151857D01*
X164212738Y-120141463D01*
X164198530Y-120129514D01*
X164195905Y-120127074D01*
X164180309Y-120110525D01*
X164166846Y-120092192D01*
X164155372Y-120071756D01*
X164145740Y-120048897D01*
X164137807Y-120023293D01*
X164131428Y-119994625D01*
X164128713Y-119978642D01*
X164127003Y-119964487D01*
X164125709Y-119947396D01*
X164124844Y-119928204D01*
X164124419Y-119907745D01*
X164124447Y-119886852D01*
X164124940Y-119866361D01*
X164125911Y-119847105D01*
X164126645Y-119837426D01*
X164130138Y-119803396D01*
X164134890Y-119766786D01*
X164140737Y-119728528D01*
X164147516Y-119689556D01*
X164155061Y-119650801D01*
X164163211Y-119613198D01*
X164171800Y-119577680D01*
X164173256Y-119572053D01*
X164186860Y-119524570D01*
X164201938Y-119480573D01*
X164218494Y-119440053D01*
X164236534Y-119403000D01*
X164256066Y-119369404D01*
X164277094Y-119339257D01*
X164299624Y-119312548D01*
X164323662Y-119289269D01*
X164349214Y-119269408D01*
X164366605Y-119258347D01*
X164389025Y-119246800D01*
X164414527Y-119236439D01*
X164442541Y-119227440D01*
X164472494Y-119219979D01*
X164503816Y-119214231D01*
X164515410Y-119212603D01*
X164526435Y-119211557D01*
X164540423Y-119210807D01*
X164556554Y-119210347D01*
X164574014Y-119210172D01*
X164591984Y-119210278D01*
G36*
X158495429Y-118854123D02*
X158494857Y-118857264D01*
X158493747Y-118863632D01*
X158492186Y-118872718D01*
X158490262Y-118884010D01*
X158488061Y-118896997D01*
X158485671Y-118911169D01*
X158484825Y-118916202D01*
X158482398Y-118930605D01*
X158480134Y-118943947D01*
X158478121Y-118955729D01*
X158476444Y-118965451D01*
X158475190Y-118972611D01*
X158474443Y-118976709D01*
X158474316Y-118977332D01*
X158473360Y-118981597D01*
X158000337Y-118981597D01*
X157959145Y-119211429D01*
X157953950Y-119240435D01*
X157948945Y-119268420D01*
X157944171Y-119295156D01*
X157939668Y-119320415D01*
X157935476Y-119343969D01*
X157931636Y-119365590D01*
X157928189Y-119385049D01*
X157925174Y-119402119D01*
X157922632Y-119416571D01*
X157920604Y-119428178D01*
X157919129Y-119436710D01*
X157918249Y-119441940D01*
X157917999Y-119443631D01*
X157918703Y-119444024D01*
X157920922Y-119444375D01*
X157924836Y-119444684D01*
X157930627Y-119444954D01*
X157938475Y-119445188D01*
X157948563Y-119445387D01*
X157961070Y-119445554D01*
X157976179Y-119445691D01*
X157994070Y-119445800D01*
X158014926Y-119445883D01*
X158038926Y-119445942D01*
X158066252Y-119445979D01*
X158097086Y-119445998D01*
X158116127Y-119446000D01*
X158149011Y-119446009D01*
X158178286Y-119446035D01*
X158204132Y-119446082D01*
X158226730Y-119446151D01*
X158246263Y-119446244D01*
X158262910Y-119446364D01*
X158276853Y-119446514D01*
X158288274Y-119446694D01*
X158297354Y-119446908D01*
X158304273Y-119447156D01*
X158309214Y-119447443D01*
X158312356Y-119447769D01*
X158313883Y-119448137D01*
X158314098Y-119448370D01*
X158313758Y-119450745D01*
X158312841Y-119456401D01*
X158311424Y-119464883D01*
X158309586Y-119475738D01*
X158307401Y-119488511D01*
X158304948Y-119502748D01*
X158303120Y-119513291D01*
X158292252Y-119575844D01*
X158093333Y-119576791D01*
X157894414Y-119577739D01*
X157854219Y-119808045D01*
X157848887Y-119838597D01*
X157843561Y-119869115D01*
X157838297Y-119899275D01*
X157833151Y-119928756D01*
X157828181Y-119957235D01*
X157823441Y-119984390D01*
X157818989Y-120009897D01*
X157814881Y-120033436D01*
X157811172Y-120054682D01*
X157807920Y-120073314D01*
X157805180Y-120089010D01*
X157803009Y-120101447D01*
X157802194Y-120106116D01*
X157790364Y-120173881D01*
X157620903Y-120173881D01*
X157623444Y-120160138D01*
X157623962Y-120157241D01*
X157625111Y-120150748D01*
X157626866Y-120140797D01*
X157629203Y-120127529D01*
X157632098Y-120111080D01*
X157635526Y-120091589D01*
X157639463Y-120069196D01*
X157643885Y-120044038D01*
X157648767Y-120016254D01*
X157654085Y-119985982D01*
X157659815Y-119953361D01*
X157665932Y-119918530D01*
X157672412Y-119881626D01*
X157679231Y-119842789D01*
X157686364Y-119802157D01*
X157693788Y-119759868D01*
X157701477Y-119716061D01*
X157709407Y-119670874D01*
X157717555Y-119624447D01*
X157725895Y-119576916D01*
X157734404Y-119528422D01*
X157738887Y-119502866D01*
X157747457Y-119454021D01*
X157755864Y-119406113D01*
X157764082Y-119359278D01*
X157772090Y-119313652D01*
X157779862Y-119269372D01*
X157787375Y-119226573D01*
X157794604Y-119185392D01*
X157801527Y-119145964D01*
X157808118Y-119108427D01*
X157814355Y-119072915D01*
X157820213Y-119039564D01*
X157825668Y-119008512D01*
X157830697Y-118979894D01*
X157835275Y-118953846D01*
X157839379Y-118930505D01*
X157842984Y-118910006D01*
X157846068Y-118892485D01*
X157848605Y-118878079D01*
X157850572Y-118866923D01*
X157851945Y-118859154D01*
X157852701Y-118854908D01*
X157852844Y-118854123D01*
X157853898Y-118848911D01*
X158496480Y-118848911D01*
X158495429Y-118854123D01*
X158495429Y-118854123D01*
G37*
X158495429Y-118854123D02*
X158494857Y-118857264D01*
X158493747Y-118863632D01*
X158492186Y-118872718D01*
X158490262Y-118884010D01*
X158488061Y-118896997D01*
X158485671Y-118911169D01*
X158484825Y-118916202D01*
X158482398Y-118930605D01*
X158480134Y-118943947D01*
X158478121Y-118955729D01*
X158476444Y-118965451D01*
X158475190Y-118972611D01*
X158474443Y-118976709D01*
X158474316Y-118977332D01*
X158473360Y-118981597D01*
X158000337Y-118981597D01*
X157959145Y-119211429D01*
X157953950Y-119240435D01*
X157948945Y-119268420D01*
X157944171Y-119295156D01*
X157939668Y-119320415D01*
X157935476Y-119343969D01*
X157931636Y-119365590D01*
X157928189Y-119385049D01*
X157925174Y-119402119D01*
X157922632Y-119416571D01*
X157920604Y-119428178D01*
X157919129Y-119436710D01*
X157918249Y-119441940D01*
X157917999Y-119443631D01*
X157918703Y-119444024D01*
X157920922Y-119444375D01*
X157924836Y-119444684D01*
X157930627Y-119444954D01*
X157938475Y-119445188D01*
X157948563Y-119445387D01*
X157961070Y-119445554D01*
X157976179Y-119445691D01*
X157994070Y-119445800D01*
X158014926Y-119445883D01*
X158038926Y-119445942D01*
X158066252Y-119445979D01*
X158097086Y-119445998D01*
X158116127Y-119446000D01*
X158149011Y-119446009D01*
X158178286Y-119446035D01*
X158204132Y-119446082D01*
X158226730Y-119446151D01*
X158246263Y-119446244D01*
X158262910Y-119446364D01*
X158276853Y-119446514D01*
X158288274Y-119446694D01*
X158297354Y-119446908D01*
X158304273Y-119447156D01*
X158309214Y-119447443D01*
X158312356Y-119447769D01*
X158313883Y-119448137D01*
X158314098Y-119448370D01*
X158313758Y-119450745D01*
X158312841Y-119456401D01*
X158311424Y-119464883D01*
X158309586Y-119475738D01*
X158307401Y-119488511D01*
X158304948Y-119502748D01*
X158303120Y-119513291D01*
X158292252Y-119575844D01*
X158093333Y-119576791D01*
X157894414Y-119577739D01*
X157854219Y-119808045D01*
X157848887Y-119838597D01*
X157843561Y-119869115D01*
X157838297Y-119899275D01*
X157833151Y-119928756D01*
X157828181Y-119957235D01*
X157823441Y-119984390D01*
X157818989Y-120009897D01*
X157814881Y-120033436D01*
X157811172Y-120054682D01*
X157807920Y-120073314D01*
X157805180Y-120089010D01*
X157803009Y-120101447D01*
X157802194Y-120106116D01*
X157790364Y-120173881D01*
X157620903Y-120173881D01*
X157623444Y-120160138D01*
X157623962Y-120157241D01*
X157625111Y-120150748D01*
X157626866Y-120140797D01*
X157629203Y-120127529D01*
X157632098Y-120111080D01*
X157635526Y-120091589D01*
X157639463Y-120069196D01*
X157643885Y-120044038D01*
X157648767Y-120016254D01*
X157654085Y-119985982D01*
X157659815Y-119953361D01*
X157665932Y-119918530D01*
X157672412Y-119881626D01*
X157679231Y-119842789D01*
X157686364Y-119802157D01*
X157693788Y-119759868D01*
X157701477Y-119716061D01*
X157709407Y-119670874D01*
X157717555Y-119624447D01*
X157725895Y-119576916D01*
X157734404Y-119528422D01*
X157738887Y-119502866D01*
X157747457Y-119454021D01*
X157755864Y-119406113D01*
X157764082Y-119359278D01*
X157772090Y-119313652D01*
X157779862Y-119269372D01*
X157787375Y-119226573D01*
X157794604Y-119185392D01*
X157801527Y-119145964D01*
X157808118Y-119108427D01*
X157814355Y-119072915D01*
X157820213Y-119039564D01*
X157825668Y-119008512D01*
X157830697Y-118979894D01*
X157835275Y-118953846D01*
X157839379Y-118930505D01*
X157842984Y-118910006D01*
X157846068Y-118892485D01*
X157848605Y-118878079D01*
X157850572Y-118866923D01*
X157851945Y-118859154D01*
X157852701Y-118854908D01*
X157852844Y-118854123D01*
X157853898Y-118848911D01*
X158496480Y-118848911D01*
X158495429Y-118854123D01*
G36*
X158771367Y-118848922D02*
X158788135Y-118848964D01*
X158801749Y-118849047D01*
X158812527Y-118849183D01*
X158820787Y-118849382D01*
X158826848Y-118849656D01*
X158831029Y-118850015D01*
X158833647Y-118850471D01*
X158835021Y-118851035D01*
X158835470Y-118851717D01*
X158835477Y-118851837D01*
X158835154Y-118853814D01*
X158834205Y-118859364D01*
X158832656Y-118868322D01*
X158830538Y-118880527D01*
X158827878Y-118895816D01*
X158824705Y-118914028D01*
X158821048Y-118934998D01*
X158816934Y-118958566D01*
X158812393Y-118984568D01*
X158807452Y-119012843D01*
X158802141Y-119043227D01*
X158796487Y-119075559D01*
X158790519Y-119109676D01*
X158784266Y-119145415D01*
X158777757Y-119182614D01*
X158771018Y-119221111D01*
X158764080Y-119260743D01*
X158756970Y-119301348D01*
X158749717Y-119342764D01*
X158742349Y-119384827D01*
X158734895Y-119427376D01*
X158727384Y-119470249D01*
X158719843Y-119513282D01*
X158712301Y-119556313D01*
X158704787Y-119599180D01*
X158697329Y-119641721D01*
X158689956Y-119683773D01*
X158682696Y-119725173D01*
X158675577Y-119765760D01*
X158668628Y-119805371D01*
X158661878Y-119843843D01*
X158655354Y-119881014D01*
X158649086Y-119916721D01*
X158643102Y-119950803D01*
X158637430Y-119983097D01*
X158632098Y-120013439D01*
X158627136Y-120041669D01*
X158622571Y-120067623D01*
X158618433Y-120091139D01*
X158614749Y-120112055D01*
X158611548Y-120130208D01*
X158608859Y-120145436D01*
X158606709Y-120157576D01*
X158605128Y-120166467D01*
X158604904Y-120167720D01*
X158603802Y-120173881D01*
X158519662Y-120173881D01*
X158499540Y-120173872D01*
X158482886Y-120173837D01*
X158469374Y-120173763D01*
X158458682Y-120173639D01*
X158450485Y-120173452D01*
X158444458Y-120173191D01*
X158440279Y-120172843D01*
X158437624Y-120172395D01*
X158436167Y-120171837D01*
X158435586Y-120171155D01*
X158435522Y-120170729D01*
X158435847Y-120168646D01*
X158436804Y-120162963D01*
X158438372Y-120153815D01*
X158440526Y-120141334D01*
X158443242Y-120125656D01*
X158446499Y-120106914D01*
X158450271Y-120085242D01*
X158454536Y-120060773D01*
X158459271Y-120033643D01*
X158464451Y-120003985D01*
X158470054Y-119971933D01*
X158476055Y-119937620D01*
X158482433Y-119901182D01*
X158489162Y-119862751D01*
X158496220Y-119822462D01*
X158503584Y-119780449D01*
X158511229Y-119736845D01*
X158519133Y-119691785D01*
X158527271Y-119645403D01*
X158535622Y-119597832D01*
X158544161Y-119549207D01*
X158551149Y-119509423D01*
X158559819Y-119460068D01*
X158568320Y-119411670D01*
X158576628Y-119364363D01*
X158584721Y-119318279D01*
X158592574Y-119273552D01*
X158600164Y-119230316D01*
X158607468Y-119188704D01*
X158614462Y-119148849D01*
X158621123Y-119110886D01*
X158627428Y-119074946D01*
X158633352Y-119041164D01*
X158638874Y-119009674D01*
X158643969Y-118980608D01*
X158648614Y-118954100D01*
X158652785Y-118930283D01*
X158656460Y-118909292D01*
X158659615Y-118891259D01*
X158662225Y-118876318D01*
X158664269Y-118864601D01*
X158665722Y-118856244D01*
X158666562Y-118851379D01*
X158666776Y-118850089D01*
X158668608Y-118849845D01*
X158673851Y-118849618D01*
X158682124Y-118849413D01*
X158693046Y-118849237D01*
X158706238Y-118849093D01*
X158721319Y-118848987D01*
X158737909Y-118848925D01*
X158751127Y-118848911D01*
X158771367Y-118848922D01*
X158771367Y-118848922D01*
G37*
X158771367Y-118848922D02*
X158788135Y-118848964D01*
X158801749Y-118849047D01*
X158812527Y-118849183D01*
X158820787Y-118849382D01*
X158826848Y-118849656D01*
X158831029Y-118850015D01*
X158833647Y-118850471D01*
X158835021Y-118851035D01*
X158835470Y-118851717D01*
X158835477Y-118851837D01*
X158835154Y-118853814D01*
X158834205Y-118859364D01*
X158832656Y-118868322D01*
X158830538Y-118880527D01*
X158827878Y-118895816D01*
X158824705Y-118914028D01*
X158821048Y-118934998D01*
X158816934Y-118958566D01*
X158812393Y-118984568D01*
X158807452Y-119012843D01*
X158802141Y-119043227D01*
X158796487Y-119075559D01*
X158790519Y-119109676D01*
X158784266Y-119145415D01*
X158777757Y-119182614D01*
X158771018Y-119221111D01*
X158764080Y-119260743D01*
X158756970Y-119301348D01*
X158749717Y-119342764D01*
X158742349Y-119384827D01*
X158734895Y-119427376D01*
X158727384Y-119470249D01*
X158719843Y-119513282D01*
X158712301Y-119556313D01*
X158704787Y-119599180D01*
X158697329Y-119641721D01*
X158689956Y-119683773D01*
X158682696Y-119725173D01*
X158675577Y-119765760D01*
X158668628Y-119805371D01*
X158661878Y-119843843D01*
X158655354Y-119881014D01*
X158649086Y-119916721D01*
X158643102Y-119950803D01*
X158637430Y-119983097D01*
X158632098Y-120013439D01*
X158627136Y-120041669D01*
X158622571Y-120067623D01*
X158618433Y-120091139D01*
X158614749Y-120112055D01*
X158611548Y-120130208D01*
X158608859Y-120145436D01*
X158606709Y-120157576D01*
X158605128Y-120166467D01*
X158604904Y-120167720D01*
X158603802Y-120173881D01*
X158519662Y-120173881D01*
X158499540Y-120173872D01*
X158482886Y-120173837D01*
X158469374Y-120173763D01*
X158458682Y-120173639D01*
X158450485Y-120173452D01*
X158444458Y-120173191D01*
X158440279Y-120172843D01*
X158437624Y-120172395D01*
X158436167Y-120171837D01*
X158435586Y-120171155D01*
X158435522Y-120170729D01*
X158435847Y-120168646D01*
X158436804Y-120162963D01*
X158438372Y-120153815D01*
X158440526Y-120141334D01*
X158443242Y-120125656D01*
X158446499Y-120106914D01*
X158450271Y-120085242D01*
X158454536Y-120060773D01*
X158459271Y-120033643D01*
X158464451Y-120003985D01*
X158470054Y-119971933D01*
X158476055Y-119937620D01*
X158482433Y-119901182D01*
X158489162Y-119862751D01*
X158496220Y-119822462D01*
X158503584Y-119780449D01*
X158511229Y-119736845D01*
X158519133Y-119691785D01*
X158527271Y-119645403D01*
X158535622Y-119597832D01*
X158544161Y-119549207D01*
X158551149Y-119509423D01*
X158559819Y-119460068D01*
X158568320Y-119411670D01*
X158576628Y-119364363D01*
X158584721Y-119318279D01*
X158592574Y-119273552D01*
X158600164Y-119230316D01*
X158607468Y-119188704D01*
X158614462Y-119148849D01*
X158621123Y-119110886D01*
X158627428Y-119074946D01*
X158633352Y-119041164D01*
X158638874Y-119009674D01*
X158643969Y-118980608D01*
X158648614Y-118954100D01*
X158652785Y-118930283D01*
X158656460Y-118909292D01*
X158659615Y-118891259D01*
X158662225Y-118876318D01*
X158664269Y-118864601D01*
X158665722Y-118856244D01*
X158666562Y-118851379D01*
X158666776Y-118850089D01*
X158668608Y-118849845D01*
X158673851Y-118849618D01*
X158682124Y-118849413D01*
X158693046Y-118849237D01*
X158706238Y-118849093D01*
X158721319Y-118848987D01*
X158737909Y-118848925D01*
X158751127Y-118848911D01*
X158771367Y-118848922D01*
G36*
X159077139Y-119228283D02*
X159092268Y-119228327D01*
X159108890Y-119228399D01*
X159121989Y-119228469D01*
X159206272Y-119228963D01*
X159123307Y-119700000D01*
X159115965Y-119741689D01*
X159108796Y-119782401D01*
X159101829Y-119821978D01*
X159095090Y-119860262D01*
X159088609Y-119897095D01*
X159082411Y-119932319D01*
X159076526Y-119965777D01*
X159070981Y-119997310D01*
X159065804Y-120026760D01*
X159061022Y-120053970D01*
X159056663Y-120078780D01*
X159052756Y-120101035D01*
X159049327Y-120120575D01*
X159046405Y-120137242D01*
X159044017Y-120150878D01*
X159042191Y-120161327D01*
X159040955Y-120168428D01*
X159040337Y-120172026D01*
X159040268Y-120172459D01*
X159038420Y-120172754D01*
X159033162Y-120173028D01*
X159024875Y-120173274D01*
X159013939Y-120173488D01*
X159000736Y-120173661D01*
X158985646Y-120173789D01*
X158969050Y-120173863D01*
X158955843Y-120173881D01*
X158934722Y-120173857D01*
X158917137Y-120173782D01*
X158902836Y-120173649D01*
X158891562Y-120173450D01*
X158883063Y-120173178D01*
X158877084Y-120172828D01*
X158873370Y-120172391D01*
X158871669Y-120171861D01*
X158871492Y-120171585D01*
X158871815Y-120169543D01*
X158872761Y-120163968D01*
X158874297Y-120155050D01*
X158876388Y-120142983D01*
X158879001Y-120127957D01*
X158882102Y-120110166D01*
X158885657Y-120089801D01*
X158889633Y-120067055D01*
X158893996Y-120042118D01*
X158898712Y-120015185D01*
X158903748Y-119986445D01*
X158909069Y-119956093D01*
X158914641Y-119924319D01*
X158920432Y-119891316D01*
X158926407Y-119857275D01*
X158932532Y-119822389D01*
X158938774Y-119786851D01*
X158945099Y-119750851D01*
X158951473Y-119714582D01*
X158957863Y-119678237D01*
X158964234Y-119642006D01*
X158970554Y-119606083D01*
X158976787Y-119570659D01*
X158982901Y-119535926D01*
X158988861Y-119502077D01*
X158994634Y-119469304D01*
X159000186Y-119437798D01*
X159005484Y-119407751D01*
X159010493Y-119379357D01*
X159015179Y-119352806D01*
X159019510Y-119328291D01*
X159023451Y-119306003D01*
X159026969Y-119286136D01*
X159030029Y-119268881D01*
X159032598Y-119254430D01*
X159034643Y-119242975D01*
X159036129Y-119234708D01*
X159037022Y-119229821D01*
X159037290Y-119228469D01*
X159039210Y-119228378D01*
X159044538Y-119228313D01*
X159052891Y-119228276D01*
X159063886Y-119228266D01*
X159077139Y-119228283D01*
X159077139Y-119228283D01*
G37*
X159077139Y-119228283D02*
X159092268Y-119228327D01*
X159108890Y-119228399D01*
X159121989Y-119228469D01*
X159206272Y-119228963D01*
X159123307Y-119700000D01*
X159115965Y-119741689D01*
X159108796Y-119782401D01*
X159101829Y-119821978D01*
X159095090Y-119860262D01*
X159088609Y-119897095D01*
X159082411Y-119932319D01*
X159076526Y-119965777D01*
X159070981Y-119997310D01*
X159065804Y-120026760D01*
X159061022Y-120053970D01*
X159056663Y-120078780D01*
X159052756Y-120101035D01*
X159049327Y-120120575D01*
X159046405Y-120137242D01*
X159044017Y-120150878D01*
X159042191Y-120161327D01*
X159040955Y-120168428D01*
X159040337Y-120172026D01*
X159040268Y-120172459D01*
X159038420Y-120172754D01*
X159033162Y-120173028D01*
X159024875Y-120173274D01*
X159013939Y-120173488D01*
X159000736Y-120173661D01*
X158985646Y-120173789D01*
X158969050Y-120173863D01*
X158955843Y-120173881D01*
X158934722Y-120173857D01*
X158917137Y-120173782D01*
X158902836Y-120173649D01*
X158891562Y-120173450D01*
X158883063Y-120173178D01*
X158877084Y-120172828D01*
X158873370Y-120172391D01*
X158871669Y-120171861D01*
X158871492Y-120171585D01*
X158871815Y-120169543D01*
X158872761Y-120163968D01*
X158874297Y-120155050D01*
X158876388Y-120142983D01*
X158879001Y-120127957D01*
X158882102Y-120110166D01*
X158885657Y-120089801D01*
X158889633Y-120067055D01*
X158893996Y-120042118D01*
X158898712Y-120015185D01*
X158903748Y-119986445D01*
X158909069Y-119956093D01*
X158914641Y-119924319D01*
X158920432Y-119891316D01*
X158926407Y-119857275D01*
X158932532Y-119822389D01*
X158938774Y-119786851D01*
X158945099Y-119750851D01*
X158951473Y-119714582D01*
X158957863Y-119678237D01*
X158964234Y-119642006D01*
X158970554Y-119606083D01*
X158976787Y-119570659D01*
X158982901Y-119535926D01*
X158988861Y-119502077D01*
X158994634Y-119469304D01*
X159000186Y-119437798D01*
X159005484Y-119407751D01*
X159010493Y-119379357D01*
X159015179Y-119352806D01*
X159019510Y-119328291D01*
X159023451Y-119306003D01*
X159026969Y-119286136D01*
X159030029Y-119268881D01*
X159032598Y-119254430D01*
X159034643Y-119242975D01*
X159036129Y-119234708D01*
X159037022Y-119229821D01*
X159037290Y-119228469D01*
X159039210Y-119228378D01*
X159044538Y-119228313D01*
X159052891Y-119228276D01*
X159063886Y-119228266D01*
X159077139Y-119228283D01*
G36*
X160575657Y-118849178D02*
X160583253Y-118849222D01*
X160587729Y-118849293D01*
X160588810Y-118849365D01*
X160588484Y-118851259D01*
X160587541Y-118856645D01*
X160586022Y-118865284D01*
X160583972Y-118876934D01*
X160581431Y-118891356D01*
X160578442Y-118908308D01*
X160575049Y-118927550D01*
X160571292Y-118948841D01*
X160567215Y-118971942D01*
X160562860Y-118996611D01*
X160558270Y-119022609D01*
X160553486Y-119049694D01*
X160552959Y-119052679D01*
X160548162Y-119079866D01*
X160543562Y-119105992D01*
X160539202Y-119130816D01*
X160535123Y-119154097D01*
X160531366Y-119175596D01*
X160527974Y-119195072D01*
X160524989Y-119212283D01*
X160522452Y-119226991D01*
X160520405Y-119238954D01*
X160518890Y-119247932D01*
X160517948Y-119253684D01*
X160517622Y-119255969D01*
X160517625Y-119255999D01*
X160519466Y-119255553D01*
X160523789Y-119253900D01*
X160529169Y-119251610D01*
X160538425Y-119247819D01*
X160550376Y-119243372D01*
X160564055Y-119238595D01*
X160578494Y-119233812D01*
X160592728Y-119229349D01*
X160605788Y-119225532D01*
X160610634Y-119224214D01*
X160639095Y-119217804D01*
X160668712Y-119213208D01*
X160698959Y-119210404D01*
X160729313Y-119209367D01*
X160759250Y-119210073D01*
X160788245Y-119212497D01*
X160815776Y-119216617D01*
X160841316Y-119222408D01*
X160864343Y-119229845D01*
X160879798Y-119236563D01*
X160898404Y-119247673D01*
X160915590Y-119261657D01*
X160930568Y-119277784D01*
X160941629Y-119293736D01*
X160949906Y-119310800D01*
X160956556Y-119330820D01*
X160961512Y-119353293D01*
X160964709Y-119377720D01*
X160966079Y-119403599D01*
X160965557Y-119430431D01*
X160963230Y-119456482D01*
X160962713Y-119459905D01*
X160961583Y-119466833D01*
X160959881Y-119477038D01*
X160957646Y-119490289D01*
X160954918Y-119506357D01*
X160951737Y-119525014D01*
X160948142Y-119546031D01*
X160944173Y-119569176D01*
X160939870Y-119594223D01*
X160935272Y-119620941D01*
X160930420Y-119649101D01*
X160925353Y-119678473D01*
X160920110Y-119708830D01*
X160914732Y-119739940D01*
X160909258Y-119771576D01*
X160903728Y-119803508D01*
X160898181Y-119835506D01*
X160892658Y-119867342D01*
X160887197Y-119898785D01*
X160881840Y-119929608D01*
X160876625Y-119959580D01*
X160871592Y-119988473D01*
X160866782Y-120016056D01*
X160862233Y-120042102D01*
X160857985Y-120066380D01*
X160854079Y-120088662D01*
X160850553Y-120108718D01*
X160847448Y-120126318D01*
X160844803Y-120141235D01*
X160842659Y-120153237D01*
X160841054Y-120162097D01*
X160840029Y-120167585D01*
X160839814Y-120168668D01*
X160838743Y-120173881D01*
X160669858Y-120173881D01*
X160671141Y-120165825D01*
X160671599Y-120163134D01*
X160672680Y-120156902D01*
X160674348Y-120147321D01*
X160676572Y-120134584D01*
X160679316Y-120118882D01*
X160682548Y-120100409D01*
X160686233Y-120079357D01*
X160690338Y-120055919D01*
X160694829Y-120030286D01*
X160699672Y-120002651D01*
X160704834Y-119973207D01*
X160710281Y-119942147D01*
X160715979Y-119909662D01*
X160721894Y-119875945D01*
X160727994Y-119841189D01*
X160731316Y-119822261D01*
X160738616Y-119780667D01*
X160745288Y-119742631D01*
X160751361Y-119707976D01*
X160756862Y-119676527D01*
X160761822Y-119648108D01*
X160766269Y-119622544D01*
X160770231Y-119599657D01*
X160773737Y-119579273D01*
X160776817Y-119561216D01*
X160779499Y-119545309D01*
X160781811Y-119531376D01*
X160783782Y-119519242D01*
X160785442Y-119508731D01*
X160786818Y-119499666D01*
X160787940Y-119491873D01*
X160788837Y-119485174D01*
X160789536Y-119479395D01*
X160790068Y-119474359D01*
X160790460Y-119469890D01*
X160790742Y-119465812D01*
X160790941Y-119461950D01*
X160791088Y-119458128D01*
X160791148Y-119456268D01*
X160791458Y-119444132D01*
X160791492Y-119434868D01*
X160791191Y-119427564D01*
X160790494Y-119421307D01*
X160789340Y-119415185D01*
X160788061Y-119409828D01*
X160785500Y-119400871D01*
X160782429Y-119391848D01*
X160779451Y-119384511D01*
X160779034Y-119383631D01*
X160773490Y-119374608D01*
X160765598Y-119364777D01*
X160756335Y-119355145D01*
X160746682Y-119346721D01*
X160737617Y-119340514D01*
X160736713Y-119340018D01*
X160722239Y-119333820D01*
X160704877Y-119328900D01*
X160685325Y-119325310D01*
X160664281Y-119323099D01*
X160642443Y-119322317D01*
X160620511Y-119323016D01*
X160599181Y-119325246D01*
X160580487Y-119328740D01*
X160564401Y-119332995D01*
X160547463Y-119338338D01*
X160531036Y-119344295D01*
X160516483Y-119350393D01*
X160511715Y-119352655D01*
X160498095Y-119359388D01*
X160495980Y-119371892D01*
X160495452Y-119374956D01*
X160494304Y-119381575D01*
X160492567Y-119391570D01*
X160490273Y-119404761D01*
X160487452Y-119420970D01*
X160484136Y-119440016D01*
X160480356Y-119461720D01*
X160476143Y-119485903D01*
X160471530Y-119512386D01*
X160466546Y-119540989D01*
X160461223Y-119571532D01*
X160455593Y-119603837D01*
X160449686Y-119637723D01*
X160443534Y-119673012D01*
X160437169Y-119709525D01*
X160430621Y-119747080D01*
X160425114Y-119778664D01*
X160356362Y-120172933D01*
X160271584Y-120173427D01*
X160186806Y-120173920D01*
X160187946Y-120167740D01*
X160188356Y-120165427D01*
X160189399Y-120159515D01*
X160191049Y-120150139D01*
X160193285Y-120137434D01*
X160196081Y-120121536D01*
X160199414Y-120102579D01*
X160203260Y-120080698D01*
X160207596Y-120056028D01*
X160212398Y-120028705D01*
X160217642Y-119998864D01*
X160223305Y-119966638D01*
X160229362Y-119932165D01*
X160235790Y-119895578D01*
X160242566Y-119857012D01*
X160249665Y-119816603D01*
X160257064Y-119774486D01*
X160264739Y-119730795D01*
X160272666Y-119685667D01*
X160280822Y-119639235D01*
X160289182Y-119591634D01*
X160297724Y-119543001D01*
X160304274Y-119505709D01*
X160419462Y-118849858D01*
X160504149Y-118849365D01*
X160521655Y-118849274D01*
X160537939Y-118849209D01*
X160552620Y-118849172D01*
X160565319Y-118849162D01*
X160575657Y-118849178D01*
X160575657Y-118849178D01*
G37*
X160575657Y-118849178D02*
X160583253Y-118849222D01*
X160587729Y-118849293D01*
X160588810Y-118849365D01*
X160588484Y-118851259D01*
X160587541Y-118856645D01*
X160586022Y-118865284D01*
X160583972Y-118876934D01*
X160581431Y-118891356D01*
X160578442Y-118908308D01*
X160575049Y-118927550D01*
X160571292Y-118948841D01*
X160567215Y-118971942D01*
X160562860Y-118996611D01*
X160558270Y-119022609D01*
X160553486Y-119049694D01*
X160552959Y-119052679D01*
X160548162Y-119079866D01*
X160543562Y-119105992D01*
X160539202Y-119130816D01*
X160535123Y-119154097D01*
X160531366Y-119175596D01*
X160527974Y-119195072D01*
X160524989Y-119212283D01*
X160522452Y-119226991D01*
X160520405Y-119238954D01*
X160518890Y-119247932D01*
X160517948Y-119253684D01*
X160517622Y-119255969D01*
X160517625Y-119255999D01*
X160519466Y-119255553D01*
X160523789Y-119253900D01*
X160529169Y-119251610D01*
X160538425Y-119247819D01*
X160550376Y-119243372D01*
X160564055Y-119238595D01*
X160578494Y-119233812D01*
X160592728Y-119229349D01*
X160605788Y-119225532D01*
X160610634Y-119224214D01*
X160639095Y-119217804D01*
X160668712Y-119213208D01*
X160698959Y-119210404D01*
X160729313Y-119209367D01*
X160759250Y-119210073D01*
X160788245Y-119212497D01*
X160815776Y-119216617D01*
X160841316Y-119222408D01*
X160864343Y-119229845D01*
X160879798Y-119236563D01*
X160898404Y-119247673D01*
X160915590Y-119261657D01*
X160930568Y-119277784D01*
X160941629Y-119293736D01*
X160949906Y-119310800D01*
X160956556Y-119330820D01*
X160961512Y-119353293D01*
X160964709Y-119377720D01*
X160966079Y-119403599D01*
X160965557Y-119430431D01*
X160963230Y-119456482D01*
X160962713Y-119459905D01*
X160961583Y-119466833D01*
X160959881Y-119477038D01*
X160957646Y-119490289D01*
X160954918Y-119506357D01*
X160951737Y-119525014D01*
X160948142Y-119546031D01*
X160944173Y-119569176D01*
X160939870Y-119594223D01*
X160935272Y-119620941D01*
X160930420Y-119649101D01*
X160925353Y-119678473D01*
X160920110Y-119708830D01*
X160914732Y-119739940D01*
X160909258Y-119771576D01*
X160903728Y-119803508D01*
X160898181Y-119835506D01*
X160892658Y-119867342D01*
X160887197Y-119898785D01*
X160881840Y-119929608D01*
X160876625Y-119959580D01*
X160871592Y-119988473D01*
X160866782Y-120016056D01*
X160862233Y-120042102D01*
X160857985Y-120066380D01*
X160854079Y-120088662D01*
X160850553Y-120108718D01*
X160847448Y-120126318D01*
X160844803Y-120141235D01*
X160842659Y-120153237D01*
X160841054Y-120162097D01*
X160840029Y-120167585D01*
X160839814Y-120168668D01*
X160838743Y-120173881D01*
X160669858Y-120173881D01*
X160671141Y-120165825D01*
X160671599Y-120163134D01*
X160672680Y-120156902D01*
X160674348Y-120147321D01*
X160676572Y-120134584D01*
X160679316Y-120118882D01*
X160682548Y-120100409D01*
X160686233Y-120079357D01*
X160690338Y-120055919D01*
X160694829Y-120030286D01*
X160699672Y-120002651D01*
X160704834Y-119973207D01*
X160710281Y-119942147D01*
X160715979Y-119909662D01*
X160721894Y-119875945D01*
X160727994Y-119841189D01*
X160731316Y-119822261D01*
X160738616Y-119780667D01*
X160745288Y-119742631D01*
X160751361Y-119707976D01*
X160756862Y-119676527D01*
X160761822Y-119648108D01*
X160766269Y-119622544D01*
X160770231Y-119599657D01*
X160773737Y-119579273D01*
X160776817Y-119561216D01*
X160779499Y-119545309D01*
X160781811Y-119531376D01*
X160783782Y-119519242D01*
X160785442Y-119508731D01*
X160786818Y-119499666D01*
X160787940Y-119491873D01*
X160788837Y-119485174D01*
X160789536Y-119479395D01*
X160790068Y-119474359D01*
X160790460Y-119469890D01*
X160790742Y-119465812D01*
X160790941Y-119461950D01*
X160791088Y-119458128D01*
X160791148Y-119456268D01*
X160791458Y-119444132D01*
X160791492Y-119434868D01*
X160791191Y-119427564D01*
X160790494Y-119421307D01*
X160789340Y-119415185D01*
X160788061Y-119409828D01*
X160785500Y-119400871D01*
X160782429Y-119391848D01*
X160779451Y-119384511D01*
X160779034Y-119383631D01*
X160773490Y-119374608D01*
X160765598Y-119364777D01*
X160756335Y-119355145D01*
X160746682Y-119346721D01*
X160737617Y-119340514D01*
X160736713Y-119340018D01*
X160722239Y-119333820D01*
X160704877Y-119328900D01*
X160685325Y-119325310D01*
X160664281Y-119323099D01*
X160642443Y-119322317D01*
X160620511Y-119323016D01*
X160599181Y-119325246D01*
X160580487Y-119328740D01*
X160564401Y-119332995D01*
X160547463Y-119338338D01*
X160531036Y-119344295D01*
X160516483Y-119350393D01*
X160511715Y-119352655D01*
X160498095Y-119359388D01*
X160495980Y-119371892D01*
X160495452Y-119374956D01*
X160494304Y-119381575D01*
X160492567Y-119391570D01*
X160490273Y-119404761D01*
X160487452Y-119420970D01*
X160484136Y-119440016D01*
X160480356Y-119461720D01*
X160476143Y-119485903D01*
X160471530Y-119512386D01*
X160466546Y-119540989D01*
X160461223Y-119571532D01*
X160455593Y-119603837D01*
X160449686Y-119637723D01*
X160443534Y-119673012D01*
X160437169Y-119709525D01*
X160430621Y-119747080D01*
X160425114Y-119778664D01*
X160356362Y-120172933D01*
X160271584Y-120173427D01*
X160186806Y-120173920D01*
X160187946Y-120167740D01*
X160188356Y-120165427D01*
X160189399Y-120159515D01*
X160191049Y-120150139D01*
X160193285Y-120137434D01*
X160196081Y-120121536D01*
X160199414Y-120102579D01*
X160203260Y-120080698D01*
X160207596Y-120056028D01*
X160212398Y-120028705D01*
X160217642Y-119998864D01*
X160223305Y-119966638D01*
X160229362Y-119932165D01*
X160235790Y-119895578D01*
X160242566Y-119857012D01*
X160249665Y-119816603D01*
X160257064Y-119774486D01*
X160264739Y-119730795D01*
X160272666Y-119685667D01*
X160280822Y-119639235D01*
X160289182Y-119591634D01*
X160297724Y-119543001D01*
X160304274Y-119505709D01*
X160419462Y-118849858D01*
X160504149Y-118849365D01*
X160521655Y-118849274D01*
X160537939Y-118849209D01*
X160552620Y-118849172D01*
X160565319Y-118849162D01*
X160575657Y-118849178D01*
G36*
X165208283Y-118849178D02*
X165215883Y-118849222D01*
X165220363Y-118849292D01*
X165221448Y-118849365D01*
X165221119Y-118851251D01*
X165220159Y-118856700D01*
X165218599Y-118865543D01*
X165216468Y-118877609D01*
X165213797Y-118892729D01*
X165210616Y-118910733D01*
X165206954Y-118931452D01*
X165202842Y-118954715D01*
X165198310Y-118980353D01*
X165193388Y-119008196D01*
X165188105Y-119038075D01*
X165182492Y-119069818D01*
X165176579Y-119103258D01*
X165170396Y-119138223D01*
X165163973Y-119174544D01*
X165157339Y-119212051D01*
X165150525Y-119250575D01*
X165149654Y-119255500D01*
X165142823Y-119294143D01*
X165136174Y-119331794D01*
X165129739Y-119368282D01*
X165123546Y-119403438D01*
X165117625Y-119437091D01*
X165112006Y-119469072D01*
X165106718Y-119499211D01*
X165101792Y-119527338D01*
X165097256Y-119553282D01*
X165093142Y-119576875D01*
X165089478Y-119597946D01*
X165086293Y-119616325D01*
X165083619Y-119631842D01*
X165081484Y-119644327D01*
X165079918Y-119653611D01*
X165078951Y-119659523D01*
X165078613Y-119661893D01*
X165078616Y-119661932D01*
X165079954Y-119661932D01*
X165081197Y-119660392D01*
X165084690Y-119656067D01*
X165090300Y-119649120D01*
X165097897Y-119639716D01*
X165107346Y-119628017D01*
X165118517Y-119614187D01*
X165131277Y-119598391D01*
X165145494Y-119580791D01*
X165161036Y-119561552D01*
X165177769Y-119540837D01*
X165195563Y-119518810D01*
X165214285Y-119495634D01*
X165233803Y-119471474D01*
X165253984Y-119446492D01*
X165255530Y-119444579D01*
X165430478Y-119228015D01*
X165524300Y-119228015D01*
X165545572Y-119228021D01*
X165563353Y-119228046D01*
X165577943Y-119228101D01*
X165589642Y-119228196D01*
X165598750Y-119228342D01*
X165605568Y-119228551D01*
X165610394Y-119228832D01*
X165613530Y-119229197D01*
X165615275Y-119229656D01*
X165615929Y-119230221D01*
X165615793Y-119230901D01*
X165615519Y-119231292D01*
X165614021Y-119233100D01*
X165610226Y-119237652D01*
X165604269Y-119244785D01*
X165596286Y-119254336D01*
X165586414Y-119266143D01*
X165574789Y-119280043D01*
X165561547Y-119295872D01*
X165546824Y-119313469D01*
X165530757Y-119332670D01*
X165513481Y-119353313D01*
X165495132Y-119375235D01*
X165475848Y-119398273D01*
X165455763Y-119422265D01*
X165435015Y-119447048D01*
X165431895Y-119450774D01*
X165411065Y-119475653D01*
X165390882Y-119499761D01*
X165371482Y-119522937D01*
X165353000Y-119545017D01*
X165335572Y-119565838D01*
X165319335Y-119585240D01*
X165304424Y-119603058D01*
X165290975Y-119619132D01*
X165279124Y-119633297D01*
X165269007Y-119645393D01*
X165260760Y-119655256D01*
X165254519Y-119662725D01*
X165250419Y-119667636D01*
X165248597Y-119669827D01*
X165248529Y-119669911D01*
X165248418Y-119670770D01*
X165248824Y-119672585D01*
X165249818Y-119675511D01*
X165251471Y-119679699D01*
X165253856Y-119685301D01*
X165257046Y-119692471D01*
X165261110Y-119701360D01*
X165266123Y-119712121D01*
X165272155Y-119724907D01*
X165279278Y-119739869D01*
X165287565Y-119757162D01*
X165297088Y-119776936D01*
X165307918Y-119799344D01*
X165320127Y-119824539D01*
X165333787Y-119852674D01*
X165348971Y-119883900D01*
X165365750Y-119918371D01*
X165366515Y-119919942D01*
X165380533Y-119948737D01*
X165394103Y-119976627D01*
X165407132Y-120003418D01*
X165419524Y-120028919D01*
X165431188Y-120052936D01*
X165442030Y-120075275D01*
X165451955Y-120095745D01*
X165460872Y-120114152D01*
X165468685Y-120130303D01*
X165475301Y-120144006D01*
X165480628Y-120155067D01*
X165484572Y-120163293D01*
X165487038Y-120168492D01*
X165487931Y-120170461D01*
X165488031Y-120171237D01*
X165487592Y-120171886D01*
X165486307Y-120172420D01*
X165483870Y-120172849D01*
X165479974Y-120173185D01*
X165474313Y-120173439D01*
X165466581Y-120173622D01*
X165456470Y-120173747D01*
X165443675Y-120173824D01*
X165427888Y-120173864D01*
X165408804Y-120173879D01*
X165395402Y-120173881D01*
X165301788Y-120173881D01*
X165189354Y-119929832D01*
X165176114Y-119901103D01*
X165163296Y-119873313D01*
X165150993Y-119846658D01*
X165139294Y-119821332D01*
X165128289Y-119797531D01*
X165118071Y-119775451D01*
X165108728Y-119755287D01*
X165100352Y-119737235D01*
X165093033Y-119721488D01*
X165086862Y-119708244D01*
X165081929Y-119697698D01*
X165078326Y-119690044D01*
X165076141Y-119685478D01*
X165075473Y-119684175D01*
X165075237Y-119683793D01*
X165075040Y-119683362D01*
X165074848Y-119683066D01*
X165074628Y-119683091D01*
X165074346Y-119683621D01*
X165073969Y-119684841D01*
X165073463Y-119686935D01*
X165072795Y-119690088D01*
X165071931Y-119694485D01*
X165070839Y-119700311D01*
X165069484Y-119707749D01*
X165067833Y-119716986D01*
X165065852Y-119728205D01*
X165063509Y-119741592D01*
X165060769Y-119757330D01*
X165057600Y-119775605D01*
X165053967Y-119796602D01*
X165049837Y-119820504D01*
X165045178Y-119847497D01*
X165039954Y-119877766D01*
X165034133Y-119911495D01*
X165031050Y-119929358D01*
X165025964Y-119958814D01*
X165021044Y-119987276D01*
X165016332Y-120014516D01*
X165011866Y-120040307D01*
X165007686Y-120064420D01*
X165003831Y-120086628D01*
X165000342Y-120106703D01*
X164997258Y-120124417D01*
X164994619Y-120139542D01*
X164992463Y-120151851D01*
X164990832Y-120161114D01*
X164989763Y-120167105D01*
X164989298Y-120169596D01*
X164989293Y-120169616D01*
X164988271Y-120173881D01*
X164903956Y-120173881D01*
X164886491Y-120173850D01*
X164870252Y-120173762D01*
X164855618Y-120173622D01*
X164842971Y-120173438D01*
X164832689Y-120173216D01*
X164825153Y-120172961D01*
X164820743Y-120172682D01*
X164819715Y-120172459D01*
X164820045Y-120170507D01*
X164821008Y-120164955D01*
X164822581Y-120155935D01*
X164824740Y-120143581D01*
X164827462Y-120128027D01*
X164830724Y-120109404D01*
X164834502Y-120087848D01*
X164838773Y-120063491D01*
X164843513Y-120036466D01*
X164848700Y-120006906D01*
X164854309Y-119974945D01*
X164860317Y-119940717D01*
X164866701Y-119904353D01*
X164873438Y-119865988D01*
X164880504Y-119825755D01*
X164887875Y-119783787D01*
X164895529Y-119740217D01*
X164903442Y-119695178D01*
X164911590Y-119648805D01*
X164919951Y-119601229D01*
X164928500Y-119552584D01*
X164935906Y-119510448D01*
X165052024Y-118849858D01*
X165136758Y-118849365D01*
X165154269Y-118849274D01*
X165170556Y-118849209D01*
X165185240Y-118849172D01*
X165197943Y-118849162D01*
X165208283Y-118849178D01*
X165208283Y-118849178D01*
G37*
X165208283Y-118849178D02*
X165215883Y-118849222D01*
X165220363Y-118849292D01*
X165221448Y-118849365D01*
X165221119Y-118851251D01*
X165220159Y-118856700D01*
X165218599Y-118865543D01*
X165216468Y-118877609D01*
X165213797Y-118892729D01*
X165210616Y-118910733D01*
X165206954Y-118931452D01*
X165202842Y-118954715D01*
X165198310Y-118980353D01*
X165193388Y-119008196D01*
X165188105Y-119038075D01*
X165182492Y-119069818D01*
X165176579Y-119103258D01*
X165170396Y-119138223D01*
X165163973Y-119174544D01*
X165157339Y-119212051D01*
X165150525Y-119250575D01*
X165149654Y-119255500D01*
X165142823Y-119294143D01*
X165136174Y-119331794D01*
X165129739Y-119368282D01*
X165123546Y-119403438D01*
X165117625Y-119437091D01*
X165112006Y-119469072D01*
X165106718Y-119499211D01*
X165101792Y-119527338D01*
X165097256Y-119553282D01*
X165093142Y-119576875D01*
X165089478Y-119597946D01*
X165086293Y-119616325D01*
X165083619Y-119631842D01*
X165081484Y-119644327D01*
X165079918Y-119653611D01*
X165078951Y-119659523D01*
X165078613Y-119661893D01*
X165078616Y-119661932D01*
X165079954Y-119661932D01*
X165081197Y-119660392D01*
X165084690Y-119656067D01*
X165090300Y-119649120D01*
X165097897Y-119639716D01*
X165107346Y-119628017D01*
X165118517Y-119614187D01*
X165131277Y-119598391D01*
X165145494Y-119580791D01*
X165161036Y-119561552D01*
X165177769Y-119540837D01*
X165195563Y-119518810D01*
X165214285Y-119495634D01*
X165233803Y-119471474D01*
X165253984Y-119446492D01*
X165255530Y-119444579D01*
X165430478Y-119228015D01*
X165524300Y-119228015D01*
X165545572Y-119228021D01*
X165563353Y-119228046D01*
X165577943Y-119228101D01*
X165589642Y-119228196D01*
X165598750Y-119228342D01*
X165605568Y-119228551D01*
X165610394Y-119228832D01*
X165613530Y-119229197D01*
X165615275Y-119229656D01*
X165615929Y-119230221D01*
X165615793Y-119230901D01*
X165615519Y-119231292D01*
X165614021Y-119233100D01*
X165610226Y-119237652D01*
X165604269Y-119244785D01*
X165596286Y-119254336D01*
X165586414Y-119266143D01*
X165574789Y-119280043D01*
X165561547Y-119295872D01*
X165546824Y-119313469D01*
X165530757Y-119332670D01*
X165513481Y-119353313D01*
X165495132Y-119375235D01*
X165475848Y-119398273D01*
X165455763Y-119422265D01*
X165435015Y-119447048D01*
X165431895Y-119450774D01*
X165411065Y-119475653D01*
X165390882Y-119499761D01*
X165371482Y-119522937D01*
X165353000Y-119545017D01*
X165335572Y-119565838D01*
X165319335Y-119585240D01*
X165304424Y-119603058D01*
X165290975Y-119619132D01*
X165279124Y-119633297D01*
X165269007Y-119645393D01*
X165260760Y-119655256D01*
X165254519Y-119662725D01*
X165250419Y-119667636D01*
X165248597Y-119669827D01*
X165248529Y-119669911D01*
X165248418Y-119670770D01*
X165248824Y-119672585D01*
X165249818Y-119675511D01*
X165251471Y-119679699D01*
X165253856Y-119685301D01*
X165257046Y-119692471D01*
X165261110Y-119701360D01*
X165266123Y-119712121D01*
X165272155Y-119724907D01*
X165279278Y-119739869D01*
X165287565Y-119757162D01*
X165297088Y-119776936D01*
X165307918Y-119799344D01*
X165320127Y-119824539D01*
X165333787Y-119852674D01*
X165348971Y-119883900D01*
X165365750Y-119918371D01*
X165366515Y-119919942D01*
X165380533Y-119948737D01*
X165394103Y-119976627D01*
X165407132Y-120003418D01*
X165419524Y-120028919D01*
X165431188Y-120052936D01*
X165442030Y-120075275D01*
X165451955Y-120095745D01*
X165460872Y-120114152D01*
X165468685Y-120130303D01*
X165475301Y-120144006D01*
X165480628Y-120155067D01*
X165484572Y-120163293D01*
X165487038Y-120168492D01*
X165487931Y-120170461D01*
X165488031Y-120171237D01*
X165487592Y-120171886D01*
X165486307Y-120172420D01*
X165483870Y-120172849D01*
X165479974Y-120173185D01*
X165474313Y-120173439D01*
X165466581Y-120173622D01*
X165456470Y-120173747D01*
X165443675Y-120173824D01*
X165427888Y-120173864D01*
X165408804Y-120173879D01*
X165395402Y-120173881D01*
X165301788Y-120173881D01*
X165189354Y-119929832D01*
X165176114Y-119901103D01*
X165163296Y-119873313D01*
X165150993Y-119846658D01*
X165139294Y-119821332D01*
X165128289Y-119797531D01*
X165118071Y-119775451D01*
X165108728Y-119755287D01*
X165100352Y-119737235D01*
X165093033Y-119721488D01*
X165086862Y-119708244D01*
X165081929Y-119697698D01*
X165078326Y-119690044D01*
X165076141Y-119685478D01*
X165075473Y-119684175D01*
X165075237Y-119683793D01*
X165075040Y-119683362D01*
X165074848Y-119683066D01*
X165074628Y-119683091D01*
X165074346Y-119683621D01*
X165073969Y-119684841D01*
X165073463Y-119686935D01*
X165072795Y-119690088D01*
X165071931Y-119694485D01*
X165070839Y-119700311D01*
X165069484Y-119707749D01*
X165067833Y-119716986D01*
X165065852Y-119728205D01*
X165063509Y-119741592D01*
X165060769Y-119757330D01*
X165057600Y-119775605D01*
X165053967Y-119796602D01*
X165049837Y-119820504D01*
X165045178Y-119847497D01*
X165039954Y-119877766D01*
X165034133Y-119911495D01*
X165031050Y-119929358D01*
X165025964Y-119958814D01*
X165021044Y-119987276D01*
X165016332Y-120014516D01*
X165011866Y-120040307D01*
X165007686Y-120064420D01*
X165003831Y-120086628D01*
X165000342Y-120106703D01*
X164997258Y-120124417D01*
X164994619Y-120139542D01*
X164992463Y-120151851D01*
X164990832Y-120161114D01*
X164989763Y-120167105D01*
X164989298Y-120169596D01*
X164989293Y-120169616D01*
X164988271Y-120173881D01*
X164903956Y-120173881D01*
X164886491Y-120173850D01*
X164870252Y-120173762D01*
X164855618Y-120173622D01*
X164842971Y-120173438D01*
X164832689Y-120173216D01*
X164825153Y-120172961D01*
X164820743Y-120172682D01*
X164819715Y-120172459D01*
X164820045Y-120170507D01*
X164821008Y-120164955D01*
X164822581Y-120155935D01*
X164824740Y-120143581D01*
X164827462Y-120128027D01*
X164830724Y-120109404D01*
X164834502Y-120087848D01*
X164838773Y-120063491D01*
X164843513Y-120036466D01*
X164848700Y-120006906D01*
X164854309Y-119974945D01*
X164860317Y-119940717D01*
X164866701Y-119904353D01*
X164873438Y-119865988D01*
X164880504Y-119825755D01*
X164887875Y-119783787D01*
X164895529Y-119740217D01*
X164903442Y-119695178D01*
X164911590Y-119648805D01*
X164919951Y-119601229D01*
X164928500Y-119552584D01*
X164935906Y-119510448D01*
X165052024Y-118849858D01*
X165136758Y-118849365D01*
X165154269Y-118849274D01*
X165170556Y-118849209D01*
X165185240Y-118849172D01*
X165197943Y-118849162D01*
X165208283Y-118849178D01*
G36*
X159135900Y-118887089D02*
X159151028Y-118887133D01*
X159167648Y-118887205D01*
X159180731Y-118887275D01*
X159264994Y-118887769D01*
X159251261Y-118967381D01*
X159248155Y-118985384D01*
X159245089Y-119003159D01*
X159242159Y-119020151D01*
X159239459Y-119035805D01*
X159237086Y-119049567D01*
X159235136Y-119060883D01*
X159233703Y-119069197D01*
X159233364Y-119071161D01*
X159229202Y-119095329D01*
X159145123Y-119095329D01*
X159125049Y-119095321D01*
X159108440Y-119095290D01*
X159094969Y-119095222D01*
X159084311Y-119095106D01*
X159076138Y-119094926D01*
X159070125Y-119094672D01*
X159065946Y-119094330D01*
X159063273Y-119093887D01*
X159061782Y-119093331D01*
X159061145Y-119092647D01*
X159061031Y-119092011D01*
X159061338Y-119089666D01*
X159062217Y-119084043D01*
X159063596Y-119075560D01*
X159065405Y-119064630D01*
X159067573Y-119051669D01*
X159070028Y-119037093D01*
X159072700Y-119021316D01*
X159075517Y-119004754D01*
X159078408Y-118987821D01*
X159081303Y-118970934D01*
X159084131Y-118954506D01*
X159086820Y-118938955D01*
X159089299Y-118924694D01*
X159091497Y-118912138D01*
X159093344Y-118901704D01*
X159094768Y-118893806D01*
X159095698Y-118888860D01*
X159096054Y-118887275D01*
X159097974Y-118887184D01*
X159103301Y-118887119D01*
X159111653Y-118887082D01*
X159122647Y-118887072D01*
X159135900Y-118887089D01*
X159135900Y-118887089D01*
G37*
X159135900Y-118887089D02*
X159151028Y-118887133D01*
X159167648Y-118887205D01*
X159180731Y-118887275D01*
X159264994Y-118887769D01*
X159251261Y-118967381D01*
X159248155Y-118985384D01*
X159245089Y-119003159D01*
X159242159Y-119020151D01*
X159239459Y-119035805D01*
X159237086Y-119049567D01*
X159235136Y-119060883D01*
X159233703Y-119069197D01*
X159233364Y-119071161D01*
X159229202Y-119095329D01*
X159145123Y-119095329D01*
X159125049Y-119095321D01*
X159108440Y-119095290D01*
X159094969Y-119095222D01*
X159084311Y-119095106D01*
X159076138Y-119094926D01*
X159070125Y-119094672D01*
X159065946Y-119094330D01*
X159063273Y-119093887D01*
X159061782Y-119093331D01*
X159061145Y-119092647D01*
X159061031Y-119092011D01*
X159061338Y-119089666D01*
X159062217Y-119084043D01*
X159063596Y-119075560D01*
X159065405Y-119064630D01*
X159067573Y-119051669D01*
X159070028Y-119037093D01*
X159072700Y-119021316D01*
X159075517Y-119004754D01*
X159078408Y-118987821D01*
X159081303Y-118970934D01*
X159084131Y-118954506D01*
X159086820Y-118938955D01*
X159089299Y-118924694D01*
X159091497Y-118912138D01*
X159093344Y-118901704D01*
X159094768Y-118893806D01*
X159095698Y-118888860D01*
X159096054Y-118887275D01*
X159097974Y-118887184D01*
X159103301Y-118887119D01*
X159111653Y-118887082D01*
X159122647Y-118887072D01*
X159135900Y-118887089D01*
D12*
X150309760Y-116690840D02*
X150309760Y-116739100D01*
X151010800Y-119489820D02*
X150309760Y-119489820D01*
X150309760Y-119489820D02*
X150309760Y-119240900D01*
X150309760Y-116690840D02*
X150309760Y-116490180D01*
X150309760Y-116490180D02*
X151010800Y-116490180D01*
X147260000Y-117815000D02*
X146260000Y-117815000D01*
X146260000Y-116465000D02*
X147260000Y-116465000D01*
X152795000Y-120410000D02*
X152795000Y-119410000D01*
X154145000Y-119410000D02*
X154145000Y-120410000D01*
X150910000Y-102925000D02*
X151910000Y-102925000D01*
X151910000Y-104275000D02*
X150910000Y-104275000D01*
X148490000Y-119590000D02*
X146940000Y-119590000D01*
X148490000Y-120790000D02*
X146940000Y-120790000D01*
X132846667Y-95138571D02*
X132513333Y-95138571D01*
X132513333Y-95662381D02*
X132513333Y-94662381D01*
X132989524Y-94662381D01*
X133322857Y-94757619D02*
X133370476Y-94710000D01*
X133465714Y-94662381D01*
X133703810Y-94662381D01*
X133799048Y-94710000D01*
X133846667Y-94757619D01*
X133894286Y-94852857D01*
X133894286Y-94948095D01*
X133846667Y-95090952D01*
X133275238Y-95662381D01*
X133894286Y-95662381D01*
X158756667Y-121458571D02*
X158423333Y-121458571D01*
X158423333Y-121982381D02*
X158423333Y-120982381D01*
X158899524Y-120982381D01*
X159185238Y-120982381D02*
X159804286Y-120982381D01*
X159470952Y-121363333D01*
X159613810Y-121363333D01*
X159709048Y-121410952D01*
X159756667Y-121458571D01*
X159804286Y-121553810D01*
X159804286Y-121791905D01*
X159756667Y-121887143D01*
X159709048Y-121934762D01*
X159613810Y-121982381D01*
X159328095Y-121982381D01*
X159232857Y-121934762D01*
X159185238Y-121887143D01*
X154907143Y-108016666D02*
X154954762Y-108064285D01*
X155002381Y-108207142D01*
X155002381Y-108302380D01*
X154954762Y-108445238D01*
X154859524Y-108540476D01*
X154764286Y-108588095D01*
X154573810Y-108635714D01*
X154430952Y-108635714D01*
X154240476Y-108588095D01*
X154145238Y-108540476D01*
X154050000Y-108445238D01*
X154002381Y-108302380D01*
X154002381Y-108207142D01*
X154050000Y-108064285D01*
X154097619Y-108016666D01*
X155002381Y-107064285D02*
X155002381Y-107635714D01*
X155002381Y-107350000D02*
X154002381Y-107350000D01*
X154145238Y-107445238D01*
X154240476Y-107540476D01*
X154288095Y-107635714D01*
X159702381Y-124988095D02*
X158702381Y-124988095D01*
X158702381Y-124750000D01*
X158750000Y-124607142D01*
X158845238Y-124511904D01*
X158940476Y-124464285D01*
X159130952Y-124416666D01*
X159273810Y-124416666D01*
X159464286Y-124464285D01*
X159559524Y-124511904D01*
X159654762Y-124607142D01*
X159702381Y-124750000D01*
X159702381Y-124988095D01*
X159702381Y-123464285D02*
X159702381Y-124035714D01*
X159702381Y-123750000D02*
X158702381Y-123750000D01*
X158845238Y-123845238D01*
X158940476Y-123940476D01*
X158988095Y-124035714D01*
X154602381Y-123816666D02*
X154126190Y-124150000D01*
X154602381Y-124388095D02*
X153602381Y-124388095D01*
X153602381Y-124007142D01*
X153650000Y-123911904D01*
X153697619Y-123864285D01*
X153792857Y-123816666D01*
X153935714Y-123816666D01*
X154030952Y-123864285D01*
X154078571Y-123911904D01*
X154126190Y-124007142D01*
X154126190Y-124388095D01*
X154602381Y-122864285D02*
X154602381Y-123435714D01*
X154602381Y-123150000D02*
X153602381Y-123150000D01*
X153745238Y-123245238D01*
X153840476Y-123340476D01*
X153888095Y-123435714D01*
X150894762Y-116187619D02*
X150799524Y-116140000D01*
X150704286Y-116044762D01*
X150561429Y-115901905D01*
X150466190Y-115854286D01*
X150370952Y-115854286D01*
X150418571Y-116092381D02*
X150323333Y-116044762D01*
X150228095Y-115949524D01*
X150180476Y-115759048D01*
X150180476Y-115425714D01*
X150228095Y-115235238D01*
X150323333Y-115140000D01*
X150418571Y-115092381D01*
X150609048Y-115092381D01*
X150704286Y-115140000D01*
X150799524Y-115235238D01*
X150847143Y-115425714D01*
X150847143Y-115759048D01*
X150799524Y-115949524D01*
X150704286Y-116044762D01*
X150609048Y-116092381D01*
X150418571Y-116092381D01*
X151799524Y-116092381D02*
X151228095Y-116092381D01*
X151513809Y-116092381D02*
X151513809Y-115092381D01*
X151418571Y-115235238D01*
X151323333Y-115330476D01*
X151228095Y-115378095D01*
X143713334Y-117582381D02*
X143380000Y-117106190D01*
X143141905Y-117582381D02*
X143141905Y-116582381D01*
X143522858Y-116582381D01*
X143618096Y-116630000D01*
X143665715Y-116677619D01*
X143713334Y-116772857D01*
X143713334Y-116915714D01*
X143665715Y-117010952D01*
X143618096Y-117058571D01*
X143522858Y-117106190D01*
X143141905Y-117106190D01*
X144094286Y-116677619D02*
X144141905Y-116630000D01*
X144237143Y-116582381D01*
X144475239Y-116582381D01*
X144570477Y-116630000D01*
X144618096Y-116677619D01*
X144665715Y-116772857D01*
X144665715Y-116868095D01*
X144618096Y-117010952D01*
X144046667Y-117582381D01*
X144665715Y-117582381D01*
X155822381Y-120076666D02*
X155346190Y-120410000D01*
X155822381Y-120648095D02*
X154822381Y-120648095D01*
X154822381Y-120267142D01*
X154870000Y-120171904D01*
X154917619Y-120124285D01*
X155012857Y-120076666D01*
X155155714Y-120076666D01*
X155250952Y-120124285D01*
X155298571Y-120171904D01*
X155346190Y-120267142D01*
X155346190Y-120648095D01*
X154822381Y-119743333D02*
X154822381Y-119124285D01*
X155203333Y-119457619D01*
X155203333Y-119314761D01*
X155250952Y-119219523D01*
X155298571Y-119171904D01*
X155393810Y-119124285D01*
X155631905Y-119124285D01*
X155727143Y-119171904D01*
X155774762Y-119219523D01*
X155822381Y-119314761D01*
X155822381Y-119600476D01*
X155774762Y-119695714D01*
X155727143Y-119743333D01*
X151293334Y-102592381D02*
X150960000Y-102116190D01*
X150721905Y-102592381D02*
X150721905Y-101592381D01*
X151102858Y-101592381D01*
X151198096Y-101640000D01*
X151245715Y-101687619D01*
X151293334Y-101782857D01*
X151293334Y-101925714D01*
X151245715Y-102020952D01*
X151198096Y-102068571D01*
X151102858Y-102116190D01*
X150721905Y-102116190D01*
X152150477Y-101925714D02*
X152150477Y-102592381D01*
X151912381Y-101544762D02*
X151674286Y-102259048D01*
X152293334Y-102259048D01*
X147091905Y-119342381D02*
X147091905Y-118342381D01*
X147330000Y-118342381D01*
X147472858Y-118390000D01*
X147568096Y-118485238D01*
X147615715Y-118580476D01*
X147663334Y-118770952D01*
X147663334Y-118913810D01*
X147615715Y-119104286D01*
X147568096Y-119199524D01*
X147472858Y-119294762D01*
X147330000Y-119342381D01*
X147091905Y-119342381D01*
X148044286Y-118437619D02*
X148091905Y-118390000D01*
X148187143Y-118342381D01*
X148425239Y-118342381D01*
X148520477Y-118390000D01*
X148568096Y-118437619D01*
X148615715Y-118532857D01*
X148615715Y-118628095D01*
X148568096Y-118770952D01*
X147996667Y-119342381D01*
X148615715Y-119342381D01*
X135146667Y-124298571D02*
X134813333Y-124298571D01*
X134813333Y-124822381D02*
X134813333Y-123822381D01*
X135289524Y-123822381D01*
X136194286Y-124822381D02*
X135622857Y-124822381D01*
X135908571Y-124822381D02*
X135908571Y-123822381D01*
X135813333Y-123965238D01*
X135718095Y-124060476D01*
X135622857Y-124108095D01*
M02*
