G04 #@! TF.FileFunction,Copper,L1,Top,Signal*
%FSLAX46Y46*%
G04 Gerber Fmt 4.6, Leading zero omitted, Abs format (unit mm)*
G04 Created by KiCad (PCBNEW (2015-11-03 BZR 6296)-product) date Monday, December 21, 2015 'PMt' 04:07:47 PM*
%MOMM*%
G01*
G04 APERTURE LIST*
%ADD10C,0.100000*%
%ADD11C,0.010000*%
%ADD12O,2.032000X1.727200*%
%ADD13R,2.032000X1.727200*%
%ADD14R,1.501140X0.398780*%
%ADD15R,1.600000X2.000000*%
%ADD16R,0.797560X0.797560*%
%ADD17R,0.900000X1.200000*%
%ADD18R,1.727200X2.032000*%
%ADD19O,1.727200X2.032000*%
%ADD20R,2.032000X2.032000*%
%ADD21O,2.032000X2.032000*%
%ADD22R,0.700000X0.200000*%
%ADD23C,0.685800*%
%ADD24C,0.685801*%
%ADD25C,0.152400*%
%ADD26C,0.254000*%
G04 APERTURE END LIST*
D10*
D11*
G36*
X146520577Y-93494931D02*
X146488906Y-93494428D01*
X146461275Y-93493379D01*
X146436176Y-93491660D01*
X146412107Y-93489149D01*
X146387561Y-93485724D01*
X146361033Y-93481260D01*
X146339069Y-93477185D01*
X146280214Y-93464422D01*
X146219117Y-93448355D01*
X146158664Y-93429818D01*
X146101740Y-93409646D01*
X146090361Y-93405223D01*
X146047183Y-93388030D01*
X146004808Y-93370892D01*
X145962850Y-93353630D01*
X145920920Y-93336063D01*
X145878631Y-93318011D01*
X145835596Y-93299293D01*
X145791427Y-93279729D01*
X145745735Y-93259138D01*
X145698134Y-93237341D01*
X145648236Y-93214156D01*
X145595653Y-93189403D01*
X145539997Y-93162901D01*
X145480882Y-93134472D01*
X145417918Y-93103933D01*
X145350720Y-93071104D01*
X145278898Y-93035806D01*
X145202065Y-92997857D01*
X145119834Y-92957077D01*
X145031817Y-92913286D01*
X145009097Y-92901963D01*
X144930817Y-92863019D01*
X144858298Y-92827120D01*
X144791051Y-92794039D01*
X144728585Y-92763552D01*
X144670411Y-92735433D01*
X144616038Y-92709455D01*
X144564976Y-92685394D01*
X144516735Y-92663022D01*
X144470825Y-92642115D01*
X144426756Y-92622447D01*
X144384038Y-92603792D01*
X144342181Y-92585924D01*
X144300694Y-92568618D01*
X144259088Y-92551647D01*
X144216872Y-92534787D01*
X144183597Y-92521719D01*
X144160074Y-92512482D01*
X144138681Y-92503963D01*
X144120312Y-92496527D01*
X144105857Y-92490540D01*
X144096209Y-92486365D01*
X144092268Y-92484376D01*
X144092801Y-92480281D01*
X144098013Y-92472263D01*
X144107261Y-92461032D01*
X144119900Y-92447296D01*
X144135288Y-92431764D01*
X144152781Y-92415145D01*
X144165822Y-92403343D01*
X144233801Y-92347242D01*
X144308236Y-92293747D01*
X144389006Y-92242914D01*
X144475989Y-92194800D01*
X144569062Y-92149462D01*
X144668103Y-92106957D01*
X144772991Y-92067342D01*
X144883602Y-92030673D01*
X144999815Y-91997008D01*
X145086708Y-91974704D01*
X145187303Y-91951462D01*
X145282291Y-91932133D01*
X145371919Y-91916697D01*
X145456439Y-91905132D01*
X145536099Y-91897420D01*
X145611149Y-91893538D01*
X145681837Y-91893465D01*
X145748413Y-91897182D01*
X145811126Y-91904668D01*
X145848918Y-91911340D01*
X145909550Y-91926252D01*
X145964906Y-91945633D01*
X146014914Y-91969410D01*
X146059501Y-91997509D01*
X146098596Y-92029858D01*
X146132127Y-92066383D01*
X146160021Y-92107012D01*
X146182205Y-92151671D01*
X146198608Y-92200287D01*
X146209158Y-92252786D01*
X146212097Y-92279060D01*
X146212915Y-92290167D01*
X146213851Y-92298302D01*
X146215889Y-92304006D01*
X146220009Y-92307822D01*
X146227194Y-92310290D01*
X146238425Y-92311954D01*
X146254685Y-92313354D01*
X146276955Y-92315033D01*
X146277333Y-92315063D01*
X146304885Y-92317290D01*
X146326056Y-92319184D01*
X146341509Y-92320834D01*
X146351906Y-92322327D01*
X146357910Y-92323751D01*
X146360183Y-92325193D01*
X146360082Y-92326026D01*
X146362027Y-92327335D01*
X146368861Y-92327560D01*
X146378532Y-92326886D01*
X146388990Y-92325503D01*
X146398183Y-92323597D01*
X146402569Y-92322141D01*
X146408077Y-92320624D01*
X146419384Y-92318164D01*
X146435331Y-92314992D01*
X146454759Y-92311335D01*
X146476511Y-92307422D01*
X146481944Y-92306471D01*
X146563430Y-92292964D01*
X146640846Y-92281591D01*
X146716734Y-92272013D01*
X146793633Y-92263891D01*
X146817083Y-92261706D01*
X146839513Y-92260112D01*
X146866719Y-92258879D01*
X146897348Y-92258007D01*
X146930049Y-92257496D01*
X146963471Y-92257348D01*
X146996262Y-92257562D01*
X147027070Y-92258139D01*
X147054545Y-92259080D01*
X147077334Y-92260385D01*
X147090486Y-92261598D01*
X147163314Y-92271253D01*
X147234171Y-92283140D01*
X147304932Y-92297651D01*
X147377473Y-92315178D01*
X147453669Y-92336110D01*
X147469143Y-92340632D01*
X147491757Y-92347425D01*
X147508423Y-92352778D01*
X147520018Y-92357041D01*
X147527422Y-92360562D01*
X147531510Y-92363691D01*
X147532943Y-92366032D01*
X147533909Y-92371145D01*
X147535491Y-92382439D01*
X147537590Y-92399075D01*
X147540105Y-92420217D01*
X147542937Y-92445025D01*
X147545987Y-92472662D01*
X147549082Y-92501608D01*
X147552679Y-92535601D01*
X147555565Y-92563243D01*
X147557688Y-92585209D01*
X147558999Y-92602170D01*
X147559447Y-92614802D01*
X147558982Y-92623777D01*
X147557553Y-92629770D01*
X147555110Y-92633453D01*
X147551603Y-92635501D01*
X147546982Y-92636587D01*
X147541195Y-92637385D01*
X147538909Y-92637717D01*
X147527663Y-92639746D01*
X147510611Y-92643203D01*
X147488807Y-92647849D01*
X147463300Y-92653445D01*
X147435142Y-92659751D01*
X147405385Y-92666529D01*
X147375079Y-92673539D01*
X147345275Y-92680543D01*
X147317025Y-92687300D01*
X147291380Y-92693573D01*
X147272167Y-92698407D01*
X147169538Y-92725766D01*
X147073547Y-92753603D01*
X146983787Y-92782055D01*
X146899847Y-92811258D01*
X146821320Y-92841350D01*
X146747797Y-92872466D01*
X146735944Y-92877787D01*
X146665270Y-92912240D01*
X146593300Y-92951978D01*
X146521754Y-92995908D01*
X146452352Y-93042934D01*
X146386810Y-93091963D01*
X146342597Y-93128214D01*
X146324935Y-93143577D01*
X146306602Y-93159988D01*
X146288316Y-93176756D01*
X146270794Y-93193190D01*
X146254751Y-93208599D01*
X146240905Y-93222291D01*
X146229973Y-93233576D01*
X146222671Y-93241762D01*
X146219717Y-93246159D01*
X146219781Y-93246632D01*
X146225886Y-93249881D01*
X146237863Y-93254203D01*
X146254653Y-93259337D01*
X146275199Y-93265020D01*
X146298444Y-93270989D01*
X146323330Y-93276981D01*
X146348801Y-93282735D01*
X146373799Y-93287987D01*
X146397268Y-93292474D01*
X146418148Y-93295935D01*
X146418444Y-93295979D01*
X146473487Y-93302523D01*
X146527821Y-93305577D01*
X146582961Y-93305107D01*
X146640419Y-93301077D01*
X146701711Y-93293452D01*
X146731539Y-93288739D01*
X146824796Y-93270150D01*
X146914229Y-93246293D01*
X146999623Y-93217275D01*
X147080766Y-93183203D01*
X147157443Y-93144182D01*
X147229442Y-93100319D01*
X147296549Y-93051720D01*
X147358551Y-92998491D01*
X147402051Y-92955085D01*
X147444426Y-92906444D01*
X147482464Y-92855667D01*
X147515507Y-92803770D01*
X147542895Y-92751770D01*
X147560344Y-92710645D01*
X147565320Y-92698231D01*
X147569944Y-92688063D01*
X147573211Y-92682348D01*
X147576468Y-92679042D01*
X147584369Y-92671330D01*
X147596439Y-92659666D01*
X147612207Y-92644504D01*
X147631199Y-92626296D01*
X147652943Y-92605496D01*
X147676966Y-92582558D01*
X147702795Y-92557935D01*
X147721958Y-92539691D01*
X147748659Y-92514263D01*
X147773792Y-92490288D01*
X147796896Y-92468206D01*
X147817514Y-92448460D01*
X147835187Y-92431487D01*
X147849455Y-92417730D01*
X147859861Y-92407629D01*
X147865945Y-92401624D01*
X147867393Y-92400078D01*
X147864428Y-92398301D01*
X147855616Y-92393948D01*
X147841564Y-92387299D01*
X147822877Y-92378632D01*
X147800164Y-92368227D01*
X147774028Y-92356363D01*
X147745077Y-92343317D01*
X147713917Y-92329370D01*
X147706532Y-92326077D01*
X147544874Y-92254058D01*
X147528019Y-92193786D01*
X147519906Y-92165801D01*
X147510059Y-92133466D01*
X147499084Y-92098653D01*
X147487589Y-92063238D01*
X147476183Y-92029093D01*
X147465473Y-91998093D01*
X147456489Y-91973243D01*
X147451041Y-91959557D01*
X147446521Y-91951083D01*
X147441864Y-91946267D01*
X147436170Y-91943608D01*
X147428868Y-91942442D01*
X147415547Y-91941504D01*
X147397240Y-91940791D01*
X147374980Y-91940303D01*
X147349799Y-91940035D01*
X147322731Y-91939987D01*
X147294808Y-91940155D01*
X147267063Y-91940539D01*
X147240528Y-91941134D01*
X147216237Y-91941940D01*
X147195223Y-91942954D01*
X147178681Y-91944159D01*
X147015739Y-91961788D01*
X146915861Y-91975162D01*
X146873141Y-91981600D01*
X146836322Y-91987900D01*
X146804266Y-91994376D01*
X146775833Y-92001339D01*
X146749884Y-92009101D01*
X146725279Y-92017975D01*
X146700878Y-92028273D01*
X146675543Y-92040306D01*
X146672444Y-92041853D01*
X146616885Y-92073187D01*
X146562336Y-92110789D01*
X146509767Y-92153872D01*
X146460148Y-92201647D01*
X146419686Y-92246958D01*
X146401653Y-92268681D01*
X146399252Y-92243431D01*
X146392225Y-92196009D01*
X146380319Y-92146832D01*
X146364198Y-92097776D01*
X146344523Y-92050718D01*
X146321958Y-92007537D01*
X146308281Y-91985711D01*
X146270660Y-91935994D01*
X146227859Y-91890997D01*
X146179963Y-91850749D01*
X146127063Y-91815277D01*
X146069243Y-91784611D01*
X146006594Y-91758777D01*
X145939201Y-91737803D01*
X145867152Y-91721718D01*
X145790535Y-91710549D01*
X145709438Y-91704324D01*
X145623947Y-91703071D01*
X145534152Y-91706818D01*
X145455361Y-91713861D01*
X145382218Y-91723178D01*
X145304125Y-91735491D01*
X145222379Y-91750519D01*
X145138276Y-91767976D01*
X145053113Y-91787582D01*
X144968187Y-91809051D01*
X144884795Y-91832101D01*
X144808014Y-91855255D01*
X144710540Y-91887888D01*
X144616214Y-91923330D01*
X144525387Y-91961371D01*
X144438408Y-92001797D01*
X144355628Y-92044400D01*
X144277396Y-92088966D01*
X144204063Y-92135286D01*
X144135979Y-92183147D01*
X144073494Y-92232339D01*
X144016959Y-92282650D01*
X143966722Y-92333869D01*
X143923135Y-92385785D01*
X143918484Y-92391897D01*
X143908868Y-92404324D01*
X143902108Y-92411896D01*
X143897071Y-92415578D01*
X143892623Y-92416336D01*
X143890274Y-92415921D01*
X143870837Y-92411612D01*
X143845760Y-92406930D01*
X143816432Y-92402078D01*
X143784243Y-92397263D01*
X143750585Y-92392687D01*
X143716848Y-92388557D01*
X143684422Y-92385077D01*
X143673833Y-92384068D01*
X143642095Y-92381538D01*
X143610112Y-92379816D01*
X143577209Y-92378933D01*
X143542710Y-92378920D01*
X143505940Y-92379806D01*
X143466225Y-92381623D01*
X143422887Y-92384401D01*
X143375254Y-92388171D01*
X143322648Y-92392963D01*
X143264395Y-92398808D01*
X143202875Y-92405400D01*
X143113835Y-92415763D01*
X143018361Y-92427982D01*
X142916807Y-92441993D01*
X142809531Y-92457731D01*
X142696885Y-92475132D01*
X142579226Y-92494133D01*
X142456909Y-92514668D01*
X142330288Y-92536674D01*
X142199720Y-92560086D01*
X142065559Y-92584840D01*
X141928160Y-92610872D01*
X141787879Y-92638118D01*
X141645070Y-92666514D01*
X141500089Y-92695994D01*
X141353291Y-92726495D01*
X141205031Y-92757954D01*
X141055665Y-92790304D01*
X140968028Y-92809592D01*
X140923534Y-92819446D01*
X140885316Y-92827733D01*
X140852742Y-92834320D01*
X140825177Y-92839072D01*
X140801989Y-92841854D01*
X140782545Y-92842532D01*
X140766212Y-92840972D01*
X140752358Y-92837038D01*
X140740348Y-92830596D01*
X140729551Y-92821512D01*
X140719333Y-92809652D01*
X140709062Y-92794880D01*
X140698104Y-92777062D01*
X140685826Y-92756064D01*
X140681547Y-92748705D01*
X140644278Y-92682928D01*
X140609346Y-92617678D01*
X140577145Y-92553786D01*
X140548071Y-92492085D01*
X140522519Y-92433406D01*
X140500883Y-92378581D01*
X140487018Y-92339141D01*
X140471558Y-92286728D01*
X140460842Y-92237816D01*
X140454842Y-92192633D01*
X140453531Y-92151406D01*
X140456881Y-92114365D01*
X140464866Y-92081738D01*
X140477457Y-92053753D01*
X140494628Y-92030638D01*
X140516351Y-92012622D01*
X140526876Y-92006605D01*
X140537009Y-92001846D01*
X140548059Y-91997476D01*
X140560385Y-91993467D01*
X140574343Y-91989791D01*
X140590291Y-91986419D01*
X140608587Y-91983323D01*
X140629586Y-91980476D01*
X140653648Y-91977848D01*
X140681128Y-91975413D01*
X140712385Y-91973141D01*
X140747775Y-91971005D01*
X140787657Y-91968977D01*
X140832387Y-91967027D01*
X140882323Y-91965129D01*
X140937822Y-91963254D01*
X140999241Y-91961374D01*
X141066938Y-91959460D01*
X141141269Y-91957485D01*
X141155000Y-91957131D01*
X141277077Y-91953793D01*
X141392656Y-91950214D01*
X141502293Y-91946361D01*
X141606544Y-91942206D01*
X141705963Y-91937716D01*
X141801105Y-91932862D01*
X141892526Y-91927612D01*
X141980781Y-91921936D01*
X142066426Y-91915804D01*
X142150015Y-91909184D01*
X142232103Y-91902046D01*
X142313246Y-91894360D01*
X142340333Y-91891655D01*
X142469033Y-91877823D01*
X142593498Y-91862727D01*
X142714477Y-91846195D01*
X142832719Y-91828059D01*
X142948972Y-91808149D01*
X143063984Y-91786295D01*
X143178504Y-91762329D01*
X143293279Y-91736080D01*
X143409059Y-91707380D01*
X143526592Y-91676058D01*
X143646627Y-91641946D01*
X143769910Y-91604873D01*
X143897192Y-91564671D01*
X144029220Y-91521170D01*
X144134208Y-91485449D01*
X144184068Y-91467941D01*
X144231600Y-91450515D01*
X144277473Y-91432850D01*
X144322357Y-91414626D01*
X144366920Y-91395524D01*
X144411833Y-91375221D01*
X144457765Y-91353399D01*
X144505385Y-91329737D01*
X144555363Y-91303915D01*
X144608367Y-91275612D01*
X144665068Y-91244508D01*
X144726135Y-91210283D01*
X144792237Y-91172616D01*
X144813306Y-91160507D01*
X144871927Y-91126777D01*
X144924898Y-91096349D01*
X144972666Y-91068975D01*
X145015679Y-91044409D01*
X145054384Y-91022404D01*
X145089229Y-91002713D01*
X145120662Y-90985090D01*
X145149130Y-90969286D01*
X145175081Y-90955056D01*
X145198963Y-90942152D01*
X145221223Y-90930328D01*
X145242308Y-90919336D01*
X145262668Y-90908930D01*
X145282748Y-90898862D01*
X145302997Y-90888887D01*
X145323862Y-90878756D01*
X145325694Y-90877872D01*
X145393133Y-90846435D01*
X145456750Y-90819181D01*
X145517918Y-90795718D01*
X145578008Y-90775655D01*
X145638391Y-90758598D01*
X145700440Y-90744156D01*
X145765526Y-90731936D01*
X145835022Y-90721546D01*
X145899861Y-90713721D01*
X145940848Y-90709961D01*
X145986794Y-90707001D01*
X146035642Y-90704895D01*
X146085337Y-90703699D01*
X146133821Y-90703468D01*
X146179038Y-90704256D01*
X146208542Y-90705492D01*
X146288088Y-90712135D01*
X146368544Y-90723257D01*
X146448722Y-90738557D01*
X146527433Y-90757737D01*
X146603489Y-90780499D01*
X146675702Y-90806544D01*
X146742884Y-90835573D01*
X146760992Y-90844375D01*
X146841972Y-90888628D01*
X146921194Y-90939592D01*
X146998518Y-90997107D01*
X147073805Y-91061017D01*
X147146914Y-91131164D01*
X147217705Y-91207390D01*
X147286040Y-91289537D01*
X147351777Y-91377448D01*
X147414778Y-91470964D01*
X147474903Y-91569930D01*
X147532011Y-91674186D01*
X147577103Y-91764799D01*
X147595441Y-91804713D01*
X147613063Y-91846078D01*
X147630474Y-91890186D01*
X147648181Y-91938328D01*
X147666690Y-91991796D01*
X147671035Y-92004750D01*
X147678704Y-92028196D01*
X147686807Y-92053786D01*
X147694992Y-92080327D01*
X147702907Y-92106627D01*
X147710199Y-92131492D01*
X147716515Y-92153731D01*
X147721504Y-92172152D01*
X147724813Y-92185560D01*
X147725622Y-92189442D01*
X147727791Y-92201004D01*
X147932405Y-92283572D01*
X147968385Y-92298117D01*
X148002393Y-92311915D01*
X148033868Y-92324734D01*
X148062252Y-92336346D01*
X148086986Y-92346520D01*
X148107510Y-92355026D01*
X148123266Y-92361633D01*
X148133693Y-92366111D01*
X148138232Y-92368231D01*
X148138381Y-92368344D01*
X148136040Y-92370994D01*
X148128838Y-92377950D01*
X148117188Y-92388837D01*
X148101505Y-92403276D01*
X148082203Y-92420892D01*
X148059696Y-92441306D01*
X148034399Y-92464141D01*
X148006726Y-92489021D01*
X147977091Y-92515568D01*
X147951714Y-92538231D01*
X147915698Y-92570360D01*
X147884584Y-92598154D01*
X147858002Y-92621967D01*
X147835585Y-92642152D01*
X147816962Y-92659065D01*
X147801765Y-92673058D01*
X147789624Y-92684487D01*
X147780170Y-92693706D01*
X147773035Y-92701069D01*
X147767848Y-92706929D01*
X147764241Y-92711642D01*
X147761844Y-92715561D01*
X147760288Y-92719041D01*
X147759205Y-92722435D01*
X147759021Y-92723103D01*
X147752612Y-92743652D01*
X147743510Y-92768602D01*
X147732440Y-92796184D01*
X147720126Y-92824625D01*
X147707295Y-92852157D01*
X147700700Y-92865446D01*
X147668251Y-92923655D01*
X147631023Y-92979780D01*
X147588334Y-93034751D01*
X147539501Y-93089498D01*
X147526358Y-93103151D01*
X147470849Y-93156690D01*
X147413569Y-93205173D01*
X147353315Y-93249469D01*
X147288883Y-93290443D01*
X147219069Y-93328963D01*
X147198083Y-93339580D01*
X147130029Y-93371452D01*
X147062015Y-93399287D01*
X146992813Y-93423459D01*
X146921193Y-93444341D01*
X146845928Y-93462308D01*
X146765788Y-93477732D01*
X146719320Y-93485248D01*
X146699484Y-93488168D01*
X146682156Y-93490434D01*
X146665939Y-93492130D01*
X146649438Y-93493341D01*
X146631258Y-93494152D01*
X146610002Y-93494645D01*
X146584276Y-93494906D01*
X146557792Y-93495009D01*
X146520577Y-93494931D01*
X146520577Y-93494931D01*
G37*
X146520577Y-93494931D02*
X146488906Y-93494428D01*
X146461275Y-93493379D01*
X146436176Y-93491660D01*
X146412107Y-93489149D01*
X146387561Y-93485724D01*
X146361033Y-93481260D01*
X146339069Y-93477185D01*
X146280214Y-93464422D01*
X146219117Y-93448355D01*
X146158664Y-93429818D01*
X146101740Y-93409646D01*
X146090361Y-93405223D01*
X146047183Y-93388030D01*
X146004808Y-93370892D01*
X145962850Y-93353630D01*
X145920920Y-93336063D01*
X145878631Y-93318011D01*
X145835596Y-93299293D01*
X145791427Y-93279729D01*
X145745735Y-93259138D01*
X145698134Y-93237341D01*
X145648236Y-93214156D01*
X145595653Y-93189403D01*
X145539997Y-93162901D01*
X145480882Y-93134472D01*
X145417918Y-93103933D01*
X145350720Y-93071104D01*
X145278898Y-93035806D01*
X145202065Y-92997857D01*
X145119834Y-92957077D01*
X145031817Y-92913286D01*
X145009097Y-92901963D01*
X144930817Y-92863019D01*
X144858298Y-92827120D01*
X144791051Y-92794039D01*
X144728585Y-92763552D01*
X144670411Y-92735433D01*
X144616038Y-92709455D01*
X144564976Y-92685394D01*
X144516735Y-92663022D01*
X144470825Y-92642115D01*
X144426756Y-92622447D01*
X144384038Y-92603792D01*
X144342181Y-92585924D01*
X144300694Y-92568618D01*
X144259088Y-92551647D01*
X144216872Y-92534787D01*
X144183597Y-92521719D01*
X144160074Y-92512482D01*
X144138681Y-92503963D01*
X144120312Y-92496527D01*
X144105857Y-92490540D01*
X144096209Y-92486365D01*
X144092268Y-92484376D01*
X144092801Y-92480281D01*
X144098013Y-92472263D01*
X144107261Y-92461032D01*
X144119900Y-92447296D01*
X144135288Y-92431764D01*
X144152781Y-92415145D01*
X144165822Y-92403343D01*
X144233801Y-92347242D01*
X144308236Y-92293747D01*
X144389006Y-92242914D01*
X144475989Y-92194800D01*
X144569062Y-92149462D01*
X144668103Y-92106957D01*
X144772991Y-92067342D01*
X144883602Y-92030673D01*
X144999815Y-91997008D01*
X145086708Y-91974704D01*
X145187303Y-91951462D01*
X145282291Y-91932133D01*
X145371919Y-91916697D01*
X145456439Y-91905132D01*
X145536099Y-91897420D01*
X145611149Y-91893538D01*
X145681837Y-91893465D01*
X145748413Y-91897182D01*
X145811126Y-91904668D01*
X145848918Y-91911340D01*
X145909550Y-91926252D01*
X145964906Y-91945633D01*
X146014914Y-91969410D01*
X146059501Y-91997509D01*
X146098596Y-92029858D01*
X146132127Y-92066383D01*
X146160021Y-92107012D01*
X146182205Y-92151671D01*
X146198608Y-92200287D01*
X146209158Y-92252786D01*
X146212097Y-92279060D01*
X146212915Y-92290167D01*
X146213851Y-92298302D01*
X146215889Y-92304006D01*
X146220009Y-92307822D01*
X146227194Y-92310290D01*
X146238425Y-92311954D01*
X146254685Y-92313354D01*
X146276955Y-92315033D01*
X146277333Y-92315063D01*
X146304885Y-92317290D01*
X146326056Y-92319184D01*
X146341509Y-92320834D01*
X146351906Y-92322327D01*
X146357910Y-92323751D01*
X146360183Y-92325193D01*
X146360082Y-92326026D01*
X146362027Y-92327335D01*
X146368861Y-92327560D01*
X146378532Y-92326886D01*
X146388990Y-92325503D01*
X146398183Y-92323597D01*
X146402569Y-92322141D01*
X146408077Y-92320624D01*
X146419384Y-92318164D01*
X146435331Y-92314992D01*
X146454759Y-92311335D01*
X146476511Y-92307422D01*
X146481944Y-92306471D01*
X146563430Y-92292964D01*
X146640846Y-92281591D01*
X146716734Y-92272013D01*
X146793633Y-92263891D01*
X146817083Y-92261706D01*
X146839513Y-92260112D01*
X146866719Y-92258879D01*
X146897348Y-92258007D01*
X146930049Y-92257496D01*
X146963471Y-92257348D01*
X146996262Y-92257562D01*
X147027070Y-92258139D01*
X147054545Y-92259080D01*
X147077334Y-92260385D01*
X147090486Y-92261598D01*
X147163314Y-92271253D01*
X147234171Y-92283140D01*
X147304932Y-92297651D01*
X147377473Y-92315178D01*
X147453669Y-92336110D01*
X147469143Y-92340632D01*
X147491757Y-92347425D01*
X147508423Y-92352778D01*
X147520018Y-92357041D01*
X147527422Y-92360562D01*
X147531510Y-92363691D01*
X147532943Y-92366032D01*
X147533909Y-92371145D01*
X147535491Y-92382439D01*
X147537590Y-92399075D01*
X147540105Y-92420217D01*
X147542937Y-92445025D01*
X147545987Y-92472662D01*
X147549082Y-92501608D01*
X147552679Y-92535601D01*
X147555565Y-92563243D01*
X147557688Y-92585209D01*
X147558999Y-92602170D01*
X147559447Y-92614802D01*
X147558982Y-92623777D01*
X147557553Y-92629770D01*
X147555110Y-92633453D01*
X147551603Y-92635501D01*
X147546982Y-92636587D01*
X147541195Y-92637385D01*
X147538909Y-92637717D01*
X147527663Y-92639746D01*
X147510611Y-92643203D01*
X147488807Y-92647849D01*
X147463300Y-92653445D01*
X147435142Y-92659751D01*
X147405385Y-92666529D01*
X147375079Y-92673539D01*
X147345275Y-92680543D01*
X147317025Y-92687300D01*
X147291380Y-92693573D01*
X147272167Y-92698407D01*
X147169538Y-92725766D01*
X147073547Y-92753603D01*
X146983787Y-92782055D01*
X146899847Y-92811258D01*
X146821320Y-92841350D01*
X146747797Y-92872466D01*
X146735944Y-92877787D01*
X146665270Y-92912240D01*
X146593300Y-92951978D01*
X146521754Y-92995908D01*
X146452352Y-93042934D01*
X146386810Y-93091963D01*
X146342597Y-93128214D01*
X146324935Y-93143577D01*
X146306602Y-93159988D01*
X146288316Y-93176756D01*
X146270794Y-93193190D01*
X146254751Y-93208599D01*
X146240905Y-93222291D01*
X146229973Y-93233576D01*
X146222671Y-93241762D01*
X146219717Y-93246159D01*
X146219781Y-93246632D01*
X146225886Y-93249881D01*
X146237863Y-93254203D01*
X146254653Y-93259337D01*
X146275199Y-93265020D01*
X146298444Y-93270989D01*
X146323330Y-93276981D01*
X146348801Y-93282735D01*
X146373799Y-93287987D01*
X146397268Y-93292474D01*
X146418148Y-93295935D01*
X146418444Y-93295979D01*
X146473487Y-93302523D01*
X146527821Y-93305577D01*
X146582961Y-93305107D01*
X146640419Y-93301077D01*
X146701711Y-93293452D01*
X146731539Y-93288739D01*
X146824796Y-93270150D01*
X146914229Y-93246293D01*
X146999623Y-93217275D01*
X147080766Y-93183203D01*
X147157443Y-93144182D01*
X147229442Y-93100319D01*
X147296549Y-93051720D01*
X147358551Y-92998491D01*
X147402051Y-92955085D01*
X147444426Y-92906444D01*
X147482464Y-92855667D01*
X147515507Y-92803770D01*
X147542895Y-92751770D01*
X147560344Y-92710645D01*
X147565320Y-92698231D01*
X147569944Y-92688063D01*
X147573211Y-92682348D01*
X147576468Y-92679042D01*
X147584369Y-92671330D01*
X147596439Y-92659666D01*
X147612207Y-92644504D01*
X147631199Y-92626296D01*
X147652943Y-92605496D01*
X147676966Y-92582558D01*
X147702795Y-92557935D01*
X147721958Y-92539691D01*
X147748659Y-92514263D01*
X147773792Y-92490288D01*
X147796896Y-92468206D01*
X147817514Y-92448460D01*
X147835187Y-92431487D01*
X147849455Y-92417730D01*
X147859861Y-92407629D01*
X147865945Y-92401624D01*
X147867393Y-92400078D01*
X147864428Y-92398301D01*
X147855616Y-92393948D01*
X147841564Y-92387299D01*
X147822877Y-92378632D01*
X147800164Y-92368227D01*
X147774028Y-92356363D01*
X147745077Y-92343317D01*
X147713917Y-92329370D01*
X147706532Y-92326077D01*
X147544874Y-92254058D01*
X147528019Y-92193786D01*
X147519906Y-92165801D01*
X147510059Y-92133466D01*
X147499084Y-92098653D01*
X147487589Y-92063238D01*
X147476183Y-92029093D01*
X147465473Y-91998093D01*
X147456489Y-91973243D01*
X147451041Y-91959557D01*
X147446521Y-91951083D01*
X147441864Y-91946267D01*
X147436170Y-91943608D01*
X147428868Y-91942442D01*
X147415547Y-91941504D01*
X147397240Y-91940791D01*
X147374980Y-91940303D01*
X147349799Y-91940035D01*
X147322731Y-91939987D01*
X147294808Y-91940155D01*
X147267063Y-91940539D01*
X147240528Y-91941134D01*
X147216237Y-91941940D01*
X147195223Y-91942954D01*
X147178681Y-91944159D01*
X147015739Y-91961788D01*
X146915861Y-91975162D01*
X146873141Y-91981600D01*
X146836322Y-91987900D01*
X146804266Y-91994376D01*
X146775833Y-92001339D01*
X146749884Y-92009101D01*
X146725279Y-92017975D01*
X146700878Y-92028273D01*
X146675543Y-92040306D01*
X146672444Y-92041853D01*
X146616885Y-92073187D01*
X146562336Y-92110789D01*
X146509767Y-92153872D01*
X146460148Y-92201647D01*
X146419686Y-92246958D01*
X146401653Y-92268681D01*
X146399252Y-92243431D01*
X146392225Y-92196009D01*
X146380319Y-92146832D01*
X146364198Y-92097776D01*
X146344523Y-92050718D01*
X146321958Y-92007537D01*
X146308281Y-91985711D01*
X146270660Y-91935994D01*
X146227859Y-91890997D01*
X146179963Y-91850749D01*
X146127063Y-91815277D01*
X146069243Y-91784611D01*
X146006594Y-91758777D01*
X145939201Y-91737803D01*
X145867152Y-91721718D01*
X145790535Y-91710549D01*
X145709438Y-91704324D01*
X145623947Y-91703071D01*
X145534152Y-91706818D01*
X145455361Y-91713861D01*
X145382218Y-91723178D01*
X145304125Y-91735491D01*
X145222379Y-91750519D01*
X145138276Y-91767976D01*
X145053113Y-91787582D01*
X144968187Y-91809051D01*
X144884795Y-91832101D01*
X144808014Y-91855255D01*
X144710540Y-91887888D01*
X144616214Y-91923330D01*
X144525387Y-91961371D01*
X144438408Y-92001797D01*
X144355628Y-92044400D01*
X144277396Y-92088966D01*
X144204063Y-92135286D01*
X144135979Y-92183147D01*
X144073494Y-92232339D01*
X144016959Y-92282650D01*
X143966722Y-92333869D01*
X143923135Y-92385785D01*
X143918484Y-92391897D01*
X143908868Y-92404324D01*
X143902108Y-92411896D01*
X143897071Y-92415578D01*
X143892623Y-92416336D01*
X143890274Y-92415921D01*
X143870837Y-92411612D01*
X143845760Y-92406930D01*
X143816432Y-92402078D01*
X143784243Y-92397263D01*
X143750585Y-92392687D01*
X143716848Y-92388557D01*
X143684422Y-92385077D01*
X143673833Y-92384068D01*
X143642095Y-92381538D01*
X143610112Y-92379816D01*
X143577209Y-92378933D01*
X143542710Y-92378920D01*
X143505940Y-92379806D01*
X143466225Y-92381623D01*
X143422887Y-92384401D01*
X143375254Y-92388171D01*
X143322648Y-92392963D01*
X143264395Y-92398808D01*
X143202875Y-92405400D01*
X143113835Y-92415763D01*
X143018361Y-92427982D01*
X142916807Y-92441993D01*
X142809531Y-92457731D01*
X142696885Y-92475132D01*
X142579226Y-92494133D01*
X142456909Y-92514668D01*
X142330288Y-92536674D01*
X142199720Y-92560086D01*
X142065559Y-92584840D01*
X141928160Y-92610872D01*
X141787879Y-92638118D01*
X141645070Y-92666514D01*
X141500089Y-92695994D01*
X141353291Y-92726495D01*
X141205031Y-92757954D01*
X141055665Y-92790304D01*
X140968028Y-92809592D01*
X140923534Y-92819446D01*
X140885316Y-92827733D01*
X140852742Y-92834320D01*
X140825177Y-92839072D01*
X140801989Y-92841854D01*
X140782545Y-92842532D01*
X140766212Y-92840972D01*
X140752358Y-92837038D01*
X140740348Y-92830596D01*
X140729551Y-92821512D01*
X140719333Y-92809652D01*
X140709062Y-92794880D01*
X140698104Y-92777062D01*
X140685826Y-92756064D01*
X140681547Y-92748705D01*
X140644278Y-92682928D01*
X140609346Y-92617678D01*
X140577145Y-92553786D01*
X140548071Y-92492085D01*
X140522519Y-92433406D01*
X140500883Y-92378581D01*
X140487018Y-92339141D01*
X140471558Y-92286728D01*
X140460842Y-92237816D01*
X140454842Y-92192633D01*
X140453531Y-92151406D01*
X140456881Y-92114365D01*
X140464866Y-92081738D01*
X140477457Y-92053753D01*
X140494628Y-92030638D01*
X140516351Y-92012622D01*
X140526876Y-92006605D01*
X140537009Y-92001846D01*
X140548059Y-91997476D01*
X140560385Y-91993467D01*
X140574343Y-91989791D01*
X140590291Y-91986419D01*
X140608587Y-91983323D01*
X140629586Y-91980476D01*
X140653648Y-91977848D01*
X140681128Y-91975413D01*
X140712385Y-91973141D01*
X140747775Y-91971005D01*
X140787657Y-91968977D01*
X140832387Y-91967027D01*
X140882323Y-91965129D01*
X140937822Y-91963254D01*
X140999241Y-91961374D01*
X141066938Y-91959460D01*
X141141269Y-91957485D01*
X141155000Y-91957131D01*
X141277077Y-91953793D01*
X141392656Y-91950214D01*
X141502293Y-91946361D01*
X141606544Y-91942206D01*
X141705963Y-91937716D01*
X141801105Y-91932862D01*
X141892526Y-91927612D01*
X141980781Y-91921936D01*
X142066426Y-91915804D01*
X142150015Y-91909184D01*
X142232103Y-91902046D01*
X142313246Y-91894360D01*
X142340333Y-91891655D01*
X142469033Y-91877823D01*
X142593498Y-91862727D01*
X142714477Y-91846195D01*
X142832719Y-91828059D01*
X142948972Y-91808149D01*
X143063984Y-91786295D01*
X143178504Y-91762329D01*
X143293279Y-91736080D01*
X143409059Y-91707380D01*
X143526592Y-91676058D01*
X143646627Y-91641946D01*
X143769910Y-91604873D01*
X143897192Y-91564671D01*
X144029220Y-91521170D01*
X144134208Y-91485449D01*
X144184068Y-91467941D01*
X144231600Y-91450515D01*
X144277473Y-91432850D01*
X144322357Y-91414626D01*
X144366920Y-91395524D01*
X144411833Y-91375221D01*
X144457765Y-91353399D01*
X144505385Y-91329737D01*
X144555363Y-91303915D01*
X144608367Y-91275612D01*
X144665068Y-91244508D01*
X144726135Y-91210283D01*
X144792237Y-91172616D01*
X144813306Y-91160507D01*
X144871927Y-91126777D01*
X144924898Y-91096349D01*
X144972666Y-91068975D01*
X145015679Y-91044409D01*
X145054384Y-91022404D01*
X145089229Y-91002713D01*
X145120662Y-90985090D01*
X145149130Y-90969286D01*
X145175081Y-90955056D01*
X145198963Y-90942152D01*
X145221223Y-90930328D01*
X145242308Y-90919336D01*
X145262668Y-90908930D01*
X145282748Y-90898862D01*
X145302997Y-90888887D01*
X145323862Y-90878756D01*
X145325694Y-90877872D01*
X145393133Y-90846435D01*
X145456750Y-90819181D01*
X145517918Y-90795718D01*
X145578008Y-90775655D01*
X145638391Y-90758598D01*
X145700440Y-90744156D01*
X145765526Y-90731936D01*
X145835022Y-90721546D01*
X145899861Y-90713721D01*
X145940848Y-90709961D01*
X145986794Y-90707001D01*
X146035642Y-90704895D01*
X146085337Y-90703699D01*
X146133821Y-90703468D01*
X146179038Y-90704256D01*
X146208542Y-90705492D01*
X146288088Y-90712135D01*
X146368544Y-90723257D01*
X146448722Y-90738557D01*
X146527433Y-90757737D01*
X146603489Y-90780499D01*
X146675702Y-90806544D01*
X146742884Y-90835573D01*
X146760992Y-90844375D01*
X146841972Y-90888628D01*
X146921194Y-90939592D01*
X146998518Y-90997107D01*
X147073805Y-91061017D01*
X147146914Y-91131164D01*
X147217705Y-91207390D01*
X147286040Y-91289537D01*
X147351777Y-91377448D01*
X147414778Y-91470964D01*
X147474903Y-91569930D01*
X147532011Y-91674186D01*
X147577103Y-91764799D01*
X147595441Y-91804713D01*
X147613063Y-91846078D01*
X147630474Y-91890186D01*
X147648181Y-91938328D01*
X147666690Y-91991796D01*
X147671035Y-92004750D01*
X147678704Y-92028196D01*
X147686807Y-92053786D01*
X147694992Y-92080327D01*
X147702907Y-92106627D01*
X147710199Y-92131492D01*
X147716515Y-92153731D01*
X147721504Y-92172152D01*
X147724813Y-92185560D01*
X147725622Y-92189442D01*
X147727791Y-92201004D01*
X147932405Y-92283572D01*
X147968385Y-92298117D01*
X148002393Y-92311915D01*
X148033868Y-92324734D01*
X148062252Y-92336346D01*
X148086986Y-92346520D01*
X148107510Y-92355026D01*
X148123266Y-92361633D01*
X148133693Y-92366111D01*
X148138232Y-92368231D01*
X148138381Y-92368344D01*
X148136040Y-92370994D01*
X148128838Y-92377950D01*
X148117188Y-92388837D01*
X148101505Y-92403276D01*
X148082203Y-92420892D01*
X148059696Y-92441306D01*
X148034399Y-92464141D01*
X148006726Y-92489021D01*
X147977091Y-92515568D01*
X147951714Y-92538231D01*
X147915698Y-92570360D01*
X147884584Y-92598154D01*
X147858002Y-92621967D01*
X147835585Y-92642152D01*
X147816962Y-92659065D01*
X147801765Y-92673058D01*
X147789624Y-92684487D01*
X147780170Y-92693706D01*
X147773035Y-92701069D01*
X147767848Y-92706929D01*
X147764241Y-92711642D01*
X147761844Y-92715561D01*
X147760288Y-92719041D01*
X147759205Y-92722435D01*
X147759021Y-92723103D01*
X147752612Y-92743652D01*
X147743510Y-92768602D01*
X147732440Y-92796184D01*
X147720126Y-92824625D01*
X147707295Y-92852157D01*
X147700700Y-92865446D01*
X147668251Y-92923655D01*
X147631023Y-92979780D01*
X147588334Y-93034751D01*
X147539501Y-93089498D01*
X147526358Y-93103151D01*
X147470849Y-93156690D01*
X147413569Y-93205173D01*
X147353315Y-93249469D01*
X147288883Y-93290443D01*
X147219069Y-93328963D01*
X147198083Y-93339580D01*
X147130029Y-93371452D01*
X147062015Y-93399287D01*
X146992813Y-93423459D01*
X146921193Y-93444341D01*
X146845928Y-93462308D01*
X146765788Y-93477732D01*
X146719320Y-93485248D01*
X146699484Y-93488168D01*
X146682156Y-93490434D01*
X146665939Y-93492130D01*
X146649438Y-93493341D01*
X146631258Y-93494152D01*
X146610002Y-93494645D01*
X146584276Y-93494906D01*
X146557792Y-93495009D01*
X146520577Y-93494931D01*
D12*
X134550000Y-103700000D03*
D13*
X134550000Y-106240000D03*
D12*
X134550000Y-108780000D03*
D13*
X134550000Y-111320000D03*
D14*
X158461920Y-94250000D03*
X158461920Y-93599760D03*
X158461920Y-92949520D03*
X155800000Y-92949520D03*
X155800000Y-93599760D03*
X155800000Y-94250000D03*
X164300000Y-98250000D03*
X164300000Y-97599760D03*
X164300000Y-96949520D03*
X161638080Y-96949520D03*
X161638080Y-97599760D03*
X161638080Y-98250000D03*
X158611920Y-96700000D03*
X158611920Y-96049760D03*
X158611920Y-95399520D03*
X155950000Y-95399520D03*
X155950000Y-96049760D03*
X155950000Y-96700000D03*
D15*
X152250000Y-105850000D03*
X152250000Y-109850000D03*
D16*
X157800000Y-123500700D03*
X157800000Y-124999300D03*
D17*
X156050000Y-124750000D03*
X156050000Y-122550000D03*
D13*
X131500000Y-111300000D03*
D12*
X131500000Y-108760000D03*
D13*
X131500000Y-106220000D03*
D12*
X131500000Y-103680000D03*
D18*
X134650000Y-113890000D03*
D19*
X137190000Y-113890000D03*
X139730000Y-113890000D03*
X142270000Y-113890000D03*
X144810000Y-113890000D03*
X147350000Y-113890000D03*
D18*
X147400000Y-101200000D03*
D19*
X144860000Y-101200000D03*
X142320000Y-101200000D03*
X139780000Y-101200000D03*
X137240000Y-101200000D03*
D18*
X134700000Y-101200000D03*
D20*
X147400000Y-109140000D03*
D21*
X147400000Y-106600000D03*
D22*
X161190000Y-100200000D03*
X161190000Y-100600000D03*
X161190000Y-101000000D03*
X161190000Y-101400000D03*
X161190000Y-101800000D03*
X161190000Y-102200000D03*
X161190000Y-102600000D03*
X161190000Y-103000000D03*
X161190000Y-103400000D03*
X161190000Y-103800000D03*
X161190000Y-107800000D03*
X161190000Y-107400000D03*
X161190000Y-107000000D03*
X161190000Y-106600000D03*
X161190000Y-106200000D03*
X161190000Y-105800000D03*
X161190000Y-105400000D03*
X161190000Y-105000000D03*
X161190000Y-104600000D03*
X161190000Y-104200000D03*
X161190000Y-108200000D03*
X161190000Y-108600000D03*
X161190000Y-109000000D03*
X161190000Y-109400000D03*
X161190000Y-109800000D03*
X161190000Y-110200000D03*
X161190000Y-110600000D03*
X161190000Y-111000000D03*
X161190000Y-111400000D03*
X161190000Y-111800000D03*
X161190000Y-115800000D03*
X161190000Y-115400000D03*
X161190000Y-115000000D03*
X161190000Y-114600000D03*
X161190000Y-114200000D03*
X161190000Y-113800000D03*
X161190000Y-113400000D03*
X161190000Y-113000000D03*
X161190000Y-112600000D03*
X161190000Y-112200000D03*
X158110000Y-112200000D03*
X158110000Y-112600000D03*
X158110000Y-113000000D03*
X158110000Y-113400000D03*
X158110000Y-113800000D03*
X158110000Y-114200000D03*
X158110000Y-114600000D03*
X158110000Y-115000000D03*
X158110000Y-115400000D03*
X158110000Y-115800000D03*
X158110000Y-111800000D03*
X158110000Y-111400000D03*
X158110000Y-111000000D03*
X158110000Y-110600000D03*
X158110000Y-110200000D03*
X158110000Y-109800000D03*
X158110000Y-109400000D03*
X158110000Y-109000000D03*
X158110000Y-108600000D03*
X158110000Y-108200000D03*
X158110000Y-104200000D03*
X158110000Y-104600000D03*
X158110000Y-105000000D03*
X158110000Y-105400000D03*
X158110000Y-105800000D03*
X158110000Y-106200000D03*
X158110000Y-106600000D03*
X158110000Y-107000000D03*
X158110000Y-107400000D03*
X158110000Y-107800000D03*
X158110000Y-103800000D03*
X158110000Y-103400000D03*
X158110000Y-103000000D03*
X158110000Y-102600000D03*
X158110000Y-102200000D03*
X158110000Y-101800000D03*
X158110000Y-101400000D03*
X158110000Y-101000000D03*
X158110000Y-100600000D03*
X158110000Y-100200000D03*
D23*
X162950000Y-97849974D03*
X162500000Y-95300000D03*
X133000000Y-104600000D03*
X150050000Y-110150000D03*
X150050000Y-109150000D03*
X154600000Y-121350000D03*
D24*
X163335170Y-106128721D03*
X162579214Y-106491109D03*
X162993938Y-107218712D03*
X162237982Y-107581100D03*
X162237982Y-108419301D03*
X162993938Y-108781689D03*
X162579214Y-109509292D03*
X163335170Y-109871680D03*
D23*
X164264956Y-95352566D03*
X160500000Y-95450000D03*
X157300000Y-95000000D03*
X159100000Y-98150000D03*
X159950000Y-93400000D03*
X154500000Y-92950000D03*
X153600000Y-93750000D03*
X154325068Y-92130246D03*
X160303087Y-96914049D03*
X157300000Y-97100000D03*
X156750000Y-92200000D03*
X154650000Y-94900000D03*
D24*
X156380187Y-105401118D03*
D23*
X160729126Y-94320874D03*
D24*
X156306694Y-107218712D03*
X157062650Y-107581100D03*
X157062650Y-108419301D03*
X156306694Y-108781689D03*
X156721418Y-109509292D03*
X155965462Y-109871680D03*
D23*
X153950000Y-117750000D03*
X154171538Y-118920210D03*
X161000000Y-117010000D03*
D24*
X161045015Y-99054899D03*
X158255617Y-99054899D03*
X158255617Y-99054899D03*
X162035617Y-116147324D03*
X162511810Y-116834445D03*
X163166374Y-116308281D03*
X163642567Y-116995401D03*
X164626605Y-116049236D03*
X165041329Y-115321633D03*
X164285373Y-114959245D03*
X164700097Y-114231642D03*
X163944142Y-113869254D03*
X164358866Y-113141651D03*
X163602910Y-112779264D03*
X164017634Y-112051661D03*
X163261678Y-111689273D03*
X163676402Y-110961670D03*
X162920446Y-110599282D03*
X162920446Y-105401118D03*
X163676402Y-105038731D03*
X163261678Y-104311128D03*
X164017634Y-103948740D03*
X163602910Y-103221137D03*
X164358866Y-102858749D03*
X163944142Y-102131146D03*
X164700097Y-101768759D03*
X164285373Y-101041156D03*
X165041329Y-100678768D03*
X164626605Y-99951165D03*
X163642567Y-99005000D03*
X163166374Y-99692120D03*
X162511810Y-99165956D03*
X162035617Y-99853076D03*
X157265015Y-99853076D03*
X156788823Y-99165956D03*
X156134258Y-99692120D03*
X155658066Y-99005000D03*
X154674027Y-99951165D03*
X154259303Y-100678768D03*
X155015259Y-101041156D03*
X154600535Y-101768759D03*
X155356491Y-102131146D03*
X154941767Y-102858749D03*
X155697723Y-103221137D03*
X155965462Y-106128721D03*
X156721418Y-106491109D03*
X156380187Y-110599282D03*
X155624231Y-110961670D03*
X156038955Y-111689273D03*
X155282999Y-112051661D03*
X155697723Y-112779264D03*
X154941767Y-113141651D03*
X155356491Y-113869254D03*
X154600535Y-114231642D03*
X155015259Y-114959245D03*
X154259303Y-115321633D03*
X154674027Y-116049236D03*
X156200000Y-117750000D03*
X156563479Y-116981984D03*
D23*
X157186858Y-118048495D03*
D25*
X162950000Y-97849974D02*
X162950000Y-96450000D01*
X162950000Y-96450000D02*
X162850000Y-96350000D01*
X162950000Y-97849974D02*
X163350266Y-98250240D01*
X163350266Y-98250240D02*
X163350506Y-98250000D01*
X163350506Y-98250000D02*
X164300000Y-98250000D01*
X162850000Y-96350000D02*
X162550000Y-96050000D01*
X158461920Y-94250000D02*
X158461920Y-95249520D01*
X158461920Y-95249520D02*
X158611920Y-95399520D01*
X159353696Y-95399520D02*
X159975678Y-96021502D01*
X158611920Y-95399520D02*
X159353696Y-95399520D01*
X160771502Y-96021502D02*
X160528498Y-96021502D01*
X162550000Y-96050000D02*
X160800000Y-96050000D01*
X160800000Y-96050000D02*
X160771502Y-96021502D01*
X160528498Y-96021502D02*
X159914476Y-96021502D01*
X159235978Y-96700000D02*
X158611920Y-96700000D01*
X159975678Y-96021502D02*
X160528498Y-96021502D01*
X159914476Y-96021502D02*
X159235978Y-96700000D01*
X162500000Y-96000000D02*
X162500000Y-95784933D01*
X162550000Y-96050000D02*
X162500000Y-96000000D01*
X162500000Y-95784933D02*
X162500000Y-95300000D01*
X158611920Y-94261920D02*
X158600000Y-94250000D01*
D26*
X131500000Y-106220000D02*
X134530000Y-106220000D01*
X134530000Y-106220000D02*
X134550000Y-106240000D01*
X133000000Y-104600000D02*
X133000000Y-104690000D01*
X133000000Y-104690000D02*
X134550000Y-106240000D01*
X133000000Y-104600000D02*
X133000000Y-104720000D01*
X133000000Y-104720000D02*
X131500000Y-106220000D01*
X131500000Y-111300000D02*
X134530000Y-111300000D01*
X134530000Y-111300000D02*
X134550000Y-111320000D01*
X150050000Y-110150000D02*
X151950000Y-110150000D01*
X151950000Y-110150000D02*
X152250000Y-109850000D01*
X150050000Y-109150000D02*
X151550000Y-109150000D01*
X151550000Y-109150000D02*
X152250000Y-109850000D01*
X147400000Y-109140000D02*
X149040000Y-109140000D01*
X149040000Y-109140000D02*
X150050000Y-110150000D01*
X147400000Y-109140000D02*
X150040000Y-109140000D01*
X150040000Y-109140000D02*
X150050000Y-109150000D01*
X156050000Y-122550000D02*
X155800000Y-122550000D01*
X155800000Y-122550000D02*
X154600000Y-121350000D01*
D25*
X161190316Y-106624000D02*
X161540316Y-106624000D01*
X161540316Y-106624000D02*
X162460992Y-105841578D01*
X162460992Y-105841578D02*
X162749830Y-105946114D01*
X162749830Y-105946114D02*
X163335170Y-106128721D01*
X161190316Y-107024000D02*
X161540316Y-107024000D01*
X161540316Y-107024000D02*
X162406505Y-106287883D01*
X162406505Y-106287883D02*
X162579214Y-106491109D01*
X161190316Y-107424000D02*
X161540316Y-107424000D01*
X161540316Y-107424000D02*
X162119760Y-106931569D01*
X162119760Y-106931569D02*
X162408598Y-107036104D01*
X162408598Y-107036104D02*
X162993938Y-107218712D01*
X161190316Y-107824000D02*
X161540316Y-107824000D01*
X161540316Y-107824000D02*
X162065274Y-107377873D01*
X162065274Y-107377873D02*
X162237982Y-107581100D01*
X161190316Y-108176401D02*
X161540316Y-108176401D01*
X161540316Y-108176401D02*
X162065274Y-108622527D01*
X162065274Y-108622527D02*
X162237982Y-108419301D01*
X161190316Y-108576401D02*
X161540316Y-108576401D01*
X161540316Y-108576401D02*
X162119760Y-109068832D01*
X162119760Y-109068832D02*
X162408598Y-108964297D01*
X162408598Y-108964297D02*
X162993938Y-108781689D01*
X161190316Y-108976401D02*
X161540316Y-108976401D01*
X161540316Y-108976401D02*
X162406505Y-109712518D01*
X162406505Y-109712518D02*
X162579214Y-109509292D01*
X161190316Y-109376401D02*
X161540316Y-109376401D01*
X161540316Y-109376401D02*
X162460992Y-110158823D01*
X162460992Y-110158823D02*
X162749830Y-110054287D01*
X162749830Y-110054287D02*
X163335170Y-109871680D01*
X165202970Y-96290580D02*
X164607855Y-95695465D01*
X163412390Y-94500000D02*
X163922057Y-95009667D01*
X164851180Y-96949520D02*
X165202970Y-96597730D01*
X164300000Y-96949520D02*
X164851180Y-96949520D01*
X160500000Y-95450000D02*
X161450000Y-94500000D01*
X163922057Y-95009667D02*
X164264956Y-95352566D01*
X165202970Y-96597730D02*
X165202970Y-96290580D01*
X161450000Y-94500000D02*
X163412390Y-94500000D01*
X164607855Y-95695465D02*
X164264956Y-95352566D01*
X164300000Y-97599760D02*
X164300000Y-96949520D01*
X160500000Y-95450000D02*
X160500000Y-94965067D01*
X160500000Y-94965067D02*
X159134693Y-93599760D01*
X159134693Y-93599760D02*
X158461920Y-93599760D01*
X157300000Y-93996790D02*
X157300000Y-94515067D01*
X157300000Y-94515067D02*
X157300000Y-95000000D01*
X158611920Y-96049760D02*
X157708950Y-96049760D01*
X157708950Y-96049760D02*
X157300000Y-95640810D01*
X157300000Y-95640810D02*
X157300000Y-95000000D01*
X159502970Y-92949520D02*
X158461920Y-92949520D01*
X158265067Y-97800000D02*
X156698210Y-97800000D01*
X155950000Y-97051790D02*
X155950000Y-96700000D01*
X156698210Y-97800000D02*
X155950000Y-97051790D01*
X159100000Y-98150000D02*
X158615067Y-98150000D01*
X158615067Y-98150000D02*
X158265067Y-97800000D01*
X159950000Y-93396550D02*
X159950000Y-93400000D01*
X159502970Y-92949520D02*
X159950000Y-93396550D01*
X156470220Y-96800240D02*
X155919040Y-96800240D01*
X155800000Y-92949520D02*
X154500480Y-92949520D01*
X154500480Y-92949520D02*
X154500000Y-92950000D01*
X155938080Y-92949520D02*
X155937600Y-92950000D01*
X153600000Y-102950000D02*
X154598740Y-103948740D01*
X154598740Y-103948740D02*
X156495045Y-103948740D01*
X156903232Y-104295632D02*
X156495045Y-103948740D01*
X157607600Y-105000000D02*
X156903232Y-104295632D01*
X158110000Y-105000000D02*
X157607600Y-105000000D01*
X153600000Y-93750000D02*
X153600000Y-102950000D01*
X161638080Y-98250000D02*
X160346552Y-98250000D01*
X160346552Y-98250000D02*
X160303087Y-98206535D01*
X160303087Y-98206535D02*
X160303087Y-97700000D01*
X160303087Y-97700000D02*
X160303087Y-97398982D01*
X161638080Y-97599760D02*
X160735110Y-97599760D01*
X160735110Y-97599760D02*
X160634870Y-97700000D01*
X160634870Y-97700000D02*
X160303087Y-97700000D01*
X158110000Y-106200000D02*
X159531067Y-106200000D01*
X154650000Y-93945822D02*
X154650000Y-93846790D01*
X154650000Y-93846790D02*
X154897030Y-93599760D01*
X154897030Y-93599760D02*
X155800000Y-93599760D01*
X154650000Y-94900000D02*
X154650000Y-93945822D01*
X154650000Y-93945822D02*
X153928499Y-93224321D01*
X153928499Y-93224321D02*
X153928499Y-92526815D01*
X153928499Y-92526815D02*
X153982169Y-92473145D01*
X153982169Y-92473145D02*
X154325068Y-92130246D01*
X154394822Y-92200000D02*
X154325068Y-92130246D01*
X156750000Y-92200000D02*
X154394822Y-92200000D01*
X160303087Y-97398982D02*
X160303087Y-96914049D01*
X160239234Y-98270388D02*
X160303087Y-98206535D01*
X156957101Y-96757101D02*
X156957101Y-96153891D01*
X157300000Y-97100000D02*
X156957101Y-96757101D01*
X156957101Y-96153891D02*
X156852970Y-96049760D01*
X156852970Y-96049760D02*
X155950000Y-96049760D01*
X160054811Y-98454811D02*
X160239234Y-98270388D01*
X160054811Y-98454811D02*
X160050000Y-98450000D01*
X160059620Y-104997487D02*
X160054811Y-104992678D01*
X159531067Y-106200000D02*
X160059620Y-105671447D01*
X160054811Y-104992678D02*
X160054811Y-98454811D01*
X160059620Y-105671447D02*
X160059620Y-104997487D01*
X158110316Y-106224000D02*
X157760316Y-106224000D01*
X157760316Y-106224000D02*
X156552895Y-105197892D01*
X156552895Y-105197892D02*
X156380187Y-105401118D01*
X160729126Y-94320874D02*
X160729126Y-92679126D01*
X160729126Y-92679126D02*
X160500000Y-92450000D01*
X156917251Y-93032749D02*
X156917251Y-94173799D01*
X156917251Y-94173799D02*
X156841050Y-94250000D01*
X156841050Y-94250000D02*
X155800000Y-94250000D01*
X160500000Y-92450000D02*
X157500000Y-92450000D01*
X157500000Y-92450000D02*
X156917251Y-93032749D01*
X159450000Y-105800000D02*
X158110000Y-105800000D01*
X159750000Y-105500000D02*
X159450000Y-105800000D01*
X159700000Y-96671314D02*
X159700000Y-99250000D01*
X159750000Y-99300000D02*
X159750000Y-105500000D01*
X159700000Y-99250000D02*
X159750000Y-99300000D01*
X159885657Y-96485657D02*
X159700000Y-96671314D01*
X161638080Y-96949520D02*
X160874588Y-96949520D01*
X160874588Y-96949520D02*
X160874588Y-96639728D01*
X160874588Y-96639728D02*
X160577408Y-96342548D01*
X160577408Y-96342548D02*
X160028766Y-96342548D01*
X160028766Y-96342548D02*
X159885657Y-96485657D01*
X158110000Y-105400000D02*
X159350000Y-105400000D01*
X155146302Y-95399520D02*
X155950000Y-95399520D01*
X159445190Y-99426256D02*
X158452433Y-98433499D01*
X159350000Y-105400000D02*
X159445190Y-105304810D01*
X159445190Y-105304810D02*
X159445190Y-99426256D01*
X158452433Y-98433499D02*
X154733499Y-98433499D01*
X154733499Y-98433499D02*
X154733499Y-95812323D01*
X154733499Y-95812323D02*
X155146302Y-95399520D01*
X156443049Y-107840000D02*
X156443049Y-107715768D01*
X156443049Y-107715768D02*
X156577717Y-107581100D01*
X156577717Y-107581100D02*
X157062650Y-107581100D01*
X156306694Y-107218712D02*
X156306694Y-107703645D01*
X156306694Y-107703645D02*
X156443049Y-107840000D01*
X155965462Y-109395462D02*
X156079292Y-109509292D01*
X156079292Y-109509292D02*
X156721418Y-109509292D01*
X155965462Y-109871680D02*
X155965462Y-109395462D01*
D26*
X157800000Y-122847920D02*
X157800000Y-123500700D01*
X157800000Y-120621007D02*
X157800000Y-122847920D01*
X148302922Y-116100000D02*
X153278993Y-116100000D01*
X153278993Y-116100000D02*
X157800000Y-120621007D01*
X148302922Y-116100000D02*
X144327600Y-116100000D01*
X144327600Y-116100000D02*
X142270000Y-114042400D01*
X142270000Y-114042400D02*
X142270000Y-113890000D01*
X153800000Y-108654000D02*
X153800000Y-110602922D01*
X153800000Y-110602922D02*
X148302922Y-116100000D01*
X152250000Y-105850000D02*
X152250000Y-107104000D01*
X152250000Y-107104000D02*
X153800000Y-108654000D01*
X152250000Y-105850000D02*
X148150000Y-105850000D01*
X148150000Y-105850000D02*
X147400000Y-106600000D01*
X156306694Y-107218712D02*
X153418712Y-107218712D01*
X153418712Y-107218712D02*
X152250000Y-106050000D01*
X152250000Y-106050000D02*
X152250000Y-105850000D01*
D25*
X158110316Y-107424000D02*
X157760316Y-107424000D01*
X157760316Y-107424000D02*
X157180872Y-106931569D01*
X157180872Y-106931569D02*
X156892034Y-107036104D01*
X156892034Y-107036104D02*
X156306694Y-107218712D01*
X158110316Y-107824000D02*
X157760316Y-107824000D01*
X157760316Y-107824000D02*
X157235359Y-107377873D01*
X157235359Y-107377873D02*
X157062650Y-107581100D01*
X158110316Y-108176401D02*
X157760316Y-108176401D01*
X157760316Y-108176401D02*
X157235359Y-108622527D01*
X157235359Y-108622527D02*
X157062650Y-108419301D01*
X158110316Y-108576401D02*
X157760316Y-108576401D01*
X157760316Y-108576401D02*
X157180872Y-109068832D01*
X157180872Y-109068832D02*
X156892034Y-108964297D01*
X156892034Y-108964297D02*
X156306694Y-108781689D01*
X158110316Y-108976401D02*
X157760316Y-108976401D01*
X157760316Y-108976401D02*
X156894127Y-109712518D01*
X156894127Y-109712518D02*
X156721418Y-109509292D01*
X158110316Y-109376401D02*
X157760316Y-109376401D01*
X157760316Y-109376401D02*
X156839640Y-110158823D01*
X156839640Y-110158823D02*
X156550802Y-110054287D01*
X156550802Y-110054287D02*
X155965462Y-109871680D01*
D26*
X157800000Y-124999300D02*
X156299300Y-124999300D01*
X156299300Y-124999300D02*
X156050000Y-124750000D01*
X131500000Y-108760000D02*
X134530000Y-108760000D01*
X134530000Y-108760000D02*
X134550000Y-108780000D01*
X134550000Y-103700000D02*
X131520000Y-103700000D01*
X131520000Y-103700000D02*
X131500000Y-103680000D01*
D25*
X153950000Y-117750000D02*
X154750000Y-118550000D01*
X154750000Y-118550000D02*
X154750000Y-119150000D01*
X154750000Y-119150000D02*
X154100000Y-119800000D01*
X154100000Y-119800000D02*
X142947600Y-119800000D01*
X142947600Y-119800000D02*
X137190000Y-114042400D01*
X137190000Y-114042400D02*
X137190000Y-113890000D01*
X153828639Y-119263109D02*
X154171538Y-118920210D01*
X144950709Y-119263109D02*
X153828639Y-119263109D01*
X139730000Y-114042400D02*
X144950709Y-119263109D01*
X139730000Y-113890000D02*
X139730000Y-114042400D01*
X161190000Y-115800000D02*
X161190000Y-116820000D01*
X161190000Y-116820000D02*
X161000000Y-117010000D01*
X161045015Y-100200200D02*
X161045015Y-99054899D01*
X158255617Y-100200200D02*
X158255617Y-99054899D01*
X158255617Y-100200200D02*
X158255617Y-99054899D01*
X161190316Y-115376401D02*
X161540316Y-115376401D01*
X161540316Y-115376401D02*
X162208326Y-115944098D01*
X162208326Y-115944098D02*
X162035617Y-116147324D01*
X161190316Y-114976401D02*
X161540316Y-114976401D01*
X161540316Y-114976401D02*
X162657575Y-115925886D01*
X162657575Y-115925886D02*
X162600996Y-116227803D01*
X162600996Y-116227803D02*
X162511810Y-116834445D01*
X161190316Y-114576401D02*
X161540316Y-114576401D01*
X161540316Y-114576401D02*
X163339083Y-116105055D01*
X163339083Y-116105055D02*
X163166374Y-116308281D01*
X161190316Y-114176401D02*
X161540316Y-114176401D01*
X161540316Y-114176401D02*
X163788332Y-116086842D01*
X163788332Y-116086842D02*
X163731753Y-116388759D01*
X163731753Y-116388759D02*
X163642567Y-116995401D01*
X161190316Y-113776401D02*
X161540316Y-113776401D01*
X161540316Y-113776401D02*
X164453897Y-116252462D01*
X164453897Y-116252462D02*
X164626605Y-116049236D01*
X161190316Y-113376401D02*
X161540316Y-113376401D01*
X161540316Y-113376401D02*
X164167151Y-115608776D01*
X164167151Y-115608776D02*
X164455989Y-115504240D01*
X164455989Y-115504240D02*
X165041329Y-115321633D01*
X161190316Y-112976401D02*
X161540316Y-112976401D01*
X161540316Y-112976401D02*
X164112665Y-115162471D01*
X164112665Y-115162471D02*
X164285373Y-114959245D01*
X161190316Y-112576401D02*
X161540316Y-112576401D01*
X161540316Y-112576401D02*
X163825920Y-114518785D01*
X163825920Y-114518785D02*
X164114757Y-114414250D01*
X164114757Y-114414250D02*
X164700097Y-114231642D01*
X161190316Y-112176401D02*
X161540316Y-112176401D01*
X161540316Y-112176401D02*
X163771433Y-114072481D01*
X163771433Y-114072481D02*
X163944142Y-113869254D01*
X161190316Y-111776401D02*
X161540316Y-111776401D01*
X161540316Y-111776401D02*
X163484688Y-113428795D01*
X163484688Y-113428795D02*
X163773526Y-113324259D01*
X163773526Y-113324259D02*
X164358866Y-113141651D01*
X161190316Y-111376401D02*
X161540316Y-111376401D01*
X161540316Y-111376401D02*
X163430201Y-112982490D01*
X163430201Y-112982490D02*
X163602910Y-112779264D01*
X161190316Y-110976401D02*
X161540316Y-110976401D01*
X161540316Y-110976401D02*
X163143456Y-112338804D01*
X163143456Y-112338804D02*
X163432294Y-112234268D01*
X163432294Y-112234268D02*
X164017634Y-112051661D01*
X161190316Y-110576401D02*
X161540316Y-110576401D01*
X161540316Y-110576401D02*
X163088969Y-111892499D01*
X163088969Y-111892499D02*
X163261678Y-111689273D01*
X161190316Y-110176401D02*
X161540316Y-110176401D01*
X161540316Y-110176401D02*
X162802224Y-111248813D01*
X162802224Y-111248813D02*
X163091062Y-111144278D01*
X163091062Y-111144278D02*
X163676402Y-110961670D01*
X161190316Y-109776401D02*
X161540316Y-109776401D01*
X161540316Y-109776401D02*
X162747737Y-110802509D01*
X162747737Y-110802509D02*
X162920446Y-110599282D01*
X161190316Y-106224000D02*
X161540316Y-106224000D01*
X161540316Y-106224000D02*
X162747737Y-105197892D01*
X162747737Y-105197892D02*
X162920446Y-105401118D01*
X161190316Y-105824000D02*
X161540316Y-105824000D01*
X161540316Y-105824000D02*
X162802224Y-104751587D01*
X162802224Y-104751587D02*
X163091062Y-104856123D01*
X163091062Y-104856123D02*
X163676402Y-105038731D01*
X161190316Y-105424000D02*
X161540316Y-105424000D01*
X161540316Y-105424000D02*
X163088969Y-104107901D01*
X163088969Y-104107901D02*
X163261678Y-104311128D01*
X161190316Y-105024000D02*
X161540316Y-105024000D01*
X161540316Y-105024000D02*
X163143456Y-103661597D01*
X163143456Y-103661597D02*
X163432294Y-103766132D01*
X163432294Y-103766132D02*
X164017634Y-103948740D01*
X161190316Y-104624000D02*
X161540316Y-104624000D01*
X161540316Y-104624000D02*
X163430201Y-103017911D01*
X163430201Y-103017911D02*
X163602910Y-103221137D01*
X161190316Y-104224000D02*
X161540316Y-104224000D01*
X161540316Y-104224000D02*
X163484688Y-102571606D01*
X163484688Y-102571606D02*
X163773526Y-102676142D01*
X163773526Y-102676142D02*
X164358866Y-102858749D01*
X161190316Y-103824000D02*
X161540316Y-103824000D01*
X161540316Y-103824000D02*
X163771433Y-101927920D01*
X163771433Y-101927920D02*
X163944142Y-102131146D01*
X161190316Y-103424000D02*
X161540316Y-103424000D01*
X161540316Y-103424000D02*
X163825920Y-101481616D01*
X163825920Y-101481616D02*
X164114757Y-101586151D01*
X164114757Y-101586151D02*
X164700097Y-101768759D01*
X161190316Y-103024000D02*
X161540316Y-103024000D01*
X161540316Y-103024000D02*
X164112665Y-100837930D01*
X164112665Y-100837930D02*
X164285373Y-101041156D01*
X161190316Y-102624000D02*
X161540316Y-102624000D01*
X161540316Y-102624000D02*
X164167151Y-100391625D01*
X164167151Y-100391625D02*
X164455989Y-100496161D01*
X164455989Y-100496161D02*
X165041329Y-100678768D01*
X161190316Y-102224000D02*
X161540316Y-102224000D01*
X161540316Y-102224000D02*
X164453897Y-99747939D01*
X164453897Y-99747939D02*
X164626605Y-99951165D01*
X161190316Y-101824000D02*
X161540316Y-101824000D01*
X161540316Y-101824000D02*
X163788332Y-99913558D01*
X163788332Y-99913558D02*
X163731753Y-99611642D01*
X163731753Y-99611642D02*
X163642567Y-99005000D01*
X161190316Y-101424000D02*
X161540316Y-101424000D01*
X161540316Y-101424000D02*
X163339083Y-99895346D01*
X163339083Y-99895346D02*
X163166374Y-99692120D01*
X161190316Y-101024000D02*
X161540316Y-101024000D01*
X161540316Y-101024000D02*
X162657575Y-100074515D01*
X162657575Y-100074515D02*
X162600996Y-99772598D01*
X162600996Y-99772598D02*
X162511810Y-99165956D01*
X161190316Y-100624000D02*
X161540316Y-100624000D01*
X161540316Y-100624000D02*
X162208326Y-100056303D01*
X162208326Y-100056303D02*
X162035617Y-99853076D01*
X158110316Y-100624000D02*
X157760316Y-100624000D01*
X157760316Y-100624000D02*
X157092307Y-100056303D01*
X157092307Y-100056303D02*
X157265015Y-99853076D01*
X158110316Y-101024000D02*
X157760316Y-101024000D01*
X157760316Y-101024000D02*
X156643057Y-100074515D01*
X156643057Y-100074515D02*
X156699637Y-99772598D01*
X156699637Y-99772598D02*
X156788823Y-99165956D01*
X158110316Y-101424000D02*
X157760316Y-101424000D01*
X157760316Y-101424000D02*
X155961549Y-99895346D01*
X155961549Y-99895346D02*
X156134258Y-99692120D01*
X158110316Y-101824000D02*
X157760316Y-101824000D01*
X157760316Y-101824000D02*
X155512300Y-99913558D01*
X155512300Y-99913558D02*
X155568880Y-99611642D01*
X155568880Y-99611642D02*
X155658066Y-99005000D01*
X158110316Y-102224000D02*
X157760316Y-102224000D01*
X157760316Y-102224000D02*
X154846736Y-99747939D01*
X154846736Y-99747939D02*
X154674027Y-99951165D01*
X158110316Y-102624000D02*
X157760316Y-102624000D01*
X157760316Y-102624000D02*
X155133481Y-100391625D01*
X155133481Y-100391625D02*
X154844643Y-100496161D01*
X154844643Y-100496161D02*
X154259303Y-100678768D01*
X158110316Y-103024000D02*
X157760316Y-103024000D01*
X157760316Y-103024000D02*
X155187968Y-100837930D01*
X155187968Y-100837930D02*
X155015259Y-101041156D01*
X158110316Y-103424000D02*
X157760316Y-103424000D01*
X157760316Y-103424000D02*
X155474713Y-101481616D01*
X155474713Y-101481616D02*
X155185875Y-101586151D01*
X155185875Y-101586151D02*
X154600535Y-101768759D01*
X158110316Y-103824000D02*
X157760316Y-103824000D01*
X157760316Y-103824000D02*
X155529200Y-101927920D01*
X155529200Y-101927920D02*
X155356491Y-102131146D01*
X155527107Y-102676142D02*
X154941767Y-102858749D01*
X155815945Y-102571606D02*
X155527107Y-102676142D01*
X158110316Y-104224000D02*
X157760316Y-104224000D01*
X157760316Y-104224000D02*
X155815945Y-102571606D01*
X158110316Y-104624000D02*
X157760316Y-104624000D01*
X157760316Y-104624000D02*
X155870431Y-103017911D01*
X155870431Y-103017911D02*
X155697723Y-103221137D01*
X158110316Y-106624000D02*
X157760316Y-106624000D01*
X157760316Y-106624000D02*
X156839640Y-105841578D01*
X156839640Y-105841578D02*
X156550802Y-105946114D01*
X156550802Y-105946114D02*
X155965462Y-106128721D01*
X158110316Y-107024000D02*
X157760316Y-107024000D01*
X157760316Y-107024000D02*
X156894127Y-106287883D01*
X156894127Y-106287883D02*
X156721418Y-106491109D01*
X158110316Y-110576401D02*
X158087435Y-110599282D01*
X158087435Y-110599282D02*
X156865120Y-110599282D01*
X156865120Y-110599282D02*
X156380187Y-110599282D01*
X156498409Y-111248813D02*
X156209571Y-111144278D01*
X156209571Y-111144278D02*
X155624231Y-110961670D01*
X157295579Y-111248813D02*
X156498409Y-111248813D01*
X158110316Y-110976401D02*
X157567991Y-110976401D01*
X157567991Y-110976401D02*
X157295579Y-111248813D01*
X156523888Y-111689273D02*
X156038955Y-111689273D01*
X157530320Y-111571859D02*
X156641302Y-111571859D01*
X156641302Y-111571859D02*
X156523888Y-111689273D01*
X158110316Y-111376401D02*
X157725778Y-111376401D01*
X157725778Y-111376401D02*
X157530320Y-111571859D01*
X155868339Y-112234268D02*
X155282999Y-112051661D01*
X156871396Y-112338804D02*
X156157177Y-112338804D01*
X156157177Y-112338804D02*
X155868339Y-112234268D01*
X157645318Y-111874130D02*
X157336070Y-111874130D01*
X157760316Y-111776401D02*
X157645318Y-111874130D01*
X158110316Y-111776401D02*
X157760316Y-111776401D01*
X157336070Y-111874130D02*
X156871396Y-112338804D01*
X156858412Y-112779264D02*
X156182656Y-112779264D01*
X157461275Y-112176401D02*
X156858412Y-112779264D01*
X158110316Y-112176401D02*
X157461275Y-112176401D01*
X156182656Y-112779264D02*
X155697723Y-112779264D01*
X155527107Y-113324259D02*
X154941767Y-113141651D01*
X155815945Y-113428795D02*
X155527107Y-113324259D01*
X156636356Y-113428795D02*
X155815945Y-113428795D01*
X157488750Y-112576401D02*
X156636356Y-113428795D01*
X158110316Y-112576401D02*
X157488750Y-112576401D01*
X155841424Y-113869254D02*
X155356491Y-113869254D01*
X156623371Y-113869254D02*
X155841424Y-113869254D01*
X157516224Y-112976401D02*
X156623371Y-113869254D01*
X158110316Y-112976401D02*
X157516224Y-112976401D01*
X158110316Y-113376401D02*
X157543700Y-113376401D01*
X155185875Y-114414250D02*
X154600535Y-114231642D01*
X157543700Y-113376401D02*
X156401316Y-114518785D01*
X155474713Y-114518785D02*
X155185875Y-114414250D01*
X156401316Y-114518785D02*
X155474713Y-114518785D01*
X155612626Y-114846811D02*
X155500192Y-114959245D01*
X156500765Y-114846811D02*
X155612626Y-114846811D01*
X157571175Y-113776401D02*
X156500765Y-114846811D01*
X158110316Y-113776401D02*
X157571175Y-113776401D01*
X155500192Y-114959245D02*
X155015259Y-114959245D01*
X154844643Y-115504240D02*
X154259303Y-115321633D01*
X156491426Y-115254747D02*
X156481221Y-115254747D01*
X155133481Y-115608776D02*
X154844643Y-115504240D01*
X156481221Y-115254747D02*
X156127192Y-115608776D01*
X157598650Y-114176401D02*
X156683732Y-115091319D01*
X158110316Y-114176401D02*
X157598650Y-114176401D01*
X156683732Y-115091319D02*
X156491426Y-115254747D01*
X156127192Y-115608776D02*
X155133481Y-115608776D01*
X155771307Y-116392135D02*
X156606426Y-115557016D01*
X155016926Y-116392135D02*
X155771307Y-116392135D01*
X154674027Y-116049236D02*
X155016926Y-116392135D01*
X156606426Y-115557016D02*
X156866696Y-115335830D01*
X157626125Y-114576401D02*
X158110316Y-114576401D01*
X156866696Y-115335830D02*
X157626125Y-114576401D01*
X155657101Y-117012899D02*
X155657101Y-117207101D01*
X158110000Y-115000000D02*
X157670000Y-115000000D01*
X155857101Y-117407101D02*
X156200000Y-117750000D01*
X157670000Y-115000000D02*
X155657101Y-117012899D01*
X155657101Y-117207101D02*
X155857101Y-117407101D01*
X156906378Y-116191096D02*
X156906378Y-116639085D01*
X158110316Y-115376401D02*
X157721073Y-115376401D01*
X157721073Y-115376401D02*
X156906378Y-116191096D01*
X156906378Y-116639085D02*
X156563479Y-116981984D01*
X158110000Y-115800000D02*
X158110000Y-117125353D01*
X158110000Y-117125353D02*
X157529757Y-117705596D01*
X157529757Y-117705596D02*
X157186858Y-118048495D01*
D26*
G36*
X155770092Y-107106451D02*
X155954093Y-107106611D01*
X156166759Y-107319649D01*
X156526048Y-107468839D01*
X156915081Y-107469178D01*
X157097307Y-107393884D01*
X157125000Y-107417418D01*
X157125000Y-107527002D01*
X157144339Y-107527002D01*
X157125000Y-107573690D01*
X157125000Y-107591250D01*
X157133750Y-107600000D01*
X157125000Y-107608750D01*
X157125000Y-107626310D01*
X157196945Y-107800000D01*
X157125000Y-107973690D01*
X157125000Y-107991250D01*
X157133750Y-108000000D01*
X157125000Y-108008750D01*
X157125000Y-108026310D01*
X157196945Y-108200000D01*
X157125000Y-108373690D01*
X157125000Y-108391250D01*
X157133750Y-108400000D01*
X157125000Y-108408750D01*
X157125000Y-108426310D01*
X157196945Y-108600000D01*
X157125000Y-108773690D01*
X157125000Y-108791250D01*
X157133750Y-108800000D01*
X157125000Y-108808750D01*
X157125000Y-108826310D01*
X157196945Y-109000000D01*
X157125000Y-109173690D01*
X157125000Y-109191250D01*
X157133750Y-109200000D01*
X157125000Y-109208750D01*
X157125000Y-109226310D01*
X157196755Y-109399541D01*
X157163569Y-109448110D01*
X157132572Y-109601178D01*
X157125000Y-109608750D01*
X157125000Y-109626310D01*
X157126667Y-109630335D01*
X157112560Y-109700000D01*
X157112560Y-109801206D01*
X156998355Y-109834363D01*
X156934846Y-109770742D01*
X156575557Y-109621552D01*
X156186524Y-109621213D01*
X155826975Y-109769775D01*
X155612617Y-109983760D01*
X155577000Y-109983729D01*
X155577000Y-107026272D01*
X155770092Y-107106451D01*
X155770092Y-107106451D01*
G37*
X155770092Y-107106451D02*
X155954093Y-107106611D01*
X156166759Y-107319649D01*
X156526048Y-107468839D01*
X156915081Y-107469178D01*
X157097307Y-107393884D01*
X157125000Y-107417418D01*
X157125000Y-107527002D01*
X157144339Y-107527002D01*
X157125000Y-107573690D01*
X157125000Y-107591250D01*
X157133750Y-107600000D01*
X157125000Y-107608750D01*
X157125000Y-107626310D01*
X157196945Y-107800000D01*
X157125000Y-107973690D01*
X157125000Y-107991250D01*
X157133750Y-108000000D01*
X157125000Y-108008750D01*
X157125000Y-108026310D01*
X157196945Y-108200000D01*
X157125000Y-108373690D01*
X157125000Y-108391250D01*
X157133750Y-108400000D01*
X157125000Y-108408750D01*
X157125000Y-108426310D01*
X157196945Y-108600000D01*
X157125000Y-108773690D01*
X157125000Y-108791250D01*
X157133750Y-108800000D01*
X157125000Y-108808750D01*
X157125000Y-108826310D01*
X157196945Y-109000000D01*
X157125000Y-109173690D01*
X157125000Y-109191250D01*
X157133750Y-109200000D01*
X157125000Y-109208750D01*
X157125000Y-109226310D01*
X157196755Y-109399541D01*
X157163569Y-109448110D01*
X157132572Y-109601178D01*
X157125000Y-109608750D01*
X157125000Y-109626310D01*
X157126667Y-109630335D01*
X157112560Y-109700000D01*
X157112560Y-109801206D01*
X156998355Y-109834363D01*
X156934846Y-109770742D01*
X156575557Y-109621552D01*
X156186524Y-109621213D01*
X155826975Y-109769775D01*
X155612617Y-109983760D01*
X155577000Y-109983729D01*
X155577000Y-107026272D01*
X155770092Y-107106451D01*
M02*
