G04 #@! TF.FileFunction,Copper,L2,Bot,Signal*
%FSLAX46Y46*%
G04 Gerber Fmt 4.6, Leading zero omitted, Abs format (unit mm)*
G04 Created by KiCad (PCBNEW 4.0.1-stable) date Thursday, February 04, 2016 'PMt' 11:12:06 PM*
%MOMM*%
G01*
G04 APERTURE LIST*
%ADD10C,0.100000*%
%ADD11C,0.010000*%
%ADD12O,2.032000X1.727200*%
%ADD13R,2.032000X1.727200*%
%ADD14R,0.660000X0.230000*%
%ADD15R,0.660000X0.350000*%
%ADD16R,1.200000X0.750000*%
%ADD17R,0.750000X0.300000*%
%ADD18R,0.875000X0.725000*%
%ADD19R,1.200000X0.900000*%
%ADD20C,1.524000*%
%ADD21R,1.727200X2.032000*%
%ADD22O,1.727200X2.032000*%
%ADD23R,2.032000X2.032000*%
%ADD24O,2.032000X2.032000*%
%ADD25C,0.685800*%
%ADD26C,0.685801*%
%ADD27C,0.152400*%
%ADD28C,0.254000*%
G04 APERTURE END LIST*
D10*
D11*
G36*
X139344575Y-115672759D02*
X139312904Y-115673262D01*
X139285273Y-115674311D01*
X139260174Y-115676030D01*
X139236105Y-115678541D01*
X139211559Y-115681966D01*
X139185031Y-115686430D01*
X139163067Y-115690505D01*
X139104212Y-115703268D01*
X139043115Y-115719335D01*
X138982662Y-115737872D01*
X138925738Y-115758044D01*
X138914359Y-115762467D01*
X138871181Y-115779660D01*
X138828806Y-115796798D01*
X138786848Y-115814060D01*
X138744918Y-115831627D01*
X138702629Y-115849679D01*
X138659594Y-115868397D01*
X138615425Y-115887961D01*
X138569733Y-115908552D01*
X138522132Y-115930349D01*
X138472234Y-115953534D01*
X138419651Y-115978287D01*
X138363995Y-116004789D01*
X138304880Y-116033218D01*
X138241916Y-116063757D01*
X138174718Y-116096586D01*
X138102896Y-116131884D01*
X138026063Y-116169833D01*
X137943832Y-116210613D01*
X137855815Y-116254404D01*
X137833095Y-116265727D01*
X137754815Y-116304671D01*
X137682296Y-116340570D01*
X137615049Y-116373651D01*
X137552583Y-116404138D01*
X137494409Y-116432257D01*
X137440036Y-116458235D01*
X137388974Y-116482296D01*
X137340733Y-116504668D01*
X137294823Y-116525575D01*
X137250754Y-116545243D01*
X137208036Y-116563898D01*
X137166179Y-116581766D01*
X137124692Y-116599072D01*
X137083086Y-116616043D01*
X137040870Y-116632903D01*
X137007595Y-116645971D01*
X136984072Y-116655208D01*
X136962679Y-116663727D01*
X136944310Y-116671163D01*
X136929855Y-116677150D01*
X136920207Y-116681325D01*
X136916266Y-116683314D01*
X136916799Y-116687409D01*
X136922011Y-116695427D01*
X136931259Y-116706658D01*
X136943898Y-116720394D01*
X136959286Y-116735926D01*
X136976779Y-116752545D01*
X136989820Y-116764347D01*
X137057799Y-116820448D01*
X137132234Y-116873943D01*
X137213004Y-116924776D01*
X137299987Y-116972890D01*
X137393060Y-117018228D01*
X137492101Y-117060733D01*
X137596989Y-117100348D01*
X137707600Y-117137017D01*
X137823813Y-117170682D01*
X137910706Y-117192986D01*
X138011301Y-117216228D01*
X138106289Y-117235557D01*
X138195917Y-117250993D01*
X138280437Y-117262558D01*
X138360097Y-117270270D01*
X138435147Y-117274152D01*
X138505835Y-117274225D01*
X138572411Y-117270508D01*
X138635124Y-117263022D01*
X138672916Y-117256350D01*
X138733548Y-117241438D01*
X138788904Y-117222057D01*
X138838912Y-117198280D01*
X138883499Y-117170181D01*
X138922594Y-117137832D01*
X138956125Y-117101307D01*
X138984019Y-117060678D01*
X139006203Y-117016019D01*
X139022606Y-116967403D01*
X139033156Y-116914904D01*
X139036095Y-116888630D01*
X139036913Y-116877523D01*
X139037849Y-116869388D01*
X139039887Y-116863684D01*
X139044007Y-116859868D01*
X139051192Y-116857400D01*
X139062423Y-116855736D01*
X139078683Y-116854336D01*
X139100953Y-116852657D01*
X139101331Y-116852627D01*
X139128883Y-116850400D01*
X139150054Y-116848506D01*
X139165507Y-116846856D01*
X139175904Y-116845363D01*
X139181908Y-116843939D01*
X139184181Y-116842497D01*
X139184080Y-116841664D01*
X139186025Y-116840355D01*
X139192859Y-116840130D01*
X139202530Y-116840804D01*
X139212988Y-116842187D01*
X139222181Y-116844093D01*
X139226567Y-116845549D01*
X139232075Y-116847066D01*
X139243382Y-116849526D01*
X139259329Y-116852698D01*
X139278757Y-116856355D01*
X139300509Y-116860268D01*
X139305942Y-116861219D01*
X139387428Y-116874726D01*
X139464844Y-116886099D01*
X139540732Y-116895677D01*
X139617631Y-116903799D01*
X139641081Y-116905984D01*
X139663511Y-116907578D01*
X139690717Y-116908811D01*
X139721346Y-116909683D01*
X139754047Y-116910194D01*
X139787469Y-116910342D01*
X139820260Y-116910128D01*
X139851068Y-116909551D01*
X139878543Y-116908610D01*
X139901332Y-116907305D01*
X139914484Y-116906092D01*
X139987312Y-116896437D01*
X140058169Y-116884550D01*
X140128930Y-116870039D01*
X140201471Y-116852512D01*
X140277667Y-116831580D01*
X140293141Y-116827058D01*
X140315755Y-116820265D01*
X140332421Y-116814912D01*
X140344016Y-116810649D01*
X140351420Y-116807128D01*
X140355508Y-116803999D01*
X140356941Y-116801658D01*
X140357907Y-116796545D01*
X140359489Y-116785251D01*
X140361588Y-116768615D01*
X140364103Y-116747473D01*
X140366935Y-116722665D01*
X140369985Y-116695028D01*
X140373080Y-116666082D01*
X140376677Y-116632089D01*
X140379563Y-116604447D01*
X140381686Y-116582481D01*
X140382997Y-116565520D01*
X140383445Y-116552888D01*
X140382980Y-116543913D01*
X140381551Y-116537920D01*
X140379108Y-116534237D01*
X140375601Y-116532189D01*
X140370980Y-116531103D01*
X140365193Y-116530305D01*
X140362907Y-116529973D01*
X140351661Y-116527944D01*
X140334609Y-116524487D01*
X140312805Y-116519841D01*
X140287298Y-116514245D01*
X140259140Y-116507939D01*
X140229383Y-116501161D01*
X140199077Y-116494151D01*
X140169273Y-116487147D01*
X140141023Y-116480390D01*
X140115378Y-116474117D01*
X140096165Y-116469283D01*
X139993536Y-116441924D01*
X139897545Y-116414087D01*
X139807785Y-116385635D01*
X139723845Y-116356432D01*
X139645318Y-116326340D01*
X139571795Y-116295224D01*
X139559942Y-116289903D01*
X139489268Y-116255450D01*
X139417298Y-116215712D01*
X139345752Y-116171782D01*
X139276350Y-116124756D01*
X139210808Y-116075727D01*
X139166595Y-116039476D01*
X139148933Y-116024113D01*
X139130600Y-116007702D01*
X139112314Y-115990934D01*
X139094792Y-115974500D01*
X139078749Y-115959091D01*
X139064903Y-115945399D01*
X139053971Y-115934114D01*
X139046669Y-115925928D01*
X139043715Y-115921531D01*
X139043779Y-115921058D01*
X139049884Y-115917809D01*
X139061861Y-115913487D01*
X139078651Y-115908353D01*
X139099197Y-115902670D01*
X139122442Y-115896701D01*
X139147328Y-115890709D01*
X139172799Y-115884955D01*
X139197797Y-115879703D01*
X139221266Y-115875216D01*
X139242146Y-115871755D01*
X139242442Y-115871711D01*
X139297485Y-115865167D01*
X139351819Y-115862113D01*
X139406959Y-115862583D01*
X139464417Y-115866613D01*
X139525709Y-115874238D01*
X139555537Y-115878951D01*
X139648794Y-115897540D01*
X139738227Y-115921397D01*
X139823621Y-115950415D01*
X139904764Y-115984487D01*
X139981441Y-116023508D01*
X140053440Y-116067371D01*
X140120547Y-116115970D01*
X140182549Y-116169199D01*
X140226049Y-116212605D01*
X140268424Y-116261246D01*
X140306462Y-116312023D01*
X140339505Y-116363920D01*
X140366893Y-116415920D01*
X140384342Y-116457045D01*
X140389318Y-116469459D01*
X140393942Y-116479627D01*
X140397209Y-116485342D01*
X140400466Y-116488648D01*
X140408367Y-116496360D01*
X140420437Y-116508024D01*
X140436205Y-116523186D01*
X140455197Y-116541394D01*
X140476941Y-116562194D01*
X140500964Y-116585132D01*
X140526793Y-116609755D01*
X140545956Y-116627999D01*
X140572657Y-116653427D01*
X140597790Y-116677402D01*
X140620894Y-116699484D01*
X140641512Y-116719230D01*
X140659185Y-116736203D01*
X140673453Y-116749960D01*
X140683859Y-116760061D01*
X140689943Y-116766066D01*
X140691391Y-116767612D01*
X140688426Y-116769389D01*
X140679614Y-116773742D01*
X140665562Y-116780391D01*
X140646875Y-116789058D01*
X140624162Y-116799463D01*
X140598026Y-116811327D01*
X140569075Y-116824373D01*
X140537915Y-116838320D01*
X140530530Y-116841613D01*
X140368872Y-116913632D01*
X140352017Y-116973904D01*
X140343904Y-117001889D01*
X140334057Y-117034224D01*
X140323082Y-117069037D01*
X140311587Y-117104452D01*
X140300181Y-117138597D01*
X140289471Y-117169597D01*
X140280487Y-117194447D01*
X140275039Y-117208133D01*
X140270519Y-117216607D01*
X140265862Y-117221423D01*
X140260168Y-117224082D01*
X140252866Y-117225248D01*
X140239545Y-117226186D01*
X140221238Y-117226899D01*
X140198978Y-117227387D01*
X140173797Y-117227655D01*
X140146729Y-117227703D01*
X140118806Y-117227535D01*
X140091061Y-117227151D01*
X140064526Y-117226556D01*
X140040235Y-117225750D01*
X140019221Y-117224736D01*
X140002679Y-117223531D01*
X139839737Y-117205902D01*
X139739859Y-117192528D01*
X139697139Y-117186090D01*
X139660320Y-117179790D01*
X139628264Y-117173314D01*
X139599831Y-117166351D01*
X139573882Y-117158589D01*
X139549277Y-117149715D01*
X139524876Y-117139417D01*
X139499541Y-117127384D01*
X139496442Y-117125837D01*
X139440883Y-117094503D01*
X139386334Y-117056901D01*
X139333765Y-117013818D01*
X139284146Y-116966043D01*
X139243684Y-116920732D01*
X139225651Y-116899009D01*
X139223250Y-116924259D01*
X139216223Y-116971681D01*
X139204317Y-117020858D01*
X139188196Y-117069914D01*
X139168521Y-117116972D01*
X139145956Y-117160153D01*
X139132279Y-117181979D01*
X139094658Y-117231696D01*
X139051857Y-117276693D01*
X139003961Y-117316941D01*
X138951061Y-117352413D01*
X138893241Y-117383079D01*
X138830592Y-117408913D01*
X138763199Y-117429887D01*
X138691150Y-117445972D01*
X138614533Y-117457141D01*
X138533436Y-117463366D01*
X138447945Y-117464619D01*
X138358150Y-117460872D01*
X138279359Y-117453829D01*
X138206216Y-117444512D01*
X138128123Y-117432199D01*
X138046377Y-117417171D01*
X137962274Y-117399714D01*
X137877111Y-117380108D01*
X137792185Y-117358639D01*
X137708793Y-117335589D01*
X137632012Y-117312435D01*
X137534538Y-117279802D01*
X137440212Y-117244360D01*
X137349385Y-117206319D01*
X137262406Y-117165893D01*
X137179626Y-117123290D01*
X137101394Y-117078724D01*
X137028061Y-117032404D01*
X136959977Y-116984543D01*
X136897492Y-116935351D01*
X136840957Y-116885040D01*
X136790720Y-116833821D01*
X136747133Y-116781905D01*
X136742482Y-116775793D01*
X136732866Y-116763366D01*
X136726106Y-116755794D01*
X136721069Y-116752112D01*
X136716621Y-116751354D01*
X136714272Y-116751769D01*
X136694835Y-116756078D01*
X136669758Y-116760760D01*
X136640430Y-116765612D01*
X136608241Y-116770427D01*
X136574583Y-116775003D01*
X136540846Y-116779133D01*
X136508420Y-116782613D01*
X136497831Y-116783622D01*
X136466093Y-116786152D01*
X136434110Y-116787874D01*
X136401207Y-116788757D01*
X136366708Y-116788770D01*
X136329938Y-116787884D01*
X136290223Y-116786067D01*
X136246885Y-116783289D01*
X136199252Y-116779519D01*
X136146646Y-116774727D01*
X136088393Y-116768882D01*
X136026873Y-116762290D01*
X135937833Y-116751927D01*
X135842359Y-116739708D01*
X135740805Y-116725697D01*
X135633529Y-116709959D01*
X135520883Y-116692558D01*
X135403224Y-116673557D01*
X135280907Y-116653022D01*
X135154286Y-116631016D01*
X135023718Y-116607604D01*
X134889557Y-116582850D01*
X134752158Y-116556818D01*
X134611877Y-116529572D01*
X134469068Y-116501176D01*
X134324087Y-116471696D01*
X134177289Y-116441195D01*
X134029029Y-116409736D01*
X133879663Y-116377386D01*
X133792026Y-116358098D01*
X133747532Y-116348244D01*
X133709314Y-116339957D01*
X133676740Y-116333370D01*
X133649175Y-116328618D01*
X133625987Y-116325836D01*
X133606543Y-116325158D01*
X133590210Y-116326718D01*
X133576356Y-116330652D01*
X133564346Y-116337094D01*
X133553549Y-116346178D01*
X133543331Y-116358038D01*
X133533060Y-116372810D01*
X133522102Y-116390628D01*
X133509824Y-116411626D01*
X133505545Y-116418985D01*
X133468276Y-116484762D01*
X133433344Y-116550012D01*
X133401143Y-116613904D01*
X133372069Y-116675605D01*
X133346517Y-116734284D01*
X133324881Y-116789109D01*
X133311016Y-116828549D01*
X133295556Y-116880962D01*
X133284840Y-116929874D01*
X133278840Y-116975057D01*
X133277529Y-117016284D01*
X133280879Y-117053325D01*
X133288864Y-117085952D01*
X133301455Y-117113937D01*
X133318626Y-117137052D01*
X133340349Y-117155068D01*
X133350874Y-117161085D01*
X133361007Y-117165844D01*
X133372057Y-117170214D01*
X133384383Y-117174223D01*
X133398341Y-117177899D01*
X133414289Y-117181271D01*
X133432585Y-117184367D01*
X133453584Y-117187214D01*
X133477646Y-117189842D01*
X133505126Y-117192277D01*
X133536383Y-117194549D01*
X133571773Y-117196685D01*
X133611655Y-117198713D01*
X133656385Y-117200663D01*
X133706321Y-117202561D01*
X133761820Y-117204436D01*
X133823239Y-117206316D01*
X133890936Y-117208230D01*
X133965267Y-117210205D01*
X133978998Y-117210559D01*
X134101075Y-117213897D01*
X134216654Y-117217476D01*
X134326291Y-117221329D01*
X134430542Y-117225484D01*
X134529961Y-117229974D01*
X134625103Y-117234828D01*
X134716524Y-117240078D01*
X134804779Y-117245754D01*
X134890424Y-117251886D01*
X134974013Y-117258506D01*
X135056101Y-117265644D01*
X135137244Y-117273330D01*
X135164331Y-117276035D01*
X135293031Y-117289867D01*
X135417496Y-117304963D01*
X135538475Y-117321495D01*
X135656717Y-117339631D01*
X135772970Y-117359541D01*
X135887982Y-117381395D01*
X136002502Y-117405361D01*
X136117277Y-117431610D01*
X136233057Y-117460310D01*
X136350590Y-117491632D01*
X136470625Y-117525744D01*
X136593908Y-117562817D01*
X136721190Y-117603019D01*
X136853218Y-117646520D01*
X136958206Y-117682241D01*
X137008066Y-117699749D01*
X137055598Y-117717175D01*
X137101471Y-117734840D01*
X137146355Y-117753064D01*
X137190918Y-117772166D01*
X137235831Y-117792469D01*
X137281763Y-117814291D01*
X137329383Y-117837953D01*
X137379361Y-117863775D01*
X137432365Y-117892078D01*
X137489066Y-117923182D01*
X137550133Y-117957407D01*
X137616235Y-117995074D01*
X137637304Y-118007183D01*
X137695925Y-118040913D01*
X137748896Y-118071341D01*
X137796664Y-118098715D01*
X137839677Y-118123281D01*
X137878382Y-118145286D01*
X137913227Y-118164977D01*
X137944660Y-118182600D01*
X137973128Y-118198404D01*
X137999079Y-118212634D01*
X138022961Y-118225538D01*
X138045221Y-118237362D01*
X138066306Y-118248354D01*
X138086666Y-118258760D01*
X138106746Y-118268828D01*
X138126995Y-118278803D01*
X138147860Y-118288934D01*
X138149692Y-118289818D01*
X138217131Y-118321255D01*
X138280748Y-118348509D01*
X138341916Y-118371972D01*
X138402006Y-118392035D01*
X138462389Y-118409092D01*
X138524438Y-118423534D01*
X138589524Y-118435754D01*
X138659020Y-118446144D01*
X138723859Y-118453969D01*
X138764846Y-118457729D01*
X138810792Y-118460689D01*
X138859640Y-118462795D01*
X138909335Y-118463991D01*
X138957819Y-118464222D01*
X139003036Y-118463434D01*
X139032540Y-118462198D01*
X139112086Y-118455555D01*
X139192542Y-118444433D01*
X139272720Y-118429133D01*
X139351431Y-118409953D01*
X139427487Y-118387191D01*
X139499700Y-118361146D01*
X139566882Y-118332117D01*
X139584990Y-118323315D01*
X139665970Y-118279062D01*
X139745192Y-118228098D01*
X139822516Y-118170583D01*
X139897803Y-118106673D01*
X139970912Y-118036526D01*
X140041703Y-117960300D01*
X140110038Y-117878153D01*
X140175775Y-117790242D01*
X140238776Y-117696726D01*
X140298901Y-117597760D01*
X140356009Y-117493504D01*
X140401101Y-117402891D01*
X140419439Y-117362977D01*
X140437061Y-117321612D01*
X140454472Y-117277504D01*
X140472179Y-117229362D01*
X140490688Y-117175894D01*
X140495033Y-117162940D01*
X140502702Y-117139494D01*
X140510805Y-117113904D01*
X140518990Y-117087363D01*
X140526905Y-117061063D01*
X140534197Y-117036198D01*
X140540513Y-117013959D01*
X140545502Y-116995538D01*
X140548811Y-116982130D01*
X140549620Y-116978248D01*
X140551789Y-116966686D01*
X140756403Y-116884118D01*
X140792383Y-116869573D01*
X140826391Y-116855775D01*
X140857866Y-116842956D01*
X140886250Y-116831344D01*
X140910984Y-116821170D01*
X140931508Y-116812664D01*
X140947264Y-116806057D01*
X140957691Y-116801579D01*
X140962230Y-116799459D01*
X140962379Y-116799346D01*
X140960038Y-116796696D01*
X140952836Y-116789740D01*
X140941186Y-116778853D01*
X140925503Y-116764414D01*
X140906201Y-116746798D01*
X140883694Y-116726384D01*
X140858397Y-116703549D01*
X140830724Y-116678669D01*
X140801089Y-116652122D01*
X140775712Y-116629459D01*
X140739696Y-116597330D01*
X140708582Y-116569536D01*
X140682000Y-116545723D01*
X140659583Y-116525538D01*
X140640960Y-116508625D01*
X140625763Y-116494632D01*
X140613622Y-116483203D01*
X140604168Y-116473984D01*
X140597033Y-116466621D01*
X140591846Y-116460761D01*
X140588239Y-116456048D01*
X140585842Y-116452129D01*
X140584286Y-116448649D01*
X140583203Y-116445255D01*
X140583019Y-116444587D01*
X140576610Y-116424038D01*
X140567508Y-116399088D01*
X140556438Y-116371506D01*
X140544124Y-116343065D01*
X140531293Y-116315533D01*
X140524698Y-116302244D01*
X140492249Y-116244035D01*
X140455021Y-116187910D01*
X140412332Y-116132939D01*
X140363499Y-116078192D01*
X140350356Y-116064539D01*
X140294847Y-116011000D01*
X140237567Y-115962517D01*
X140177313Y-115918221D01*
X140112881Y-115877247D01*
X140043067Y-115838727D01*
X140022081Y-115828110D01*
X139954027Y-115796238D01*
X139886013Y-115768403D01*
X139816811Y-115744231D01*
X139745191Y-115723349D01*
X139669926Y-115705382D01*
X139589786Y-115689958D01*
X139543318Y-115682442D01*
X139523482Y-115679522D01*
X139506154Y-115677256D01*
X139489937Y-115675560D01*
X139473436Y-115674349D01*
X139455256Y-115673538D01*
X139434000Y-115673045D01*
X139408274Y-115672784D01*
X139381790Y-115672681D01*
X139344575Y-115672759D01*
X139344575Y-115672759D01*
G37*
X139344575Y-115672759D02*
X139312904Y-115673262D01*
X139285273Y-115674311D01*
X139260174Y-115676030D01*
X139236105Y-115678541D01*
X139211559Y-115681966D01*
X139185031Y-115686430D01*
X139163067Y-115690505D01*
X139104212Y-115703268D01*
X139043115Y-115719335D01*
X138982662Y-115737872D01*
X138925738Y-115758044D01*
X138914359Y-115762467D01*
X138871181Y-115779660D01*
X138828806Y-115796798D01*
X138786848Y-115814060D01*
X138744918Y-115831627D01*
X138702629Y-115849679D01*
X138659594Y-115868397D01*
X138615425Y-115887961D01*
X138569733Y-115908552D01*
X138522132Y-115930349D01*
X138472234Y-115953534D01*
X138419651Y-115978287D01*
X138363995Y-116004789D01*
X138304880Y-116033218D01*
X138241916Y-116063757D01*
X138174718Y-116096586D01*
X138102896Y-116131884D01*
X138026063Y-116169833D01*
X137943832Y-116210613D01*
X137855815Y-116254404D01*
X137833095Y-116265727D01*
X137754815Y-116304671D01*
X137682296Y-116340570D01*
X137615049Y-116373651D01*
X137552583Y-116404138D01*
X137494409Y-116432257D01*
X137440036Y-116458235D01*
X137388974Y-116482296D01*
X137340733Y-116504668D01*
X137294823Y-116525575D01*
X137250754Y-116545243D01*
X137208036Y-116563898D01*
X137166179Y-116581766D01*
X137124692Y-116599072D01*
X137083086Y-116616043D01*
X137040870Y-116632903D01*
X137007595Y-116645971D01*
X136984072Y-116655208D01*
X136962679Y-116663727D01*
X136944310Y-116671163D01*
X136929855Y-116677150D01*
X136920207Y-116681325D01*
X136916266Y-116683314D01*
X136916799Y-116687409D01*
X136922011Y-116695427D01*
X136931259Y-116706658D01*
X136943898Y-116720394D01*
X136959286Y-116735926D01*
X136976779Y-116752545D01*
X136989820Y-116764347D01*
X137057799Y-116820448D01*
X137132234Y-116873943D01*
X137213004Y-116924776D01*
X137299987Y-116972890D01*
X137393060Y-117018228D01*
X137492101Y-117060733D01*
X137596989Y-117100348D01*
X137707600Y-117137017D01*
X137823813Y-117170682D01*
X137910706Y-117192986D01*
X138011301Y-117216228D01*
X138106289Y-117235557D01*
X138195917Y-117250993D01*
X138280437Y-117262558D01*
X138360097Y-117270270D01*
X138435147Y-117274152D01*
X138505835Y-117274225D01*
X138572411Y-117270508D01*
X138635124Y-117263022D01*
X138672916Y-117256350D01*
X138733548Y-117241438D01*
X138788904Y-117222057D01*
X138838912Y-117198280D01*
X138883499Y-117170181D01*
X138922594Y-117137832D01*
X138956125Y-117101307D01*
X138984019Y-117060678D01*
X139006203Y-117016019D01*
X139022606Y-116967403D01*
X139033156Y-116914904D01*
X139036095Y-116888630D01*
X139036913Y-116877523D01*
X139037849Y-116869388D01*
X139039887Y-116863684D01*
X139044007Y-116859868D01*
X139051192Y-116857400D01*
X139062423Y-116855736D01*
X139078683Y-116854336D01*
X139100953Y-116852657D01*
X139101331Y-116852627D01*
X139128883Y-116850400D01*
X139150054Y-116848506D01*
X139165507Y-116846856D01*
X139175904Y-116845363D01*
X139181908Y-116843939D01*
X139184181Y-116842497D01*
X139184080Y-116841664D01*
X139186025Y-116840355D01*
X139192859Y-116840130D01*
X139202530Y-116840804D01*
X139212988Y-116842187D01*
X139222181Y-116844093D01*
X139226567Y-116845549D01*
X139232075Y-116847066D01*
X139243382Y-116849526D01*
X139259329Y-116852698D01*
X139278757Y-116856355D01*
X139300509Y-116860268D01*
X139305942Y-116861219D01*
X139387428Y-116874726D01*
X139464844Y-116886099D01*
X139540732Y-116895677D01*
X139617631Y-116903799D01*
X139641081Y-116905984D01*
X139663511Y-116907578D01*
X139690717Y-116908811D01*
X139721346Y-116909683D01*
X139754047Y-116910194D01*
X139787469Y-116910342D01*
X139820260Y-116910128D01*
X139851068Y-116909551D01*
X139878543Y-116908610D01*
X139901332Y-116907305D01*
X139914484Y-116906092D01*
X139987312Y-116896437D01*
X140058169Y-116884550D01*
X140128930Y-116870039D01*
X140201471Y-116852512D01*
X140277667Y-116831580D01*
X140293141Y-116827058D01*
X140315755Y-116820265D01*
X140332421Y-116814912D01*
X140344016Y-116810649D01*
X140351420Y-116807128D01*
X140355508Y-116803999D01*
X140356941Y-116801658D01*
X140357907Y-116796545D01*
X140359489Y-116785251D01*
X140361588Y-116768615D01*
X140364103Y-116747473D01*
X140366935Y-116722665D01*
X140369985Y-116695028D01*
X140373080Y-116666082D01*
X140376677Y-116632089D01*
X140379563Y-116604447D01*
X140381686Y-116582481D01*
X140382997Y-116565520D01*
X140383445Y-116552888D01*
X140382980Y-116543913D01*
X140381551Y-116537920D01*
X140379108Y-116534237D01*
X140375601Y-116532189D01*
X140370980Y-116531103D01*
X140365193Y-116530305D01*
X140362907Y-116529973D01*
X140351661Y-116527944D01*
X140334609Y-116524487D01*
X140312805Y-116519841D01*
X140287298Y-116514245D01*
X140259140Y-116507939D01*
X140229383Y-116501161D01*
X140199077Y-116494151D01*
X140169273Y-116487147D01*
X140141023Y-116480390D01*
X140115378Y-116474117D01*
X140096165Y-116469283D01*
X139993536Y-116441924D01*
X139897545Y-116414087D01*
X139807785Y-116385635D01*
X139723845Y-116356432D01*
X139645318Y-116326340D01*
X139571795Y-116295224D01*
X139559942Y-116289903D01*
X139489268Y-116255450D01*
X139417298Y-116215712D01*
X139345752Y-116171782D01*
X139276350Y-116124756D01*
X139210808Y-116075727D01*
X139166595Y-116039476D01*
X139148933Y-116024113D01*
X139130600Y-116007702D01*
X139112314Y-115990934D01*
X139094792Y-115974500D01*
X139078749Y-115959091D01*
X139064903Y-115945399D01*
X139053971Y-115934114D01*
X139046669Y-115925928D01*
X139043715Y-115921531D01*
X139043779Y-115921058D01*
X139049884Y-115917809D01*
X139061861Y-115913487D01*
X139078651Y-115908353D01*
X139099197Y-115902670D01*
X139122442Y-115896701D01*
X139147328Y-115890709D01*
X139172799Y-115884955D01*
X139197797Y-115879703D01*
X139221266Y-115875216D01*
X139242146Y-115871755D01*
X139242442Y-115871711D01*
X139297485Y-115865167D01*
X139351819Y-115862113D01*
X139406959Y-115862583D01*
X139464417Y-115866613D01*
X139525709Y-115874238D01*
X139555537Y-115878951D01*
X139648794Y-115897540D01*
X139738227Y-115921397D01*
X139823621Y-115950415D01*
X139904764Y-115984487D01*
X139981441Y-116023508D01*
X140053440Y-116067371D01*
X140120547Y-116115970D01*
X140182549Y-116169199D01*
X140226049Y-116212605D01*
X140268424Y-116261246D01*
X140306462Y-116312023D01*
X140339505Y-116363920D01*
X140366893Y-116415920D01*
X140384342Y-116457045D01*
X140389318Y-116469459D01*
X140393942Y-116479627D01*
X140397209Y-116485342D01*
X140400466Y-116488648D01*
X140408367Y-116496360D01*
X140420437Y-116508024D01*
X140436205Y-116523186D01*
X140455197Y-116541394D01*
X140476941Y-116562194D01*
X140500964Y-116585132D01*
X140526793Y-116609755D01*
X140545956Y-116627999D01*
X140572657Y-116653427D01*
X140597790Y-116677402D01*
X140620894Y-116699484D01*
X140641512Y-116719230D01*
X140659185Y-116736203D01*
X140673453Y-116749960D01*
X140683859Y-116760061D01*
X140689943Y-116766066D01*
X140691391Y-116767612D01*
X140688426Y-116769389D01*
X140679614Y-116773742D01*
X140665562Y-116780391D01*
X140646875Y-116789058D01*
X140624162Y-116799463D01*
X140598026Y-116811327D01*
X140569075Y-116824373D01*
X140537915Y-116838320D01*
X140530530Y-116841613D01*
X140368872Y-116913632D01*
X140352017Y-116973904D01*
X140343904Y-117001889D01*
X140334057Y-117034224D01*
X140323082Y-117069037D01*
X140311587Y-117104452D01*
X140300181Y-117138597D01*
X140289471Y-117169597D01*
X140280487Y-117194447D01*
X140275039Y-117208133D01*
X140270519Y-117216607D01*
X140265862Y-117221423D01*
X140260168Y-117224082D01*
X140252866Y-117225248D01*
X140239545Y-117226186D01*
X140221238Y-117226899D01*
X140198978Y-117227387D01*
X140173797Y-117227655D01*
X140146729Y-117227703D01*
X140118806Y-117227535D01*
X140091061Y-117227151D01*
X140064526Y-117226556D01*
X140040235Y-117225750D01*
X140019221Y-117224736D01*
X140002679Y-117223531D01*
X139839737Y-117205902D01*
X139739859Y-117192528D01*
X139697139Y-117186090D01*
X139660320Y-117179790D01*
X139628264Y-117173314D01*
X139599831Y-117166351D01*
X139573882Y-117158589D01*
X139549277Y-117149715D01*
X139524876Y-117139417D01*
X139499541Y-117127384D01*
X139496442Y-117125837D01*
X139440883Y-117094503D01*
X139386334Y-117056901D01*
X139333765Y-117013818D01*
X139284146Y-116966043D01*
X139243684Y-116920732D01*
X139225651Y-116899009D01*
X139223250Y-116924259D01*
X139216223Y-116971681D01*
X139204317Y-117020858D01*
X139188196Y-117069914D01*
X139168521Y-117116972D01*
X139145956Y-117160153D01*
X139132279Y-117181979D01*
X139094658Y-117231696D01*
X139051857Y-117276693D01*
X139003961Y-117316941D01*
X138951061Y-117352413D01*
X138893241Y-117383079D01*
X138830592Y-117408913D01*
X138763199Y-117429887D01*
X138691150Y-117445972D01*
X138614533Y-117457141D01*
X138533436Y-117463366D01*
X138447945Y-117464619D01*
X138358150Y-117460872D01*
X138279359Y-117453829D01*
X138206216Y-117444512D01*
X138128123Y-117432199D01*
X138046377Y-117417171D01*
X137962274Y-117399714D01*
X137877111Y-117380108D01*
X137792185Y-117358639D01*
X137708793Y-117335589D01*
X137632012Y-117312435D01*
X137534538Y-117279802D01*
X137440212Y-117244360D01*
X137349385Y-117206319D01*
X137262406Y-117165893D01*
X137179626Y-117123290D01*
X137101394Y-117078724D01*
X137028061Y-117032404D01*
X136959977Y-116984543D01*
X136897492Y-116935351D01*
X136840957Y-116885040D01*
X136790720Y-116833821D01*
X136747133Y-116781905D01*
X136742482Y-116775793D01*
X136732866Y-116763366D01*
X136726106Y-116755794D01*
X136721069Y-116752112D01*
X136716621Y-116751354D01*
X136714272Y-116751769D01*
X136694835Y-116756078D01*
X136669758Y-116760760D01*
X136640430Y-116765612D01*
X136608241Y-116770427D01*
X136574583Y-116775003D01*
X136540846Y-116779133D01*
X136508420Y-116782613D01*
X136497831Y-116783622D01*
X136466093Y-116786152D01*
X136434110Y-116787874D01*
X136401207Y-116788757D01*
X136366708Y-116788770D01*
X136329938Y-116787884D01*
X136290223Y-116786067D01*
X136246885Y-116783289D01*
X136199252Y-116779519D01*
X136146646Y-116774727D01*
X136088393Y-116768882D01*
X136026873Y-116762290D01*
X135937833Y-116751927D01*
X135842359Y-116739708D01*
X135740805Y-116725697D01*
X135633529Y-116709959D01*
X135520883Y-116692558D01*
X135403224Y-116673557D01*
X135280907Y-116653022D01*
X135154286Y-116631016D01*
X135023718Y-116607604D01*
X134889557Y-116582850D01*
X134752158Y-116556818D01*
X134611877Y-116529572D01*
X134469068Y-116501176D01*
X134324087Y-116471696D01*
X134177289Y-116441195D01*
X134029029Y-116409736D01*
X133879663Y-116377386D01*
X133792026Y-116358098D01*
X133747532Y-116348244D01*
X133709314Y-116339957D01*
X133676740Y-116333370D01*
X133649175Y-116328618D01*
X133625987Y-116325836D01*
X133606543Y-116325158D01*
X133590210Y-116326718D01*
X133576356Y-116330652D01*
X133564346Y-116337094D01*
X133553549Y-116346178D01*
X133543331Y-116358038D01*
X133533060Y-116372810D01*
X133522102Y-116390628D01*
X133509824Y-116411626D01*
X133505545Y-116418985D01*
X133468276Y-116484762D01*
X133433344Y-116550012D01*
X133401143Y-116613904D01*
X133372069Y-116675605D01*
X133346517Y-116734284D01*
X133324881Y-116789109D01*
X133311016Y-116828549D01*
X133295556Y-116880962D01*
X133284840Y-116929874D01*
X133278840Y-116975057D01*
X133277529Y-117016284D01*
X133280879Y-117053325D01*
X133288864Y-117085952D01*
X133301455Y-117113937D01*
X133318626Y-117137052D01*
X133340349Y-117155068D01*
X133350874Y-117161085D01*
X133361007Y-117165844D01*
X133372057Y-117170214D01*
X133384383Y-117174223D01*
X133398341Y-117177899D01*
X133414289Y-117181271D01*
X133432585Y-117184367D01*
X133453584Y-117187214D01*
X133477646Y-117189842D01*
X133505126Y-117192277D01*
X133536383Y-117194549D01*
X133571773Y-117196685D01*
X133611655Y-117198713D01*
X133656385Y-117200663D01*
X133706321Y-117202561D01*
X133761820Y-117204436D01*
X133823239Y-117206316D01*
X133890936Y-117208230D01*
X133965267Y-117210205D01*
X133978998Y-117210559D01*
X134101075Y-117213897D01*
X134216654Y-117217476D01*
X134326291Y-117221329D01*
X134430542Y-117225484D01*
X134529961Y-117229974D01*
X134625103Y-117234828D01*
X134716524Y-117240078D01*
X134804779Y-117245754D01*
X134890424Y-117251886D01*
X134974013Y-117258506D01*
X135056101Y-117265644D01*
X135137244Y-117273330D01*
X135164331Y-117276035D01*
X135293031Y-117289867D01*
X135417496Y-117304963D01*
X135538475Y-117321495D01*
X135656717Y-117339631D01*
X135772970Y-117359541D01*
X135887982Y-117381395D01*
X136002502Y-117405361D01*
X136117277Y-117431610D01*
X136233057Y-117460310D01*
X136350590Y-117491632D01*
X136470625Y-117525744D01*
X136593908Y-117562817D01*
X136721190Y-117603019D01*
X136853218Y-117646520D01*
X136958206Y-117682241D01*
X137008066Y-117699749D01*
X137055598Y-117717175D01*
X137101471Y-117734840D01*
X137146355Y-117753064D01*
X137190918Y-117772166D01*
X137235831Y-117792469D01*
X137281763Y-117814291D01*
X137329383Y-117837953D01*
X137379361Y-117863775D01*
X137432365Y-117892078D01*
X137489066Y-117923182D01*
X137550133Y-117957407D01*
X137616235Y-117995074D01*
X137637304Y-118007183D01*
X137695925Y-118040913D01*
X137748896Y-118071341D01*
X137796664Y-118098715D01*
X137839677Y-118123281D01*
X137878382Y-118145286D01*
X137913227Y-118164977D01*
X137944660Y-118182600D01*
X137973128Y-118198404D01*
X137999079Y-118212634D01*
X138022961Y-118225538D01*
X138045221Y-118237362D01*
X138066306Y-118248354D01*
X138086666Y-118258760D01*
X138106746Y-118268828D01*
X138126995Y-118278803D01*
X138147860Y-118288934D01*
X138149692Y-118289818D01*
X138217131Y-118321255D01*
X138280748Y-118348509D01*
X138341916Y-118371972D01*
X138402006Y-118392035D01*
X138462389Y-118409092D01*
X138524438Y-118423534D01*
X138589524Y-118435754D01*
X138659020Y-118446144D01*
X138723859Y-118453969D01*
X138764846Y-118457729D01*
X138810792Y-118460689D01*
X138859640Y-118462795D01*
X138909335Y-118463991D01*
X138957819Y-118464222D01*
X139003036Y-118463434D01*
X139032540Y-118462198D01*
X139112086Y-118455555D01*
X139192542Y-118444433D01*
X139272720Y-118429133D01*
X139351431Y-118409953D01*
X139427487Y-118387191D01*
X139499700Y-118361146D01*
X139566882Y-118332117D01*
X139584990Y-118323315D01*
X139665970Y-118279062D01*
X139745192Y-118228098D01*
X139822516Y-118170583D01*
X139897803Y-118106673D01*
X139970912Y-118036526D01*
X140041703Y-117960300D01*
X140110038Y-117878153D01*
X140175775Y-117790242D01*
X140238776Y-117696726D01*
X140298901Y-117597760D01*
X140356009Y-117493504D01*
X140401101Y-117402891D01*
X140419439Y-117362977D01*
X140437061Y-117321612D01*
X140454472Y-117277504D01*
X140472179Y-117229362D01*
X140490688Y-117175894D01*
X140495033Y-117162940D01*
X140502702Y-117139494D01*
X140510805Y-117113904D01*
X140518990Y-117087363D01*
X140526905Y-117061063D01*
X140534197Y-117036198D01*
X140540513Y-117013959D01*
X140545502Y-116995538D01*
X140548811Y-116982130D01*
X140549620Y-116978248D01*
X140551789Y-116966686D01*
X140756403Y-116884118D01*
X140792383Y-116869573D01*
X140826391Y-116855775D01*
X140857866Y-116842956D01*
X140886250Y-116831344D01*
X140910984Y-116821170D01*
X140931508Y-116812664D01*
X140947264Y-116806057D01*
X140957691Y-116801579D01*
X140962230Y-116799459D01*
X140962379Y-116799346D01*
X140960038Y-116796696D01*
X140952836Y-116789740D01*
X140941186Y-116778853D01*
X140925503Y-116764414D01*
X140906201Y-116746798D01*
X140883694Y-116726384D01*
X140858397Y-116703549D01*
X140830724Y-116678669D01*
X140801089Y-116652122D01*
X140775712Y-116629459D01*
X140739696Y-116597330D01*
X140708582Y-116569536D01*
X140682000Y-116545723D01*
X140659583Y-116525538D01*
X140640960Y-116508625D01*
X140625763Y-116494632D01*
X140613622Y-116483203D01*
X140604168Y-116473984D01*
X140597033Y-116466621D01*
X140591846Y-116460761D01*
X140588239Y-116456048D01*
X140585842Y-116452129D01*
X140584286Y-116448649D01*
X140583203Y-116445255D01*
X140583019Y-116444587D01*
X140576610Y-116424038D01*
X140567508Y-116399088D01*
X140556438Y-116371506D01*
X140544124Y-116343065D01*
X140531293Y-116315533D01*
X140524698Y-116302244D01*
X140492249Y-116244035D01*
X140455021Y-116187910D01*
X140412332Y-116132939D01*
X140363499Y-116078192D01*
X140350356Y-116064539D01*
X140294847Y-116011000D01*
X140237567Y-115962517D01*
X140177313Y-115918221D01*
X140112881Y-115877247D01*
X140043067Y-115838727D01*
X140022081Y-115828110D01*
X139954027Y-115796238D01*
X139886013Y-115768403D01*
X139816811Y-115744231D01*
X139745191Y-115723349D01*
X139669926Y-115705382D01*
X139589786Y-115689958D01*
X139543318Y-115682442D01*
X139523482Y-115679522D01*
X139506154Y-115677256D01*
X139489937Y-115675560D01*
X139473436Y-115674349D01*
X139455256Y-115673538D01*
X139434000Y-115673045D01*
X139408274Y-115672784D01*
X139381790Y-115672681D01*
X139344575Y-115672759D01*
D12*
X134550000Y-103700000D03*
D13*
X134550000Y-106240000D03*
D12*
X134550000Y-108780000D03*
D13*
X134550000Y-111320000D03*
D14*
X161005000Y-115800000D03*
X158295000Y-115800000D03*
X161005000Y-100200000D03*
X158295000Y-100200000D03*
X161005000Y-115400000D03*
X161005000Y-115000000D03*
X161005000Y-114600000D03*
X161005000Y-114200000D03*
X161005000Y-113800000D03*
X161005000Y-113400000D03*
X161005000Y-113000000D03*
X161005000Y-112600000D03*
X161005000Y-112200000D03*
X161005000Y-111800000D03*
X161005000Y-111400000D03*
X161005000Y-111000000D03*
X161005000Y-110600000D03*
X161005000Y-110200000D03*
X161005000Y-109800000D03*
X161005000Y-109400000D03*
X161005000Y-109000000D03*
X161005000Y-108600000D03*
X161005000Y-108200000D03*
X161005000Y-107800000D03*
X161005000Y-107400000D03*
X161005000Y-107000000D03*
X161005000Y-106600000D03*
X161005000Y-106200000D03*
X161005000Y-105800000D03*
X161005000Y-105400000D03*
X161005000Y-105000000D03*
X161005000Y-104600000D03*
X161005000Y-104200000D03*
X161005000Y-103800000D03*
X161005000Y-103400000D03*
X161005000Y-103000000D03*
X161005000Y-102600000D03*
X161005000Y-102200000D03*
X161005000Y-101800000D03*
X161005000Y-101400000D03*
X161005000Y-101000000D03*
X161005000Y-100600000D03*
D15*
X161005000Y-99725000D03*
X158295000Y-99725000D03*
X161005000Y-116275000D03*
X158295000Y-116275000D03*
D14*
X158295000Y-100600000D03*
X158295000Y-101000000D03*
X158295000Y-101400000D03*
X158295000Y-101800000D03*
X158295000Y-102200000D03*
X158295000Y-102600000D03*
X158295000Y-103000000D03*
X158295000Y-103400000D03*
X158295000Y-103800000D03*
X158295000Y-104200000D03*
X158295000Y-104600000D03*
X158295000Y-105000000D03*
X158295000Y-105400000D03*
X158295000Y-105800000D03*
X158295000Y-106200000D03*
X158295000Y-106600000D03*
X158295000Y-107000000D03*
X158295000Y-107400000D03*
X158295000Y-107800000D03*
X158295000Y-108200000D03*
X158295000Y-108600000D03*
X158295000Y-109000000D03*
X158295000Y-109400000D03*
X158295000Y-109800000D03*
X158295000Y-110200000D03*
X158295000Y-110600000D03*
X158295000Y-111000000D03*
X158295000Y-111400000D03*
X158295000Y-111800000D03*
X158295000Y-112200000D03*
X158295000Y-112600000D03*
X158295000Y-113000000D03*
X158295000Y-113400000D03*
X158295000Y-113800000D03*
X158295000Y-114200000D03*
X158295000Y-114600000D03*
X158295000Y-115000000D03*
X158295000Y-115400000D03*
D16*
X156250000Y-95900000D03*
X158150000Y-95900000D03*
D17*
X158712500Y-92862500D03*
X158712500Y-93362500D03*
X158712500Y-93862500D03*
X158712500Y-94362500D03*
X155812500Y-94362500D03*
X155812500Y-93862500D03*
X155812500Y-93362500D03*
X155812500Y-92862500D03*
D18*
X156825000Y-93975000D03*
X156825000Y-93250000D03*
X157700000Y-93975000D03*
X157700000Y-93250000D03*
D19*
X156550000Y-91200000D03*
X154350000Y-91200000D03*
D20*
X158550000Y-91250000D03*
D13*
X131500000Y-111300000D03*
D12*
X131500000Y-108760000D03*
D13*
X131500000Y-106220000D03*
D12*
X131500000Y-103680000D03*
D21*
X147350000Y-113890000D03*
D22*
X144810000Y-113890000D03*
X142270000Y-113890000D03*
X139730000Y-113890000D03*
X137190000Y-113890000D03*
X134650000Y-113890000D03*
D21*
X147400000Y-101200000D03*
D22*
X144860000Y-101200000D03*
X142320000Y-101200000D03*
X139780000Y-101200000D03*
X137240000Y-101200000D03*
D21*
X134700000Y-101200000D03*
D23*
X147400000Y-109140000D03*
D24*
X147400000Y-106600000D03*
D21*
X150745000Y-124450000D03*
D22*
X148205000Y-124450000D03*
X145665000Y-124450000D03*
X143125000Y-124450000D03*
X140585000Y-124450000D03*
X138045000Y-124450000D03*
D25*
X162950000Y-97849974D03*
X162500000Y-95300000D03*
X133000000Y-104600000D03*
X150050000Y-110150000D03*
X150050000Y-109150000D03*
X154600000Y-121350000D03*
D26*
X163335170Y-106128721D03*
X162579214Y-106491109D03*
X162993938Y-107218712D03*
X162237982Y-107581100D03*
X162237982Y-108419301D03*
X162993938Y-108781689D03*
X162579214Y-109509292D03*
X163335170Y-109871680D03*
D25*
X164264956Y-95352566D03*
X160500000Y-95450000D03*
X157300000Y-95000000D03*
X159100000Y-98150000D03*
X159950000Y-93400000D03*
X154500000Y-92950000D03*
X153600000Y-93750000D03*
X154325068Y-92130246D03*
X160303087Y-96914049D03*
X157300000Y-97100000D03*
X156750000Y-92200000D03*
X154650000Y-94900000D03*
D26*
X156380187Y-105401118D03*
D25*
X160729126Y-94320874D03*
D26*
X156306694Y-107218712D03*
X157062650Y-107581100D03*
X157062650Y-108419301D03*
X156306694Y-108781689D03*
X156721418Y-109509292D03*
X155965462Y-109871680D03*
D25*
X145350000Y-118375000D03*
X153950000Y-117750000D03*
X154171538Y-118776227D03*
X161000000Y-117010000D03*
D26*
X161045015Y-99054899D03*
X158255617Y-99054899D03*
X158255617Y-99054899D03*
X162035617Y-116147324D03*
X162511810Y-116834445D03*
X163166374Y-116308281D03*
X163642567Y-116995401D03*
X164626605Y-116049236D03*
X165041329Y-115321633D03*
X164285373Y-114959245D03*
X164700097Y-114231642D03*
X163944142Y-113869254D03*
X164358866Y-113141651D03*
X163602910Y-112779264D03*
X164017634Y-112051661D03*
X163261678Y-111689273D03*
X163676402Y-110961670D03*
X162920446Y-110599282D03*
X162920446Y-105401118D03*
X163676402Y-105038731D03*
X163261678Y-104311128D03*
X164017634Y-103948740D03*
X163602910Y-103221137D03*
X164358866Y-102858749D03*
X163944142Y-102131146D03*
X164700097Y-101768759D03*
X164285373Y-101041156D03*
X165041329Y-100678768D03*
X164626605Y-99951165D03*
X163642567Y-99005000D03*
X163166374Y-99692120D03*
X162511810Y-99165956D03*
X162035617Y-99853076D03*
X157265015Y-99853076D03*
X156788823Y-99165956D03*
X156134258Y-99692120D03*
X155658066Y-99005000D03*
X154674027Y-99951165D03*
X154259303Y-100678768D03*
X155015259Y-101041156D03*
X154600535Y-101768759D03*
X155356491Y-102131146D03*
X154941767Y-102858749D03*
X155697723Y-103221137D03*
X155965462Y-106128721D03*
X156721418Y-106491109D03*
X156380187Y-110599282D03*
X155624231Y-110961670D03*
X156038955Y-111689273D03*
X155282999Y-112051661D03*
X155697723Y-112779264D03*
X154941767Y-113141651D03*
X155356491Y-113869254D03*
X154600535Y-114231642D03*
X155015259Y-114959245D03*
X154259303Y-115321633D03*
X154674027Y-116049236D03*
X156200000Y-117750000D03*
X156563479Y-116981984D03*
D25*
X157186858Y-118048495D03*
D27*
X162154815Y-98095191D02*
X162850000Y-97400006D01*
X162850000Y-97400006D02*
X162850000Y-97749974D01*
X162850000Y-97749974D02*
X162950000Y-97849974D01*
X159945189Y-105385878D02*
X159945189Y-98623744D01*
X160473743Y-98095191D02*
X162154815Y-98095191D01*
X159531067Y-105800000D02*
X159945189Y-105385878D01*
X159945189Y-98623744D02*
X160473743Y-98095191D01*
X158295000Y-105800000D02*
X159531067Y-105800000D01*
X162500000Y-94815067D02*
X162500000Y-95300000D01*
X159239900Y-92560100D02*
X160445033Y-92560100D01*
X158937500Y-92862500D02*
X159239900Y-92560100D01*
X160445033Y-92560100D02*
X162500000Y-94615067D01*
X158712500Y-92862500D02*
X158937500Y-92862500D01*
X162500000Y-94615067D02*
X162500000Y-94815067D01*
D28*
X147400000Y-101200000D02*
X147400000Y-99930000D01*
X147400000Y-99930000D02*
X148080000Y-99250000D01*
X147400000Y-101200000D02*
X149350000Y-101200000D01*
X134700000Y-101200000D02*
X134700000Y-99650000D01*
X134700000Y-101200000D02*
X133582400Y-101200000D01*
X133582400Y-101200000D02*
X133000000Y-101782400D01*
X133000000Y-101782400D02*
X133000000Y-103500000D01*
X133000000Y-104600000D02*
X133000000Y-103500000D01*
X150050000Y-109150000D02*
X150392899Y-109492899D01*
D27*
X161005000Y-109400000D02*
X159950000Y-109400000D01*
X159850000Y-108850000D02*
X160000000Y-109000000D01*
X160000000Y-109000000D02*
X161005000Y-109000000D01*
X160100000Y-108600000D02*
X159850000Y-108850000D01*
X161005000Y-108600000D02*
X160100000Y-108600000D01*
X159900000Y-108000000D02*
X160100000Y-108200000D01*
X160100000Y-108200000D02*
X161005000Y-108200000D01*
X160100000Y-107800000D02*
X159900000Y-108000000D01*
X161005000Y-107800000D02*
X160100000Y-107800000D01*
X161005000Y-107000000D02*
X159850000Y-107000000D01*
X159850000Y-107000000D02*
X160250000Y-107400000D01*
X160250000Y-107400000D02*
X161005000Y-107400000D01*
D28*
X154600000Y-121350000D02*
X154600000Y-120650000D01*
D27*
X160522600Y-106600000D02*
X160250000Y-106327400D01*
X161005000Y-106600000D02*
X160522600Y-106600000D01*
X160250000Y-99550000D02*
X160473514Y-99326486D01*
X160473514Y-99326486D02*
X160473514Y-98780578D01*
X160770694Y-98483398D02*
X163362426Y-98483398D01*
X163362426Y-98483398D02*
X164200000Y-97645824D01*
X164200000Y-97645824D02*
X164200000Y-97400000D01*
X160250000Y-106327400D02*
X160250000Y-99550000D01*
X160473514Y-98780578D02*
X160770694Y-98483398D01*
X161190316Y-106624000D02*
X161540316Y-106624000D01*
X161540316Y-106624000D02*
X162460992Y-105841578D01*
X162460992Y-105841578D02*
X162749830Y-105946114D01*
X162749830Y-105946114D02*
X163335170Y-106128721D01*
X161190316Y-107024000D02*
X161540316Y-107024000D01*
X161540316Y-107024000D02*
X162406505Y-106287883D01*
X162406505Y-106287883D02*
X162579214Y-106491109D01*
X161190316Y-107424000D02*
X161540316Y-107424000D01*
X161540316Y-107424000D02*
X162119760Y-106931569D01*
X162119760Y-106931569D02*
X162408598Y-107036104D01*
X162408598Y-107036104D02*
X162993938Y-107218712D01*
X161190316Y-107824000D02*
X161540316Y-107824000D01*
X161540316Y-107824000D02*
X162065274Y-107377873D01*
X162065274Y-107377873D02*
X162237982Y-107581100D01*
X161190316Y-108176401D02*
X161540316Y-108176401D01*
X161540316Y-108176401D02*
X162065274Y-108622527D01*
X162065274Y-108622527D02*
X162237982Y-108419301D01*
X161190316Y-108576401D02*
X161540316Y-108576401D01*
X161540316Y-108576401D02*
X162119760Y-109068832D01*
X162119760Y-109068832D02*
X162408598Y-108964297D01*
X162408598Y-108964297D02*
X162993938Y-108781689D01*
X161190316Y-108976401D02*
X161540316Y-108976401D01*
X161540316Y-108976401D02*
X162406505Y-109712518D01*
X162406505Y-109712518D02*
X162579214Y-109509292D01*
X161190316Y-109376401D02*
X161540316Y-109376401D01*
X161540316Y-109376401D02*
X162460992Y-110158823D01*
X162460992Y-110158823D02*
X162749830Y-110054287D01*
X162749830Y-110054287D02*
X163335170Y-109871680D01*
X163750000Y-95382589D02*
X163780023Y-95352566D01*
X163780023Y-95352566D02*
X164264956Y-95352566D01*
X163750000Y-95450000D02*
X163750000Y-95382589D01*
X160500000Y-95450000D02*
X160050000Y-95900000D01*
X160050000Y-95900000D02*
X158150000Y-95900000D01*
X160500000Y-95450000D02*
X159497600Y-95450000D01*
X159497600Y-95450000D02*
X158712500Y-94664900D01*
X158712500Y-94664900D02*
X158712500Y-94362500D01*
X157300000Y-95000000D02*
X158377400Y-95000000D01*
X158377400Y-95000000D02*
X158712500Y-94664900D01*
X157300000Y-95000000D02*
X157300000Y-95050000D01*
X157300000Y-95050000D02*
X158150000Y-95900000D01*
X158808467Y-105400000D02*
X159300000Y-104908467D01*
X158295000Y-105400000D02*
X158808467Y-105400000D01*
X160228028Y-93749372D02*
X159927400Y-94050000D01*
X159589348Y-98950000D02*
X159589348Y-98548519D01*
X161003448Y-93749372D02*
X160228028Y-93749372D01*
X161376312Y-97163035D02*
X161376312Y-94122236D01*
X161376312Y-94122236D02*
X161003448Y-93749372D01*
X160748967Y-97790380D02*
X161376312Y-97163035D01*
X159589348Y-98548519D02*
X160347487Y-97790380D01*
X160347487Y-97790380D02*
X160748967Y-97790380D01*
X159589348Y-98639348D02*
X159100000Y-98150000D01*
X159300000Y-99239348D02*
X159589348Y-98950000D01*
X159589348Y-98950000D02*
X159589348Y-98639348D01*
X159300000Y-104908467D02*
X159300000Y-99239348D01*
X159950000Y-94027400D02*
X159927400Y-94050000D01*
X159950000Y-93400000D02*
X159950000Y-94027400D01*
X159927400Y-94050000D02*
X159239900Y-93362500D01*
X159239900Y-93362500D02*
X158712500Y-93362500D01*
X154400000Y-92950000D02*
X154500000Y-92950000D01*
X153600000Y-93750000D02*
X154400000Y-92950000D01*
X154350000Y-92105314D02*
X154325068Y-92130246D01*
X154350000Y-91200000D02*
X154350000Y-92105314D01*
X157300000Y-97100000D02*
X160117136Y-97100000D01*
X160117136Y-97100000D02*
X160303087Y-96914049D01*
X156250000Y-96050000D02*
X156250000Y-95900000D01*
X157300000Y-97100000D02*
X156250000Y-96050000D01*
X156750000Y-92200000D02*
X156475000Y-92200000D01*
X156475000Y-92200000D02*
X155812500Y-92862500D01*
X156250000Y-95900000D02*
X156025000Y-95900000D01*
X155025000Y-94900000D02*
X154650000Y-94900000D01*
X156025000Y-95900000D02*
X155025000Y-94900000D01*
X158110316Y-106224000D02*
X157760316Y-106224000D01*
X157760316Y-106224000D02*
X156552895Y-105197892D01*
X156552895Y-105197892D02*
X156380187Y-105401118D01*
X158295000Y-105000000D02*
X158777400Y-105000000D01*
X158777400Y-105000000D02*
X158950000Y-104827400D01*
X161071501Y-97036738D02*
X161071501Y-95175679D01*
X158528498Y-98474322D02*
X158528498Y-97875678D01*
X161071501Y-95175679D02*
X160745822Y-94850000D01*
X160745822Y-94850000D02*
X160227400Y-94850000D01*
X160622670Y-97485569D02*
X161071501Y-97036738D01*
X158950000Y-104827400D02*
X158950000Y-98895824D01*
X158528498Y-97875678D02*
X158918607Y-97485569D01*
X158918607Y-97485569D02*
X160622670Y-97485569D01*
X158950000Y-98895824D02*
X158528498Y-98474322D01*
X160227400Y-94850000D02*
X160227400Y-94822600D01*
X160227400Y-94822600D02*
X160386227Y-94663773D01*
X160386227Y-94663773D02*
X160729126Y-94320874D01*
X160227400Y-94850000D02*
X159239900Y-93862500D01*
X159239900Y-93862500D02*
X158712500Y-93862500D01*
X156400000Y-91200000D02*
X156550000Y-91200000D01*
X155812500Y-93362500D02*
X155285100Y-93362500D01*
X155208899Y-93286299D02*
X155208899Y-92391101D01*
X155208899Y-92391101D02*
X156400000Y-91200000D01*
X155285100Y-93362500D02*
X155208899Y-93286299D01*
X156550000Y-91200000D02*
X158500000Y-91200000D01*
X158500000Y-91200000D02*
X158550000Y-91250000D01*
X158110316Y-107424000D02*
X157760316Y-107424000D01*
X157760316Y-107424000D02*
X157180872Y-106931569D01*
X157180872Y-106931569D02*
X156892034Y-107036104D01*
X156892034Y-107036104D02*
X156306694Y-107218712D01*
X158110316Y-107824000D02*
X157760316Y-107824000D01*
X157760316Y-107824000D02*
X157235359Y-107377873D01*
X157235359Y-107377873D02*
X157062650Y-107581100D01*
X158110316Y-108176401D02*
X157760316Y-108176401D01*
X157760316Y-108176401D02*
X157235359Y-108622527D01*
X157235359Y-108622527D02*
X157062650Y-108419301D01*
X158110316Y-108576401D02*
X157760316Y-108576401D01*
X157760316Y-108576401D02*
X157180872Y-109068832D01*
X157180872Y-109068832D02*
X156892034Y-108964297D01*
X156892034Y-108964297D02*
X156306694Y-108781689D01*
X158110316Y-108976401D02*
X157760316Y-108976401D01*
X157760316Y-108976401D02*
X156894127Y-109712518D01*
X156894127Y-109712518D02*
X156721418Y-109509292D01*
X158110316Y-109376401D02*
X157760316Y-109376401D01*
X157760316Y-109376401D02*
X156839640Y-110158823D01*
X156839640Y-110158823D02*
X156550802Y-110054287D01*
X156550802Y-110054287D02*
X155965462Y-109871680D01*
X145007101Y-118717899D02*
X145350000Y-118375000D01*
X140585000Y-124450000D02*
X140585000Y-123140000D01*
X140585000Y-123140000D02*
X145007101Y-118717899D01*
X157431588Y-116759137D02*
X157776314Y-117103863D01*
X157431588Y-115767261D02*
X157431588Y-116759137D01*
X156874173Y-118619997D02*
X156675678Y-118421502D01*
X157776314Y-118304863D02*
X157461180Y-118619997D01*
X157776314Y-117103863D02*
X157776314Y-118304863D01*
X157822449Y-115376401D02*
X157431588Y-115767261D01*
X157461180Y-118619997D02*
X156874173Y-118619997D01*
X158110316Y-115376401D02*
X157822449Y-115376401D01*
X154292899Y-118092899D02*
X153950000Y-117750000D01*
X156675678Y-118421502D02*
X154621502Y-118421502D01*
X154621502Y-118421502D02*
X154292899Y-118092899D01*
X154514437Y-119119126D02*
X154171538Y-118776227D01*
X157736399Y-116632881D02*
X158081125Y-116977607D01*
X158081125Y-116977607D02*
X158081125Y-118431119D01*
X157736399Y-115917119D02*
X157736399Y-116632881D01*
X158081125Y-118431119D02*
X157393118Y-119119126D01*
X158255617Y-115800200D02*
X157853318Y-115800200D01*
X157853318Y-115800200D02*
X157736399Y-115917119D01*
X157393118Y-119119126D02*
X154514437Y-119119126D01*
X158295000Y-116200000D02*
X158295000Y-115800000D01*
X161000000Y-117010000D02*
X161000000Y-116205000D01*
X161000000Y-116205000D02*
X161005000Y-116200000D01*
X161005000Y-115800000D02*
X161005000Y-116200000D01*
X161005000Y-99800000D02*
X161005000Y-100200000D01*
X161045015Y-99054899D02*
X161045015Y-99759985D01*
X161045015Y-99759985D02*
X161005000Y-99800000D01*
X158295000Y-99800000D02*
X158295000Y-100200000D01*
X158255617Y-99054899D02*
X158255617Y-99760617D01*
X158255617Y-99760617D02*
X158295000Y-99800000D01*
X161190316Y-115376401D02*
X161540316Y-115376401D01*
X161540316Y-115376401D02*
X162208326Y-115944098D01*
X162208326Y-115944098D02*
X162035617Y-116147324D01*
X161190316Y-114976401D02*
X161540316Y-114976401D01*
X161540316Y-114976401D02*
X162657575Y-115925886D01*
X162657575Y-115925886D02*
X162600996Y-116227803D01*
X162600996Y-116227803D02*
X162511810Y-116834445D01*
X161190316Y-114576401D02*
X161540316Y-114576401D01*
X161540316Y-114576401D02*
X163339083Y-116105055D01*
X163339083Y-116105055D02*
X163166374Y-116308281D01*
X161190316Y-114176401D02*
X161540316Y-114176401D01*
X161540316Y-114176401D02*
X163788332Y-116086842D01*
X163788332Y-116086842D02*
X163731753Y-116388759D01*
X163731753Y-116388759D02*
X163642567Y-116995401D01*
X161190316Y-113776401D02*
X161540316Y-113776401D01*
X161540316Y-113776401D02*
X164453897Y-116252462D01*
X164453897Y-116252462D02*
X164626605Y-116049236D01*
X161190316Y-113376401D02*
X161540316Y-113376401D01*
X161540316Y-113376401D02*
X164167151Y-115608776D01*
X164167151Y-115608776D02*
X164455989Y-115504240D01*
X164455989Y-115504240D02*
X165041329Y-115321633D01*
X161190316Y-112976401D02*
X161540316Y-112976401D01*
X161540316Y-112976401D02*
X164112665Y-115162471D01*
X164112665Y-115162471D02*
X164285373Y-114959245D01*
X161190316Y-112576401D02*
X161540316Y-112576401D01*
X161540316Y-112576401D02*
X163825920Y-114518785D01*
X163825920Y-114518785D02*
X164114757Y-114414250D01*
X164114757Y-114414250D02*
X164700097Y-114231642D01*
X161190316Y-112176401D02*
X161540316Y-112176401D01*
X161540316Y-112176401D02*
X163771433Y-114072481D01*
X163771433Y-114072481D02*
X163944142Y-113869254D01*
X161190316Y-111776401D02*
X161540316Y-111776401D01*
X161540316Y-111776401D02*
X163484688Y-113428795D01*
X163484688Y-113428795D02*
X163773526Y-113324259D01*
X163773526Y-113324259D02*
X164358866Y-113141651D01*
X161190316Y-111376401D02*
X161540316Y-111376401D01*
X161540316Y-111376401D02*
X163430201Y-112982490D01*
X163430201Y-112982490D02*
X163602910Y-112779264D01*
X161190316Y-110976401D02*
X161540316Y-110976401D01*
X161540316Y-110976401D02*
X163143456Y-112338804D01*
X163143456Y-112338804D02*
X163432294Y-112234268D01*
X163432294Y-112234268D02*
X164017634Y-112051661D01*
X161190316Y-110576401D02*
X161540316Y-110576401D01*
X161540316Y-110576401D02*
X163088969Y-111892499D01*
X163088969Y-111892499D02*
X163261678Y-111689273D01*
X161190316Y-110176401D02*
X161540316Y-110176401D01*
X161540316Y-110176401D02*
X162802224Y-111248813D01*
X162802224Y-111248813D02*
X163091062Y-111144278D01*
X163091062Y-111144278D02*
X163676402Y-110961670D01*
X161190316Y-109776401D02*
X161540316Y-109776401D01*
X161540316Y-109776401D02*
X162747737Y-110802509D01*
X162747737Y-110802509D02*
X162920446Y-110599282D01*
X161190316Y-106224000D02*
X161540316Y-106224000D01*
X161540316Y-106224000D02*
X162747737Y-105197892D01*
X162747737Y-105197892D02*
X162920446Y-105401118D01*
X161190316Y-105824000D02*
X161540316Y-105824000D01*
X161540316Y-105824000D02*
X162802224Y-104751587D01*
X162802224Y-104751587D02*
X163091062Y-104856123D01*
X163091062Y-104856123D02*
X163676402Y-105038731D01*
X161190316Y-105424000D02*
X161540316Y-105424000D01*
X161540316Y-105424000D02*
X163088969Y-104107901D01*
X163088969Y-104107901D02*
X163261678Y-104311128D01*
X161190316Y-105024000D02*
X161540316Y-105024000D01*
X161540316Y-105024000D02*
X163143456Y-103661597D01*
X163143456Y-103661597D02*
X163432294Y-103766132D01*
X163432294Y-103766132D02*
X164017634Y-103948740D01*
X161190316Y-104624000D02*
X161540316Y-104624000D01*
X161540316Y-104624000D02*
X163430201Y-103017911D01*
X163430201Y-103017911D02*
X163602910Y-103221137D01*
X161190316Y-104224000D02*
X161540316Y-104224000D01*
X161540316Y-104224000D02*
X163484688Y-102571606D01*
X163484688Y-102571606D02*
X163773526Y-102676142D01*
X163773526Y-102676142D02*
X164358866Y-102858749D01*
X161190316Y-103824000D02*
X161540316Y-103824000D01*
X161540316Y-103824000D02*
X163771433Y-101927920D01*
X163771433Y-101927920D02*
X163944142Y-102131146D01*
X161190316Y-103424000D02*
X161540316Y-103424000D01*
X161540316Y-103424000D02*
X163825920Y-101481616D01*
X163825920Y-101481616D02*
X164114757Y-101586151D01*
X164114757Y-101586151D02*
X164700097Y-101768759D01*
X161190316Y-103024000D02*
X161540316Y-103024000D01*
X161540316Y-103024000D02*
X164112665Y-100837930D01*
X164112665Y-100837930D02*
X164285373Y-101041156D01*
X161190316Y-102624000D02*
X161540316Y-102624000D01*
X161540316Y-102624000D02*
X164167151Y-100391625D01*
X164167151Y-100391625D02*
X164455989Y-100496161D01*
X164455989Y-100496161D02*
X165041329Y-100678768D01*
X161190316Y-102224000D02*
X161540316Y-102224000D01*
X161540316Y-102224000D02*
X164453897Y-99747939D01*
X164453897Y-99747939D02*
X164626605Y-99951165D01*
X161190316Y-101824000D02*
X161540316Y-101824000D01*
X161540316Y-101824000D02*
X163788332Y-99913558D01*
X163788332Y-99913558D02*
X163731753Y-99611642D01*
X163731753Y-99611642D02*
X163642567Y-99005000D01*
X161190316Y-101424000D02*
X161540316Y-101424000D01*
X161540316Y-101424000D02*
X163339083Y-99895346D01*
X163339083Y-99895346D02*
X163166374Y-99692120D01*
X161190316Y-101024000D02*
X161540316Y-101024000D01*
X161540316Y-101024000D02*
X162657575Y-100074515D01*
X162657575Y-100074515D02*
X162600996Y-99772598D01*
X162600996Y-99772598D02*
X162511810Y-99165956D01*
X161190316Y-100624000D02*
X161540316Y-100624000D01*
X161540316Y-100624000D02*
X162208326Y-100056303D01*
X162208326Y-100056303D02*
X162035617Y-99853076D01*
X158110316Y-100624000D02*
X157760316Y-100624000D01*
X157760316Y-100624000D02*
X157092307Y-100056303D01*
X157092307Y-100056303D02*
X157265015Y-99853076D01*
X158110316Y-101024000D02*
X157760316Y-101024000D01*
X157760316Y-101024000D02*
X156643057Y-100074515D01*
X156643057Y-100074515D02*
X156699637Y-99772598D01*
X156699637Y-99772598D02*
X156788823Y-99165956D01*
X158110316Y-101424000D02*
X157760316Y-101424000D01*
X157760316Y-101424000D02*
X155961549Y-99895346D01*
X155961549Y-99895346D02*
X156134258Y-99692120D01*
X158110316Y-101824000D02*
X157760316Y-101824000D01*
X157760316Y-101824000D02*
X155512300Y-99913558D01*
X155512300Y-99913558D02*
X155568880Y-99611642D01*
X155568880Y-99611642D02*
X155658066Y-99005000D01*
X158110316Y-102224000D02*
X157760316Y-102224000D01*
X157760316Y-102224000D02*
X154846736Y-99747939D01*
X154846736Y-99747939D02*
X154674027Y-99951165D01*
X158110316Y-102624000D02*
X157760316Y-102624000D01*
X157760316Y-102624000D02*
X155133481Y-100391625D01*
X155133481Y-100391625D02*
X154844643Y-100496161D01*
X154844643Y-100496161D02*
X154259303Y-100678768D01*
X158110316Y-103024000D02*
X157760316Y-103024000D01*
X157760316Y-103024000D02*
X155187968Y-100837930D01*
X155187968Y-100837930D02*
X155015259Y-101041156D01*
X158110316Y-103424000D02*
X157760316Y-103424000D01*
X157760316Y-103424000D02*
X155474713Y-101481616D01*
X155474713Y-101481616D02*
X155185875Y-101586151D01*
X155185875Y-101586151D02*
X154600535Y-101768759D01*
X158110316Y-103824000D02*
X157760316Y-103824000D01*
X157760316Y-103824000D02*
X155529200Y-101927920D01*
X155529200Y-101927920D02*
X155356491Y-102131146D01*
X153650000Y-101664047D02*
X154501803Y-102515850D01*
X155251098Y-94328498D02*
X154375678Y-94328498D01*
X154598868Y-102515850D02*
X154941767Y-102858749D01*
X155285100Y-94362500D02*
X155251098Y-94328498D01*
X154375678Y-94328498D02*
X153650000Y-95054176D01*
X153650000Y-95054176D02*
X153650000Y-101664047D01*
X154501803Y-102515850D02*
X154598868Y-102515850D01*
X155812500Y-94362500D02*
X155285100Y-94362500D01*
X155527107Y-102676142D02*
X154941767Y-102858749D01*
X155815945Y-102571606D02*
X155527107Y-102676142D01*
X157760316Y-104224000D02*
X155815945Y-102571606D01*
X158110316Y-104224000D02*
X157760316Y-104224000D01*
X153345189Y-102107994D02*
X154801231Y-103564036D01*
X153345189Y-94927920D02*
X153345189Y-102107994D01*
X155812500Y-93862500D02*
X154410609Y-93862500D01*
X154410609Y-93862500D02*
X153345189Y-94927920D01*
X154801231Y-103564036D02*
X155354824Y-103564036D01*
X155354824Y-103564036D02*
X155697723Y-103221137D01*
X158110316Y-104624000D02*
X157760316Y-104624000D01*
X157760316Y-104624000D02*
X155870431Y-103017911D01*
X155870431Y-103017911D02*
X155697723Y-103221137D01*
X158110316Y-106624000D02*
X157760316Y-106624000D01*
X157760316Y-106624000D02*
X156839640Y-105841578D01*
X156839640Y-105841578D02*
X156550802Y-105946114D01*
X156550802Y-105946114D02*
X155965462Y-106128721D01*
X158110316Y-107024000D02*
X157760316Y-107024000D01*
X157760316Y-107024000D02*
X156894127Y-106287883D01*
X156894127Y-106287883D02*
X156721418Y-106491109D01*
X158110316Y-109776401D02*
X157760316Y-109776401D01*
X157760316Y-109776401D02*
X156552895Y-110802509D01*
X156552895Y-110802509D02*
X156380187Y-110599282D01*
X158110316Y-110176401D02*
X157760316Y-110176401D01*
X157760316Y-110176401D02*
X156498409Y-111248813D01*
X156498409Y-111248813D02*
X156209571Y-111144278D01*
X156209571Y-111144278D02*
X155624231Y-110961670D01*
X158110316Y-110576401D02*
X157760316Y-110576401D01*
X157760316Y-110576401D02*
X156211663Y-111892499D01*
X156211663Y-111892499D02*
X156038955Y-111689273D01*
X158110316Y-110976401D02*
X157760316Y-110976401D01*
X157760316Y-110976401D02*
X156157177Y-112338804D01*
X156157177Y-112338804D02*
X155868339Y-112234268D01*
X155868339Y-112234268D02*
X155282999Y-112051661D01*
X158110316Y-111376401D02*
X157760316Y-111376401D01*
X157760316Y-111376401D02*
X155870431Y-112982490D01*
X155870431Y-112982490D02*
X155697723Y-112779264D01*
X158110316Y-111776401D02*
X157760316Y-111776401D01*
X157760316Y-111776401D02*
X155815945Y-113428795D01*
X155815945Y-113428795D02*
X155527107Y-113324259D01*
X155527107Y-113324259D02*
X154941767Y-113141651D01*
X158110316Y-112176401D02*
X157760316Y-112176401D01*
X157760316Y-112176401D02*
X155529200Y-114072481D01*
X155529200Y-114072481D02*
X155356491Y-113869254D01*
X158110316Y-112576401D02*
X157760316Y-112576401D01*
X157760316Y-112576401D02*
X155474713Y-114518785D01*
X155474713Y-114518785D02*
X155185875Y-114414250D01*
X155185875Y-114414250D02*
X154600535Y-114231642D01*
X158110316Y-112976401D02*
X157760316Y-112976401D01*
X157760316Y-112976401D02*
X155187968Y-115162471D01*
X155187968Y-115162471D02*
X155015259Y-114959245D01*
X158110316Y-113376401D02*
X157760316Y-113376401D01*
X157760316Y-113376401D02*
X155133481Y-115608776D01*
X155133481Y-115608776D02*
X154844643Y-115504240D01*
X154844643Y-115504240D02*
X154259303Y-115321633D01*
X158110316Y-113776401D02*
X157760316Y-113776401D01*
X157760316Y-113776401D02*
X154846736Y-116252462D01*
X154846736Y-116252462D02*
X154674027Y-116049236D01*
X155857101Y-117407101D02*
X156200000Y-117750000D01*
X155512300Y-116086842D02*
X155512300Y-117062300D01*
X158110316Y-114176401D02*
X157760316Y-114176401D01*
X157760316Y-114176401D02*
X155512300Y-116086842D01*
X155512300Y-117062300D02*
X155857101Y-117407101D01*
X158110316Y-114576401D02*
X157760316Y-114576401D01*
X156563479Y-116497051D02*
X156563479Y-116981984D01*
X156563479Y-115773238D02*
X156563479Y-116497051D01*
X157760316Y-114576401D02*
X156563479Y-115773238D01*
X157186858Y-117563562D02*
X157186858Y-118048495D01*
X157791382Y-114976401D02*
X157126777Y-115641005D01*
X158110316Y-114976401D02*
X157791382Y-114976401D01*
X157126777Y-115641005D02*
X157126777Y-116885393D01*
X157126777Y-116885393D02*
X157186858Y-116945474D01*
X157186858Y-116945474D02*
X157186858Y-117563562D01*
G36*
X157624618Y-90630511D02*
X157556897Y-90793600D01*
X157486669Y-90793600D01*
X157486669Y-90750000D01*
X157463644Y-90627635D01*
X157391327Y-90515251D01*
X157280983Y-90439856D01*
X157150000Y-90413331D01*
X155950000Y-90413331D01*
X155827635Y-90436356D01*
X155715251Y-90508673D01*
X155639856Y-90619017D01*
X155613331Y-90750000D01*
X155613331Y-91411933D01*
X155264172Y-91761092D01*
X155286669Y-91650000D01*
X155286669Y-90750000D01*
X155263644Y-90627635D01*
X155191327Y-90515251D01*
X155080983Y-90439856D01*
X154950000Y-90413331D01*
X153750000Y-90413331D01*
X153627635Y-90436356D01*
X153515251Y-90508673D01*
X153439856Y-90619017D01*
X153413331Y-90750000D01*
X153413331Y-91650000D01*
X153436356Y-91772365D01*
X153508673Y-91884749D01*
X153619017Y-91960144D01*
X153663166Y-91969085D01*
X153652085Y-91995771D01*
X153651851Y-92263547D01*
X153754109Y-92511029D01*
X153894894Y-92652059D01*
X153827017Y-92815525D01*
X153826901Y-92948363D01*
X153698279Y-93076985D01*
X153466699Y-93076783D01*
X153219217Y-93179041D01*
X153029706Y-93368222D01*
X152927017Y-93615525D01*
X152926783Y-93883301D01*
X153029041Y-94130783D01*
X153218222Y-94320294D01*
X153331176Y-94367197D01*
X153057821Y-94640552D01*
X152969724Y-94772397D01*
X152938789Y-94927920D01*
X152938789Y-102107994D01*
X152969724Y-102263517D01*
X153030195Y-102354017D01*
X153057821Y-102395362D01*
X154513863Y-103851404D01*
X154645708Y-103939501D01*
X154801231Y-103970436D01*
X155354824Y-103970436D01*
X155510347Y-103939501D01*
X155578244Y-103894133D01*
X155831024Y-103894354D01*
X156078506Y-103792096D01*
X156113149Y-103757513D01*
X157497142Y-104933678D01*
X157552302Y-104964391D01*
X157604793Y-104999465D01*
X157621129Y-105002714D01*
X157628331Y-105006724D01*
X157628331Y-105115000D01*
X157644912Y-105203120D01*
X157628331Y-105285000D01*
X157628331Y-105515000D01*
X157642555Y-105590590D01*
X156837080Y-104906070D01*
X156761965Y-104830824D01*
X156514662Y-104728135D01*
X156246886Y-104727901D01*
X155999404Y-104830159D01*
X155809893Y-105019340D01*
X155707204Y-105266643D01*
X155706994Y-105507222D01*
X155584679Y-105557762D01*
X155395168Y-105746943D01*
X155292479Y-105994246D01*
X155292245Y-106262022D01*
X155394503Y-106509504D01*
X155583684Y-106699015D01*
X155789110Y-106784315D01*
X155736400Y-106836934D01*
X155633711Y-107084237D01*
X155633477Y-107352013D01*
X155735735Y-107599495D01*
X155924916Y-107789006D01*
X156172219Y-107891695D01*
X156439995Y-107891929D01*
X156459463Y-107883885D01*
X156491691Y-107961883D01*
X156529843Y-108000101D01*
X156492356Y-108037523D01*
X156459617Y-108116366D01*
X156441169Y-108108706D01*
X156173393Y-108108472D01*
X155925911Y-108210730D01*
X155736400Y-108399911D01*
X155633711Y-108647214D01*
X155633477Y-108914990D01*
X155735735Y-109162472D01*
X155789330Y-109216160D01*
X155584679Y-109300721D01*
X155395168Y-109489902D01*
X155292479Y-109737205D01*
X155292245Y-110004981D01*
X155394503Y-110252463D01*
X155448098Y-110306151D01*
X155243448Y-110390711D01*
X155053937Y-110579892D01*
X154951248Y-110827195D01*
X154951014Y-111094971D01*
X155053272Y-111342453D01*
X155106867Y-111396141D01*
X154902216Y-111480702D01*
X154712705Y-111669883D01*
X154610016Y-111917186D01*
X154609782Y-112184962D01*
X154712040Y-112432444D01*
X154765634Y-112486132D01*
X154560984Y-112570692D01*
X154371473Y-112759873D01*
X154268784Y-113007176D01*
X154268550Y-113274952D01*
X154370808Y-113522434D01*
X154424403Y-113576122D01*
X154219752Y-113660683D01*
X154030241Y-113849864D01*
X153927552Y-114097167D01*
X153927318Y-114364943D01*
X154029576Y-114612425D01*
X154083171Y-114666113D01*
X153878520Y-114750674D01*
X153689009Y-114939855D01*
X153586320Y-115187158D01*
X153586086Y-115454934D01*
X153688344Y-115702416D01*
X153877525Y-115891927D01*
X154001019Y-115943206D01*
X154000810Y-116182537D01*
X154103068Y-116430019D01*
X154292249Y-116619530D01*
X154539552Y-116722219D01*
X154807328Y-116722453D01*
X155054810Y-116620195D01*
X155105900Y-116569194D01*
X155105900Y-117062300D01*
X155136835Y-117217823D01*
X155220017Y-117342312D01*
X155224932Y-117349668D01*
X155526985Y-117651721D01*
X155526783Y-117883301D01*
X155581242Y-118015102D01*
X154789838Y-118015102D01*
X154623015Y-117848279D01*
X154623217Y-117616699D01*
X154520959Y-117369217D01*
X154331778Y-117179706D01*
X154084475Y-117077017D01*
X153816699Y-117076783D01*
X153569217Y-117179041D01*
X153379706Y-117368222D01*
X153277017Y-117615525D01*
X153276783Y-117883301D01*
X153379041Y-118130783D01*
X153568222Y-118320294D01*
X153644005Y-118351762D01*
X153601244Y-118394449D01*
X153498555Y-118641752D01*
X153498321Y-118909528D01*
X153600579Y-119157010D01*
X153789760Y-119346521D01*
X154037063Y-119449210D01*
X154291330Y-119449432D01*
X154358914Y-119494591D01*
X154514437Y-119525526D01*
X157393118Y-119525526D01*
X157548641Y-119494591D01*
X157680486Y-119406494D01*
X158368493Y-118718487D01*
X158372521Y-118712459D01*
X158456590Y-118586642D01*
X158487525Y-118431119D01*
X158487525Y-116977607D01*
X158456590Y-116822084D01*
X158432926Y-116786669D01*
X158625000Y-116786669D01*
X158747365Y-116763644D01*
X158859749Y-116691327D01*
X158935144Y-116580983D01*
X158961669Y-116450000D01*
X158961669Y-116100000D01*
X158943625Y-116004105D01*
X158961669Y-115915000D01*
X158961669Y-115685000D01*
X158945088Y-115596880D01*
X158961669Y-115515000D01*
X158961669Y-115285000D01*
X158945088Y-115196880D01*
X158961669Y-115115000D01*
X158961669Y-114885000D01*
X158945088Y-114796880D01*
X158961669Y-114715000D01*
X158961669Y-114485000D01*
X158945088Y-114396880D01*
X158961669Y-114315000D01*
X158961669Y-114085000D01*
X158945088Y-113996880D01*
X158961669Y-113915000D01*
X158961669Y-113685000D01*
X158945088Y-113596880D01*
X158961669Y-113515000D01*
X158961669Y-113285000D01*
X158945088Y-113196880D01*
X158961669Y-113115000D01*
X158961669Y-112885000D01*
X158945088Y-112796880D01*
X158961669Y-112715000D01*
X158961669Y-112485000D01*
X158945088Y-112396880D01*
X158961669Y-112315000D01*
X158961669Y-112085000D01*
X158945088Y-111996880D01*
X158961669Y-111915000D01*
X158961669Y-111685000D01*
X158945088Y-111596880D01*
X158961669Y-111515000D01*
X158961669Y-111285000D01*
X158945088Y-111196880D01*
X158961669Y-111115000D01*
X158961669Y-110885000D01*
X158945088Y-110796880D01*
X158961669Y-110715000D01*
X158961669Y-110485000D01*
X158945088Y-110396880D01*
X158961669Y-110315000D01*
X158961669Y-110085000D01*
X158945088Y-109996880D01*
X158961669Y-109915000D01*
X158961669Y-109685000D01*
X158945088Y-109596880D01*
X158961669Y-109515000D01*
X158961669Y-109285000D01*
X158945088Y-109196880D01*
X158961669Y-109115000D01*
X158961669Y-108885000D01*
X158945088Y-108796880D01*
X158961669Y-108715000D01*
X158961669Y-108485000D01*
X158945088Y-108396880D01*
X158961669Y-108315000D01*
X158961669Y-108085000D01*
X158945088Y-107996880D01*
X158961669Y-107915000D01*
X158961669Y-107685000D01*
X158945088Y-107596880D01*
X158961669Y-107515000D01*
X158961669Y-107285000D01*
X158945088Y-107196880D01*
X158961669Y-107115000D01*
X158961669Y-106885000D01*
X158945088Y-106796880D01*
X158961669Y-106715000D01*
X158961669Y-106485000D01*
X158945088Y-106396880D01*
X158961669Y-106315000D01*
X158961669Y-106206400D01*
X159531067Y-106206400D01*
X159686590Y-106175465D01*
X159818435Y-106087368D01*
X160232557Y-105673246D01*
X160251780Y-105644477D01*
X160320654Y-105541401D01*
X160338331Y-105452531D01*
X160338331Y-105515000D01*
X160354912Y-105603120D01*
X160338331Y-105685000D01*
X160338331Y-105915000D01*
X160351793Y-105986543D01*
X160344077Y-105989739D01*
X160179739Y-106154078D01*
X160090800Y-106368796D01*
X160090800Y-106396450D01*
X160214083Y-106519733D01*
X160179739Y-106554078D01*
X160090800Y-106768796D01*
X160090800Y-106796450D01*
X160094350Y-106800000D01*
X160090800Y-106803550D01*
X160090800Y-106831204D01*
X160160718Y-107000000D01*
X160090800Y-107168796D01*
X160090800Y-107196450D01*
X160094350Y-107200000D01*
X160090800Y-107203550D01*
X160090800Y-107231204D01*
X160160718Y-107400000D01*
X160090800Y-107568796D01*
X160090800Y-107596450D01*
X160094350Y-107600000D01*
X160090800Y-107603550D01*
X160090800Y-107631204D01*
X160160718Y-107800000D01*
X160090800Y-107968796D01*
X160090800Y-107996450D01*
X160094350Y-108000000D01*
X160090800Y-108003550D01*
X160090800Y-108031204D01*
X160160718Y-108200000D01*
X160090800Y-108368796D01*
X160090800Y-108396450D01*
X160094350Y-108400000D01*
X160090800Y-108403550D01*
X160090800Y-108431204D01*
X160160718Y-108600000D01*
X160090800Y-108768796D01*
X160090800Y-108796450D01*
X160094350Y-108800000D01*
X160090800Y-108803550D01*
X160090800Y-108831204D01*
X160160718Y-109000000D01*
X160090800Y-109168796D01*
X160090800Y-109196450D01*
X160094350Y-109200000D01*
X160090800Y-109203550D01*
X160090800Y-109231204D01*
X160179739Y-109445922D01*
X160214083Y-109480267D01*
X160090800Y-109603550D01*
X160090800Y-109631204D01*
X160179739Y-109845922D01*
X160344077Y-110010261D01*
X160352740Y-110013849D01*
X160338331Y-110085000D01*
X160338331Y-110315000D01*
X160354912Y-110403120D01*
X160338331Y-110485000D01*
X160338331Y-110715000D01*
X160354912Y-110803120D01*
X160338331Y-110885000D01*
X160338331Y-111115000D01*
X160354912Y-111203120D01*
X160338331Y-111285000D01*
X160338331Y-111515000D01*
X160354912Y-111603120D01*
X160338331Y-111685000D01*
X160338331Y-111915000D01*
X160354912Y-112003120D01*
X160338331Y-112085000D01*
X160338331Y-112315000D01*
X160354912Y-112403120D01*
X160338331Y-112485000D01*
X160338331Y-112715000D01*
X160354912Y-112803120D01*
X160338331Y-112885000D01*
X160338331Y-113115000D01*
X160354912Y-113203120D01*
X160338331Y-113285000D01*
X160338331Y-113515000D01*
X160354912Y-113603120D01*
X160338331Y-113685000D01*
X160338331Y-113915000D01*
X160354912Y-114003120D01*
X160338331Y-114085000D01*
X160338331Y-114315000D01*
X160354912Y-114403120D01*
X160338331Y-114485000D01*
X160338331Y-114715000D01*
X160354912Y-114803120D01*
X160338331Y-114885000D01*
X160338331Y-115115000D01*
X160354912Y-115203120D01*
X160338331Y-115285000D01*
X160338331Y-115515000D01*
X160354912Y-115603120D01*
X160338331Y-115685000D01*
X160338331Y-115915000D01*
X160356375Y-116010895D01*
X160338331Y-116100000D01*
X160338331Y-116450000D01*
X160361356Y-116572365D01*
X160416996Y-116658832D01*
X160327017Y-116875525D01*
X160326783Y-117143301D01*
X160429041Y-117390783D01*
X160618222Y-117580294D01*
X160865525Y-117682983D01*
X161133301Y-117683217D01*
X161380783Y-117580959D01*
X161570294Y-117391778D01*
X161672983Y-117144475D01*
X161673217Y-116876699D01*
X161586495Y-116666818D01*
X161593254Y-116656927D01*
X161653839Y-116717618D01*
X161838744Y-116794397D01*
X161838593Y-116967746D01*
X161940851Y-117215228D01*
X162130032Y-117404739D01*
X162377335Y-117507428D01*
X162645111Y-117507662D01*
X162892593Y-117405404D01*
X163027879Y-117270353D01*
X163071608Y-117376184D01*
X163260789Y-117565695D01*
X163508092Y-117668384D01*
X163775868Y-117668618D01*
X164023350Y-117566360D01*
X164212861Y-117377179D01*
X164315550Y-117129876D01*
X164315784Y-116862100D01*
X164213526Y-116614618D01*
X164122694Y-116523627D01*
X164125216Y-116506470D01*
X164169713Y-116544285D01*
X164244827Y-116619530D01*
X164492130Y-116722219D01*
X164759906Y-116722453D01*
X165007388Y-116620195D01*
X165196899Y-116431014D01*
X165299588Y-116183711D01*
X165299798Y-115943131D01*
X165422112Y-115892592D01*
X165594800Y-115720205D01*
X165594800Y-123210093D01*
X165408979Y-124144277D01*
X164902410Y-124902412D01*
X164144277Y-125408979D01*
X163210092Y-125594800D01*
X152187583Y-125594800D01*
X152192800Y-125582205D01*
X152192800Y-124773850D01*
X152046750Y-124627800D01*
X150922800Y-124627800D01*
X150922800Y-124647800D01*
X150567200Y-124647800D01*
X150567200Y-124627800D01*
X148382800Y-124627800D01*
X148382800Y-124647800D01*
X148027200Y-124647800D01*
X148027200Y-124627800D01*
X148007200Y-124627800D01*
X148007200Y-124272200D01*
X148027200Y-124272200D01*
X148027200Y-123008050D01*
X148382800Y-123008050D01*
X148382800Y-124272200D01*
X150567200Y-124272200D01*
X150567200Y-122995850D01*
X150922800Y-122995850D01*
X150922800Y-124272200D01*
X152046750Y-124272200D01*
X152192800Y-124126150D01*
X152192800Y-123612452D01*
X161419483Y-123612452D01*
X161697527Y-124285371D01*
X162211921Y-124800664D01*
X162884354Y-125079882D01*
X163612452Y-125080517D01*
X164285371Y-124802473D01*
X164800664Y-124288079D01*
X165079882Y-123615646D01*
X165080517Y-122887548D01*
X164802473Y-122214629D01*
X164288079Y-121699336D01*
X163615646Y-121420118D01*
X162887548Y-121419483D01*
X162214629Y-121697527D01*
X161699336Y-122211921D01*
X161420118Y-122884354D01*
X161419483Y-123612452D01*
X152192800Y-123612452D01*
X152192800Y-123317795D01*
X152103861Y-123103077D01*
X151939522Y-122938739D01*
X151724804Y-122849800D01*
X151068850Y-122849800D01*
X150922800Y-122995850D01*
X150567200Y-122995850D01*
X150421150Y-122849800D01*
X149765196Y-122849800D01*
X149550478Y-122938739D01*
X149386139Y-123103077D01*
X149297200Y-123317795D01*
X149297200Y-123386966D01*
X149034530Y-123112637D01*
X148605382Y-122906263D01*
X148382800Y-123008050D01*
X148027200Y-123008050D01*
X147804618Y-122906263D01*
X147375470Y-123112637D01*
X146985148Y-123520284D01*
X146802714Y-123989264D01*
X146767927Y-123814379D01*
X146509144Y-123427082D01*
X146121847Y-123168299D01*
X145665000Y-123077426D01*
X145208153Y-123168299D01*
X144820856Y-123427082D01*
X144562073Y-123814379D01*
X144471200Y-124271226D01*
X144471200Y-124628774D01*
X144562073Y-125085621D01*
X144820856Y-125472918D01*
X145003266Y-125594800D01*
X143786734Y-125594800D01*
X143969144Y-125472918D01*
X144227927Y-125085621D01*
X144318800Y-124628774D01*
X144318800Y-124271226D01*
X144227927Y-123814379D01*
X143969144Y-123427082D01*
X143581847Y-123168299D01*
X143125000Y-123077426D01*
X142668153Y-123168299D01*
X142280856Y-123427082D01*
X142022073Y-123814379D01*
X141931200Y-124271226D01*
X141931200Y-124628774D01*
X142022073Y-125085621D01*
X142280856Y-125472918D01*
X142463266Y-125594800D01*
X141246734Y-125594800D01*
X141429144Y-125472918D01*
X141687927Y-125085621D01*
X141778800Y-124628774D01*
X141778800Y-124271226D01*
X141687927Y-123814379D01*
X141429144Y-123427082D01*
X141095552Y-123204184D01*
X145251721Y-119048015D01*
X145483301Y-119048217D01*
X145730783Y-118945959D01*
X145920294Y-118756778D01*
X146022983Y-118509475D01*
X146023217Y-118241699D01*
X145920959Y-117994217D01*
X145731778Y-117804706D01*
X145484475Y-117702017D01*
X145216699Y-117701783D01*
X144969217Y-117804041D01*
X144779706Y-117993222D01*
X144677017Y-118240525D01*
X144676813Y-118473451D01*
X140297632Y-122852632D01*
X140209535Y-122984477D01*
X140178600Y-123140000D01*
X140178600Y-123158264D01*
X140128153Y-123168299D01*
X139740856Y-123427082D01*
X139482073Y-123814379D01*
X139391200Y-124271226D01*
X139391200Y-124628774D01*
X139482073Y-125085621D01*
X139740856Y-125472918D01*
X139923266Y-125594800D01*
X138706734Y-125594800D01*
X138889144Y-125472918D01*
X139147927Y-125085621D01*
X139238800Y-124628774D01*
X139238800Y-124271226D01*
X139147927Y-123814379D01*
X138889144Y-123427082D01*
X138501847Y-123168299D01*
X138045000Y-123077426D01*
X137588153Y-123168299D01*
X137200856Y-123427082D01*
X136942073Y-123814379D01*
X136851200Y-124271226D01*
X136851200Y-124628774D01*
X136942073Y-125085621D01*
X137200856Y-125472918D01*
X137383266Y-125594800D01*
X132789907Y-125594800D01*
X131855723Y-125408979D01*
X131097588Y-124902410D01*
X130591021Y-124144277D01*
X130485235Y-123612452D01*
X130919483Y-123612452D01*
X131197527Y-124285371D01*
X131711921Y-124800664D01*
X132384354Y-125079882D01*
X133112452Y-125080517D01*
X133785371Y-124802473D01*
X134300664Y-124288079D01*
X134579882Y-123615646D01*
X134580517Y-122887548D01*
X134302473Y-122214629D01*
X133788079Y-121699336D01*
X133115646Y-121420118D01*
X132387548Y-121419483D01*
X131714629Y-121697527D01*
X131199336Y-122211921D01*
X130920118Y-122884354D01*
X130919483Y-123612452D01*
X130485235Y-123612452D01*
X130405200Y-123210092D01*
X130405200Y-117005630D01*
X132942498Y-117005630D01*
X132945877Y-117025975D01*
X132943692Y-117046476D01*
X132947042Y-117083517D01*
X132954185Y-117107758D01*
X132955288Y-117133009D01*
X132963273Y-117165636D01*
X132976256Y-117193476D01*
X132976364Y-117195636D01*
X132977140Y-117197273D01*
X132983179Y-117223486D01*
X132995770Y-117251471D01*
X133016830Y-117281024D01*
X133021240Y-117290331D01*
X133022195Y-117293537D01*
X133023551Y-117295207D01*
X133032374Y-117313824D01*
X133049546Y-117336939D01*
X133069622Y-117355106D01*
X133071671Y-117357982D01*
X133075282Y-117360241D01*
X133075289Y-117360255D01*
X133075861Y-117360752D01*
X133079324Y-117363886D01*
X133104643Y-117395064D01*
X133126366Y-117413081D01*
X133144578Y-117422936D01*
X133146521Y-117424695D01*
X133150359Y-117426065D01*
X133151998Y-117426952D01*
X133173987Y-117446071D01*
X133184512Y-117452088D01*
X133197423Y-117456409D01*
X133208379Y-117464489D01*
X133218512Y-117469248D01*
X133228815Y-117471799D01*
X133237734Y-117477553D01*
X133248784Y-117481923D01*
X133259170Y-117483816D01*
X133268380Y-117488977D01*
X133280706Y-117492987D01*
X133290318Y-117494128D01*
X133299015Y-117498370D01*
X133312973Y-117502046D01*
X133321315Y-117502557D01*
X133329000Y-117505849D01*
X133344949Y-117509221D01*
X133351882Y-117509304D01*
X133358362Y-117511773D01*
X133376658Y-117514869D01*
X133382257Y-117514708D01*
X133387551Y-117516528D01*
X133408550Y-117519375D01*
X133412970Y-117519102D01*
X133417191Y-117520432D01*
X133441253Y-117523060D01*
X133444718Y-117522756D01*
X133448060Y-117523734D01*
X133475540Y-117526169D01*
X133478224Y-117525878D01*
X133480825Y-117526595D01*
X133512082Y-117528867D01*
X133514162Y-117528608D01*
X133516188Y-117529140D01*
X133551578Y-117531276D01*
X133553182Y-117531056D01*
X133554750Y-117531452D01*
X133594633Y-117533480D01*
X133595854Y-117533301D01*
X133597056Y-117533595D01*
X133641785Y-117535545D01*
X133642728Y-117535400D01*
X133643654Y-117535621D01*
X133693590Y-117537519D01*
X133694301Y-117537405D01*
X133695003Y-117537570D01*
X133750502Y-117539445D01*
X133751037Y-117539357D01*
X133751565Y-117539479D01*
X133812984Y-117541359D01*
X133813377Y-117541293D01*
X133813766Y-117541382D01*
X133881463Y-117543296D01*
X133881749Y-117543248D01*
X133882033Y-117543312D01*
X133956364Y-117545287D01*
X133956496Y-117545264D01*
X133956628Y-117545294D01*
X133970167Y-117545643D01*
X134091482Y-117548960D01*
X134205530Y-117552492D01*
X134313702Y-117556293D01*
X134416229Y-117560380D01*
X134513849Y-117564788D01*
X134606957Y-117569539D01*
X134696194Y-117574663D01*
X134782091Y-117580187D01*
X134865173Y-117586136D01*
X134946283Y-117592560D01*
X135025836Y-117599477D01*
X135104708Y-117606948D01*
X135129727Y-117609447D01*
X135254985Y-117622909D01*
X135374628Y-117637420D01*
X135490364Y-117653235D01*
X135602971Y-117670507D01*
X135713399Y-117689420D01*
X135822342Y-117710120D01*
X135930845Y-117732827D01*
X136039563Y-117757691D01*
X136149547Y-117784954D01*
X136261623Y-117814822D01*
X136376563Y-117847486D01*
X136495160Y-117883150D01*
X136618264Y-117922032D01*
X136746843Y-117964398D01*
X136848709Y-117999057D01*
X136894898Y-118015276D01*
X136937701Y-118030969D01*
X136978169Y-118046552D01*
X137017264Y-118062426D01*
X137055855Y-118078969D01*
X137094833Y-118096589D01*
X137135283Y-118115806D01*
X137177853Y-118136959D01*
X137223458Y-118160521D01*
X137272730Y-118186831D01*
X137326539Y-118216348D01*
X137385251Y-118249253D01*
X137449614Y-118285930D01*
X137470131Y-118297721D01*
X137528752Y-118331451D01*
X137528870Y-118331491D01*
X137528963Y-118331572D01*
X137581933Y-118362000D01*
X137582101Y-118362056D01*
X137582232Y-118362171D01*
X137630001Y-118389546D01*
X137630236Y-118389625D01*
X137630424Y-118389788D01*
X137673437Y-118414354D01*
X137673755Y-118414460D01*
X137674008Y-118414679D01*
X137712713Y-118436684D01*
X137713134Y-118436824D01*
X137713470Y-118437113D01*
X137748315Y-118456804D01*
X137748862Y-118456984D01*
X137749302Y-118457360D01*
X137780735Y-118474983D01*
X137781417Y-118475205D01*
X137781963Y-118475668D01*
X137810432Y-118491472D01*
X137811280Y-118491744D01*
X137811963Y-118492317D01*
X137837914Y-118506547D01*
X137838922Y-118506865D01*
X137839735Y-118507538D01*
X137863617Y-118520442D01*
X137864777Y-118520800D01*
X137865717Y-118521567D01*
X137887977Y-118533391D01*
X137889238Y-118533770D01*
X137890267Y-118534597D01*
X137911352Y-118545588D01*
X137912673Y-118545974D01*
X137913755Y-118546829D01*
X137934115Y-118557235D01*
X137935384Y-118557595D01*
X137936426Y-118558405D01*
X137956506Y-118568473D01*
X137957665Y-118568792D01*
X137958619Y-118569523D01*
X137978868Y-118579498D01*
X137979808Y-118579750D01*
X137980585Y-118580338D01*
X138001450Y-118590469D01*
X138001853Y-118590574D01*
X138002187Y-118590826D01*
X138004019Y-118591710D01*
X138006230Y-118592282D01*
X138008069Y-118593630D01*
X138075507Y-118625067D01*
X138080712Y-118626340D01*
X138085132Y-118629371D01*
X138148749Y-118656625D01*
X138155158Y-118657980D01*
X138160700Y-118661475D01*
X138221868Y-118684938D01*
X138229253Y-118686205D01*
X138235759Y-118689918D01*
X138295849Y-118709981D01*
X138303770Y-118710984D01*
X138310884Y-118714612D01*
X138371268Y-118731669D01*
X138379174Y-118732294D01*
X138386402Y-118735566D01*
X138448451Y-118750008D01*
X138455780Y-118750245D01*
X138462584Y-118752978D01*
X138527670Y-118765198D01*
X138534004Y-118765130D01*
X138539961Y-118767269D01*
X138609456Y-118777659D01*
X138614274Y-118777428D01*
X138618858Y-118778929D01*
X138683697Y-118786754D01*
X138688561Y-118786382D01*
X138693238Y-118787767D01*
X138734224Y-118791527D01*
X138738823Y-118791043D01*
X138743296Y-118792236D01*
X138789242Y-118795196D01*
X138792835Y-118794719D01*
X138796354Y-118795578D01*
X138845201Y-118797684D01*
X138848408Y-118797189D01*
X138851575Y-118797898D01*
X138901270Y-118799094D01*
X138904513Y-118798530D01*
X138907738Y-118799187D01*
X138956222Y-118799418D01*
X138959936Y-118798698D01*
X138963660Y-118799371D01*
X139008877Y-118798583D01*
X139012949Y-118797699D01*
X139017066Y-118798340D01*
X139046570Y-118797104D01*
X139053426Y-118795439D01*
X139060436Y-118796235D01*
X139139982Y-118789592D01*
X139148814Y-118787055D01*
X139157987Y-118787597D01*
X139238442Y-118776475D01*
X139246665Y-118773624D01*
X139255373Y-118773692D01*
X139335551Y-118758392D01*
X139343504Y-118755170D01*
X139352078Y-118754804D01*
X139430789Y-118735624D01*
X139438773Y-118731910D01*
X139447538Y-118731080D01*
X139523594Y-118708318D01*
X139531909Y-118703913D01*
X139541213Y-118702509D01*
X139613425Y-118676464D01*
X139622403Y-118671052D01*
X139632657Y-118668850D01*
X139699839Y-118639821D01*
X139706085Y-118635509D01*
X139713422Y-118633588D01*
X139731530Y-118624786D01*
X139737992Y-118619886D01*
X139745731Y-118617460D01*
X139826711Y-118573207D01*
X139836026Y-118565417D01*
X139847321Y-118560967D01*
X139926543Y-118510003D01*
X139934832Y-118501997D01*
X139945246Y-118497054D01*
X140022570Y-118439539D01*
X140029894Y-118431435D01*
X140039442Y-118426126D01*
X140114729Y-118362216D01*
X140121158Y-118354111D01*
X140129875Y-118348544D01*
X140202984Y-118278397D01*
X140208592Y-118270368D01*
X140216529Y-118264630D01*
X140287320Y-118188404D01*
X140292186Y-118180504D01*
X140299397Y-118174666D01*
X140367732Y-118092519D01*
X140371936Y-118084778D01*
X140378485Y-118078889D01*
X140444222Y-117990978D01*
X140447831Y-117983425D01*
X140453774Y-117977527D01*
X140516775Y-117884011D01*
X140519857Y-117876649D01*
X140525251Y-117870769D01*
X140585376Y-117771803D01*
X140587988Y-117764639D01*
X140592885Y-117758795D01*
X140649993Y-117654539D01*
X140652004Y-117648145D01*
X140656105Y-117642841D01*
X140701197Y-117552228D01*
X140702586Y-117547119D01*
X140705692Y-117542832D01*
X140724030Y-117502918D01*
X140725136Y-117498284D01*
X140727821Y-117494352D01*
X140745443Y-117452987D01*
X140746378Y-117448522D01*
X140748849Y-117444686D01*
X140766260Y-117400578D01*
X140766976Y-117396635D01*
X140769067Y-117393215D01*
X140786774Y-117345073D01*
X140787283Y-117341840D01*
X140788937Y-117339014D01*
X140807446Y-117285546D01*
X140807671Y-117283916D01*
X140808487Y-117282490D01*
X140812832Y-117269536D01*
X140812995Y-117268265D01*
X140813623Y-117267148D01*
X140821292Y-117243703D01*
X140821485Y-117242097D01*
X140822264Y-117240682D01*
X140830134Y-117215828D01*
X140881838Y-117194964D01*
X140881926Y-117194906D01*
X140882032Y-117194886D01*
X140918012Y-117180341D01*
X140918195Y-117180221D01*
X140918405Y-117180181D01*
X140952414Y-117166383D01*
X140952605Y-117166258D01*
X140952826Y-117166215D01*
X140984301Y-117153397D01*
X140984526Y-117153249D01*
X140984787Y-117153198D01*
X141013171Y-117141586D01*
X141013443Y-117141406D01*
X141013764Y-117141343D01*
X141038498Y-117131169D01*
X141038877Y-117130917D01*
X141039320Y-117130829D01*
X141059844Y-117122323D01*
X141060435Y-117121928D01*
X141061133Y-117121786D01*
X141076889Y-117115179D01*
X141078104Y-117114359D01*
X141079537Y-117114055D01*
X141089965Y-117109577D01*
X141094363Y-117106556D01*
X141099541Y-117105285D01*
X141104080Y-117103165D01*
X141132767Y-117082103D01*
X141164781Y-117066540D01*
X141164930Y-117066427D01*
X141173344Y-117056942D01*
X141184302Y-117050562D01*
X141193570Y-117038392D01*
X141197761Y-117035513D01*
X141199162Y-117033357D01*
X141209505Y-117025763D01*
X141227844Y-116995499D01*
X141251719Y-116968583D01*
X141255863Y-116956599D01*
X141263544Y-116946513D01*
X141268191Y-116928918D01*
X141277286Y-116913908D01*
X141282591Y-116879298D01*
X141294459Y-116844975D01*
X141293701Y-116832316D01*
X141296938Y-116820059D01*
X141294468Y-116801811D01*
X141297102Y-116784630D01*
X141288826Y-116750900D01*
X141286642Y-116714420D01*
X141281098Y-116703017D01*
X141279398Y-116690452D01*
X141270060Y-116674411D01*
X141268770Y-116669155D01*
X141267447Y-116663060D01*
X141267180Y-116662675D01*
X141265937Y-116657609D01*
X141245476Y-116629740D01*
X141229460Y-116596795D01*
X141219975Y-116588381D01*
X141213595Y-116577423D01*
X141211254Y-116574773D01*
X141200564Y-116566632D01*
X141192907Y-116555592D01*
X141185705Y-116548636D01*
X141183341Y-116547115D01*
X141181702Y-116544833D01*
X141170053Y-116533947D01*
X141168973Y-116533277D01*
X141168226Y-116532253D01*
X141152543Y-116517813D01*
X141151907Y-116517425D01*
X141151465Y-116516825D01*
X141132163Y-116499209D01*
X141131712Y-116498936D01*
X141131398Y-116498513D01*
X141108890Y-116478099D01*
X141108543Y-116477891D01*
X141108299Y-116477563D01*
X141083002Y-116454728D01*
X141082709Y-116454553D01*
X141082506Y-116454282D01*
X141054833Y-116429402D01*
X141054567Y-116429244D01*
X141054381Y-116428996D01*
X141024746Y-116402449D01*
X141024522Y-116402317D01*
X141024365Y-116402108D01*
X140998988Y-116379445D01*
X140998907Y-116379398D01*
X140998852Y-116379324D01*
X140962836Y-116347195D01*
X140931891Y-116319552D01*
X140905993Y-116296351D01*
X140884360Y-116276871D01*
X140876943Y-116270135D01*
X140867519Y-116246654D01*
X140865011Y-116242809D01*
X140864044Y-116238323D01*
X140851730Y-116209882D01*
X140849064Y-116206026D01*
X140847950Y-116201470D01*
X140835119Y-116173938D01*
X140832644Y-116170561D01*
X140831551Y-116166522D01*
X140824956Y-116153233D01*
X140819981Y-116146783D01*
X140817479Y-116139032D01*
X140785030Y-116080822D01*
X140776551Y-116070855D01*
X140771585Y-116058750D01*
X140734357Y-116002625D01*
X140725432Y-115993640D01*
X140719766Y-115982316D01*
X140677077Y-115927345D01*
X140668344Y-115919776D01*
X140662480Y-115909813D01*
X140613647Y-115855066D01*
X140608481Y-115851171D01*
X140604989Y-115845723D01*
X140591846Y-115832070D01*
X140586661Y-115828461D01*
X140583058Y-115823274D01*
X140527549Y-115769735D01*
X140518272Y-115763776D01*
X140511407Y-115755147D01*
X140454127Y-115706664D01*
X140443957Y-115701028D01*
X140436112Y-115692445D01*
X140375858Y-115648149D01*
X140365474Y-115643291D01*
X140357186Y-115635370D01*
X140292754Y-115594396D01*
X140282898Y-115590572D01*
X140274815Y-115583757D01*
X140205001Y-115545237D01*
X140199188Y-115543389D01*
X140194385Y-115539625D01*
X140173399Y-115529008D01*
X140168415Y-115527618D01*
X140164248Y-115524552D01*
X140096194Y-115492680D01*
X140088015Y-115490664D01*
X140080988Y-115486012D01*
X140012974Y-115458177D01*
X140004226Y-115456476D01*
X139996548Y-115451952D01*
X139927346Y-115427780D01*
X139918532Y-115426541D01*
X139910637Y-115422430D01*
X139839017Y-115401548D01*
X139830652Y-115400815D01*
X139823022Y-115397310D01*
X139747757Y-115379343D01*
X139740242Y-115379057D01*
X139733277Y-115376223D01*
X139653137Y-115360799D01*
X139648062Y-115360831D01*
X139643308Y-115359059D01*
X139596840Y-115351542D01*
X139594417Y-115351629D01*
X139592136Y-115350816D01*
X139572300Y-115347896D01*
X139569553Y-115348034D01*
X139566947Y-115347152D01*
X139549618Y-115344886D01*
X139545225Y-115345178D01*
X139541019Y-115343874D01*
X139524803Y-115342178D01*
X139519552Y-115342663D01*
X139514471Y-115341259D01*
X139497970Y-115340048D01*
X139493120Y-115340648D01*
X139488374Y-115339482D01*
X139470194Y-115338671D01*
X139466589Y-115339222D01*
X139463029Y-115338428D01*
X139441772Y-115337935D01*
X139439579Y-115338319D01*
X139437400Y-115337862D01*
X139411675Y-115337601D01*
X139410623Y-115337799D01*
X139409577Y-115337587D01*
X139383094Y-115337484D01*
X139382091Y-115337679D01*
X139381087Y-115337482D01*
X139343872Y-115337560D01*
X139341567Y-115338023D01*
X139339252Y-115337601D01*
X139307581Y-115338104D01*
X139303903Y-115338897D01*
X139300188Y-115338303D01*
X139272556Y-115339352D01*
X139267512Y-115340556D01*
X139262369Y-115339894D01*
X139237270Y-115341613D01*
X139231424Y-115343198D01*
X139225393Y-115342639D01*
X139201324Y-115345150D01*
X139195680Y-115346898D01*
X139189782Y-115346557D01*
X139165236Y-115349982D01*
X139160718Y-115351555D01*
X139155935Y-115351413D01*
X139129407Y-115355877D01*
X139126738Y-115356891D01*
X139123885Y-115356854D01*
X139101921Y-115360929D01*
X139097157Y-115362831D01*
X139092028Y-115362919D01*
X139033173Y-115375682D01*
X139026367Y-115378639D01*
X139018961Y-115379090D01*
X138957864Y-115395157D01*
X138951685Y-115398169D01*
X138944847Y-115398863D01*
X138884394Y-115417400D01*
X138877948Y-115420871D01*
X138870700Y-115421923D01*
X138813776Y-115442095D01*
X138809359Y-115444724D01*
X138804297Y-115445616D01*
X138792919Y-115450039D01*
X138791735Y-115450793D01*
X138790355Y-115451048D01*
X138747177Y-115468241D01*
X138746408Y-115468740D01*
X138745503Y-115468912D01*
X138703128Y-115486050D01*
X138702274Y-115486610D01*
X138701272Y-115486807D01*
X138659314Y-115504069D01*
X138658397Y-115504678D01*
X138657321Y-115504897D01*
X138615391Y-115522464D01*
X138614441Y-115523104D01*
X138613319Y-115523340D01*
X138571030Y-115541392D01*
X138570069Y-115542049D01*
X138568933Y-115542296D01*
X138525898Y-115561014D01*
X138524959Y-115561666D01*
X138523843Y-115561916D01*
X138479674Y-115581480D01*
X138478777Y-115582112D01*
X138477706Y-115582359D01*
X138432014Y-115602950D01*
X138431176Y-115603548D01*
X138430177Y-115603785D01*
X138382576Y-115625582D01*
X138381807Y-115626138D01*
X138380885Y-115626362D01*
X138330987Y-115649547D01*
X138330298Y-115650051D01*
X138329469Y-115650257D01*
X138276886Y-115675010D01*
X138276278Y-115675459D01*
X138275541Y-115675646D01*
X138219885Y-115702148D01*
X138219356Y-115702542D01*
X138218720Y-115702706D01*
X138159605Y-115731135D01*
X138159150Y-115731477D01*
X138158598Y-115731621D01*
X138095634Y-115762160D01*
X138095247Y-115762453D01*
X138094777Y-115762577D01*
X138027579Y-115795406D01*
X138027258Y-115795650D01*
X138026869Y-115795754D01*
X137955048Y-115831052D01*
X137954781Y-115831257D01*
X137954455Y-115831344D01*
X137877622Y-115869293D01*
X137877405Y-115869460D01*
X137877138Y-115869532D01*
X137794907Y-115910313D01*
X137794733Y-115910447D01*
X137794520Y-115910505D01*
X137706503Y-115954296D01*
X137706412Y-115954367D01*
X137706300Y-115954397D01*
X137683792Y-115965615D01*
X137683790Y-115965615D01*
X137605820Y-116004405D01*
X137533920Y-116039998D01*
X137467563Y-116072641D01*
X137406215Y-116102582D01*
X137349245Y-116130119D01*
X137296247Y-116155440D01*
X137247077Y-116178610D01*
X137200740Y-116200099D01*
X137157105Y-116219970D01*
X137115386Y-116238590D01*
X137075228Y-116256127D01*
X137035771Y-116272970D01*
X136996883Y-116289192D01*
X136957613Y-116305210D01*
X136917602Y-116321190D01*
X136885063Y-116333969D01*
X136885061Y-116333970D01*
X136861553Y-116343201D01*
X136860865Y-116343643D01*
X136860062Y-116343791D01*
X136838668Y-116352310D01*
X136837853Y-116352839D01*
X136836901Y-116353020D01*
X136818532Y-116360456D01*
X136817387Y-116361208D01*
X136816043Y-116361475D01*
X136801588Y-116367462D01*
X136799356Y-116368953D01*
X136796733Y-116369518D01*
X136787085Y-116373693D01*
X136778838Y-116379393D01*
X136769178Y-116382077D01*
X136765237Y-116384066D01*
X136757906Y-116389800D01*
X136749093Y-116392777D01*
X136715115Y-116422487D01*
X136699555Y-116422152D01*
X136669594Y-116420888D01*
X136667991Y-116421474D01*
X136658304Y-116421266D01*
X136655955Y-116421681D01*
X136649149Y-116424330D01*
X136645364Y-116424435D01*
X136641723Y-116424514D01*
X136627773Y-116427607D01*
X136611648Y-116430617D01*
X136588285Y-116434482D01*
X136560812Y-116438592D01*
X136531646Y-116442557D01*
X136502605Y-116446112D01*
X136474681Y-116449109D01*
X136468582Y-116449690D01*
X136443755Y-116451669D01*
X136420595Y-116452916D01*
X136396662Y-116453559D01*
X136370693Y-116453568D01*
X136341636Y-116452868D01*
X136308567Y-116451355D01*
X136270857Y-116448938D01*
X136227693Y-116445522D01*
X136178550Y-116441045D01*
X136123014Y-116435473D01*
X136064165Y-116429167D01*
X135978446Y-116419191D01*
X135886578Y-116407433D01*
X135788000Y-116393833D01*
X135683467Y-116378497D01*
X135573188Y-116361462D01*
X135457682Y-116342808D01*
X135337367Y-116322610D01*
X135212494Y-116300907D01*
X135083703Y-116277814D01*
X134951142Y-116253355D01*
X134815286Y-116227615D01*
X134676534Y-116200666D01*
X134535093Y-116172542D01*
X134391661Y-116143377D01*
X134246201Y-116113154D01*
X134099113Y-116081944D01*
X133951249Y-116049919D01*
X133864244Y-116030770D01*
X133820012Y-116020974D01*
X133819256Y-116020958D01*
X133818564Y-116020657D01*
X133780346Y-116012370D01*
X133777958Y-116012329D01*
X133775752Y-116011407D01*
X133743178Y-116004820D01*
X133738267Y-116004804D01*
X133733686Y-116003043D01*
X133706121Y-115998291D01*
X133697398Y-115998515D01*
X133689104Y-115995805D01*
X133665917Y-115993023D01*
X133651623Y-115994125D01*
X133637668Y-115990840D01*
X133618224Y-115990162D01*
X133596535Y-115993696D01*
X133574672Y-115991477D01*
X133558339Y-115993037D01*
X133544327Y-115997242D01*
X133543015Y-115997115D01*
X133527066Y-116001978D01*
X133498646Y-116004266D01*
X133484792Y-116008200D01*
X133467481Y-116017060D01*
X133463129Y-116017542D01*
X133447104Y-116026361D01*
X133434449Y-116030220D01*
X133433072Y-116030633D01*
X133433059Y-116030644D01*
X133417913Y-116035262D01*
X133405903Y-116041705D01*
X133383837Y-116059868D01*
X133368366Y-116067786D01*
X133365314Y-116071372D01*
X133348546Y-116080600D01*
X133337749Y-116089684D01*
X133320877Y-116110762D01*
X133299600Y-116127388D01*
X133289382Y-116139248D01*
X133280746Y-116154514D01*
X133268119Y-116166682D01*
X133257847Y-116181454D01*
X133254028Y-116190211D01*
X133247535Y-116197213D01*
X133236577Y-116215031D01*
X133235258Y-116218590D01*
X133232738Y-116221431D01*
X133220460Y-116242429D01*
X133220325Y-116242821D01*
X133220050Y-116243132D01*
X133215771Y-116250492D01*
X133215152Y-116252296D01*
X133213905Y-116253742D01*
X133176636Y-116319520D01*
X133175354Y-116323399D01*
X133172760Y-116326556D01*
X133137828Y-116391806D01*
X133136604Y-116395832D01*
X133134011Y-116399151D01*
X133101810Y-116463043D01*
X133100604Y-116467394D01*
X133097920Y-116471023D01*
X133068846Y-116532724D01*
X133067625Y-116537630D01*
X133064743Y-116541779D01*
X133039191Y-116600458D01*
X133037930Y-116606249D01*
X133034718Y-116611236D01*
X133013082Y-116666062D01*
X133011932Y-116672398D01*
X133008652Y-116677940D01*
X132994787Y-116717380D01*
X132993557Y-116726005D01*
X132989511Y-116733716D01*
X132974051Y-116786129D01*
X132972960Y-116798157D01*
X132968122Y-116809226D01*
X132957406Y-116858137D01*
X132957132Y-116872322D01*
X132952557Y-116885749D01*
X132946557Y-116930932D01*
X132947648Y-116947868D01*
X132943809Y-116964403D01*
X132942498Y-117005630D01*
X130405200Y-117005630D01*
X130405200Y-112747800D01*
X131176150Y-112747800D01*
X131322200Y-112601750D01*
X131322200Y-111477800D01*
X131302200Y-111477800D01*
X131302200Y-111122200D01*
X131322200Y-111122200D01*
X131322200Y-111102200D01*
X131677800Y-111102200D01*
X131677800Y-111122200D01*
X132954150Y-111122200D01*
X133015000Y-111061350D01*
X133095850Y-111142200D01*
X134344800Y-111142200D01*
X134344800Y-111497800D01*
X133095850Y-111497800D01*
X133035000Y-111558650D01*
X132954150Y-111477800D01*
X131677800Y-111477800D01*
X131677800Y-112601750D01*
X131823850Y-112747800D01*
X132632205Y-112747800D01*
X132846923Y-112658861D01*
X133011261Y-112494522D01*
X133020858Y-112471353D01*
X133038739Y-112514522D01*
X133203077Y-112678861D01*
X133417795Y-112767800D01*
X133954442Y-112767800D01*
X133805856Y-112867082D01*
X133547073Y-113254379D01*
X133456200Y-113711226D01*
X133456200Y-114068774D01*
X133547073Y-114525621D01*
X133805856Y-114912918D01*
X134193153Y-115171701D01*
X134650000Y-115262574D01*
X135106847Y-115171701D01*
X135494144Y-114912918D01*
X135752927Y-114525621D01*
X135843800Y-114068774D01*
X135843800Y-113711226D01*
X135752927Y-113254379D01*
X135494144Y-112867082D01*
X135345558Y-112767800D01*
X135682205Y-112767800D01*
X135833335Y-112705200D01*
X136588130Y-112705200D01*
X136345856Y-112867082D01*
X136087073Y-113254379D01*
X135996200Y-113711226D01*
X135996200Y-114068774D01*
X136087073Y-114525621D01*
X136345856Y-114912918D01*
X136733153Y-115171701D01*
X137190000Y-115262574D01*
X137646847Y-115171701D01*
X138034144Y-114912918D01*
X138292927Y-114525621D01*
X138383800Y-114068774D01*
X138383800Y-113711226D01*
X138292927Y-113254379D01*
X138034144Y-112867082D01*
X137791870Y-112705200D01*
X139128130Y-112705200D01*
X138885856Y-112867082D01*
X138627073Y-113254379D01*
X138536200Y-113711226D01*
X138536200Y-114068774D01*
X138627073Y-114525621D01*
X138885856Y-114912918D01*
X139273153Y-115171701D01*
X139730000Y-115262574D01*
X140186847Y-115171701D01*
X140574144Y-114912918D01*
X140832927Y-114525621D01*
X140923800Y-114068774D01*
X140923800Y-113711226D01*
X140832927Y-113254379D01*
X140574144Y-112867082D01*
X140331870Y-112705200D01*
X141668130Y-112705200D01*
X141425856Y-112867082D01*
X141167073Y-113254379D01*
X141076200Y-113711226D01*
X141076200Y-114068774D01*
X141167073Y-114525621D01*
X141425856Y-114912918D01*
X141813153Y-115171701D01*
X142270000Y-115262574D01*
X142726847Y-115171701D01*
X143114144Y-114912918D01*
X143372927Y-114525621D01*
X143407714Y-114350736D01*
X143590148Y-114819716D01*
X143980470Y-115227363D01*
X144409618Y-115433737D01*
X144632200Y-115331950D01*
X144632200Y-114067800D01*
X144987800Y-114067800D01*
X144987800Y-115331950D01*
X145210382Y-115433737D01*
X145639530Y-115227363D01*
X145902200Y-114953034D01*
X145902200Y-115022205D01*
X145991139Y-115236923D01*
X146155478Y-115401261D01*
X146370196Y-115490200D01*
X147026150Y-115490200D01*
X147172200Y-115344150D01*
X147172200Y-114067800D01*
X147527800Y-114067800D01*
X147527800Y-115344150D01*
X147673850Y-115490200D01*
X148329804Y-115490200D01*
X148544522Y-115401261D01*
X148708861Y-115236923D01*
X148797800Y-115022205D01*
X148797800Y-114213850D01*
X148651750Y-114067800D01*
X147527800Y-114067800D01*
X147172200Y-114067800D01*
X144987800Y-114067800D01*
X144632200Y-114067800D01*
X144612200Y-114067800D01*
X144612200Y-113712200D01*
X144632200Y-113712200D01*
X144632200Y-113692200D01*
X144987800Y-113692200D01*
X144987800Y-113712200D01*
X147172200Y-113712200D01*
X147172200Y-113692200D01*
X147527800Y-113692200D01*
X147527800Y-113712200D01*
X148651750Y-113712200D01*
X148797800Y-113566150D01*
X148797800Y-112757795D01*
X148739789Y-112617744D01*
X148786520Y-112586520D01*
X148874356Y-112455063D01*
X148905200Y-112300000D01*
X148905200Y-110492983D01*
X148911261Y-110486922D01*
X149000200Y-110272204D01*
X149000200Y-109463850D01*
X148854150Y-109317800D01*
X147655200Y-109317800D01*
X147655200Y-108962200D01*
X148854150Y-108962200D01*
X149000200Y-108816150D01*
X149000200Y-108007796D01*
X148911261Y-107793078D01*
X148746923Y-107628739D01*
X148532205Y-107539800D01*
X148386371Y-107539800D01*
X148670101Y-107115168D01*
X148772574Y-106600000D01*
X148670101Y-106084832D01*
X148483257Y-105805200D01*
X148500000Y-105805200D01*
X148655063Y-105774356D01*
X148786520Y-105686520D01*
X148874356Y-105555063D01*
X148905200Y-105400000D01*
X148905200Y-101400000D01*
X148874356Y-101244937D01*
X148786520Y-101113480D01*
X148655063Y-101025644D01*
X148637749Y-101022200D01*
X148701750Y-101022200D01*
X148847800Y-100876150D01*
X148847800Y-100067795D01*
X148758861Y-99853077D01*
X148594522Y-99688739D01*
X148379804Y-99599800D01*
X147723850Y-99599800D01*
X147577800Y-99745850D01*
X147577800Y-100994800D01*
X147222200Y-100994800D01*
X147222200Y-99745850D01*
X147076150Y-99599800D01*
X146420196Y-99599800D01*
X146205478Y-99688739D01*
X146041139Y-99853077D01*
X145952200Y-100067795D01*
X145952200Y-100548325D01*
X145704144Y-100177082D01*
X145316847Y-99918299D01*
X144860000Y-99827426D01*
X144403153Y-99918299D01*
X144015856Y-100177082D01*
X143757073Y-100564379D01*
X143671456Y-100994800D01*
X143508544Y-100994800D01*
X143422927Y-100564379D01*
X143164144Y-100177082D01*
X142776847Y-99918299D01*
X142320000Y-99827426D01*
X141863153Y-99918299D01*
X141475856Y-100177082D01*
X141217073Y-100564379D01*
X141131456Y-100994800D01*
X140968544Y-100994800D01*
X140882927Y-100564379D01*
X140624144Y-100177082D01*
X140236847Y-99918299D01*
X139780000Y-99827426D01*
X139323153Y-99918299D01*
X138935856Y-100177082D01*
X138677073Y-100564379D01*
X138591456Y-100994800D01*
X138428544Y-100994800D01*
X138342927Y-100564379D01*
X138084144Y-100177082D01*
X137696847Y-99918299D01*
X137240000Y-99827426D01*
X136783153Y-99918299D01*
X136395856Y-100177082D01*
X136147800Y-100548325D01*
X136147800Y-100067795D01*
X136058861Y-99853077D01*
X135894522Y-99688739D01*
X135679804Y-99599800D01*
X135023850Y-99599800D01*
X134877800Y-99745850D01*
X134877800Y-100994800D01*
X134522200Y-100994800D01*
X134522200Y-99745850D01*
X134376150Y-99599800D01*
X133720196Y-99599800D01*
X133505478Y-99688739D01*
X133341139Y-99853077D01*
X133252200Y-100067795D01*
X133252200Y-100876150D01*
X133392277Y-101016227D01*
X133362260Y-101022198D01*
X133252200Y-101022198D01*
X133252200Y-101087608D01*
X133213480Y-101113480D01*
X133125644Y-101244937D01*
X133094800Y-101400000D01*
X133094800Y-102600000D01*
X133125644Y-102755063D01*
X133213480Y-102886520D01*
X133344937Y-102974356D01*
X133435823Y-102992434D01*
X133268299Y-103243153D01*
X133177426Y-103700000D01*
X133268299Y-104156847D01*
X133527082Y-104544144D01*
X133898325Y-104792200D01*
X133417795Y-104792200D01*
X133203077Y-104881139D01*
X133038739Y-105045478D01*
X133029142Y-105068647D01*
X133011261Y-105025478D01*
X132846923Y-104861139D01*
X132632205Y-104772200D01*
X132151675Y-104772200D01*
X132522918Y-104524144D01*
X132781701Y-104136847D01*
X132872574Y-103680000D01*
X132781701Y-103223153D01*
X132522918Y-102835856D01*
X132135621Y-102577073D01*
X131678774Y-102486200D01*
X131321226Y-102486200D01*
X130864379Y-102577073D01*
X130477082Y-102835856D01*
X130405200Y-102943435D01*
X130405200Y-93112452D01*
X130919483Y-93112452D01*
X131197527Y-93785371D01*
X131711921Y-94300664D01*
X132384354Y-94579882D01*
X133112452Y-94580517D01*
X133785371Y-94302473D01*
X134300664Y-93788079D01*
X134579882Y-93115646D01*
X134580517Y-92387548D01*
X134302473Y-91714629D01*
X133788079Y-91199336D01*
X133115646Y-90920118D01*
X132387548Y-90919483D01*
X131714629Y-91197527D01*
X131199336Y-91711921D01*
X130920118Y-92384354D01*
X130919483Y-93112452D01*
X130405200Y-93112452D01*
X130405200Y-92789908D01*
X130591021Y-91855723D01*
X131097588Y-91097590D01*
X131855723Y-90591021D01*
X132789907Y-90405200D01*
X157850322Y-90405200D01*
X157624618Y-90630511D01*
X157624618Y-90630511D01*
G37*
X157624618Y-90630511D02*
X157556897Y-90793600D01*
X157486669Y-90793600D01*
X157486669Y-90750000D01*
X157463644Y-90627635D01*
X157391327Y-90515251D01*
X157280983Y-90439856D01*
X157150000Y-90413331D01*
X155950000Y-90413331D01*
X155827635Y-90436356D01*
X155715251Y-90508673D01*
X155639856Y-90619017D01*
X155613331Y-90750000D01*
X155613331Y-91411933D01*
X155264172Y-91761092D01*
X155286669Y-91650000D01*
X155286669Y-90750000D01*
X155263644Y-90627635D01*
X155191327Y-90515251D01*
X155080983Y-90439856D01*
X154950000Y-90413331D01*
X153750000Y-90413331D01*
X153627635Y-90436356D01*
X153515251Y-90508673D01*
X153439856Y-90619017D01*
X153413331Y-90750000D01*
X153413331Y-91650000D01*
X153436356Y-91772365D01*
X153508673Y-91884749D01*
X153619017Y-91960144D01*
X153663166Y-91969085D01*
X153652085Y-91995771D01*
X153651851Y-92263547D01*
X153754109Y-92511029D01*
X153894894Y-92652059D01*
X153827017Y-92815525D01*
X153826901Y-92948363D01*
X153698279Y-93076985D01*
X153466699Y-93076783D01*
X153219217Y-93179041D01*
X153029706Y-93368222D01*
X152927017Y-93615525D01*
X152926783Y-93883301D01*
X153029041Y-94130783D01*
X153218222Y-94320294D01*
X153331176Y-94367197D01*
X153057821Y-94640552D01*
X152969724Y-94772397D01*
X152938789Y-94927920D01*
X152938789Y-102107994D01*
X152969724Y-102263517D01*
X153030195Y-102354017D01*
X153057821Y-102395362D01*
X154513863Y-103851404D01*
X154645708Y-103939501D01*
X154801231Y-103970436D01*
X155354824Y-103970436D01*
X155510347Y-103939501D01*
X155578244Y-103894133D01*
X155831024Y-103894354D01*
X156078506Y-103792096D01*
X156113149Y-103757513D01*
X157497142Y-104933678D01*
X157552302Y-104964391D01*
X157604793Y-104999465D01*
X157621129Y-105002714D01*
X157628331Y-105006724D01*
X157628331Y-105115000D01*
X157644912Y-105203120D01*
X157628331Y-105285000D01*
X157628331Y-105515000D01*
X157642555Y-105590590D01*
X156837080Y-104906070D01*
X156761965Y-104830824D01*
X156514662Y-104728135D01*
X156246886Y-104727901D01*
X155999404Y-104830159D01*
X155809893Y-105019340D01*
X155707204Y-105266643D01*
X155706994Y-105507222D01*
X155584679Y-105557762D01*
X155395168Y-105746943D01*
X155292479Y-105994246D01*
X155292245Y-106262022D01*
X155394503Y-106509504D01*
X155583684Y-106699015D01*
X155789110Y-106784315D01*
X155736400Y-106836934D01*
X155633711Y-107084237D01*
X155633477Y-107352013D01*
X155735735Y-107599495D01*
X155924916Y-107789006D01*
X156172219Y-107891695D01*
X156439995Y-107891929D01*
X156459463Y-107883885D01*
X156491691Y-107961883D01*
X156529843Y-108000101D01*
X156492356Y-108037523D01*
X156459617Y-108116366D01*
X156441169Y-108108706D01*
X156173393Y-108108472D01*
X155925911Y-108210730D01*
X155736400Y-108399911D01*
X155633711Y-108647214D01*
X155633477Y-108914990D01*
X155735735Y-109162472D01*
X155789330Y-109216160D01*
X155584679Y-109300721D01*
X155395168Y-109489902D01*
X155292479Y-109737205D01*
X155292245Y-110004981D01*
X155394503Y-110252463D01*
X155448098Y-110306151D01*
X155243448Y-110390711D01*
X155053937Y-110579892D01*
X154951248Y-110827195D01*
X154951014Y-111094971D01*
X155053272Y-111342453D01*
X155106867Y-111396141D01*
X154902216Y-111480702D01*
X154712705Y-111669883D01*
X154610016Y-111917186D01*
X154609782Y-112184962D01*
X154712040Y-112432444D01*
X154765634Y-112486132D01*
X154560984Y-112570692D01*
X154371473Y-112759873D01*
X154268784Y-113007176D01*
X154268550Y-113274952D01*
X154370808Y-113522434D01*
X154424403Y-113576122D01*
X154219752Y-113660683D01*
X154030241Y-113849864D01*
X153927552Y-114097167D01*
X153927318Y-114364943D01*
X154029576Y-114612425D01*
X154083171Y-114666113D01*
X153878520Y-114750674D01*
X153689009Y-114939855D01*
X153586320Y-115187158D01*
X153586086Y-115454934D01*
X153688344Y-115702416D01*
X153877525Y-115891927D01*
X154001019Y-115943206D01*
X154000810Y-116182537D01*
X154103068Y-116430019D01*
X154292249Y-116619530D01*
X154539552Y-116722219D01*
X154807328Y-116722453D01*
X155054810Y-116620195D01*
X155105900Y-116569194D01*
X155105900Y-117062300D01*
X155136835Y-117217823D01*
X155220017Y-117342312D01*
X155224932Y-117349668D01*
X155526985Y-117651721D01*
X155526783Y-117883301D01*
X155581242Y-118015102D01*
X154789838Y-118015102D01*
X154623015Y-117848279D01*
X154623217Y-117616699D01*
X154520959Y-117369217D01*
X154331778Y-117179706D01*
X154084475Y-117077017D01*
X153816699Y-117076783D01*
X153569217Y-117179041D01*
X153379706Y-117368222D01*
X153277017Y-117615525D01*
X153276783Y-117883301D01*
X153379041Y-118130783D01*
X153568222Y-118320294D01*
X153644005Y-118351762D01*
X153601244Y-118394449D01*
X153498555Y-118641752D01*
X153498321Y-118909528D01*
X153600579Y-119157010D01*
X153789760Y-119346521D01*
X154037063Y-119449210D01*
X154291330Y-119449432D01*
X154358914Y-119494591D01*
X154514437Y-119525526D01*
X157393118Y-119525526D01*
X157548641Y-119494591D01*
X157680486Y-119406494D01*
X158368493Y-118718487D01*
X158372521Y-118712459D01*
X158456590Y-118586642D01*
X158487525Y-118431119D01*
X158487525Y-116977607D01*
X158456590Y-116822084D01*
X158432926Y-116786669D01*
X158625000Y-116786669D01*
X158747365Y-116763644D01*
X158859749Y-116691327D01*
X158935144Y-116580983D01*
X158961669Y-116450000D01*
X158961669Y-116100000D01*
X158943625Y-116004105D01*
X158961669Y-115915000D01*
X158961669Y-115685000D01*
X158945088Y-115596880D01*
X158961669Y-115515000D01*
X158961669Y-115285000D01*
X158945088Y-115196880D01*
X158961669Y-115115000D01*
X158961669Y-114885000D01*
X158945088Y-114796880D01*
X158961669Y-114715000D01*
X158961669Y-114485000D01*
X158945088Y-114396880D01*
X158961669Y-114315000D01*
X158961669Y-114085000D01*
X158945088Y-113996880D01*
X158961669Y-113915000D01*
X158961669Y-113685000D01*
X158945088Y-113596880D01*
X158961669Y-113515000D01*
X158961669Y-113285000D01*
X158945088Y-113196880D01*
X158961669Y-113115000D01*
X158961669Y-112885000D01*
X158945088Y-112796880D01*
X158961669Y-112715000D01*
X158961669Y-112485000D01*
X158945088Y-112396880D01*
X158961669Y-112315000D01*
X158961669Y-112085000D01*
X158945088Y-111996880D01*
X158961669Y-111915000D01*
X158961669Y-111685000D01*
X158945088Y-111596880D01*
X158961669Y-111515000D01*
X158961669Y-111285000D01*
X158945088Y-111196880D01*
X158961669Y-111115000D01*
X158961669Y-110885000D01*
X158945088Y-110796880D01*
X158961669Y-110715000D01*
X158961669Y-110485000D01*
X158945088Y-110396880D01*
X158961669Y-110315000D01*
X158961669Y-110085000D01*
X158945088Y-109996880D01*
X158961669Y-109915000D01*
X158961669Y-109685000D01*
X158945088Y-109596880D01*
X158961669Y-109515000D01*
X158961669Y-109285000D01*
X158945088Y-109196880D01*
X158961669Y-109115000D01*
X158961669Y-108885000D01*
X158945088Y-108796880D01*
X158961669Y-108715000D01*
X158961669Y-108485000D01*
X158945088Y-108396880D01*
X158961669Y-108315000D01*
X158961669Y-108085000D01*
X158945088Y-107996880D01*
X158961669Y-107915000D01*
X158961669Y-107685000D01*
X158945088Y-107596880D01*
X158961669Y-107515000D01*
X158961669Y-107285000D01*
X158945088Y-107196880D01*
X158961669Y-107115000D01*
X158961669Y-106885000D01*
X158945088Y-106796880D01*
X158961669Y-106715000D01*
X158961669Y-106485000D01*
X158945088Y-106396880D01*
X158961669Y-106315000D01*
X158961669Y-106206400D01*
X159531067Y-106206400D01*
X159686590Y-106175465D01*
X159818435Y-106087368D01*
X160232557Y-105673246D01*
X160251780Y-105644477D01*
X160320654Y-105541401D01*
X160338331Y-105452531D01*
X160338331Y-105515000D01*
X160354912Y-105603120D01*
X160338331Y-105685000D01*
X160338331Y-105915000D01*
X160351793Y-105986543D01*
X160344077Y-105989739D01*
X160179739Y-106154078D01*
X160090800Y-106368796D01*
X160090800Y-106396450D01*
X160214083Y-106519733D01*
X160179739Y-106554078D01*
X160090800Y-106768796D01*
X160090800Y-106796450D01*
X160094350Y-106800000D01*
X160090800Y-106803550D01*
X160090800Y-106831204D01*
X160160718Y-107000000D01*
X160090800Y-107168796D01*
X160090800Y-107196450D01*
X160094350Y-107200000D01*
X160090800Y-107203550D01*
X160090800Y-107231204D01*
X160160718Y-107400000D01*
X160090800Y-107568796D01*
X160090800Y-107596450D01*
X160094350Y-107600000D01*
X160090800Y-107603550D01*
X160090800Y-107631204D01*
X160160718Y-107800000D01*
X160090800Y-107968796D01*
X160090800Y-107996450D01*
X160094350Y-108000000D01*
X160090800Y-108003550D01*
X160090800Y-108031204D01*
X160160718Y-108200000D01*
X160090800Y-108368796D01*
X160090800Y-108396450D01*
X160094350Y-108400000D01*
X160090800Y-108403550D01*
X160090800Y-108431204D01*
X160160718Y-108600000D01*
X160090800Y-108768796D01*
X160090800Y-108796450D01*
X160094350Y-108800000D01*
X160090800Y-108803550D01*
X160090800Y-108831204D01*
X160160718Y-109000000D01*
X160090800Y-109168796D01*
X160090800Y-109196450D01*
X160094350Y-109200000D01*
X160090800Y-109203550D01*
X160090800Y-109231204D01*
X160179739Y-109445922D01*
X160214083Y-109480267D01*
X160090800Y-109603550D01*
X160090800Y-109631204D01*
X160179739Y-109845922D01*
X160344077Y-110010261D01*
X160352740Y-110013849D01*
X160338331Y-110085000D01*
X160338331Y-110315000D01*
X160354912Y-110403120D01*
X160338331Y-110485000D01*
X160338331Y-110715000D01*
X160354912Y-110803120D01*
X160338331Y-110885000D01*
X160338331Y-111115000D01*
X160354912Y-111203120D01*
X160338331Y-111285000D01*
X160338331Y-111515000D01*
X160354912Y-111603120D01*
X160338331Y-111685000D01*
X160338331Y-111915000D01*
X160354912Y-112003120D01*
X160338331Y-112085000D01*
X160338331Y-112315000D01*
X160354912Y-112403120D01*
X160338331Y-112485000D01*
X160338331Y-112715000D01*
X160354912Y-112803120D01*
X160338331Y-112885000D01*
X160338331Y-113115000D01*
X160354912Y-113203120D01*
X160338331Y-113285000D01*
X160338331Y-113515000D01*
X160354912Y-113603120D01*
X160338331Y-113685000D01*
X160338331Y-113915000D01*
X160354912Y-114003120D01*
X160338331Y-114085000D01*
X160338331Y-114315000D01*
X160354912Y-114403120D01*
X160338331Y-114485000D01*
X160338331Y-114715000D01*
X160354912Y-114803120D01*
X160338331Y-114885000D01*
X160338331Y-115115000D01*
X160354912Y-115203120D01*
X160338331Y-115285000D01*
X160338331Y-115515000D01*
X160354912Y-115603120D01*
X160338331Y-115685000D01*
X160338331Y-115915000D01*
X160356375Y-116010895D01*
X160338331Y-116100000D01*
X160338331Y-116450000D01*
X160361356Y-116572365D01*
X160416996Y-116658832D01*
X160327017Y-116875525D01*
X160326783Y-117143301D01*
X160429041Y-117390783D01*
X160618222Y-117580294D01*
X160865525Y-117682983D01*
X161133301Y-117683217D01*
X161380783Y-117580959D01*
X161570294Y-117391778D01*
X161672983Y-117144475D01*
X161673217Y-116876699D01*
X161586495Y-116666818D01*
X161593254Y-116656927D01*
X161653839Y-116717618D01*
X161838744Y-116794397D01*
X161838593Y-116967746D01*
X161940851Y-117215228D01*
X162130032Y-117404739D01*
X162377335Y-117507428D01*
X162645111Y-117507662D01*
X162892593Y-117405404D01*
X163027879Y-117270353D01*
X163071608Y-117376184D01*
X163260789Y-117565695D01*
X163508092Y-117668384D01*
X163775868Y-117668618D01*
X164023350Y-117566360D01*
X164212861Y-117377179D01*
X164315550Y-117129876D01*
X164315784Y-116862100D01*
X164213526Y-116614618D01*
X164122694Y-116523627D01*
X164125216Y-116506470D01*
X164169713Y-116544285D01*
X164244827Y-116619530D01*
X164492130Y-116722219D01*
X164759906Y-116722453D01*
X165007388Y-116620195D01*
X165196899Y-116431014D01*
X165299588Y-116183711D01*
X165299798Y-115943131D01*
X165422112Y-115892592D01*
X165594800Y-115720205D01*
X165594800Y-123210093D01*
X165408979Y-124144277D01*
X164902410Y-124902412D01*
X164144277Y-125408979D01*
X163210092Y-125594800D01*
X152187583Y-125594800D01*
X152192800Y-125582205D01*
X152192800Y-124773850D01*
X152046750Y-124627800D01*
X150922800Y-124627800D01*
X150922800Y-124647800D01*
X150567200Y-124647800D01*
X150567200Y-124627800D01*
X148382800Y-124627800D01*
X148382800Y-124647800D01*
X148027200Y-124647800D01*
X148027200Y-124627800D01*
X148007200Y-124627800D01*
X148007200Y-124272200D01*
X148027200Y-124272200D01*
X148027200Y-123008050D01*
X148382800Y-123008050D01*
X148382800Y-124272200D01*
X150567200Y-124272200D01*
X150567200Y-122995850D01*
X150922800Y-122995850D01*
X150922800Y-124272200D01*
X152046750Y-124272200D01*
X152192800Y-124126150D01*
X152192800Y-123612452D01*
X161419483Y-123612452D01*
X161697527Y-124285371D01*
X162211921Y-124800664D01*
X162884354Y-125079882D01*
X163612452Y-125080517D01*
X164285371Y-124802473D01*
X164800664Y-124288079D01*
X165079882Y-123615646D01*
X165080517Y-122887548D01*
X164802473Y-122214629D01*
X164288079Y-121699336D01*
X163615646Y-121420118D01*
X162887548Y-121419483D01*
X162214629Y-121697527D01*
X161699336Y-122211921D01*
X161420118Y-122884354D01*
X161419483Y-123612452D01*
X152192800Y-123612452D01*
X152192800Y-123317795D01*
X152103861Y-123103077D01*
X151939522Y-122938739D01*
X151724804Y-122849800D01*
X151068850Y-122849800D01*
X150922800Y-122995850D01*
X150567200Y-122995850D01*
X150421150Y-122849800D01*
X149765196Y-122849800D01*
X149550478Y-122938739D01*
X149386139Y-123103077D01*
X149297200Y-123317795D01*
X149297200Y-123386966D01*
X149034530Y-123112637D01*
X148605382Y-122906263D01*
X148382800Y-123008050D01*
X148027200Y-123008050D01*
X147804618Y-122906263D01*
X147375470Y-123112637D01*
X146985148Y-123520284D01*
X146802714Y-123989264D01*
X146767927Y-123814379D01*
X146509144Y-123427082D01*
X146121847Y-123168299D01*
X145665000Y-123077426D01*
X145208153Y-123168299D01*
X144820856Y-123427082D01*
X144562073Y-123814379D01*
X144471200Y-124271226D01*
X144471200Y-124628774D01*
X144562073Y-125085621D01*
X144820856Y-125472918D01*
X145003266Y-125594800D01*
X143786734Y-125594800D01*
X143969144Y-125472918D01*
X144227927Y-125085621D01*
X144318800Y-124628774D01*
X144318800Y-124271226D01*
X144227927Y-123814379D01*
X143969144Y-123427082D01*
X143581847Y-123168299D01*
X143125000Y-123077426D01*
X142668153Y-123168299D01*
X142280856Y-123427082D01*
X142022073Y-123814379D01*
X141931200Y-124271226D01*
X141931200Y-124628774D01*
X142022073Y-125085621D01*
X142280856Y-125472918D01*
X142463266Y-125594800D01*
X141246734Y-125594800D01*
X141429144Y-125472918D01*
X141687927Y-125085621D01*
X141778800Y-124628774D01*
X141778800Y-124271226D01*
X141687927Y-123814379D01*
X141429144Y-123427082D01*
X141095552Y-123204184D01*
X145251721Y-119048015D01*
X145483301Y-119048217D01*
X145730783Y-118945959D01*
X145920294Y-118756778D01*
X146022983Y-118509475D01*
X146023217Y-118241699D01*
X145920959Y-117994217D01*
X145731778Y-117804706D01*
X145484475Y-117702017D01*
X145216699Y-117701783D01*
X144969217Y-117804041D01*
X144779706Y-117993222D01*
X144677017Y-118240525D01*
X144676813Y-118473451D01*
X140297632Y-122852632D01*
X140209535Y-122984477D01*
X140178600Y-123140000D01*
X140178600Y-123158264D01*
X140128153Y-123168299D01*
X139740856Y-123427082D01*
X139482073Y-123814379D01*
X139391200Y-124271226D01*
X139391200Y-124628774D01*
X139482073Y-125085621D01*
X139740856Y-125472918D01*
X139923266Y-125594800D01*
X138706734Y-125594800D01*
X138889144Y-125472918D01*
X139147927Y-125085621D01*
X139238800Y-124628774D01*
X139238800Y-124271226D01*
X139147927Y-123814379D01*
X138889144Y-123427082D01*
X138501847Y-123168299D01*
X138045000Y-123077426D01*
X137588153Y-123168299D01*
X137200856Y-123427082D01*
X136942073Y-123814379D01*
X136851200Y-124271226D01*
X136851200Y-124628774D01*
X136942073Y-125085621D01*
X137200856Y-125472918D01*
X137383266Y-125594800D01*
X132789907Y-125594800D01*
X131855723Y-125408979D01*
X131097588Y-124902410D01*
X130591021Y-124144277D01*
X130485235Y-123612452D01*
X130919483Y-123612452D01*
X131197527Y-124285371D01*
X131711921Y-124800664D01*
X132384354Y-125079882D01*
X133112452Y-125080517D01*
X133785371Y-124802473D01*
X134300664Y-124288079D01*
X134579882Y-123615646D01*
X134580517Y-122887548D01*
X134302473Y-122214629D01*
X133788079Y-121699336D01*
X133115646Y-121420118D01*
X132387548Y-121419483D01*
X131714629Y-121697527D01*
X131199336Y-122211921D01*
X130920118Y-122884354D01*
X130919483Y-123612452D01*
X130485235Y-123612452D01*
X130405200Y-123210092D01*
X130405200Y-117005630D01*
X132942498Y-117005630D01*
X132945877Y-117025975D01*
X132943692Y-117046476D01*
X132947042Y-117083517D01*
X132954185Y-117107758D01*
X132955288Y-117133009D01*
X132963273Y-117165636D01*
X132976256Y-117193476D01*
X132976364Y-117195636D01*
X132977140Y-117197273D01*
X132983179Y-117223486D01*
X132995770Y-117251471D01*
X133016830Y-117281024D01*
X133021240Y-117290331D01*
X133022195Y-117293537D01*
X133023551Y-117295207D01*
X133032374Y-117313824D01*
X133049546Y-117336939D01*
X133069622Y-117355106D01*
X133071671Y-117357982D01*
X133075282Y-117360241D01*
X133075289Y-117360255D01*
X133075861Y-117360752D01*
X133079324Y-117363886D01*
X133104643Y-117395064D01*
X133126366Y-117413081D01*
X133144578Y-117422936D01*
X133146521Y-117424695D01*
X133150359Y-117426065D01*
X133151998Y-117426952D01*
X133173987Y-117446071D01*
X133184512Y-117452088D01*
X133197423Y-117456409D01*
X133208379Y-117464489D01*
X133218512Y-117469248D01*
X133228815Y-117471799D01*
X133237734Y-117477553D01*
X133248784Y-117481923D01*
X133259170Y-117483816D01*
X133268380Y-117488977D01*
X133280706Y-117492987D01*
X133290318Y-117494128D01*
X133299015Y-117498370D01*
X133312973Y-117502046D01*
X133321315Y-117502557D01*
X133329000Y-117505849D01*
X133344949Y-117509221D01*
X133351882Y-117509304D01*
X133358362Y-117511773D01*
X133376658Y-117514869D01*
X133382257Y-117514708D01*
X133387551Y-117516528D01*
X133408550Y-117519375D01*
X133412970Y-117519102D01*
X133417191Y-117520432D01*
X133441253Y-117523060D01*
X133444718Y-117522756D01*
X133448060Y-117523734D01*
X133475540Y-117526169D01*
X133478224Y-117525878D01*
X133480825Y-117526595D01*
X133512082Y-117528867D01*
X133514162Y-117528608D01*
X133516188Y-117529140D01*
X133551578Y-117531276D01*
X133553182Y-117531056D01*
X133554750Y-117531452D01*
X133594633Y-117533480D01*
X133595854Y-117533301D01*
X133597056Y-117533595D01*
X133641785Y-117535545D01*
X133642728Y-117535400D01*
X133643654Y-117535621D01*
X133693590Y-117537519D01*
X133694301Y-117537405D01*
X133695003Y-117537570D01*
X133750502Y-117539445D01*
X133751037Y-117539357D01*
X133751565Y-117539479D01*
X133812984Y-117541359D01*
X133813377Y-117541293D01*
X133813766Y-117541382D01*
X133881463Y-117543296D01*
X133881749Y-117543248D01*
X133882033Y-117543312D01*
X133956364Y-117545287D01*
X133956496Y-117545264D01*
X133956628Y-117545294D01*
X133970167Y-117545643D01*
X134091482Y-117548960D01*
X134205530Y-117552492D01*
X134313702Y-117556293D01*
X134416229Y-117560380D01*
X134513849Y-117564788D01*
X134606957Y-117569539D01*
X134696194Y-117574663D01*
X134782091Y-117580187D01*
X134865173Y-117586136D01*
X134946283Y-117592560D01*
X135025836Y-117599477D01*
X135104708Y-117606948D01*
X135129727Y-117609447D01*
X135254985Y-117622909D01*
X135374628Y-117637420D01*
X135490364Y-117653235D01*
X135602971Y-117670507D01*
X135713399Y-117689420D01*
X135822342Y-117710120D01*
X135930845Y-117732827D01*
X136039563Y-117757691D01*
X136149547Y-117784954D01*
X136261623Y-117814822D01*
X136376563Y-117847486D01*
X136495160Y-117883150D01*
X136618264Y-117922032D01*
X136746843Y-117964398D01*
X136848709Y-117999057D01*
X136894898Y-118015276D01*
X136937701Y-118030969D01*
X136978169Y-118046552D01*
X137017264Y-118062426D01*
X137055855Y-118078969D01*
X137094833Y-118096589D01*
X137135283Y-118115806D01*
X137177853Y-118136959D01*
X137223458Y-118160521D01*
X137272730Y-118186831D01*
X137326539Y-118216348D01*
X137385251Y-118249253D01*
X137449614Y-118285930D01*
X137470131Y-118297721D01*
X137528752Y-118331451D01*
X137528870Y-118331491D01*
X137528963Y-118331572D01*
X137581933Y-118362000D01*
X137582101Y-118362056D01*
X137582232Y-118362171D01*
X137630001Y-118389546D01*
X137630236Y-118389625D01*
X137630424Y-118389788D01*
X137673437Y-118414354D01*
X137673755Y-118414460D01*
X137674008Y-118414679D01*
X137712713Y-118436684D01*
X137713134Y-118436824D01*
X137713470Y-118437113D01*
X137748315Y-118456804D01*
X137748862Y-118456984D01*
X137749302Y-118457360D01*
X137780735Y-118474983D01*
X137781417Y-118475205D01*
X137781963Y-118475668D01*
X137810432Y-118491472D01*
X137811280Y-118491744D01*
X137811963Y-118492317D01*
X137837914Y-118506547D01*
X137838922Y-118506865D01*
X137839735Y-118507538D01*
X137863617Y-118520442D01*
X137864777Y-118520800D01*
X137865717Y-118521567D01*
X137887977Y-118533391D01*
X137889238Y-118533770D01*
X137890267Y-118534597D01*
X137911352Y-118545588D01*
X137912673Y-118545974D01*
X137913755Y-118546829D01*
X137934115Y-118557235D01*
X137935384Y-118557595D01*
X137936426Y-118558405D01*
X137956506Y-118568473D01*
X137957665Y-118568792D01*
X137958619Y-118569523D01*
X137978868Y-118579498D01*
X137979808Y-118579750D01*
X137980585Y-118580338D01*
X138001450Y-118590469D01*
X138001853Y-118590574D01*
X138002187Y-118590826D01*
X138004019Y-118591710D01*
X138006230Y-118592282D01*
X138008069Y-118593630D01*
X138075507Y-118625067D01*
X138080712Y-118626340D01*
X138085132Y-118629371D01*
X138148749Y-118656625D01*
X138155158Y-118657980D01*
X138160700Y-118661475D01*
X138221868Y-118684938D01*
X138229253Y-118686205D01*
X138235759Y-118689918D01*
X138295849Y-118709981D01*
X138303770Y-118710984D01*
X138310884Y-118714612D01*
X138371268Y-118731669D01*
X138379174Y-118732294D01*
X138386402Y-118735566D01*
X138448451Y-118750008D01*
X138455780Y-118750245D01*
X138462584Y-118752978D01*
X138527670Y-118765198D01*
X138534004Y-118765130D01*
X138539961Y-118767269D01*
X138609456Y-118777659D01*
X138614274Y-118777428D01*
X138618858Y-118778929D01*
X138683697Y-118786754D01*
X138688561Y-118786382D01*
X138693238Y-118787767D01*
X138734224Y-118791527D01*
X138738823Y-118791043D01*
X138743296Y-118792236D01*
X138789242Y-118795196D01*
X138792835Y-118794719D01*
X138796354Y-118795578D01*
X138845201Y-118797684D01*
X138848408Y-118797189D01*
X138851575Y-118797898D01*
X138901270Y-118799094D01*
X138904513Y-118798530D01*
X138907738Y-118799187D01*
X138956222Y-118799418D01*
X138959936Y-118798698D01*
X138963660Y-118799371D01*
X139008877Y-118798583D01*
X139012949Y-118797699D01*
X139017066Y-118798340D01*
X139046570Y-118797104D01*
X139053426Y-118795439D01*
X139060436Y-118796235D01*
X139139982Y-118789592D01*
X139148814Y-118787055D01*
X139157987Y-118787597D01*
X139238442Y-118776475D01*
X139246665Y-118773624D01*
X139255373Y-118773692D01*
X139335551Y-118758392D01*
X139343504Y-118755170D01*
X139352078Y-118754804D01*
X139430789Y-118735624D01*
X139438773Y-118731910D01*
X139447538Y-118731080D01*
X139523594Y-118708318D01*
X139531909Y-118703913D01*
X139541213Y-118702509D01*
X139613425Y-118676464D01*
X139622403Y-118671052D01*
X139632657Y-118668850D01*
X139699839Y-118639821D01*
X139706085Y-118635509D01*
X139713422Y-118633588D01*
X139731530Y-118624786D01*
X139737992Y-118619886D01*
X139745731Y-118617460D01*
X139826711Y-118573207D01*
X139836026Y-118565417D01*
X139847321Y-118560967D01*
X139926543Y-118510003D01*
X139934832Y-118501997D01*
X139945246Y-118497054D01*
X140022570Y-118439539D01*
X140029894Y-118431435D01*
X140039442Y-118426126D01*
X140114729Y-118362216D01*
X140121158Y-118354111D01*
X140129875Y-118348544D01*
X140202984Y-118278397D01*
X140208592Y-118270368D01*
X140216529Y-118264630D01*
X140287320Y-118188404D01*
X140292186Y-118180504D01*
X140299397Y-118174666D01*
X140367732Y-118092519D01*
X140371936Y-118084778D01*
X140378485Y-118078889D01*
X140444222Y-117990978D01*
X140447831Y-117983425D01*
X140453774Y-117977527D01*
X140516775Y-117884011D01*
X140519857Y-117876649D01*
X140525251Y-117870769D01*
X140585376Y-117771803D01*
X140587988Y-117764639D01*
X140592885Y-117758795D01*
X140649993Y-117654539D01*
X140652004Y-117648145D01*
X140656105Y-117642841D01*
X140701197Y-117552228D01*
X140702586Y-117547119D01*
X140705692Y-117542832D01*
X140724030Y-117502918D01*
X140725136Y-117498284D01*
X140727821Y-117494352D01*
X140745443Y-117452987D01*
X140746378Y-117448522D01*
X140748849Y-117444686D01*
X140766260Y-117400578D01*
X140766976Y-117396635D01*
X140769067Y-117393215D01*
X140786774Y-117345073D01*
X140787283Y-117341840D01*
X140788937Y-117339014D01*
X140807446Y-117285546D01*
X140807671Y-117283916D01*
X140808487Y-117282490D01*
X140812832Y-117269536D01*
X140812995Y-117268265D01*
X140813623Y-117267148D01*
X140821292Y-117243703D01*
X140821485Y-117242097D01*
X140822264Y-117240682D01*
X140830134Y-117215828D01*
X140881838Y-117194964D01*
X140881926Y-117194906D01*
X140882032Y-117194886D01*
X140918012Y-117180341D01*
X140918195Y-117180221D01*
X140918405Y-117180181D01*
X140952414Y-117166383D01*
X140952605Y-117166258D01*
X140952826Y-117166215D01*
X140984301Y-117153397D01*
X140984526Y-117153249D01*
X140984787Y-117153198D01*
X141013171Y-117141586D01*
X141013443Y-117141406D01*
X141013764Y-117141343D01*
X141038498Y-117131169D01*
X141038877Y-117130917D01*
X141039320Y-117130829D01*
X141059844Y-117122323D01*
X141060435Y-117121928D01*
X141061133Y-117121786D01*
X141076889Y-117115179D01*
X141078104Y-117114359D01*
X141079537Y-117114055D01*
X141089965Y-117109577D01*
X141094363Y-117106556D01*
X141099541Y-117105285D01*
X141104080Y-117103165D01*
X141132767Y-117082103D01*
X141164781Y-117066540D01*
X141164930Y-117066427D01*
X141173344Y-117056942D01*
X141184302Y-117050562D01*
X141193570Y-117038392D01*
X141197761Y-117035513D01*
X141199162Y-117033357D01*
X141209505Y-117025763D01*
X141227844Y-116995499D01*
X141251719Y-116968583D01*
X141255863Y-116956599D01*
X141263544Y-116946513D01*
X141268191Y-116928918D01*
X141277286Y-116913908D01*
X141282591Y-116879298D01*
X141294459Y-116844975D01*
X141293701Y-116832316D01*
X141296938Y-116820059D01*
X141294468Y-116801811D01*
X141297102Y-116784630D01*
X141288826Y-116750900D01*
X141286642Y-116714420D01*
X141281098Y-116703017D01*
X141279398Y-116690452D01*
X141270060Y-116674411D01*
X141268770Y-116669155D01*
X141267447Y-116663060D01*
X141267180Y-116662675D01*
X141265937Y-116657609D01*
X141245476Y-116629740D01*
X141229460Y-116596795D01*
X141219975Y-116588381D01*
X141213595Y-116577423D01*
X141211254Y-116574773D01*
X141200564Y-116566632D01*
X141192907Y-116555592D01*
X141185705Y-116548636D01*
X141183341Y-116547115D01*
X141181702Y-116544833D01*
X141170053Y-116533947D01*
X141168973Y-116533277D01*
X141168226Y-116532253D01*
X141152543Y-116517813D01*
X141151907Y-116517425D01*
X141151465Y-116516825D01*
X141132163Y-116499209D01*
X141131712Y-116498936D01*
X141131398Y-116498513D01*
X141108890Y-116478099D01*
X141108543Y-116477891D01*
X141108299Y-116477563D01*
X141083002Y-116454728D01*
X141082709Y-116454553D01*
X141082506Y-116454282D01*
X141054833Y-116429402D01*
X141054567Y-116429244D01*
X141054381Y-116428996D01*
X141024746Y-116402449D01*
X141024522Y-116402317D01*
X141024365Y-116402108D01*
X140998988Y-116379445D01*
X140998907Y-116379398D01*
X140998852Y-116379324D01*
X140962836Y-116347195D01*
X140931891Y-116319552D01*
X140905993Y-116296351D01*
X140884360Y-116276871D01*
X140876943Y-116270135D01*
X140867519Y-116246654D01*
X140865011Y-116242809D01*
X140864044Y-116238323D01*
X140851730Y-116209882D01*
X140849064Y-116206026D01*
X140847950Y-116201470D01*
X140835119Y-116173938D01*
X140832644Y-116170561D01*
X140831551Y-116166522D01*
X140824956Y-116153233D01*
X140819981Y-116146783D01*
X140817479Y-116139032D01*
X140785030Y-116080822D01*
X140776551Y-116070855D01*
X140771585Y-116058750D01*
X140734357Y-116002625D01*
X140725432Y-115993640D01*
X140719766Y-115982316D01*
X140677077Y-115927345D01*
X140668344Y-115919776D01*
X140662480Y-115909813D01*
X140613647Y-115855066D01*
X140608481Y-115851171D01*
X140604989Y-115845723D01*
X140591846Y-115832070D01*
X140586661Y-115828461D01*
X140583058Y-115823274D01*
X140527549Y-115769735D01*
X140518272Y-115763776D01*
X140511407Y-115755147D01*
X140454127Y-115706664D01*
X140443957Y-115701028D01*
X140436112Y-115692445D01*
X140375858Y-115648149D01*
X140365474Y-115643291D01*
X140357186Y-115635370D01*
X140292754Y-115594396D01*
X140282898Y-115590572D01*
X140274815Y-115583757D01*
X140205001Y-115545237D01*
X140199188Y-115543389D01*
X140194385Y-115539625D01*
X140173399Y-115529008D01*
X140168415Y-115527618D01*
X140164248Y-115524552D01*
X140096194Y-115492680D01*
X140088015Y-115490664D01*
X140080988Y-115486012D01*
X140012974Y-115458177D01*
X140004226Y-115456476D01*
X139996548Y-115451952D01*
X139927346Y-115427780D01*
X139918532Y-115426541D01*
X139910637Y-115422430D01*
X139839017Y-115401548D01*
X139830652Y-115400815D01*
X139823022Y-115397310D01*
X139747757Y-115379343D01*
X139740242Y-115379057D01*
X139733277Y-115376223D01*
X139653137Y-115360799D01*
X139648062Y-115360831D01*
X139643308Y-115359059D01*
X139596840Y-115351542D01*
X139594417Y-115351629D01*
X139592136Y-115350816D01*
X139572300Y-115347896D01*
X139569553Y-115348034D01*
X139566947Y-115347152D01*
X139549618Y-115344886D01*
X139545225Y-115345178D01*
X139541019Y-115343874D01*
X139524803Y-115342178D01*
X139519552Y-115342663D01*
X139514471Y-115341259D01*
X139497970Y-115340048D01*
X139493120Y-115340648D01*
X139488374Y-115339482D01*
X139470194Y-115338671D01*
X139466589Y-115339222D01*
X139463029Y-115338428D01*
X139441772Y-115337935D01*
X139439579Y-115338319D01*
X139437400Y-115337862D01*
X139411675Y-115337601D01*
X139410623Y-115337799D01*
X139409577Y-115337587D01*
X139383094Y-115337484D01*
X139382091Y-115337679D01*
X139381087Y-115337482D01*
X139343872Y-115337560D01*
X139341567Y-115338023D01*
X139339252Y-115337601D01*
X139307581Y-115338104D01*
X139303903Y-115338897D01*
X139300188Y-115338303D01*
X139272556Y-115339352D01*
X139267512Y-115340556D01*
X139262369Y-115339894D01*
X139237270Y-115341613D01*
X139231424Y-115343198D01*
X139225393Y-115342639D01*
X139201324Y-115345150D01*
X139195680Y-115346898D01*
X139189782Y-115346557D01*
X139165236Y-115349982D01*
X139160718Y-115351555D01*
X139155935Y-115351413D01*
X139129407Y-115355877D01*
X139126738Y-115356891D01*
X139123885Y-115356854D01*
X139101921Y-115360929D01*
X139097157Y-115362831D01*
X139092028Y-115362919D01*
X139033173Y-115375682D01*
X139026367Y-115378639D01*
X139018961Y-115379090D01*
X138957864Y-115395157D01*
X138951685Y-115398169D01*
X138944847Y-115398863D01*
X138884394Y-115417400D01*
X138877948Y-115420871D01*
X138870700Y-115421923D01*
X138813776Y-115442095D01*
X138809359Y-115444724D01*
X138804297Y-115445616D01*
X138792919Y-115450039D01*
X138791735Y-115450793D01*
X138790355Y-115451048D01*
X138747177Y-115468241D01*
X138746408Y-115468740D01*
X138745503Y-115468912D01*
X138703128Y-115486050D01*
X138702274Y-115486610D01*
X138701272Y-115486807D01*
X138659314Y-115504069D01*
X138658397Y-115504678D01*
X138657321Y-115504897D01*
X138615391Y-115522464D01*
X138614441Y-115523104D01*
X138613319Y-115523340D01*
X138571030Y-115541392D01*
X138570069Y-115542049D01*
X138568933Y-115542296D01*
X138525898Y-115561014D01*
X138524959Y-115561666D01*
X138523843Y-115561916D01*
X138479674Y-115581480D01*
X138478777Y-115582112D01*
X138477706Y-115582359D01*
X138432014Y-115602950D01*
X138431176Y-115603548D01*
X138430177Y-115603785D01*
X138382576Y-115625582D01*
X138381807Y-115626138D01*
X138380885Y-115626362D01*
X138330987Y-115649547D01*
X138330298Y-115650051D01*
X138329469Y-115650257D01*
X138276886Y-115675010D01*
X138276278Y-115675459D01*
X138275541Y-115675646D01*
X138219885Y-115702148D01*
X138219356Y-115702542D01*
X138218720Y-115702706D01*
X138159605Y-115731135D01*
X138159150Y-115731477D01*
X138158598Y-115731621D01*
X138095634Y-115762160D01*
X138095247Y-115762453D01*
X138094777Y-115762577D01*
X138027579Y-115795406D01*
X138027258Y-115795650D01*
X138026869Y-115795754D01*
X137955048Y-115831052D01*
X137954781Y-115831257D01*
X137954455Y-115831344D01*
X137877622Y-115869293D01*
X137877405Y-115869460D01*
X137877138Y-115869532D01*
X137794907Y-115910313D01*
X137794733Y-115910447D01*
X137794520Y-115910505D01*
X137706503Y-115954296D01*
X137706412Y-115954367D01*
X137706300Y-115954397D01*
X137683792Y-115965615D01*
X137683790Y-115965615D01*
X137605820Y-116004405D01*
X137533920Y-116039998D01*
X137467563Y-116072641D01*
X137406215Y-116102582D01*
X137349245Y-116130119D01*
X137296247Y-116155440D01*
X137247077Y-116178610D01*
X137200740Y-116200099D01*
X137157105Y-116219970D01*
X137115386Y-116238590D01*
X137075228Y-116256127D01*
X137035771Y-116272970D01*
X136996883Y-116289192D01*
X136957613Y-116305210D01*
X136917602Y-116321190D01*
X136885063Y-116333969D01*
X136885061Y-116333970D01*
X136861553Y-116343201D01*
X136860865Y-116343643D01*
X136860062Y-116343791D01*
X136838668Y-116352310D01*
X136837853Y-116352839D01*
X136836901Y-116353020D01*
X136818532Y-116360456D01*
X136817387Y-116361208D01*
X136816043Y-116361475D01*
X136801588Y-116367462D01*
X136799356Y-116368953D01*
X136796733Y-116369518D01*
X136787085Y-116373693D01*
X136778838Y-116379393D01*
X136769178Y-116382077D01*
X136765237Y-116384066D01*
X136757906Y-116389800D01*
X136749093Y-116392777D01*
X136715115Y-116422487D01*
X136699555Y-116422152D01*
X136669594Y-116420888D01*
X136667991Y-116421474D01*
X136658304Y-116421266D01*
X136655955Y-116421681D01*
X136649149Y-116424330D01*
X136645364Y-116424435D01*
X136641723Y-116424514D01*
X136627773Y-116427607D01*
X136611648Y-116430617D01*
X136588285Y-116434482D01*
X136560812Y-116438592D01*
X136531646Y-116442557D01*
X136502605Y-116446112D01*
X136474681Y-116449109D01*
X136468582Y-116449690D01*
X136443755Y-116451669D01*
X136420595Y-116452916D01*
X136396662Y-116453559D01*
X136370693Y-116453568D01*
X136341636Y-116452868D01*
X136308567Y-116451355D01*
X136270857Y-116448938D01*
X136227693Y-116445522D01*
X136178550Y-116441045D01*
X136123014Y-116435473D01*
X136064165Y-116429167D01*
X135978446Y-116419191D01*
X135886578Y-116407433D01*
X135788000Y-116393833D01*
X135683467Y-116378497D01*
X135573188Y-116361462D01*
X135457682Y-116342808D01*
X135337367Y-116322610D01*
X135212494Y-116300907D01*
X135083703Y-116277814D01*
X134951142Y-116253355D01*
X134815286Y-116227615D01*
X134676534Y-116200666D01*
X134535093Y-116172542D01*
X134391661Y-116143377D01*
X134246201Y-116113154D01*
X134099113Y-116081944D01*
X133951249Y-116049919D01*
X133864244Y-116030770D01*
X133820012Y-116020974D01*
X133819256Y-116020958D01*
X133818564Y-116020657D01*
X133780346Y-116012370D01*
X133777958Y-116012329D01*
X133775752Y-116011407D01*
X133743178Y-116004820D01*
X133738267Y-116004804D01*
X133733686Y-116003043D01*
X133706121Y-115998291D01*
X133697398Y-115998515D01*
X133689104Y-115995805D01*
X133665917Y-115993023D01*
X133651623Y-115994125D01*
X133637668Y-115990840D01*
X133618224Y-115990162D01*
X133596535Y-115993696D01*
X133574672Y-115991477D01*
X133558339Y-115993037D01*
X133544327Y-115997242D01*
X133543015Y-115997115D01*
X133527066Y-116001978D01*
X133498646Y-116004266D01*
X133484792Y-116008200D01*
X133467481Y-116017060D01*
X133463129Y-116017542D01*
X133447104Y-116026361D01*
X133434449Y-116030220D01*
X133433072Y-116030633D01*
X133433059Y-116030644D01*
X133417913Y-116035262D01*
X133405903Y-116041705D01*
X133383837Y-116059868D01*
X133368366Y-116067786D01*
X133365314Y-116071372D01*
X133348546Y-116080600D01*
X133337749Y-116089684D01*
X133320877Y-116110762D01*
X133299600Y-116127388D01*
X133289382Y-116139248D01*
X133280746Y-116154514D01*
X133268119Y-116166682D01*
X133257847Y-116181454D01*
X133254028Y-116190211D01*
X133247535Y-116197213D01*
X133236577Y-116215031D01*
X133235258Y-116218590D01*
X133232738Y-116221431D01*
X133220460Y-116242429D01*
X133220325Y-116242821D01*
X133220050Y-116243132D01*
X133215771Y-116250492D01*
X133215152Y-116252296D01*
X133213905Y-116253742D01*
X133176636Y-116319520D01*
X133175354Y-116323399D01*
X133172760Y-116326556D01*
X133137828Y-116391806D01*
X133136604Y-116395832D01*
X133134011Y-116399151D01*
X133101810Y-116463043D01*
X133100604Y-116467394D01*
X133097920Y-116471023D01*
X133068846Y-116532724D01*
X133067625Y-116537630D01*
X133064743Y-116541779D01*
X133039191Y-116600458D01*
X133037930Y-116606249D01*
X133034718Y-116611236D01*
X133013082Y-116666062D01*
X133011932Y-116672398D01*
X133008652Y-116677940D01*
X132994787Y-116717380D01*
X132993557Y-116726005D01*
X132989511Y-116733716D01*
X132974051Y-116786129D01*
X132972960Y-116798157D01*
X132968122Y-116809226D01*
X132957406Y-116858137D01*
X132957132Y-116872322D01*
X132952557Y-116885749D01*
X132946557Y-116930932D01*
X132947648Y-116947868D01*
X132943809Y-116964403D01*
X132942498Y-117005630D01*
X130405200Y-117005630D01*
X130405200Y-112747800D01*
X131176150Y-112747800D01*
X131322200Y-112601750D01*
X131322200Y-111477800D01*
X131302200Y-111477800D01*
X131302200Y-111122200D01*
X131322200Y-111122200D01*
X131322200Y-111102200D01*
X131677800Y-111102200D01*
X131677800Y-111122200D01*
X132954150Y-111122200D01*
X133015000Y-111061350D01*
X133095850Y-111142200D01*
X134344800Y-111142200D01*
X134344800Y-111497800D01*
X133095850Y-111497800D01*
X133035000Y-111558650D01*
X132954150Y-111477800D01*
X131677800Y-111477800D01*
X131677800Y-112601750D01*
X131823850Y-112747800D01*
X132632205Y-112747800D01*
X132846923Y-112658861D01*
X133011261Y-112494522D01*
X133020858Y-112471353D01*
X133038739Y-112514522D01*
X133203077Y-112678861D01*
X133417795Y-112767800D01*
X133954442Y-112767800D01*
X133805856Y-112867082D01*
X133547073Y-113254379D01*
X133456200Y-113711226D01*
X133456200Y-114068774D01*
X133547073Y-114525621D01*
X133805856Y-114912918D01*
X134193153Y-115171701D01*
X134650000Y-115262574D01*
X135106847Y-115171701D01*
X135494144Y-114912918D01*
X135752927Y-114525621D01*
X135843800Y-114068774D01*
X135843800Y-113711226D01*
X135752927Y-113254379D01*
X135494144Y-112867082D01*
X135345558Y-112767800D01*
X135682205Y-112767800D01*
X135833335Y-112705200D01*
X136588130Y-112705200D01*
X136345856Y-112867082D01*
X136087073Y-113254379D01*
X135996200Y-113711226D01*
X135996200Y-114068774D01*
X136087073Y-114525621D01*
X136345856Y-114912918D01*
X136733153Y-115171701D01*
X137190000Y-115262574D01*
X137646847Y-115171701D01*
X138034144Y-114912918D01*
X138292927Y-114525621D01*
X138383800Y-114068774D01*
X138383800Y-113711226D01*
X138292927Y-113254379D01*
X138034144Y-112867082D01*
X137791870Y-112705200D01*
X139128130Y-112705200D01*
X138885856Y-112867082D01*
X138627073Y-113254379D01*
X138536200Y-113711226D01*
X138536200Y-114068774D01*
X138627073Y-114525621D01*
X138885856Y-114912918D01*
X139273153Y-115171701D01*
X139730000Y-115262574D01*
X140186847Y-115171701D01*
X140574144Y-114912918D01*
X140832927Y-114525621D01*
X140923800Y-114068774D01*
X140923800Y-113711226D01*
X140832927Y-113254379D01*
X140574144Y-112867082D01*
X140331870Y-112705200D01*
X141668130Y-112705200D01*
X141425856Y-112867082D01*
X141167073Y-113254379D01*
X141076200Y-113711226D01*
X141076200Y-114068774D01*
X141167073Y-114525621D01*
X141425856Y-114912918D01*
X141813153Y-115171701D01*
X142270000Y-115262574D01*
X142726847Y-115171701D01*
X143114144Y-114912918D01*
X143372927Y-114525621D01*
X143407714Y-114350736D01*
X143590148Y-114819716D01*
X143980470Y-115227363D01*
X144409618Y-115433737D01*
X144632200Y-115331950D01*
X144632200Y-114067800D01*
X144987800Y-114067800D01*
X144987800Y-115331950D01*
X145210382Y-115433737D01*
X145639530Y-115227363D01*
X145902200Y-114953034D01*
X145902200Y-115022205D01*
X145991139Y-115236923D01*
X146155478Y-115401261D01*
X146370196Y-115490200D01*
X147026150Y-115490200D01*
X147172200Y-115344150D01*
X147172200Y-114067800D01*
X147527800Y-114067800D01*
X147527800Y-115344150D01*
X147673850Y-115490200D01*
X148329804Y-115490200D01*
X148544522Y-115401261D01*
X148708861Y-115236923D01*
X148797800Y-115022205D01*
X148797800Y-114213850D01*
X148651750Y-114067800D01*
X147527800Y-114067800D01*
X147172200Y-114067800D01*
X144987800Y-114067800D01*
X144632200Y-114067800D01*
X144612200Y-114067800D01*
X144612200Y-113712200D01*
X144632200Y-113712200D01*
X144632200Y-113692200D01*
X144987800Y-113692200D01*
X144987800Y-113712200D01*
X147172200Y-113712200D01*
X147172200Y-113692200D01*
X147527800Y-113692200D01*
X147527800Y-113712200D01*
X148651750Y-113712200D01*
X148797800Y-113566150D01*
X148797800Y-112757795D01*
X148739789Y-112617744D01*
X148786520Y-112586520D01*
X148874356Y-112455063D01*
X148905200Y-112300000D01*
X148905200Y-110492983D01*
X148911261Y-110486922D01*
X149000200Y-110272204D01*
X149000200Y-109463850D01*
X148854150Y-109317800D01*
X147655200Y-109317800D01*
X147655200Y-108962200D01*
X148854150Y-108962200D01*
X149000200Y-108816150D01*
X149000200Y-108007796D01*
X148911261Y-107793078D01*
X148746923Y-107628739D01*
X148532205Y-107539800D01*
X148386371Y-107539800D01*
X148670101Y-107115168D01*
X148772574Y-106600000D01*
X148670101Y-106084832D01*
X148483257Y-105805200D01*
X148500000Y-105805200D01*
X148655063Y-105774356D01*
X148786520Y-105686520D01*
X148874356Y-105555063D01*
X148905200Y-105400000D01*
X148905200Y-101400000D01*
X148874356Y-101244937D01*
X148786520Y-101113480D01*
X148655063Y-101025644D01*
X148637749Y-101022200D01*
X148701750Y-101022200D01*
X148847800Y-100876150D01*
X148847800Y-100067795D01*
X148758861Y-99853077D01*
X148594522Y-99688739D01*
X148379804Y-99599800D01*
X147723850Y-99599800D01*
X147577800Y-99745850D01*
X147577800Y-100994800D01*
X147222200Y-100994800D01*
X147222200Y-99745850D01*
X147076150Y-99599800D01*
X146420196Y-99599800D01*
X146205478Y-99688739D01*
X146041139Y-99853077D01*
X145952200Y-100067795D01*
X145952200Y-100548325D01*
X145704144Y-100177082D01*
X145316847Y-99918299D01*
X144860000Y-99827426D01*
X144403153Y-99918299D01*
X144015856Y-100177082D01*
X143757073Y-100564379D01*
X143671456Y-100994800D01*
X143508544Y-100994800D01*
X143422927Y-100564379D01*
X143164144Y-100177082D01*
X142776847Y-99918299D01*
X142320000Y-99827426D01*
X141863153Y-99918299D01*
X141475856Y-100177082D01*
X141217073Y-100564379D01*
X141131456Y-100994800D01*
X140968544Y-100994800D01*
X140882927Y-100564379D01*
X140624144Y-100177082D01*
X140236847Y-99918299D01*
X139780000Y-99827426D01*
X139323153Y-99918299D01*
X138935856Y-100177082D01*
X138677073Y-100564379D01*
X138591456Y-100994800D01*
X138428544Y-100994800D01*
X138342927Y-100564379D01*
X138084144Y-100177082D01*
X137696847Y-99918299D01*
X137240000Y-99827426D01*
X136783153Y-99918299D01*
X136395856Y-100177082D01*
X136147800Y-100548325D01*
X136147800Y-100067795D01*
X136058861Y-99853077D01*
X135894522Y-99688739D01*
X135679804Y-99599800D01*
X135023850Y-99599800D01*
X134877800Y-99745850D01*
X134877800Y-100994800D01*
X134522200Y-100994800D01*
X134522200Y-99745850D01*
X134376150Y-99599800D01*
X133720196Y-99599800D01*
X133505478Y-99688739D01*
X133341139Y-99853077D01*
X133252200Y-100067795D01*
X133252200Y-100876150D01*
X133392277Y-101016227D01*
X133362260Y-101022198D01*
X133252200Y-101022198D01*
X133252200Y-101087608D01*
X133213480Y-101113480D01*
X133125644Y-101244937D01*
X133094800Y-101400000D01*
X133094800Y-102600000D01*
X133125644Y-102755063D01*
X133213480Y-102886520D01*
X133344937Y-102974356D01*
X133435823Y-102992434D01*
X133268299Y-103243153D01*
X133177426Y-103700000D01*
X133268299Y-104156847D01*
X133527082Y-104544144D01*
X133898325Y-104792200D01*
X133417795Y-104792200D01*
X133203077Y-104881139D01*
X133038739Y-105045478D01*
X133029142Y-105068647D01*
X133011261Y-105025478D01*
X132846923Y-104861139D01*
X132632205Y-104772200D01*
X132151675Y-104772200D01*
X132522918Y-104524144D01*
X132781701Y-104136847D01*
X132872574Y-103680000D01*
X132781701Y-103223153D01*
X132522918Y-102835856D01*
X132135621Y-102577073D01*
X131678774Y-102486200D01*
X131321226Y-102486200D01*
X130864379Y-102577073D01*
X130477082Y-102835856D01*
X130405200Y-102943435D01*
X130405200Y-93112452D01*
X130919483Y-93112452D01*
X131197527Y-93785371D01*
X131711921Y-94300664D01*
X132384354Y-94579882D01*
X133112452Y-94580517D01*
X133785371Y-94302473D01*
X134300664Y-93788079D01*
X134579882Y-93115646D01*
X134580517Y-92387548D01*
X134302473Y-91714629D01*
X133788079Y-91199336D01*
X133115646Y-90920118D01*
X132387548Y-90919483D01*
X131714629Y-91197527D01*
X131199336Y-91711921D01*
X130920118Y-92384354D01*
X130919483Y-93112452D01*
X130405200Y-93112452D01*
X130405200Y-92789908D01*
X130591021Y-91855723D01*
X131097588Y-91097590D01*
X131855723Y-90591021D01*
X132789907Y-90405200D01*
X157850322Y-90405200D01*
X157624618Y-90630511D01*
G36*
X165594800Y-114923331D02*
X165423107Y-114751339D01*
X165217681Y-114666039D01*
X165270391Y-114613420D01*
X165373080Y-114366117D01*
X165373314Y-114098341D01*
X165271056Y-113850859D01*
X165081875Y-113661348D01*
X164876449Y-113576048D01*
X164929160Y-113523429D01*
X165031849Y-113276126D01*
X165032083Y-113008350D01*
X164929825Y-112760868D01*
X164740644Y-112571357D01*
X164535218Y-112486057D01*
X164587928Y-112433439D01*
X164690617Y-112186136D01*
X164690851Y-111918360D01*
X164588593Y-111670878D01*
X164399412Y-111481367D01*
X164193986Y-111396067D01*
X164246696Y-111343448D01*
X164349385Y-111096145D01*
X164349619Y-110828369D01*
X164247361Y-110580887D01*
X164058180Y-110391376D01*
X163810877Y-110288687D01*
X163543101Y-110288453D01*
X163523633Y-110296497D01*
X163491405Y-110218499D01*
X163302224Y-110028988D01*
X163054921Y-109926299D01*
X162787145Y-109926065D01*
X162539663Y-110028323D01*
X162505019Y-110062907D01*
X161806717Y-109469466D01*
X161830261Y-109445922D01*
X161919200Y-109231204D01*
X161919200Y-109203550D01*
X161915650Y-109200000D01*
X161919200Y-109196450D01*
X161919200Y-109168796D01*
X161849282Y-109000000D01*
X161919200Y-108831204D01*
X161919200Y-108803550D01*
X161915650Y-108800000D01*
X161919200Y-108796450D01*
X161919200Y-108768796D01*
X161849282Y-108600000D01*
X161919200Y-108431204D01*
X161919200Y-108403550D01*
X161915650Y-108400000D01*
X161919200Y-108396450D01*
X161919200Y-108368796D01*
X161849282Y-108200000D01*
X161919200Y-108031204D01*
X161919200Y-108003550D01*
X161915650Y-108000000D01*
X161919200Y-107996450D01*
X161919200Y-107968796D01*
X161849282Y-107800000D01*
X161919200Y-107631204D01*
X161919200Y-107603550D01*
X161915650Y-107600000D01*
X161919200Y-107596450D01*
X161919200Y-107568796D01*
X161849282Y-107400000D01*
X161919200Y-107231204D01*
X161919200Y-107203550D01*
X161915650Y-107200000D01*
X161919200Y-107196450D01*
X161919200Y-107168796D01*
X161849282Y-107000000D01*
X161919200Y-106831204D01*
X161919200Y-106803550D01*
X161915650Y-106800000D01*
X161919200Y-106796450D01*
X161919200Y-106768796D01*
X161830261Y-106554078D01*
X161806934Y-106530751D01*
X162504906Y-105937591D01*
X162538668Y-105971412D01*
X162785971Y-106074101D01*
X163053747Y-106074335D01*
X163301229Y-105972077D01*
X163490740Y-105782896D01*
X163523478Y-105704053D01*
X163541927Y-105711714D01*
X163809703Y-105711948D01*
X164057185Y-105609690D01*
X164246696Y-105420509D01*
X164349385Y-105173206D01*
X164349619Y-104905430D01*
X164247361Y-104657948D01*
X164193766Y-104604260D01*
X164398417Y-104519699D01*
X164587928Y-104330518D01*
X164690617Y-104083215D01*
X164690851Y-103815439D01*
X164588593Y-103567957D01*
X164534998Y-103514269D01*
X164739649Y-103429708D01*
X164929160Y-103240527D01*
X165031849Y-102993224D01*
X165032083Y-102725448D01*
X164929825Y-102477966D01*
X164876230Y-102424278D01*
X165080880Y-102339718D01*
X165270391Y-102150537D01*
X165373080Y-101903234D01*
X165373314Y-101635458D01*
X165271056Y-101387976D01*
X165217461Y-101334288D01*
X165422112Y-101249727D01*
X165594800Y-101077340D01*
X165594800Y-114923331D01*
X165594800Y-114923331D01*
G37*
X165594800Y-114923331D02*
X165423107Y-114751339D01*
X165217681Y-114666039D01*
X165270391Y-114613420D01*
X165373080Y-114366117D01*
X165373314Y-114098341D01*
X165271056Y-113850859D01*
X165081875Y-113661348D01*
X164876449Y-113576048D01*
X164929160Y-113523429D01*
X165031849Y-113276126D01*
X165032083Y-113008350D01*
X164929825Y-112760868D01*
X164740644Y-112571357D01*
X164535218Y-112486057D01*
X164587928Y-112433439D01*
X164690617Y-112186136D01*
X164690851Y-111918360D01*
X164588593Y-111670878D01*
X164399412Y-111481367D01*
X164193986Y-111396067D01*
X164246696Y-111343448D01*
X164349385Y-111096145D01*
X164349619Y-110828369D01*
X164247361Y-110580887D01*
X164058180Y-110391376D01*
X163810877Y-110288687D01*
X163543101Y-110288453D01*
X163523633Y-110296497D01*
X163491405Y-110218499D01*
X163302224Y-110028988D01*
X163054921Y-109926299D01*
X162787145Y-109926065D01*
X162539663Y-110028323D01*
X162505019Y-110062907D01*
X161806717Y-109469466D01*
X161830261Y-109445922D01*
X161919200Y-109231204D01*
X161919200Y-109203550D01*
X161915650Y-109200000D01*
X161919200Y-109196450D01*
X161919200Y-109168796D01*
X161849282Y-109000000D01*
X161919200Y-108831204D01*
X161919200Y-108803550D01*
X161915650Y-108800000D01*
X161919200Y-108796450D01*
X161919200Y-108768796D01*
X161849282Y-108600000D01*
X161919200Y-108431204D01*
X161919200Y-108403550D01*
X161915650Y-108400000D01*
X161919200Y-108396450D01*
X161919200Y-108368796D01*
X161849282Y-108200000D01*
X161919200Y-108031204D01*
X161919200Y-108003550D01*
X161915650Y-108000000D01*
X161919200Y-107996450D01*
X161919200Y-107968796D01*
X161849282Y-107800000D01*
X161919200Y-107631204D01*
X161919200Y-107603550D01*
X161915650Y-107600000D01*
X161919200Y-107596450D01*
X161919200Y-107568796D01*
X161849282Y-107400000D01*
X161919200Y-107231204D01*
X161919200Y-107203550D01*
X161915650Y-107200000D01*
X161919200Y-107196450D01*
X161919200Y-107168796D01*
X161849282Y-107000000D01*
X161919200Y-106831204D01*
X161919200Y-106803550D01*
X161915650Y-106800000D01*
X161919200Y-106796450D01*
X161919200Y-106768796D01*
X161830261Y-106554078D01*
X161806934Y-106530751D01*
X162504906Y-105937591D01*
X162538668Y-105971412D01*
X162785971Y-106074101D01*
X163053747Y-106074335D01*
X163301229Y-105972077D01*
X163490740Y-105782896D01*
X163523478Y-105704053D01*
X163541927Y-105711714D01*
X163809703Y-105711948D01*
X164057185Y-105609690D01*
X164246696Y-105420509D01*
X164349385Y-105173206D01*
X164349619Y-104905430D01*
X164247361Y-104657948D01*
X164193766Y-104604260D01*
X164398417Y-104519699D01*
X164587928Y-104330518D01*
X164690617Y-104083215D01*
X164690851Y-103815439D01*
X164588593Y-103567957D01*
X164534998Y-103514269D01*
X164739649Y-103429708D01*
X164929160Y-103240527D01*
X165031849Y-102993224D01*
X165032083Y-102725448D01*
X164929825Y-102477966D01*
X164876230Y-102424278D01*
X165080880Y-102339718D01*
X165270391Y-102150537D01*
X165373080Y-101903234D01*
X165373314Y-101635458D01*
X165271056Y-101387976D01*
X165217461Y-101334288D01*
X165422112Y-101249727D01*
X165594800Y-101077340D01*
X165594800Y-114923331D01*
G36*
X161170000Y-109115000D02*
X160840000Y-109115000D01*
X160840000Y-106885000D01*
X161170000Y-106885000D01*
X161170000Y-109115000D01*
X161170000Y-109115000D01*
G37*
X161170000Y-109115000D02*
X160840000Y-109115000D01*
X160840000Y-106885000D01*
X161170000Y-106885000D01*
X161170000Y-109115000D01*
G36*
X133095850Y-106062200D02*
X134344800Y-106062200D01*
X134344800Y-106417800D01*
X133095850Y-106417800D01*
X133035000Y-106478650D01*
X132954150Y-106397800D01*
X131677800Y-106397800D01*
X131677800Y-106417800D01*
X131322200Y-106417800D01*
X131322200Y-106397800D01*
X131302200Y-106397800D01*
X131302200Y-106042200D01*
X131322200Y-106042200D01*
X131322200Y-106022200D01*
X131677800Y-106022200D01*
X131677800Y-106042200D01*
X132954150Y-106042200D01*
X133015000Y-105981350D01*
X133095850Y-106062200D01*
X133095850Y-106062200D01*
G37*
X133095850Y-106062200D02*
X134344800Y-106062200D01*
X134344800Y-106417800D01*
X133095850Y-106417800D01*
X133035000Y-106478650D01*
X132954150Y-106397800D01*
X131677800Y-106397800D01*
X131677800Y-106417800D01*
X131322200Y-106417800D01*
X131322200Y-106397800D01*
X131302200Y-106397800D01*
X131302200Y-106042200D01*
X131322200Y-106042200D01*
X131322200Y-106022200D01*
X131677800Y-106022200D01*
X131677800Y-106042200D01*
X132954150Y-106042200D01*
X133015000Y-105981350D01*
X133095850Y-106062200D01*
G36*
X164144277Y-90591021D02*
X164902410Y-91097588D01*
X165408979Y-91855723D01*
X165594800Y-92789907D01*
X165594800Y-100280466D01*
X165423107Y-100108474D01*
X165299613Y-100057195D01*
X165299822Y-99817864D01*
X165197564Y-99570382D01*
X165008383Y-99380871D01*
X164761080Y-99278182D01*
X164493304Y-99277948D01*
X164245822Y-99380206D01*
X164170161Y-99455736D01*
X164125216Y-99493931D01*
X164122696Y-99476786D01*
X164212861Y-99386778D01*
X164315550Y-99139475D01*
X164315784Y-98871699D01*
X164213526Y-98624217D01*
X164024345Y-98434706D01*
X163777042Y-98332017D01*
X163509266Y-98331783D01*
X163357108Y-98394654D01*
X163520294Y-98231752D01*
X163622983Y-97984449D01*
X163623217Y-97716673D01*
X163520959Y-97469191D01*
X163331778Y-97279680D01*
X163217190Y-97232099D01*
X163137368Y-97112638D01*
X163005523Y-97024541D01*
X162850000Y-96993606D01*
X162694477Y-97024541D01*
X162562632Y-97112638D01*
X161986479Y-97688791D01*
X161425292Y-97688791D01*
X161663680Y-97450403D01*
X161668534Y-97443138D01*
X161751777Y-97318558D01*
X161782712Y-97163035D01*
X161782712Y-94472515D01*
X162079193Y-94768996D01*
X161929706Y-94918222D01*
X161827017Y-95165525D01*
X161826783Y-95433301D01*
X161929041Y-95680783D01*
X162118222Y-95870294D01*
X162365525Y-95972983D01*
X162633301Y-95973217D01*
X162880783Y-95870959D01*
X163070294Y-95681778D01*
X163172983Y-95434475D01*
X163173217Y-95166699D01*
X163070959Y-94919217D01*
X162906400Y-94754371D01*
X162906400Y-94615067D01*
X162899404Y-94579895D01*
X163612452Y-94580517D01*
X164285371Y-94302473D01*
X164800664Y-93788079D01*
X165079882Y-93115646D01*
X165080517Y-92387548D01*
X164802473Y-91714629D01*
X164288079Y-91199336D01*
X163615646Y-90920118D01*
X162887548Y-90919483D01*
X162214629Y-91197527D01*
X161699336Y-91711921D01*
X161420118Y-92384354D01*
X161419616Y-92959947D01*
X160732401Y-92272732D01*
X160676798Y-92235579D01*
X160600556Y-92184635D01*
X160445033Y-92153700D01*
X159239900Y-92153700D01*
X159178426Y-92165928D01*
X159475382Y-91869489D01*
X159642010Y-91468205D01*
X159642389Y-91033701D01*
X159476462Y-90632127D01*
X159249931Y-90405200D01*
X163210092Y-90405200D01*
X164144277Y-90591021D01*
X164144277Y-90591021D01*
G37*
X164144277Y-90591021D02*
X164902410Y-91097588D01*
X165408979Y-91855723D01*
X165594800Y-92789907D01*
X165594800Y-100280466D01*
X165423107Y-100108474D01*
X165299613Y-100057195D01*
X165299822Y-99817864D01*
X165197564Y-99570382D01*
X165008383Y-99380871D01*
X164761080Y-99278182D01*
X164493304Y-99277948D01*
X164245822Y-99380206D01*
X164170161Y-99455736D01*
X164125216Y-99493931D01*
X164122696Y-99476786D01*
X164212861Y-99386778D01*
X164315550Y-99139475D01*
X164315784Y-98871699D01*
X164213526Y-98624217D01*
X164024345Y-98434706D01*
X163777042Y-98332017D01*
X163509266Y-98331783D01*
X163357108Y-98394654D01*
X163520294Y-98231752D01*
X163622983Y-97984449D01*
X163623217Y-97716673D01*
X163520959Y-97469191D01*
X163331778Y-97279680D01*
X163217190Y-97232099D01*
X163137368Y-97112638D01*
X163005523Y-97024541D01*
X162850000Y-96993606D01*
X162694477Y-97024541D01*
X162562632Y-97112638D01*
X161986479Y-97688791D01*
X161425292Y-97688791D01*
X161663680Y-97450403D01*
X161668534Y-97443138D01*
X161751777Y-97318558D01*
X161782712Y-97163035D01*
X161782712Y-94472515D01*
X162079193Y-94768996D01*
X161929706Y-94918222D01*
X161827017Y-95165525D01*
X161826783Y-95433301D01*
X161929041Y-95680783D01*
X162118222Y-95870294D01*
X162365525Y-95972983D01*
X162633301Y-95973217D01*
X162880783Y-95870959D01*
X163070294Y-95681778D01*
X163172983Y-95434475D01*
X163173217Y-95166699D01*
X163070959Y-94919217D01*
X162906400Y-94754371D01*
X162906400Y-94615067D01*
X162899404Y-94579895D01*
X163612452Y-94580517D01*
X164285371Y-94302473D01*
X164800664Y-93788079D01*
X165079882Y-93115646D01*
X165080517Y-92387548D01*
X164802473Y-91714629D01*
X164288079Y-91199336D01*
X163615646Y-90920118D01*
X162887548Y-90919483D01*
X162214629Y-91197527D01*
X161699336Y-91711921D01*
X161420118Y-92384354D01*
X161419616Y-92959947D01*
X160732401Y-92272732D01*
X160676798Y-92235579D01*
X160600556Y-92184635D01*
X160445033Y-92153700D01*
X159239900Y-92153700D01*
X159178426Y-92165928D01*
X159475382Y-91869489D01*
X159642010Y-91468205D01*
X159642389Y-91033701D01*
X159476462Y-90632127D01*
X159249931Y-90405200D01*
X163210092Y-90405200D01*
X164144277Y-90591021D01*
G36*
X159940032Y-95137368D02*
X160071877Y-95225465D01*
X160227400Y-95256400D01*
X160577486Y-95256400D01*
X160665101Y-95344015D01*
X160665101Y-96335548D01*
X160437562Y-96241066D01*
X160169786Y-96240832D01*
X159922304Y-96343090D01*
X159732793Y-96532271D01*
X159665803Y-96693600D01*
X159157584Y-96693600D01*
X159245261Y-96605922D01*
X159334200Y-96391204D01*
X159334200Y-96223850D01*
X159188150Y-96077800D01*
X158327800Y-96077800D01*
X158327800Y-96097800D01*
X157972200Y-96097800D01*
X157972200Y-96077800D01*
X157952200Y-96077800D01*
X157952200Y-95722200D01*
X157972200Y-95722200D01*
X157972200Y-95702200D01*
X158327800Y-95702200D01*
X158327800Y-95722200D01*
X159188150Y-95722200D01*
X159334200Y-95576150D01*
X159334200Y-95408796D01*
X159245261Y-95194078D01*
X159147884Y-95096700D01*
X159203705Y-95096700D01*
X159418423Y-95007761D01*
X159582761Y-94843422D01*
X159601308Y-94798644D01*
X159940032Y-95137368D01*
X159940032Y-95137368D01*
G37*
X159940032Y-95137368D02*
X160071877Y-95225465D01*
X160227400Y-95256400D01*
X160577486Y-95256400D01*
X160665101Y-95344015D01*
X160665101Y-96335548D01*
X160437562Y-96241066D01*
X160169786Y-96240832D01*
X159922304Y-96343090D01*
X159732793Y-96532271D01*
X159665803Y-96693600D01*
X159157584Y-96693600D01*
X159245261Y-96605922D01*
X159334200Y-96391204D01*
X159334200Y-96223850D01*
X159188150Y-96077800D01*
X158327800Y-96077800D01*
X158327800Y-96097800D01*
X157972200Y-96097800D01*
X157972200Y-96077800D01*
X157952200Y-96077800D01*
X157952200Y-95722200D01*
X157972200Y-95722200D01*
X157972200Y-95702200D01*
X158327800Y-95702200D01*
X158327800Y-95722200D01*
X159188150Y-95722200D01*
X159334200Y-95576150D01*
X159334200Y-95408796D01*
X159245261Y-95194078D01*
X159147884Y-95096700D01*
X159203705Y-95096700D01*
X159418423Y-95007761D01*
X159582761Y-94843422D01*
X159601308Y-94798644D01*
X159940032Y-95137368D01*
G36*
X158910300Y-94437500D02*
X158890300Y-94437500D01*
X158890300Y-94512500D01*
X158534700Y-94512500D01*
X158534700Y-94437500D01*
X158514700Y-94437500D01*
X158514700Y-94349169D01*
X158910300Y-94349169D01*
X158910300Y-94437500D01*
X158910300Y-94437500D01*
G37*
X158910300Y-94437500D02*
X158890300Y-94437500D01*
X158890300Y-94512500D01*
X158534700Y-94512500D01*
X158534700Y-94437500D01*
X158514700Y-94437500D01*
X158514700Y-94349169D01*
X158910300Y-94349169D01*
X158910300Y-94437500D01*
M02*
