G04 #@! TF.FileFunction,Legend,Bot*
%FSLAX46Y46*%
G04 Gerber Fmt 4.6, Leading zero omitted, Abs format (unit mm)*
G04 Created by KiCad (PCBNEW 4.0.1-stable) date Tuesday, April 12, 2016 'PMt' 11:05:27 PM*
%MOMM*%
G01*
G04 APERTURE LIST*
%ADD10C,0.100000*%
%ADD11C,0.200000*%
%ADD12C,0.150000*%
%ADD13C,0.300000*%
%ADD14C,0.175000*%
G04 APERTURE END LIST*
D10*
D11*
X143932884Y-119290000D02*
G75*
G03X143932884Y-119290000I-382884J0D01*
G01*
D12*
X131498571Y-122086190D02*
X131498571Y-121324285D01*
X131117619Y-121705237D02*
X131879524Y-121705237D01*
X132117619Y-120371904D02*
X132117619Y-120848095D01*
X131641429Y-120895714D01*
X131689048Y-120848095D01*
X131736667Y-120752857D01*
X131736667Y-120514761D01*
X131689048Y-120419523D01*
X131641429Y-120371904D01*
X131546190Y-120324285D01*
X131308095Y-120324285D01*
X131212857Y-120371904D01*
X131165238Y-120419523D01*
X131117619Y-120514761D01*
X131117619Y-120752857D01*
X131165238Y-120848095D01*
X131212857Y-120895714D01*
X132117619Y-120038571D02*
X131117619Y-119705238D01*
X132117619Y-119371904D01*
X130784286Y-118800476D02*
X132212857Y-118800476D01*
X131498571Y-118086190D02*
X131498571Y-117324285D01*
X130784286Y-116610000D02*
X132212857Y-116610000D01*
X132117619Y-116038571D02*
X131117619Y-115705238D01*
X132117619Y-115371904D01*
X131117619Y-115038571D02*
X131784286Y-115038571D01*
X132117619Y-115038571D02*
X132070000Y-115086190D01*
X132022381Y-115038571D01*
X132070000Y-114990952D01*
X132117619Y-115038571D01*
X132022381Y-115038571D01*
X131784286Y-114562381D02*
X131117619Y-114562381D01*
X131689048Y-114562381D02*
X131736667Y-114514762D01*
X131784286Y-114419524D01*
X131784286Y-114276666D01*
X131736667Y-114181428D01*
X131641429Y-114133809D01*
X131117619Y-114133809D01*
D13*
X150742857Y-121350000D02*
X150885714Y-121278571D01*
X151100000Y-121278571D01*
X151314285Y-121350000D01*
X151457143Y-121492857D01*
X151528571Y-121635714D01*
X151600000Y-121921429D01*
X151600000Y-122135714D01*
X151528571Y-122421429D01*
X151457143Y-122564286D01*
X151314285Y-122707143D01*
X151100000Y-122778571D01*
X150957143Y-122778571D01*
X150742857Y-122707143D01*
X150671428Y-122635714D01*
X150671428Y-122135714D01*
X150957143Y-122135714D01*
X150028571Y-122778571D02*
X150028571Y-121278571D01*
X149171428Y-122778571D01*
X149171428Y-121278571D01*
X148457142Y-122778571D02*
X148457142Y-121278571D01*
X148099999Y-121278571D01*
X147885714Y-121350000D01*
X147742856Y-121492857D01*
X147671428Y-121635714D01*
X147599999Y-121921429D01*
X147599999Y-122135714D01*
X147671428Y-122421429D01*
X147742856Y-122564286D01*
X147885714Y-122707143D01*
X148099999Y-122778571D01*
X148457142Y-122778571D01*
D12*
X145821429Y-120174286D02*
X145821429Y-120936191D01*
X146202381Y-120555239D02*
X145440476Y-120555239D01*
X145202381Y-121888572D02*
X145202381Y-121412381D01*
X145678571Y-121364762D01*
X145630952Y-121412381D01*
X145583333Y-121507619D01*
X145583333Y-121745715D01*
X145630952Y-121840953D01*
X145678571Y-121888572D01*
X145773810Y-121936191D01*
X146011905Y-121936191D01*
X146107143Y-121888572D01*
X146154762Y-121840953D01*
X146202381Y-121745715D01*
X146202381Y-121507619D01*
X146154762Y-121412381D01*
X146107143Y-121364762D01*
X145202381Y-122221905D02*
X146202381Y-122555238D01*
X145202381Y-122888572D01*
D13*
X143828571Y-121450001D02*
X143114286Y-120950001D01*
X143828571Y-120592858D02*
X142328571Y-120592858D01*
X142328571Y-121164286D01*
X142400000Y-121307144D01*
X142471429Y-121378572D01*
X142614286Y-121450001D01*
X142828571Y-121450001D01*
X142971429Y-121378572D01*
X143042857Y-121307144D01*
X143114286Y-121164286D01*
X143114286Y-120592858D01*
X142328571Y-121950001D02*
X143828571Y-122950001D01*
X142328571Y-122950001D02*
X143828571Y-121950001D01*
X139828571Y-120432143D02*
X139828571Y-121289286D01*
X141328571Y-120860715D02*
X139828571Y-120860715D01*
X139828571Y-121646429D02*
X141328571Y-122646429D01*
X139828571Y-122646429D02*
X141328571Y-121646429D01*
D12*
X138527381Y-120582143D02*
X137527381Y-120582143D01*
X137527381Y-120820238D01*
X137575000Y-120963096D01*
X137670238Y-121058334D01*
X137765476Y-121105953D01*
X137955952Y-121153572D01*
X138098810Y-121153572D01*
X138289286Y-121105953D01*
X138384524Y-121058334D01*
X138479762Y-120963096D01*
X138527381Y-120820238D01*
X138527381Y-120582143D01*
X137527381Y-121439286D02*
X137527381Y-122010715D01*
X138527381Y-121725000D02*
X137527381Y-121725000D01*
X138527381Y-122915477D02*
X138051190Y-122582143D01*
X138527381Y-122344048D02*
X137527381Y-122344048D01*
X137527381Y-122725001D01*
X137575000Y-122820239D01*
X137622619Y-122867858D01*
X137717857Y-122915477D01*
X137860714Y-122915477D01*
X137955952Y-122867858D01*
X138003571Y-122820239D01*
X138051190Y-122725001D01*
X138051190Y-122344048D01*
X147903811Y-98644762D02*
X147760954Y-98692381D01*
X147522858Y-98692381D01*
X147427620Y-98644762D01*
X147380001Y-98597143D01*
X147332382Y-98501905D01*
X147332382Y-98406667D01*
X147380001Y-98311429D01*
X147427620Y-98263810D01*
X147522858Y-98216190D01*
X147713335Y-98168571D01*
X147808573Y-98120952D01*
X147856192Y-98073333D01*
X147903811Y-97978095D01*
X147903811Y-97882857D01*
X147856192Y-97787619D01*
X147808573Y-97740000D01*
X147713335Y-97692381D01*
X147475239Y-97692381D01*
X147332382Y-97740000D01*
X146760954Y-98692381D02*
X146856192Y-98644762D01*
X146903811Y-98597143D01*
X146951430Y-98501905D01*
X146951430Y-98216190D01*
X146903811Y-98120952D01*
X146856192Y-98073333D01*
X146760954Y-98025714D01*
X146618096Y-98025714D01*
X146522858Y-98073333D01*
X146475239Y-98120952D01*
X146427620Y-98216190D01*
X146427620Y-98501905D01*
X146475239Y-98597143D01*
X146522858Y-98644762D01*
X146618096Y-98692381D01*
X146760954Y-98692381D01*
X145856192Y-98692381D02*
X145951430Y-98644762D01*
X145999049Y-98549524D01*
X145999049Y-97692381D01*
X145046667Y-98692381D02*
X145046667Y-97692381D01*
X145046667Y-98644762D02*
X145141905Y-98692381D01*
X145332382Y-98692381D01*
X145427620Y-98644762D01*
X145475239Y-98597143D01*
X145522858Y-98501905D01*
X145522858Y-98216190D01*
X145475239Y-98120952D01*
X145427620Y-98073333D01*
X145332382Y-98025714D01*
X145141905Y-98025714D01*
X145046667Y-98073333D01*
X144189524Y-98644762D02*
X144284762Y-98692381D01*
X144475239Y-98692381D01*
X144570477Y-98644762D01*
X144618096Y-98549524D01*
X144618096Y-98168571D01*
X144570477Y-98073333D01*
X144475239Y-98025714D01*
X144284762Y-98025714D01*
X144189524Y-98073333D01*
X144141905Y-98168571D01*
X144141905Y-98263810D01*
X144618096Y-98359048D01*
X143713334Y-98692381D02*
X143713334Y-98025714D01*
X143713334Y-98216190D02*
X143665715Y-98120952D01*
X143618096Y-98073333D01*
X143522858Y-98025714D01*
X143427619Y-98025714D01*
X142475238Y-98025714D02*
X142094286Y-98025714D01*
X142332381Y-98692381D02*
X142332381Y-97835238D01*
X142284762Y-97740000D01*
X142189524Y-97692381D01*
X142094286Y-97692381D01*
X141760952Y-98692381D02*
X141760952Y-98025714D01*
X141760952Y-98216190D02*
X141713333Y-98120952D01*
X141665714Y-98073333D01*
X141570476Y-98025714D01*
X141475237Y-98025714D01*
X140999047Y-98692381D02*
X141094285Y-98644762D01*
X141141904Y-98597143D01*
X141189523Y-98501905D01*
X141189523Y-98216190D01*
X141141904Y-98120952D01*
X141094285Y-98073333D01*
X140999047Y-98025714D01*
X140856189Y-98025714D01*
X140760951Y-98073333D01*
X140713332Y-98120952D01*
X140665713Y-98216190D01*
X140665713Y-98501905D01*
X140713332Y-98597143D01*
X140760951Y-98644762D01*
X140856189Y-98692381D01*
X140999047Y-98692381D01*
X140237142Y-98692381D02*
X140237142Y-98025714D01*
X140237142Y-98120952D02*
X140189523Y-98073333D01*
X140094285Y-98025714D01*
X139951427Y-98025714D01*
X139856189Y-98073333D01*
X139808570Y-98168571D01*
X139808570Y-98692381D01*
X139808570Y-98168571D02*
X139760951Y-98073333D01*
X139665713Y-98025714D01*
X139522856Y-98025714D01*
X139427618Y-98073333D01*
X139379999Y-98168571D01*
X139379999Y-98692381D01*
X138141904Y-98692381D02*
X138141904Y-97692381D01*
X137713332Y-98692381D02*
X137713332Y-98168571D01*
X137760951Y-98073333D01*
X137856189Y-98025714D01*
X137999047Y-98025714D01*
X138094285Y-98073333D01*
X138141904Y-98120952D01*
X136856189Y-98644762D02*
X136951427Y-98692381D01*
X137141904Y-98692381D01*
X137237142Y-98644762D01*
X137284761Y-98549524D01*
X137284761Y-98168571D01*
X137237142Y-98073333D01*
X137141904Y-98025714D01*
X136951427Y-98025714D01*
X136856189Y-98073333D01*
X136808570Y-98168571D01*
X136808570Y-98263810D01*
X137284761Y-98359048D01*
X136379999Y-98692381D02*
X136379999Y-98025714D01*
X136379999Y-98216190D02*
X136332380Y-98120952D01*
X136284761Y-98073333D01*
X136189523Y-98025714D01*
X136094284Y-98025714D01*
X135379998Y-98644762D02*
X135475236Y-98692381D01*
X135665713Y-98692381D01*
X135760951Y-98644762D01*
X135808570Y-98549524D01*
X135808570Y-98168571D01*
X135760951Y-98073333D01*
X135665713Y-98025714D01*
X135475236Y-98025714D01*
X135379998Y-98073333D01*
X135332379Y-98168571D01*
X135332379Y-98263810D01*
X135808570Y-98359048D01*
X134903808Y-98597143D02*
X134856189Y-98644762D01*
X134903808Y-98692381D01*
X134951427Y-98644762D01*
X134903808Y-98597143D01*
X134903808Y-98692381D01*
D14*
X151831428Y-91835714D02*
X151945714Y-91892857D01*
X152174285Y-91892857D01*
X152288571Y-91835714D01*
X152345714Y-91778571D01*
X152402857Y-91664286D01*
X152402857Y-91321429D01*
X152345714Y-91207143D01*
X152288571Y-91150000D01*
X152174285Y-91092857D01*
X151945714Y-91092857D01*
X151831428Y-91150000D01*
X151317143Y-91892857D02*
X151317143Y-90692857D01*
X151202857Y-91435714D02*
X150860000Y-91892857D01*
X150860000Y-91092857D02*
X151317143Y-91550000D01*
X149831428Y-91892857D02*
X149831428Y-90692857D01*
X149831428Y-91835714D02*
X149945714Y-91892857D01*
X150174285Y-91892857D01*
X150288571Y-91835714D01*
X150345714Y-91778571D01*
X150402857Y-91664286D01*
X150402857Y-91321429D01*
X150345714Y-91207143D01*
X150288571Y-91150000D01*
X150174285Y-91092857D01*
X149945714Y-91092857D01*
X149831428Y-91150000D01*
X149260000Y-91778571D02*
X149202857Y-91835714D01*
X149260000Y-91892857D01*
X149317143Y-91835714D01*
X149260000Y-91778571D01*
X149260000Y-91892857D01*
X148859999Y-91092857D02*
X148402856Y-91092857D01*
X148688571Y-90692857D02*
X148688571Y-91721429D01*
X148631428Y-91835714D01*
X148517142Y-91892857D01*
X148402856Y-91892857D01*
X147545714Y-91835714D02*
X147660000Y-91892857D01*
X147888571Y-91892857D01*
X148002857Y-91835714D01*
X148060000Y-91721429D01*
X148060000Y-91264286D01*
X148002857Y-91150000D01*
X147888571Y-91092857D01*
X147660000Y-91092857D01*
X147545714Y-91150000D01*
X147488571Y-91264286D01*
X147488571Y-91378571D01*
X148060000Y-91492857D01*
X146460000Y-91835714D02*
X146574286Y-91892857D01*
X146802857Y-91892857D01*
X146917143Y-91835714D01*
X146974286Y-91778571D01*
X147031429Y-91664286D01*
X147031429Y-91321429D01*
X146974286Y-91207143D01*
X146917143Y-91150000D01*
X146802857Y-91092857D01*
X146574286Y-91092857D01*
X146460000Y-91150000D01*
X145945715Y-91892857D02*
X145945715Y-90692857D01*
X145431429Y-91892857D02*
X145431429Y-91264286D01*
X145488572Y-91150000D01*
X145602858Y-91092857D01*
X145774286Y-91092857D01*
X145888572Y-91150000D01*
X145945715Y-91207143D01*
X144002858Y-90635714D02*
X145031429Y-92178571D01*
X143088572Y-91092857D02*
X143088572Y-91892857D01*
X143602858Y-91092857D02*
X143602858Y-91721429D01*
X143545715Y-91835714D01*
X143431429Y-91892857D01*
X143260001Y-91892857D01*
X143145715Y-91835714D01*
X143088572Y-91778571D01*
X142288572Y-90692857D02*
X142060001Y-90692857D01*
X141945715Y-90750000D01*
X141831429Y-90864286D01*
X141774287Y-91092857D01*
X141774287Y-91492857D01*
X141831429Y-91721429D01*
X141945715Y-91835714D01*
X142060001Y-91892857D01*
X142288572Y-91892857D01*
X142402858Y-91835714D01*
X142517144Y-91721429D01*
X142574287Y-91492857D01*
X142574287Y-91092857D01*
X142517144Y-90864286D01*
X142402858Y-90750000D01*
X142288572Y-90692857D01*
X141317144Y-91835714D02*
X141145715Y-91892857D01*
X140860001Y-91892857D01*
X140745715Y-91835714D01*
X140688572Y-91778571D01*
X140631429Y-91664286D01*
X140631429Y-91550000D01*
X140688572Y-91435714D01*
X140745715Y-91378571D01*
X140860001Y-91321429D01*
X141088572Y-91264286D01*
X141202858Y-91207143D01*
X141260001Y-91150000D01*
X141317144Y-91035714D01*
X141317144Y-90921429D01*
X141260001Y-90807143D01*
X141202858Y-90750000D01*
X141088572Y-90692857D01*
X140802858Y-90692857D01*
X140631429Y-90750000D01*
X140117144Y-91892857D02*
X140117144Y-90692857D01*
X139831429Y-90692857D01*
X139660001Y-90750000D01*
X139545715Y-90864286D01*
X139488572Y-90978571D01*
X139431429Y-91207143D01*
X139431429Y-91378571D01*
X139488572Y-91607143D01*
X139545715Y-91721429D01*
X139660001Y-91835714D01*
X139831429Y-91892857D01*
X140117144Y-91892857D01*
X138060001Y-90635714D02*
X139088572Y-92178571D01*
X137774286Y-91092857D02*
X137488572Y-91892857D01*
X137202858Y-91092857D01*
X136231429Y-91092857D02*
X136231429Y-91892857D01*
X136517143Y-90635714D02*
X136802858Y-91492857D01*
X136060000Y-91492857D01*
D12*
X131528571Y-101176191D02*
X131528571Y-100414286D01*
X130814286Y-99700001D02*
X132242857Y-99700001D01*
X132147619Y-99128572D02*
X131147619Y-98795239D01*
X132147619Y-98461905D01*
X131147619Y-97985715D02*
X131195238Y-98080953D01*
X131242857Y-98128572D01*
X131338095Y-98176191D01*
X131623810Y-98176191D01*
X131719048Y-98128572D01*
X131766667Y-98080953D01*
X131814286Y-97985715D01*
X131814286Y-97842857D01*
X131766667Y-97747619D01*
X131719048Y-97700000D01*
X131623810Y-97652381D01*
X131338095Y-97652381D01*
X131242857Y-97700000D01*
X131195238Y-97747619D01*
X131147619Y-97842857D01*
X131147619Y-97985715D01*
X131814286Y-96795238D02*
X131147619Y-96795238D01*
X131814286Y-97223810D02*
X131290476Y-97223810D01*
X131195238Y-97176191D01*
X131147619Y-97080953D01*
X131147619Y-96938095D01*
X131195238Y-96842857D01*
X131242857Y-96795238D01*
X131814286Y-96461905D02*
X131814286Y-96080953D01*
X132147619Y-96319048D02*
X131290476Y-96319048D01*
X131195238Y-96271429D01*
X131147619Y-96176191D01*
X131147619Y-96080953D01*
D10*
G36*
X165687579Y-104145562D02*
X164719203Y-104145562D01*
X164601191Y-104373961D01*
X164605263Y-104366814D01*
X164609616Y-104360100D01*
X164614249Y-104353819D01*
X164619164Y-104347971D01*
X164624359Y-104342556D01*
X164629835Y-104337575D01*
X164635592Y-104333027D01*
X164641630Y-104328911D01*
X164647948Y-104325229D01*
X164654548Y-104321981D01*
X164661428Y-104319165D01*
X164668589Y-104316783D01*
X164676031Y-104314833D01*
X164683754Y-104313317D01*
X164691757Y-104312234D01*
X164700041Y-104311585D01*
X164708607Y-104311368D01*
X165174275Y-104311368D01*
X165174263Y-104311368D01*
X165178169Y-104321769D01*
X165181852Y-104332197D01*
X165185312Y-104342653D01*
X165188548Y-104353135D01*
X165191562Y-104363645D01*
X165194352Y-104374182D01*
X165196919Y-104384746D01*
X165199263Y-104395338D01*
X165201383Y-104405957D01*
X165203281Y-104416602D01*
X165204955Y-104427276D01*
X165206406Y-104437976D01*
X165207633Y-104448704D01*
X165208638Y-104459458D01*
X165209419Y-104470240D01*
X165209977Y-104481050D01*
X165210312Y-104491886D01*
X165210423Y-104502750D01*
X165210293Y-104514890D01*
X165209900Y-104526617D01*
X165209246Y-104537930D01*
X165208330Y-104548829D01*
X165207153Y-104559314D01*
X165205714Y-104569386D01*
X165204013Y-104579044D01*
X165202051Y-104588288D01*
X165199827Y-104597118D01*
X165196875Y-104607012D01*
X165193318Y-104616851D01*
X165189155Y-104626636D01*
X165184387Y-104636365D01*
X165179013Y-104646038D01*
X165173034Y-104655657D01*
X165166449Y-104665221D01*
X165159259Y-104674729D01*
X165153529Y-104681471D01*
X165147244Y-104687907D01*
X165140406Y-104694037D01*
X165133015Y-104699861D01*
X165125069Y-104705378D01*
X165116570Y-104710590D01*
X165107517Y-104715495D01*
X165097911Y-104720095D01*
X165087751Y-104724388D01*
X165077037Y-104728375D01*
X165065769Y-104732055D01*
X165057035Y-104734670D01*
X165048004Y-104737104D01*
X165038674Y-104739358D01*
X165029047Y-104741432D01*
X165019122Y-104743325D01*
X165008899Y-104745038D01*
X164998378Y-104746570D01*
X164987559Y-104747923D01*
X164976442Y-104749095D01*
X164965027Y-104750086D01*
X164953315Y-104750898D01*
X164941304Y-104751529D01*
X164928996Y-104751980D01*
X164916390Y-104752250D01*
X164903486Y-104752340D01*
X164890510Y-104752261D01*
X164877815Y-104752023D01*
X164865404Y-104751627D01*
X164853275Y-104751072D01*
X164841428Y-104750359D01*
X164829863Y-104749488D01*
X164818581Y-104748458D01*
X164807582Y-104747269D01*
X164796864Y-104745922D01*
X164786430Y-104744416D01*
X164776277Y-104742753D01*
X164766407Y-104740930D01*
X164756820Y-104738949D01*
X164747515Y-104736810D01*
X164738492Y-104734512D01*
X164729752Y-104732055D01*
X164717395Y-104728382D01*
X164705666Y-104724417D01*
X164694564Y-104720160D01*
X164684089Y-104715612D01*
X164674242Y-104710772D01*
X164665021Y-104705641D01*
X164656428Y-104700218D01*
X164648462Y-104694504D01*
X164641123Y-104688498D01*
X164634411Y-104682200D01*
X164628326Y-104675611D01*
X164620705Y-104666364D01*
X164613718Y-104657145D01*
X164607364Y-104647954D01*
X164601645Y-104638790D01*
X164596560Y-104629653D01*
X164592109Y-104620545D01*
X164588292Y-104611463D01*
X164585109Y-104602410D01*
X164582428Y-104593204D01*
X164580105Y-104583668D01*
X164578138Y-104573802D01*
X164576530Y-104563604D01*
X164575279Y-104553076D01*
X164574385Y-104542217D01*
X164573849Y-104531027D01*
X164573670Y-104519507D01*
X164573810Y-104506295D01*
X164574231Y-104493517D01*
X164574934Y-104481171D01*
X164575916Y-104469259D01*
X164577180Y-104457780D01*
X164578725Y-104446734D01*
X164580550Y-104436121D01*
X164582656Y-104425942D01*
X164585043Y-104416195D01*
X164587711Y-104406882D01*
X164590660Y-104398002D01*
X164593889Y-104389555D01*
X164597400Y-104381542D01*
X164601191Y-104373961D01*
X164719203Y-104145562D01*
X164709526Y-104145709D01*
X164699898Y-104146150D01*
X164690319Y-104146885D01*
X164680788Y-104147914D01*
X164671307Y-104149237D01*
X164661874Y-104150854D01*
X164653252Y-104152690D01*
X164644019Y-104155174D01*
X164634174Y-104158306D01*
X164623716Y-104162085D01*
X164612647Y-104166513D01*
X164600966Y-104171589D01*
X164588674Y-104177312D01*
X164579005Y-104182397D01*
X164569598Y-104187852D01*
X164560452Y-104193677D01*
X164551568Y-104199873D01*
X164542945Y-104206438D01*
X164534583Y-104213374D01*
X164526483Y-104220680D01*
X164518644Y-104228356D01*
X164511066Y-104236403D01*
X164505546Y-104242834D01*
X164500162Y-104249779D01*
X164494912Y-104257239D01*
X164489797Y-104265213D01*
X164484817Y-104273702D01*
X164479972Y-104282705D01*
X164475262Y-104292222D01*
X164470687Y-104302255D01*
X164466247Y-104312801D01*
X164461942Y-104323862D01*
X164457772Y-104335438D01*
X164453737Y-104347528D01*
X164450746Y-104356881D01*
X164447948Y-104366421D01*
X164445344Y-104376146D01*
X164442932Y-104386058D01*
X164440713Y-104396155D01*
X164438687Y-104406439D01*
X164436854Y-104416908D01*
X164435214Y-104427564D01*
X164433767Y-104438406D01*
X164432513Y-104449434D01*
X164431451Y-104460647D01*
X164430583Y-104472047D01*
X164429908Y-104483633D01*
X164429425Y-104495405D01*
X164429136Y-104507363D01*
X164429040Y-104519507D01*
X164429148Y-104530645D01*
X164429474Y-104541719D01*
X164430016Y-104552727D01*
X164430776Y-104563669D01*
X164431753Y-104574547D01*
X164432946Y-104585359D01*
X164434357Y-104596105D01*
X164435985Y-104606787D01*
X164437830Y-104617403D01*
X164439611Y-104626288D01*
X164441757Y-104635304D01*
X164444269Y-104644451D01*
X164447146Y-104653730D01*
X164450389Y-104663140D01*
X164453997Y-104672681D01*
X164457970Y-104682353D01*
X164462309Y-104692157D01*
X164467014Y-104702091D01*
X164472083Y-104712157D01*
X164477519Y-104722354D01*
X164482793Y-104731798D01*
X164488324Y-104741022D01*
X164494113Y-104750025D01*
X164500158Y-104758808D01*
X164506460Y-104767370D01*
X164513020Y-104775712D01*
X164519836Y-104783833D01*
X164526910Y-104791734D01*
X164534241Y-104799414D01*
X164541828Y-104806874D01*
X164549673Y-104814113D01*
X164557775Y-104821132D01*
X164564541Y-104826596D01*
X164571668Y-104831935D01*
X164579155Y-104837148D01*
X164587003Y-104842236D01*
X164595212Y-104847198D01*
X164603781Y-104852035D01*
X164612711Y-104856747D01*
X164622001Y-104861333D01*
X164631652Y-104865794D01*
X164641664Y-104870129D01*
X164652036Y-104874339D01*
X164662769Y-104878423D01*
X164673863Y-104882382D01*
X164685317Y-104886215D01*
X164697131Y-104889924D01*
X164706585Y-104892816D01*
X164716196Y-104895552D01*
X164725962Y-104898132D01*
X164735886Y-104900556D01*
X164745965Y-104902823D01*
X164756201Y-104904934D01*
X164766593Y-104906888D01*
X164777142Y-104908686D01*
X164787847Y-104910328D01*
X164798709Y-104911813D01*
X164809726Y-104913142D01*
X164820900Y-104914315D01*
X164832231Y-104915331D01*
X164843718Y-104916191D01*
X164855361Y-104916895D01*
X164867161Y-104917442D01*
X164879117Y-104917833D01*
X164891229Y-104918068D01*
X164903498Y-104918146D01*
X164916177Y-104918062D01*
X164928681Y-104917810D01*
X164941008Y-104917390D01*
X164953160Y-104916802D01*
X164965135Y-104916046D01*
X164976934Y-104915122D01*
X164988558Y-104914030D01*
X165000005Y-104912770D01*
X165011276Y-104911342D01*
X165022372Y-104909746D01*
X165033291Y-104907982D01*
X165044034Y-104906050D01*
X165054602Y-104903951D01*
X165064993Y-104901683D01*
X165075208Y-104899247D01*
X165085248Y-104896643D01*
X165095111Y-104893871D01*
X165104798Y-104890931D01*
X165114309Y-104887824D01*
X165123645Y-104884548D01*
X165132804Y-104881104D01*
X165144411Y-104876474D01*
X165155638Y-104871623D01*
X165166487Y-104866552D01*
X165176957Y-104861260D01*
X165187048Y-104855748D01*
X165196760Y-104850016D01*
X165206093Y-104844062D01*
X165215047Y-104837889D01*
X165223623Y-104831495D01*
X165231819Y-104824880D01*
X165239636Y-104818045D01*
X165247075Y-104810990D01*
X165254134Y-104803713D01*
X165260815Y-104796217D01*
X165267116Y-104788500D01*
X165273039Y-104780562D01*
X165279459Y-104771352D01*
X165285618Y-104762114D01*
X165291517Y-104752849D01*
X165297154Y-104743557D01*
X165302531Y-104734238D01*
X165307647Y-104724892D01*
X165312502Y-104715519D01*
X165317096Y-104706119D01*
X165321429Y-104696692D01*
X165325502Y-104687238D01*
X165329313Y-104677757D01*
X165332864Y-104668250D01*
X165336154Y-104658715D01*
X165339183Y-104649153D01*
X165341855Y-104639631D01*
X165344330Y-104629966D01*
X165346606Y-104620157D01*
X165348684Y-104610203D01*
X165350565Y-104600106D01*
X165352247Y-104589864D01*
X165353732Y-104579479D01*
X165355019Y-104568950D01*
X165356107Y-104558276D01*
X165356998Y-104547459D01*
X165357691Y-104536498D01*
X165358186Y-104525392D01*
X165358483Y-104514143D01*
X165358582Y-104502750D01*
X165358500Y-104491701D01*
X165358255Y-104480701D01*
X165357847Y-104469751D01*
X165357275Y-104458849D01*
X165356540Y-104447996D01*
X165355642Y-104437192D01*
X165354581Y-104426437D01*
X165353356Y-104415731D01*
X165351968Y-104405075D01*
X165350417Y-104394467D01*
X165348702Y-104383908D01*
X165346824Y-104373398D01*
X165344783Y-104362937D01*
X165342578Y-104352525D01*
X165340210Y-104342163D01*
X165337679Y-104331849D01*
X165334984Y-104321584D01*
X165332127Y-104311368D01*
X165687555Y-104311368D01*
X165687555Y-104145562D01*
X165687579Y-104145562D01*
X165687579Y-104145562D01*
G37*
G36*
X165128421Y-105143042D02*
X164728018Y-105291208D01*
X164736317Y-105288859D01*
X164744899Y-105286661D01*
X164753763Y-105284614D01*
X164762910Y-105282720D01*
X164772339Y-105280976D01*
X164782051Y-105279385D01*
X164792046Y-105277945D01*
X164802323Y-105276656D01*
X164812882Y-105275519D01*
X164823724Y-105274534D01*
X164834848Y-105273700D01*
X164846255Y-105273018D01*
X164857945Y-105272488D01*
X164869916Y-105272109D01*
X164882171Y-105271881D01*
X164894708Y-105271806D01*
X164907248Y-105271881D01*
X164919513Y-105272109D01*
X164931502Y-105272488D01*
X164943215Y-105273018D01*
X164954653Y-105273700D01*
X164965815Y-105274534D01*
X164976702Y-105275519D01*
X164987313Y-105276656D01*
X164997648Y-105277945D01*
X165007708Y-105279385D01*
X165017492Y-105280976D01*
X165027000Y-105282720D01*
X165036233Y-105284614D01*
X165045190Y-105286661D01*
X165053871Y-105288859D01*
X165062277Y-105291208D01*
X165073866Y-105295057D01*
X165084902Y-105299226D01*
X165095383Y-105303716D01*
X165105311Y-105308527D01*
X165114685Y-105313658D01*
X165123505Y-105319110D01*
X165131771Y-105324883D01*
X165139483Y-105330976D01*
X165146641Y-105337390D01*
X165153245Y-105344125D01*
X165159295Y-105351181D01*
X165166088Y-105360011D01*
X165172358Y-105368863D01*
X165178105Y-105377737D01*
X165183331Y-105386633D01*
X165188033Y-105395550D01*
X165192214Y-105404489D01*
X165195872Y-105413450D01*
X165199008Y-105422433D01*
X165201621Y-105431438D01*
X165203845Y-105440660D01*
X165205807Y-105450296D01*
X165207508Y-105460346D01*
X165208947Y-105470809D01*
X165210124Y-105481687D01*
X165211040Y-105492978D01*
X165211694Y-105504682D01*
X165212087Y-105516801D01*
X165212218Y-105529333D01*
X165212087Y-105542051D01*
X165211694Y-105554333D01*
X165211040Y-105566179D01*
X165210124Y-105577590D01*
X165208947Y-105588565D01*
X165207508Y-105599105D01*
X165205807Y-105609209D01*
X165203845Y-105618878D01*
X165201621Y-105628111D01*
X165199005Y-105637116D01*
X165195868Y-105646098D01*
X165192209Y-105655059D01*
X165188028Y-105663999D01*
X165183325Y-105672916D01*
X165178100Y-105681812D01*
X165172354Y-105690686D01*
X165166085Y-105699538D01*
X165159295Y-105708368D01*
X165153245Y-105715416D01*
X165146641Y-105722129D01*
X165139483Y-105728507D01*
X165131771Y-105734549D01*
X165123505Y-105740257D01*
X165114685Y-105745628D01*
X165105311Y-105750665D01*
X165095383Y-105755366D01*
X165084902Y-105759732D01*
X165073866Y-105763763D01*
X165062277Y-105767458D01*
X165053871Y-105769915D01*
X165045190Y-105772213D01*
X165036233Y-105774352D01*
X165027000Y-105776333D01*
X165017492Y-105778155D01*
X165007708Y-105779819D01*
X164997648Y-105781325D01*
X164987313Y-105782672D01*
X164976702Y-105783860D01*
X164965815Y-105784891D01*
X164954653Y-105785762D01*
X164943215Y-105786475D01*
X164931502Y-105787030D01*
X164919513Y-105787426D01*
X164907248Y-105787664D01*
X164894708Y-105787743D01*
X164882171Y-105787664D01*
X164869916Y-105787426D01*
X164857945Y-105787030D01*
X164846255Y-105786475D01*
X164834848Y-105785762D01*
X164823724Y-105784891D01*
X164812882Y-105783860D01*
X164802323Y-105782672D01*
X164792046Y-105781325D01*
X164782051Y-105779819D01*
X164772339Y-105778155D01*
X164762910Y-105776333D01*
X164753763Y-105774352D01*
X164744899Y-105772213D01*
X164736317Y-105769915D01*
X164728018Y-105767458D01*
X164716276Y-105763763D01*
X164705102Y-105759732D01*
X164694497Y-105755366D01*
X164684460Y-105750665D01*
X164674992Y-105745628D01*
X164666092Y-105740257D01*
X164657761Y-105734549D01*
X164649998Y-105728507D01*
X164642804Y-105722129D01*
X164636178Y-105715416D01*
X164630120Y-105708368D01*
X164623328Y-105699538D01*
X164617058Y-105690686D01*
X164611310Y-105681812D01*
X164606085Y-105672916D01*
X164601382Y-105663999D01*
X164597202Y-105655059D01*
X164593543Y-105646098D01*
X164590408Y-105637116D01*
X164587794Y-105628111D01*
X164585571Y-105618878D01*
X164583608Y-105609209D01*
X164581908Y-105599105D01*
X164580469Y-105588565D01*
X164579291Y-105577590D01*
X164578375Y-105566179D01*
X164577721Y-105554333D01*
X164577329Y-105542051D01*
X164577198Y-105529333D01*
X164577329Y-105516801D01*
X164577721Y-105504682D01*
X164578375Y-105492978D01*
X164579291Y-105481687D01*
X164580469Y-105470809D01*
X164581908Y-105460346D01*
X164583608Y-105450296D01*
X164585571Y-105440660D01*
X164587794Y-105431438D01*
X164590410Y-105422433D01*
X164593548Y-105413450D01*
X164597207Y-105404489D01*
X164601388Y-105395550D01*
X164606091Y-105386633D01*
X164611316Y-105377737D01*
X164617062Y-105368863D01*
X164623330Y-105360011D01*
X164630120Y-105351181D01*
X164636178Y-105344125D01*
X164642804Y-105337390D01*
X164649998Y-105330976D01*
X164657761Y-105324883D01*
X164666092Y-105319110D01*
X164674992Y-105313658D01*
X164684460Y-105308527D01*
X164694497Y-105303716D01*
X164705102Y-105299226D01*
X164716276Y-105295057D01*
X164728018Y-105291208D01*
X165128421Y-105143042D01*
X165119596Y-105139672D01*
X165110601Y-105136460D01*
X165101433Y-105133404D01*
X165092095Y-105130505D01*
X165082585Y-105127763D01*
X165072904Y-105125177D01*
X165063052Y-105122748D01*
X165053028Y-105120476D01*
X165042833Y-105118360D01*
X165032467Y-105116401D01*
X165021929Y-105114599D01*
X165011220Y-105112954D01*
X165000340Y-105111465D01*
X164989288Y-105110133D01*
X164978065Y-105108957D01*
X164966671Y-105107939D01*
X164955105Y-105107077D01*
X164943368Y-105106372D01*
X164931460Y-105105823D01*
X164919381Y-105105431D01*
X164907130Y-105105196D01*
X164894708Y-105105118D01*
X164882287Y-105105196D01*
X164870042Y-105105431D01*
X164857972Y-105105823D01*
X164846076Y-105106372D01*
X164834356Y-105107077D01*
X164822810Y-105107939D01*
X164811439Y-105108957D01*
X164800244Y-105110133D01*
X164789223Y-105111465D01*
X164778377Y-105112954D01*
X164767706Y-105114599D01*
X164757210Y-105116401D01*
X164746889Y-105118360D01*
X164736743Y-105120476D01*
X164726772Y-105122748D01*
X164716976Y-105125177D01*
X164707355Y-105127763D01*
X164697909Y-105130505D01*
X164688638Y-105133404D01*
X164679541Y-105136460D01*
X164670620Y-105139672D01*
X164661874Y-105143042D01*
X164650732Y-105147598D01*
X164639927Y-105152343D01*
X164629457Y-105157278D01*
X164619322Y-105162402D01*
X164609523Y-105167715D01*
X164600060Y-105173217D01*
X164590932Y-105178908D01*
X164582140Y-105184789D01*
X164573683Y-105190859D01*
X164565562Y-105197118D01*
X164557776Y-105203566D01*
X164550326Y-105210204D01*
X164543212Y-105217030D01*
X164536433Y-105224046D01*
X164529990Y-105231251D01*
X164523882Y-105238646D01*
X164518110Y-105246229D01*
X164511451Y-105255566D01*
X164505080Y-105264930D01*
X164498996Y-105274321D01*
X164493201Y-105283739D01*
X164487693Y-105293184D01*
X164482474Y-105302656D01*
X164477543Y-105312155D01*
X164472899Y-105321680D01*
X164468544Y-105331233D01*
X164464477Y-105340813D01*
X164460697Y-105350420D01*
X164457206Y-105360054D01*
X164454003Y-105369715D01*
X164451088Y-105379403D01*
X164448294Y-105389293D01*
X164445708Y-105399310D01*
X164443328Y-105409452D01*
X164441156Y-105419720D01*
X164439190Y-105430115D01*
X164437431Y-105440635D01*
X164435879Y-105451281D01*
X164434534Y-105462054D01*
X164433396Y-105472952D01*
X164432465Y-105483976D01*
X164431741Y-105495126D01*
X164431224Y-105506403D01*
X164430913Y-105517805D01*
X164430810Y-105529333D01*
X164430913Y-105540979D01*
X164431224Y-105552480D01*
X164431741Y-105563837D01*
X164432465Y-105575050D01*
X164433396Y-105586120D01*
X164434534Y-105597045D01*
X164435879Y-105607826D01*
X164437431Y-105618464D01*
X164439190Y-105628957D01*
X164441156Y-105639306D01*
X164443328Y-105649512D01*
X164445708Y-105659573D01*
X164448294Y-105669490D01*
X164451088Y-105679264D01*
X164454003Y-105689073D01*
X164457206Y-105698847D01*
X164460697Y-105708584D01*
X164464477Y-105718285D01*
X164468544Y-105727951D01*
X164472899Y-105737580D01*
X164477543Y-105747174D01*
X164482474Y-105756731D01*
X164487693Y-105766252D01*
X164493201Y-105775738D01*
X164498996Y-105785187D01*
X164505080Y-105794601D01*
X164511451Y-105803978D01*
X164518110Y-105813319D01*
X164523882Y-105820903D01*
X164529990Y-105828297D01*
X164536433Y-105835502D01*
X164543212Y-105842518D01*
X164550326Y-105849345D01*
X164557776Y-105855982D01*
X164565562Y-105862431D01*
X164573683Y-105868690D01*
X164582140Y-105874760D01*
X164590932Y-105880640D01*
X164600060Y-105886332D01*
X164609523Y-105891834D01*
X164619322Y-105897147D01*
X164629457Y-105902271D01*
X164639927Y-105907205D01*
X164650732Y-105911951D01*
X164661874Y-105916507D01*
X164670620Y-105919876D01*
X164679541Y-105923089D01*
X164688638Y-105926145D01*
X164697909Y-105929044D01*
X164707355Y-105931786D01*
X164716976Y-105934372D01*
X164726772Y-105936801D01*
X164736743Y-105939073D01*
X164746889Y-105941189D01*
X164757210Y-105943147D01*
X164767706Y-105944950D01*
X164778377Y-105946595D01*
X164789223Y-105948084D01*
X164800244Y-105949416D01*
X164811439Y-105950591D01*
X164822810Y-105951610D01*
X164834356Y-105952472D01*
X164846076Y-105953177D01*
X164857972Y-105953725D01*
X164870042Y-105954117D01*
X164882287Y-105954352D01*
X164894708Y-105954431D01*
X164907130Y-105954352D01*
X164919381Y-105954117D01*
X164931460Y-105953725D01*
X164943368Y-105953177D01*
X164955105Y-105952472D01*
X164966671Y-105951610D01*
X164978065Y-105950591D01*
X164989288Y-105949416D01*
X165000340Y-105948084D01*
X165011220Y-105946595D01*
X165021929Y-105944950D01*
X165032467Y-105943147D01*
X165042833Y-105941189D01*
X165053028Y-105939073D01*
X165063052Y-105936801D01*
X165072904Y-105934372D01*
X165082585Y-105931786D01*
X165092095Y-105929044D01*
X165101433Y-105926145D01*
X165110601Y-105923089D01*
X165119596Y-105919876D01*
X165128421Y-105916507D01*
X165139462Y-105911951D01*
X165150173Y-105907205D01*
X165160555Y-105902271D01*
X165170607Y-105897147D01*
X165180329Y-105891834D01*
X165189722Y-105886332D01*
X165198786Y-105880640D01*
X165207520Y-105874760D01*
X165215924Y-105868690D01*
X165223999Y-105862431D01*
X165231744Y-105855982D01*
X165239159Y-105849345D01*
X165246245Y-105842518D01*
X165253001Y-105835502D01*
X165259428Y-105828297D01*
X165265525Y-105820903D01*
X165271293Y-105813319D01*
X165277957Y-105803978D01*
X165284342Y-105794601D01*
X165290448Y-105785187D01*
X165296275Y-105775738D01*
X165301824Y-105766252D01*
X165307093Y-105756731D01*
X165312084Y-105747174D01*
X165316795Y-105737580D01*
X165321228Y-105727951D01*
X165325381Y-105718285D01*
X165329256Y-105708584D01*
X165332852Y-105698847D01*
X165336169Y-105689073D01*
X165339207Y-105679264D01*
X165341879Y-105669490D01*
X165344354Y-105659573D01*
X165346630Y-105649512D01*
X165348708Y-105639306D01*
X165350589Y-105628957D01*
X165352272Y-105618464D01*
X165353756Y-105607826D01*
X165355043Y-105597045D01*
X165356131Y-105586120D01*
X165357022Y-105575050D01*
X165357715Y-105563837D01*
X165358210Y-105552480D01*
X165358507Y-105540979D01*
X165358606Y-105529333D01*
X165358507Y-105517805D01*
X165358210Y-105506403D01*
X165357715Y-105495126D01*
X165357022Y-105483976D01*
X165356131Y-105472952D01*
X165355043Y-105462054D01*
X165353756Y-105451281D01*
X165352272Y-105440635D01*
X165350589Y-105430115D01*
X165348708Y-105419720D01*
X165346630Y-105409452D01*
X165344354Y-105399310D01*
X165341879Y-105389293D01*
X165339207Y-105379403D01*
X165336169Y-105369715D01*
X165332852Y-105360054D01*
X165329256Y-105350420D01*
X165325381Y-105340813D01*
X165321228Y-105331233D01*
X165316795Y-105321680D01*
X165312084Y-105312155D01*
X165307093Y-105302656D01*
X165301824Y-105293184D01*
X165296275Y-105283739D01*
X165290448Y-105274321D01*
X165284342Y-105264930D01*
X165277957Y-105255566D01*
X165271293Y-105246229D01*
X165265525Y-105238646D01*
X165259428Y-105231251D01*
X165253001Y-105224046D01*
X165246245Y-105217030D01*
X165239159Y-105210204D01*
X165231744Y-105203566D01*
X165223999Y-105197118D01*
X165215924Y-105190859D01*
X165207520Y-105184789D01*
X165198786Y-105178908D01*
X165189722Y-105173217D01*
X165180329Y-105167715D01*
X165170607Y-105162402D01*
X165160555Y-105157278D01*
X165150173Y-105152343D01*
X165139462Y-105147598D01*
X165128421Y-105143042D01*
X165128421Y-105143042D01*
G37*
G36*
X165344493Y-106194319D02*
X164100078Y-106194319D01*
X164100078Y-106360125D01*
X165344493Y-106360125D01*
X165344493Y-106194319D01*
X165344493Y-106194319D01*
G37*
G36*
X164443152Y-106557681D02*
X164443152Y-106734951D01*
X165118715Y-106977486D01*
X164443152Y-107215611D01*
X164443152Y-107392882D01*
X165440632Y-107022465D01*
X165453126Y-107017724D01*
X165465312Y-107012879D01*
X165477189Y-107007930D01*
X165488757Y-107002877D01*
X165500018Y-106997720D01*
X165510969Y-106992459D01*
X165521612Y-106987095D01*
X165531947Y-106981626D01*
X165541973Y-106976054D01*
X165551690Y-106970378D01*
X165561099Y-106964597D01*
X165570200Y-106958713D01*
X165578992Y-106952726D01*
X165587476Y-106946634D01*
X165595651Y-106940438D01*
X165603517Y-106934139D01*
X165611075Y-106927735D01*
X165618325Y-106921228D01*
X165625266Y-106914617D01*
X165631899Y-106907902D01*
X165638223Y-106901083D01*
X165644238Y-106894160D01*
X165649946Y-106887133D01*
X165655344Y-106880003D01*
X165660434Y-106872768D01*
X165665216Y-106865430D01*
X165669689Y-106857988D01*
X165673854Y-106850442D01*
X165677710Y-106842792D01*
X165681258Y-106835038D01*
X165684497Y-106827180D01*
X165687428Y-106819218D01*
X165690050Y-106811153D01*
X165692364Y-106802983D01*
X165694369Y-106794710D01*
X165696065Y-106786333D01*
X165697454Y-106777852D01*
X165698533Y-106769267D01*
X165699305Y-106760578D01*
X165699767Y-106751785D01*
X165699922Y-106742889D01*
X165699922Y-106742010D01*
X165699824Y-106731972D01*
X165699530Y-106721848D01*
X165699040Y-106711638D01*
X165698354Y-106701342D01*
X165697472Y-106690961D01*
X165696393Y-106680494D01*
X165695119Y-106669942D01*
X165693649Y-106659303D01*
X165691983Y-106648579D01*
X165690121Y-106637769D01*
X165688063Y-106626873D01*
X165685809Y-106615892D01*
X165537639Y-106615892D01*
X165540329Y-106626590D01*
X165542755Y-106637164D01*
X165544916Y-106647615D01*
X165546813Y-106657943D01*
X165548446Y-106668147D01*
X165549814Y-106678228D01*
X165550918Y-106688185D01*
X165551757Y-106698018D01*
X165552332Y-106707729D01*
X165552642Y-106717315D01*
X165552411Y-106724735D01*
X165551717Y-106732058D01*
X165550561Y-106739285D01*
X165548942Y-106746416D01*
X165546860Y-106753451D01*
X165544316Y-106760390D01*
X165541310Y-106767232D01*
X165537841Y-106773979D01*
X165533909Y-106780630D01*
X165529515Y-106787185D01*
X165524658Y-106793644D01*
X165519338Y-106800006D01*
X165513556Y-106806273D01*
X165507312Y-106812444D01*
X165500605Y-106818518D01*
X165493435Y-106824497D01*
X165485803Y-106830380D01*
X165477709Y-106836166D01*
X165469151Y-106841857D01*
X165460132Y-106847451D01*
X165450649Y-106852950D01*
X165440704Y-106858352D01*
X165430297Y-106863658D01*
X165419427Y-106868869D01*
X165408094Y-106873983D01*
X165396299Y-106879001D01*
X165384042Y-106883923D01*
X165371321Y-106888750D01*
X165358139Y-106893480D01*
X165344493Y-106898114D01*
X164443152Y-106557683D01*
X164443152Y-106557681D01*
X164443152Y-106557681D01*
G37*
G36*
X164698034Y-107512826D02*
X164686917Y-107513025D01*
X164675968Y-107513620D01*
X164665186Y-107514612D01*
X164654571Y-107516001D01*
X164644125Y-107517787D01*
X164633845Y-107519970D01*
X164623734Y-107522550D01*
X164613790Y-107525526D01*
X164604014Y-107528900D01*
X164594405Y-107532670D01*
X164584964Y-107536837D01*
X164575691Y-107541401D01*
X164566585Y-107546362D01*
X164557647Y-107551720D01*
X164548876Y-107557475D01*
X164540274Y-107563626D01*
X164531838Y-107570175D01*
X164523571Y-107577120D01*
X164515470Y-107584462D01*
X164507538Y-107592201D01*
X164501384Y-107598756D01*
X164495481Y-107605579D01*
X164489829Y-107612670D01*
X164484428Y-107620029D01*
X164479279Y-107627656D01*
X164474380Y-107635551D01*
X164469733Y-107643714D01*
X164465337Y-107652145D01*
X164461193Y-107660845D01*
X164457299Y-107669813D01*
X164453657Y-107679048D01*
X164450266Y-107688552D01*
X164447126Y-107698324D01*
X164444237Y-107708364D01*
X164441599Y-107718672D01*
X164439213Y-107729248D01*
X164437078Y-107740093D01*
X164435194Y-107751205D01*
X164433561Y-107762586D01*
X164432180Y-107774235D01*
X164431049Y-107786152D01*
X164430170Y-107798336D01*
X164429542Y-107810790D01*
X164429165Y-107823511D01*
X164429040Y-107836500D01*
X164429151Y-107847153D01*
X164429486Y-107857793D01*
X164430045Y-107868420D01*
X164430827Y-107879033D01*
X164431832Y-107889633D01*
X164433061Y-107900220D01*
X164434513Y-107910793D01*
X164436188Y-107921353D01*
X164438087Y-107931900D01*
X164440209Y-107942433D01*
X164442555Y-107952953D01*
X164445124Y-107963460D01*
X164447916Y-107973953D01*
X164450932Y-107984433D01*
X164454171Y-107994900D01*
X164457634Y-108005353D01*
X164461320Y-108015793D01*
X164465229Y-108026220D01*
X164469362Y-108036633D01*
X164473718Y-108047033D01*
X164478298Y-108057420D01*
X164483101Y-108067793D01*
X164488127Y-108078153D01*
X164630999Y-108078153D01*
X164625999Y-108067011D01*
X164621242Y-108055930D01*
X164616729Y-108044909D01*
X164612460Y-108033948D01*
X164608435Y-108023046D01*
X164604654Y-108012205D01*
X164601116Y-108001424D01*
X164597823Y-107990702D01*
X164594774Y-107980041D01*
X164591969Y-107969440D01*
X164589407Y-107958898D01*
X164587090Y-107948417D01*
X164585016Y-107937996D01*
X164583187Y-107927634D01*
X164581601Y-107917333D01*
X164580259Y-107907092D01*
X164579162Y-107896910D01*
X164578308Y-107886789D01*
X164577698Y-107876727D01*
X164577332Y-107866726D01*
X164577210Y-107856785D01*
X164577369Y-107843768D01*
X164577844Y-107831243D01*
X164578636Y-107819210D01*
X164579746Y-107807667D01*
X164581172Y-107796615D01*
X164582915Y-107786055D01*
X164584975Y-107775986D01*
X164587352Y-107766408D01*
X164590046Y-107757321D01*
X164593057Y-107748725D01*
X164596385Y-107740621D01*
X164600030Y-107733008D01*
X164603992Y-107725886D01*
X164608271Y-107719255D01*
X164612866Y-107713115D01*
X164617779Y-107707466D01*
X164623008Y-107702309D01*
X164628555Y-107697643D01*
X164634418Y-107693468D01*
X164640599Y-107689784D01*
X164647096Y-107686591D01*
X164653910Y-107683890D01*
X164661042Y-107681679D01*
X164668490Y-107679960D01*
X164676255Y-107678732D01*
X164684337Y-107677996D01*
X164692736Y-107677750D01*
X164701013Y-107678338D01*
X164708984Y-107680102D01*
X164716650Y-107683042D01*
X164724012Y-107687157D01*
X164731068Y-107692449D01*
X164737819Y-107698917D01*
X164744266Y-107706560D01*
X164750407Y-107715380D01*
X164756243Y-107725375D01*
X164760689Y-107734194D01*
X164765048Y-107743335D01*
X164769320Y-107752795D01*
X164773504Y-107762577D01*
X164777600Y-107772679D01*
X164781609Y-107783102D01*
X164785530Y-107793846D01*
X164789363Y-107804910D01*
X164793109Y-107816295D01*
X164796768Y-107828001D01*
X164800339Y-107840028D01*
X164803240Y-107850340D01*
X164806246Y-107860652D01*
X164809356Y-107870964D01*
X164812571Y-107881276D01*
X164815890Y-107891588D01*
X164819314Y-107901900D01*
X164822842Y-107912212D01*
X164826475Y-107922524D01*
X164830212Y-107932835D01*
X164834053Y-107943147D01*
X164837999Y-107953459D01*
X164842050Y-107963771D01*
X164846205Y-107974083D01*
X164850173Y-107983681D01*
X164854519Y-107993072D01*
X164859243Y-108002256D01*
X164864346Y-108011233D01*
X164869826Y-108020003D01*
X164875684Y-108028566D01*
X164881920Y-108036922D01*
X164888534Y-108045071D01*
X164895526Y-108053013D01*
X164902895Y-108060748D01*
X164910643Y-108068276D01*
X164918769Y-108075597D01*
X164927273Y-108082711D01*
X164936155Y-108089618D01*
X164944210Y-108095492D01*
X164952500Y-108100987D01*
X164961023Y-108106103D01*
X164969781Y-108110840D01*
X164978773Y-108115198D01*
X164987999Y-108119177D01*
X164997460Y-108122777D01*
X165007154Y-108125998D01*
X165017083Y-108128841D01*
X165027246Y-108131304D01*
X165037642Y-108133388D01*
X165048274Y-108135093D01*
X165059139Y-108136420D01*
X165070238Y-108137367D01*
X165081572Y-108137936D01*
X165093139Y-108138125D01*
X165103913Y-108137920D01*
X165114536Y-108137305D01*
X165125009Y-108136280D01*
X165135333Y-108134844D01*
X165145506Y-108132999D01*
X165155530Y-108130743D01*
X165165404Y-108128077D01*
X165175127Y-108125002D01*
X165184701Y-108121516D01*
X165194125Y-108117620D01*
X165203399Y-108113314D01*
X165212523Y-108108598D01*
X165221498Y-108103471D01*
X165230322Y-108097935D01*
X165238996Y-108091988D01*
X165247521Y-108085632D01*
X165255895Y-108078865D01*
X165264120Y-108071688D01*
X165272195Y-108064101D01*
X165280119Y-108056104D01*
X165286041Y-108049662D01*
X165291730Y-108042953D01*
X165297187Y-108035979D01*
X165302411Y-108028738D01*
X165307404Y-108021231D01*
X165312164Y-108013458D01*
X165316692Y-108005418D01*
X165320988Y-107997113D01*
X165325052Y-107988542D01*
X165328883Y-107979704D01*
X165332482Y-107970600D01*
X165335849Y-107961230D01*
X165338984Y-107951594D01*
X165341887Y-107941691D01*
X165344557Y-107931523D01*
X165346995Y-107921088D01*
X165349201Y-107910388D01*
X165351175Y-107899421D01*
X165352917Y-107888188D01*
X165354426Y-107876689D01*
X165355703Y-107864923D01*
X165356748Y-107852892D01*
X165357561Y-107840594D01*
X165358141Y-107828030D01*
X165358490Y-107815200D01*
X165358606Y-107802104D01*
X165358506Y-107790580D01*
X165358205Y-107779148D01*
X165357704Y-107767810D01*
X165357003Y-107756565D01*
X165356101Y-107745413D01*
X165354999Y-107734354D01*
X165353697Y-107723388D01*
X165352194Y-107712516D01*
X165350491Y-107701736D01*
X165348587Y-107691050D01*
X165346483Y-107680457D01*
X165344179Y-107669956D01*
X165341675Y-107659550D01*
X165338970Y-107649236D01*
X165336064Y-107639015D01*
X165332958Y-107628887D01*
X165329652Y-107618853D01*
X165326146Y-107608912D01*
X165322439Y-107599064D01*
X165318532Y-107589309D01*
X165314424Y-107579647D01*
X165310116Y-107570078D01*
X165305608Y-107560602D01*
X165300899Y-107551220D01*
X165295990Y-107541931D01*
X165146062Y-107541931D01*
X165151459Y-107551731D01*
X165156626Y-107561584D01*
X165161564Y-107571489D01*
X165166272Y-107581447D01*
X165170751Y-107591456D01*
X165175000Y-107601517D01*
X165179019Y-107611630D01*
X165182808Y-107621796D01*
X165186368Y-107632013D01*
X165189698Y-107642282D01*
X165192799Y-107652604D01*
X165195670Y-107662977D01*
X165198311Y-107673403D01*
X165200722Y-107683881D01*
X165202904Y-107694410D01*
X165204856Y-107704992D01*
X165206579Y-107715626D01*
X165208072Y-107726312D01*
X165209335Y-107737050D01*
X165210368Y-107747840D01*
X165211172Y-107758682D01*
X165211746Y-107769576D01*
X165212091Y-107780523D01*
X165212206Y-107791521D01*
X165212206Y-107795049D01*
X165212023Y-107808101D01*
X165211475Y-107820662D01*
X165210562Y-107832733D01*
X165209284Y-107844313D01*
X165207640Y-107855402D01*
X165205631Y-107866001D01*
X165203257Y-107876110D01*
X165200518Y-107885727D01*
X165197414Y-107894855D01*
X165193944Y-107903492D01*
X165190109Y-107911638D01*
X165185909Y-107919294D01*
X165181343Y-107926459D01*
X165174825Y-107935172D01*
X165167972Y-107942969D01*
X165160784Y-107949848D01*
X165153261Y-107955810D01*
X165145402Y-107960855D01*
X165137209Y-107964982D01*
X165128681Y-107968192D01*
X165119818Y-107970485D01*
X165110620Y-107971861D01*
X165101087Y-107972320D01*
X165091165Y-107971926D01*
X165081608Y-107970745D01*
X165072416Y-107968777D01*
X165063588Y-107966022D01*
X165055125Y-107962480D01*
X165047027Y-107958150D01*
X165039293Y-107953034D01*
X165031924Y-107947130D01*
X165024919Y-107940439D01*
X165018279Y-107932960D01*
X165012004Y-107924695D01*
X165006382Y-107916757D01*
X165000981Y-107908526D01*
X164995801Y-107900000D01*
X164990840Y-107891181D01*
X164986100Y-107882067D01*
X164981581Y-107872660D01*
X164977282Y-107862959D01*
X164973204Y-107852963D01*
X164969345Y-107842674D01*
X164965708Y-107832091D01*
X164962290Y-107821213D01*
X164959094Y-107810042D01*
X164956086Y-107799594D01*
X164953038Y-107789147D01*
X164949947Y-107778699D01*
X164946816Y-107768251D01*
X164943642Y-107757804D01*
X164940427Y-107747356D01*
X164937170Y-107736909D01*
X164933872Y-107726461D01*
X164930532Y-107716013D01*
X164927150Y-107705566D01*
X164923727Y-107695118D01*
X164920262Y-107684670D01*
X164916756Y-107674223D01*
X164912914Y-107664025D01*
X164908718Y-107654058D01*
X164904167Y-107644320D01*
X164899261Y-107634812D01*
X164894001Y-107625533D01*
X164888385Y-107616484D01*
X164882416Y-107607664D01*
X164876091Y-107599075D01*
X164869412Y-107590714D01*
X164862378Y-107582584D01*
X164854990Y-107574683D01*
X164847246Y-107567012D01*
X164839148Y-107559570D01*
X164831717Y-107553545D01*
X164824002Y-107547936D01*
X164816006Y-107542742D01*
X164807727Y-107537964D01*
X164799167Y-107533601D01*
X164790324Y-107529654D01*
X164781198Y-107526123D01*
X164771791Y-107523006D01*
X164762101Y-107520306D01*
X164752129Y-107518020D01*
X164741874Y-107516151D01*
X164731338Y-107514697D01*
X164720519Y-107513658D01*
X164709418Y-107513035D01*
X164698034Y-107512827D01*
X164698034Y-107512826D01*
X164698034Y-107512826D01*
G37*
G36*
X164582496Y-108266889D02*
X164443152Y-108266889D01*
X164443152Y-108423875D01*
X164174158Y-108423875D01*
X164174158Y-108588799D01*
X164443152Y-108588799D01*
X164443152Y-108828688D01*
X164582496Y-108828688D01*
X164582496Y-108588799D01*
X165106373Y-108588799D01*
X165115775Y-108589074D01*
X165124741Y-108589899D01*
X165133268Y-108591275D01*
X165141359Y-108593201D01*
X165149012Y-108595677D01*
X165156228Y-108598704D01*
X165163006Y-108602281D01*
X165169348Y-108606408D01*
X165175252Y-108611086D01*
X165180718Y-108616314D01*
X165185747Y-108622092D01*
X165190339Y-108628421D01*
X165194494Y-108635299D01*
X165198211Y-108642728D01*
X165201491Y-108650708D01*
X165204334Y-108659238D01*
X165206739Y-108668318D01*
X165208707Y-108677948D01*
X165210238Y-108688129D01*
X165211331Y-108698860D01*
X165211987Y-108710141D01*
X165212206Y-108721972D01*
X165212206Y-108723736D01*
X165211941Y-108735898D01*
X165211147Y-108747690D01*
X165209825Y-108759111D01*
X165207973Y-108770162D01*
X165205592Y-108780842D01*
X165202682Y-108791152D01*
X165199242Y-108801092D01*
X165195274Y-108810661D01*
X165190777Y-108819860D01*
X165185750Y-108828688D01*
X165333921Y-108828688D01*
X165337864Y-108818398D01*
X165341463Y-108808109D01*
X165344721Y-108797820D01*
X165347635Y-108787530D01*
X165350206Y-108777241D01*
X165352435Y-108766952D01*
X165354320Y-108756662D01*
X165355863Y-108746373D01*
X165357063Y-108736084D01*
X165357920Y-108725794D01*
X165358434Y-108715505D01*
X165358606Y-108705216D01*
X165358606Y-108700806D01*
X165358444Y-108691393D01*
X165357957Y-108681799D01*
X165357146Y-108672026D01*
X165356011Y-108662072D01*
X165354551Y-108651939D01*
X165352767Y-108641626D01*
X165350658Y-108631132D01*
X165348708Y-108622716D01*
X165346387Y-108613929D01*
X165343697Y-108604772D01*
X165340638Y-108595245D01*
X165337208Y-108585347D01*
X165333410Y-108575080D01*
X165329241Y-108564442D01*
X165324704Y-108553434D01*
X165319796Y-108542056D01*
X165315189Y-108532901D01*
X165310027Y-108524038D01*
X165304312Y-108515466D01*
X165298043Y-108507186D01*
X165291220Y-108499198D01*
X165283842Y-108491501D01*
X165275912Y-108484095D01*
X165267427Y-108476982D01*
X165258388Y-108470159D01*
X165248795Y-108463628D01*
X165238649Y-108457389D01*
X165230194Y-108452773D01*
X165221460Y-108448498D01*
X165212447Y-108444565D01*
X165203155Y-108440974D01*
X165193585Y-108437726D01*
X165183735Y-108434819D01*
X165173607Y-108432254D01*
X165163199Y-108430031D01*
X165152513Y-108428150D01*
X165141548Y-108426611D01*
X165130303Y-108425414D01*
X165118780Y-108424559D01*
X165106978Y-108424046D01*
X165094897Y-108423875D01*
X164582484Y-108423875D01*
X164582484Y-108266889D01*
X164582496Y-108266889D01*
X164582496Y-108266889D01*
G37*
G36*
X165060507Y-108995375D02*
X165058713Y-109159416D01*
X165067872Y-109159615D01*
X165076750Y-109160213D01*
X165085346Y-109161209D01*
X165093660Y-109162604D01*
X165101692Y-109164397D01*
X165109442Y-109166588D01*
X165116911Y-109169178D01*
X165124097Y-109172167D01*
X165131002Y-109175553D01*
X165137625Y-109179339D01*
X165143966Y-109183523D01*
X165150026Y-109188105D01*
X165155803Y-109193085D01*
X165161299Y-109198465D01*
X165166513Y-109204242D01*
X165171445Y-109210418D01*
X165176095Y-109216993D01*
X165180463Y-109223966D01*
X165184550Y-109231337D01*
X165188355Y-109239107D01*
X165191878Y-109247275D01*
X165195119Y-109255842D01*
X165198078Y-109264807D01*
X165200755Y-109274171D01*
X165203151Y-109283933D01*
X165205265Y-109294094D01*
X165207096Y-109304653D01*
X165208647Y-109315610D01*
X165209915Y-109326966D01*
X165210901Y-109338721D01*
X165211606Y-109350873D01*
X165212028Y-109363425D01*
X165212169Y-109376374D01*
X165212169Y-109379020D01*
X165212026Y-109391608D01*
X165211594Y-109403797D01*
X165210875Y-109415586D01*
X165209868Y-109426976D01*
X165208574Y-109437966D01*
X165206992Y-109448556D01*
X165205122Y-109458746D01*
X165202964Y-109468537D01*
X165200519Y-109477929D01*
X165197787Y-109486920D01*
X165194766Y-109495512D01*
X165191458Y-109503705D01*
X165187863Y-109511498D01*
X165183979Y-109518891D01*
X165179808Y-109525884D01*
X165175350Y-109532478D01*
X165170603Y-109538673D01*
X165165569Y-109544467D01*
X165160248Y-109549862D01*
X165154638Y-109554858D01*
X165148741Y-109559453D01*
X165142557Y-109563649D01*
X165136085Y-109567446D01*
X165129325Y-109570843D01*
X165122277Y-109573840D01*
X165114942Y-109576438D01*
X165107319Y-109578636D01*
X165099409Y-109580434D01*
X165091210Y-109581833D01*
X165082725Y-109582832D01*
X165073951Y-109583431D01*
X165064890Y-109583631D01*
X164918478Y-109583631D01*
X164917014Y-109574173D01*
X164915649Y-109564444D01*
X164914384Y-109554446D01*
X164913219Y-109544177D01*
X164912153Y-109533639D01*
X164911186Y-109522831D01*
X164910320Y-109511753D01*
X164909552Y-109500404D01*
X164908884Y-109488786D01*
X164908316Y-109476898D01*
X164907847Y-109464740D01*
X164907478Y-109452311D01*
X164907208Y-109439613D01*
X164907038Y-109426645D01*
X164907183Y-109416242D01*
X164907618Y-109405694D01*
X164908343Y-109395003D01*
X164909358Y-109384168D01*
X164910663Y-109373188D01*
X164912258Y-109362065D01*
X164914143Y-109350798D01*
X164915803Y-109340779D01*
X164917714Y-109330568D01*
X164919875Y-109320164D01*
X164922286Y-109309567D01*
X164924947Y-109298777D01*
X164927859Y-109287794D01*
X164931021Y-109276618D01*
X164934433Y-109265249D01*
X164937797Y-109255254D01*
X164941619Y-109245650D01*
X164945899Y-109236439D01*
X164950635Y-109227619D01*
X164955829Y-109219192D01*
X164961480Y-109211157D01*
X164967589Y-109203513D01*
X164974155Y-109196261D01*
X164981178Y-109189402D01*
X164989529Y-109182374D01*
X164998265Y-109176283D01*
X165007388Y-109171129D01*
X165016896Y-109166912D01*
X165026789Y-109163633D01*
X165037069Y-109161290D01*
X165047734Y-109159884D01*
X165058785Y-109159416D01*
X165058713Y-109159416D01*
X165060507Y-108995375D01*
X165049439Y-108995571D01*
X165038576Y-108996159D01*
X165027919Y-108997139D01*
X165017466Y-108998511D01*
X165007219Y-109000275D01*
X164997176Y-109002431D01*
X164987339Y-109004978D01*
X164977707Y-109007918D01*
X164968280Y-109011250D01*
X164959058Y-109014974D01*
X164950042Y-109019090D01*
X164941230Y-109023597D01*
X164932624Y-109028497D01*
X164924222Y-109033789D01*
X164916026Y-109039472D01*
X164908035Y-109045548D01*
X164900249Y-109052016D01*
X164892668Y-109058875D01*
X164885293Y-109066127D01*
X164878122Y-109073770D01*
X164871157Y-109081806D01*
X164864396Y-109090233D01*
X164857841Y-109099053D01*
X164851491Y-109108264D01*
X164846519Y-109115885D01*
X164841715Y-109123696D01*
X164837080Y-109131697D01*
X164832613Y-109139889D01*
X164828315Y-109148270D01*
X164824185Y-109156841D01*
X164820224Y-109165603D01*
X164816432Y-109174555D01*
X164812808Y-109183697D01*
X164809352Y-109193029D01*
X164806066Y-109202551D01*
X164802947Y-109212263D01*
X164799998Y-109222165D01*
X164797217Y-109232258D01*
X164794604Y-109242540D01*
X164792160Y-109253013D01*
X164789884Y-109263675D01*
X164787777Y-109274528D01*
X164785839Y-109285571D01*
X164784069Y-109296804D01*
X164782468Y-109308227D01*
X164781035Y-109319840D01*
X164779771Y-109331644D01*
X164778676Y-109343637D01*
X164777749Y-109355821D01*
X164776990Y-109368195D01*
X164776400Y-109380758D01*
X164775979Y-109393512D01*
X164775726Y-109406456D01*
X164775642Y-109419590D01*
X164775689Y-109430856D01*
X164775830Y-109442074D01*
X164776065Y-109453245D01*
X164776395Y-109464370D01*
X164776819Y-109475447D01*
X164777337Y-109486477D01*
X164777949Y-109497460D01*
X164778656Y-109508396D01*
X164779456Y-109519285D01*
X164780351Y-109530127D01*
X164781340Y-109540922D01*
X164782423Y-109551670D01*
X164783601Y-109562371D01*
X164784872Y-109573025D01*
X164786238Y-109583632D01*
X164773076Y-109582829D01*
X164760360Y-109581667D01*
X164748089Y-109580144D01*
X164736264Y-109578261D01*
X164724884Y-109576018D01*
X164713950Y-109573415D01*
X164703461Y-109570451D01*
X164693418Y-109567128D01*
X164683820Y-109563445D01*
X164674668Y-109559401D01*
X164665961Y-109554998D01*
X164657700Y-109550234D01*
X164649884Y-109545110D01*
X164642514Y-109539626D01*
X164635589Y-109533782D01*
X164629110Y-109527578D01*
X164623076Y-109521014D01*
X164618015Y-109514870D01*
X164613227Y-109508320D01*
X164608713Y-109501364D01*
X164604472Y-109494003D01*
X164600505Y-109486237D01*
X164596812Y-109478065D01*
X164593392Y-109469487D01*
X164590246Y-109460504D01*
X164587373Y-109451116D01*
X164584774Y-109441321D01*
X164582449Y-109431122D01*
X164580397Y-109420516D01*
X164578618Y-109409505D01*
X164577114Y-109398089D01*
X164575883Y-109386267D01*
X164574925Y-109374040D01*
X164574241Y-109361406D01*
X164573831Y-109348368D01*
X164573694Y-109334924D01*
X164573779Y-109324695D01*
X164574034Y-109314411D01*
X164574459Y-109304069D01*
X164575054Y-109293671D01*
X164575819Y-109283216D01*
X164576755Y-109272704D01*
X164577860Y-109262136D01*
X164579135Y-109251511D01*
X164580580Y-109240829D01*
X164582196Y-109230091D01*
X164583981Y-109219296D01*
X164585937Y-109208444D01*
X164588062Y-109197535D01*
X164590358Y-109186570D01*
X164592823Y-109175548D01*
X164595459Y-109164470D01*
X164598264Y-109153335D01*
X164601240Y-109142143D01*
X164604386Y-109130894D01*
X164607701Y-109119589D01*
X164611187Y-109108227D01*
X164614843Y-109096809D01*
X164618669Y-109085333D01*
X164477555Y-109085333D01*
X164473752Y-109095591D01*
X164470105Y-109105902D01*
X164466612Y-109116266D01*
X164463275Y-109126685D01*
X164460094Y-109137156D01*
X164457067Y-109147682D01*
X164454196Y-109158261D01*
X164451479Y-109168894D01*
X164448919Y-109179580D01*
X164446513Y-109190320D01*
X164444262Y-109201114D01*
X164442167Y-109211961D01*
X164440227Y-109222862D01*
X164438442Y-109233816D01*
X164436812Y-109244824D01*
X164435338Y-109255886D01*
X164434018Y-109267001D01*
X164432854Y-109278170D01*
X164431845Y-109289393D01*
X164430992Y-109300669D01*
X164430293Y-109311999D01*
X164429750Y-109323382D01*
X164429362Y-109334819D01*
X164429129Y-109346310D01*
X164429052Y-109357854D01*
X164429160Y-109370283D01*
X164429487Y-109382521D01*
X164430031Y-109394570D01*
X164430792Y-109406428D01*
X164431771Y-109418096D01*
X164432968Y-109429574D01*
X164434382Y-109440862D01*
X164436013Y-109451960D01*
X164437862Y-109462867D01*
X164439929Y-109473585D01*
X164442213Y-109484112D01*
X164444715Y-109494450D01*
X164447435Y-109504597D01*
X164450371Y-109514554D01*
X164453526Y-109524321D01*
X164456898Y-109533898D01*
X164460488Y-109543285D01*
X164464295Y-109552482D01*
X164468319Y-109561488D01*
X164472562Y-109570305D01*
X164477021Y-109578931D01*
X164481699Y-109587367D01*
X164486593Y-109595614D01*
X164491706Y-109603670D01*
X164497036Y-109611536D01*
X164502583Y-109619212D01*
X164508348Y-109626697D01*
X164514331Y-109633993D01*
X164520531Y-109641098D01*
X164526949Y-109648014D01*
X164533742Y-109654948D01*
X164540738Y-109661638D01*
X164547937Y-109668086D01*
X164555340Y-109674290D01*
X164562946Y-109680251D01*
X164570756Y-109685968D01*
X164578769Y-109691442D01*
X164586986Y-109696673D01*
X164595406Y-109701660D01*
X164604030Y-109706405D01*
X164612856Y-109710906D01*
X164621887Y-109715163D01*
X164631121Y-109719178D01*
X164640558Y-109722949D01*
X164650199Y-109726477D01*
X164660043Y-109729761D01*
X164670090Y-109732802D01*
X164680341Y-109735600D01*
X164690795Y-109738155D01*
X164701453Y-109740466D01*
X164712315Y-109742534D01*
X164723379Y-109744359D01*
X164734647Y-109745940D01*
X164746119Y-109747278D01*
X164757794Y-109748373D01*
X164769672Y-109749225D01*
X164781754Y-109749833D01*
X164794039Y-109750198D01*
X164806528Y-109750320D01*
X165066696Y-109750320D01*
X165076398Y-109750148D01*
X165086099Y-109749634D01*
X165095801Y-109748776D01*
X165105502Y-109747576D01*
X165115203Y-109746032D01*
X165124905Y-109744146D01*
X165133311Y-109742292D01*
X165142401Y-109739754D01*
X165152174Y-109736532D01*
X165162631Y-109732626D01*
X165173772Y-109728037D01*
X165185597Y-109722763D01*
X165198105Y-109716806D01*
X165207960Y-109711906D01*
X165217532Y-109706614D01*
X165226821Y-109700931D01*
X165235827Y-109694855D01*
X165244549Y-109688387D01*
X165252987Y-109681528D01*
X165261143Y-109674276D01*
X165269015Y-109666633D01*
X165276603Y-109658597D01*
X165282127Y-109652166D01*
X165287529Y-109645221D01*
X165292808Y-109637761D01*
X165297965Y-109629787D01*
X165302999Y-109621298D01*
X165307911Y-109612295D01*
X165312701Y-109602778D01*
X165317368Y-109592745D01*
X165321912Y-109582199D01*
X165326335Y-109571138D01*
X165330634Y-109559562D01*
X165334812Y-109547472D01*
X165337695Y-109538122D01*
X165340391Y-109528593D01*
X165342902Y-109518885D01*
X165345227Y-109508997D01*
X165347366Y-109498931D01*
X165349319Y-109488685D01*
X165351086Y-109478260D01*
X165352666Y-109467656D01*
X165354061Y-109456873D01*
X165355270Y-109445911D01*
X165356293Y-109434769D01*
X165357130Y-109423449D01*
X165357781Y-109411949D01*
X165358246Y-109400270D01*
X165358525Y-109388412D01*
X165358618Y-109376375D01*
X165358521Y-109364014D01*
X165358232Y-109351846D01*
X165357750Y-109339871D01*
X165357075Y-109328089D01*
X165356207Y-109316499D01*
X165355147Y-109305103D01*
X165353893Y-109293899D01*
X165352447Y-109282889D01*
X165350807Y-109272071D01*
X165348975Y-109261447D01*
X165346950Y-109251015D01*
X165344733Y-109240776D01*
X165342322Y-109230730D01*
X165339718Y-109220877D01*
X165336922Y-109211217D01*
X165333933Y-109201750D01*
X165329613Y-109189513D01*
X165325183Y-109177791D01*
X165320644Y-109166583D01*
X165315994Y-109155889D01*
X165311234Y-109145710D01*
X165306364Y-109136045D01*
X165301384Y-109126895D01*
X165296294Y-109118259D01*
X165291094Y-109110138D01*
X165285784Y-109102531D01*
X165280363Y-109095439D01*
X165274833Y-109088861D01*
X165268007Y-109081426D01*
X165260934Y-109074291D01*
X165253614Y-109067456D01*
X165246047Y-109060921D01*
X165238233Y-109054686D01*
X165230172Y-109048750D01*
X165221863Y-109043115D01*
X165213308Y-109037779D01*
X165204505Y-109032743D01*
X165195456Y-109028007D01*
X165184240Y-109022757D01*
X165173521Y-109018030D01*
X165163297Y-109013827D01*
X165153570Y-109010148D01*
X165144338Y-109006992D01*
X165135602Y-109004360D01*
X165127362Y-109002251D01*
X165119619Y-109000667D01*
X165109645Y-108999050D01*
X165099721Y-108997727D01*
X165089846Y-108996698D01*
X165080021Y-108995963D01*
X165070245Y-108995521D01*
X165060519Y-108995374D01*
X165060507Y-108995375D01*
X165060507Y-108995375D01*
G37*
G36*
X165238661Y-110046653D02*
X165231720Y-110040493D01*
X165224607Y-110034511D01*
X165217321Y-110028709D01*
X165209862Y-110023084D01*
X165202231Y-110017639D01*
X165194426Y-110012371D01*
X165186449Y-110007283D01*
X165178299Y-110002373D01*
X165169977Y-109997641D01*
X165161481Y-109993088D01*
X165152813Y-109988714D01*
X165143972Y-109984518D01*
X165134958Y-109980500D01*
X165125771Y-109976662D01*
X165116412Y-109973001D01*
X165106880Y-109969520D01*
X165097175Y-109966217D01*
X165087297Y-109963092D01*
X165077246Y-109960146D01*
X165067023Y-109957378D01*
X165056627Y-109954789D01*
X165046058Y-109952379D01*
X165035316Y-109950147D01*
X165024401Y-109948094D01*
X165013314Y-109946219D01*
X165002054Y-109944523D01*
X164990621Y-109943005D01*
X164979015Y-109941666D01*
X164967237Y-109940506D01*
X164955286Y-109939524D01*
X164943162Y-109938720D01*
X164930865Y-109938095D01*
X164918395Y-109937649D01*
X164905753Y-109937381D01*
X164892938Y-109937292D01*
X164880123Y-109937381D01*
X164867483Y-109937649D01*
X164855017Y-109938095D01*
X164842725Y-109938720D01*
X164830608Y-109939524D01*
X164818665Y-109940506D01*
X164806896Y-109941666D01*
X164795301Y-109943005D01*
X164783880Y-109944523D01*
X164772634Y-109946219D01*
X164761562Y-109948094D01*
X164750664Y-109950147D01*
X164739941Y-109952379D01*
X164729391Y-109954789D01*
X164719016Y-109957378D01*
X164708815Y-109960146D01*
X164698789Y-109963092D01*
X164688936Y-109966217D01*
X164679258Y-109969520D01*
X164669754Y-109973001D01*
X164660425Y-109976662D01*
X164651269Y-109980500D01*
X164642288Y-109984518D01*
X164633481Y-109988714D01*
X164624849Y-109993088D01*
X164616390Y-109997641D01*
X164608106Y-110002373D01*
X164599996Y-110007283D01*
X164592061Y-110012371D01*
X164584299Y-110017639D01*
X164576712Y-110023084D01*
X164569299Y-110028709D01*
X164562060Y-110034511D01*
X164554996Y-110040493D01*
X164548106Y-110046653D01*
X164540999Y-110053369D01*
X164534111Y-110060262D01*
X164527441Y-110067331D01*
X164520991Y-110074577D01*
X164514759Y-110081999D01*
X164508745Y-110089598D01*
X164502950Y-110097374D01*
X164497374Y-110105326D01*
X164492017Y-110113455D01*
X164486878Y-110121760D01*
X164481958Y-110130242D01*
X164477256Y-110138900D01*
X164472774Y-110147735D01*
X164468510Y-110156746D01*
X164464464Y-110165934D01*
X164460638Y-110175298D01*
X164457029Y-110184839D01*
X164453640Y-110194557D01*
X164450469Y-110204451D01*
X164447517Y-110214522D01*
X164444784Y-110224769D01*
X164442269Y-110235193D01*
X164439973Y-110245793D01*
X164437896Y-110256570D01*
X164436037Y-110267524D01*
X164434397Y-110278654D01*
X164432976Y-110289960D01*
X164431773Y-110301443D01*
X164430789Y-110313103D01*
X164430024Y-110324939D01*
X164429477Y-110336952D01*
X164429149Y-110349141D01*
X164429040Y-110361507D01*
X164429120Y-110372498D01*
X164429361Y-110383458D01*
X164429764Y-110394387D01*
X164430327Y-110405285D01*
X164431051Y-110416152D01*
X164431935Y-110426988D01*
X164432981Y-110437793D01*
X164434188Y-110448567D01*
X164435555Y-110459310D01*
X164437083Y-110470021D01*
X164438772Y-110480702D01*
X164440623Y-110491352D01*
X164442633Y-110501970D01*
X164444805Y-110512558D01*
X164447138Y-110523115D01*
X164449632Y-110533640D01*
X164452286Y-110544134D01*
X164455101Y-110554598D01*
X164458077Y-110565030D01*
X164461214Y-110575431D01*
X164464512Y-110585802D01*
X164467971Y-110596141D01*
X164471591Y-110606449D01*
X164475371Y-110616726D01*
X164479313Y-110626972D01*
X164636298Y-110626972D01*
X164631476Y-110616752D01*
X164626860Y-110606522D01*
X164622449Y-110596283D01*
X164618243Y-110586035D01*
X164614242Y-110575778D01*
X164610447Y-110565512D01*
X164606856Y-110555236D01*
X164603471Y-110544951D01*
X164600291Y-110534658D01*
X164597316Y-110524354D01*
X164594546Y-110514042D01*
X164591982Y-110503721D01*
X164589623Y-110493390D01*
X164587468Y-110483050D01*
X164585519Y-110472701D01*
X164583775Y-110462343D01*
X164582237Y-110451975D01*
X164580903Y-110441599D01*
X164579775Y-110431213D01*
X164578851Y-110420818D01*
X164578133Y-110410414D01*
X164577620Y-110400000D01*
X164577313Y-110389578D01*
X164577210Y-110379146D01*
X164577210Y-110375618D01*
X164577371Y-110363317D01*
X164577854Y-110351285D01*
X164578658Y-110339522D01*
X164579785Y-110328028D01*
X164581233Y-110316803D01*
X164583004Y-110305847D01*
X164585096Y-110295160D01*
X164587510Y-110284742D01*
X164590246Y-110274593D01*
X164593303Y-110264713D01*
X164596683Y-110255102D01*
X164600385Y-110245760D01*
X164604408Y-110236687D01*
X164608753Y-110227883D01*
X164613420Y-110219348D01*
X164618409Y-110211082D01*
X164623720Y-110203085D01*
X164629353Y-110195357D01*
X164635307Y-110187898D01*
X164641584Y-110180708D01*
X164646653Y-110175385D01*
X164652090Y-110170271D01*
X164657895Y-110165365D01*
X164664067Y-110160669D01*
X164670608Y-110156181D01*
X164677516Y-110151901D01*
X164684793Y-110147831D01*
X164692437Y-110143969D01*
X164700449Y-110140316D01*
X164708829Y-110136872D01*
X164717576Y-110133636D01*
X164726692Y-110130609D01*
X164736176Y-110127791D01*
X164746027Y-110125182D01*
X164756246Y-110122782D01*
X164766833Y-110120590D01*
X164777788Y-110118607D01*
X164789111Y-110116832D01*
X164800802Y-110115267D01*
X164812861Y-110113910D01*
X164825287Y-110112762D01*
X164838082Y-110111822D01*
X164851244Y-110111092D01*
X164864774Y-110110570D01*
X164878672Y-110110257D01*
X164892938Y-110110152D01*
X164906078Y-110110243D01*
X164918920Y-110110513D01*
X164931464Y-110110964D01*
X164943710Y-110111595D01*
X164955658Y-110112406D01*
X164967308Y-110113398D01*
X164978660Y-110114570D01*
X164989714Y-110115922D01*
X165000470Y-110117455D01*
X165010928Y-110119168D01*
X165021088Y-110121061D01*
X165030950Y-110123135D01*
X165040515Y-110125389D01*
X165049781Y-110127823D01*
X165058749Y-110130437D01*
X165070338Y-110134446D01*
X165081374Y-110138776D01*
X165091855Y-110143426D01*
X165101783Y-110148397D01*
X165111157Y-110153688D01*
X165119977Y-110159301D01*
X165128242Y-110165234D01*
X165135954Y-110171488D01*
X165143113Y-110178062D01*
X165149717Y-110184957D01*
X165155767Y-110192173D01*
X165162560Y-110201385D01*
X165168830Y-110210596D01*
X165174577Y-110219808D01*
X165179802Y-110229019D01*
X165184505Y-110238230D01*
X165188686Y-110247442D01*
X165192344Y-110256653D01*
X165195480Y-110265865D01*
X165198093Y-110275076D01*
X165200106Y-110283702D01*
X165201908Y-110292644D01*
X165203497Y-110301905D01*
X165204875Y-110311483D01*
X165206040Y-110321378D01*
X165206994Y-110331591D01*
X165207736Y-110342121D01*
X165208266Y-110352969D01*
X165208583Y-110364135D01*
X165208689Y-110375618D01*
X165208590Y-110386408D01*
X165208291Y-110397170D01*
X165207794Y-110407905D01*
X165207097Y-110418613D01*
X165206201Y-110429292D01*
X165205106Y-110439945D01*
X165203812Y-110450569D01*
X165202319Y-110461166D01*
X165200627Y-110471736D01*
X165198736Y-110482278D01*
X165196646Y-110492792D01*
X165194357Y-110503279D01*
X165191869Y-110513739D01*
X165189181Y-110524170D01*
X165186295Y-110534574D01*
X165183210Y-110544951D01*
X165179925Y-110555300D01*
X165176442Y-110565622D01*
X165172759Y-110575916D01*
X165168877Y-110586182D01*
X165164796Y-110596421D01*
X165160517Y-110606632D01*
X165156038Y-110616816D01*
X165151360Y-110626972D01*
X165308345Y-110626972D01*
X165312286Y-110616726D01*
X165316067Y-110606449D01*
X165319686Y-110596141D01*
X165323145Y-110585801D01*
X165326443Y-110575431D01*
X165329580Y-110565030D01*
X165332556Y-110554597D01*
X165335372Y-110544134D01*
X165338026Y-110533640D01*
X165340520Y-110523114D01*
X165342852Y-110512558D01*
X165345024Y-110501970D01*
X165347035Y-110491351D01*
X165348885Y-110480702D01*
X165350574Y-110470021D01*
X165352102Y-110459309D01*
X165353470Y-110448567D01*
X165354676Y-110437793D01*
X165355722Y-110426988D01*
X165356607Y-110416152D01*
X165357331Y-110405285D01*
X165357894Y-110394387D01*
X165358296Y-110383458D01*
X165358537Y-110372498D01*
X165358618Y-110361507D01*
X165358508Y-110349141D01*
X165358177Y-110336951D01*
X165357627Y-110324939D01*
X165356856Y-110313103D01*
X165355864Y-110301443D01*
X165354653Y-110289960D01*
X165353221Y-110278653D01*
X165351569Y-110267523D01*
X165349696Y-110256570D01*
X165347604Y-110245793D01*
X165345291Y-110235193D01*
X165342757Y-110224769D01*
X165340004Y-110214522D01*
X165337030Y-110204451D01*
X165333836Y-110194557D01*
X165330421Y-110184839D01*
X165326787Y-110175298D01*
X165322932Y-110165934D01*
X165318856Y-110156746D01*
X165314561Y-110147734D01*
X165310045Y-110138899D01*
X165305309Y-110130241D01*
X165300352Y-110121759D01*
X165295176Y-110113454D01*
X165289779Y-110105326D01*
X165284162Y-110097374D01*
X165278324Y-110089598D01*
X165272266Y-110081999D01*
X165265988Y-110074577D01*
X165259490Y-110067331D01*
X165252771Y-110060261D01*
X165245832Y-110053369D01*
X165238673Y-110046652D01*
X165238661Y-110046653D01*
X165238661Y-110046653D01*
G37*
G36*
X165344493Y-110823646D02*
X164100078Y-110823646D01*
X164100078Y-110988570D01*
X164820629Y-110988570D01*
X164443152Y-111378389D01*
X164443152Y-111602403D01*
X164818858Y-111210820D01*
X165344493Y-111654438D01*
X165344493Y-111434833D01*
X164925570Y-111100577D01*
X165034052Y-110988570D01*
X165344493Y-110988570D01*
X165344493Y-110823646D01*
X165344493Y-110823646D01*
G37*
G36*
X165643047Y-120784474D02*
X165643047Y-119574004D01*
X165357548Y-119426488D01*
X165366483Y-119431578D01*
X165374875Y-119437019D01*
X165382727Y-119442811D01*
X165390036Y-119448955D01*
X165396805Y-119455449D01*
X165403031Y-119462294D01*
X165408717Y-119469490D01*
X165413861Y-119477037D01*
X165418463Y-119484935D01*
X165422524Y-119493185D01*
X165426044Y-119501785D01*
X165429022Y-119510736D01*
X165431458Y-119520039D01*
X165433353Y-119529692D01*
X165434707Y-119539696D01*
X165435519Y-119550052D01*
X165435790Y-119560758D01*
X165435790Y-120142844D01*
X165435790Y-120142828D01*
X165422789Y-120147711D01*
X165409754Y-120152315D01*
X165396684Y-120156640D01*
X165383581Y-120160686D01*
X165370444Y-120164452D01*
X165357272Y-120167940D01*
X165344067Y-120171149D01*
X165330828Y-120174078D01*
X165317554Y-120176729D01*
X165304247Y-120179101D01*
X165290905Y-120181193D01*
X165277530Y-120183007D01*
X165264120Y-120184541D01*
X165250677Y-120185797D01*
X165237199Y-120186774D01*
X165223688Y-120187471D01*
X165210142Y-120187890D01*
X165196563Y-120188029D01*
X165181387Y-120187866D01*
X165166729Y-120187375D01*
X165152588Y-120186557D01*
X165138964Y-120185413D01*
X165125857Y-120183941D01*
X165113268Y-120182142D01*
X165101196Y-120180016D01*
X165089640Y-120177564D01*
X165078603Y-120174784D01*
X165066235Y-120171094D01*
X165053936Y-120166647D01*
X165041706Y-120161444D01*
X165029544Y-120155483D01*
X165017452Y-120148766D01*
X165005429Y-120141292D01*
X164993474Y-120133061D01*
X164981589Y-120124074D01*
X164973161Y-120116911D01*
X164965116Y-120109055D01*
X164957454Y-120100508D01*
X164950174Y-120091268D01*
X164943277Y-120081337D01*
X164936763Y-120070713D01*
X164930631Y-120059397D01*
X164924882Y-120047389D01*
X164919515Y-120034688D01*
X164914532Y-120021296D01*
X164909931Y-120007211D01*
X164906663Y-119996294D01*
X164903620Y-119985005D01*
X164900803Y-119973343D01*
X164898211Y-119961309D01*
X164895844Y-119948902D01*
X164893703Y-119936123D01*
X164891787Y-119922972D01*
X164890097Y-119909448D01*
X164888632Y-119895552D01*
X164887392Y-119881284D01*
X164886378Y-119866644D01*
X164885589Y-119851631D01*
X164885026Y-119836245D01*
X164884687Y-119820488D01*
X164884575Y-119804358D01*
X164884674Y-119788137D01*
X164884971Y-119772269D01*
X164885466Y-119756755D01*
X164886159Y-119741593D01*
X164887051Y-119726785D01*
X164888140Y-119712329D01*
X164889428Y-119698227D01*
X164890914Y-119684477D01*
X164892598Y-119671081D01*
X164894479Y-119658037D01*
X164896559Y-119645347D01*
X164898837Y-119633009D01*
X164901314Y-119621025D01*
X164903988Y-119609393D01*
X164906860Y-119598115D01*
X164909931Y-119587189D01*
X164914523Y-119571744D01*
X164919479Y-119557083D01*
X164924800Y-119543205D01*
X164930485Y-119530112D01*
X164936535Y-119517802D01*
X164942949Y-119506277D01*
X164949727Y-119495535D01*
X164956871Y-119485577D01*
X164964378Y-119476403D01*
X164972250Y-119468014D01*
X164980486Y-119460408D01*
X164992045Y-119450881D01*
X165003568Y-119442147D01*
X165015058Y-119434205D01*
X165026513Y-119427057D01*
X165037933Y-119420700D01*
X165049319Y-119415136D01*
X165060671Y-119410365D01*
X165071988Y-119406387D01*
X165083495Y-119403035D01*
X165095415Y-119400131D01*
X165107748Y-119397673D01*
X165120495Y-119395662D01*
X165133655Y-119394098D01*
X165147229Y-119392981D01*
X165161216Y-119392311D01*
X165175616Y-119392087D01*
X165192131Y-119392263D01*
X165208104Y-119392789D01*
X165223536Y-119393667D01*
X165238426Y-119394896D01*
X165252775Y-119396475D01*
X165266582Y-119398406D01*
X165279848Y-119400688D01*
X165292573Y-119403320D01*
X165304756Y-119406304D01*
X165316397Y-119409639D01*
X165327497Y-119413325D01*
X165338056Y-119417362D01*
X165348073Y-119421750D01*
X165357548Y-119426488D01*
X165643047Y-119574004D01*
X165642863Y-119561908D01*
X165642312Y-119549873D01*
X165641393Y-119537898D01*
X165640107Y-119525985D01*
X165638454Y-119514133D01*
X165636432Y-119502342D01*
X165634138Y-119491565D01*
X165631033Y-119480024D01*
X165627118Y-119467717D01*
X165622393Y-119454646D01*
X165616859Y-119440809D01*
X165610514Y-119426208D01*
X165603359Y-119410842D01*
X165597003Y-119398756D01*
X165590185Y-119386998D01*
X165582903Y-119375565D01*
X165575159Y-119364460D01*
X165566952Y-119353681D01*
X165558282Y-119343229D01*
X165549150Y-119333104D01*
X165539555Y-119323305D01*
X165529497Y-119313833D01*
X165521458Y-119306933D01*
X165512776Y-119300202D01*
X165503452Y-119293640D01*
X165493484Y-119287246D01*
X165482873Y-119281021D01*
X165471619Y-119274965D01*
X165459722Y-119269078D01*
X165447182Y-119263359D01*
X165433999Y-119257809D01*
X165420172Y-119252427D01*
X165405703Y-119247215D01*
X165390590Y-119242171D01*
X165378899Y-119238433D01*
X165366974Y-119234935D01*
X165354817Y-119231679D01*
X165342428Y-119228665D01*
X165329806Y-119225891D01*
X165316951Y-119223359D01*
X165303864Y-119221067D01*
X165290545Y-119219017D01*
X165276993Y-119217208D01*
X165263208Y-119215641D01*
X165249191Y-119214314D01*
X165234941Y-119213229D01*
X165220459Y-119212385D01*
X165205744Y-119211782D01*
X165190796Y-119211420D01*
X165175616Y-119211300D01*
X165161693Y-119211435D01*
X165147852Y-119211842D01*
X165134092Y-119212520D01*
X165120413Y-119213470D01*
X165106817Y-119214691D01*
X165093302Y-119216183D01*
X165079868Y-119217946D01*
X165066517Y-119219981D01*
X165053247Y-119222287D01*
X165042140Y-119224514D01*
X165030870Y-119227197D01*
X165019436Y-119230336D01*
X165007837Y-119233933D01*
X164996075Y-119237986D01*
X164984149Y-119242496D01*
X164972059Y-119247463D01*
X164959804Y-119252887D01*
X164947386Y-119258767D01*
X164934804Y-119265104D01*
X164922057Y-119271898D01*
X164910252Y-119278491D01*
X164898723Y-119285405D01*
X164887469Y-119292641D01*
X164876490Y-119300197D01*
X164865787Y-119308075D01*
X164855360Y-119316275D01*
X164845209Y-119324796D01*
X164835333Y-119333638D01*
X164825733Y-119342801D01*
X164816408Y-119352286D01*
X164807359Y-119362092D01*
X164798585Y-119372219D01*
X164791755Y-119380677D01*
X164785082Y-119389585D01*
X164778565Y-119398944D01*
X164772205Y-119408754D01*
X164766002Y-119419015D01*
X164759956Y-119429727D01*
X164754067Y-119440889D01*
X164748334Y-119452502D01*
X164742758Y-119464566D01*
X164737339Y-119477080D01*
X164732077Y-119490045D01*
X164726971Y-119503461D01*
X164722023Y-119517328D01*
X164717231Y-119531646D01*
X164712596Y-119546414D01*
X164708980Y-119558232D01*
X164705560Y-119570245D01*
X164702335Y-119582453D01*
X164699305Y-119594857D01*
X164696471Y-119607456D01*
X164693833Y-119620251D01*
X164691390Y-119633242D01*
X164689142Y-119646428D01*
X164687090Y-119659809D01*
X164685233Y-119673386D01*
X164683572Y-119687158D01*
X164682106Y-119701126D01*
X164680836Y-119715289D01*
X164679761Y-119729647D01*
X164678881Y-119744202D01*
X164678197Y-119758951D01*
X164677709Y-119773896D01*
X164677416Y-119789037D01*
X164677318Y-119804373D01*
X164677423Y-119820222D01*
X164677738Y-119835851D01*
X164678263Y-119851260D01*
X164678998Y-119866450D01*
X164679943Y-119881419D01*
X164681098Y-119896168D01*
X164682463Y-119910697D01*
X164684037Y-119925006D01*
X164685822Y-119939096D01*
X164687817Y-119952965D01*
X164690022Y-119966614D01*
X164692437Y-119980043D01*
X164695062Y-119993252D01*
X164697897Y-120006241D01*
X164700941Y-120019010D01*
X164704196Y-120031560D01*
X164707661Y-120043889D01*
X164711336Y-120055998D01*
X164715220Y-120067887D01*
X164719315Y-120079556D01*
X164723620Y-120091005D01*
X164729408Y-120105513D01*
X164735471Y-120119548D01*
X164741810Y-120133109D01*
X164748425Y-120146196D01*
X164755315Y-120158810D01*
X164762481Y-120170950D01*
X164769922Y-120182616D01*
X164777639Y-120193809D01*
X164785632Y-120204528D01*
X164793900Y-120214774D01*
X164802444Y-120224545D01*
X164811263Y-120233843D01*
X164820358Y-120242668D01*
X164829729Y-120251018D01*
X164839375Y-120258895D01*
X164849297Y-120266299D01*
X164860811Y-120274324D01*
X164872358Y-120282023D01*
X164883939Y-120289396D01*
X164895554Y-120296443D01*
X164907203Y-120303164D01*
X164918885Y-120309559D01*
X164930601Y-120315628D01*
X164942351Y-120321370D01*
X164954135Y-120326787D01*
X164965952Y-120331877D01*
X164977803Y-120336642D01*
X164989688Y-120341080D01*
X165001607Y-120345192D01*
X165013559Y-120348979D01*
X165025461Y-120352319D01*
X165037543Y-120355412D01*
X165049804Y-120358257D01*
X165062246Y-120360855D01*
X165074868Y-120363206D01*
X165087669Y-120365309D01*
X165100651Y-120367165D01*
X165113813Y-120368773D01*
X165127154Y-120370134D01*
X165140676Y-120371248D01*
X165154378Y-120372114D01*
X165168259Y-120372732D01*
X165182321Y-120373103D01*
X165196563Y-120373227D01*
X165210374Y-120373125D01*
X165224123Y-120372819D01*
X165237812Y-120372309D01*
X165251439Y-120371594D01*
X165265005Y-120370676D01*
X165278510Y-120369553D01*
X165291953Y-120368226D01*
X165305336Y-120366695D01*
X165318657Y-120364960D01*
X165331917Y-120363021D01*
X165345115Y-120360877D01*
X165358252Y-120358530D01*
X165371328Y-120355978D01*
X165384343Y-120353223D01*
X165397297Y-120350263D01*
X165410189Y-120347099D01*
X165423020Y-120343731D01*
X165435790Y-120340158D01*
X165435790Y-120784444D01*
X165643047Y-120784444D01*
X165643047Y-120784474D01*
X165643047Y-120784474D01*
G37*
G36*
X164396198Y-120085526D02*
X164210990Y-119585022D01*
X164213927Y-119595396D01*
X164216674Y-119606123D01*
X164219232Y-119617204D01*
X164221600Y-119628637D01*
X164223780Y-119640424D01*
X164225769Y-119652564D01*
X164227569Y-119665057D01*
X164229180Y-119677903D01*
X164230601Y-119691102D01*
X164231832Y-119704655D01*
X164232875Y-119718560D01*
X164233727Y-119732819D01*
X164234390Y-119747431D01*
X164234864Y-119762396D01*
X164235148Y-119777714D01*
X164235243Y-119793385D01*
X164235148Y-119809060D01*
X164234864Y-119824391D01*
X164234390Y-119839377D01*
X164233727Y-119854019D01*
X164232875Y-119868316D01*
X164231832Y-119882269D01*
X164230601Y-119895877D01*
X164229180Y-119909141D01*
X164227569Y-119922060D01*
X164225769Y-119934635D01*
X164223780Y-119946865D01*
X164221600Y-119958750D01*
X164219232Y-119970291D01*
X164216674Y-119981487D01*
X164213927Y-119992339D01*
X164210990Y-120002846D01*
X164206179Y-120017333D01*
X164200967Y-120031127D01*
X164195355Y-120044229D01*
X164189342Y-120056639D01*
X164182928Y-120068356D01*
X164176113Y-120079381D01*
X164168897Y-120089713D01*
X164161280Y-120099353D01*
X164153262Y-120108301D01*
X164144844Y-120116556D01*
X164136024Y-120124119D01*
X164124986Y-120132610D01*
X164113921Y-120140447D01*
X164102829Y-120147632D01*
X164091709Y-120154163D01*
X164080562Y-120160042D01*
X164069388Y-120165267D01*
X164058187Y-120169840D01*
X164046959Y-120173760D01*
X164035703Y-120177026D01*
X164024175Y-120179806D01*
X164012130Y-120182259D01*
X163999568Y-120184385D01*
X163986488Y-120186184D01*
X163972892Y-120187656D01*
X163958778Y-120188800D01*
X163944147Y-120189618D01*
X163928999Y-120190108D01*
X163913333Y-120190272D01*
X163897437Y-120190108D01*
X163882084Y-120189618D01*
X163867276Y-120188800D01*
X163853013Y-120187656D01*
X163839294Y-120186184D01*
X163826119Y-120184385D01*
X163813489Y-120182259D01*
X163801403Y-120179806D01*
X163789861Y-120177026D01*
X163778606Y-120173757D01*
X163767377Y-120169835D01*
X163756176Y-120165261D01*
X163745002Y-120160034D01*
X163733855Y-120154156D01*
X163722735Y-120147625D01*
X163711643Y-120140442D01*
X163700578Y-120132607D01*
X163689540Y-120124119D01*
X163680730Y-120116556D01*
X163672338Y-120108301D01*
X163664366Y-120099353D01*
X163656813Y-120089713D01*
X163649679Y-120079381D01*
X163642965Y-120068356D01*
X163636669Y-120056639D01*
X163630792Y-120044229D01*
X163625335Y-120031127D01*
X163620296Y-120017333D01*
X163615677Y-120002846D01*
X163612607Y-119992339D01*
X163609734Y-119981487D01*
X163607060Y-119970291D01*
X163604584Y-119958750D01*
X163602306Y-119946865D01*
X163600226Y-119934635D01*
X163598344Y-119922060D01*
X163596660Y-119909141D01*
X163595174Y-119895877D01*
X163593887Y-119882269D01*
X163592797Y-119868316D01*
X163591906Y-119854019D01*
X163591213Y-119839377D01*
X163590717Y-119824391D01*
X163590420Y-119809060D01*
X163590321Y-119793385D01*
X163590420Y-119777714D01*
X163590717Y-119762396D01*
X163591213Y-119747431D01*
X163591906Y-119732819D01*
X163592797Y-119718560D01*
X163593887Y-119704655D01*
X163595174Y-119691102D01*
X163596660Y-119677903D01*
X163598344Y-119665057D01*
X163600226Y-119652564D01*
X163602306Y-119640424D01*
X163604584Y-119628637D01*
X163607060Y-119617204D01*
X163609734Y-119606123D01*
X163612607Y-119595396D01*
X163615677Y-119585022D01*
X163620296Y-119570345D01*
X163625335Y-119556378D01*
X163630792Y-119543121D01*
X163636669Y-119530576D01*
X163642965Y-119518740D01*
X163649679Y-119507616D01*
X163656813Y-119497201D01*
X163664366Y-119487498D01*
X163672338Y-119478505D01*
X163680730Y-119470222D01*
X163689540Y-119462650D01*
X163700578Y-119454160D01*
X163711643Y-119446322D01*
X163722735Y-119439138D01*
X163733855Y-119432606D01*
X163745002Y-119426728D01*
X163756176Y-119421502D01*
X163767377Y-119416929D01*
X163778606Y-119413010D01*
X163789861Y-119409743D01*
X163801403Y-119406963D01*
X163813489Y-119404510D01*
X163826119Y-119402384D01*
X163839294Y-119400586D01*
X163853013Y-119399114D01*
X163867276Y-119397969D01*
X163882084Y-119397152D01*
X163897437Y-119396661D01*
X163913333Y-119396497D01*
X163928999Y-119396661D01*
X163944147Y-119397152D01*
X163958778Y-119397969D01*
X163972892Y-119399114D01*
X163986488Y-119400586D01*
X163999568Y-119402384D01*
X164012130Y-119404510D01*
X164024175Y-119406963D01*
X164035703Y-119409743D01*
X164046959Y-119413013D01*
X164058187Y-119416935D01*
X164069388Y-119421509D01*
X164080562Y-119426735D01*
X164091709Y-119432614D01*
X164102829Y-119439144D01*
X164113921Y-119446327D01*
X164124986Y-119454163D01*
X164136024Y-119462650D01*
X164144844Y-119470222D01*
X164153262Y-119478505D01*
X164161280Y-119487498D01*
X164168897Y-119497201D01*
X164176113Y-119507616D01*
X164182928Y-119518740D01*
X164189342Y-119530576D01*
X164195355Y-119543121D01*
X164200967Y-119556378D01*
X164206179Y-119570345D01*
X164210990Y-119585022D01*
X164396198Y-120085526D01*
X164400410Y-120074495D01*
X164404425Y-120063251D01*
X164408245Y-120051792D01*
X164411869Y-120040119D01*
X164415297Y-120028232D01*
X164418529Y-120016130D01*
X164421565Y-120003815D01*
X164424406Y-119991285D01*
X164427050Y-119978541D01*
X164429499Y-119965583D01*
X164431751Y-119952411D01*
X164433808Y-119939025D01*
X164435669Y-119925425D01*
X164437334Y-119911610D01*
X164438803Y-119897581D01*
X164440076Y-119883339D01*
X164441154Y-119868882D01*
X164442035Y-119854211D01*
X164442721Y-119839325D01*
X164443211Y-119824226D01*
X164443504Y-119808912D01*
X164443602Y-119793385D01*
X164443504Y-119777859D01*
X164443211Y-119762553D01*
X164442721Y-119747464D01*
X164442035Y-119732595D01*
X164441154Y-119717944D01*
X164440076Y-119703512D01*
X164438803Y-119689299D01*
X164437334Y-119675305D01*
X164435669Y-119661529D01*
X164433808Y-119647971D01*
X164431751Y-119634633D01*
X164429499Y-119621513D01*
X164427050Y-119608612D01*
X164424406Y-119595929D01*
X164421565Y-119583465D01*
X164418529Y-119571220D01*
X164415297Y-119559194D01*
X164411869Y-119547386D01*
X164408245Y-119535797D01*
X164404425Y-119524427D01*
X164400410Y-119513275D01*
X164396198Y-119502342D01*
X164390503Y-119488416D01*
X164384571Y-119474908D01*
X164378403Y-119461821D01*
X164371998Y-119449153D01*
X164365357Y-119436904D01*
X164358479Y-119425075D01*
X164351365Y-119413665D01*
X164344014Y-119402674D01*
X164336426Y-119392104D01*
X164328603Y-119381952D01*
X164320542Y-119372220D01*
X164312245Y-119362908D01*
X164303712Y-119354015D01*
X164294942Y-119345542D01*
X164285936Y-119337488D01*
X164276693Y-119329853D01*
X164267214Y-119322638D01*
X164255542Y-119314314D01*
X164243838Y-119306349D01*
X164232099Y-119298745D01*
X164220326Y-119291501D01*
X164208520Y-119284617D01*
X164196680Y-119278093D01*
X164184807Y-119271928D01*
X164172899Y-119266124D01*
X164160958Y-119260680D01*
X164148983Y-119255596D01*
X164136975Y-119250872D01*
X164124932Y-119246508D01*
X164112856Y-119242504D01*
X164100747Y-119238859D01*
X164088384Y-119235368D01*
X164075863Y-119232135D01*
X164063185Y-119229160D01*
X164050350Y-119226444D01*
X164037357Y-119223987D01*
X164024206Y-119221789D01*
X164010898Y-119219849D01*
X163997433Y-119218168D01*
X163983810Y-119216745D01*
X163970030Y-119215581D01*
X163956092Y-119214676D01*
X163941997Y-119214029D01*
X163927744Y-119213641D01*
X163913333Y-119213512D01*
X163898777Y-119213641D01*
X163884400Y-119214029D01*
X163870204Y-119214676D01*
X163856187Y-119215581D01*
X163842350Y-119216745D01*
X163828694Y-119218168D01*
X163815217Y-119219849D01*
X163801920Y-119221789D01*
X163788804Y-119223987D01*
X163775867Y-119226444D01*
X163763110Y-119229160D01*
X163750534Y-119232135D01*
X163738137Y-119235368D01*
X163725920Y-119238859D01*
X163713658Y-119242504D01*
X163701442Y-119246508D01*
X163689270Y-119250872D01*
X163677143Y-119255596D01*
X163665062Y-119260680D01*
X163653025Y-119266124D01*
X163641033Y-119271928D01*
X163629086Y-119278093D01*
X163617185Y-119284617D01*
X163605328Y-119291501D01*
X163593516Y-119298745D01*
X163581749Y-119306349D01*
X163570028Y-119314314D01*
X163558351Y-119322638D01*
X163548871Y-119329853D01*
X163539628Y-119337488D01*
X163530622Y-119345542D01*
X163521852Y-119354015D01*
X163513319Y-119362908D01*
X163505022Y-119372220D01*
X163496962Y-119381952D01*
X163489138Y-119392104D01*
X163481551Y-119402674D01*
X163474200Y-119413665D01*
X163467085Y-119425075D01*
X163460208Y-119436904D01*
X163453566Y-119449153D01*
X163447162Y-119461821D01*
X163440993Y-119474908D01*
X163435062Y-119488416D01*
X163429366Y-119502342D01*
X163425155Y-119513275D01*
X163421139Y-119524427D01*
X163417319Y-119535797D01*
X163413695Y-119547386D01*
X163410267Y-119559194D01*
X163407035Y-119571220D01*
X163403999Y-119583465D01*
X163401159Y-119595929D01*
X163398514Y-119608612D01*
X163396066Y-119621513D01*
X163393813Y-119634633D01*
X163391756Y-119647971D01*
X163389895Y-119661529D01*
X163388230Y-119675305D01*
X163386761Y-119689299D01*
X163385488Y-119703512D01*
X163384410Y-119717944D01*
X163383529Y-119732595D01*
X163382843Y-119747464D01*
X163382354Y-119762553D01*
X163382060Y-119777859D01*
X163381962Y-119793385D01*
X163382060Y-119808912D01*
X163382354Y-119824226D01*
X163382843Y-119839325D01*
X163383529Y-119854211D01*
X163384410Y-119868882D01*
X163385488Y-119883339D01*
X163386761Y-119897581D01*
X163388230Y-119911610D01*
X163389895Y-119925425D01*
X163391756Y-119939025D01*
X163393813Y-119952411D01*
X163396066Y-119965583D01*
X163398514Y-119978541D01*
X163401159Y-119991285D01*
X163403999Y-120003815D01*
X163407035Y-120016130D01*
X163410267Y-120028232D01*
X163413695Y-120040119D01*
X163417319Y-120051792D01*
X163421139Y-120063251D01*
X163425155Y-120074495D01*
X163429366Y-120085526D01*
X163435062Y-120099327D01*
X163440993Y-120112716D01*
X163447162Y-120125693D01*
X163453566Y-120138259D01*
X163460208Y-120150412D01*
X163467085Y-120162153D01*
X163474200Y-120173482D01*
X163481551Y-120184400D01*
X163489138Y-120194905D01*
X163496962Y-120204998D01*
X163505022Y-120214680D01*
X163513319Y-120223949D01*
X163521852Y-120232806D01*
X163530622Y-120241252D01*
X163539628Y-120249285D01*
X163548871Y-120256907D01*
X163558351Y-120264116D01*
X163570028Y-120272446D01*
X163581749Y-120280428D01*
X163593516Y-120288060D01*
X163605328Y-120295344D01*
X163617185Y-120302280D01*
X163629086Y-120308866D01*
X163641033Y-120315104D01*
X163653025Y-120320994D01*
X163665062Y-120326535D01*
X163677143Y-120331727D01*
X163689270Y-120336570D01*
X163701442Y-120341065D01*
X163713658Y-120345211D01*
X163725920Y-120349009D01*
X163738137Y-120352349D01*
X163750534Y-120355442D01*
X163763110Y-120358288D01*
X163775867Y-120360886D01*
X163788804Y-120363236D01*
X163801920Y-120365339D01*
X163815217Y-120367195D01*
X163828694Y-120368803D01*
X163842350Y-120370164D01*
X163856187Y-120371278D01*
X163870204Y-120372144D01*
X163884400Y-120372762D01*
X163898777Y-120373134D01*
X163913333Y-120373257D01*
X163927744Y-120373134D01*
X163941997Y-120372762D01*
X163956092Y-120372144D01*
X163970030Y-120371278D01*
X163983810Y-120370164D01*
X163997433Y-120368803D01*
X164010898Y-120367195D01*
X164024206Y-120365339D01*
X164037357Y-120363236D01*
X164050350Y-120360886D01*
X164063185Y-120358288D01*
X164075863Y-120355442D01*
X164088384Y-120352349D01*
X164100747Y-120349009D01*
X164112856Y-120345211D01*
X164124932Y-120341065D01*
X164136975Y-120336570D01*
X164148983Y-120331727D01*
X164160958Y-120326535D01*
X164172899Y-120320994D01*
X164184807Y-120315104D01*
X164196680Y-120308866D01*
X164208520Y-120302280D01*
X164220326Y-120295344D01*
X164232099Y-120288060D01*
X164243838Y-120280428D01*
X164255542Y-120272446D01*
X164267214Y-120264116D01*
X164276693Y-120256907D01*
X164285936Y-120249285D01*
X164294942Y-120241252D01*
X164303712Y-120232806D01*
X164312245Y-120223949D01*
X164320542Y-120214680D01*
X164328603Y-120204998D01*
X164336426Y-120194905D01*
X164344014Y-120184400D01*
X164351365Y-120173482D01*
X164358479Y-120162153D01*
X164365357Y-120150412D01*
X164371998Y-120138259D01*
X164378403Y-120125693D01*
X164384571Y-120112716D01*
X164390503Y-120099327D01*
X164396198Y-120085526D01*
X164396198Y-120085526D01*
G37*
G36*
X163082101Y-120355617D02*
X163082101Y-118800098D01*
X162874844Y-118800098D01*
X162874844Y-120355617D01*
X163082101Y-120355617D01*
X163082101Y-120355617D01*
G37*
G36*
X162627899Y-119228940D02*
X162406311Y-119228940D01*
X162103142Y-120073394D01*
X161805486Y-119228940D01*
X161583898Y-119228940D01*
X162046918Y-120475791D01*
X162052845Y-120491408D01*
X162058902Y-120506640D01*
X162065088Y-120521486D01*
X162071404Y-120535947D01*
X162077850Y-120550022D01*
X162084426Y-120563711D01*
X162091132Y-120577015D01*
X162097967Y-120589933D01*
X162104933Y-120602466D01*
X162112028Y-120614613D01*
X162119253Y-120626374D01*
X162126608Y-120637750D01*
X162134093Y-120648740D01*
X162141708Y-120659344D01*
X162149452Y-120669563D01*
X162157327Y-120679397D01*
X162165331Y-120688844D01*
X162173465Y-120697906D01*
X162181729Y-120706583D01*
X162190123Y-120714873D01*
X162198647Y-120722779D01*
X162207300Y-120730298D01*
X162216083Y-120737432D01*
X162224997Y-120744180D01*
X162234040Y-120750543D01*
X162243213Y-120756520D01*
X162252515Y-120762112D01*
X162261948Y-120767317D01*
X162271511Y-120772138D01*
X162281203Y-120776572D01*
X162291025Y-120780621D01*
X162300977Y-120784285D01*
X162311059Y-120787562D01*
X162321271Y-120790454D01*
X162331612Y-120792961D01*
X162342084Y-120795082D01*
X162352685Y-120796817D01*
X162363416Y-120798167D01*
X162374277Y-120799131D01*
X162385268Y-120799709D01*
X162396389Y-120799902D01*
X162397488Y-120799902D01*
X162410035Y-120799780D01*
X162422690Y-120799412D01*
X162435453Y-120798799D01*
X162448322Y-120797942D01*
X162461299Y-120796839D01*
X162474382Y-120795492D01*
X162487573Y-120793899D01*
X162500871Y-120792062D01*
X162514276Y-120789979D01*
X162527789Y-120787651D01*
X162541409Y-120785079D01*
X162555135Y-120782261D01*
X162555135Y-120597048D01*
X162541763Y-120600411D01*
X162528545Y-120603443D01*
X162515481Y-120606145D01*
X162502571Y-120608517D01*
X162489816Y-120610557D01*
X162477215Y-120612267D01*
X162464769Y-120613647D01*
X162452477Y-120614696D01*
X162440339Y-120615415D01*
X162428356Y-120615803D01*
X162419082Y-120615514D01*
X162409928Y-120614646D01*
X162400894Y-120613201D01*
X162391980Y-120611177D01*
X162383187Y-120608575D01*
X162374513Y-120605395D01*
X162365959Y-120601637D01*
X162357526Y-120597301D01*
X162349212Y-120592386D01*
X162341019Y-120586893D01*
X162332945Y-120580822D01*
X162324992Y-120574173D01*
X162317159Y-120566946D01*
X162309445Y-120559140D01*
X162301852Y-120550756D01*
X162294379Y-120541794D01*
X162287025Y-120532254D01*
X162279792Y-120522136D01*
X162272679Y-120511439D01*
X162265686Y-120500164D01*
X162258813Y-120488312D01*
X162252060Y-120475880D01*
X162245427Y-120462871D01*
X162238914Y-120449284D01*
X162232521Y-120435118D01*
X162226248Y-120420374D01*
X162220096Y-120405052D01*
X162214063Y-120389152D01*
X162208150Y-120372673D01*
X162202358Y-120355617D01*
X162627896Y-119228940D01*
X162627899Y-119228940D01*
X162627899Y-119228940D01*
G37*
G36*
X161433967Y-119547543D02*
X161433719Y-119533646D01*
X161432975Y-119519959D01*
X161431735Y-119506482D01*
X161429998Y-119493214D01*
X161427766Y-119480156D01*
X161425037Y-119467307D01*
X161421813Y-119454667D01*
X161418092Y-119442238D01*
X161413875Y-119430017D01*
X161409162Y-119418007D01*
X161403953Y-119406205D01*
X161398248Y-119394614D01*
X161392047Y-119383231D01*
X161385350Y-119372059D01*
X161378156Y-119361096D01*
X161370467Y-119350342D01*
X161362281Y-119339798D01*
X161353600Y-119329463D01*
X161344422Y-119319338D01*
X161334748Y-119309423D01*
X161326555Y-119301730D01*
X161318027Y-119294351D01*
X161309163Y-119287286D01*
X161299964Y-119280535D01*
X161290431Y-119274098D01*
X161280562Y-119267975D01*
X161270357Y-119262166D01*
X161259818Y-119256672D01*
X161248944Y-119251491D01*
X161237734Y-119246624D01*
X161226190Y-119242071D01*
X161214310Y-119237832D01*
X161202095Y-119233907D01*
X161189545Y-119230296D01*
X161176660Y-119226999D01*
X161163439Y-119224016D01*
X161149884Y-119221347D01*
X161135993Y-119218992D01*
X161121768Y-119216951D01*
X161107207Y-119215224D01*
X161092311Y-119213811D01*
X161077079Y-119212712D01*
X161061513Y-119211927D01*
X161045612Y-119211457D01*
X161029375Y-119211300D01*
X161016058Y-119211439D01*
X161002758Y-119211858D01*
X160989475Y-119212556D01*
X160976208Y-119213533D01*
X160962958Y-119214790D01*
X160949725Y-119216326D01*
X160936508Y-119218141D01*
X160923308Y-119220235D01*
X160910125Y-119222609D01*
X160896958Y-119225262D01*
X160883808Y-119228194D01*
X160870675Y-119231405D01*
X160857558Y-119234895D01*
X160844458Y-119238665D01*
X160831375Y-119242714D01*
X160818308Y-119247042D01*
X160805259Y-119251650D01*
X160792225Y-119256537D01*
X160779209Y-119261703D01*
X160766209Y-119267148D01*
X160753225Y-119272872D01*
X160740259Y-119278876D01*
X160727309Y-119285159D01*
X160727309Y-119463749D01*
X160741236Y-119457498D01*
X160755087Y-119451552D01*
X160768864Y-119445911D01*
X160782566Y-119440575D01*
X160796192Y-119435543D01*
X160809744Y-119430817D01*
X160823220Y-119426395D01*
X160836622Y-119422279D01*
X160849949Y-119418467D01*
X160863200Y-119414961D01*
X160876377Y-119411759D01*
X160889479Y-119408862D01*
X160902505Y-119406270D01*
X160915457Y-119403983D01*
X160928334Y-119402001D01*
X160941136Y-119400324D01*
X160953862Y-119398952D01*
X160966514Y-119397885D01*
X160979091Y-119397122D01*
X160991592Y-119396665D01*
X161004019Y-119396513D01*
X161020289Y-119396711D01*
X161035946Y-119397305D01*
X161050988Y-119398295D01*
X161065416Y-119399682D01*
X161079231Y-119401465D01*
X161092431Y-119403644D01*
X161105018Y-119406219D01*
X161116990Y-119409190D01*
X161128349Y-119412558D01*
X161139093Y-119416322D01*
X161149224Y-119420481D01*
X161158740Y-119425037D01*
X161167643Y-119429990D01*
X161175932Y-119435338D01*
X161183606Y-119441083D01*
X161190667Y-119447224D01*
X161197114Y-119453760D01*
X161202947Y-119460694D01*
X161208165Y-119468023D01*
X161212770Y-119475748D01*
X161216761Y-119483870D01*
X161220138Y-119492388D01*
X161222901Y-119501302D01*
X161225050Y-119510612D01*
X161226584Y-119520319D01*
X161227505Y-119530421D01*
X161227812Y-119540920D01*
X161227077Y-119551266D01*
X161224873Y-119561230D01*
X161221198Y-119570813D01*
X161216053Y-119580015D01*
X161209439Y-119588835D01*
X161201354Y-119597274D01*
X161191800Y-119605332D01*
X161180775Y-119613008D01*
X161168281Y-119620303D01*
X161157257Y-119625862D01*
X161145832Y-119631310D01*
X161134006Y-119636650D01*
X161121779Y-119641880D01*
X161109151Y-119647000D01*
X161096122Y-119652011D01*
X161082693Y-119656912D01*
X161068862Y-119661704D01*
X161054631Y-119666387D01*
X161039998Y-119670960D01*
X161024965Y-119675423D01*
X161012075Y-119679050D01*
X160999185Y-119682807D01*
X160986295Y-119686695D01*
X160973405Y-119690714D01*
X160960515Y-119694863D01*
X160947625Y-119699143D01*
X160934736Y-119703553D01*
X160921846Y-119708094D01*
X160908956Y-119712765D01*
X160896066Y-119717567D01*
X160883176Y-119722499D01*
X160870286Y-119727562D01*
X160857396Y-119732756D01*
X160845398Y-119737716D01*
X160833660Y-119743149D01*
X160822180Y-119749054D01*
X160810959Y-119755432D01*
X160799996Y-119762282D01*
X160789293Y-119769605D01*
X160778848Y-119777400D01*
X160768661Y-119785667D01*
X160758734Y-119794407D01*
X160749065Y-119803619D01*
X160739655Y-119813304D01*
X160730504Y-119823461D01*
X160721611Y-119834091D01*
X160712977Y-119845193D01*
X160705635Y-119855262D01*
X160698766Y-119865624D01*
X160692371Y-119876279D01*
X160686450Y-119887226D01*
X160681003Y-119898466D01*
X160676029Y-119909999D01*
X160671529Y-119921825D01*
X160667502Y-119933943D01*
X160663949Y-119946353D01*
X160660870Y-119959057D01*
X160658265Y-119972053D01*
X160656133Y-119985342D01*
X160654475Y-119998923D01*
X160653291Y-120012798D01*
X160652581Y-120026965D01*
X160652344Y-120041424D01*
X160652600Y-120054891D01*
X160653369Y-120068170D01*
X160654651Y-120081262D01*
X160656445Y-120094166D01*
X160658752Y-120106883D01*
X160661571Y-120119412D01*
X160664903Y-120131754D01*
X160668748Y-120143909D01*
X160673105Y-120155877D01*
X160677975Y-120167657D01*
X160683358Y-120179249D01*
X160689253Y-120190654D01*
X160695661Y-120201872D01*
X160702581Y-120212902D01*
X160710015Y-120223745D01*
X160717960Y-120234401D01*
X160726419Y-120244869D01*
X160735390Y-120255150D01*
X160744873Y-120265243D01*
X160754870Y-120275149D01*
X160762923Y-120282551D01*
X160771308Y-120289662D01*
X160780027Y-120296483D01*
X160789078Y-120303014D01*
X160798461Y-120309255D01*
X160808178Y-120315205D01*
X160818227Y-120320865D01*
X160828609Y-120326235D01*
X160839323Y-120331315D01*
X160850370Y-120336104D01*
X160861750Y-120340603D01*
X160873463Y-120344812D01*
X160885508Y-120348730D01*
X160897886Y-120352359D01*
X160910596Y-120355697D01*
X160923639Y-120358744D01*
X160937015Y-120361502D01*
X160950724Y-120363969D01*
X160964765Y-120366146D01*
X160979139Y-120368033D01*
X160993846Y-120369629D01*
X161008885Y-120370935D01*
X161024257Y-120371951D01*
X161039962Y-120372677D01*
X161056000Y-120373112D01*
X161072370Y-120373257D01*
X161086775Y-120373132D01*
X161101065Y-120372756D01*
X161115238Y-120372130D01*
X161129294Y-120371254D01*
X161143234Y-120370127D01*
X161157058Y-120368749D01*
X161170765Y-120367121D01*
X161184356Y-120365242D01*
X161197830Y-120363114D01*
X161211188Y-120360734D01*
X161224429Y-120358104D01*
X161237554Y-120355224D01*
X161250563Y-120352093D01*
X161263455Y-120348712D01*
X161276231Y-120345080D01*
X161288891Y-120341198D01*
X161301434Y-120337065D01*
X161313860Y-120332682D01*
X161326170Y-120328049D01*
X161338364Y-120323165D01*
X161350442Y-120318030D01*
X161362402Y-120312645D01*
X161374247Y-120307010D01*
X161385975Y-120301124D01*
X161397587Y-120294988D01*
X161397587Y-120107577D01*
X161385336Y-120114324D01*
X161373019Y-120120783D01*
X161360638Y-120126955D01*
X161348192Y-120132840D01*
X161335680Y-120138438D01*
X161323104Y-120143749D01*
X161310462Y-120148773D01*
X161297756Y-120153510D01*
X161284984Y-120157960D01*
X161272147Y-120162123D01*
X161259245Y-120165998D01*
X161246278Y-120169587D01*
X161233246Y-120172888D01*
X161220149Y-120175903D01*
X161206987Y-120178630D01*
X161193760Y-120181070D01*
X161180467Y-120183223D01*
X161167110Y-120185089D01*
X161153687Y-120186668D01*
X161140200Y-120187960D01*
X161126647Y-120188965D01*
X161113030Y-120189683D01*
X161099347Y-120190113D01*
X161085599Y-120190257D01*
X161081189Y-120190257D01*
X161064874Y-120190029D01*
X161049173Y-120189344D01*
X161034084Y-120188202D01*
X161019609Y-120186605D01*
X161005747Y-120184550D01*
X160992499Y-120182039D01*
X160979863Y-120179072D01*
X160967841Y-120175648D01*
X160956432Y-120171767D01*
X160945636Y-120167430D01*
X160935453Y-120162636D01*
X160925883Y-120157386D01*
X160916927Y-120151679D01*
X160906035Y-120143531D01*
X160896289Y-120134965D01*
X160887690Y-120125980D01*
X160880238Y-120116576D01*
X160873932Y-120106753D01*
X160868772Y-120096512D01*
X160864760Y-120085851D01*
X160861893Y-120074772D01*
X160860173Y-120063275D01*
X160859600Y-120051358D01*
X160860092Y-120038956D01*
X160861568Y-120027010D01*
X160864028Y-120015520D01*
X160867472Y-120004485D01*
X160871900Y-119993906D01*
X160877312Y-119983783D01*
X160883708Y-119974116D01*
X160891088Y-119964905D01*
X160899452Y-119956149D01*
X160908800Y-119947849D01*
X160919131Y-119940005D01*
X160929053Y-119932978D01*
X160939343Y-119926226D01*
X160950000Y-119919751D01*
X160961024Y-119913550D01*
X160972416Y-119907626D01*
X160984175Y-119901976D01*
X160996302Y-119896603D01*
X161008796Y-119891504D01*
X161021657Y-119886682D01*
X161034887Y-119882135D01*
X161048483Y-119877863D01*
X161062447Y-119873867D01*
X161075507Y-119870108D01*
X161088567Y-119866297D01*
X161101626Y-119862434D01*
X161114686Y-119858519D01*
X161127745Y-119854552D01*
X161140805Y-119850534D01*
X161153864Y-119846463D01*
X161166924Y-119842340D01*
X161179983Y-119838165D01*
X161193043Y-119833938D01*
X161206103Y-119829659D01*
X161219162Y-119825328D01*
X161232222Y-119820945D01*
X161244968Y-119816143D01*
X161257428Y-119810897D01*
X161269600Y-119805208D01*
X161281485Y-119799076D01*
X161293084Y-119792501D01*
X161304395Y-119785482D01*
X161315419Y-119778020D01*
X161326157Y-119770114D01*
X161336607Y-119761765D01*
X161346770Y-119752973D01*
X161356646Y-119743737D01*
X161366236Y-119734058D01*
X161375538Y-119723935D01*
X161383069Y-119714646D01*
X161390080Y-119705003D01*
X161396572Y-119695008D01*
X161402545Y-119684659D01*
X161407998Y-119673958D01*
X161412932Y-119662904D01*
X161417347Y-119651498D01*
X161421242Y-119639738D01*
X161424618Y-119627626D01*
X161427474Y-119615161D01*
X161429812Y-119602343D01*
X161431629Y-119589172D01*
X161432928Y-119575648D01*
X161433707Y-119561772D01*
X161433967Y-119547543D01*
X161433967Y-119547543D01*
X161433967Y-119547543D01*
G37*
G36*
X160491389Y-119403120D02*
X160491389Y-119228940D01*
X160295156Y-119228940D01*
X160295156Y-118892697D01*
X160089002Y-118892697D01*
X160089002Y-119228940D01*
X159789141Y-119228940D01*
X159789141Y-119403120D01*
X160089002Y-119403120D01*
X160089002Y-120057966D01*
X160088658Y-120069719D01*
X160087626Y-120080926D01*
X160085906Y-120091585D01*
X160083499Y-120101699D01*
X160080403Y-120111265D01*
X160076620Y-120120285D01*
X160072149Y-120128758D01*
X160066989Y-120136685D01*
X160061143Y-120144064D01*
X160054608Y-120150898D01*
X160047385Y-120157184D01*
X160039474Y-120162924D01*
X160030876Y-120168117D01*
X160021589Y-120172764D01*
X160011615Y-120176864D01*
X160000953Y-120180417D01*
X159989603Y-120183424D01*
X159977565Y-120185884D01*
X159964839Y-120187797D01*
X159951426Y-120189164D01*
X159937324Y-120189984D01*
X159922535Y-120190257D01*
X159920330Y-120190257D01*
X159905127Y-120189926D01*
X159890387Y-120188934D01*
X159876111Y-120187281D01*
X159862298Y-120184966D01*
X159848947Y-120181990D01*
X159836060Y-120178352D01*
X159823635Y-120174053D01*
X159811674Y-120169093D01*
X159800176Y-120163471D01*
X159789140Y-120157188D01*
X159789140Y-120342401D01*
X159802002Y-120347329D01*
X159814864Y-120351829D01*
X159827725Y-120355901D01*
X159840587Y-120359543D01*
X159853449Y-120362758D01*
X159866310Y-120365543D01*
X159879172Y-120367900D01*
X159892034Y-120369829D01*
X159904895Y-120371329D01*
X159917757Y-120372400D01*
X159930619Y-120373043D01*
X159943480Y-120373257D01*
X159948992Y-120373257D01*
X159960759Y-120373055D01*
X159972751Y-120372446D01*
X159984968Y-120371433D01*
X159997410Y-120370013D01*
X160010076Y-120368189D01*
X160022968Y-120365959D01*
X160036085Y-120363323D01*
X160046605Y-120360884D01*
X160057589Y-120357984D01*
X160069035Y-120354621D01*
X160080944Y-120350797D01*
X160093316Y-120346511D01*
X160106150Y-120341762D01*
X160119447Y-120336552D01*
X160133207Y-120330879D01*
X160147430Y-120324745D01*
X160158874Y-120318986D01*
X160169952Y-120312534D01*
X160180667Y-120305390D01*
X160191017Y-120297553D01*
X160201003Y-120289024D01*
X160210624Y-120279803D01*
X160219881Y-120269889D01*
X160228773Y-120259283D01*
X160237301Y-120247985D01*
X160245464Y-120235994D01*
X160253263Y-120223311D01*
X160259034Y-120212742D01*
X160264378Y-120201825D01*
X160269294Y-120190559D01*
X160273782Y-120178944D01*
X160277843Y-120166981D01*
X160281477Y-120154669D01*
X160284683Y-120142008D01*
X160287461Y-120128999D01*
X160289812Y-120115641D01*
X160291736Y-120101934D01*
X160293232Y-120087879D01*
X160294301Y-120073475D01*
X160294942Y-120058723D01*
X160295156Y-120043622D01*
X160295156Y-119403105D01*
X160491388Y-119403105D01*
X160491389Y-119403120D01*
X160491389Y-119403120D01*
G37*
G36*
X159580781Y-120000634D02*
X159375730Y-119998391D01*
X159375481Y-120009840D01*
X159374734Y-120020937D01*
X159373489Y-120031682D01*
X159371745Y-120042075D01*
X159369504Y-120052115D01*
X159366765Y-120061803D01*
X159363527Y-120071138D01*
X159359792Y-120080122D01*
X159355558Y-120088753D01*
X159350827Y-120097032D01*
X159345597Y-120104958D01*
X159339869Y-120112532D01*
X159333643Y-120119754D01*
X159326919Y-120126624D01*
X159319697Y-120133141D01*
X159311977Y-120139306D01*
X159303759Y-120145119D01*
X159295043Y-120150579D01*
X159285829Y-120155688D01*
X159276116Y-120160443D01*
X159265906Y-120164847D01*
X159255197Y-120168898D01*
X159243991Y-120172597D01*
X159232286Y-120175944D01*
X159220084Y-120178939D01*
X159207383Y-120181581D01*
X159194184Y-120183871D01*
X159180487Y-120185808D01*
X159166292Y-120187393D01*
X159151599Y-120188626D01*
X159136408Y-120189507D01*
X159120719Y-120190036D01*
X159104532Y-120190212D01*
X159101225Y-120190212D01*
X159085490Y-120190032D01*
X159070254Y-120189493D01*
X159055517Y-120188594D01*
X159041280Y-120187335D01*
X159027543Y-120185717D01*
X159014305Y-120183739D01*
X159001567Y-120181402D01*
X158989328Y-120178706D01*
X158977589Y-120175649D01*
X158966350Y-120172233D01*
X158955610Y-120168458D01*
X158945369Y-120164323D01*
X158935628Y-120159828D01*
X158926387Y-120154974D01*
X158917645Y-120149760D01*
X158909402Y-120144187D01*
X158901659Y-120138254D01*
X158894416Y-120131962D01*
X158887672Y-120125310D01*
X158881428Y-120118298D01*
X158875683Y-120110927D01*
X158870438Y-120103196D01*
X158865693Y-120095106D01*
X158861447Y-120086656D01*
X158857700Y-120077846D01*
X158854453Y-120068677D01*
X158851706Y-120059149D01*
X158849458Y-120049261D01*
X158847709Y-120039013D01*
X158846460Y-120028406D01*
X158845711Y-120017439D01*
X158845461Y-120006113D01*
X158845461Y-119823097D01*
X158857284Y-119821267D01*
X158869445Y-119819561D01*
X158881943Y-119817980D01*
X158894778Y-119816523D01*
X158907951Y-119815191D01*
X158921461Y-119813983D01*
X158935309Y-119812899D01*
X158949495Y-119811940D01*
X158964017Y-119811106D01*
X158978878Y-119810395D01*
X158994076Y-119809809D01*
X159009611Y-119809348D01*
X159025484Y-119809011D01*
X159041694Y-119808798D01*
X159054698Y-119808979D01*
X159067882Y-119809523D01*
X159081246Y-119810429D01*
X159094790Y-119811698D01*
X159108515Y-119813329D01*
X159122419Y-119815322D01*
X159136503Y-119817678D01*
X159149026Y-119819754D01*
X159161790Y-119822142D01*
X159174795Y-119824843D01*
X159188041Y-119827857D01*
X159201529Y-119831184D01*
X159215258Y-119834823D01*
X159229228Y-119838776D01*
X159243439Y-119843041D01*
X159255933Y-119847247D01*
X159267937Y-119852024D01*
X159279451Y-119857373D01*
X159290476Y-119863294D01*
X159301010Y-119869787D01*
X159311054Y-119876851D01*
X159320609Y-119884486D01*
X159329673Y-119892693D01*
X159338248Y-119901472D01*
X159347033Y-119911911D01*
X159354646Y-119922832D01*
X159361089Y-119934235D01*
X159366360Y-119946120D01*
X159370459Y-119958487D01*
X159373388Y-119971336D01*
X159375145Y-119984668D01*
X159375730Y-119998481D01*
X159375730Y-119998391D01*
X159580781Y-120000634D01*
X159580536Y-119986799D01*
X159579801Y-119973220D01*
X159578576Y-119959898D01*
X159576861Y-119946832D01*
X159574657Y-119934023D01*
X159571962Y-119921470D01*
X159568777Y-119909174D01*
X159565102Y-119897134D01*
X159560937Y-119885350D01*
X159556283Y-119873823D01*
X159551138Y-119862552D01*
X159545503Y-119851538D01*
X159539379Y-119840779D01*
X159532764Y-119830278D01*
X159525660Y-119820033D01*
X159518065Y-119810044D01*
X159509981Y-119800311D01*
X159501406Y-119790835D01*
X159492342Y-119781616D01*
X159482787Y-119772652D01*
X159472743Y-119763946D01*
X159462209Y-119755495D01*
X159451184Y-119747301D01*
X159439670Y-119739364D01*
X159430144Y-119733148D01*
X159420380Y-119727143D01*
X159410378Y-119721349D01*
X159400139Y-119715766D01*
X159389663Y-119710393D01*
X159378948Y-119705231D01*
X159367996Y-119700280D01*
X159356806Y-119695540D01*
X159345379Y-119691010D01*
X159333714Y-119686690D01*
X159321812Y-119682582D01*
X159309671Y-119678684D01*
X159297294Y-119674997D01*
X159284678Y-119671521D01*
X159271825Y-119668255D01*
X159258734Y-119665200D01*
X159245406Y-119662356D01*
X159231840Y-119659722D01*
X159218036Y-119657299D01*
X159203995Y-119655087D01*
X159189716Y-119653085D01*
X159175199Y-119651294D01*
X159160445Y-119649714D01*
X159145453Y-119648344D01*
X159130224Y-119647186D01*
X159114757Y-119646238D01*
X159099052Y-119645500D01*
X159083110Y-119644973D01*
X159066930Y-119644657D01*
X159050512Y-119644552D01*
X159036430Y-119644611D01*
X159022407Y-119644787D01*
X159008443Y-119645082D01*
X158994538Y-119645494D01*
X158980691Y-119646024D01*
X158966904Y-119646671D01*
X158953175Y-119647437D01*
X158939505Y-119648320D01*
X158925893Y-119649320D01*
X158912341Y-119650439D01*
X158898847Y-119651675D01*
X158885412Y-119653029D01*
X158872036Y-119654501D01*
X158858719Y-119656090D01*
X158845460Y-119657798D01*
X158846463Y-119641345D01*
X158847917Y-119625450D01*
X158849820Y-119610112D01*
X158852174Y-119595330D01*
X158854978Y-119581106D01*
X158858232Y-119567438D01*
X158861936Y-119554327D01*
X158866090Y-119541773D01*
X158870694Y-119529776D01*
X158875749Y-119518335D01*
X158881253Y-119507452D01*
X158887208Y-119497125D01*
X158893612Y-119487355D01*
X158900467Y-119478142D01*
X158907772Y-119469486D01*
X158915527Y-119461387D01*
X158923733Y-119453845D01*
X158931413Y-119447518D01*
X158939600Y-119441534D01*
X158948294Y-119435891D01*
X158957496Y-119430590D01*
X158967204Y-119425632D01*
X158977419Y-119421015D01*
X158988141Y-119416740D01*
X158999370Y-119412807D01*
X159011106Y-119409216D01*
X159023348Y-119405968D01*
X159036098Y-119403061D01*
X159049355Y-119400496D01*
X159063118Y-119398273D01*
X159077389Y-119396392D01*
X159092166Y-119394853D01*
X159107451Y-119393656D01*
X159123242Y-119392801D01*
X159139540Y-119392288D01*
X159156345Y-119392117D01*
X159169131Y-119392224D01*
X159181987Y-119392542D01*
X159194914Y-119393074D01*
X159207912Y-119393818D01*
X159220980Y-119394774D01*
X159234120Y-119395943D01*
X159247330Y-119397325D01*
X159260612Y-119398919D01*
X159273964Y-119400726D01*
X159287387Y-119402745D01*
X159300880Y-119404976D01*
X159314445Y-119407421D01*
X159328081Y-119410078D01*
X159341787Y-119412947D01*
X159355564Y-119416029D01*
X159369413Y-119419323D01*
X159383331Y-119422830D01*
X159397321Y-119426550D01*
X159411382Y-119430482D01*
X159425514Y-119434627D01*
X159439716Y-119438984D01*
X159453989Y-119443554D01*
X159468333Y-119448336D01*
X159468333Y-119271943D01*
X159455512Y-119267190D01*
X159442623Y-119262631D01*
X159429667Y-119258266D01*
X159416644Y-119254094D01*
X159403554Y-119250117D01*
X159390398Y-119246334D01*
X159377174Y-119242745D01*
X159363883Y-119239349D01*
X159350525Y-119236148D01*
X159337100Y-119233141D01*
X159323608Y-119230328D01*
X159310049Y-119227709D01*
X159296423Y-119225283D01*
X159282730Y-119223052D01*
X159268970Y-119221015D01*
X159255143Y-119219172D01*
X159241248Y-119217523D01*
X159227287Y-119216068D01*
X159213259Y-119214807D01*
X159199164Y-119213740D01*
X159185002Y-119212867D01*
X159170772Y-119212188D01*
X159156476Y-119211703D01*
X159142113Y-119211412D01*
X159127682Y-119211315D01*
X159112147Y-119211451D01*
X159096849Y-119211858D01*
X159081788Y-119212538D01*
X159066965Y-119213490D01*
X159052380Y-119214714D01*
X159038033Y-119216209D01*
X159023923Y-119217977D01*
X159010050Y-119220017D01*
X158996416Y-119222328D01*
X158983019Y-119224911D01*
X158969860Y-119227767D01*
X158956938Y-119230894D01*
X158944254Y-119234293D01*
X158931807Y-119237964D01*
X158919598Y-119241907D01*
X158907627Y-119246122D01*
X158895894Y-119250609D01*
X158884398Y-119255368D01*
X158873140Y-119260399D01*
X158862119Y-119265702D01*
X158851336Y-119271277D01*
X158840791Y-119277123D01*
X158830483Y-119283242D01*
X158820413Y-119289632D01*
X158810580Y-119296295D01*
X158800986Y-119303229D01*
X158791628Y-119310436D01*
X158782509Y-119317914D01*
X158773627Y-119325664D01*
X158764983Y-119333686D01*
X158756315Y-119342177D01*
X158747952Y-119350922D01*
X158739893Y-119359921D01*
X158732138Y-119369175D01*
X158724687Y-119378683D01*
X158717540Y-119388445D01*
X158710697Y-119398462D01*
X158704159Y-119408732D01*
X158697924Y-119419258D01*
X158691994Y-119430037D01*
X158686368Y-119441071D01*
X158681046Y-119452359D01*
X158676028Y-119463901D01*
X158671314Y-119475697D01*
X158666904Y-119487748D01*
X158662799Y-119500053D01*
X158658997Y-119512613D01*
X158655500Y-119525426D01*
X158652307Y-119538494D01*
X158649417Y-119551817D01*
X158646832Y-119565393D01*
X158644552Y-119579224D01*
X158642575Y-119593309D01*
X158640902Y-119607649D01*
X158639534Y-119622242D01*
X158638469Y-119637090D01*
X158637709Y-119652193D01*
X158637253Y-119667549D01*
X158637101Y-119683160D01*
X158637101Y-120008370D01*
X158637315Y-120020497D01*
X158637958Y-120032624D01*
X158639030Y-120044751D01*
X158640530Y-120056877D01*
X158642460Y-120069004D01*
X158644818Y-120081131D01*
X158647135Y-120091639D01*
X158650308Y-120103001D01*
X158654335Y-120115218D01*
X158659217Y-120128289D01*
X158664954Y-120142215D01*
X158671546Y-120156996D01*
X158678993Y-120172631D01*
X158685118Y-120184950D01*
X158691732Y-120196916D01*
X158698837Y-120208526D01*
X158706431Y-120219783D01*
X158714516Y-120230686D01*
X158723090Y-120241234D01*
X158732155Y-120251428D01*
X158741709Y-120261268D01*
X158751753Y-120270754D01*
X158759792Y-120277659D01*
X158768474Y-120284411D01*
X158777798Y-120291010D01*
X158787766Y-120297456D01*
X158798377Y-120303749D01*
X158809631Y-120309889D01*
X158821528Y-120315876D01*
X158834068Y-120321710D01*
X158847251Y-120327391D01*
X158861078Y-120332918D01*
X158875547Y-120338293D01*
X158890660Y-120343515D01*
X158902347Y-120347118D01*
X158914259Y-120350489D01*
X158926394Y-120353628D01*
X158938753Y-120356534D01*
X158951336Y-120359207D01*
X158964144Y-120361648D01*
X158977175Y-120363857D01*
X158990430Y-120365833D01*
X159003909Y-120367577D01*
X159017611Y-120369088D01*
X159031538Y-120370366D01*
X159045689Y-120371412D01*
X159060064Y-120372226D01*
X159074662Y-120372807D01*
X159089485Y-120373156D01*
X159104531Y-120373272D01*
X159119982Y-120373152D01*
X159135193Y-120372790D01*
X159150161Y-120372188D01*
X159164889Y-120371344D01*
X159179376Y-120370259D01*
X159193621Y-120368933D01*
X159207626Y-120367366D01*
X159221389Y-120365558D01*
X159234911Y-120363509D01*
X159248192Y-120361219D01*
X159261231Y-120358688D01*
X159274030Y-120355916D01*
X159286587Y-120352902D01*
X159298903Y-120349648D01*
X159310979Y-120346153D01*
X159322812Y-120342416D01*
X159338109Y-120337016D01*
X159352762Y-120331479D01*
X159366772Y-120325804D01*
X159380139Y-120319992D01*
X159392863Y-120314042D01*
X159404944Y-120307955D01*
X159416381Y-120301730D01*
X159427176Y-120295367D01*
X159437327Y-120288867D01*
X159446836Y-120282230D01*
X159455701Y-120275454D01*
X159463924Y-120268542D01*
X159473217Y-120260009D01*
X159482136Y-120251168D01*
X159490680Y-120242018D01*
X159498849Y-120232559D01*
X159506643Y-120222791D01*
X159514062Y-120212715D01*
X159521107Y-120202329D01*
X159527776Y-120191635D01*
X159534071Y-120180632D01*
X159539991Y-120169320D01*
X159546554Y-120155300D01*
X159552462Y-120141901D01*
X159557716Y-120129121D01*
X159562315Y-120116962D01*
X159566260Y-120105422D01*
X159569550Y-120094503D01*
X159572186Y-120084203D01*
X159574167Y-120074523D01*
X159576188Y-120062056D01*
X159577842Y-120049651D01*
X159579128Y-120037307D01*
X159580047Y-120025026D01*
X159580598Y-120012806D01*
X159580782Y-120000649D01*
X159580781Y-120000634D01*
X159580781Y-120000634D01*
G37*
G36*
X158266684Y-120223326D02*
X158274384Y-120214650D01*
X158281861Y-120205759D01*
X158289114Y-120196651D01*
X158296145Y-120187328D01*
X158302952Y-120177788D01*
X158309536Y-120168033D01*
X158315896Y-120158062D01*
X158322034Y-120147874D01*
X158327949Y-120137471D01*
X158333640Y-120126851D01*
X158339108Y-120116016D01*
X158344353Y-120104965D01*
X158349374Y-120093697D01*
X158354173Y-120082214D01*
X158358748Y-120070515D01*
X158363100Y-120058600D01*
X158367229Y-120046468D01*
X158371135Y-120034121D01*
X158374818Y-120021558D01*
X158378277Y-120008779D01*
X158381513Y-119995783D01*
X158384526Y-119982572D01*
X158387316Y-119969145D01*
X158389883Y-119955502D01*
X158392226Y-119941643D01*
X158394346Y-119927568D01*
X158396243Y-119913276D01*
X158397917Y-119898769D01*
X158399368Y-119884046D01*
X158400596Y-119869107D01*
X158401600Y-119853952D01*
X158402381Y-119838581D01*
X158402939Y-119822994D01*
X158403274Y-119807191D01*
X158403385Y-119791172D01*
X158403274Y-119775154D01*
X158402939Y-119759354D01*
X158402381Y-119743771D01*
X158401600Y-119728407D01*
X158400596Y-119713260D01*
X158399368Y-119698331D01*
X158397917Y-119683619D01*
X158396243Y-119669126D01*
X158394346Y-119654850D01*
X158392226Y-119640792D01*
X158389883Y-119626952D01*
X158387316Y-119613330D01*
X158384526Y-119599926D01*
X158381513Y-119586739D01*
X158378277Y-119573770D01*
X158374818Y-119561019D01*
X158371135Y-119548486D01*
X158367229Y-119536171D01*
X158363100Y-119524073D01*
X158358748Y-119512193D01*
X158354173Y-119500531D01*
X158349374Y-119489087D01*
X158344353Y-119477860D01*
X158339108Y-119466852D01*
X158333640Y-119456061D01*
X158327949Y-119445488D01*
X158322034Y-119435133D01*
X158315896Y-119424995D01*
X158309536Y-119415076D01*
X158302952Y-119405374D01*
X158296145Y-119395890D01*
X158289114Y-119386624D01*
X158281861Y-119377576D01*
X158274384Y-119368745D01*
X158266684Y-119360132D01*
X158258289Y-119351249D01*
X158249673Y-119342639D01*
X158240836Y-119334302D01*
X158231779Y-119326238D01*
X158222501Y-119318448D01*
X158213002Y-119310931D01*
X158203283Y-119303688D01*
X158193343Y-119296718D01*
X158183182Y-119290021D01*
X158172800Y-119283597D01*
X158162198Y-119277447D01*
X158151375Y-119271571D01*
X158140332Y-119265967D01*
X158129067Y-119260637D01*
X158117583Y-119255580D01*
X158105877Y-119250797D01*
X158093951Y-119246287D01*
X158081804Y-119242050D01*
X158069436Y-119238087D01*
X158056848Y-119234397D01*
X158044039Y-119230980D01*
X158031009Y-119227836D01*
X158017758Y-119224966D01*
X158004287Y-119222370D01*
X157990596Y-119220046D01*
X157976683Y-119217996D01*
X157962550Y-119216220D01*
X157948196Y-119214716D01*
X157933621Y-119213486D01*
X157918826Y-119212530D01*
X157903810Y-119211846D01*
X157888574Y-119211436D01*
X157873116Y-119211300D01*
X157859377Y-119211400D01*
X157845677Y-119211702D01*
X157832016Y-119212204D01*
X157818393Y-119212908D01*
X157804810Y-119213813D01*
X157791265Y-119214919D01*
X157777759Y-119216226D01*
X157764291Y-119217734D01*
X157750863Y-119219444D01*
X157737473Y-119221354D01*
X157724122Y-119223466D01*
X157710810Y-119225778D01*
X157697537Y-119228292D01*
X157684302Y-119231007D01*
X157671107Y-119233922D01*
X157657950Y-119237039D01*
X157644832Y-119240357D01*
X157631753Y-119243877D01*
X157618712Y-119247597D01*
X157605711Y-119251518D01*
X157592748Y-119255640D01*
X157579824Y-119259964D01*
X157566939Y-119264489D01*
X157554092Y-119269214D01*
X157541285Y-119274141D01*
X157541285Y-119470372D01*
X157554060Y-119464345D01*
X157566847Y-119458575D01*
X157579646Y-119453061D01*
X157592456Y-119447804D01*
X157605277Y-119442803D01*
X157618110Y-119438058D01*
X157630955Y-119433570D01*
X157643811Y-119429339D01*
X157656678Y-119425364D01*
X157669557Y-119421645D01*
X157682447Y-119418183D01*
X157695349Y-119414977D01*
X157708263Y-119412028D01*
X157721188Y-119409335D01*
X157734124Y-119406899D01*
X157747072Y-119404719D01*
X157760031Y-119402796D01*
X157773002Y-119401129D01*
X157785984Y-119399718D01*
X157798978Y-119398564D01*
X157811983Y-119397667D01*
X157825000Y-119397025D01*
X157838028Y-119396641D01*
X157851068Y-119396513D01*
X157855478Y-119396513D01*
X157870854Y-119396714D01*
X157885894Y-119397317D01*
X157900598Y-119398323D01*
X157914965Y-119399731D01*
X157928996Y-119401542D01*
X157942691Y-119403755D01*
X157956050Y-119406370D01*
X157969072Y-119409387D01*
X157981758Y-119412807D01*
X157994108Y-119416629D01*
X158006122Y-119420854D01*
X158017800Y-119425481D01*
X158029141Y-119430510D01*
X158040146Y-119435941D01*
X158050815Y-119441775D01*
X158061147Y-119448012D01*
X158071143Y-119454650D01*
X158080804Y-119461691D01*
X158090127Y-119469134D01*
X158099115Y-119476980D01*
X158105769Y-119483316D01*
X158112161Y-119490112D01*
X158118293Y-119497368D01*
X158124164Y-119505084D01*
X158129774Y-119513260D01*
X158135123Y-119521895D01*
X158140211Y-119530991D01*
X158145039Y-119540546D01*
X158149605Y-119550561D01*
X158153910Y-119561036D01*
X158157955Y-119571971D01*
X158161738Y-119583365D01*
X158165261Y-119595220D01*
X158168522Y-119607534D01*
X158171523Y-119620308D01*
X158174263Y-119633542D01*
X158176742Y-119647236D01*
X158178960Y-119661389D01*
X158180917Y-119676003D01*
X158182613Y-119691076D01*
X158184048Y-119706609D01*
X158185222Y-119722602D01*
X158186135Y-119739055D01*
X158186788Y-119755967D01*
X158187179Y-119773340D01*
X158187309Y-119791172D01*
X158187197Y-119807597D01*
X158186859Y-119823650D01*
X158186295Y-119839330D01*
X158185506Y-119854637D01*
X158184492Y-119869572D01*
X158183252Y-119884135D01*
X158181787Y-119898325D01*
X158180097Y-119912142D01*
X158178181Y-119925588D01*
X158176040Y-119938660D01*
X158173674Y-119951360D01*
X158171082Y-119963688D01*
X158168264Y-119975643D01*
X158165222Y-119987226D01*
X158161954Y-119998436D01*
X158156942Y-120012923D01*
X158151531Y-120026717D01*
X158145718Y-120039819D01*
X158139504Y-120052229D01*
X158132889Y-120063946D01*
X158125874Y-120074971D01*
X158118458Y-120085303D01*
X158110640Y-120094943D01*
X158102422Y-120103891D01*
X158093803Y-120112146D01*
X158084783Y-120119709D01*
X158073269Y-120128199D01*
X158061755Y-120136037D01*
X158050241Y-120143222D01*
X158038726Y-120149753D01*
X158027212Y-120155632D01*
X158015698Y-120160857D01*
X158004183Y-120165430D01*
X157992669Y-120169349D01*
X157981155Y-120172616D01*
X157970373Y-120175133D01*
X157959194Y-120177385D01*
X157947619Y-120179371D01*
X157935647Y-120181093D01*
X157923277Y-120182550D01*
X157910511Y-120183742D01*
X157897348Y-120184670D01*
X157883788Y-120185332D01*
X157869831Y-120185729D01*
X157855478Y-120185862D01*
X157841990Y-120185737D01*
X157828537Y-120185364D01*
X157815118Y-120184742D01*
X157801734Y-120183871D01*
X157788385Y-120182751D01*
X157775069Y-120181383D01*
X157761788Y-120179766D01*
X157748542Y-120177899D01*
X157735330Y-120175784D01*
X157722153Y-120173420D01*
X157709010Y-120170808D01*
X157695901Y-120167946D01*
X157682827Y-120164836D01*
X157669787Y-120161477D01*
X157656782Y-120157869D01*
X157643811Y-120154012D01*
X157630875Y-120149906D01*
X157617973Y-120145552D01*
X157605106Y-120140949D01*
X157592273Y-120136097D01*
X157579474Y-120130996D01*
X157566710Y-120125646D01*
X157553980Y-120120047D01*
X157541285Y-120114200D01*
X157541285Y-120310431D01*
X157554093Y-120315358D01*
X157566939Y-120320083D01*
X157579824Y-120324608D01*
X157592748Y-120328931D01*
X157605711Y-120333054D01*
X157618713Y-120336975D01*
X157631753Y-120340695D01*
X157644832Y-120344214D01*
X157657950Y-120347532D01*
X157671107Y-120350649D01*
X157684303Y-120353565D01*
X157697537Y-120356280D01*
X157710811Y-120358794D01*
X157724123Y-120361106D01*
X157737474Y-120363218D01*
X157750863Y-120365128D01*
X157764292Y-120366837D01*
X157777759Y-120368346D01*
X157791265Y-120369653D01*
X157804810Y-120370759D01*
X157818394Y-120371664D01*
X157832016Y-120372367D01*
X157845678Y-120372870D01*
X157859378Y-120373172D01*
X157873117Y-120373272D01*
X157888574Y-120373135D01*
X157903811Y-120372722D01*
X157918827Y-120372033D01*
X157933622Y-120371069D01*
X157948196Y-120369830D01*
X157962550Y-120368316D01*
X157976683Y-120366526D01*
X157990596Y-120364461D01*
X158004288Y-120362120D01*
X158017759Y-120359505D01*
X158031009Y-120356613D01*
X158044039Y-120353447D01*
X158056848Y-120350005D01*
X158069436Y-120346287D01*
X158081804Y-120342295D01*
X158093951Y-120338027D01*
X158105877Y-120333483D01*
X158117583Y-120328665D01*
X158129068Y-120323571D01*
X158140332Y-120318201D01*
X158151376Y-120312556D01*
X158162199Y-120306636D01*
X158172801Y-120300441D01*
X158183182Y-120293970D01*
X158193343Y-120287224D01*
X158203283Y-120280202D01*
X158213002Y-120272905D01*
X158222501Y-120265333D01*
X158231779Y-120257485D01*
X158240837Y-120249362D01*
X158249673Y-120240964D01*
X158258289Y-120232290D01*
X158266684Y-120223341D01*
X158266684Y-120223326D01*
X158266684Y-120223326D01*
G37*
G36*
X157295443Y-120355617D02*
X157295443Y-118800098D01*
X157089288Y-118800098D01*
X157089288Y-119700786D01*
X156602014Y-119228940D01*
X156321996Y-119228940D01*
X156811476Y-119698573D01*
X156256953Y-120355617D01*
X156531458Y-120355617D01*
X156949279Y-119831963D01*
X157089288Y-119967565D01*
X157089288Y-120355617D01*
X157295443Y-120355617D01*
X157295443Y-120355617D01*
G37*
D12*
X158725000Y-99240000D02*
X160575000Y-99240000D01*
X158725000Y-116760000D02*
X160575000Y-116760000D01*
X159650000Y-115800000D02*
X159650000Y-100200000D01*
X156850000Y-96500000D02*
X157550000Y-96500000D01*
X157550000Y-95300000D02*
X156850000Y-95300000D01*
X158337500Y-94737500D02*
X156187500Y-94737500D01*
X159162500Y-92487500D02*
X156187500Y-92487500D01*
X154950000Y-91875000D02*
X155950000Y-91875000D01*
X155950000Y-90525000D02*
X154950000Y-90525000D01*
X151340000Y-117770000D02*
X151340000Y-118470000D01*
X152540000Y-118470000D02*
X152540000Y-117770000D01*
X152540000Y-114580000D02*
X152540000Y-113880000D01*
X151340000Y-113880000D02*
X151340000Y-114580000D01*
X142525000Y-118190000D02*
X142525000Y-117190000D01*
X141175000Y-117190000D02*
X141175000Y-118190000D01*
X144415000Y-118855000D02*
X144415000Y-118655000D01*
X149065000Y-118855000D02*
X149065000Y-118655000D01*
X149065000Y-115605000D02*
X149065000Y-115805000D01*
X144415000Y-115605000D02*
X144415000Y-115805000D01*
X144415000Y-118855000D02*
X149065000Y-118855000D01*
X144415000Y-115605000D02*
X149065000Y-115605000D01*
X144415000Y-118655000D02*
X143065000Y-118655000D01*
X159423333Y-121438571D02*
X159756667Y-121438571D01*
X159756667Y-121962381D02*
X159756667Y-120962381D01*
X159280476Y-120962381D01*
X158470952Y-120962381D02*
X158661429Y-120962381D01*
X158756667Y-121010000D01*
X158804286Y-121057619D01*
X158899524Y-121200476D01*
X158947143Y-121390952D01*
X158947143Y-121771905D01*
X158899524Y-121867143D01*
X158851905Y-121914762D01*
X158756667Y-121962381D01*
X158566190Y-121962381D01*
X158470952Y-121914762D01*
X158423333Y-121867143D01*
X158375714Y-121771905D01*
X158375714Y-121533810D01*
X158423333Y-121438571D01*
X158470952Y-121390952D01*
X158566190Y-121343333D01*
X158756667Y-121343333D01*
X158851905Y-121390952D01*
X158899524Y-121438571D01*
X158947143Y-121533810D01*
X135753333Y-124298571D02*
X136086667Y-124298571D01*
X136086667Y-124822381D02*
X136086667Y-123822381D01*
X135610476Y-123822381D01*
X134800952Y-124155714D02*
X134800952Y-124822381D01*
X135039048Y-123774762D02*
X135277143Y-124489048D01*
X134658095Y-124489048D01*
X133513333Y-95118571D02*
X133846667Y-95118571D01*
X133846667Y-95642381D02*
X133846667Y-94642381D01*
X133370476Y-94642381D01*
X132513333Y-94642381D02*
X132989524Y-94642381D01*
X133037143Y-95118571D01*
X132989524Y-95070952D01*
X132894286Y-95023333D01*
X132656190Y-95023333D01*
X132560952Y-95070952D01*
X132513333Y-95118571D01*
X132465714Y-95213810D01*
X132465714Y-95451905D01*
X132513333Y-95547143D01*
X132560952Y-95594762D01*
X132656190Y-95642381D01*
X132894286Y-95642381D01*
X132989524Y-95594762D01*
X133037143Y-95547143D01*
X154237143Y-117973334D02*
X154284762Y-117925715D01*
X154332381Y-117782858D01*
X154332381Y-117687620D01*
X154284762Y-117544762D01*
X154189524Y-117449524D01*
X154094286Y-117401905D01*
X153903810Y-117354286D01*
X153760952Y-117354286D01*
X153570476Y-117401905D01*
X153475238Y-117449524D01*
X153380000Y-117544762D01*
X153332381Y-117687620D01*
X153332381Y-117782858D01*
X153380000Y-117925715D01*
X153427619Y-117973334D01*
X153427619Y-118354286D02*
X153380000Y-118401905D01*
X153332381Y-118497143D01*
X153332381Y-118735239D01*
X153380000Y-118830477D01*
X153427619Y-118878096D01*
X153522857Y-118925715D01*
X153618095Y-118925715D01*
X153760952Y-118878096D01*
X154332381Y-118306667D01*
X154332381Y-118925715D01*
X154197143Y-114063334D02*
X154244762Y-114015715D01*
X154292381Y-113872858D01*
X154292381Y-113777620D01*
X154244762Y-113634762D01*
X154149524Y-113539524D01*
X154054286Y-113491905D01*
X153863810Y-113444286D01*
X153720952Y-113444286D01*
X153530476Y-113491905D01*
X153435238Y-113539524D01*
X153340000Y-113634762D01*
X153292381Y-113777620D01*
X153292381Y-113872858D01*
X153340000Y-114015715D01*
X153387619Y-114063334D01*
X153292381Y-114396667D02*
X153292381Y-115015715D01*
X153673333Y-114682381D01*
X153673333Y-114825239D01*
X153720952Y-114920477D01*
X153768571Y-114968096D01*
X153863810Y-115015715D01*
X154101905Y-115015715D01*
X154197143Y-114968096D01*
X154244762Y-114920477D01*
X154292381Y-114825239D01*
X154292381Y-114539524D01*
X154244762Y-114444286D01*
X154197143Y-114396667D01*
X140402381Y-117523334D02*
X139926190Y-117190000D01*
X140402381Y-116951905D02*
X139402381Y-116951905D01*
X139402381Y-117332858D01*
X139450000Y-117428096D01*
X139497619Y-117475715D01*
X139592857Y-117523334D01*
X139735714Y-117523334D01*
X139830952Y-117475715D01*
X139878571Y-117428096D01*
X139926190Y-117332858D01*
X139926190Y-116951905D01*
X139402381Y-118428096D02*
X139402381Y-117951905D01*
X139878571Y-117904286D01*
X139830952Y-117951905D01*
X139783333Y-118047143D01*
X139783333Y-118285239D01*
X139830952Y-118380477D01*
X139878571Y-118428096D01*
X139973810Y-118475715D01*
X140211905Y-118475715D01*
X140307143Y-118428096D01*
X140354762Y-118380477D01*
X140402381Y-118285239D01*
X140402381Y-118047143D01*
X140354762Y-117951905D01*
X140307143Y-117904286D01*
X148751905Y-119192381D02*
X148751905Y-120001905D01*
X148704286Y-120097143D01*
X148656667Y-120144762D01*
X148561429Y-120192381D01*
X148370952Y-120192381D01*
X148275714Y-120144762D01*
X148228095Y-120097143D01*
X148180476Y-120001905D01*
X148180476Y-119192381D01*
X147180476Y-120192381D02*
X147751905Y-120192381D01*
X147466191Y-120192381D02*
X147466191Y-119192381D01*
X147561429Y-119335238D01*
X147656667Y-119430476D01*
X147751905Y-119478095D01*
M02*
