G04 #@! TF.FileFunction,Soldermask,Bot*
%FSLAX46Y46*%
G04 Gerber Fmt 4.6, Leading zero omitted, Abs format (unit mm)*
G04 Created by KiCad (PCBNEW 4.0.1-stable) date Wednesday, March 23, 2016 'PMt' 11:14:25 PM*
%MOMM*%
G01*
G04 APERTURE LIST*
%ADD10C,0.100000*%
%ADD11C,0.010000*%
%ADD12C,2.000000*%
%ADD13O,2.432000X2.127200*%
%ADD14R,2.432000X2.127200*%
%ADD15R,1.060000X0.630000*%
%ADD16R,1.060000X0.750000*%
%ADD17R,1.600000X1.150000*%
%ADD18R,1.150000X0.700000*%
%ADD19R,1.275000X1.125000*%
%ADD20R,1.600000X1.300000*%
%ADD21C,1.924000*%
%ADD22R,2.127200X2.432000*%
%ADD23O,2.127200X2.432000*%
%ADD24R,2.432000X2.432000*%
%ADD25O,2.432000X2.432000*%
%ADD26R,1.150000X1.600000*%
%ADD27R,1.300000X1.600000*%
%ADD28R,1.850000X0.850000*%
G04 APERTURE END LIST*
D10*
D11*
G36*
X146441031Y-95576897D02*
X146478866Y-95575122D01*
X146514763Y-95572050D01*
X146550412Y-95567549D01*
X146587499Y-95561488D01*
X146612537Y-95556774D01*
X146649505Y-95549127D01*
X146684770Y-95540944D01*
X146719378Y-95531892D01*
X146754376Y-95521636D01*
X146790809Y-95509844D01*
X146829722Y-95496182D01*
X146872161Y-95480316D01*
X146919173Y-95461912D01*
X146954737Y-95447594D01*
X147001958Y-95428195D01*
X147049898Y-95408057D01*
X147098959Y-95386989D01*
X147149547Y-95364801D01*
X147202066Y-95341305D01*
X147256921Y-95316311D01*
X147314514Y-95289628D01*
X147375251Y-95261068D01*
X147439536Y-95230441D01*
X147507773Y-95197558D01*
X147580365Y-95162228D01*
X147657719Y-95124263D01*
X147740236Y-95083472D01*
X147828323Y-95039667D01*
X147886085Y-95010823D01*
X147967799Y-94970036D01*
X148043732Y-94932302D01*
X148114358Y-94897404D01*
X148180149Y-94865125D01*
X148241577Y-94835248D01*
X148299115Y-94807556D01*
X148353235Y-94781833D01*
X148404409Y-94757862D01*
X148453111Y-94735425D01*
X148499811Y-94714305D01*
X148544982Y-94694286D01*
X148589097Y-94675152D01*
X148632629Y-94656684D01*
X148676049Y-94638666D01*
X148719829Y-94620881D01*
X148764443Y-94603112D01*
X148810363Y-94585143D01*
X148827542Y-94578491D01*
X148851524Y-94569207D01*
X148873788Y-94560545D01*
X148893348Y-94552891D01*
X148909219Y-94546634D01*
X148920414Y-94542160D01*
X148925784Y-94539930D01*
X148935832Y-94535427D01*
X148920698Y-94516151D01*
X148908889Y-94502098D01*
X148892920Y-94484518D01*
X148873921Y-94464551D01*
X148853023Y-94443337D01*
X148831357Y-94422014D01*
X148810055Y-94401723D01*
X148790246Y-94383603D01*
X148781681Y-94376080D01*
X148706102Y-94314961D01*
X148624352Y-94256762D01*
X148536747Y-94201625D01*
X148443601Y-94149694D01*
X148345231Y-94101114D01*
X148241952Y-94056027D01*
X148134079Y-94014578D01*
X148021928Y-93976909D01*
X147905814Y-93943165D01*
X147786054Y-93913490D01*
X147746278Y-93904719D01*
X147687253Y-93892433D01*
X147633414Y-93881987D01*
X147583205Y-93873123D01*
X147535074Y-93865587D01*
X147487469Y-93859123D01*
X147438835Y-93853474D01*
X147428778Y-93852412D01*
X147408732Y-93850815D01*
X147383512Y-93849562D01*
X147354439Y-93848652D01*
X147322833Y-93848087D01*
X147290014Y-93847866D01*
X147257303Y-93847989D01*
X147226020Y-93848457D01*
X147197485Y-93849270D01*
X147173019Y-93850428D01*
X147153941Y-93851931D01*
X147150083Y-93852371D01*
X147079587Y-93863641D01*
X147014668Y-93879223D01*
X146955314Y-93899125D01*
X146901511Y-93923358D01*
X146853246Y-93951929D01*
X146810506Y-93984848D01*
X146773275Y-94022125D01*
X146741542Y-94063767D01*
X146715292Y-94109784D01*
X146695814Y-94156444D01*
X146686564Y-94184664D01*
X146679950Y-94210210D01*
X146675611Y-94235330D01*
X146673189Y-94262274D01*
X146672323Y-94293290D01*
X146672311Y-94303310D01*
X146672506Y-94360217D01*
X146649541Y-94362570D01*
X146626577Y-94364922D01*
X146576819Y-94330990D01*
X146577261Y-94281641D01*
X146581246Y-94223410D01*
X146592027Y-94166659D01*
X146609427Y-94111805D01*
X146633267Y-94059268D01*
X146663369Y-94009464D01*
X146699554Y-93962812D01*
X146724774Y-93935845D01*
X146765410Y-93899000D01*
X146809140Y-93866629D01*
X146856472Y-93838509D01*
X146907911Y-93814416D01*
X146963966Y-93794127D01*
X147025143Y-93777416D01*
X147091948Y-93764062D01*
X147125389Y-93758887D01*
X147146455Y-93756611D01*
X147173303Y-93754815D01*
X147204675Y-93753500D01*
X147239315Y-93752666D01*
X147275966Y-93752312D01*
X147313369Y-93752438D01*
X147350269Y-93753044D01*
X147385407Y-93754130D01*
X147417526Y-93755697D01*
X147445370Y-93757743D01*
X147457000Y-93758912D01*
X147571247Y-93774085D01*
X147686379Y-93793945D01*
X147801524Y-93818230D01*
X147915809Y-93846679D01*
X148028359Y-93879031D01*
X148138303Y-93915025D01*
X148244766Y-93954400D01*
X148346876Y-93996894D01*
X148443760Y-94042246D01*
X148498608Y-94070502D01*
X148581718Y-94117249D01*
X148660658Y-94166369D01*
X148734981Y-94217513D01*
X148804241Y-94270332D01*
X148867993Y-94324478D01*
X148925791Y-94379603D01*
X148977188Y-94435357D01*
X148998880Y-94461520D01*
X149013589Y-94479428D01*
X149024647Y-94491741D01*
X149032321Y-94498733D01*
X149036878Y-94500678D01*
X149037106Y-94500627D01*
X149051682Y-94496988D01*
X149072129Y-94492861D01*
X149097296Y-94488412D01*
X149126029Y-94483807D01*
X149157174Y-94479213D01*
X149189579Y-94474796D01*
X149222091Y-94470724D01*
X149253556Y-94467163D01*
X149282821Y-94464280D01*
X149296736Y-94463107D01*
X149326996Y-94461370D01*
X149360509Y-94460689D01*
X149397721Y-94461091D01*
X149439075Y-94462602D01*
X149485017Y-94465250D01*
X149535991Y-94469062D01*
X149592441Y-94474063D01*
X149654812Y-94480281D01*
X149723548Y-94487744D01*
X149744764Y-94490147D01*
X149842696Y-94501961D01*
X149947110Y-94515747D01*
X150057726Y-94531456D01*
X150174267Y-94549038D01*
X150296454Y-94568441D01*
X150424011Y-94589614D01*
X150556657Y-94612508D01*
X150694117Y-94637072D01*
X150836110Y-94663254D01*
X150982360Y-94691005D01*
X151132588Y-94720273D01*
X151286517Y-94751009D01*
X151443867Y-94783160D01*
X151604361Y-94816678D01*
X151767721Y-94851511D01*
X151933669Y-94887608D01*
X151961972Y-94893834D01*
X151993505Y-94900732D01*
X152023573Y-94907213D01*
X152051326Y-94913101D01*
X152075913Y-94918220D01*
X152096484Y-94922393D01*
X152112186Y-94925444D01*
X152122170Y-94927196D01*
X152124250Y-94927480D01*
X152151629Y-94927397D01*
X152180597Y-94921802D01*
X152209337Y-94911360D01*
X152236032Y-94896737D01*
X152258863Y-94878600D01*
X152259577Y-94877903D01*
X152270334Y-94865542D01*
X152283559Y-94847416D01*
X152298873Y-94824218D01*
X152315898Y-94796638D01*
X152334253Y-94765367D01*
X152353562Y-94731098D01*
X152373444Y-94694521D01*
X152393521Y-94656329D01*
X152413415Y-94617211D01*
X152432747Y-94577861D01*
X152451137Y-94538969D01*
X152468208Y-94501226D01*
X152476938Y-94481112D01*
X152504418Y-94412172D01*
X152526295Y-94347247D01*
X152542564Y-94286369D01*
X152553220Y-94229572D01*
X152558258Y-94176888D01*
X152557674Y-94128350D01*
X152551462Y-94083992D01*
X152540303Y-94045645D01*
X152530721Y-94025383D01*
X152517158Y-94003470D01*
X152501359Y-93982372D01*
X152485072Y-93964559D01*
X152479089Y-93959140D01*
X152463700Y-93947229D01*
X152447081Y-93936713D01*
X152428689Y-93927482D01*
X152407978Y-93919426D01*
X152384406Y-93912435D01*
X152357427Y-93906398D01*
X152326498Y-93901206D01*
X152291074Y-93896748D01*
X152250612Y-93892914D01*
X152204567Y-93889595D01*
X152152396Y-93886679D01*
X152111903Y-93884818D01*
X152092132Y-93884039D01*
X152066304Y-93883124D01*
X152035416Y-93882103D01*
X152000464Y-93881006D01*
X151962446Y-93879863D01*
X151922357Y-93878706D01*
X151881195Y-93877563D01*
X151839956Y-93876466D01*
X151819097Y-93875930D01*
X151713132Y-93873135D01*
X151613623Y-93870272D01*
X151519971Y-93867312D01*
X151431576Y-93864226D01*
X151347840Y-93860984D01*
X151268162Y-93857556D01*
X151191944Y-93853914D01*
X151118587Y-93850028D01*
X151047491Y-93845868D01*
X150978056Y-93841405D01*
X150909683Y-93836610D01*
X150841774Y-93831452D01*
X150773729Y-93825904D01*
X150737833Y-93822832D01*
X150585425Y-93808516D01*
X150438916Y-93792499D01*
X150297314Y-93774574D01*
X150159629Y-93754538D01*
X150024869Y-93732187D01*
X149892042Y-93707314D01*
X149760156Y-93679717D01*
X149628221Y-93649189D01*
X149495244Y-93615527D01*
X149360234Y-93578526D01*
X149222199Y-93537982D01*
X149080149Y-93493689D01*
X148972181Y-93458484D01*
X148915529Y-93439585D01*
X148863101Y-93421819D01*
X148814324Y-93404921D01*
X148768627Y-93388623D01*
X148725437Y-93372660D01*
X148684184Y-93356765D01*
X148644295Y-93340673D01*
X148605199Y-93324116D01*
X148566325Y-93306830D01*
X148527099Y-93288548D01*
X148486952Y-93269003D01*
X148445310Y-93247929D01*
X148401602Y-93225061D01*
X148355257Y-93200131D01*
X148305703Y-93172875D01*
X148252368Y-93143025D01*
X148194680Y-93110316D01*
X148132068Y-93074481D01*
X148067306Y-93037185D01*
X148017113Y-93008257D01*
X147972343Y-92982550D01*
X147932339Y-92959702D01*
X147896445Y-92939352D01*
X147864006Y-92921137D01*
X147834365Y-92904697D01*
X147806866Y-92889670D01*
X147780853Y-92875693D01*
X147755670Y-92862406D01*
X147730662Y-92849446D01*
X147705172Y-92836451D01*
X147682778Y-92825180D01*
X147617461Y-92793259D01*
X147556674Y-92765298D01*
X147499369Y-92740936D01*
X147444501Y-92719812D01*
X147391022Y-92701564D01*
X147337885Y-92685831D01*
X147284043Y-92672252D01*
X147228449Y-92660463D01*
X147180975Y-92651906D01*
X147121699Y-92642525D01*
X147067114Y-92635151D01*
X147015196Y-92629623D01*
X146963926Y-92625777D01*
X146911279Y-92623450D01*
X146855234Y-92622478D01*
X146816708Y-92622491D01*
X146790120Y-92622691D01*
X146765076Y-92622949D01*
X146742670Y-92623249D01*
X146723997Y-92623574D01*
X146710149Y-92623908D01*
X146702223Y-92624233D01*
X146702056Y-92624245D01*
X146611009Y-92633260D01*
X146521200Y-92646904D01*
X146433485Y-92664958D01*
X146348718Y-92687202D01*
X146267756Y-92713417D01*
X146191455Y-92743381D01*
X146133791Y-92770183D01*
X146047957Y-92817081D01*
X145964330Y-92870623D01*
X145882988Y-92930727D01*
X145804006Y-92997310D01*
X145727461Y-93070292D01*
X145653429Y-93149589D01*
X145581985Y-93235121D01*
X145513207Y-93326804D01*
X145447171Y-93424558D01*
X145383952Y-93528299D01*
X145323627Y-93637947D01*
X145319300Y-93646254D01*
X145282293Y-93721266D01*
X145247779Y-93799011D01*
X145215400Y-93880420D01*
X145184798Y-93966426D01*
X145155612Y-94057961D01*
X145139110Y-94114242D01*
X145131543Y-94140831D01*
X144885806Y-94239956D01*
X144846329Y-94255931D01*
X144808813Y-94271209D01*
X144773766Y-94285578D01*
X144741694Y-94298827D01*
X144713102Y-94310743D01*
X144688498Y-94321113D01*
X144668388Y-94329726D01*
X144653278Y-94336370D01*
X144643674Y-94340832D01*
X144640083Y-94342899D01*
X144640069Y-94342945D01*
X144642644Y-94345822D01*
X144650115Y-94353035D01*
X144662098Y-94364238D01*
X144678213Y-94379083D01*
X144698078Y-94397224D01*
X144721310Y-94418314D01*
X144747529Y-94442006D01*
X144776351Y-94467952D01*
X144807395Y-94495807D01*
X144840280Y-94525222D01*
X144865847Y-94548034D01*
X145091625Y-94749259D01*
X145106003Y-94788978D01*
X145134338Y-94859052D01*
X145167586Y-94925955D01*
X145206152Y-94990293D01*
X145250445Y-95052676D01*
X145300870Y-95113713D01*
X145357835Y-95174010D01*
X145374224Y-95190083D01*
X145441538Y-95250261D01*
X145514130Y-95305941D01*
X145591734Y-95356990D01*
X145674086Y-95403278D01*
X145760921Y-95444670D01*
X145851974Y-95481036D01*
X145946979Y-95512242D01*
X146045671Y-95538158D01*
X146091750Y-95548166D01*
X146136147Y-95556803D01*
X146175869Y-95563573D01*
X146212979Y-95568705D01*
X146249540Y-95572428D01*
X146287614Y-95574971D01*
X146329265Y-95576561D01*
X146352806Y-95577084D01*
X146399574Y-95577507D01*
X146441031Y-95576897D01*
X146441031Y-95576897D01*
G37*
X146441031Y-95576897D02*
X146478866Y-95575122D01*
X146514763Y-95572050D01*
X146550412Y-95567549D01*
X146587499Y-95561488D01*
X146612537Y-95556774D01*
X146649505Y-95549127D01*
X146684770Y-95540944D01*
X146719378Y-95531892D01*
X146754376Y-95521636D01*
X146790809Y-95509844D01*
X146829722Y-95496182D01*
X146872161Y-95480316D01*
X146919173Y-95461912D01*
X146954737Y-95447594D01*
X147001958Y-95428195D01*
X147049898Y-95408057D01*
X147098959Y-95386989D01*
X147149547Y-95364801D01*
X147202066Y-95341305D01*
X147256921Y-95316311D01*
X147314514Y-95289628D01*
X147375251Y-95261068D01*
X147439536Y-95230441D01*
X147507773Y-95197558D01*
X147580365Y-95162228D01*
X147657719Y-95124263D01*
X147740236Y-95083472D01*
X147828323Y-95039667D01*
X147886085Y-95010823D01*
X147967799Y-94970036D01*
X148043732Y-94932302D01*
X148114358Y-94897404D01*
X148180149Y-94865125D01*
X148241577Y-94835248D01*
X148299115Y-94807556D01*
X148353235Y-94781833D01*
X148404409Y-94757862D01*
X148453111Y-94735425D01*
X148499811Y-94714305D01*
X148544982Y-94694286D01*
X148589097Y-94675152D01*
X148632629Y-94656684D01*
X148676049Y-94638666D01*
X148719829Y-94620881D01*
X148764443Y-94603112D01*
X148810363Y-94585143D01*
X148827542Y-94578491D01*
X148851524Y-94569207D01*
X148873788Y-94560545D01*
X148893348Y-94552891D01*
X148909219Y-94546634D01*
X148920414Y-94542160D01*
X148925784Y-94539930D01*
X148935832Y-94535427D01*
X148920698Y-94516151D01*
X148908889Y-94502098D01*
X148892920Y-94484518D01*
X148873921Y-94464551D01*
X148853023Y-94443337D01*
X148831357Y-94422014D01*
X148810055Y-94401723D01*
X148790246Y-94383603D01*
X148781681Y-94376080D01*
X148706102Y-94314961D01*
X148624352Y-94256762D01*
X148536747Y-94201625D01*
X148443601Y-94149694D01*
X148345231Y-94101114D01*
X148241952Y-94056027D01*
X148134079Y-94014578D01*
X148021928Y-93976909D01*
X147905814Y-93943165D01*
X147786054Y-93913490D01*
X147746278Y-93904719D01*
X147687253Y-93892433D01*
X147633414Y-93881987D01*
X147583205Y-93873123D01*
X147535074Y-93865587D01*
X147487469Y-93859123D01*
X147438835Y-93853474D01*
X147428778Y-93852412D01*
X147408732Y-93850815D01*
X147383512Y-93849562D01*
X147354439Y-93848652D01*
X147322833Y-93848087D01*
X147290014Y-93847866D01*
X147257303Y-93847989D01*
X147226020Y-93848457D01*
X147197485Y-93849270D01*
X147173019Y-93850428D01*
X147153941Y-93851931D01*
X147150083Y-93852371D01*
X147079587Y-93863641D01*
X147014668Y-93879223D01*
X146955314Y-93899125D01*
X146901511Y-93923358D01*
X146853246Y-93951929D01*
X146810506Y-93984848D01*
X146773275Y-94022125D01*
X146741542Y-94063767D01*
X146715292Y-94109784D01*
X146695814Y-94156444D01*
X146686564Y-94184664D01*
X146679950Y-94210210D01*
X146675611Y-94235330D01*
X146673189Y-94262274D01*
X146672323Y-94293290D01*
X146672311Y-94303310D01*
X146672506Y-94360217D01*
X146649541Y-94362570D01*
X146626577Y-94364922D01*
X146576819Y-94330990D01*
X146577261Y-94281641D01*
X146581246Y-94223410D01*
X146592027Y-94166659D01*
X146609427Y-94111805D01*
X146633267Y-94059268D01*
X146663369Y-94009464D01*
X146699554Y-93962812D01*
X146724774Y-93935845D01*
X146765410Y-93899000D01*
X146809140Y-93866629D01*
X146856472Y-93838509D01*
X146907911Y-93814416D01*
X146963966Y-93794127D01*
X147025143Y-93777416D01*
X147091948Y-93764062D01*
X147125389Y-93758887D01*
X147146455Y-93756611D01*
X147173303Y-93754815D01*
X147204675Y-93753500D01*
X147239315Y-93752666D01*
X147275966Y-93752312D01*
X147313369Y-93752438D01*
X147350269Y-93753044D01*
X147385407Y-93754130D01*
X147417526Y-93755697D01*
X147445370Y-93757743D01*
X147457000Y-93758912D01*
X147571247Y-93774085D01*
X147686379Y-93793945D01*
X147801524Y-93818230D01*
X147915809Y-93846679D01*
X148028359Y-93879031D01*
X148138303Y-93915025D01*
X148244766Y-93954400D01*
X148346876Y-93996894D01*
X148443760Y-94042246D01*
X148498608Y-94070502D01*
X148581718Y-94117249D01*
X148660658Y-94166369D01*
X148734981Y-94217513D01*
X148804241Y-94270332D01*
X148867993Y-94324478D01*
X148925791Y-94379603D01*
X148977188Y-94435357D01*
X148998880Y-94461520D01*
X149013589Y-94479428D01*
X149024647Y-94491741D01*
X149032321Y-94498733D01*
X149036878Y-94500678D01*
X149037106Y-94500627D01*
X149051682Y-94496988D01*
X149072129Y-94492861D01*
X149097296Y-94488412D01*
X149126029Y-94483807D01*
X149157174Y-94479213D01*
X149189579Y-94474796D01*
X149222091Y-94470724D01*
X149253556Y-94467163D01*
X149282821Y-94464280D01*
X149296736Y-94463107D01*
X149326996Y-94461370D01*
X149360509Y-94460689D01*
X149397721Y-94461091D01*
X149439075Y-94462602D01*
X149485017Y-94465250D01*
X149535991Y-94469062D01*
X149592441Y-94474063D01*
X149654812Y-94480281D01*
X149723548Y-94487744D01*
X149744764Y-94490147D01*
X149842696Y-94501961D01*
X149947110Y-94515747D01*
X150057726Y-94531456D01*
X150174267Y-94549038D01*
X150296454Y-94568441D01*
X150424011Y-94589614D01*
X150556657Y-94612508D01*
X150694117Y-94637072D01*
X150836110Y-94663254D01*
X150982360Y-94691005D01*
X151132588Y-94720273D01*
X151286517Y-94751009D01*
X151443867Y-94783160D01*
X151604361Y-94816678D01*
X151767721Y-94851511D01*
X151933669Y-94887608D01*
X151961972Y-94893834D01*
X151993505Y-94900732D01*
X152023573Y-94907213D01*
X152051326Y-94913101D01*
X152075913Y-94918220D01*
X152096484Y-94922393D01*
X152112186Y-94925444D01*
X152122170Y-94927196D01*
X152124250Y-94927480D01*
X152151629Y-94927397D01*
X152180597Y-94921802D01*
X152209337Y-94911360D01*
X152236032Y-94896737D01*
X152258863Y-94878600D01*
X152259577Y-94877903D01*
X152270334Y-94865542D01*
X152283559Y-94847416D01*
X152298873Y-94824218D01*
X152315898Y-94796638D01*
X152334253Y-94765367D01*
X152353562Y-94731098D01*
X152373444Y-94694521D01*
X152393521Y-94656329D01*
X152413415Y-94617211D01*
X152432747Y-94577861D01*
X152451137Y-94538969D01*
X152468208Y-94501226D01*
X152476938Y-94481112D01*
X152504418Y-94412172D01*
X152526295Y-94347247D01*
X152542564Y-94286369D01*
X152553220Y-94229572D01*
X152558258Y-94176888D01*
X152557674Y-94128350D01*
X152551462Y-94083992D01*
X152540303Y-94045645D01*
X152530721Y-94025383D01*
X152517158Y-94003470D01*
X152501359Y-93982372D01*
X152485072Y-93964559D01*
X152479089Y-93959140D01*
X152463700Y-93947229D01*
X152447081Y-93936713D01*
X152428689Y-93927482D01*
X152407978Y-93919426D01*
X152384406Y-93912435D01*
X152357427Y-93906398D01*
X152326498Y-93901206D01*
X152291074Y-93896748D01*
X152250612Y-93892914D01*
X152204567Y-93889595D01*
X152152396Y-93886679D01*
X152111903Y-93884818D01*
X152092132Y-93884039D01*
X152066304Y-93883124D01*
X152035416Y-93882103D01*
X152000464Y-93881006D01*
X151962446Y-93879863D01*
X151922357Y-93878706D01*
X151881195Y-93877563D01*
X151839956Y-93876466D01*
X151819097Y-93875930D01*
X151713132Y-93873135D01*
X151613623Y-93870272D01*
X151519971Y-93867312D01*
X151431576Y-93864226D01*
X151347840Y-93860984D01*
X151268162Y-93857556D01*
X151191944Y-93853914D01*
X151118587Y-93850028D01*
X151047491Y-93845868D01*
X150978056Y-93841405D01*
X150909683Y-93836610D01*
X150841774Y-93831452D01*
X150773729Y-93825904D01*
X150737833Y-93822832D01*
X150585425Y-93808516D01*
X150438916Y-93792499D01*
X150297314Y-93774574D01*
X150159629Y-93754538D01*
X150024869Y-93732187D01*
X149892042Y-93707314D01*
X149760156Y-93679717D01*
X149628221Y-93649189D01*
X149495244Y-93615527D01*
X149360234Y-93578526D01*
X149222199Y-93537982D01*
X149080149Y-93493689D01*
X148972181Y-93458484D01*
X148915529Y-93439585D01*
X148863101Y-93421819D01*
X148814324Y-93404921D01*
X148768627Y-93388623D01*
X148725437Y-93372660D01*
X148684184Y-93356765D01*
X148644295Y-93340673D01*
X148605199Y-93324116D01*
X148566325Y-93306830D01*
X148527099Y-93288548D01*
X148486952Y-93269003D01*
X148445310Y-93247929D01*
X148401602Y-93225061D01*
X148355257Y-93200131D01*
X148305703Y-93172875D01*
X148252368Y-93143025D01*
X148194680Y-93110316D01*
X148132068Y-93074481D01*
X148067306Y-93037185D01*
X148017113Y-93008257D01*
X147972343Y-92982550D01*
X147932339Y-92959702D01*
X147896445Y-92939352D01*
X147864006Y-92921137D01*
X147834365Y-92904697D01*
X147806866Y-92889670D01*
X147780853Y-92875693D01*
X147755670Y-92862406D01*
X147730662Y-92849446D01*
X147705172Y-92836451D01*
X147682778Y-92825180D01*
X147617461Y-92793259D01*
X147556674Y-92765298D01*
X147499369Y-92740936D01*
X147444501Y-92719812D01*
X147391022Y-92701564D01*
X147337885Y-92685831D01*
X147284043Y-92672252D01*
X147228449Y-92660463D01*
X147180975Y-92651906D01*
X147121699Y-92642525D01*
X147067114Y-92635151D01*
X147015196Y-92629623D01*
X146963926Y-92625777D01*
X146911279Y-92623450D01*
X146855234Y-92622478D01*
X146816708Y-92622491D01*
X146790120Y-92622691D01*
X146765076Y-92622949D01*
X146742670Y-92623249D01*
X146723997Y-92623574D01*
X146710149Y-92623908D01*
X146702223Y-92624233D01*
X146702056Y-92624245D01*
X146611009Y-92633260D01*
X146521200Y-92646904D01*
X146433485Y-92664958D01*
X146348718Y-92687202D01*
X146267756Y-92713417D01*
X146191455Y-92743381D01*
X146133791Y-92770183D01*
X146047957Y-92817081D01*
X145964330Y-92870623D01*
X145882988Y-92930727D01*
X145804006Y-92997310D01*
X145727461Y-93070292D01*
X145653429Y-93149589D01*
X145581985Y-93235121D01*
X145513207Y-93326804D01*
X145447171Y-93424558D01*
X145383952Y-93528299D01*
X145323627Y-93637947D01*
X145319300Y-93646254D01*
X145282293Y-93721266D01*
X145247779Y-93799011D01*
X145215400Y-93880420D01*
X145184798Y-93966426D01*
X145155612Y-94057961D01*
X145139110Y-94114242D01*
X145131543Y-94140831D01*
X144885806Y-94239956D01*
X144846329Y-94255931D01*
X144808813Y-94271209D01*
X144773766Y-94285578D01*
X144741694Y-94298827D01*
X144713102Y-94310743D01*
X144688498Y-94321113D01*
X144668388Y-94329726D01*
X144653278Y-94336370D01*
X144643674Y-94340832D01*
X144640083Y-94342899D01*
X144640069Y-94342945D01*
X144642644Y-94345822D01*
X144650115Y-94353035D01*
X144662098Y-94364238D01*
X144678213Y-94379083D01*
X144698078Y-94397224D01*
X144721310Y-94418314D01*
X144747529Y-94442006D01*
X144776351Y-94467952D01*
X144807395Y-94495807D01*
X144840280Y-94525222D01*
X144865847Y-94548034D01*
X145091625Y-94749259D01*
X145106003Y-94788978D01*
X145134338Y-94859052D01*
X145167586Y-94925955D01*
X145206152Y-94990293D01*
X145250445Y-95052676D01*
X145300870Y-95113713D01*
X145357835Y-95174010D01*
X145374224Y-95190083D01*
X145441538Y-95250261D01*
X145514130Y-95305941D01*
X145591734Y-95356990D01*
X145674086Y-95403278D01*
X145760921Y-95444670D01*
X145851974Y-95481036D01*
X145946979Y-95512242D01*
X146045671Y-95538158D01*
X146091750Y-95548166D01*
X146136147Y-95556803D01*
X146175869Y-95563573D01*
X146212979Y-95568705D01*
X146249540Y-95572428D01*
X146287614Y-95574971D01*
X146329265Y-95576561D01*
X146352806Y-95577084D01*
X146399574Y-95577507D01*
X146441031Y-95576897D01*
G36*
X158598969Y-122263103D02*
X158561134Y-122264878D01*
X158525237Y-122267950D01*
X158489588Y-122272451D01*
X158452501Y-122278512D01*
X158427463Y-122283226D01*
X158390495Y-122290873D01*
X158355230Y-122299056D01*
X158320622Y-122308108D01*
X158285624Y-122318364D01*
X158249191Y-122330156D01*
X158210278Y-122343818D01*
X158167839Y-122359684D01*
X158120827Y-122378088D01*
X158085263Y-122392406D01*
X158038042Y-122411805D01*
X157990102Y-122431943D01*
X157941041Y-122453011D01*
X157890453Y-122475199D01*
X157837934Y-122498695D01*
X157783079Y-122523689D01*
X157725486Y-122550372D01*
X157664749Y-122578932D01*
X157600464Y-122609559D01*
X157532227Y-122642442D01*
X157459635Y-122677772D01*
X157382281Y-122715737D01*
X157299764Y-122756528D01*
X157211677Y-122800333D01*
X157153915Y-122829177D01*
X157072201Y-122869964D01*
X156996268Y-122907698D01*
X156925642Y-122942596D01*
X156859851Y-122974875D01*
X156798423Y-123004752D01*
X156740885Y-123032444D01*
X156686765Y-123058167D01*
X156635591Y-123082138D01*
X156586889Y-123104575D01*
X156540189Y-123125695D01*
X156495018Y-123145714D01*
X156450903Y-123164848D01*
X156407371Y-123183316D01*
X156363951Y-123201334D01*
X156320171Y-123219119D01*
X156275557Y-123236888D01*
X156229637Y-123254857D01*
X156212458Y-123261509D01*
X156188476Y-123270793D01*
X156166212Y-123279455D01*
X156146652Y-123287109D01*
X156130781Y-123293366D01*
X156119586Y-123297840D01*
X156114216Y-123300070D01*
X156104168Y-123304573D01*
X156119302Y-123323849D01*
X156131111Y-123337902D01*
X156147080Y-123355482D01*
X156166079Y-123375449D01*
X156186977Y-123396663D01*
X156208643Y-123417986D01*
X156229945Y-123438277D01*
X156249754Y-123456397D01*
X156258319Y-123463920D01*
X156333898Y-123525039D01*
X156415648Y-123583238D01*
X156503253Y-123638375D01*
X156596399Y-123690306D01*
X156694769Y-123738886D01*
X156798048Y-123783973D01*
X156905921Y-123825422D01*
X157018072Y-123863091D01*
X157134186Y-123896835D01*
X157253946Y-123926510D01*
X157293722Y-123935281D01*
X157352747Y-123947567D01*
X157406586Y-123958013D01*
X157456795Y-123966877D01*
X157504926Y-123974413D01*
X157552531Y-123980877D01*
X157601165Y-123986526D01*
X157611222Y-123987588D01*
X157631268Y-123989185D01*
X157656488Y-123990438D01*
X157685561Y-123991348D01*
X157717167Y-123991913D01*
X157749986Y-123992134D01*
X157782697Y-123992011D01*
X157813980Y-123991543D01*
X157842515Y-123990730D01*
X157866981Y-123989572D01*
X157886059Y-123988069D01*
X157889917Y-123987629D01*
X157960413Y-123976359D01*
X158025332Y-123960777D01*
X158084686Y-123940875D01*
X158138489Y-123916642D01*
X158186754Y-123888071D01*
X158229494Y-123855152D01*
X158266725Y-123817875D01*
X158298458Y-123776233D01*
X158324708Y-123730216D01*
X158344186Y-123683556D01*
X158353436Y-123655336D01*
X158360050Y-123629790D01*
X158364389Y-123604670D01*
X158366811Y-123577726D01*
X158367677Y-123546710D01*
X158367689Y-123536690D01*
X158367494Y-123479783D01*
X158390459Y-123477430D01*
X158413423Y-123475078D01*
X158463181Y-123509010D01*
X158462739Y-123558359D01*
X158458754Y-123616590D01*
X158447973Y-123673341D01*
X158430573Y-123728195D01*
X158406733Y-123780732D01*
X158376631Y-123830536D01*
X158340446Y-123877188D01*
X158315226Y-123904155D01*
X158274590Y-123941000D01*
X158230860Y-123973371D01*
X158183528Y-124001491D01*
X158132089Y-124025584D01*
X158076034Y-124045873D01*
X158014857Y-124062584D01*
X157948052Y-124075938D01*
X157914611Y-124081113D01*
X157893545Y-124083389D01*
X157866697Y-124085185D01*
X157835325Y-124086500D01*
X157800685Y-124087334D01*
X157764034Y-124087688D01*
X157726631Y-124087562D01*
X157689731Y-124086956D01*
X157654593Y-124085870D01*
X157622474Y-124084303D01*
X157594630Y-124082257D01*
X157583000Y-124081088D01*
X157468753Y-124065915D01*
X157353621Y-124046055D01*
X157238476Y-124021770D01*
X157124191Y-123993321D01*
X157011641Y-123960969D01*
X156901697Y-123924975D01*
X156795234Y-123885600D01*
X156693124Y-123843106D01*
X156596240Y-123797754D01*
X156541392Y-123769498D01*
X156458282Y-123722751D01*
X156379342Y-123673631D01*
X156305019Y-123622487D01*
X156235759Y-123569668D01*
X156172007Y-123515522D01*
X156114209Y-123460397D01*
X156062812Y-123404643D01*
X156041120Y-123378480D01*
X156026411Y-123360572D01*
X156015353Y-123348259D01*
X156007679Y-123341267D01*
X156003122Y-123339322D01*
X156002894Y-123339373D01*
X155988318Y-123343012D01*
X155967871Y-123347139D01*
X155942704Y-123351588D01*
X155913971Y-123356193D01*
X155882826Y-123360787D01*
X155850421Y-123365204D01*
X155817909Y-123369276D01*
X155786444Y-123372837D01*
X155757179Y-123375720D01*
X155743264Y-123376893D01*
X155713004Y-123378630D01*
X155679491Y-123379311D01*
X155642279Y-123378909D01*
X155600925Y-123377398D01*
X155554983Y-123374750D01*
X155504009Y-123370938D01*
X155447559Y-123365937D01*
X155385188Y-123359719D01*
X155316452Y-123352256D01*
X155295236Y-123349853D01*
X155197304Y-123338039D01*
X155092890Y-123324253D01*
X154982274Y-123308544D01*
X154865733Y-123290962D01*
X154743546Y-123271559D01*
X154615989Y-123250386D01*
X154483343Y-123227492D01*
X154345883Y-123202928D01*
X154203890Y-123176746D01*
X154057640Y-123148995D01*
X153907412Y-123119727D01*
X153753483Y-123088991D01*
X153596133Y-123056840D01*
X153435639Y-123023322D01*
X153272279Y-122988489D01*
X153106331Y-122952392D01*
X153078028Y-122946166D01*
X153046495Y-122939268D01*
X153016427Y-122932787D01*
X152988674Y-122926899D01*
X152964087Y-122921780D01*
X152943516Y-122917607D01*
X152927814Y-122914556D01*
X152917830Y-122912804D01*
X152915750Y-122912520D01*
X152888371Y-122912603D01*
X152859403Y-122918198D01*
X152830663Y-122928640D01*
X152803968Y-122943263D01*
X152781137Y-122961400D01*
X152780423Y-122962097D01*
X152769666Y-122974458D01*
X152756441Y-122992584D01*
X152741127Y-123015782D01*
X152724102Y-123043362D01*
X152705747Y-123074633D01*
X152686438Y-123108902D01*
X152666556Y-123145479D01*
X152646479Y-123183671D01*
X152626585Y-123222789D01*
X152607253Y-123262139D01*
X152588863Y-123301031D01*
X152571792Y-123338774D01*
X152563062Y-123358888D01*
X152535582Y-123427828D01*
X152513705Y-123492753D01*
X152497436Y-123553631D01*
X152486780Y-123610428D01*
X152481742Y-123663112D01*
X152482326Y-123711650D01*
X152488538Y-123756008D01*
X152499697Y-123794355D01*
X152509279Y-123814617D01*
X152522842Y-123836530D01*
X152538641Y-123857628D01*
X152554928Y-123875441D01*
X152560911Y-123880860D01*
X152576300Y-123892771D01*
X152592919Y-123903287D01*
X152611311Y-123912518D01*
X152632022Y-123920574D01*
X152655594Y-123927565D01*
X152682573Y-123933602D01*
X152713502Y-123938794D01*
X152748926Y-123943252D01*
X152789388Y-123947086D01*
X152835433Y-123950405D01*
X152887604Y-123953321D01*
X152928097Y-123955182D01*
X152947868Y-123955961D01*
X152973696Y-123956876D01*
X153004584Y-123957897D01*
X153039536Y-123958994D01*
X153077554Y-123960137D01*
X153117643Y-123961294D01*
X153158805Y-123962437D01*
X153200044Y-123963534D01*
X153220903Y-123964070D01*
X153326868Y-123966865D01*
X153426377Y-123969728D01*
X153520029Y-123972688D01*
X153608424Y-123975774D01*
X153692160Y-123979016D01*
X153771838Y-123982444D01*
X153848056Y-123986086D01*
X153921413Y-123989972D01*
X153992509Y-123994132D01*
X154061944Y-123998595D01*
X154130317Y-124003390D01*
X154198226Y-124008548D01*
X154266271Y-124014096D01*
X154302167Y-124017168D01*
X154454575Y-124031484D01*
X154601084Y-124047501D01*
X154742686Y-124065426D01*
X154880371Y-124085462D01*
X155015131Y-124107813D01*
X155147958Y-124132686D01*
X155279844Y-124160283D01*
X155411779Y-124190811D01*
X155544756Y-124224473D01*
X155679766Y-124261474D01*
X155817801Y-124302018D01*
X155959851Y-124346311D01*
X156067819Y-124381516D01*
X156124471Y-124400415D01*
X156176899Y-124418181D01*
X156225676Y-124435079D01*
X156271373Y-124451377D01*
X156314563Y-124467340D01*
X156355816Y-124483235D01*
X156395705Y-124499327D01*
X156434801Y-124515884D01*
X156473675Y-124533170D01*
X156512901Y-124551452D01*
X156553048Y-124570997D01*
X156594690Y-124592071D01*
X156638398Y-124614939D01*
X156684743Y-124639869D01*
X156734297Y-124667125D01*
X156787632Y-124696975D01*
X156845320Y-124729684D01*
X156907932Y-124765519D01*
X156972694Y-124802815D01*
X157022887Y-124831743D01*
X157067657Y-124857450D01*
X157107661Y-124880298D01*
X157143555Y-124900648D01*
X157175994Y-124918863D01*
X157205635Y-124935303D01*
X157233134Y-124950330D01*
X157259147Y-124964307D01*
X157284330Y-124977594D01*
X157309338Y-124990554D01*
X157334828Y-125003549D01*
X157357222Y-125014820D01*
X157422539Y-125046741D01*
X157483326Y-125074702D01*
X157540631Y-125099064D01*
X157595499Y-125120188D01*
X157648978Y-125138436D01*
X157702115Y-125154169D01*
X157755957Y-125167748D01*
X157811551Y-125179537D01*
X157859025Y-125188094D01*
X157918301Y-125197475D01*
X157972886Y-125204849D01*
X158024804Y-125210377D01*
X158076074Y-125214223D01*
X158128721Y-125216550D01*
X158184766Y-125217522D01*
X158223292Y-125217509D01*
X158249880Y-125217309D01*
X158274924Y-125217051D01*
X158297330Y-125216751D01*
X158316003Y-125216426D01*
X158329851Y-125216092D01*
X158337777Y-125215767D01*
X158337944Y-125215755D01*
X158428991Y-125206740D01*
X158518800Y-125193096D01*
X158606515Y-125175042D01*
X158691282Y-125152798D01*
X158772244Y-125126583D01*
X158848545Y-125096619D01*
X158906209Y-125069817D01*
X158992043Y-125022919D01*
X159075670Y-124969377D01*
X159157012Y-124909273D01*
X159235994Y-124842690D01*
X159312539Y-124769708D01*
X159386571Y-124690411D01*
X159458015Y-124604879D01*
X159526793Y-124513196D01*
X159592829Y-124415442D01*
X159656048Y-124311701D01*
X159716373Y-124202053D01*
X159720700Y-124193746D01*
X159757707Y-124118734D01*
X159792221Y-124040989D01*
X159824600Y-123959580D01*
X159855202Y-123873574D01*
X159884388Y-123782039D01*
X159900890Y-123725758D01*
X159908457Y-123699169D01*
X160154194Y-123600044D01*
X160193671Y-123584069D01*
X160231187Y-123568791D01*
X160266234Y-123554422D01*
X160298306Y-123541173D01*
X160326898Y-123529257D01*
X160351502Y-123518887D01*
X160371612Y-123510274D01*
X160386722Y-123503630D01*
X160396326Y-123499168D01*
X160399917Y-123497101D01*
X160399931Y-123497055D01*
X160397356Y-123494178D01*
X160389885Y-123486965D01*
X160377902Y-123475762D01*
X160361787Y-123460917D01*
X160341922Y-123442776D01*
X160318690Y-123421686D01*
X160292471Y-123397994D01*
X160263649Y-123372048D01*
X160232605Y-123344193D01*
X160199720Y-123314778D01*
X160174153Y-123291966D01*
X159948375Y-123090741D01*
X159933997Y-123051022D01*
X159905662Y-122980948D01*
X159872414Y-122914045D01*
X159833848Y-122849707D01*
X159789555Y-122787324D01*
X159739130Y-122726287D01*
X159682165Y-122665990D01*
X159665776Y-122649917D01*
X159598462Y-122589739D01*
X159525870Y-122534059D01*
X159448266Y-122483010D01*
X159365914Y-122436722D01*
X159279079Y-122395330D01*
X159188026Y-122358964D01*
X159093021Y-122327758D01*
X158994329Y-122301842D01*
X158948250Y-122291834D01*
X158903853Y-122283197D01*
X158864131Y-122276427D01*
X158827021Y-122271295D01*
X158790460Y-122267572D01*
X158752386Y-122265029D01*
X158710735Y-122263439D01*
X158687194Y-122262916D01*
X158640426Y-122262493D01*
X158598969Y-122263103D01*
X158598969Y-122263103D01*
G37*
X158598969Y-122263103D02*
X158561134Y-122264878D01*
X158525237Y-122267950D01*
X158489588Y-122272451D01*
X158452501Y-122278512D01*
X158427463Y-122283226D01*
X158390495Y-122290873D01*
X158355230Y-122299056D01*
X158320622Y-122308108D01*
X158285624Y-122318364D01*
X158249191Y-122330156D01*
X158210278Y-122343818D01*
X158167839Y-122359684D01*
X158120827Y-122378088D01*
X158085263Y-122392406D01*
X158038042Y-122411805D01*
X157990102Y-122431943D01*
X157941041Y-122453011D01*
X157890453Y-122475199D01*
X157837934Y-122498695D01*
X157783079Y-122523689D01*
X157725486Y-122550372D01*
X157664749Y-122578932D01*
X157600464Y-122609559D01*
X157532227Y-122642442D01*
X157459635Y-122677772D01*
X157382281Y-122715737D01*
X157299764Y-122756528D01*
X157211677Y-122800333D01*
X157153915Y-122829177D01*
X157072201Y-122869964D01*
X156996268Y-122907698D01*
X156925642Y-122942596D01*
X156859851Y-122974875D01*
X156798423Y-123004752D01*
X156740885Y-123032444D01*
X156686765Y-123058167D01*
X156635591Y-123082138D01*
X156586889Y-123104575D01*
X156540189Y-123125695D01*
X156495018Y-123145714D01*
X156450903Y-123164848D01*
X156407371Y-123183316D01*
X156363951Y-123201334D01*
X156320171Y-123219119D01*
X156275557Y-123236888D01*
X156229637Y-123254857D01*
X156212458Y-123261509D01*
X156188476Y-123270793D01*
X156166212Y-123279455D01*
X156146652Y-123287109D01*
X156130781Y-123293366D01*
X156119586Y-123297840D01*
X156114216Y-123300070D01*
X156104168Y-123304573D01*
X156119302Y-123323849D01*
X156131111Y-123337902D01*
X156147080Y-123355482D01*
X156166079Y-123375449D01*
X156186977Y-123396663D01*
X156208643Y-123417986D01*
X156229945Y-123438277D01*
X156249754Y-123456397D01*
X156258319Y-123463920D01*
X156333898Y-123525039D01*
X156415648Y-123583238D01*
X156503253Y-123638375D01*
X156596399Y-123690306D01*
X156694769Y-123738886D01*
X156798048Y-123783973D01*
X156905921Y-123825422D01*
X157018072Y-123863091D01*
X157134186Y-123896835D01*
X157253946Y-123926510D01*
X157293722Y-123935281D01*
X157352747Y-123947567D01*
X157406586Y-123958013D01*
X157456795Y-123966877D01*
X157504926Y-123974413D01*
X157552531Y-123980877D01*
X157601165Y-123986526D01*
X157611222Y-123987588D01*
X157631268Y-123989185D01*
X157656488Y-123990438D01*
X157685561Y-123991348D01*
X157717167Y-123991913D01*
X157749986Y-123992134D01*
X157782697Y-123992011D01*
X157813980Y-123991543D01*
X157842515Y-123990730D01*
X157866981Y-123989572D01*
X157886059Y-123988069D01*
X157889917Y-123987629D01*
X157960413Y-123976359D01*
X158025332Y-123960777D01*
X158084686Y-123940875D01*
X158138489Y-123916642D01*
X158186754Y-123888071D01*
X158229494Y-123855152D01*
X158266725Y-123817875D01*
X158298458Y-123776233D01*
X158324708Y-123730216D01*
X158344186Y-123683556D01*
X158353436Y-123655336D01*
X158360050Y-123629790D01*
X158364389Y-123604670D01*
X158366811Y-123577726D01*
X158367677Y-123546710D01*
X158367689Y-123536690D01*
X158367494Y-123479783D01*
X158390459Y-123477430D01*
X158413423Y-123475078D01*
X158463181Y-123509010D01*
X158462739Y-123558359D01*
X158458754Y-123616590D01*
X158447973Y-123673341D01*
X158430573Y-123728195D01*
X158406733Y-123780732D01*
X158376631Y-123830536D01*
X158340446Y-123877188D01*
X158315226Y-123904155D01*
X158274590Y-123941000D01*
X158230860Y-123973371D01*
X158183528Y-124001491D01*
X158132089Y-124025584D01*
X158076034Y-124045873D01*
X158014857Y-124062584D01*
X157948052Y-124075938D01*
X157914611Y-124081113D01*
X157893545Y-124083389D01*
X157866697Y-124085185D01*
X157835325Y-124086500D01*
X157800685Y-124087334D01*
X157764034Y-124087688D01*
X157726631Y-124087562D01*
X157689731Y-124086956D01*
X157654593Y-124085870D01*
X157622474Y-124084303D01*
X157594630Y-124082257D01*
X157583000Y-124081088D01*
X157468753Y-124065915D01*
X157353621Y-124046055D01*
X157238476Y-124021770D01*
X157124191Y-123993321D01*
X157011641Y-123960969D01*
X156901697Y-123924975D01*
X156795234Y-123885600D01*
X156693124Y-123843106D01*
X156596240Y-123797754D01*
X156541392Y-123769498D01*
X156458282Y-123722751D01*
X156379342Y-123673631D01*
X156305019Y-123622487D01*
X156235759Y-123569668D01*
X156172007Y-123515522D01*
X156114209Y-123460397D01*
X156062812Y-123404643D01*
X156041120Y-123378480D01*
X156026411Y-123360572D01*
X156015353Y-123348259D01*
X156007679Y-123341267D01*
X156003122Y-123339322D01*
X156002894Y-123339373D01*
X155988318Y-123343012D01*
X155967871Y-123347139D01*
X155942704Y-123351588D01*
X155913971Y-123356193D01*
X155882826Y-123360787D01*
X155850421Y-123365204D01*
X155817909Y-123369276D01*
X155786444Y-123372837D01*
X155757179Y-123375720D01*
X155743264Y-123376893D01*
X155713004Y-123378630D01*
X155679491Y-123379311D01*
X155642279Y-123378909D01*
X155600925Y-123377398D01*
X155554983Y-123374750D01*
X155504009Y-123370938D01*
X155447559Y-123365937D01*
X155385188Y-123359719D01*
X155316452Y-123352256D01*
X155295236Y-123349853D01*
X155197304Y-123338039D01*
X155092890Y-123324253D01*
X154982274Y-123308544D01*
X154865733Y-123290962D01*
X154743546Y-123271559D01*
X154615989Y-123250386D01*
X154483343Y-123227492D01*
X154345883Y-123202928D01*
X154203890Y-123176746D01*
X154057640Y-123148995D01*
X153907412Y-123119727D01*
X153753483Y-123088991D01*
X153596133Y-123056840D01*
X153435639Y-123023322D01*
X153272279Y-122988489D01*
X153106331Y-122952392D01*
X153078028Y-122946166D01*
X153046495Y-122939268D01*
X153016427Y-122932787D01*
X152988674Y-122926899D01*
X152964087Y-122921780D01*
X152943516Y-122917607D01*
X152927814Y-122914556D01*
X152917830Y-122912804D01*
X152915750Y-122912520D01*
X152888371Y-122912603D01*
X152859403Y-122918198D01*
X152830663Y-122928640D01*
X152803968Y-122943263D01*
X152781137Y-122961400D01*
X152780423Y-122962097D01*
X152769666Y-122974458D01*
X152756441Y-122992584D01*
X152741127Y-123015782D01*
X152724102Y-123043362D01*
X152705747Y-123074633D01*
X152686438Y-123108902D01*
X152666556Y-123145479D01*
X152646479Y-123183671D01*
X152626585Y-123222789D01*
X152607253Y-123262139D01*
X152588863Y-123301031D01*
X152571792Y-123338774D01*
X152563062Y-123358888D01*
X152535582Y-123427828D01*
X152513705Y-123492753D01*
X152497436Y-123553631D01*
X152486780Y-123610428D01*
X152481742Y-123663112D01*
X152482326Y-123711650D01*
X152488538Y-123756008D01*
X152499697Y-123794355D01*
X152509279Y-123814617D01*
X152522842Y-123836530D01*
X152538641Y-123857628D01*
X152554928Y-123875441D01*
X152560911Y-123880860D01*
X152576300Y-123892771D01*
X152592919Y-123903287D01*
X152611311Y-123912518D01*
X152632022Y-123920574D01*
X152655594Y-123927565D01*
X152682573Y-123933602D01*
X152713502Y-123938794D01*
X152748926Y-123943252D01*
X152789388Y-123947086D01*
X152835433Y-123950405D01*
X152887604Y-123953321D01*
X152928097Y-123955182D01*
X152947868Y-123955961D01*
X152973696Y-123956876D01*
X153004584Y-123957897D01*
X153039536Y-123958994D01*
X153077554Y-123960137D01*
X153117643Y-123961294D01*
X153158805Y-123962437D01*
X153200044Y-123963534D01*
X153220903Y-123964070D01*
X153326868Y-123966865D01*
X153426377Y-123969728D01*
X153520029Y-123972688D01*
X153608424Y-123975774D01*
X153692160Y-123979016D01*
X153771838Y-123982444D01*
X153848056Y-123986086D01*
X153921413Y-123989972D01*
X153992509Y-123994132D01*
X154061944Y-123998595D01*
X154130317Y-124003390D01*
X154198226Y-124008548D01*
X154266271Y-124014096D01*
X154302167Y-124017168D01*
X154454575Y-124031484D01*
X154601084Y-124047501D01*
X154742686Y-124065426D01*
X154880371Y-124085462D01*
X155015131Y-124107813D01*
X155147958Y-124132686D01*
X155279844Y-124160283D01*
X155411779Y-124190811D01*
X155544756Y-124224473D01*
X155679766Y-124261474D01*
X155817801Y-124302018D01*
X155959851Y-124346311D01*
X156067819Y-124381516D01*
X156124471Y-124400415D01*
X156176899Y-124418181D01*
X156225676Y-124435079D01*
X156271373Y-124451377D01*
X156314563Y-124467340D01*
X156355816Y-124483235D01*
X156395705Y-124499327D01*
X156434801Y-124515884D01*
X156473675Y-124533170D01*
X156512901Y-124551452D01*
X156553048Y-124570997D01*
X156594690Y-124592071D01*
X156638398Y-124614939D01*
X156684743Y-124639869D01*
X156734297Y-124667125D01*
X156787632Y-124696975D01*
X156845320Y-124729684D01*
X156907932Y-124765519D01*
X156972694Y-124802815D01*
X157022887Y-124831743D01*
X157067657Y-124857450D01*
X157107661Y-124880298D01*
X157143555Y-124900648D01*
X157175994Y-124918863D01*
X157205635Y-124935303D01*
X157233134Y-124950330D01*
X157259147Y-124964307D01*
X157284330Y-124977594D01*
X157309338Y-124990554D01*
X157334828Y-125003549D01*
X157357222Y-125014820D01*
X157422539Y-125046741D01*
X157483326Y-125074702D01*
X157540631Y-125099064D01*
X157595499Y-125120188D01*
X157648978Y-125138436D01*
X157702115Y-125154169D01*
X157755957Y-125167748D01*
X157811551Y-125179537D01*
X157859025Y-125188094D01*
X157918301Y-125197475D01*
X157972886Y-125204849D01*
X158024804Y-125210377D01*
X158076074Y-125214223D01*
X158128721Y-125216550D01*
X158184766Y-125217522D01*
X158223292Y-125217509D01*
X158249880Y-125217309D01*
X158274924Y-125217051D01*
X158297330Y-125216751D01*
X158316003Y-125216426D01*
X158329851Y-125216092D01*
X158337777Y-125215767D01*
X158337944Y-125215755D01*
X158428991Y-125206740D01*
X158518800Y-125193096D01*
X158606515Y-125175042D01*
X158691282Y-125152798D01*
X158772244Y-125126583D01*
X158848545Y-125096619D01*
X158906209Y-125069817D01*
X158992043Y-125022919D01*
X159075670Y-124969377D01*
X159157012Y-124909273D01*
X159235994Y-124842690D01*
X159312539Y-124769708D01*
X159386571Y-124690411D01*
X159458015Y-124604879D01*
X159526793Y-124513196D01*
X159592829Y-124415442D01*
X159656048Y-124311701D01*
X159716373Y-124202053D01*
X159720700Y-124193746D01*
X159757707Y-124118734D01*
X159792221Y-124040989D01*
X159824600Y-123959580D01*
X159855202Y-123873574D01*
X159884388Y-123782039D01*
X159900890Y-123725758D01*
X159908457Y-123699169D01*
X160154194Y-123600044D01*
X160193671Y-123584069D01*
X160231187Y-123568791D01*
X160266234Y-123554422D01*
X160298306Y-123541173D01*
X160326898Y-123529257D01*
X160351502Y-123518887D01*
X160371612Y-123510274D01*
X160386722Y-123503630D01*
X160396326Y-123499168D01*
X160399917Y-123497101D01*
X160399931Y-123497055D01*
X160397356Y-123494178D01*
X160389885Y-123486965D01*
X160377902Y-123475762D01*
X160361787Y-123460917D01*
X160341922Y-123442776D01*
X160318690Y-123421686D01*
X160292471Y-123397994D01*
X160263649Y-123372048D01*
X160232605Y-123344193D01*
X160199720Y-123314778D01*
X160174153Y-123291966D01*
X159948375Y-123090741D01*
X159933997Y-123051022D01*
X159905662Y-122980948D01*
X159872414Y-122914045D01*
X159833848Y-122849707D01*
X159789555Y-122787324D01*
X159739130Y-122726287D01*
X159682165Y-122665990D01*
X159665776Y-122649917D01*
X159598462Y-122589739D01*
X159525870Y-122534059D01*
X159448266Y-122483010D01*
X159365914Y-122436722D01*
X159279079Y-122395330D01*
X159188026Y-122358964D01*
X159093021Y-122327758D01*
X158994329Y-122301842D01*
X158948250Y-122291834D01*
X158903853Y-122283197D01*
X158864131Y-122276427D01*
X158827021Y-122271295D01*
X158790460Y-122267572D01*
X158752386Y-122265029D01*
X158710735Y-122263439D01*
X158687194Y-122262916D01*
X158640426Y-122262493D01*
X158598969Y-122263103D01*
D12*
X160940000Y-121520000D03*
X135450000Y-122570000D03*
X135010000Y-94490000D03*
D13*
X131570000Y-112820000D03*
D14*
X131570000Y-110280000D03*
D13*
X131570000Y-107740000D03*
D14*
X131570000Y-105200000D03*
D13*
X131570000Y-102660000D03*
X134550000Y-103700000D03*
D14*
X134550000Y-106240000D03*
D13*
X134550000Y-108780000D03*
D14*
X134550000Y-111320000D03*
D15*
X161005000Y-115800000D03*
X158295000Y-115800000D03*
X161005000Y-100200000D03*
X158295000Y-100200000D03*
X161005000Y-115400000D03*
X161005000Y-115000000D03*
X161005000Y-114600000D03*
X161005000Y-114200000D03*
X161005000Y-113800000D03*
X161005000Y-113400000D03*
X161005000Y-113000000D03*
X161005000Y-112600000D03*
X161005000Y-112200000D03*
X161005000Y-111800000D03*
X161005000Y-111400000D03*
X161005000Y-111000000D03*
X161005000Y-110600000D03*
X161005000Y-110200000D03*
X161005000Y-109800000D03*
X161005000Y-109400000D03*
X161005000Y-109000000D03*
X161005000Y-108600000D03*
X161005000Y-108200000D03*
X161005000Y-107800000D03*
X161005000Y-107400000D03*
X161005000Y-107000000D03*
X161005000Y-106600000D03*
X161005000Y-106200000D03*
X161005000Y-105800000D03*
X161005000Y-105400000D03*
X161005000Y-105000000D03*
X161005000Y-104600000D03*
X161005000Y-104200000D03*
X161005000Y-103800000D03*
X161005000Y-103400000D03*
X161005000Y-103000000D03*
X161005000Y-102600000D03*
X161005000Y-102200000D03*
X161005000Y-101800000D03*
X161005000Y-101400000D03*
X161005000Y-101000000D03*
X161005000Y-100600000D03*
D16*
X161005000Y-99725000D03*
X158295000Y-99725000D03*
X161005000Y-116275000D03*
X158295000Y-116275000D03*
D15*
X158295000Y-100600000D03*
X158295000Y-101000000D03*
X158295000Y-101400000D03*
X158295000Y-101800000D03*
X158295000Y-102200000D03*
X158295000Y-102600000D03*
X158295000Y-103000000D03*
X158295000Y-103400000D03*
X158295000Y-103800000D03*
X158295000Y-104200000D03*
X158295000Y-104600000D03*
X158295000Y-105000000D03*
X158295000Y-105400000D03*
X158295000Y-105800000D03*
X158295000Y-106200000D03*
X158295000Y-106600000D03*
X158295000Y-107000000D03*
X158295000Y-107400000D03*
X158295000Y-107800000D03*
X158295000Y-108200000D03*
X158295000Y-108600000D03*
X158295000Y-109000000D03*
X158295000Y-109400000D03*
X158295000Y-109800000D03*
X158295000Y-110200000D03*
X158295000Y-110600000D03*
X158295000Y-111000000D03*
X158295000Y-111400000D03*
X158295000Y-111800000D03*
X158295000Y-112200000D03*
X158295000Y-112600000D03*
X158295000Y-113000000D03*
X158295000Y-113400000D03*
X158295000Y-113800000D03*
X158295000Y-114200000D03*
X158295000Y-114600000D03*
X158295000Y-115000000D03*
X158295000Y-115400000D03*
D17*
X156250000Y-95900000D03*
X158150000Y-95900000D03*
D18*
X158712500Y-92862500D03*
X158712500Y-93362500D03*
X158712500Y-93862500D03*
X158712500Y-94362500D03*
X155812500Y-94362500D03*
X155812500Y-93862500D03*
X155812500Y-93362500D03*
X155812500Y-92862500D03*
D19*
X156825000Y-93975000D03*
X156825000Y-93250000D03*
X157700000Y-93975000D03*
X157700000Y-93250000D03*
D20*
X156550000Y-91200000D03*
X154350000Y-91200000D03*
D21*
X158550000Y-91250000D03*
D22*
X147350000Y-113890000D03*
D23*
X144810000Y-113890000D03*
X142270000Y-113890000D03*
X139730000Y-113890000D03*
X137190000Y-113890000D03*
X134650000Y-113890000D03*
D22*
X147400000Y-101200000D03*
D23*
X144860000Y-101200000D03*
X142320000Y-101200000D03*
X139780000Y-101200000D03*
X137240000Y-101200000D03*
D22*
X134700000Y-101200000D03*
D24*
X147400000Y-109140000D03*
D25*
X147400000Y-106600000D03*
D22*
X150745000Y-124450000D03*
D23*
X148205000Y-124450000D03*
X145665000Y-124450000D03*
X143125000Y-124450000D03*
X140585000Y-124450000D03*
X138045000Y-124450000D03*
D26*
X151940000Y-117170000D03*
X151940000Y-119070000D03*
X151940000Y-115180000D03*
X151940000Y-113280000D03*
D27*
X141850000Y-116590000D03*
X141850000Y-118790000D03*
D28*
X143790000Y-118205000D03*
X143790000Y-117555000D03*
X143790000Y-116905000D03*
X143790000Y-116255000D03*
X149690000Y-116255000D03*
X149690000Y-116905000D03*
X149690000Y-117555000D03*
X149690000Y-118205000D03*
M02*
