G04 #@! TF.FileFunction,Soldermask,Top*
%FSLAX46Y46*%
G04 Gerber Fmt 4.6, Leading zero omitted, Abs format (unit mm)*
G04 Created by KiCad (PCBNEW 4.0.1-stable) date Wednesday, March 23, 2016 'PMt' 11:14:25 PM*
%MOMM*%
G01*
G04 APERTURE LIST*
%ADD10C,0.100000*%
%ADD11C,0.010000*%
%ADD12C,2.000000*%
%ADD13O,2.432000X2.127200*%
%ADD14R,2.432000X2.127200*%
%ADD15R,1.901140X0.798780*%
%ADD16R,2.000000X2.400000*%
%ADD17R,1.197560X1.197560*%
%ADD18R,1.300000X1.600000*%
%ADD19R,2.127200X2.432000*%
%ADD20O,2.127200X2.432000*%
%ADD21R,2.432000X2.432000*%
%ADD22O,2.432000X2.432000*%
%ADD23R,1.100000X0.600000*%
%ADD24R,1.200100X1.200100*%
%ADD25R,1.600000X1.300000*%
%ADD26R,1.000000X1.100000*%
G04 APERTURE END LIST*
D10*
D11*
G36*
X147068969Y-95456897D02*
X147031134Y-95455122D01*
X146995237Y-95452050D01*
X146959588Y-95447549D01*
X146922501Y-95441488D01*
X146897463Y-95436774D01*
X146860495Y-95429127D01*
X146825230Y-95420944D01*
X146790622Y-95411892D01*
X146755624Y-95401636D01*
X146719191Y-95389844D01*
X146680278Y-95376182D01*
X146637839Y-95360316D01*
X146590827Y-95341912D01*
X146555263Y-95327594D01*
X146508042Y-95308195D01*
X146460102Y-95288057D01*
X146411041Y-95266989D01*
X146360453Y-95244801D01*
X146307934Y-95221305D01*
X146253079Y-95196311D01*
X146195486Y-95169628D01*
X146134749Y-95141068D01*
X146070464Y-95110441D01*
X146002227Y-95077558D01*
X145929635Y-95042228D01*
X145852281Y-95004263D01*
X145769764Y-94963472D01*
X145681677Y-94919667D01*
X145623915Y-94890823D01*
X145542201Y-94850036D01*
X145466268Y-94812302D01*
X145395642Y-94777404D01*
X145329851Y-94745125D01*
X145268423Y-94715248D01*
X145210885Y-94687556D01*
X145156765Y-94661833D01*
X145105591Y-94637862D01*
X145056889Y-94615425D01*
X145010189Y-94594305D01*
X144965018Y-94574286D01*
X144920903Y-94555152D01*
X144877371Y-94536684D01*
X144833951Y-94518666D01*
X144790171Y-94500881D01*
X144745557Y-94483112D01*
X144699637Y-94465143D01*
X144682458Y-94458491D01*
X144658476Y-94449207D01*
X144636212Y-94440545D01*
X144616652Y-94432891D01*
X144600781Y-94426634D01*
X144589586Y-94422160D01*
X144584216Y-94419930D01*
X144574168Y-94415427D01*
X144589302Y-94396151D01*
X144601111Y-94382098D01*
X144617080Y-94364518D01*
X144636079Y-94344551D01*
X144656977Y-94323337D01*
X144678643Y-94302014D01*
X144699945Y-94281723D01*
X144719754Y-94263603D01*
X144728319Y-94256080D01*
X144803898Y-94194961D01*
X144885648Y-94136762D01*
X144973253Y-94081625D01*
X145066399Y-94029694D01*
X145164769Y-93981114D01*
X145268048Y-93936027D01*
X145375921Y-93894578D01*
X145488072Y-93856909D01*
X145604186Y-93823165D01*
X145723946Y-93793490D01*
X145763722Y-93784719D01*
X145822747Y-93772433D01*
X145876586Y-93761987D01*
X145926795Y-93753123D01*
X145974926Y-93745587D01*
X146022531Y-93739123D01*
X146071165Y-93733474D01*
X146081222Y-93732412D01*
X146101268Y-93730815D01*
X146126488Y-93729562D01*
X146155561Y-93728652D01*
X146187167Y-93728087D01*
X146219986Y-93727866D01*
X146252697Y-93727989D01*
X146283980Y-93728457D01*
X146312515Y-93729270D01*
X146336981Y-93730428D01*
X146356059Y-93731931D01*
X146359917Y-93732371D01*
X146430413Y-93743641D01*
X146495332Y-93759223D01*
X146554686Y-93779125D01*
X146608489Y-93803358D01*
X146656754Y-93831929D01*
X146699494Y-93864848D01*
X146736725Y-93902125D01*
X146768458Y-93943767D01*
X146794708Y-93989784D01*
X146814186Y-94036444D01*
X146823436Y-94064664D01*
X146830050Y-94090210D01*
X146834389Y-94115330D01*
X146836811Y-94142274D01*
X146837677Y-94173290D01*
X146837689Y-94183310D01*
X146837494Y-94240217D01*
X146860459Y-94242570D01*
X146883423Y-94244922D01*
X146933181Y-94210990D01*
X146932739Y-94161641D01*
X146928754Y-94103410D01*
X146917973Y-94046659D01*
X146900573Y-93991805D01*
X146876733Y-93939268D01*
X146846631Y-93889464D01*
X146810446Y-93842812D01*
X146785226Y-93815845D01*
X146744590Y-93779000D01*
X146700860Y-93746629D01*
X146653528Y-93718509D01*
X146602089Y-93694416D01*
X146546034Y-93674127D01*
X146484857Y-93657416D01*
X146418052Y-93644062D01*
X146384611Y-93638887D01*
X146363545Y-93636611D01*
X146336697Y-93634815D01*
X146305325Y-93633500D01*
X146270685Y-93632666D01*
X146234034Y-93632312D01*
X146196631Y-93632438D01*
X146159731Y-93633044D01*
X146124593Y-93634130D01*
X146092474Y-93635697D01*
X146064630Y-93637743D01*
X146053000Y-93638912D01*
X145938753Y-93654085D01*
X145823621Y-93673945D01*
X145708476Y-93698230D01*
X145594191Y-93726679D01*
X145481641Y-93759031D01*
X145371697Y-93795025D01*
X145265234Y-93834400D01*
X145163124Y-93876894D01*
X145066240Y-93922246D01*
X145011392Y-93950502D01*
X144928282Y-93997249D01*
X144849342Y-94046369D01*
X144775019Y-94097513D01*
X144705759Y-94150332D01*
X144642007Y-94204478D01*
X144584209Y-94259603D01*
X144532812Y-94315357D01*
X144511120Y-94341520D01*
X144496411Y-94359428D01*
X144485353Y-94371741D01*
X144477679Y-94378733D01*
X144473122Y-94380678D01*
X144472894Y-94380627D01*
X144458318Y-94376988D01*
X144437871Y-94372861D01*
X144412704Y-94368412D01*
X144383971Y-94363807D01*
X144352826Y-94359213D01*
X144320421Y-94354796D01*
X144287909Y-94350724D01*
X144256444Y-94347163D01*
X144227179Y-94344280D01*
X144213264Y-94343107D01*
X144183004Y-94341370D01*
X144149491Y-94340689D01*
X144112279Y-94341091D01*
X144070925Y-94342602D01*
X144024983Y-94345250D01*
X143974009Y-94349062D01*
X143917559Y-94354063D01*
X143855188Y-94360281D01*
X143786452Y-94367744D01*
X143765236Y-94370147D01*
X143667304Y-94381961D01*
X143562890Y-94395747D01*
X143452274Y-94411456D01*
X143335733Y-94429038D01*
X143213546Y-94448441D01*
X143085989Y-94469614D01*
X142953343Y-94492508D01*
X142815883Y-94517072D01*
X142673890Y-94543254D01*
X142527640Y-94571005D01*
X142377412Y-94600273D01*
X142223483Y-94631009D01*
X142066133Y-94663160D01*
X141905639Y-94696678D01*
X141742279Y-94731511D01*
X141576331Y-94767608D01*
X141548028Y-94773834D01*
X141516495Y-94780732D01*
X141486427Y-94787213D01*
X141458674Y-94793101D01*
X141434087Y-94798220D01*
X141413516Y-94802393D01*
X141397814Y-94805444D01*
X141387830Y-94807196D01*
X141385750Y-94807480D01*
X141358371Y-94807397D01*
X141329403Y-94801802D01*
X141300663Y-94791360D01*
X141273968Y-94776737D01*
X141251137Y-94758600D01*
X141250423Y-94757903D01*
X141239666Y-94745542D01*
X141226441Y-94727416D01*
X141211127Y-94704218D01*
X141194102Y-94676638D01*
X141175747Y-94645367D01*
X141156438Y-94611098D01*
X141136556Y-94574521D01*
X141116479Y-94536329D01*
X141096585Y-94497211D01*
X141077253Y-94457861D01*
X141058863Y-94418969D01*
X141041792Y-94381226D01*
X141033062Y-94361112D01*
X141005582Y-94292172D01*
X140983705Y-94227247D01*
X140967436Y-94166369D01*
X140956780Y-94109572D01*
X140951742Y-94056888D01*
X140952326Y-94008350D01*
X140958538Y-93963992D01*
X140969697Y-93925645D01*
X140979279Y-93905383D01*
X140992842Y-93883470D01*
X141008641Y-93862372D01*
X141024928Y-93844559D01*
X141030911Y-93839140D01*
X141046300Y-93827229D01*
X141062919Y-93816713D01*
X141081311Y-93807482D01*
X141102022Y-93799426D01*
X141125594Y-93792435D01*
X141152573Y-93786398D01*
X141183502Y-93781206D01*
X141218926Y-93776748D01*
X141259388Y-93772914D01*
X141305433Y-93769595D01*
X141357604Y-93766679D01*
X141398097Y-93764818D01*
X141417868Y-93764039D01*
X141443696Y-93763124D01*
X141474584Y-93762103D01*
X141509536Y-93761006D01*
X141547554Y-93759863D01*
X141587643Y-93758706D01*
X141628805Y-93757563D01*
X141670044Y-93756466D01*
X141690903Y-93755930D01*
X141796868Y-93753135D01*
X141896377Y-93750272D01*
X141990029Y-93747312D01*
X142078424Y-93744226D01*
X142162160Y-93740984D01*
X142241838Y-93737556D01*
X142318056Y-93733914D01*
X142391413Y-93730028D01*
X142462509Y-93725868D01*
X142531944Y-93721405D01*
X142600317Y-93716610D01*
X142668226Y-93711452D01*
X142736271Y-93705904D01*
X142772167Y-93702832D01*
X142924575Y-93688516D01*
X143071084Y-93672499D01*
X143212686Y-93654574D01*
X143350371Y-93634538D01*
X143485131Y-93612187D01*
X143617958Y-93587314D01*
X143749844Y-93559717D01*
X143881779Y-93529189D01*
X144014756Y-93495527D01*
X144149766Y-93458526D01*
X144287801Y-93417982D01*
X144429851Y-93373689D01*
X144537819Y-93338484D01*
X144594471Y-93319585D01*
X144646899Y-93301819D01*
X144695676Y-93284921D01*
X144741373Y-93268623D01*
X144784563Y-93252660D01*
X144825816Y-93236765D01*
X144865705Y-93220673D01*
X144904801Y-93204116D01*
X144943675Y-93186830D01*
X144982901Y-93168548D01*
X145023048Y-93149003D01*
X145064690Y-93127929D01*
X145108398Y-93105061D01*
X145154743Y-93080131D01*
X145204297Y-93052875D01*
X145257632Y-93023025D01*
X145315320Y-92990316D01*
X145377932Y-92954481D01*
X145442694Y-92917185D01*
X145492887Y-92888257D01*
X145537657Y-92862550D01*
X145577661Y-92839702D01*
X145613555Y-92819352D01*
X145645994Y-92801137D01*
X145675635Y-92784697D01*
X145703134Y-92769670D01*
X145729147Y-92755693D01*
X145754330Y-92742406D01*
X145779338Y-92729446D01*
X145804828Y-92716451D01*
X145827222Y-92705180D01*
X145892539Y-92673259D01*
X145953326Y-92645298D01*
X146010631Y-92620936D01*
X146065499Y-92599812D01*
X146118978Y-92581564D01*
X146172115Y-92565831D01*
X146225957Y-92552252D01*
X146281551Y-92540463D01*
X146329025Y-92531906D01*
X146388301Y-92522525D01*
X146442886Y-92515151D01*
X146494804Y-92509623D01*
X146546074Y-92505777D01*
X146598721Y-92503450D01*
X146654766Y-92502478D01*
X146693292Y-92502491D01*
X146719880Y-92502691D01*
X146744924Y-92502949D01*
X146767330Y-92503249D01*
X146786003Y-92503574D01*
X146799851Y-92503908D01*
X146807777Y-92504233D01*
X146807944Y-92504245D01*
X146898991Y-92513260D01*
X146988800Y-92526904D01*
X147076515Y-92544958D01*
X147161282Y-92567202D01*
X147242244Y-92593417D01*
X147318545Y-92623381D01*
X147376209Y-92650183D01*
X147462043Y-92697081D01*
X147545670Y-92750623D01*
X147627012Y-92810727D01*
X147705994Y-92877310D01*
X147782539Y-92950292D01*
X147856571Y-93029589D01*
X147928015Y-93115121D01*
X147996793Y-93206804D01*
X148062829Y-93304558D01*
X148126048Y-93408299D01*
X148186373Y-93517947D01*
X148190700Y-93526254D01*
X148227707Y-93601266D01*
X148262221Y-93679011D01*
X148294600Y-93760420D01*
X148325202Y-93846426D01*
X148354388Y-93937961D01*
X148370890Y-93994242D01*
X148378457Y-94020831D01*
X148624194Y-94119956D01*
X148663671Y-94135931D01*
X148701187Y-94151209D01*
X148736234Y-94165578D01*
X148768306Y-94178827D01*
X148796898Y-94190743D01*
X148821502Y-94201113D01*
X148841612Y-94209726D01*
X148856722Y-94216370D01*
X148866326Y-94220832D01*
X148869917Y-94222899D01*
X148869931Y-94222945D01*
X148867356Y-94225822D01*
X148859885Y-94233035D01*
X148847902Y-94244238D01*
X148831787Y-94259083D01*
X148811922Y-94277224D01*
X148788690Y-94298314D01*
X148762471Y-94322006D01*
X148733649Y-94347952D01*
X148702605Y-94375807D01*
X148669720Y-94405222D01*
X148644153Y-94428034D01*
X148418375Y-94629259D01*
X148403997Y-94668978D01*
X148375662Y-94739052D01*
X148342414Y-94805955D01*
X148303848Y-94870293D01*
X148259555Y-94932676D01*
X148209130Y-94993713D01*
X148152165Y-95054010D01*
X148135776Y-95070083D01*
X148068462Y-95130261D01*
X147995870Y-95185941D01*
X147918266Y-95236990D01*
X147835914Y-95283278D01*
X147749079Y-95324670D01*
X147658026Y-95361036D01*
X147563021Y-95392242D01*
X147464329Y-95418158D01*
X147418250Y-95428166D01*
X147373853Y-95436803D01*
X147334131Y-95443573D01*
X147297021Y-95448705D01*
X147260460Y-95452428D01*
X147222386Y-95454971D01*
X147180735Y-95456561D01*
X147157194Y-95457084D01*
X147110426Y-95457507D01*
X147068969Y-95456897D01*
X147068969Y-95456897D01*
G37*
X147068969Y-95456897D02*
X147031134Y-95455122D01*
X146995237Y-95452050D01*
X146959588Y-95447549D01*
X146922501Y-95441488D01*
X146897463Y-95436774D01*
X146860495Y-95429127D01*
X146825230Y-95420944D01*
X146790622Y-95411892D01*
X146755624Y-95401636D01*
X146719191Y-95389844D01*
X146680278Y-95376182D01*
X146637839Y-95360316D01*
X146590827Y-95341912D01*
X146555263Y-95327594D01*
X146508042Y-95308195D01*
X146460102Y-95288057D01*
X146411041Y-95266989D01*
X146360453Y-95244801D01*
X146307934Y-95221305D01*
X146253079Y-95196311D01*
X146195486Y-95169628D01*
X146134749Y-95141068D01*
X146070464Y-95110441D01*
X146002227Y-95077558D01*
X145929635Y-95042228D01*
X145852281Y-95004263D01*
X145769764Y-94963472D01*
X145681677Y-94919667D01*
X145623915Y-94890823D01*
X145542201Y-94850036D01*
X145466268Y-94812302D01*
X145395642Y-94777404D01*
X145329851Y-94745125D01*
X145268423Y-94715248D01*
X145210885Y-94687556D01*
X145156765Y-94661833D01*
X145105591Y-94637862D01*
X145056889Y-94615425D01*
X145010189Y-94594305D01*
X144965018Y-94574286D01*
X144920903Y-94555152D01*
X144877371Y-94536684D01*
X144833951Y-94518666D01*
X144790171Y-94500881D01*
X144745557Y-94483112D01*
X144699637Y-94465143D01*
X144682458Y-94458491D01*
X144658476Y-94449207D01*
X144636212Y-94440545D01*
X144616652Y-94432891D01*
X144600781Y-94426634D01*
X144589586Y-94422160D01*
X144584216Y-94419930D01*
X144574168Y-94415427D01*
X144589302Y-94396151D01*
X144601111Y-94382098D01*
X144617080Y-94364518D01*
X144636079Y-94344551D01*
X144656977Y-94323337D01*
X144678643Y-94302014D01*
X144699945Y-94281723D01*
X144719754Y-94263603D01*
X144728319Y-94256080D01*
X144803898Y-94194961D01*
X144885648Y-94136762D01*
X144973253Y-94081625D01*
X145066399Y-94029694D01*
X145164769Y-93981114D01*
X145268048Y-93936027D01*
X145375921Y-93894578D01*
X145488072Y-93856909D01*
X145604186Y-93823165D01*
X145723946Y-93793490D01*
X145763722Y-93784719D01*
X145822747Y-93772433D01*
X145876586Y-93761987D01*
X145926795Y-93753123D01*
X145974926Y-93745587D01*
X146022531Y-93739123D01*
X146071165Y-93733474D01*
X146081222Y-93732412D01*
X146101268Y-93730815D01*
X146126488Y-93729562D01*
X146155561Y-93728652D01*
X146187167Y-93728087D01*
X146219986Y-93727866D01*
X146252697Y-93727989D01*
X146283980Y-93728457D01*
X146312515Y-93729270D01*
X146336981Y-93730428D01*
X146356059Y-93731931D01*
X146359917Y-93732371D01*
X146430413Y-93743641D01*
X146495332Y-93759223D01*
X146554686Y-93779125D01*
X146608489Y-93803358D01*
X146656754Y-93831929D01*
X146699494Y-93864848D01*
X146736725Y-93902125D01*
X146768458Y-93943767D01*
X146794708Y-93989784D01*
X146814186Y-94036444D01*
X146823436Y-94064664D01*
X146830050Y-94090210D01*
X146834389Y-94115330D01*
X146836811Y-94142274D01*
X146837677Y-94173290D01*
X146837689Y-94183310D01*
X146837494Y-94240217D01*
X146860459Y-94242570D01*
X146883423Y-94244922D01*
X146933181Y-94210990D01*
X146932739Y-94161641D01*
X146928754Y-94103410D01*
X146917973Y-94046659D01*
X146900573Y-93991805D01*
X146876733Y-93939268D01*
X146846631Y-93889464D01*
X146810446Y-93842812D01*
X146785226Y-93815845D01*
X146744590Y-93779000D01*
X146700860Y-93746629D01*
X146653528Y-93718509D01*
X146602089Y-93694416D01*
X146546034Y-93674127D01*
X146484857Y-93657416D01*
X146418052Y-93644062D01*
X146384611Y-93638887D01*
X146363545Y-93636611D01*
X146336697Y-93634815D01*
X146305325Y-93633500D01*
X146270685Y-93632666D01*
X146234034Y-93632312D01*
X146196631Y-93632438D01*
X146159731Y-93633044D01*
X146124593Y-93634130D01*
X146092474Y-93635697D01*
X146064630Y-93637743D01*
X146053000Y-93638912D01*
X145938753Y-93654085D01*
X145823621Y-93673945D01*
X145708476Y-93698230D01*
X145594191Y-93726679D01*
X145481641Y-93759031D01*
X145371697Y-93795025D01*
X145265234Y-93834400D01*
X145163124Y-93876894D01*
X145066240Y-93922246D01*
X145011392Y-93950502D01*
X144928282Y-93997249D01*
X144849342Y-94046369D01*
X144775019Y-94097513D01*
X144705759Y-94150332D01*
X144642007Y-94204478D01*
X144584209Y-94259603D01*
X144532812Y-94315357D01*
X144511120Y-94341520D01*
X144496411Y-94359428D01*
X144485353Y-94371741D01*
X144477679Y-94378733D01*
X144473122Y-94380678D01*
X144472894Y-94380627D01*
X144458318Y-94376988D01*
X144437871Y-94372861D01*
X144412704Y-94368412D01*
X144383971Y-94363807D01*
X144352826Y-94359213D01*
X144320421Y-94354796D01*
X144287909Y-94350724D01*
X144256444Y-94347163D01*
X144227179Y-94344280D01*
X144213264Y-94343107D01*
X144183004Y-94341370D01*
X144149491Y-94340689D01*
X144112279Y-94341091D01*
X144070925Y-94342602D01*
X144024983Y-94345250D01*
X143974009Y-94349062D01*
X143917559Y-94354063D01*
X143855188Y-94360281D01*
X143786452Y-94367744D01*
X143765236Y-94370147D01*
X143667304Y-94381961D01*
X143562890Y-94395747D01*
X143452274Y-94411456D01*
X143335733Y-94429038D01*
X143213546Y-94448441D01*
X143085989Y-94469614D01*
X142953343Y-94492508D01*
X142815883Y-94517072D01*
X142673890Y-94543254D01*
X142527640Y-94571005D01*
X142377412Y-94600273D01*
X142223483Y-94631009D01*
X142066133Y-94663160D01*
X141905639Y-94696678D01*
X141742279Y-94731511D01*
X141576331Y-94767608D01*
X141548028Y-94773834D01*
X141516495Y-94780732D01*
X141486427Y-94787213D01*
X141458674Y-94793101D01*
X141434087Y-94798220D01*
X141413516Y-94802393D01*
X141397814Y-94805444D01*
X141387830Y-94807196D01*
X141385750Y-94807480D01*
X141358371Y-94807397D01*
X141329403Y-94801802D01*
X141300663Y-94791360D01*
X141273968Y-94776737D01*
X141251137Y-94758600D01*
X141250423Y-94757903D01*
X141239666Y-94745542D01*
X141226441Y-94727416D01*
X141211127Y-94704218D01*
X141194102Y-94676638D01*
X141175747Y-94645367D01*
X141156438Y-94611098D01*
X141136556Y-94574521D01*
X141116479Y-94536329D01*
X141096585Y-94497211D01*
X141077253Y-94457861D01*
X141058863Y-94418969D01*
X141041792Y-94381226D01*
X141033062Y-94361112D01*
X141005582Y-94292172D01*
X140983705Y-94227247D01*
X140967436Y-94166369D01*
X140956780Y-94109572D01*
X140951742Y-94056888D01*
X140952326Y-94008350D01*
X140958538Y-93963992D01*
X140969697Y-93925645D01*
X140979279Y-93905383D01*
X140992842Y-93883470D01*
X141008641Y-93862372D01*
X141024928Y-93844559D01*
X141030911Y-93839140D01*
X141046300Y-93827229D01*
X141062919Y-93816713D01*
X141081311Y-93807482D01*
X141102022Y-93799426D01*
X141125594Y-93792435D01*
X141152573Y-93786398D01*
X141183502Y-93781206D01*
X141218926Y-93776748D01*
X141259388Y-93772914D01*
X141305433Y-93769595D01*
X141357604Y-93766679D01*
X141398097Y-93764818D01*
X141417868Y-93764039D01*
X141443696Y-93763124D01*
X141474584Y-93762103D01*
X141509536Y-93761006D01*
X141547554Y-93759863D01*
X141587643Y-93758706D01*
X141628805Y-93757563D01*
X141670044Y-93756466D01*
X141690903Y-93755930D01*
X141796868Y-93753135D01*
X141896377Y-93750272D01*
X141990029Y-93747312D01*
X142078424Y-93744226D01*
X142162160Y-93740984D01*
X142241838Y-93737556D01*
X142318056Y-93733914D01*
X142391413Y-93730028D01*
X142462509Y-93725868D01*
X142531944Y-93721405D01*
X142600317Y-93716610D01*
X142668226Y-93711452D01*
X142736271Y-93705904D01*
X142772167Y-93702832D01*
X142924575Y-93688516D01*
X143071084Y-93672499D01*
X143212686Y-93654574D01*
X143350371Y-93634538D01*
X143485131Y-93612187D01*
X143617958Y-93587314D01*
X143749844Y-93559717D01*
X143881779Y-93529189D01*
X144014756Y-93495527D01*
X144149766Y-93458526D01*
X144287801Y-93417982D01*
X144429851Y-93373689D01*
X144537819Y-93338484D01*
X144594471Y-93319585D01*
X144646899Y-93301819D01*
X144695676Y-93284921D01*
X144741373Y-93268623D01*
X144784563Y-93252660D01*
X144825816Y-93236765D01*
X144865705Y-93220673D01*
X144904801Y-93204116D01*
X144943675Y-93186830D01*
X144982901Y-93168548D01*
X145023048Y-93149003D01*
X145064690Y-93127929D01*
X145108398Y-93105061D01*
X145154743Y-93080131D01*
X145204297Y-93052875D01*
X145257632Y-93023025D01*
X145315320Y-92990316D01*
X145377932Y-92954481D01*
X145442694Y-92917185D01*
X145492887Y-92888257D01*
X145537657Y-92862550D01*
X145577661Y-92839702D01*
X145613555Y-92819352D01*
X145645994Y-92801137D01*
X145675635Y-92784697D01*
X145703134Y-92769670D01*
X145729147Y-92755693D01*
X145754330Y-92742406D01*
X145779338Y-92729446D01*
X145804828Y-92716451D01*
X145827222Y-92705180D01*
X145892539Y-92673259D01*
X145953326Y-92645298D01*
X146010631Y-92620936D01*
X146065499Y-92599812D01*
X146118978Y-92581564D01*
X146172115Y-92565831D01*
X146225957Y-92552252D01*
X146281551Y-92540463D01*
X146329025Y-92531906D01*
X146388301Y-92522525D01*
X146442886Y-92515151D01*
X146494804Y-92509623D01*
X146546074Y-92505777D01*
X146598721Y-92503450D01*
X146654766Y-92502478D01*
X146693292Y-92502491D01*
X146719880Y-92502691D01*
X146744924Y-92502949D01*
X146767330Y-92503249D01*
X146786003Y-92503574D01*
X146799851Y-92503908D01*
X146807777Y-92504233D01*
X146807944Y-92504245D01*
X146898991Y-92513260D01*
X146988800Y-92526904D01*
X147076515Y-92544958D01*
X147161282Y-92567202D01*
X147242244Y-92593417D01*
X147318545Y-92623381D01*
X147376209Y-92650183D01*
X147462043Y-92697081D01*
X147545670Y-92750623D01*
X147627012Y-92810727D01*
X147705994Y-92877310D01*
X147782539Y-92950292D01*
X147856571Y-93029589D01*
X147928015Y-93115121D01*
X147996793Y-93206804D01*
X148062829Y-93304558D01*
X148126048Y-93408299D01*
X148186373Y-93517947D01*
X148190700Y-93526254D01*
X148227707Y-93601266D01*
X148262221Y-93679011D01*
X148294600Y-93760420D01*
X148325202Y-93846426D01*
X148354388Y-93937961D01*
X148370890Y-93994242D01*
X148378457Y-94020831D01*
X148624194Y-94119956D01*
X148663671Y-94135931D01*
X148701187Y-94151209D01*
X148736234Y-94165578D01*
X148768306Y-94178827D01*
X148796898Y-94190743D01*
X148821502Y-94201113D01*
X148841612Y-94209726D01*
X148856722Y-94216370D01*
X148866326Y-94220832D01*
X148869917Y-94222899D01*
X148869931Y-94222945D01*
X148867356Y-94225822D01*
X148859885Y-94233035D01*
X148847902Y-94244238D01*
X148831787Y-94259083D01*
X148811922Y-94277224D01*
X148788690Y-94298314D01*
X148762471Y-94322006D01*
X148733649Y-94347952D01*
X148702605Y-94375807D01*
X148669720Y-94405222D01*
X148644153Y-94428034D01*
X148418375Y-94629259D01*
X148403997Y-94668978D01*
X148375662Y-94739052D01*
X148342414Y-94805955D01*
X148303848Y-94870293D01*
X148259555Y-94932676D01*
X148209130Y-94993713D01*
X148152165Y-95054010D01*
X148135776Y-95070083D01*
X148068462Y-95130261D01*
X147995870Y-95185941D01*
X147918266Y-95236990D01*
X147835914Y-95283278D01*
X147749079Y-95324670D01*
X147658026Y-95361036D01*
X147563021Y-95392242D01*
X147464329Y-95418158D01*
X147418250Y-95428166D01*
X147373853Y-95436803D01*
X147334131Y-95443573D01*
X147297021Y-95448705D01*
X147260460Y-95452428D01*
X147222386Y-95454971D01*
X147180735Y-95456561D01*
X147157194Y-95457084D01*
X147110426Y-95457507D01*
X147068969Y-95456897D01*
G36*
X134125029Y-115670793D02*
X134162864Y-115672568D01*
X134198761Y-115675640D01*
X134234410Y-115680141D01*
X134271497Y-115686202D01*
X134296535Y-115690916D01*
X134333503Y-115698563D01*
X134368768Y-115706746D01*
X134403376Y-115715798D01*
X134438374Y-115726054D01*
X134474807Y-115737846D01*
X134513720Y-115751508D01*
X134556159Y-115767374D01*
X134603171Y-115785778D01*
X134638735Y-115800096D01*
X134685956Y-115819495D01*
X134733896Y-115839633D01*
X134782957Y-115860701D01*
X134833545Y-115882889D01*
X134886064Y-115906385D01*
X134940919Y-115931379D01*
X134998512Y-115958062D01*
X135059249Y-115986622D01*
X135123534Y-116017249D01*
X135191771Y-116050132D01*
X135264363Y-116085462D01*
X135341717Y-116123427D01*
X135424234Y-116164218D01*
X135512321Y-116208023D01*
X135570083Y-116236867D01*
X135651797Y-116277654D01*
X135727730Y-116315388D01*
X135798356Y-116350286D01*
X135864147Y-116382565D01*
X135925575Y-116412442D01*
X135983113Y-116440134D01*
X136037233Y-116465857D01*
X136088407Y-116489828D01*
X136137109Y-116512265D01*
X136183809Y-116533385D01*
X136228980Y-116553404D01*
X136273095Y-116572538D01*
X136316627Y-116591006D01*
X136360047Y-116609024D01*
X136403827Y-116626809D01*
X136448441Y-116644578D01*
X136494361Y-116662547D01*
X136511540Y-116669199D01*
X136535522Y-116678483D01*
X136557786Y-116687145D01*
X136577346Y-116694799D01*
X136593217Y-116701056D01*
X136604412Y-116705530D01*
X136609782Y-116707760D01*
X136619830Y-116712263D01*
X136604696Y-116731539D01*
X136592887Y-116745592D01*
X136576918Y-116763172D01*
X136557919Y-116783139D01*
X136537021Y-116804353D01*
X136515355Y-116825676D01*
X136494053Y-116845967D01*
X136474244Y-116864087D01*
X136465679Y-116871610D01*
X136390100Y-116932729D01*
X136308350Y-116990928D01*
X136220745Y-117046065D01*
X136127599Y-117097996D01*
X136029229Y-117146576D01*
X135925950Y-117191663D01*
X135818077Y-117233112D01*
X135705926Y-117270781D01*
X135589812Y-117304525D01*
X135470052Y-117334200D01*
X135430276Y-117342971D01*
X135371251Y-117355257D01*
X135317412Y-117365703D01*
X135267203Y-117374567D01*
X135219072Y-117382103D01*
X135171467Y-117388567D01*
X135122833Y-117394216D01*
X135112776Y-117395278D01*
X135092730Y-117396875D01*
X135067510Y-117398128D01*
X135038437Y-117399038D01*
X135006831Y-117399603D01*
X134974012Y-117399824D01*
X134941301Y-117399701D01*
X134910018Y-117399233D01*
X134881483Y-117398420D01*
X134857017Y-117397262D01*
X134837939Y-117395759D01*
X134834081Y-117395319D01*
X134763585Y-117384049D01*
X134698666Y-117368467D01*
X134639312Y-117348565D01*
X134585509Y-117324332D01*
X134537244Y-117295761D01*
X134494504Y-117262842D01*
X134457273Y-117225565D01*
X134425540Y-117183923D01*
X134399290Y-117137906D01*
X134379812Y-117091246D01*
X134370562Y-117063026D01*
X134363948Y-117037480D01*
X134359609Y-117012360D01*
X134357187Y-116985416D01*
X134356321Y-116954400D01*
X134356309Y-116944380D01*
X134356504Y-116887473D01*
X134333539Y-116885120D01*
X134310575Y-116882768D01*
X134260817Y-116916700D01*
X134261259Y-116966049D01*
X134265244Y-117024280D01*
X134276025Y-117081031D01*
X134293425Y-117135885D01*
X134317265Y-117188422D01*
X134347367Y-117238226D01*
X134383552Y-117284878D01*
X134408772Y-117311845D01*
X134449408Y-117348690D01*
X134493138Y-117381061D01*
X134540470Y-117409181D01*
X134591909Y-117433274D01*
X134647964Y-117453563D01*
X134709141Y-117470274D01*
X134775946Y-117483628D01*
X134809387Y-117488803D01*
X134830453Y-117491079D01*
X134857301Y-117492875D01*
X134888673Y-117494190D01*
X134923313Y-117495024D01*
X134959964Y-117495378D01*
X134997367Y-117495252D01*
X135034267Y-117494646D01*
X135069405Y-117493560D01*
X135101524Y-117491993D01*
X135129368Y-117489947D01*
X135140998Y-117488778D01*
X135255245Y-117473605D01*
X135370377Y-117453745D01*
X135485522Y-117429460D01*
X135599807Y-117401011D01*
X135712357Y-117368659D01*
X135822301Y-117332665D01*
X135928764Y-117293290D01*
X136030874Y-117250796D01*
X136127758Y-117205444D01*
X136182606Y-117177188D01*
X136265716Y-117130441D01*
X136344656Y-117081321D01*
X136418979Y-117030177D01*
X136488239Y-116977358D01*
X136551991Y-116923212D01*
X136609789Y-116868087D01*
X136661186Y-116812333D01*
X136682878Y-116786170D01*
X136697587Y-116768262D01*
X136708645Y-116755949D01*
X136716319Y-116748957D01*
X136720876Y-116747012D01*
X136721104Y-116747063D01*
X136735680Y-116750702D01*
X136756127Y-116754829D01*
X136781294Y-116759278D01*
X136810027Y-116763883D01*
X136841172Y-116768477D01*
X136873577Y-116772894D01*
X136906089Y-116776966D01*
X136937554Y-116780527D01*
X136966819Y-116783410D01*
X136980734Y-116784583D01*
X137010994Y-116786320D01*
X137044507Y-116787001D01*
X137081719Y-116786599D01*
X137123073Y-116785088D01*
X137169015Y-116782440D01*
X137219989Y-116778628D01*
X137276439Y-116773627D01*
X137338810Y-116767409D01*
X137407546Y-116759946D01*
X137428762Y-116757543D01*
X137526694Y-116745729D01*
X137631108Y-116731943D01*
X137741724Y-116716234D01*
X137858265Y-116698652D01*
X137980452Y-116679249D01*
X138108009Y-116658076D01*
X138240655Y-116635182D01*
X138378115Y-116610618D01*
X138520108Y-116584436D01*
X138666358Y-116556685D01*
X138816586Y-116527417D01*
X138970515Y-116496681D01*
X139127865Y-116464530D01*
X139288359Y-116431012D01*
X139451719Y-116396179D01*
X139617667Y-116360082D01*
X139645970Y-116353856D01*
X139677503Y-116346958D01*
X139707571Y-116340477D01*
X139735324Y-116334589D01*
X139759911Y-116329470D01*
X139780482Y-116325297D01*
X139796184Y-116322246D01*
X139806168Y-116320494D01*
X139808248Y-116320210D01*
X139835627Y-116320293D01*
X139864595Y-116325888D01*
X139893335Y-116336330D01*
X139920030Y-116350953D01*
X139942861Y-116369090D01*
X139943575Y-116369787D01*
X139954332Y-116382148D01*
X139967557Y-116400274D01*
X139982871Y-116423472D01*
X139999896Y-116451052D01*
X140018251Y-116482323D01*
X140037560Y-116516592D01*
X140057442Y-116553169D01*
X140077519Y-116591361D01*
X140097413Y-116630479D01*
X140116745Y-116669829D01*
X140135135Y-116708721D01*
X140152206Y-116746464D01*
X140160936Y-116766578D01*
X140188416Y-116835518D01*
X140210293Y-116900443D01*
X140226562Y-116961321D01*
X140237218Y-117018118D01*
X140242256Y-117070802D01*
X140241672Y-117119340D01*
X140235460Y-117163698D01*
X140224301Y-117202045D01*
X140214719Y-117222307D01*
X140201156Y-117244220D01*
X140185357Y-117265318D01*
X140169070Y-117283131D01*
X140163087Y-117288550D01*
X140147698Y-117300461D01*
X140131079Y-117310977D01*
X140112687Y-117320208D01*
X140091976Y-117328264D01*
X140068404Y-117335255D01*
X140041425Y-117341292D01*
X140010496Y-117346484D01*
X139975072Y-117350942D01*
X139934610Y-117354776D01*
X139888565Y-117358095D01*
X139836394Y-117361011D01*
X139795901Y-117362872D01*
X139776130Y-117363651D01*
X139750302Y-117364566D01*
X139719414Y-117365587D01*
X139684462Y-117366684D01*
X139646444Y-117367827D01*
X139606355Y-117368984D01*
X139565193Y-117370127D01*
X139523954Y-117371224D01*
X139503095Y-117371760D01*
X139397130Y-117374555D01*
X139297621Y-117377418D01*
X139203969Y-117380378D01*
X139115574Y-117383464D01*
X139031838Y-117386706D01*
X138952160Y-117390134D01*
X138875942Y-117393776D01*
X138802585Y-117397662D01*
X138731489Y-117401822D01*
X138662054Y-117406285D01*
X138593681Y-117411080D01*
X138525772Y-117416238D01*
X138457727Y-117421786D01*
X138421831Y-117424858D01*
X138269423Y-117439174D01*
X138122914Y-117455191D01*
X137981312Y-117473116D01*
X137843627Y-117493152D01*
X137708867Y-117515503D01*
X137576040Y-117540376D01*
X137444154Y-117567973D01*
X137312219Y-117598501D01*
X137179242Y-117632163D01*
X137044232Y-117669164D01*
X136906197Y-117709708D01*
X136764147Y-117754001D01*
X136656179Y-117789206D01*
X136599527Y-117808105D01*
X136547099Y-117825871D01*
X136498322Y-117842769D01*
X136452625Y-117859067D01*
X136409435Y-117875030D01*
X136368182Y-117890925D01*
X136328293Y-117907017D01*
X136289197Y-117923574D01*
X136250323Y-117940860D01*
X136211097Y-117959142D01*
X136170950Y-117978687D01*
X136129308Y-117999761D01*
X136085600Y-118022629D01*
X136039255Y-118047559D01*
X135989701Y-118074815D01*
X135936366Y-118104665D01*
X135878678Y-118137374D01*
X135816066Y-118173209D01*
X135751304Y-118210505D01*
X135701111Y-118239433D01*
X135656341Y-118265140D01*
X135616337Y-118287988D01*
X135580443Y-118308338D01*
X135548004Y-118326553D01*
X135518363Y-118342993D01*
X135490864Y-118358020D01*
X135464851Y-118371997D01*
X135439668Y-118385284D01*
X135414660Y-118398244D01*
X135389170Y-118411239D01*
X135366776Y-118422510D01*
X135301459Y-118454431D01*
X135240672Y-118482392D01*
X135183367Y-118506754D01*
X135128499Y-118527878D01*
X135075020Y-118546126D01*
X135021883Y-118561859D01*
X134968041Y-118575438D01*
X134912447Y-118587227D01*
X134864973Y-118595784D01*
X134805697Y-118605165D01*
X134751112Y-118612539D01*
X134699194Y-118618067D01*
X134647924Y-118621913D01*
X134595277Y-118624240D01*
X134539232Y-118625212D01*
X134500706Y-118625199D01*
X134474118Y-118624999D01*
X134449074Y-118624741D01*
X134426668Y-118624441D01*
X134407995Y-118624116D01*
X134394147Y-118623782D01*
X134386221Y-118623457D01*
X134386054Y-118623445D01*
X134295007Y-118614430D01*
X134205198Y-118600786D01*
X134117483Y-118582732D01*
X134032716Y-118560488D01*
X133951754Y-118534273D01*
X133875453Y-118504309D01*
X133817789Y-118477507D01*
X133731955Y-118430609D01*
X133648328Y-118377067D01*
X133566986Y-118316963D01*
X133488004Y-118250380D01*
X133411459Y-118177398D01*
X133337427Y-118098101D01*
X133265983Y-118012569D01*
X133197205Y-117920886D01*
X133131169Y-117823132D01*
X133067950Y-117719391D01*
X133007625Y-117609743D01*
X133003298Y-117601436D01*
X132966291Y-117526424D01*
X132931777Y-117448679D01*
X132899398Y-117367270D01*
X132868796Y-117281264D01*
X132839610Y-117189729D01*
X132823108Y-117133448D01*
X132815541Y-117106859D01*
X132569804Y-117007734D01*
X132530327Y-116991759D01*
X132492811Y-116976481D01*
X132457764Y-116962112D01*
X132425692Y-116948863D01*
X132397100Y-116936947D01*
X132372496Y-116926577D01*
X132352386Y-116917964D01*
X132337276Y-116911320D01*
X132327672Y-116906858D01*
X132324081Y-116904791D01*
X132324067Y-116904745D01*
X132326642Y-116901868D01*
X132334113Y-116894655D01*
X132346096Y-116883452D01*
X132362211Y-116868607D01*
X132382076Y-116850466D01*
X132405308Y-116829376D01*
X132431527Y-116805684D01*
X132460349Y-116779738D01*
X132491393Y-116751883D01*
X132524278Y-116722468D01*
X132549845Y-116699656D01*
X132775623Y-116498431D01*
X132790001Y-116458712D01*
X132818336Y-116388638D01*
X132851584Y-116321735D01*
X132890150Y-116257397D01*
X132934443Y-116195014D01*
X132984868Y-116133977D01*
X133041833Y-116073680D01*
X133058222Y-116057607D01*
X133125536Y-115997429D01*
X133198128Y-115941749D01*
X133275732Y-115890700D01*
X133358084Y-115844412D01*
X133444919Y-115803020D01*
X133535972Y-115766654D01*
X133630977Y-115735448D01*
X133729669Y-115709532D01*
X133775748Y-115699524D01*
X133820145Y-115690887D01*
X133859867Y-115684117D01*
X133896977Y-115678985D01*
X133933538Y-115675262D01*
X133971612Y-115672719D01*
X134013263Y-115671129D01*
X134036804Y-115670606D01*
X134083572Y-115670183D01*
X134125029Y-115670793D01*
X134125029Y-115670793D01*
G37*
X134125029Y-115670793D02*
X134162864Y-115672568D01*
X134198761Y-115675640D01*
X134234410Y-115680141D01*
X134271497Y-115686202D01*
X134296535Y-115690916D01*
X134333503Y-115698563D01*
X134368768Y-115706746D01*
X134403376Y-115715798D01*
X134438374Y-115726054D01*
X134474807Y-115737846D01*
X134513720Y-115751508D01*
X134556159Y-115767374D01*
X134603171Y-115785778D01*
X134638735Y-115800096D01*
X134685956Y-115819495D01*
X134733896Y-115839633D01*
X134782957Y-115860701D01*
X134833545Y-115882889D01*
X134886064Y-115906385D01*
X134940919Y-115931379D01*
X134998512Y-115958062D01*
X135059249Y-115986622D01*
X135123534Y-116017249D01*
X135191771Y-116050132D01*
X135264363Y-116085462D01*
X135341717Y-116123427D01*
X135424234Y-116164218D01*
X135512321Y-116208023D01*
X135570083Y-116236867D01*
X135651797Y-116277654D01*
X135727730Y-116315388D01*
X135798356Y-116350286D01*
X135864147Y-116382565D01*
X135925575Y-116412442D01*
X135983113Y-116440134D01*
X136037233Y-116465857D01*
X136088407Y-116489828D01*
X136137109Y-116512265D01*
X136183809Y-116533385D01*
X136228980Y-116553404D01*
X136273095Y-116572538D01*
X136316627Y-116591006D01*
X136360047Y-116609024D01*
X136403827Y-116626809D01*
X136448441Y-116644578D01*
X136494361Y-116662547D01*
X136511540Y-116669199D01*
X136535522Y-116678483D01*
X136557786Y-116687145D01*
X136577346Y-116694799D01*
X136593217Y-116701056D01*
X136604412Y-116705530D01*
X136609782Y-116707760D01*
X136619830Y-116712263D01*
X136604696Y-116731539D01*
X136592887Y-116745592D01*
X136576918Y-116763172D01*
X136557919Y-116783139D01*
X136537021Y-116804353D01*
X136515355Y-116825676D01*
X136494053Y-116845967D01*
X136474244Y-116864087D01*
X136465679Y-116871610D01*
X136390100Y-116932729D01*
X136308350Y-116990928D01*
X136220745Y-117046065D01*
X136127599Y-117097996D01*
X136029229Y-117146576D01*
X135925950Y-117191663D01*
X135818077Y-117233112D01*
X135705926Y-117270781D01*
X135589812Y-117304525D01*
X135470052Y-117334200D01*
X135430276Y-117342971D01*
X135371251Y-117355257D01*
X135317412Y-117365703D01*
X135267203Y-117374567D01*
X135219072Y-117382103D01*
X135171467Y-117388567D01*
X135122833Y-117394216D01*
X135112776Y-117395278D01*
X135092730Y-117396875D01*
X135067510Y-117398128D01*
X135038437Y-117399038D01*
X135006831Y-117399603D01*
X134974012Y-117399824D01*
X134941301Y-117399701D01*
X134910018Y-117399233D01*
X134881483Y-117398420D01*
X134857017Y-117397262D01*
X134837939Y-117395759D01*
X134834081Y-117395319D01*
X134763585Y-117384049D01*
X134698666Y-117368467D01*
X134639312Y-117348565D01*
X134585509Y-117324332D01*
X134537244Y-117295761D01*
X134494504Y-117262842D01*
X134457273Y-117225565D01*
X134425540Y-117183923D01*
X134399290Y-117137906D01*
X134379812Y-117091246D01*
X134370562Y-117063026D01*
X134363948Y-117037480D01*
X134359609Y-117012360D01*
X134357187Y-116985416D01*
X134356321Y-116954400D01*
X134356309Y-116944380D01*
X134356504Y-116887473D01*
X134333539Y-116885120D01*
X134310575Y-116882768D01*
X134260817Y-116916700D01*
X134261259Y-116966049D01*
X134265244Y-117024280D01*
X134276025Y-117081031D01*
X134293425Y-117135885D01*
X134317265Y-117188422D01*
X134347367Y-117238226D01*
X134383552Y-117284878D01*
X134408772Y-117311845D01*
X134449408Y-117348690D01*
X134493138Y-117381061D01*
X134540470Y-117409181D01*
X134591909Y-117433274D01*
X134647964Y-117453563D01*
X134709141Y-117470274D01*
X134775946Y-117483628D01*
X134809387Y-117488803D01*
X134830453Y-117491079D01*
X134857301Y-117492875D01*
X134888673Y-117494190D01*
X134923313Y-117495024D01*
X134959964Y-117495378D01*
X134997367Y-117495252D01*
X135034267Y-117494646D01*
X135069405Y-117493560D01*
X135101524Y-117491993D01*
X135129368Y-117489947D01*
X135140998Y-117488778D01*
X135255245Y-117473605D01*
X135370377Y-117453745D01*
X135485522Y-117429460D01*
X135599807Y-117401011D01*
X135712357Y-117368659D01*
X135822301Y-117332665D01*
X135928764Y-117293290D01*
X136030874Y-117250796D01*
X136127758Y-117205444D01*
X136182606Y-117177188D01*
X136265716Y-117130441D01*
X136344656Y-117081321D01*
X136418979Y-117030177D01*
X136488239Y-116977358D01*
X136551991Y-116923212D01*
X136609789Y-116868087D01*
X136661186Y-116812333D01*
X136682878Y-116786170D01*
X136697587Y-116768262D01*
X136708645Y-116755949D01*
X136716319Y-116748957D01*
X136720876Y-116747012D01*
X136721104Y-116747063D01*
X136735680Y-116750702D01*
X136756127Y-116754829D01*
X136781294Y-116759278D01*
X136810027Y-116763883D01*
X136841172Y-116768477D01*
X136873577Y-116772894D01*
X136906089Y-116776966D01*
X136937554Y-116780527D01*
X136966819Y-116783410D01*
X136980734Y-116784583D01*
X137010994Y-116786320D01*
X137044507Y-116787001D01*
X137081719Y-116786599D01*
X137123073Y-116785088D01*
X137169015Y-116782440D01*
X137219989Y-116778628D01*
X137276439Y-116773627D01*
X137338810Y-116767409D01*
X137407546Y-116759946D01*
X137428762Y-116757543D01*
X137526694Y-116745729D01*
X137631108Y-116731943D01*
X137741724Y-116716234D01*
X137858265Y-116698652D01*
X137980452Y-116679249D01*
X138108009Y-116658076D01*
X138240655Y-116635182D01*
X138378115Y-116610618D01*
X138520108Y-116584436D01*
X138666358Y-116556685D01*
X138816586Y-116527417D01*
X138970515Y-116496681D01*
X139127865Y-116464530D01*
X139288359Y-116431012D01*
X139451719Y-116396179D01*
X139617667Y-116360082D01*
X139645970Y-116353856D01*
X139677503Y-116346958D01*
X139707571Y-116340477D01*
X139735324Y-116334589D01*
X139759911Y-116329470D01*
X139780482Y-116325297D01*
X139796184Y-116322246D01*
X139806168Y-116320494D01*
X139808248Y-116320210D01*
X139835627Y-116320293D01*
X139864595Y-116325888D01*
X139893335Y-116336330D01*
X139920030Y-116350953D01*
X139942861Y-116369090D01*
X139943575Y-116369787D01*
X139954332Y-116382148D01*
X139967557Y-116400274D01*
X139982871Y-116423472D01*
X139999896Y-116451052D01*
X140018251Y-116482323D01*
X140037560Y-116516592D01*
X140057442Y-116553169D01*
X140077519Y-116591361D01*
X140097413Y-116630479D01*
X140116745Y-116669829D01*
X140135135Y-116708721D01*
X140152206Y-116746464D01*
X140160936Y-116766578D01*
X140188416Y-116835518D01*
X140210293Y-116900443D01*
X140226562Y-116961321D01*
X140237218Y-117018118D01*
X140242256Y-117070802D01*
X140241672Y-117119340D01*
X140235460Y-117163698D01*
X140224301Y-117202045D01*
X140214719Y-117222307D01*
X140201156Y-117244220D01*
X140185357Y-117265318D01*
X140169070Y-117283131D01*
X140163087Y-117288550D01*
X140147698Y-117300461D01*
X140131079Y-117310977D01*
X140112687Y-117320208D01*
X140091976Y-117328264D01*
X140068404Y-117335255D01*
X140041425Y-117341292D01*
X140010496Y-117346484D01*
X139975072Y-117350942D01*
X139934610Y-117354776D01*
X139888565Y-117358095D01*
X139836394Y-117361011D01*
X139795901Y-117362872D01*
X139776130Y-117363651D01*
X139750302Y-117364566D01*
X139719414Y-117365587D01*
X139684462Y-117366684D01*
X139646444Y-117367827D01*
X139606355Y-117368984D01*
X139565193Y-117370127D01*
X139523954Y-117371224D01*
X139503095Y-117371760D01*
X139397130Y-117374555D01*
X139297621Y-117377418D01*
X139203969Y-117380378D01*
X139115574Y-117383464D01*
X139031838Y-117386706D01*
X138952160Y-117390134D01*
X138875942Y-117393776D01*
X138802585Y-117397662D01*
X138731489Y-117401822D01*
X138662054Y-117406285D01*
X138593681Y-117411080D01*
X138525772Y-117416238D01*
X138457727Y-117421786D01*
X138421831Y-117424858D01*
X138269423Y-117439174D01*
X138122914Y-117455191D01*
X137981312Y-117473116D01*
X137843627Y-117493152D01*
X137708867Y-117515503D01*
X137576040Y-117540376D01*
X137444154Y-117567973D01*
X137312219Y-117598501D01*
X137179242Y-117632163D01*
X137044232Y-117669164D01*
X136906197Y-117709708D01*
X136764147Y-117754001D01*
X136656179Y-117789206D01*
X136599527Y-117808105D01*
X136547099Y-117825871D01*
X136498322Y-117842769D01*
X136452625Y-117859067D01*
X136409435Y-117875030D01*
X136368182Y-117890925D01*
X136328293Y-117907017D01*
X136289197Y-117923574D01*
X136250323Y-117940860D01*
X136211097Y-117959142D01*
X136170950Y-117978687D01*
X136129308Y-117999761D01*
X136085600Y-118022629D01*
X136039255Y-118047559D01*
X135989701Y-118074815D01*
X135936366Y-118104665D01*
X135878678Y-118137374D01*
X135816066Y-118173209D01*
X135751304Y-118210505D01*
X135701111Y-118239433D01*
X135656341Y-118265140D01*
X135616337Y-118287988D01*
X135580443Y-118308338D01*
X135548004Y-118326553D01*
X135518363Y-118342993D01*
X135490864Y-118358020D01*
X135464851Y-118371997D01*
X135439668Y-118385284D01*
X135414660Y-118398244D01*
X135389170Y-118411239D01*
X135366776Y-118422510D01*
X135301459Y-118454431D01*
X135240672Y-118482392D01*
X135183367Y-118506754D01*
X135128499Y-118527878D01*
X135075020Y-118546126D01*
X135021883Y-118561859D01*
X134968041Y-118575438D01*
X134912447Y-118587227D01*
X134864973Y-118595784D01*
X134805697Y-118605165D01*
X134751112Y-118612539D01*
X134699194Y-118618067D01*
X134647924Y-118621913D01*
X134595277Y-118624240D01*
X134539232Y-118625212D01*
X134500706Y-118625199D01*
X134474118Y-118624999D01*
X134449074Y-118624741D01*
X134426668Y-118624441D01*
X134407995Y-118624116D01*
X134394147Y-118623782D01*
X134386221Y-118623457D01*
X134386054Y-118623445D01*
X134295007Y-118614430D01*
X134205198Y-118600786D01*
X134117483Y-118582732D01*
X134032716Y-118560488D01*
X133951754Y-118534273D01*
X133875453Y-118504309D01*
X133817789Y-118477507D01*
X133731955Y-118430609D01*
X133648328Y-118377067D01*
X133566986Y-118316963D01*
X133488004Y-118250380D01*
X133411459Y-118177398D01*
X133337427Y-118098101D01*
X133265983Y-118012569D01*
X133197205Y-117920886D01*
X133131169Y-117823132D01*
X133067950Y-117719391D01*
X133007625Y-117609743D01*
X133003298Y-117601436D01*
X132966291Y-117526424D01*
X132931777Y-117448679D01*
X132899398Y-117367270D01*
X132868796Y-117281264D01*
X132839610Y-117189729D01*
X132823108Y-117133448D01*
X132815541Y-117106859D01*
X132569804Y-117007734D01*
X132530327Y-116991759D01*
X132492811Y-116976481D01*
X132457764Y-116962112D01*
X132425692Y-116948863D01*
X132397100Y-116936947D01*
X132372496Y-116926577D01*
X132352386Y-116917964D01*
X132337276Y-116911320D01*
X132327672Y-116906858D01*
X132324081Y-116904791D01*
X132324067Y-116904745D01*
X132326642Y-116901868D01*
X132334113Y-116894655D01*
X132346096Y-116883452D01*
X132362211Y-116868607D01*
X132382076Y-116850466D01*
X132405308Y-116829376D01*
X132431527Y-116805684D01*
X132460349Y-116779738D01*
X132491393Y-116751883D01*
X132524278Y-116722468D01*
X132549845Y-116699656D01*
X132775623Y-116498431D01*
X132790001Y-116458712D01*
X132818336Y-116388638D01*
X132851584Y-116321735D01*
X132890150Y-116257397D01*
X132934443Y-116195014D01*
X132984868Y-116133977D01*
X133041833Y-116073680D01*
X133058222Y-116057607D01*
X133125536Y-115997429D01*
X133198128Y-115941749D01*
X133275732Y-115890700D01*
X133358084Y-115844412D01*
X133444919Y-115803020D01*
X133535972Y-115766654D01*
X133630977Y-115735448D01*
X133729669Y-115709532D01*
X133775748Y-115699524D01*
X133820145Y-115690887D01*
X133859867Y-115684117D01*
X133896977Y-115678985D01*
X133933538Y-115675262D01*
X133971612Y-115672719D01*
X134013263Y-115671129D01*
X134036804Y-115670606D01*
X134083572Y-115670183D01*
X134125029Y-115670793D01*
D12*
X135010000Y-94490000D03*
X160940000Y-121520000D03*
D13*
X131570000Y-112820000D03*
D14*
X131570000Y-110280000D03*
D13*
X131570000Y-107740000D03*
D14*
X131570000Y-105200000D03*
D13*
X131570000Y-102660000D03*
X134550000Y-103700000D03*
D14*
X134550000Y-106240000D03*
D13*
X134550000Y-108780000D03*
D14*
X134550000Y-111320000D03*
D15*
X158461920Y-94250000D03*
X158461920Y-93599760D03*
X158461920Y-92949520D03*
X155800000Y-92949520D03*
X155800000Y-93599760D03*
X155800000Y-94250000D03*
X164300000Y-98250000D03*
X164300000Y-97599760D03*
X164300000Y-96949520D03*
X161638080Y-96949520D03*
X161638080Y-97599760D03*
X161638080Y-98250000D03*
X158611920Y-96700000D03*
X158611920Y-96049760D03*
X158611920Y-95399520D03*
X155950000Y-95399520D03*
X155950000Y-96049760D03*
X155950000Y-96700000D03*
D16*
X152250000Y-105850000D03*
X152250000Y-109850000D03*
D17*
X157800000Y-123500700D03*
X157800000Y-124999300D03*
D18*
X156050000Y-124750000D03*
X156050000Y-122550000D03*
D19*
X147350000Y-113890000D03*
D20*
X144810000Y-113890000D03*
X142270000Y-113890000D03*
X139730000Y-113890000D03*
X137190000Y-113890000D03*
X134650000Y-113890000D03*
D19*
X147400000Y-101200000D03*
D20*
X144860000Y-101200000D03*
X142320000Y-101200000D03*
X139780000Y-101200000D03*
X137240000Y-101200000D03*
D19*
X134700000Y-101200000D03*
D21*
X147400000Y-109140000D03*
D22*
X147400000Y-106600000D03*
D23*
X161190000Y-100200000D03*
X161190000Y-100600000D03*
X161190000Y-101000000D03*
X161190000Y-101400000D03*
X161190000Y-101800000D03*
X161190000Y-102200000D03*
X161190000Y-102600000D03*
X161190000Y-103000000D03*
X161190000Y-103400000D03*
X161190000Y-103800000D03*
X161190000Y-107800000D03*
X161190000Y-107400000D03*
X161190000Y-107000000D03*
X161190000Y-106600000D03*
X161190000Y-106200000D03*
X161190000Y-105800000D03*
X161190000Y-105400000D03*
X161190000Y-105000000D03*
X161190000Y-104600000D03*
X161190000Y-104200000D03*
X161190000Y-108200000D03*
X161190000Y-108600000D03*
X161190000Y-109000000D03*
X161190000Y-109400000D03*
X161190000Y-109800000D03*
X161190000Y-110200000D03*
X161190000Y-110600000D03*
X161190000Y-111000000D03*
X161190000Y-111400000D03*
X161190000Y-111800000D03*
X161190000Y-115800000D03*
X161190000Y-115400000D03*
X161190000Y-115000000D03*
X161190000Y-114600000D03*
X161190000Y-114200000D03*
X161190000Y-113800000D03*
X161190000Y-113400000D03*
X161190000Y-113000000D03*
X161190000Y-112600000D03*
X161190000Y-112200000D03*
X158110000Y-112200000D03*
X158110000Y-112600000D03*
X158110000Y-113000000D03*
X158110000Y-113400000D03*
X158110000Y-113800000D03*
X158110000Y-114200000D03*
X158110000Y-114600000D03*
X158110000Y-115000000D03*
X158110000Y-115400000D03*
X158110000Y-115800000D03*
X158110000Y-111800000D03*
X158110000Y-111400000D03*
X158110000Y-111000000D03*
X158110000Y-110600000D03*
X158110000Y-110200000D03*
X158110000Y-109800000D03*
X158110000Y-109400000D03*
X158110000Y-109000000D03*
X158110000Y-108600000D03*
X158110000Y-108200000D03*
X158110000Y-104200000D03*
X158110000Y-104600000D03*
X158110000Y-105000000D03*
X158110000Y-105400000D03*
X158110000Y-105800000D03*
X158110000Y-106200000D03*
X158110000Y-106600000D03*
X158110000Y-107000000D03*
X158110000Y-107400000D03*
X158110000Y-107800000D03*
X158110000Y-103800000D03*
X158110000Y-103400000D03*
X158110000Y-103000000D03*
X158110000Y-102600000D03*
X158110000Y-102200000D03*
X158110000Y-101800000D03*
X158110000Y-101400000D03*
X158110000Y-101000000D03*
X158110000Y-100600000D03*
X158110000Y-100200000D03*
D19*
X150745000Y-124450000D03*
D20*
X148205000Y-124450000D03*
X145665000Y-124450000D03*
X143125000Y-124450000D03*
X140585000Y-124450000D03*
X138045000Y-124450000D03*
D24*
X151960760Y-118940000D03*
X151960760Y-117040000D03*
X149961780Y-117990000D03*
D25*
X145660000Y-117140000D03*
X147860000Y-117140000D03*
D18*
X153470000Y-118810000D03*
X153470000Y-121010000D03*
D25*
X152510000Y-103600000D03*
X150310000Y-103600000D03*
D26*
X148790000Y-120190000D03*
X147390000Y-120190000D03*
D12*
X135450000Y-122570000D03*
M02*
