G04 #@! TF.FileFunction,Copper,L1,Top,Signal*
%FSLAX46Y46*%
G04 Gerber Fmt 4.6, Leading zero omitted, Abs format (unit mm)*
G04 Created by KiCad (PCBNEW 4.0.1-stable) date Thursday, February 04, 2016 'PMt' 11:12:06 PM*
%MOMM*%
G01*
G04 APERTURE LIST*
%ADD10C,0.100000*%
%ADD11C,0.010000*%
%ADD12O,2.032000X1.727200*%
%ADD13R,2.032000X1.727200*%
%ADD14R,1.501140X0.398780*%
%ADD15R,1.600000X2.000000*%
%ADD16R,0.797560X0.797560*%
%ADD17R,0.900000X1.200000*%
%ADD18R,1.727200X2.032000*%
%ADD19O,1.727200X2.032000*%
%ADD20R,2.032000X2.032000*%
%ADD21O,2.032000X2.032000*%
%ADD22R,0.700000X0.200000*%
%ADD23C,0.685800*%
%ADD24C,0.685801*%
%ADD25C,0.152400*%
%ADD26C,0.254000*%
G04 APERTURE END LIST*
D10*
D11*
G36*
X134433421Y-115672759D02*
X134465092Y-115673262D01*
X134492723Y-115674311D01*
X134517822Y-115676030D01*
X134541891Y-115678541D01*
X134566437Y-115681966D01*
X134592965Y-115686430D01*
X134614929Y-115690505D01*
X134673784Y-115703268D01*
X134734881Y-115719335D01*
X134795334Y-115737872D01*
X134852258Y-115758044D01*
X134863637Y-115762467D01*
X134906815Y-115779660D01*
X134949190Y-115796798D01*
X134991148Y-115814060D01*
X135033078Y-115831627D01*
X135075367Y-115849679D01*
X135118402Y-115868397D01*
X135162571Y-115887961D01*
X135208263Y-115908552D01*
X135255864Y-115930349D01*
X135305762Y-115953534D01*
X135358345Y-115978287D01*
X135414001Y-116004789D01*
X135473116Y-116033218D01*
X135536080Y-116063757D01*
X135603278Y-116096586D01*
X135675100Y-116131884D01*
X135751933Y-116169833D01*
X135834164Y-116210613D01*
X135922181Y-116254404D01*
X135944901Y-116265727D01*
X136023181Y-116304671D01*
X136095700Y-116340570D01*
X136162947Y-116373651D01*
X136225413Y-116404138D01*
X136283587Y-116432257D01*
X136337960Y-116458235D01*
X136389022Y-116482296D01*
X136437263Y-116504668D01*
X136483173Y-116525575D01*
X136527242Y-116545243D01*
X136569960Y-116563898D01*
X136611817Y-116581766D01*
X136653304Y-116599072D01*
X136694910Y-116616043D01*
X136737126Y-116632903D01*
X136770401Y-116645971D01*
X136793924Y-116655208D01*
X136815317Y-116663727D01*
X136833686Y-116671163D01*
X136848141Y-116677150D01*
X136857789Y-116681325D01*
X136861730Y-116683314D01*
X136861197Y-116687409D01*
X136855985Y-116695427D01*
X136846737Y-116706658D01*
X136834098Y-116720394D01*
X136818710Y-116735926D01*
X136801217Y-116752545D01*
X136788176Y-116764347D01*
X136720197Y-116820448D01*
X136645762Y-116873943D01*
X136564992Y-116924776D01*
X136478009Y-116972890D01*
X136384936Y-117018228D01*
X136285895Y-117060733D01*
X136181007Y-117100348D01*
X136070396Y-117137017D01*
X135954183Y-117170682D01*
X135867290Y-117192986D01*
X135766695Y-117216228D01*
X135671707Y-117235557D01*
X135582079Y-117250993D01*
X135497559Y-117262558D01*
X135417899Y-117270270D01*
X135342849Y-117274152D01*
X135272161Y-117274225D01*
X135205585Y-117270508D01*
X135142872Y-117263022D01*
X135105080Y-117256350D01*
X135044448Y-117241438D01*
X134989092Y-117222057D01*
X134939084Y-117198280D01*
X134894497Y-117170181D01*
X134855402Y-117137832D01*
X134821871Y-117101307D01*
X134793977Y-117060678D01*
X134771793Y-117016019D01*
X134755390Y-116967403D01*
X134744840Y-116914904D01*
X134741901Y-116888630D01*
X134741083Y-116877523D01*
X134740147Y-116869388D01*
X134738109Y-116863684D01*
X134733989Y-116859868D01*
X134726804Y-116857400D01*
X134715573Y-116855736D01*
X134699313Y-116854336D01*
X134677043Y-116852657D01*
X134676665Y-116852627D01*
X134649113Y-116850400D01*
X134627942Y-116848506D01*
X134612489Y-116846856D01*
X134602092Y-116845363D01*
X134596088Y-116843939D01*
X134593815Y-116842497D01*
X134593916Y-116841664D01*
X134591971Y-116840355D01*
X134585137Y-116840130D01*
X134575466Y-116840804D01*
X134565008Y-116842187D01*
X134555815Y-116844093D01*
X134551429Y-116845549D01*
X134545921Y-116847066D01*
X134534614Y-116849526D01*
X134518667Y-116852698D01*
X134499239Y-116856355D01*
X134477487Y-116860268D01*
X134472054Y-116861219D01*
X134390568Y-116874726D01*
X134313152Y-116886099D01*
X134237264Y-116895677D01*
X134160365Y-116903799D01*
X134136915Y-116905984D01*
X134114485Y-116907578D01*
X134087279Y-116908811D01*
X134056650Y-116909683D01*
X134023949Y-116910194D01*
X133990527Y-116910342D01*
X133957736Y-116910128D01*
X133926928Y-116909551D01*
X133899453Y-116908610D01*
X133876664Y-116907305D01*
X133863512Y-116906092D01*
X133790684Y-116896437D01*
X133719827Y-116884550D01*
X133649066Y-116870039D01*
X133576525Y-116852512D01*
X133500329Y-116831580D01*
X133484855Y-116827058D01*
X133462241Y-116820265D01*
X133445575Y-116814912D01*
X133433980Y-116810649D01*
X133426576Y-116807128D01*
X133422488Y-116803999D01*
X133421055Y-116801658D01*
X133420089Y-116796545D01*
X133418507Y-116785251D01*
X133416408Y-116768615D01*
X133413893Y-116747473D01*
X133411061Y-116722665D01*
X133408011Y-116695028D01*
X133404916Y-116666082D01*
X133401319Y-116632089D01*
X133398433Y-116604447D01*
X133396310Y-116582481D01*
X133394999Y-116565520D01*
X133394551Y-116552888D01*
X133395016Y-116543913D01*
X133396445Y-116537920D01*
X133398888Y-116534237D01*
X133402395Y-116532189D01*
X133407016Y-116531103D01*
X133412803Y-116530305D01*
X133415089Y-116529973D01*
X133426335Y-116527944D01*
X133443387Y-116524487D01*
X133465191Y-116519841D01*
X133490698Y-116514245D01*
X133518856Y-116507939D01*
X133548613Y-116501161D01*
X133578919Y-116494151D01*
X133608723Y-116487147D01*
X133636973Y-116480390D01*
X133662618Y-116474117D01*
X133681831Y-116469283D01*
X133784460Y-116441924D01*
X133880451Y-116414087D01*
X133970211Y-116385635D01*
X134054151Y-116356432D01*
X134132678Y-116326340D01*
X134206201Y-116295224D01*
X134218054Y-116289903D01*
X134288728Y-116255450D01*
X134360698Y-116215712D01*
X134432244Y-116171782D01*
X134501646Y-116124756D01*
X134567188Y-116075727D01*
X134611401Y-116039476D01*
X134629063Y-116024113D01*
X134647396Y-116007702D01*
X134665682Y-115990934D01*
X134683204Y-115974500D01*
X134699247Y-115959091D01*
X134713093Y-115945399D01*
X134724025Y-115934114D01*
X134731327Y-115925928D01*
X134734281Y-115921531D01*
X134734217Y-115921058D01*
X134728112Y-115917809D01*
X134716135Y-115913487D01*
X134699345Y-115908353D01*
X134678799Y-115902670D01*
X134655554Y-115896701D01*
X134630668Y-115890709D01*
X134605197Y-115884955D01*
X134580199Y-115879703D01*
X134556730Y-115875216D01*
X134535850Y-115871755D01*
X134535554Y-115871711D01*
X134480511Y-115865167D01*
X134426177Y-115862113D01*
X134371037Y-115862583D01*
X134313579Y-115866613D01*
X134252287Y-115874238D01*
X134222459Y-115878951D01*
X134129202Y-115897540D01*
X134039769Y-115921397D01*
X133954375Y-115950415D01*
X133873232Y-115984487D01*
X133796555Y-116023508D01*
X133724556Y-116067371D01*
X133657449Y-116115970D01*
X133595447Y-116169199D01*
X133551947Y-116212605D01*
X133509572Y-116261246D01*
X133471534Y-116312023D01*
X133438491Y-116363920D01*
X133411103Y-116415920D01*
X133393654Y-116457045D01*
X133388678Y-116469459D01*
X133384054Y-116479627D01*
X133380787Y-116485342D01*
X133377530Y-116488648D01*
X133369629Y-116496360D01*
X133357559Y-116508024D01*
X133341791Y-116523186D01*
X133322799Y-116541394D01*
X133301055Y-116562194D01*
X133277032Y-116585132D01*
X133251203Y-116609755D01*
X133232040Y-116627999D01*
X133205339Y-116653427D01*
X133180206Y-116677402D01*
X133157102Y-116699484D01*
X133136484Y-116719230D01*
X133118811Y-116736203D01*
X133104543Y-116749960D01*
X133094137Y-116760061D01*
X133088053Y-116766066D01*
X133086605Y-116767612D01*
X133089570Y-116769389D01*
X133098382Y-116773742D01*
X133112434Y-116780391D01*
X133131121Y-116789058D01*
X133153834Y-116799463D01*
X133179970Y-116811327D01*
X133208921Y-116824373D01*
X133240081Y-116838320D01*
X133247466Y-116841613D01*
X133409124Y-116913632D01*
X133425979Y-116973904D01*
X133434092Y-117001889D01*
X133443939Y-117034224D01*
X133454914Y-117069037D01*
X133466409Y-117104452D01*
X133477815Y-117138597D01*
X133488525Y-117169597D01*
X133497509Y-117194447D01*
X133502957Y-117208133D01*
X133507477Y-117216607D01*
X133512134Y-117221423D01*
X133517828Y-117224082D01*
X133525130Y-117225248D01*
X133538451Y-117226186D01*
X133556758Y-117226899D01*
X133579018Y-117227387D01*
X133604199Y-117227655D01*
X133631267Y-117227703D01*
X133659190Y-117227535D01*
X133686935Y-117227151D01*
X133713470Y-117226556D01*
X133737761Y-117225750D01*
X133758775Y-117224736D01*
X133775317Y-117223531D01*
X133938259Y-117205902D01*
X134038137Y-117192528D01*
X134080857Y-117186090D01*
X134117676Y-117179790D01*
X134149732Y-117173314D01*
X134178165Y-117166351D01*
X134204114Y-117158589D01*
X134228719Y-117149715D01*
X134253120Y-117139417D01*
X134278455Y-117127384D01*
X134281554Y-117125837D01*
X134337113Y-117094503D01*
X134391662Y-117056901D01*
X134444231Y-117013818D01*
X134493850Y-116966043D01*
X134534312Y-116920732D01*
X134552345Y-116899009D01*
X134554746Y-116924259D01*
X134561773Y-116971681D01*
X134573679Y-117020858D01*
X134589800Y-117069914D01*
X134609475Y-117116972D01*
X134632040Y-117160153D01*
X134645717Y-117181979D01*
X134683338Y-117231696D01*
X134726139Y-117276693D01*
X134774035Y-117316941D01*
X134826935Y-117352413D01*
X134884755Y-117383079D01*
X134947404Y-117408913D01*
X135014797Y-117429887D01*
X135086846Y-117445972D01*
X135163463Y-117457141D01*
X135244560Y-117463366D01*
X135330051Y-117464619D01*
X135419846Y-117460872D01*
X135498637Y-117453829D01*
X135571780Y-117444512D01*
X135649873Y-117432199D01*
X135731619Y-117417171D01*
X135815722Y-117399714D01*
X135900885Y-117380108D01*
X135985811Y-117358639D01*
X136069203Y-117335589D01*
X136145984Y-117312435D01*
X136243458Y-117279802D01*
X136337784Y-117244360D01*
X136428611Y-117206319D01*
X136515590Y-117165893D01*
X136598370Y-117123290D01*
X136676602Y-117078724D01*
X136749935Y-117032404D01*
X136818019Y-116984543D01*
X136880504Y-116935351D01*
X136937039Y-116885040D01*
X136987276Y-116833821D01*
X137030863Y-116781905D01*
X137035514Y-116775793D01*
X137045130Y-116763366D01*
X137051890Y-116755794D01*
X137056927Y-116752112D01*
X137061375Y-116751354D01*
X137063724Y-116751769D01*
X137083161Y-116756078D01*
X137108238Y-116760760D01*
X137137566Y-116765612D01*
X137169755Y-116770427D01*
X137203413Y-116775003D01*
X137237150Y-116779133D01*
X137269576Y-116782613D01*
X137280165Y-116783622D01*
X137311903Y-116786152D01*
X137343886Y-116787874D01*
X137376789Y-116788757D01*
X137411288Y-116788770D01*
X137448058Y-116787884D01*
X137487773Y-116786067D01*
X137531111Y-116783289D01*
X137578744Y-116779519D01*
X137631350Y-116774727D01*
X137689603Y-116768882D01*
X137751123Y-116762290D01*
X137840163Y-116751927D01*
X137935637Y-116739708D01*
X138037191Y-116725697D01*
X138144467Y-116709959D01*
X138257113Y-116692558D01*
X138374772Y-116673557D01*
X138497089Y-116653022D01*
X138623710Y-116631016D01*
X138754278Y-116607604D01*
X138888439Y-116582850D01*
X139025838Y-116556818D01*
X139166119Y-116529572D01*
X139308928Y-116501176D01*
X139453909Y-116471696D01*
X139600707Y-116441195D01*
X139748967Y-116409736D01*
X139898333Y-116377386D01*
X139985970Y-116358098D01*
X140030464Y-116348244D01*
X140068682Y-116339957D01*
X140101256Y-116333370D01*
X140128821Y-116328618D01*
X140152009Y-116325836D01*
X140171453Y-116325158D01*
X140187786Y-116326718D01*
X140201640Y-116330652D01*
X140213650Y-116337094D01*
X140224447Y-116346178D01*
X140234665Y-116358038D01*
X140244936Y-116372810D01*
X140255894Y-116390628D01*
X140268172Y-116411626D01*
X140272451Y-116418985D01*
X140309720Y-116484762D01*
X140344652Y-116550012D01*
X140376853Y-116613904D01*
X140405927Y-116675605D01*
X140431479Y-116734284D01*
X140453115Y-116789109D01*
X140466980Y-116828549D01*
X140482440Y-116880962D01*
X140493156Y-116929874D01*
X140499156Y-116975057D01*
X140500467Y-117016284D01*
X140497117Y-117053325D01*
X140489132Y-117085952D01*
X140476541Y-117113937D01*
X140459370Y-117137052D01*
X140437647Y-117155068D01*
X140427122Y-117161085D01*
X140416989Y-117165844D01*
X140405939Y-117170214D01*
X140393613Y-117174223D01*
X140379655Y-117177899D01*
X140363707Y-117181271D01*
X140345411Y-117184367D01*
X140324412Y-117187214D01*
X140300350Y-117189842D01*
X140272870Y-117192277D01*
X140241613Y-117194549D01*
X140206223Y-117196685D01*
X140166341Y-117198713D01*
X140121611Y-117200663D01*
X140071675Y-117202561D01*
X140016176Y-117204436D01*
X139954757Y-117206316D01*
X139887060Y-117208230D01*
X139812729Y-117210205D01*
X139798998Y-117210559D01*
X139676921Y-117213897D01*
X139561342Y-117217476D01*
X139451705Y-117221329D01*
X139347454Y-117225484D01*
X139248035Y-117229974D01*
X139152893Y-117234828D01*
X139061472Y-117240078D01*
X138973217Y-117245754D01*
X138887572Y-117251886D01*
X138803983Y-117258506D01*
X138721895Y-117265644D01*
X138640752Y-117273330D01*
X138613665Y-117276035D01*
X138484965Y-117289867D01*
X138360500Y-117304963D01*
X138239521Y-117321495D01*
X138121279Y-117339631D01*
X138005026Y-117359541D01*
X137890014Y-117381395D01*
X137775494Y-117405361D01*
X137660719Y-117431610D01*
X137544939Y-117460310D01*
X137427406Y-117491632D01*
X137307371Y-117525744D01*
X137184088Y-117562817D01*
X137056806Y-117603019D01*
X136924778Y-117646520D01*
X136819790Y-117682241D01*
X136769930Y-117699749D01*
X136722398Y-117717175D01*
X136676525Y-117734840D01*
X136631641Y-117753064D01*
X136587078Y-117772166D01*
X136542165Y-117792469D01*
X136496233Y-117814291D01*
X136448613Y-117837953D01*
X136398635Y-117863775D01*
X136345631Y-117892078D01*
X136288930Y-117923182D01*
X136227863Y-117957407D01*
X136161761Y-117995074D01*
X136140692Y-118007183D01*
X136082071Y-118040913D01*
X136029100Y-118071341D01*
X135981332Y-118098715D01*
X135938319Y-118123281D01*
X135899614Y-118145286D01*
X135864769Y-118164977D01*
X135833336Y-118182600D01*
X135804868Y-118198404D01*
X135778917Y-118212634D01*
X135755035Y-118225538D01*
X135732775Y-118237362D01*
X135711690Y-118248354D01*
X135691330Y-118258760D01*
X135671250Y-118268828D01*
X135651001Y-118278803D01*
X135630136Y-118288934D01*
X135628304Y-118289818D01*
X135560865Y-118321255D01*
X135497248Y-118348509D01*
X135436080Y-118371972D01*
X135375990Y-118392035D01*
X135315607Y-118409092D01*
X135253558Y-118423534D01*
X135188472Y-118435754D01*
X135118976Y-118446144D01*
X135054137Y-118453969D01*
X135013150Y-118457729D01*
X134967204Y-118460689D01*
X134918356Y-118462795D01*
X134868661Y-118463991D01*
X134820177Y-118464222D01*
X134774960Y-118463434D01*
X134745456Y-118462198D01*
X134665910Y-118455555D01*
X134585454Y-118444433D01*
X134505276Y-118429133D01*
X134426565Y-118409953D01*
X134350509Y-118387191D01*
X134278296Y-118361146D01*
X134211114Y-118332117D01*
X134193006Y-118323315D01*
X134112026Y-118279062D01*
X134032804Y-118228098D01*
X133955480Y-118170583D01*
X133880193Y-118106673D01*
X133807084Y-118036526D01*
X133736293Y-117960300D01*
X133667958Y-117878153D01*
X133602221Y-117790242D01*
X133539220Y-117696726D01*
X133479095Y-117597760D01*
X133421987Y-117493504D01*
X133376895Y-117402891D01*
X133358557Y-117362977D01*
X133340935Y-117321612D01*
X133323524Y-117277504D01*
X133305817Y-117229362D01*
X133287308Y-117175894D01*
X133282963Y-117162940D01*
X133275294Y-117139494D01*
X133267191Y-117113904D01*
X133259006Y-117087363D01*
X133251091Y-117061063D01*
X133243799Y-117036198D01*
X133237483Y-117013959D01*
X133232494Y-116995538D01*
X133229185Y-116982130D01*
X133228376Y-116978248D01*
X133226207Y-116966686D01*
X133021593Y-116884118D01*
X132985613Y-116869573D01*
X132951605Y-116855775D01*
X132920130Y-116842956D01*
X132891746Y-116831344D01*
X132867012Y-116821170D01*
X132846488Y-116812664D01*
X132830732Y-116806057D01*
X132820305Y-116801579D01*
X132815766Y-116799459D01*
X132815617Y-116799346D01*
X132817958Y-116796696D01*
X132825160Y-116789740D01*
X132836810Y-116778853D01*
X132852493Y-116764414D01*
X132871795Y-116746798D01*
X132894302Y-116726384D01*
X132919599Y-116703549D01*
X132947272Y-116678669D01*
X132976907Y-116652122D01*
X133002284Y-116629459D01*
X133038300Y-116597330D01*
X133069414Y-116569536D01*
X133095996Y-116545723D01*
X133118413Y-116525538D01*
X133137036Y-116508625D01*
X133152233Y-116494632D01*
X133164374Y-116483203D01*
X133173828Y-116473984D01*
X133180963Y-116466621D01*
X133186150Y-116460761D01*
X133189757Y-116456048D01*
X133192154Y-116452129D01*
X133193710Y-116448649D01*
X133194793Y-116445255D01*
X133194977Y-116444587D01*
X133201386Y-116424038D01*
X133210488Y-116399088D01*
X133221558Y-116371506D01*
X133233872Y-116343065D01*
X133246703Y-116315533D01*
X133253298Y-116302244D01*
X133285747Y-116244035D01*
X133322975Y-116187910D01*
X133365664Y-116132939D01*
X133414497Y-116078192D01*
X133427640Y-116064539D01*
X133483149Y-116011000D01*
X133540429Y-115962517D01*
X133600683Y-115918221D01*
X133665115Y-115877247D01*
X133734929Y-115838727D01*
X133755915Y-115828110D01*
X133823969Y-115796238D01*
X133891983Y-115768403D01*
X133961185Y-115744231D01*
X134032805Y-115723349D01*
X134108070Y-115705382D01*
X134188210Y-115689958D01*
X134234678Y-115682442D01*
X134254514Y-115679522D01*
X134271842Y-115677256D01*
X134288059Y-115675560D01*
X134304560Y-115674349D01*
X134322740Y-115673538D01*
X134343996Y-115673045D01*
X134369722Y-115672784D01*
X134396206Y-115672681D01*
X134433421Y-115672759D01*
X134433421Y-115672759D01*
G37*
X134433421Y-115672759D02*
X134465092Y-115673262D01*
X134492723Y-115674311D01*
X134517822Y-115676030D01*
X134541891Y-115678541D01*
X134566437Y-115681966D01*
X134592965Y-115686430D01*
X134614929Y-115690505D01*
X134673784Y-115703268D01*
X134734881Y-115719335D01*
X134795334Y-115737872D01*
X134852258Y-115758044D01*
X134863637Y-115762467D01*
X134906815Y-115779660D01*
X134949190Y-115796798D01*
X134991148Y-115814060D01*
X135033078Y-115831627D01*
X135075367Y-115849679D01*
X135118402Y-115868397D01*
X135162571Y-115887961D01*
X135208263Y-115908552D01*
X135255864Y-115930349D01*
X135305762Y-115953534D01*
X135358345Y-115978287D01*
X135414001Y-116004789D01*
X135473116Y-116033218D01*
X135536080Y-116063757D01*
X135603278Y-116096586D01*
X135675100Y-116131884D01*
X135751933Y-116169833D01*
X135834164Y-116210613D01*
X135922181Y-116254404D01*
X135944901Y-116265727D01*
X136023181Y-116304671D01*
X136095700Y-116340570D01*
X136162947Y-116373651D01*
X136225413Y-116404138D01*
X136283587Y-116432257D01*
X136337960Y-116458235D01*
X136389022Y-116482296D01*
X136437263Y-116504668D01*
X136483173Y-116525575D01*
X136527242Y-116545243D01*
X136569960Y-116563898D01*
X136611817Y-116581766D01*
X136653304Y-116599072D01*
X136694910Y-116616043D01*
X136737126Y-116632903D01*
X136770401Y-116645971D01*
X136793924Y-116655208D01*
X136815317Y-116663727D01*
X136833686Y-116671163D01*
X136848141Y-116677150D01*
X136857789Y-116681325D01*
X136861730Y-116683314D01*
X136861197Y-116687409D01*
X136855985Y-116695427D01*
X136846737Y-116706658D01*
X136834098Y-116720394D01*
X136818710Y-116735926D01*
X136801217Y-116752545D01*
X136788176Y-116764347D01*
X136720197Y-116820448D01*
X136645762Y-116873943D01*
X136564992Y-116924776D01*
X136478009Y-116972890D01*
X136384936Y-117018228D01*
X136285895Y-117060733D01*
X136181007Y-117100348D01*
X136070396Y-117137017D01*
X135954183Y-117170682D01*
X135867290Y-117192986D01*
X135766695Y-117216228D01*
X135671707Y-117235557D01*
X135582079Y-117250993D01*
X135497559Y-117262558D01*
X135417899Y-117270270D01*
X135342849Y-117274152D01*
X135272161Y-117274225D01*
X135205585Y-117270508D01*
X135142872Y-117263022D01*
X135105080Y-117256350D01*
X135044448Y-117241438D01*
X134989092Y-117222057D01*
X134939084Y-117198280D01*
X134894497Y-117170181D01*
X134855402Y-117137832D01*
X134821871Y-117101307D01*
X134793977Y-117060678D01*
X134771793Y-117016019D01*
X134755390Y-116967403D01*
X134744840Y-116914904D01*
X134741901Y-116888630D01*
X134741083Y-116877523D01*
X134740147Y-116869388D01*
X134738109Y-116863684D01*
X134733989Y-116859868D01*
X134726804Y-116857400D01*
X134715573Y-116855736D01*
X134699313Y-116854336D01*
X134677043Y-116852657D01*
X134676665Y-116852627D01*
X134649113Y-116850400D01*
X134627942Y-116848506D01*
X134612489Y-116846856D01*
X134602092Y-116845363D01*
X134596088Y-116843939D01*
X134593815Y-116842497D01*
X134593916Y-116841664D01*
X134591971Y-116840355D01*
X134585137Y-116840130D01*
X134575466Y-116840804D01*
X134565008Y-116842187D01*
X134555815Y-116844093D01*
X134551429Y-116845549D01*
X134545921Y-116847066D01*
X134534614Y-116849526D01*
X134518667Y-116852698D01*
X134499239Y-116856355D01*
X134477487Y-116860268D01*
X134472054Y-116861219D01*
X134390568Y-116874726D01*
X134313152Y-116886099D01*
X134237264Y-116895677D01*
X134160365Y-116903799D01*
X134136915Y-116905984D01*
X134114485Y-116907578D01*
X134087279Y-116908811D01*
X134056650Y-116909683D01*
X134023949Y-116910194D01*
X133990527Y-116910342D01*
X133957736Y-116910128D01*
X133926928Y-116909551D01*
X133899453Y-116908610D01*
X133876664Y-116907305D01*
X133863512Y-116906092D01*
X133790684Y-116896437D01*
X133719827Y-116884550D01*
X133649066Y-116870039D01*
X133576525Y-116852512D01*
X133500329Y-116831580D01*
X133484855Y-116827058D01*
X133462241Y-116820265D01*
X133445575Y-116814912D01*
X133433980Y-116810649D01*
X133426576Y-116807128D01*
X133422488Y-116803999D01*
X133421055Y-116801658D01*
X133420089Y-116796545D01*
X133418507Y-116785251D01*
X133416408Y-116768615D01*
X133413893Y-116747473D01*
X133411061Y-116722665D01*
X133408011Y-116695028D01*
X133404916Y-116666082D01*
X133401319Y-116632089D01*
X133398433Y-116604447D01*
X133396310Y-116582481D01*
X133394999Y-116565520D01*
X133394551Y-116552888D01*
X133395016Y-116543913D01*
X133396445Y-116537920D01*
X133398888Y-116534237D01*
X133402395Y-116532189D01*
X133407016Y-116531103D01*
X133412803Y-116530305D01*
X133415089Y-116529973D01*
X133426335Y-116527944D01*
X133443387Y-116524487D01*
X133465191Y-116519841D01*
X133490698Y-116514245D01*
X133518856Y-116507939D01*
X133548613Y-116501161D01*
X133578919Y-116494151D01*
X133608723Y-116487147D01*
X133636973Y-116480390D01*
X133662618Y-116474117D01*
X133681831Y-116469283D01*
X133784460Y-116441924D01*
X133880451Y-116414087D01*
X133970211Y-116385635D01*
X134054151Y-116356432D01*
X134132678Y-116326340D01*
X134206201Y-116295224D01*
X134218054Y-116289903D01*
X134288728Y-116255450D01*
X134360698Y-116215712D01*
X134432244Y-116171782D01*
X134501646Y-116124756D01*
X134567188Y-116075727D01*
X134611401Y-116039476D01*
X134629063Y-116024113D01*
X134647396Y-116007702D01*
X134665682Y-115990934D01*
X134683204Y-115974500D01*
X134699247Y-115959091D01*
X134713093Y-115945399D01*
X134724025Y-115934114D01*
X134731327Y-115925928D01*
X134734281Y-115921531D01*
X134734217Y-115921058D01*
X134728112Y-115917809D01*
X134716135Y-115913487D01*
X134699345Y-115908353D01*
X134678799Y-115902670D01*
X134655554Y-115896701D01*
X134630668Y-115890709D01*
X134605197Y-115884955D01*
X134580199Y-115879703D01*
X134556730Y-115875216D01*
X134535850Y-115871755D01*
X134535554Y-115871711D01*
X134480511Y-115865167D01*
X134426177Y-115862113D01*
X134371037Y-115862583D01*
X134313579Y-115866613D01*
X134252287Y-115874238D01*
X134222459Y-115878951D01*
X134129202Y-115897540D01*
X134039769Y-115921397D01*
X133954375Y-115950415D01*
X133873232Y-115984487D01*
X133796555Y-116023508D01*
X133724556Y-116067371D01*
X133657449Y-116115970D01*
X133595447Y-116169199D01*
X133551947Y-116212605D01*
X133509572Y-116261246D01*
X133471534Y-116312023D01*
X133438491Y-116363920D01*
X133411103Y-116415920D01*
X133393654Y-116457045D01*
X133388678Y-116469459D01*
X133384054Y-116479627D01*
X133380787Y-116485342D01*
X133377530Y-116488648D01*
X133369629Y-116496360D01*
X133357559Y-116508024D01*
X133341791Y-116523186D01*
X133322799Y-116541394D01*
X133301055Y-116562194D01*
X133277032Y-116585132D01*
X133251203Y-116609755D01*
X133232040Y-116627999D01*
X133205339Y-116653427D01*
X133180206Y-116677402D01*
X133157102Y-116699484D01*
X133136484Y-116719230D01*
X133118811Y-116736203D01*
X133104543Y-116749960D01*
X133094137Y-116760061D01*
X133088053Y-116766066D01*
X133086605Y-116767612D01*
X133089570Y-116769389D01*
X133098382Y-116773742D01*
X133112434Y-116780391D01*
X133131121Y-116789058D01*
X133153834Y-116799463D01*
X133179970Y-116811327D01*
X133208921Y-116824373D01*
X133240081Y-116838320D01*
X133247466Y-116841613D01*
X133409124Y-116913632D01*
X133425979Y-116973904D01*
X133434092Y-117001889D01*
X133443939Y-117034224D01*
X133454914Y-117069037D01*
X133466409Y-117104452D01*
X133477815Y-117138597D01*
X133488525Y-117169597D01*
X133497509Y-117194447D01*
X133502957Y-117208133D01*
X133507477Y-117216607D01*
X133512134Y-117221423D01*
X133517828Y-117224082D01*
X133525130Y-117225248D01*
X133538451Y-117226186D01*
X133556758Y-117226899D01*
X133579018Y-117227387D01*
X133604199Y-117227655D01*
X133631267Y-117227703D01*
X133659190Y-117227535D01*
X133686935Y-117227151D01*
X133713470Y-117226556D01*
X133737761Y-117225750D01*
X133758775Y-117224736D01*
X133775317Y-117223531D01*
X133938259Y-117205902D01*
X134038137Y-117192528D01*
X134080857Y-117186090D01*
X134117676Y-117179790D01*
X134149732Y-117173314D01*
X134178165Y-117166351D01*
X134204114Y-117158589D01*
X134228719Y-117149715D01*
X134253120Y-117139417D01*
X134278455Y-117127384D01*
X134281554Y-117125837D01*
X134337113Y-117094503D01*
X134391662Y-117056901D01*
X134444231Y-117013818D01*
X134493850Y-116966043D01*
X134534312Y-116920732D01*
X134552345Y-116899009D01*
X134554746Y-116924259D01*
X134561773Y-116971681D01*
X134573679Y-117020858D01*
X134589800Y-117069914D01*
X134609475Y-117116972D01*
X134632040Y-117160153D01*
X134645717Y-117181979D01*
X134683338Y-117231696D01*
X134726139Y-117276693D01*
X134774035Y-117316941D01*
X134826935Y-117352413D01*
X134884755Y-117383079D01*
X134947404Y-117408913D01*
X135014797Y-117429887D01*
X135086846Y-117445972D01*
X135163463Y-117457141D01*
X135244560Y-117463366D01*
X135330051Y-117464619D01*
X135419846Y-117460872D01*
X135498637Y-117453829D01*
X135571780Y-117444512D01*
X135649873Y-117432199D01*
X135731619Y-117417171D01*
X135815722Y-117399714D01*
X135900885Y-117380108D01*
X135985811Y-117358639D01*
X136069203Y-117335589D01*
X136145984Y-117312435D01*
X136243458Y-117279802D01*
X136337784Y-117244360D01*
X136428611Y-117206319D01*
X136515590Y-117165893D01*
X136598370Y-117123290D01*
X136676602Y-117078724D01*
X136749935Y-117032404D01*
X136818019Y-116984543D01*
X136880504Y-116935351D01*
X136937039Y-116885040D01*
X136987276Y-116833821D01*
X137030863Y-116781905D01*
X137035514Y-116775793D01*
X137045130Y-116763366D01*
X137051890Y-116755794D01*
X137056927Y-116752112D01*
X137061375Y-116751354D01*
X137063724Y-116751769D01*
X137083161Y-116756078D01*
X137108238Y-116760760D01*
X137137566Y-116765612D01*
X137169755Y-116770427D01*
X137203413Y-116775003D01*
X137237150Y-116779133D01*
X137269576Y-116782613D01*
X137280165Y-116783622D01*
X137311903Y-116786152D01*
X137343886Y-116787874D01*
X137376789Y-116788757D01*
X137411288Y-116788770D01*
X137448058Y-116787884D01*
X137487773Y-116786067D01*
X137531111Y-116783289D01*
X137578744Y-116779519D01*
X137631350Y-116774727D01*
X137689603Y-116768882D01*
X137751123Y-116762290D01*
X137840163Y-116751927D01*
X137935637Y-116739708D01*
X138037191Y-116725697D01*
X138144467Y-116709959D01*
X138257113Y-116692558D01*
X138374772Y-116673557D01*
X138497089Y-116653022D01*
X138623710Y-116631016D01*
X138754278Y-116607604D01*
X138888439Y-116582850D01*
X139025838Y-116556818D01*
X139166119Y-116529572D01*
X139308928Y-116501176D01*
X139453909Y-116471696D01*
X139600707Y-116441195D01*
X139748967Y-116409736D01*
X139898333Y-116377386D01*
X139985970Y-116358098D01*
X140030464Y-116348244D01*
X140068682Y-116339957D01*
X140101256Y-116333370D01*
X140128821Y-116328618D01*
X140152009Y-116325836D01*
X140171453Y-116325158D01*
X140187786Y-116326718D01*
X140201640Y-116330652D01*
X140213650Y-116337094D01*
X140224447Y-116346178D01*
X140234665Y-116358038D01*
X140244936Y-116372810D01*
X140255894Y-116390628D01*
X140268172Y-116411626D01*
X140272451Y-116418985D01*
X140309720Y-116484762D01*
X140344652Y-116550012D01*
X140376853Y-116613904D01*
X140405927Y-116675605D01*
X140431479Y-116734284D01*
X140453115Y-116789109D01*
X140466980Y-116828549D01*
X140482440Y-116880962D01*
X140493156Y-116929874D01*
X140499156Y-116975057D01*
X140500467Y-117016284D01*
X140497117Y-117053325D01*
X140489132Y-117085952D01*
X140476541Y-117113937D01*
X140459370Y-117137052D01*
X140437647Y-117155068D01*
X140427122Y-117161085D01*
X140416989Y-117165844D01*
X140405939Y-117170214D01*
X140393613Y-117174223D01*
X140379655Y-117177899D01*
X140363707Y-117181271D01*
X140345411Y-117184367D01*
X140324412Y-117187214D01*
X140300350Y-117189842D01*
X140272870Y-117192277D01*
X140241613Y-117194549D01*
X140206223Y-117196685D01*
X140166341Y-117198713D01*
X140121611Y-117200663D01*
X140071675Y-117202561D01*
X140016176Y-117204436D01*
X139954757Y-117206316D01*
X139887060Y-117208230D01*
X139812729Y-117210205D01*
X139798998Y-117210559D01*
X139676921Y-117213897D01*
X139561342Y-117217476D01*
X139451705Y-117221329D01*
X139347454Y-117225484D01*
X139248035Y-117229974D01*
X139152893Y-117234828D01*
X139061472Y-117240078D01*
X138973217Y-117245754D01*
X138887572Y-117251886D01*
X138803983Y-117258506D01*
X138721895Y-117265644D01*
X138640752Y-117273330D01*
X138613665Y-117276035D01*
X138484965Y-117289867D01*
X138360500Y-117304963D01*
X138239521Y-117321495D01*
X138121279Y-117339631D01*
X138005026Y-117359541D01*
X137890014Y-117381395D01*
X137775494Y-117405361D01*
X137660719Y-117431610D01*
X137544939Y-117460310D01*
X137427406Y-117491632D01*
X137307371Y-117525744D01*
X137184088Y-117562817D01*
X137056806Y-117603019D01*
X136924778Y-117646520D01*
X136819790Y-117682241D01*
X136769930Y-117699749D01*
X136722398Y-117717175D01*
X136676525Y-117734840D01*
X136631641Y-117753064D01*
X136587078Y-117772166D01*
X136542165Y-117792469D01*
X136496233Y-117814291D01*
X136448613Y-117837953D01*
X136398635Y-117863775D01*
X136345631Y-117892078D01*
X136288930Y-117923182D01*
X136227863Y-117957407D01*
X136161761Y-117995074D01*
X136140692Y-118007183D01*
X136082071Y-118040913D01*
X136029100Y-118071341D01*
X135981332Y-118098715D01*
X135938319Y-118123281D01*
X135899614Y-118145286D01*
X135864769Y-118164977D01*
X135833336Y-118182600D01*
X135804868Y-118198404D01*
X135778917Y-118212634D01*
X135755035Y-118225538D01*
X135732775Y-118237362D01*
X135711690Y-118248354D01*
X135691330Y-118258760D01*
X135671250Y-118268828D01*
X135651001Y-118278803D01*
X135630136Y-118288934D01*
X135628304Y-118289818D01*
X135560865Y-118321255D01*
X135497248Y-118348509D01*
X135436080Y-118371972D01*
X135375990Y-118392035D01*
X135315607Y-118409092D01*
X135253558Y-118423534D01*
X135188472Y-118435754D01*
X135118976Y-118446144D01*
X135054137Y-118453969D01*
X135013150Y-118457729D01*
X134967204Y-118460689D01*
X134918356Y-118462795D01*
X134868661Y-118463991D01*
X134820177Y-118464222D01*
X134774960Y-118463434D01*
X134745456Y-118462198D01*
X134665910Y-118455555D01*
X134585454Y-118444433D01*
X134505276Y-118429133D01*
X134426565Y-118409953D01*
X134350509Y-118387191D01*
X134278296Y-118361146D01*
X134211114Y-118332117D01*
X134193006Y-118323315D01*
X134112026Y-118279062D01*
X134032804Y-118228098D01*
X133955480Y-118170583D01*
X133880193Y-118106673D01*
X133807084Y-118036526D01*
X133736293Y-117960300D01*
X133667958Y-117878153D01*
X133602221Y-117790242D01*
X133539220Y-117696726D01*
X133479095Y-117597760D01*
X133421987Y-117493504D01*
X133376895Y-117402891D01*
X133358557Y-117362977D01*
X133340935Y-117321612D01*
X133323524Y-117277504D01*
X133305817Y-117229362D01*
X133287308Y-117175894D01*
X133282963Y-117162940D01*
X133275294Y-117139494D01*
X133267191Y-117113904D01*
X133259006Y-117087363D01*
X133251091Y-117061063D01*
X133243799Y-117036198D01*
X133237483Y-117013959D01*
X133232494Y-116995538D01*
X133229185Y-116982130D01*
X133228376Y-116978248D01*
X133226207Y-116966686D01*
X133021593Y-116884118D01*
X132985613Y-116869573D01*
X132951605Y-116855775D01*
X132920130Y-116842956D01*
X132891746Y-116831344D01*
X132867012Y-116821170D01*
X132846488Y-116812664D01*
X132830732Y-116806057D01*
X132820305Y-116801579D01*
X132815766Y-116799459D01*
X132815617Y-116799346D01*
X132817958Y-116796696D01*
X132825160Y-116789740D01*
X132836810Y-116778853D01*
X132852493Y-116764414D01*
X132871795Y-116746798D01*
X132894302Y-116726384D01*
X132919599Y-116703549D01*
X132947272Y-116678669D01*
X132976907Y-116652122D01*
X133002284Y-116629459D01*
X133038300Y-116597330D01*
X133069414Y-116569536D01*
X133095996Y-116545723D01*
X133118413Y-116525538D01*
X133137036Y-116508625D01*
X133152233Y-116494632D01*
X133164374Y-116483203D01*
X133173828Y-116473984D01*
X133180963Y-116466621D01*
X133186150Y-116460761D01*
X133189757Y-116456048D01*
X133192154Y-116452129D01*
X133193710Y-116448649D01*
X133194793Y-116445255D01*
X133194977Y-116444587D01*
X133201386Y-116424038D01*
X133210488Y-116399088D01*
X133221558Y-116371506D01*
X133233872Y-116343065D01*
X133246703Y-116315533D01*
X133253298Y-116302244D01*
X133285747Y-116244035D01*
X133322975Y-116187910D01*
X133365664Y-116132939D01*
X133414497Y-116078192D01*
X133427640Y-116064539D01*
X133483149Y-116011000D01*
X133540429Y-115962517D01*
X133600683Y-115918221D01*
X133665115Y-115877247D01*
X133734929Y-115838727D01*
X133755915Y-115828110D01*
X133823969Y-115796238D01*
X133891983Y-115768403D01*
X133961185Y-115744231D01*
X134032805Y-115723349D01*
X134108070Y-115705382D01*
X134188210Y-115689958D01*
X134234678Y-115682442D01*
X134254514Y-115679522D01*
X134271842Y-115677256D01*
X134288059Y-115675560D01*
X134304560Y-115674349D01*
X134322740Y-115673538D01*
X134343996Y-115673045D01*
X134369722Y-115672784D01*
X134396206Y-115672681D01*
X134433421Y-115672759D01*
D12*
X134550000Y-103700000D03*
D13*
X134550000Y-106240000D03*
D12*
X134550000Y-108780000D03*
D13*
X134550000Y-111320000D03*
D14*
X158461920Y-94250000D03*
X158461920Y-93599760D03*
X158461920Y-92949520D03*
X155800000Y-92949520D03*
X155800000Y-93599760D03*
X155800000Y-94250000D03*
X164300000Y-98250000D03*
X164300000Y-97599760D03*
X164300000Y-96949520D03*
X161638080Y-96949520D03*
X161638080Y-97599760D03*
X161638080Y-98250000D03*
X158611920Y-96700000D03*
X158611920Y-96049760D03*
X158611920Y-95399520D03*
X155950000Y-95399520D03*
X155950000Y-96049760D03*
X155950000Y-96700000D03*
D15*
X152250000Y-105850000D03*
X152250000Y-109850000D03*
D16*
X157800000Y-123500700D03*
X157800000Y-124999300D03*
D17*
X156050000Y-124750000D03*
X156050000Y-122550000D03*
D13*
X131500000Y-111300000D03*
D12*
X131500000Y-108760000D03*
D13*
X131500000Y-106220000D03*
D12*
X131500000Y-103680000D03*
D18*
X147350000Y-113890000D03*
D19*
X144810000Y-113890000D03*
X142270000Y-113890000D03*
X139730000Y-113890000D03*
X137190000Y-113890000D03*
X134650000Y-113890000D03*
D18*
X147400000Y-101200000D03*
D19*
X144860000Y-101200000D03*
X142320000Y-101200000D03*
X139780000Y-101200000D03*
X137240000Y-101200000D03*
D18*
X134700000Y-101200000D03*
D20*
X147400000Y-109140000D03*
D21*
X147400000Y-106600000D03*
D22*
X161190000Y-100200000D03*
X161190000Y-100600000D03*
X161190000Y-101000000D03*
X161190000Y-101400000D03*
X161190000Y-101800000D03*
X161190000Y-102200000D03*
X161190000Y-102600000D03*
X161190000Y-103000000D03*
X161190000Y-103400000D03*
X161190000Y-103800000D03*
X161190000Y-107800000D03*
X161190000Y-107400000D03*
X161190000Y-107000000D03*
X161190000Y-106600000D03*
X161190000Y-106200000D03*
X161190000Y-105800000D03*
X161190000Y-105400000D03*
X161190000Y-105000000D03*
X161190000Y-104600000D03*
X161190000Y-104200000D03*
X161190000Y-108200000D03*
X161190000Y-108600000D03*
X161190000Y-109000000D03*
X161190000Y-109400000D03*
X161190000Y-109800000D03*
X161190000Y-110200000D03*
X161190000Y-110600000D03*
X161190000Y-111000000D03*
X161190000Y-111400000D03*
X161190000Y-111800000D03*
X161190000Y-115800000D03*
X161190000Y-115400000D03*
X161190000Y-115000000D03*
X161190000Y-114600000D03*
X161190000Y-114200000D03*
X161190000Y-113800000D03*
X161190000Y-113400000D03*
X161190000Y-113000000D03*
X161190000Y-112600000D03*
X161190000Y-112200000D03*
X158110000Y-112200000D03*
X158110000Y-112600000D03*
X158110000Y-113000000D03*
X158110000Y-113400000D03*
X158110000Y-113800000D03*
X158110000Y-114200000D03*
X158110000Y-114600000D03*
X158110000Y-115000000D03*
X158110000Y-115400000D03*
X158110000Y-115800000D03*
X158110000Y-111800000D03*
X158110000Y-111400000D03*
X158110000Y-111000000D03*
X158110000Y-110600000D03*
X158110000Y-110200000D03*
X158110000Y-109800000D03*
X158110000Y-109400000D03*
X158110000Y-109000000D03*
X158110000Y-108600000D03*
X158110000Y-108200000D03*
X158110000Y-104200000D03*
X158110000Y-104600000D03*
X158110000Y-105000000D03*
X158110000Y-105400000D03*
X158110000Y-105800000D03*
X158110000Y-106200000D03*
X158110000Y-106600000D03*
X158110000Y-107000000D03*
X158110000Y-107400000D03*
X158110000Y-107800000D03*
X158110000Y-103800000D03*
X158110000Y-103400000D03*
X158110000Y-103000000D03*
X158110000Y-102600000D03*
X158110000Y-102200000D03*
X158110000Y-101800000D03*
X158110000Y-101400000D03*
X158110000Y-101000000D03*
X158110000Y-100600000D03*
X158110000Y-100200000D03*
D18*
X150745000Y-124450000D03*
D19*
X148205000Y-124450000D03*
X145665000Y-124450000D03*
X143125000Y-124450000D03*
X140585000Y-124450000D03*
X138045000Y-124450000D03*
D23*
X162950000Y-97849974D03*
X162500000Y-95300000D03*
X133000000Y-104600000D03*
X150050000Y-110150000D03*
X150050000Y-109150000D03*
X154600000Y-121350000D03*
D24*
X163335170Y-106128721D03*
X162579214Y-106491109D03*
X162993938Y-107218712D03*
X162237982Y-107581100D03*
X162237982Y-108419301D03*
X162993938Y-108781689D03*
X162579214Y-109509292D03*
X163335170Y-109871680D03*
D23*
X164264956Y-95352566D03*
X160500000Y-95450000D03*
X157300000Y-95000000D03*
X159100000Y-98150000D03*
X159950000Y-93400000D03*
X154500000Y-92950000D03*
X153600000Y-93750000D03*
X154325068Y-92130246D03*
X160303087Y-96914049D03*
X157300000Y-97100000D03*
X156750000Y-92200000D03*
X154650000Y-94900000D03*
D24*
X156380187Y-105401118D03*
D23*
X160729126Y-94320874D03*
D24*
X156306694Y-107218712D03*
X157062650Y-107581100D03*
X157062650Y-108419301D03*
X156306694Y-108781689D03*
X156721418Y-109509292D03*
X155965462Y-109871680D03*
D23*
X145350000Y-118375000D03*
X153950000Y-117750000D03*
X154171538Y-118776227D03*
X161000000Y-117010000D03*
D24*
X161045015Y-99054899D03*
X158255617Y-99054899D03*
X158255617Y-99054899D03*
X162035617Y-116147324D03*
X162511810Y-116834445D03*
X163166374Y-116308281D03*
X163642567Y-116995401D03*
X164626605Y-116049236D03*
X165041329Y-115321633D03*
X164285373Y-114959245D03*
X164700097Y-114231642D03*
X163944142Y-113869254D03*
X164358866Y-113141651D03*
X163602910Y-112779264D03*
X164017634Y-112051661D03*
X163261678Y-111689273D03*
X163676402Y-110961670D03*
X162920446Y-110599282D03*
X162920446Y-105401118D03*
X163676402Y-105038731D03*
X163261678Y-104311128D03*
X164017634Y-103948740D03*
X163602910Y-103221137D03*
X164358866Y-102858749D03*
X163944142Y-102131146D03*
X164700097Y-101768759D03*
X164285373Y-101041156D03*
X165041329Y-100678768D03*
X164626605Y-99951165D03*
X163642567Y-99005000D03*
X163166374Y-99692120D03*
X162511810Y-99165956D03*
X162035617Y-99853076D03*
X157265015Y-99853076D03*
X156788823Y-99165956D03*
X156134258Y-99692120D03*
X155658066Y-99005000D03*
X154674027Y-99951165D03*
X154259303Y-100678768D03*
X155015259Y-101041156D03*
X154600535Y-101768759D03*
X155356491Y-102131146D03*
X154941767Y-102858749D03*
X155697723Y-103221137D03*
X155965462Y-106128721D03*
X156721418Y-106491109D03*
X156380187Y-110599282D03*
X155624231Y-110961670D03*
X156038955Y-111689273D03*
X155282999Y-112051661D03*
X155697723Y-112779264D03*
X154941767Y-113141651D03*
X155356491Y-113869254D03*
X154600535Y-114231642D03*
X155015259Y-114959245D03*
X154259303Y-115321633D03*
X154674027Y-116049236D03*
X156200000Y-117750000D03*
X156563479Y-116981984D03*
D23*
X157186858Y-118048495D03*
D25*
X162950000Y-97849974D02*
X162950000Y-96450000D01*
X162950000Y-96450000D02*
X162850000Y-96350000D01*
X162950000Y-97849974D02*
X163350266Y-98250240D01*
X163350266Y-98250240D02*
X163350506Y-98250000D01*
X163350506Y-98250000D02*
X164300000Y-98250000D01*
X162850000Y-96350000D02*
X162550000Y-96050000D01*
X158461920Y-94250000D02*
X158461920Y-95249520D01*
X158461920Y-95249520D02*
X158611920Y-95399520D01*
X159353696Y-95399520D02*
X159975678Y-96021502D01*
X158611920Y-95399520D02*
X159353696Y-95399520D01*
X160771502Y-96021502D02*
X160528498Y-96021502D01*
X162550000Y-96050000D02*
X160800000Y-96050000D01*
X160800000Y-96050000D02*
X160771502Y-96021502D01*
X160528498Y-96021502D02*
X159914476Y-96021502D01*
X159235978Y-96700000D02*
X158611920Y-96700000D01*
X159975678Y-96021502D02*
X160528498Y-96021502D01*
X159914476Y-96021502D02*
X159235978Y-96700000D01*
X162500000Y-96000000D02*
X162500000Y-95784933D01*
X162550000Y-96050000D02*
X162500000Y-96000000D01*
X162500000Y-95784933D02*
X162500000Y-95300000D01*
X158611920Y-94261920D02*
X158600000Y-94250000D01*
D26*
X131500000Y-106220000D02*
X134530000Y-106220000D01*
X134530000Y-106220000D02*
X134550000Y-106240000D01*
X133000000Y-104600000D02*
X133000000Y-104690000D01*
X133000000Y-104690000D02*
X134550000Y-106240000D01*
X133000000Y-104600000D02*
X133000000Y-104720000D01*
X133000000Y-104720000D02*
X131500000Y-106220000D01*
X131500000Y-111300000D02*
X134530000Y-111300000D01*
X134530000Y-111300000D02*
X134550000Y-111320000D01*
X150050000Y-110150000D02*
X151950000Y-110150000D01*
X151950000Y-110150000D02*
X152250000Y-109850000D01*
X150050000Y-109150000D02*
X151550000Y-109150000D01*
X151550000Y-109150000D02*
X152250000Y-109850000D01*
X147400000Y-109140000D02*
X149040000Y-109140000D01*
X149040000Y-109140000D02*
X150050000Y-110150000D01*
X147400000Y-109140000D02*
X150040000Y-109140000D01*
X150040000Y-109140000D02*
X150050000Y-109150000D01*
X156050000Y-122550000D02*
X155800000Y-122550000D01*
X155800000Y-122550000D02*
X154600000Y-121350000D01*
D25*
X161190316Y-106624000D02*
X161540316Y-106624000D01*
X161540316Y-106624000D02*
X162460992Y-105841578D01*
X162460992Y-105841578D02*
X162749830Y-105946114D01*
X162749830Y-105946114D02*
X163335170Y-106128721D01*
X161190316Y-107024000D02*
X161540316Y-107024000D01*
X161540316Y-107024000D02*
X162406505Y-106287883D01*
X162406505Y-106287883D02*
X162579214Y-106491109D01*
X161190316Y-107424000D02*
X161540316Y-107424000D01*
X161540316Y-107424000D02*
X162119760Y-106931569D01*
X162119760Y-106931569D02*
X162408598Y-107036104D01*
X162408598Y-107036104D02*
X162993938Y-107218712D01*
X161190316Y-107824000D02*
X161540316Y-107824000D01*
X161540316Y-107824000D02*
X162065274Y-107377873D01*
X162065274Y-107377873D02*
X162237982Y-107581100D01*
X161190316Y-108176401D02*
X161540316Y-108176401D01*
X161540316Y-108176401D02*
X162065274Y-108622527D01*
X162065274Y-108622527D02*
X162237982Y-108419301D01*
X161190316Y-108576401D02*
X161540316Y-108576401D01*
X161540316Y-108576401D02*
X162119760Y-109068832D01*
X162119760Y-109068832D02*
X162408598Y-108964297D01*
X162408598Y-108964297D02*
X162993938Y-108781689D01*
X161190316Y-108976401D02*
X161540316Y-108976401D01*
X161540316Y-108976401D02*
X162406505Y-109712518D01*
X162406505Y-109712518D02*
X162579214Y-109509292D01*
X161190316Y-109376401D02*
X161540316Y-109376401D01*
X161540316Y-109376401D02*
X162460992Y-110158823D01*
X162460992Y-110158823D02*
X162749830Y-110054287D01*
X162749830Y-110054287D02*
X163335170Y-109871680D01*
X165202970Y-96290580D02*
X164607855Y-95695465D01*
X163412390Y-94500000D02*
X163922057Y-95009667D01*
X164851180Y-96949520D02*
X165202970Y-96597730D01*
X164300000Y-96949520D02*
X164851180Y-96949520D01*
X160500000Y-95450000D02*
X161450000Y-94500000D01*
X163922057Y-95009667D02*
X164264956Y-95352566D01*
X165202970Y-96597730D02*
X165202970Y-96290580D01*
X161450000Y-94500000D02*
X163412390Y-94500000D01*
X164607855Y-95695465D02*
X164264956Y-95352566D01*
X164300000Y-97599760D02*
X164300000Y-96949520D01*
X160500000Y-95450000D02*
X160500000Y-94965067D01*
X160500000Y-94965067D02*
X159134693Y-93599760D01*
X159134693Y-93599760D02*
X158461920Y-93599760D01*
X157300000Y-93996790D02*
X157300000Y-94515067D01*
X157300000Y-94515067D02*
X157300000Y-95000000D01*
X158611920Y-96049760D02*
X157708950Y-96049760D01*
X157708950Y-96049760D02*
X157300000Y-95640810D01*
X157300000Y-95640810D02*
X157300000Y-95000000D01*
X159502970Y-92949520D02*
X158461920Y-92949520D01*
X158265067Y-97800000D02*
X156698210Y-97800000D01*
X155950000Y-97051790D02*
X155950000Y-96700000D01*
X156698210Y-97800000D02*
X155950000Y-97051790D01*
X159100000Y-98150000D02*
X158615067Y-98150000D01*
X158615067Y-98150000D02*
X158265067Y-97800000D01*
X159950000Y-93396550D02*
X159950000Y-93400000D01*
X159502970Y-92949520D02*
X159950000Y-93396550D01*
X156470220Y-96800240D02*
X155919040Y-96800240D01*
X155800000Y-92949520D02*
X154500480Y-92949520D01*
X154500480Y-92949520D02*
X154500000Y-92950000D01*
X155938080Y-92949520D02*
X155937600Y-92950000D01*
X153600000Y-102950000D02*
X154598740Y-103948740D01*
X154598740Y-103948740D02*
X156495045Y-103948740D01*
X156903232Y-104295632D02*
X156495045Y-103948740D01*
X157607600Y-105000000D02*
X156903232Y-104295632D01*
X158110000Y-105000000D02*
X157607600Y-105000000D01*
X153600000Y-93750000D02*
X153600000Y-102950000D01*
X161638080Y-98250000D02*
X160346552Y-98250000D01*
X160346552Y-98250000D02*
X160303087Y-98206535D01*
X160303087Y-98206535D02*
X160303087Y-97700000D01*
X160303087Y-97700000D02*
X160303087Y-97398982D01*
X161638080Y-97599760D02*
X160735110Y-97599760D01*
X160735110Y-97599760D02*
X160634870Y-97700000D01*
X160634870Y-97700000D02*
X160303087Y-97700000D01*
X158110000Y-106200000D02*
X159531067Y-106200000D01*
X154650000Y-93945822D02*
X154650000Y-93846790D01*
X154650000Y-93846790D02*
X154897030Y-93599760D01*
X154897030Y-93599760D02*
X155800000Y-93599760D01*
X154650000Y-94900000D02*
X154650000Y-93945822D01*
X154650000Y-93945822D02*
X153928499Y-93224321D01*
X153928499Y-93224321D02*
X153928499Y-92526815D01*
X153928499Y-92526815D02*
X153982169Y-92473145D01*
X153982169Y-92473145D02*
X154325068Y-92130246D01*
X154394822Y-92200000D02*
X154325068Y-92130246D01*
X156750000Y-92200000D02*
X154394822Y-92200000D01*
X160303087Y-97398982D02*
X160303087Y-96914049D01*
X160239234Y-98270388D02*
X160303087Y-98206535D01*
X156957101Y-96757101D02*
X156957101Y-96153891D01*
X157300000Y-97100000D02*
X156957101Y-96757101D01*
X156957101Y-96153891D02*
X156852970Y-96049760D01*
X156852970Y-96049760D02*
X155950000Y-96049760D01*
X160054811Y-98454811D02*
X160239234Y-98270388D01*
X160054811Y-98454811D02*
X160050000Y-98450000D01*
X160059620Y-104997487D02*
X160054811Y-104992678D01*
X159531067Y-106200000D02*
X160059620Y-105671447D01*
X160054811Y-104992678D02*
X160054811Y-98454811D01*
X160059620Y-105671447D02*
X160059620Y-104997487D01*
X158110316Y-106224000D02*
X157760316Y-106224000D01*
X157760316Y-106224000D02*
X156552895Y-105197892D01*
X156552895Y-105197892D02*
X156380187Y-105401118D01*
X160729126Y-94320874D02*
X160729126Y-92679126D01*
X160729126Y-92679126D02*
X160500000Y-92450000D01*
X156917251Y-93032749D02*
X156917251Y-94173799D01*
X156917251Y-94173799D02*
X156841050Y-94250000D01*
X156841050Y-94250000D02*
X155800000Y-94250000D01*
X160500000Y-92450000D02*
X157500000Y-92450000D01*
X157500000Y-92450000D02*
X156917251Y-93032749D01*
X159450000Y-105800000D02*
X158110000Y-105800000D01*
X159750000Y-105500000D02*
X159450000Y-105800000D01*
X159700000Y-96671314D02*
X159700000Y-99250000D01*
X159750000Y-99300000D02*
X159750000Y-105500000D01*
X159700000Y-99250000D02*
X159750000Y-99300000D01*
X159885657Y-96485657D02*
X159700000Y-96671314D01*
X161638080Y-96949520D02*
X160874588Y-96949520D01*
X160874588Y-96949520D02*
X160874588Y-96639728D01*
X160874588Y-96639728D02*
X160577408Y-96342548D01*
X160577408Y-96342548D02*
X160028766Y-96342548D01*
X160028766Y-96342548D02*
X159885657Y-96485657D01*
X158110000Y-105400000D02*
X159350000Y-105400000D01*
X155146302Y-95399520D02*
X155950000Y-95399520D01*
X159445190Y-99426256D02*
X158452433Y-98433499D01*
X159350000Y-105400000D02*
X159445190Y-105304810D01*
X159445190Y-105304810D02*
X159445190Y-99426256D01*
X158452433Y-98433499D02*
X154733499Y-98433499D01*
X154733499Y-98433499D02*
X154733499Y-95812323D01*
X154733499Y-95812323D02*
X155146302Y-95399520D01*
X156443049Y-107840000D02*
X156443049Y-107715768D01*
X156443049Y-107715768D02*
X156577717Y-107581100D01*
X156577717Y-107581100D02*
X157062650Y-107581100D01*
X156306694Y-107218712D02*
X156306694Y-107703645D01*
X156306694Y-107703645D02*
X156443049Y-107840000D01*
X155965462Y-109395462D02*
X156079292Y-109509292D01*
X156079292Y-109509292D02*
X156721418Y-109509292D01*
X155965462Y-109871680D02*
X155965462Y-109395462D01*
D26*
X157800000Y-122847920D02*
X157800000Y-123500700D01*
X152250000Y-105850000D02*
X152250000Y-107104000D01*
X152250000Y-105850000D02*
X148150000Y-105850000D01*
X148150000Y-105850000D02*
X147400000Y-106600000D01*
X156306694Y-107218712D02*
X153418712Y-107218712D01*
X153418712Y-107218712D02*
X152250000Y-106050000D01*
X152250000Y-106050000D02*
X152250000Y-105850000D01*
D25*
X158110316Y-107424000D02*
X157760316Y-107424000D01*
X157760316Y-107424000D02*
X157180872Y-106931569D01*
X157180872Y-106931569D02*
X156892034Y-107036104D01*
X156892034Y-107036104D02*
X156306694Y-107218712D01*
X158110316Y-107824000D02*
X157760316Y-107824000D01*
X157760316Y-107824000D02*
X157235359Y-107377873D01*
X157235359Y-107377873D02*
X157062650Y-107581100D01*
X158110316Y-108176401D02*
X157760316Y-108176401D01*
X157760316Y-108176401D02*
X157235359Y-108622527D01*
X157235359Y-108622527D02*
X157062650Y-108419301D01*
X158110316Y-108576401D02*
X157760316Y-108576401D01*
X157760316Y-108576401D02*
X157180872Y-109068832D01*
X157180872Y-109068832D02*
X156892034Y-108964297D01*
X156892034Y-108964297D02*
X156306694Y-108781689D01*
X158110316Y-108976401D02*
X157760316Y-108976401D01*
X157760316Y-108976401D02*
X156894127Y-109712518D01*
X156894127Y-109712518D02*
X156721418Y-109509292D01*
X158110316Y-109376401D02*
X157760316Y-109376401D01*
X157760316Y-109376401D02*
X156839640Y-110158823D01*
X156839640Y-110158823D02*
X156550802Y-110054287D01*
X156550802Y-110054287D02*
X155965462Y-109871680D01*
D26*
X144327600Y-116100000D02*
X142270000Y-114042400D01*
X142270000Y-114042400D02*
X142270000Y-113890000D01*
X157800000Y-120621007D02*
X157800000Y-122847920D01*
X148302922Y-116100000D02*
X144327600Y-116100000D01*
X153800000Y-108654000D02*
X153800000Y-110602922D01*
X152250000Y-107104000D02*
X153800000Y-108654000D01*
X153278993Y-116100000D02*
X156575000Y-119396007D01*
X156575000Y-119396007D02*
X157800000Y-120621007D01*
X148302922Y-116100000D02*
X153278993Y-116100000D01*
X153800000Y-110602922D02*
X148302922Y-116100000D01*
X157800000Y-124999300D02*
X156299300Y-124999300D01*
X156299300Y-124999300D02*
X156050000Y-124750000D01*
X131500000Y-108760000D02*
X134530000Y-108760000D01*
X134530000Y-108760000D02*
X134550000Y-108780000D01*
X134550000Y-103700000D02*
X131520000Y-103700000D01*
X131520000Y-103700000D02*
X131500000Y-103680000D01*
D25*
X144850000Y-118375000D02*
X144865067Y-118375000D01*
X144225000Y-117750000D02*
X144850000Y-118375000D01*
X144865067Y-118375000D02*
X145350000Y-118375000D01*
X140585000Y-123872600D02*
X140585000Y-124025000D01*
X144225000Y-117750000D02*
X143437600Y-117750000D01*
X153950000Y-117750000D02*
X144225000Y-117750000D01*
X143437600Y-117750000D02*
X139730000Y-114042400D01*
X139730000Y-114042400D02*
X139730000Y-113890000D01*
X146800000Y-119263109D02*
X143663109Y-119263109D01*
X143663109Y-119263109D02*
X142893962Y-118493962D01*
X142893962Y-118493962D02*
X142893962Y-118068962D01*
X142893962Y-118068962D02*
X140400000Y-115575000D01*
X140400000Y-115575000D02*
X138722600Y-115575000D01*
X138722600Y-115575000D02*
X137190000Y-114042400D01*
X137190000Y-114042400D02*
X137190000Y-113890000D01*
X137490000Y-113890000D02*
X137190000Y-113890000D01*
X146800000Y-119263109D02*
X147286882Y-118776227D01*
X147286882Y-118776227D02*
X153686605Y-118776227D01*
X153686605Y-118776227D02*
X154171538Y-118776227D01*
X146800000Y-119263109D02*
X146800000Y-120197600D01*
X146800000Y-120197600D02*
X143125000Y-123872600D01*
X143125000Y-123872600D02*
X143125000Y-124025000D01*
X161190000Y-115800000D02*
X161190000Y-116820000D01*
X161190000Y-116820000D02*
X161000000Y-117010000D01*
X161045015Y-100200200D02*
X161045015Y-99054899D01*
X158255617Y-100200200D02*
X158255617Y-99054899D01*
X158255617Y-100200200D02*
X158255617Y-99054899D01*
X161190316Y-115376401D02*
X161540316Y-115376401D01*
X161540316Y-115376401D02*
X162208326Y-115944098D01*
X162208326Y-115944098D02*
X162035617Y-116147324D01*
X161190316Y-114976401D02*
X161540316Y-114976401D01*
X161540316Y-114976401D02*
X162657575Y-115925886D01*
X162657575Y-115925886D02*
X162600996Y-116227803D01*
X162600996Y-116227803D02*
X162511810Y-116834445D01*
X161190316Y-114576401D02*
X161540316Y-114576401D01*
X161540316Y-114576401D02*
X163339083Y-116105055D01*
X163339083Y-116105055D02*
X163166374Y-116308281D01*
X161190316Y-114176401D02*
X161540316Y-114176401D01*
X161540316Y-114176401D02*
X163788332Y-116086842D01*
X163788332Y-116086842D02*
X163731753Y-116388759D01*
X163731753Y-116388759D02*
X163642567Y-116995401D01*
X161190316Y-113776401D02*
X161540316Y-113776401D01*
X161540316Y-113776401D02*
X164453897Y-116252462D01*
X164453897Y-116252462D02*
X164626605Y-116049236D01*
X161190316Y-113376401D02*
X161540316Y-113376401D01*
X161540316Y-113376401D02*
X164167151Y-115608776D01*
X164167151Y-115608776D02*
X164455989Y-115504240D01*
X164455989Y-115504240D02*
X165041329Y-115321633D01*
X161190316Y-112976401D02*
X161540316Y-112976401D01*
X161540316Y-112976401D02*
X164112665Y-115162471D01*
X164112665Y-115162471D02*
X164285373Y-114959245D01*
X161190316Y-112576401D02*
X161540316Y-112576401D01*
X161540316Y-112576401D02*
X163825920Y-114518785D01*
X163825920Y-114518785D02*
X164114757Y-114414250D01*
X164114757Y-114414250D02*
X164700097Y-114231642D01*
X161190316Y-112176401D02*
X161540316Y-112176401D01*
X161540316Y-112176401D02*
X163771433Y-114072481D01*
X163771433Y-114072481D02*
X163944142Y-113869254D01*
X161190316Y-111776401D02*
X161540316Y-111776401D01*
X161540316Y-111776401D02*
X163484688Y-113428795D01*
X163484688Y-113428795D02*
X163773526Y-113324259D01*
X163773526Y-113324259D02*
X164358866Y-113141651D01*
X161190316Y-111376401D02*
X161540316Y-111376401D01*
X161540316Y-111376401D02*
X163430201Y-112982490D01*
X163430201Y-112982490D02*
X163602910Y-112779264D01*
X161190316Y-110976401D02*
X161540316Y-110976401D01*
X161540316Y-110976401D02*
X163143456Y-112338804D01*
X163143456Y-112338804D02*
X163432294Y-112234268D01*
X163432294Y-112234268D02*
X164017634Y-112051661D01*
X161190316Y-110576401D02*
X161540316Y-110576401D01*
X161540316Y-110576401D02*
X163088969Y-111892499D01*
X163088969Y-111892499D02*
X163261678Y-111689273D01*
X161190316Y-110176401D02*
X161540316Y-110176401D01*
X161540316Y-110176401D02*
X162802224Y-111248813D01*
X162802224Y-111248813D02*
X163091062Y-111144278D01*
X163091062Y-111144278D02*
X163676402Y-110961670D01*
X161190316Y-109776401D02*
X161540316Y-109776401D01*
X161540316Y-109776401D02*
X162747737Y-110802509D01*
X162747737Y-110802509D02*
X162920446Y-110599282D01*
X161190316Y-106224000D02*
X161540316Y-106224000D01*
X161540316Y-106224000D02*
X162747737Y-105197892D01*
X162747737Y-105197892D02*
X162920446Y-105401118D01*
X161190316Y-105824000D02*
X161540316Y-105824000D01*
X161540316Y-105824000D02*
X162802224Y-104751587D01*
X162802224Y-104751587D02*
X163091062Y-104856123D01*
X163091062Y-104856123D02*
X163676402Y-105038731D01*
X161190316Y-105424000D02*
X161540316Y-105424000D01*
X161540316Y-105424000D02*
X163088969Y-104107901D01*
X163088969Y-104107901D02*
X163261678Y-104311128D01*
X161190316Y-105024000D02*
X161540316Y-105024000D01*
X161540316Y-105024000D02*
X163143456Y-103661597D01*
X163143456Y-103661597D02*
X163432294Y-103766132D01*
X163432294Y-103766132D02*
X164017634Y-103948740D01*
X161190316Y-104624000D02*
X161540316Y-104624000D01*
X161540316Y-104624000D02*
X163430201Y-103017911D01*
X163430201Y-103017911D02*
X163602910Y-103221137D01*
X161190316Y-104224000D02*
X161540316Y-104224000D01*
X161540316Y-104224000D02*
X163484688Y-102571606D01*
X163484688Y-102571606D02*
X163773526Y-102676142D01*
X163773526Y-102676142D02*
X164358866Y-102858749D01*
X161190316Y-103824000D02*
X161540316Y-103824000D01*
X161540316Y-103824000D02*
X163771433Y-101927920D01*
X163771433Y-101927920D02*
X163944142Y-102131146D01*
X161190316Y-103424000D02*
X161540316Y-103424000D01*
X161540316Y-103424000D02*
X163825920Y-101481616D01*
X163825920Y-101481616D02*
X164114757Y-101586151D01*
X164114757Y-101586151D02*
X164700097Y-101768759D01*
X161190316Y-103024000D02*
X161540316Y-103024000D01*
X161540316Y-103024000D02*
X164112665Y-100837930D01*
X164112665Y-100837930D02*
X164285373Y-101041156D01*
X161190316Y-102624000D02*
X161540316Y-102624000D01*
X161540316Y-102624000D02*
X164167151Y-100391625D01*
X164167151Y-100391625D02*
X164455989Y-100496161D01*
X164455989Y-100496161D02*
X165041329Y-100678768D01*
X161190316Y-102224000D02*
X161540316Y-102224000D01*
X161540316Y-102224000D02*
X164453897Y-99747939D01*
X164453897Y-99747939D02*
X164626605Y-99951165D01*
X161190316Y-101824000D02*
X161540316Y-101824000D01*
X161540316Y-101824000D02*
X163788332Y-99913558D01*
X163788332Y-99913558D02*
X163731753Y-99611642D01*
X163731753Y-99611642D02*
X163642567Y-99005000D01*
X161190316Y-101424000D02*
X161540316Y-101424000D01*
X161540316Y-101424000D02*
X163339083Y-99895346D01*
X163339083Y-99895346D02*
X163166374Y-99692120D01*
X161190316Y-101024000D02*
X161540316Y-101024000D01*
X161540316Y-101024000D02*
X162657575Y-100074515D01*
X162657575Y-100074515D02*
X162600996Y-99772598D01*
X162600996Y-99772598D02*
X162511810Y-99165956D01*
X161190316Y-100624000D02*
X161540316Y-100624000D01*
X161540316Y-100624000D02*
X162208326Y-100056303D01*
X162208326Y-100056303D02*
X162035617Y-99853076D01*
X158110316Y-100624000D02*
X157760316Y-100624000D01*
X157760316Y-100624000D02*
X157092307Y-100056303D01*
X157092307Y-100056303D02*
X157265015Y-99853076D01*
X158110316Y-101024000D02*
X157760316Y-101024000D01*
X157760316Y-101024000D02*
X156643057Y-100074515D01*
X156643057Y-100074515D02*
X156699637Y-99772598D01*
X156699637Y-99772598D02*
X156788823Y-99165956D01*
X158110316Y-101424000D02*
X157760316Y-101424000D01*
X157760316Y-101424000D02*
X155961549Y-99895346D01*
X155961549Y-99895346D02*
X156134258Y-99692120D01*
X158110316Y-101824000D02*
X157760316Y-101824000D01*
X157760316Y-101824000D02*
X155512300Y-99913558D01*
X155512300Y-99913558D02*
X155568880Y-99611642D01*
X155568880Y-99611642D02*
X155658066Y-99005000D01*
X158110316Y-102224000D02*
X157760316Y-102224000D01*
X157760316Y-102224000D02*
X154846736Y-99747939D01*
X154846736Y-99747939D02*
X154674027Y-99951165D01*
X158110316Y-102624000D02*
X157760316Y-102624000D01*
X157760316Y-102624000D02*
X155133481Y-100391625D01*
X155133481Y-100391625D02*
X154844643Y-100496161D01*
X154844643Y-100496161D02*
X154259303Y-100678768D01*
X158110316Y-103024000D02*
X157760316Y-103024000D01*
X157760316Y-103024000D02*
X155187968Y-100837930D01*
X155187968Y-100837930D02*
X155015259Y-101041156D01*
X158110316Y-103424000D02*
X157760316Y-103424000D01*
X157760316Y-103424000D02*
X155474713Y-101481616D01*
X155474713Y-101481616D02*
X155185875Y-101586151D01*
X155185875Y-101586151D02*
X154600535Y-101768759D01*
X158110316Y-103824000D02*
X157760316Y-103824000D01*
X157760316Y-103824000D02*
X155529200Y-101927920D01*
X155529200Y-101927920D02*
X155356491Y-102131146D01*
X155527107Y-102676142D02*
X154941767Y-102858749D01*
X155815945Y-102571606D02*
X155527107Y-102676142D01*
X158110316Y-104224000D02*
X157760316Y-104224000D01*
X157760316Y-104224000D02*
X155815945Y-102571606D01*
X158110316Y-104624000D02*
X157760316Y-104624000D01*
X157760316Y-104624000D02*
X155870431Y-103017911D01*
X155870431Y-103017911D02*
X155697723Y-103221137D01*
X158110316Y-106624000D02*
X157760316Y-106624000D01*
X157760316Y-106624000D02*
X156839640Y-105841578D01*
X156839640Y-105841578D02*
X156550802Y-105946114D01*
X156550802Y-105946114D02*
X155965462Y-106128721D01*
X158110316Y-107024000D02*
X157760316Y-107024000D01*
X157760316Y-107024000D02*
X156894127Y-106287883D01*
X156894127Y-106287883D02*
X156721418Y-106491109D01*
X158110316Y-110576401D02*
X158087435Y-110599282D01*
X158087435Y-110599282D02*
X156865120Y-110599282D01*
X156865120Y-110599282D02*
X156380187Y-110599282D01*
X156498409Y-111248813D02*
X156209571Y-111144278D01*
X156209571Y-111144278D02*
X155624231Y-110961670D01*
X157295579Y-111248813D02*
X156498409Y-111248813D01*
X158110316Y-110976401D02*
X157567991Y-110976401D01*
X157567991Y-110976401D02*
X157295579Y-111248813D01*
X156523888Y-111689273D02*
X156038955Y-111689273D01*
X157530320Y-111571859D02*
X156641302Y-111571859D01*
X156641302Y-111571859D02*
X156523888Y-111689273D01*
X158110316Y-111376401D02*
X157725778Y-111376401D01*
X157725778Y-111376401D02*
X157530320Y-111571859D01*
X155868339Y-112234268D02*
X155282999Y-112051661D01*
X156871396Y-112338804D02*
X156157177Y-112338804D01*
X156157177Y-112338804D02*
X155868339Y-112234268D01*
X157645318Y-111874130D02*
X157336070Y-111874130D01*
X157760316Y-111776401D02*
X157645318Y-111874130D01*
X158110316Y-111776401D02*
X157760316Y-111776401D01*
X157336070Y-111874130D02*
X156871396Y-112338804D01*
X156858412Y-112779264D02*
X156182656Y-112779264D01*
X157461275Y-112176401D02*
X156858412Y-112779264D01*
X158110316Y-112176401D02*
X157461275Y-112176401D01*
X156182656Y-112779264D02*
X155697723Y-112779264D01*
X155527107Y-113324259D02*
X154941767Y-113141651D01*
X155815945Y-113428795D02*
X155527107Y-113324259D01*
X156636356Y-113428795D02*
X155815945Y-113428795D01*
X157488750Y-112576401D02*
X156636356Y-113428795D01*
X158110316Y-112576401D02*
X157488750Y-112576401D01*
X155841424Y-113869254D02*
X155356491Y-113869254D01*
X156623371Y-113869254D02*
X155841424Y-113869254D01*
X157516224Y-112976401D02*
X156623371Y-113869254D01*
X158110316Y-112976401D02*
X157516224Y-112976401D01*
X158110316Y-113376401D02*
X157543700Y-113376401D01*
X155185875Y-114414250D02*
X154600535Y-114231642D01*
X157543700Y-113376401D02*
X156401316Y-114518785D01*
X155474713Y-114518785D02*
X155185875Y-114414250D01*
X156401316Y-114518785D02*
X155474713Y-114518785D01*
X155612626Y-114846811D02*
X155500192Y-114959245D01*
X156500765Y-114846811D02*
X155612626Y-114846811D01*
X157571175Y-113776401D02*
X156500765Y-114846811D01*
X158110316Y-113776401D02*
X157571175Y-113776401D01*
X155500192Y-114959245D02*
X155015259Y-114959245D01*
X154844643Y-115504240D02*
X154259303Y-115321633D01*
X156491426Y-115254747D02*
X156481221Y-115254747D01*
X155133481Y-115608776D02*
X154844643Y-115504240D01*
X156481221Y-115254747D02*
X156127192Y-115608776D01*
X157598650Y-114176401D02*
X156683732Y-115091319D01*
X158110316Y-114176401D02*
X157598650Y-114176401D01*
X156683732Y-115091319D02*
X156491426Y-115254747D01*
X156127192Y-115608776D02*
X155133481Y-115608776D01*
X155771307Y-116392135D02*
X156606426Y-115557016D01*
X155016926Y-116392135D02*
X155771307Y-116392135D01*
X154674027Y-116049236D02*
X155016926Y-116392135D01*
X156606426Y-115557016D02*
X156866696Y-115335830D01*
X157626125Y-114576401D02*
X158110316Y-114576401D01*
X156866696Y-115335830D02*
X157626125Y-114576401D01*
X155657101Y-117012899D02*
X155657101Y-117207101D01*
X158110000Y-115000000D02*
X157670000Y-115000000D01*
X155857101Y-117407101D02*
X156200000Y-117750000D01*
X157670000Y-115000000D02*
X155657101Y-117012899D01*
X155657101Y-117207101D02*
X155857101Y-117407101D01*
X156906378Y-116191096D02*
X156906378Y-116639085D01*
X158110316Y-115376401D02*
X157721073Y-115376401D01*
X157721073Y-115376401D02*
X156906378Y-116191096D01*
X156906378Y-116639085D02*
X156563479Y-116981984D01*
X158110000Y-115800000D02*
X158110000Y-117125353D01*
X158110000Y-117125353D02*
X157529757Y-117705596D01*
X157529757Y-117705596D02*
X157186858Y-118048495D01*
D26*
X145665000Y-124297600D02*
X145665000Y-124450000D01*
D25*
X134650000Y-113890000D02*
X134650000Y-114042400D01*
X134650000Y-114042400D02*
X132200000Y-116492400D01*
X132200000Y-116492400D02*
X132200000Y-117725000D01*
X132200000Y-117725000D02*
X138045000Y-123570000D01*
X138045000Y-123570000D02*
X138045000Y-124450000D01*
D26*
G36*
X155770092Y-107106451D02*
X155954093Y-107106611D01*
X156166759Y-107319649D01*
X156526048Y-107468839D01*
X156915081Y-107469178D01*
X157097307Y-107393884D01*
X157125000Y-107417418D01*
X157125000Y-107527002D01*
X157144339Y-107527002D01*
X157125000Y-107573690D01*
X157125000Y-107591250D01*
X157133750Y-107600000D01*
X157125000Y-107608750D01*
X157125000Y-107626310D01*
X157196945Y-107800000D01*
X157125000Y-107973690D01*
X157125000Y-107991250D01*
X157133750Y-108000000D01*
X157125000Y-108008750D01*
X157125000Y-108026310D01*
X157196945Y-108200000D01*
X157125000Y-108373690D01*
X157125000Y-108391250D01*
X157133750Y-108400000D01*
X157125000Y-108408750D01*
X157125000Y-108426310D01*
X157196945Y-108600000D01*
X157125000Y-108773690D01*
X157125000Y-108791250D01*
X157133750Y-108800000D01*
X157125000Y-108808750D01*
X157125000Y-108826310D01*
X157196945Y-109000000D01*
X157125000Y-109173690D01*
X157125000Y-109191250D01*
X157133750Y-109200000D01*
X157125000Y-109208750D01*
X157125000Y-109226310D01*
X157196755Y-109399541D01*
X157163569Y-109448110D01*
X157132572Y-109601178D01*
X157125000Y-109608750D01*
X157125000Y-109626310D01*
X157126667Y-109630335D01*
X157112560Y-109700000D01*
X157112560Y-109801206D01*
X156998355Y-109834363D01*
X156934846Y-109770742D01*
X156575557Y-109621552D01*
X156186524Y-109621213D01*
X155826975Y-109769775D01*
X155612617Y-109983760D01*
X155577000Y-109983729D01*
X155577000Y-107026272D01*
X155770092Y-107106451D01*
X155770092Y-107106451D01*
G37*
X155770092Y-107106451D02*
X155954093Y-107106611D01*
X156166759Y-107319649D01*
X156526048Y-107468839D01*
X156915081Y-107469178D01*
X157097307Y-107393884D01*
X157125000Y-107417418D01*
X157125000Y-107527002D01*
X157144339Y-107527002D01*
X157125000Y-107573690D01*
X157125000Y-107591250D01*
X157133750Y-107600000D01*
X157125000Y-107608750D01*
X157125000Y-107626310D01*
X157196945Y-107800000D01*
X157125000Y-107973690D01*
X157125000Y-107991250D01*
X157133750Y-108000000D01*
X157125000Y-108008750D01*
X157125000Y-108026310D01*
X157196945Y-108200000D01*
X157125000Y-108373690D01*
X157125000Y-108391250D01*
X157133750Y-108400000D01*
X157125000Y-108408750D01*
X157125000Y-108426310D01*
X157196945Y-108600000D01*
X157125000Y-108773690D01*
X157125000Y-108791250D01*
X157133750Y-108800000D01*
X157125000Y-108808750D01*
X157125000Y-108826310D01*
X157196945Y-109000000D01*
X157125000Y-109173690D01*
X157125000Y-109191250D01*
X157133750Y-109200000D01*
X157125000Y-109208750D01*
X157125000Y-109226310D01*
X157196755Y-109399541D01*
X157163569Y-109448110D01*
X157132572Y-109601178D01*
X157125000Y-109608750D01*
X157125000Y-109626310D01*
X157126667Y-109630335D01*
X157112560Y-109700000D01*
X157112560Y-109801206D01*
X156998355Y-109834363D01*
X156934846Y-109770742D01*
X156575557Y-109621552D01*
X156186524Y-109621213D01*
X155826975Y-109769775D01*
X155612617Y-109983760D01*
X155577000Y-109983729D01*
X155577000Y-107026272D01*
X155770092Y-107106451D01*
M02*
