G04 #@! TF.FileFunction,Legend,Bot*
%FSLAX46Y46*%
G04 Gerber Fmt 4.6, Leading zero omitted, Abs format (unit mm)*
G04 Created by KiCad (PCBNEW (2015-11-03 BZR 6296)-product) date Monday, December 21, 2015 'PMt' 04:07:47 PM*
%MOMM*%
G01*
G04 APERTURE LIST*
%ADD10C,0.100000*%
%ADD11C,0.175000*%
%ADD12C,0.150000*%
G04 APERTURE END LIST*
D10*
D11*
X152211428Y-125135714D02*
X152325714Y-125192857D01*
X152554285Y-125192857D01*
X152668571Y-125135714D01*
X152725714Y-125078571D01*
X152782857Y-124964286D01*
X152782857Y-124621429D01*
X152725714Y-124507143D01*
X152668571Y-124450000D01*
X152554285Y-124392857D01*
X152325714Y-124392857D01*
X152211428Y-124450000D01*
X151697143Y-125192857D02*
X151697143Y-123992857D01*
X151582857Y-124735714D02*
X151240000Y-125192857D01*
X151240000Y-124392857D02*
X151697143Y-124850000D01*
X150211428Y-125192857D02*
X150211428Y-123992857D01*
X150211428Y-125135714D02*
X150325714Y-125192857D01*
X150554285Y-125192857D01*
X150668571Y-125135714D01*
X150725714Y-125078571D01*
X150782857Y-124964286D01*
X150782857Y-124621429D01*
X150725714Y-124507143D01*
X150668571Y-124450000D01*
X150554285Y-124392857D01*
X150325714Y-124392857D01*
X150211428Y-124450000D01*
X149640000Y-125078571D02*
X149582857Y-125135714D01*
X149640000Y-125192857D01*
X149697143Y-125135714D01*
X149640000Y-125078571D01*
X149640000Y-125192857D01*
X149239999Y-124392857D02*
X148782856Y-124392857D01*
X149068571Y-123992857D02*
X149068571Y-125021429D01*
X149011428Y-125135714D01*
X148897142Y-125192857D01*
X148782856Y-125192857D01*
X147925714Y-125135714D02*
X148040000Y-125192857D01*
X148268571Y-125192857D01*
X148382857Y-125135714D01*
X148440000Y-125021429D01*
X148440000Y-124564286D01*
X148382857Y-124450000D01*
X148268571Y-124392857D01*
X148040000Y-124392857D01*
X147925714Y-124450000D01*
X147868571Y-124564286D01*
X147868571Y-124678571D01*
X148440000Y-124792857D01*
X146840000Y-125135714D02*
X146954286Y-125192857D01*
X147182857Y-125192857D01*
X147297143Y-125135714D01*
X147354286Y-125078571D01*
X147411429Y-124964286D01*
X147411429Y-124621429D01*
X147354286Y-124507143D01*
X147297143Y-124450000D01*
X147182857Y-124392857D01*
X146954286Y-124392857D01*
X146840000Y-124450000D01*
X146325715Y-125192857D02*
X146325715Y-123992857D01*
X145811429Y-125192857D02*
X145811429Y-124564286D01*
X145868572Y-124450000D01*
X145982858Y-124392857D01*
X146154286Y-124392857D01*
X146268572Y-124450000D01*
X146325715Y-124507143D01*
X144382858Y-123935714D02*
X145411429Y-125478571D01*
X143468572Y-124392857D02*
X143468572Y-125192857D01*
X143982858Y-124392857D02*
X143982858Y-125021429D01*
X143925715Y-125135714D01*
X143811429Y-125192857D01*
X143640001Y-125192857D01*
X143525715Y-125135714D01*
X143468572Y-125078571D01*
X142668572Y-123992857D02*
X142440001Y-123992857D01*
X142325715Y-124050000D01*
X142211429Y-124164286D01*
X142154287Y-124392857D01*
X142154287Y-124792857D01*
X142211429Y-125021429D01*
X142325715Y-125135714D01*
X142440001Y-125192857D01*
X142668572Y-125192857D01*
X142782858Y-125135714D01*
X142897144Y-125021429D01*
X142954287Y-124792857D01*
X142954287Y-124392857D01*
X142897144Y-124164286D01*
X142782858Y-124050000D01*
X142668572Y-123992857D01*
X141697144Y-125135714D02*
X141525715Y-125192857D01*
X141240001Y-125192857D01*
X141125715Y-125135714D01*
X141068572Y-125078571D01*
X141011429Y-124964286D01*
X141011429Y-124850000D01*
X141068572Y-124735714D01*
X141125715Y-124678571D01*
X141240001Y-124621429D01*
X141468572Y-124564286D01*
X141582858Y-124507143D01*
X141640001Y-124450000D01*
X141697144Y-124335714D01*
X141697144Y-124221429D01*
X141640001Y-124107143D01*
X141582858Y-124050000D01*
X141468572Y-123992857D01*
X141182858Y-123992857D01*
X141011429Y-124050000D01*
X140497144Y-125192857D02*
X140497144Y-123992857D01*
X140211429Y-123992857D01*
X140040001Y-124050000D01*
X139925715Y-124164286D01*
X139868572Y-124278571D01*
X139811429Y-124507143D01*
X139811429Y-124678571D01*
X139868572Y-124907143D01*
X139925715Y-125021429D01*
X140040001Y-125135714D01*
X140211429Y-125192857D01*
X140497144Y-125192857D01*
X138440001Y-123935714D02*
X139468572Y-125478571D01*
X138154286Y-124392857D02*
X137868572Y-125192857D01*
X137582858Y-124392857D01*
X136497143Y-125192857D02*
X137182858Y-125192857D01*
X136840000Y-125192857D02*
X136840000Y-123992857D01*
X136954286Y-124164286D01*
X137068572Y-124278571D01*
X137182858Y-124335714D01*
D12*
X164512381Y-105980477D02*
X164512381Y-105504286D01*
X164988571Y-105456667D01*
X164940952Y-105504286D01*
X164893333Y-105599524D01*
X164893333Y-105837620D01*
X164940952Y-105932858D01*
X164988571Y-105980477D01*
X165083810Y-106028096D01*
X165321905Y-106028096D01*
X165417143Y-105980477D01*
X165464762Y-105932858D01*
X165512381Y-105837620D01*
X165512381Y-105599524D01*
X165464762Y-105504286D01*
X165417143Y-105456667D01*
X164512381Y-106647143D02*
X164512381Y-106742382D01*
X164560000Y-106837620D01*
X164607619Y-106885239D01*
X164702857Y-106932858D01*
X164893333Y-106980477D01*
X165131429Y-106980477D01*
X165321905Y-106932858D01*
X165417143Y-106885239D01*
X165464762Y-106837620D01*
X165512381Y-106742382D01*
X165512381Y-106647143D01*
X165464762Y-106551905D01*
X165417143Y-106504286D01*
X165321905Y-106456667D01*
X165131429Y-106409048D01*
X164893333Y-106409048D01*
X164702857Y-106456667D01*
X164607619Y-106504286D01*
X164560000Y-106551905D01*
X164512381Y-106647143D01*
X164512381Y-107599524D02*
X164512381Y-107694763D01*
X164560000Y-107790001D01*
X164607619Y-107837620D01*
X164702857Y-107885239D01*
X164893333Y-107932858D01*
X165131429Y-107932858D01*
X165321905Y-107885239D01*
X165417143Y-107837620D01*
X165464762Y-107790001D01*
X165512381Y-107694763D01*
X165512381Y-107599524D01*
X165464762Y-107504286D01*
X165417143Y-107456667D01*
X165321905Y-107409048D01*
X165131429Y-107361429D01*
X164893333Y-107361429D01*
X164702857Y-107409048D01*
X164607619Y-107456667D01*
X164560000Y-107504286D01*
X164512381Y-107599524D01*
X165512381Y-108361429D02*
X164845714Y-108361429D01*
X164940952Y-108361429D02*
X164893333Y-108409048D01*
X164845714Y-108504286D01*
X164845714Y-108647144D01*
X164893333Y-108742382D01*
X164988571Y-108790001D01*
X165512381Y-108790001D01*
X164988571Y-108790001D02*
X164893333Y-108837620D01*
X164845714Y-108932858D01*
X164845714Y-109075715D01*
X164893333Y-109170953D01*
X164988571Y-109218572D01*
X165512381Y-109218572D01*
X165226667Y-109647143D02*
X165226667Y-110123334D01*
X165512381Y-109551905D02*
X164512381Y-109885238D01*
X165512381Y-110218572D01*
X132100000Y-101557143D02*
X132147619Y-101652381D01*
X132147619Y-101795238D01*
X132100000Y-101938096D01*
X132004762Y-102033334D01*
X131909524Y-102080953D01*
X131719048Y-102128572D01*
X131576190Y-102128572D01*
X131385714Y-102080953D01*
X131290476Y-102033334D01*
X131195238Y-101938096D01*
X131147619Y-101795238D01*
X131147619Y-101700000D01*
X131195238Y-101557143D01*
X131242857Y-101509524D01*
X131576190Y-101509524D01*
X131576190Y-101700000D01*
X131147619Y-101080953D02*
X132147619Y-101080953D01*
X131147619Y-100509524D01*
X132147619Y-100509524D01*
X131147619Y-100033334D02*
X132147619Y-100033334D01*
X132147619Y-99795239D01*
X132100000Y-99652381D01*
X132004762Y-99557143D01*
X131909524Y-99509524D01*
X131719048Y-99461905D01*
X131576190Y-99461905D01*
X131385714Y-99509524D01*
X131290476Y-99557143D01*
X131195238Y-99652381D01*
X131147619Y-99795239D01*
X131147619Y-100033334D01*
X130814286Y-98795239D02*
X132242857Y-98795239D01*
X132147619Y-98223810D02*
X131147619Y-97890477D01*
X132147619Y-97557143D01*
X131147619Y-97080953D02*
X131195238Y-97176191D01*
X131242857Y-97223810D01*
X131338095Y-97271429D01*
X131623810Y-97271429D01*
X131719048Y-97223810D01*
X131766667Y-97176191D01*
X131814286Y-97080953D01*
X131814286Y-96938095D01*
X131766667Y-96842857D01*
X131719048Y-96795238D01*
X131623810Y-96747619D01*
X131338095Y-96747619D01*
X131242857Y-96795238D01*
X131195238Y-96842857D01*
X131147619Y-96938095D01*
X131147619Y-97080953D01*
X131814286Y-95890476D02*
X131147619Y-95890476D01*
X131814286Y-96319048D02*
X131290476Y-96319048D01*
X131195238Y-96271429D01*
X131147619Y-96176191D01*
X131147619Y-96033333D01*
X131195238Y-95938095D01*
X131242857Y-95890476D01*
X131814286Y-95557143D02*
X131814286Y-95176191D01*
X132147619Y-95414286D02*
X131290476Y-95414286D01*
X131195238Y-95366667D01*
X131147619Y-95271429D01*
X131147619Y-95176191D01*
X131950000Y-118807142D02*
X131997619Y-118902380D01*
X131997619Y-119045237D01*
X131950000Y-119188095D01*
X131854762Y-119283333D01*
X131759524Y-119330952D01*
X131569048Y-119378571D01*
X131426190Y-119378571D01*
X131235714Y-119330952D01*
X131140476Y-119283333D01*
X131045238Y-119188095D01*
X130997619Y-119045237D01*
X130997619Y-118949999D01*
X131045238Y-118807142D01*
X131092857Y-118759523D01*
X131426190Y-118759523D01*
X131426190Y-118949999D01*
X130997619Y-118330952D02*
X131997619Y-118330952D01*
X130997619Y-117759523D01*
X131997619Y-117759523D01*
X130997619Y-117283333D02*
X131997619Y-117283333D01*
X131997619Y-117045238D01*
X131950000Y-116902380D01*
X131854762Y-116807142D01*
X131759524Y-116759523D01*
X131569048Y-116711904D01*
X131426190Y-116711904D01*
X131235714Y-116759523D01*
X131140476Y-116807142D01*
X131045238Y-116902380D01*
X130997619Y-117045238D01*
X130997619Y-117283333D01*
X130664286Y-116045238D02*
X132092857Y-116045238D01*
X131997619Y-115473809D02*
X130997619Y-115140476D01*
X131997619Y-114807142D01*
X130997619Y-114473809D02*
X131664286Y-114473809D01*
X131997619Y-114473809D02*
X131950000Y-114521428D01*
X131902381Y-114473809D01*
X131950000Y-114426190D01*
X131997619Y-114473809D01*
X131902381Y-114473809D01*
X131664286Y-113997619D02*
X130997619Y-113997619D01*
X131569048Y-113997619D02*
X131616667Y-113950000D01*
X131664286Y-113854762D01*
X131664286Y-113711904D01*
X131616667Y-113616666D01*
X131521429Y-113569047D01*
X130997619Y-113569047D01*
X158725000Y-99240000D02*
X160575000Y-99240000D01*
X158725000Y-116760000D02*
X160575000Y-116760000D01*
X159650000Y-115800000D02*
X159650000Y-100200000D01*
X156850000Y-96500000D02*
X157550000Y-96500000D01*
X157550000Y-95300000D02*
X156850000Y-95300000D01*
X158337500Y-94737500D02*
X156187500Y-94737500D01*
X159162500Y-92487500D02*
X156187500Y-92487500D01*
X154950000Y-91875000D02*
X155950000Y-91875000D01*
X155950000Y-90525000D02*
X154950000Y-90525000D01*
M02*
